<svg width="23" height="24" viewBox="0 0 23 24" fill="none" xmlns="http://www.w3.org/2000/svg">
<path d="M4.675 8.85C5.15761 8.85 5.63549 8.75494 6.08136 8.57026C6.52723 8.38557 6.93236 8.11487 7.27362 7.77362C7.61487 7.43236 7.88557 7.02723 8.07026 6.58136C8.25494 6.13549 8.35 5.65761 8.35 5.175C8.35 4.69239 8.25494 4.21451 8.07026 3.76864C7.88557 3.32277 7.61487 2.91764 7.27362 2.57638C6.93236 2.23513 6.52723 1.96443 6.08136 1.77974C5.63549 1.59506 5.15761 1.5 4.675 1.5C3.70033 1.5 2.76558 1.88719 2.07638 2.57638C1.38719 3.26558 1 4.20033 1 5.175C1 6.14967 1.38719 7.08442 2.07638 7.77362C2.76558 8.46281 3.70033 8.85 4.675 8.85V8.85ZM16.75 15.15H19.9C21.055 15.15 22 16.095 22 17.25V20.4C22 21.555 21.055 22.5 19.9 22.5H16.75C15.595 22.5 14.65 21.555 14.65 20.4V17.25C14.65 16.095 15.595 15.15 16.75 15.15Z" stroke="#334166" stroke-width="1.5"/>
<path d="M11.5314 4.65002H14.3454C16.2879 4.65002 17.1909 7.05452 15.7314 8.33552L7.34192 15.675C5.88242 16.9455 6.78542 19.35 8.71742 19.35H11.5314" stroke="#334166" stroke-width="1.5" stroke-linecap="round" stroke-linejoin="round"/>
<path d="M4.69141 5.17505H4.70401M18.3414 18.825H18.354" stroke="#334166" stroke-width="2" stroke-linecap="round" stroke-linejoin="round"/>
</svg>
