<svg width="24" height="24" viewBox="0 0 24 24" fill="none" xmlns="http://www.w3.org/2000/svg">
<path d="M5.13474 18.8487V15.7673C5.13474 14.7437 5.93266 13.8256 7.06654 13.8256C8.08494 13.8256 8.99835 14.6276 8.99835 15.7673V18.7327C8.99835 20.7905 7.29752 22.5 5.25023 22.5C3.20293 22.5 1.5021 20.7799 1.5021 18.7327V12.2322C1.38661 6.30151 6.04815 1.5 11.9486 1.5C17.849 1.5 22.5 6.30151 22.5 12.1161V18.6166C22.5 20.6744 20.7992 22.3839 18.7519 22.3839C16.7046 22.3839 15.0037 20.6744 15.0037 18.6166V15.6513C15.0037 14.6276 15.8017 13.7095 16.9356 13.7095C17.954 13.7095 18.8674 14.5116 18.8674 15.6513V18.8487" stroke="#334166" stroke-width="1.5" stroke-linecap="round" stroke-linejoin="round"/>
</svg>
