<svg width="24" height="24" fill="none" xmlns="http://www.w3.org/2000/svg"><path d="M5.353 1.321A3.758 3.758 0 0 0 2.547 3.56c-.301.73-.281.288-.297 6.58-.014 5.707-.004 6.179.133 6.712.162.633.673 1.439 1.172 1.85.796.654 1.529.896 2.725.898.727.002 1.069.054 1.431.22.314.144.463.273 1.569 1.362.954.939 1.16 1.116 1.507 1.292.694.352 1.825.334 2.49-.04.356-.199.484-.313 1.583-1.393.879-.865 1.083-1.046 1.32-1.168.154-.08.352-.167.44-.193.088-.027.574-.062 1.08-.079 1.079-.037 1.337-.089 1.96-.398a3.718 3.718 0 0 0 2.009-2.575c.066-.305.071-.733.071-6.188 0-5.529-.004-5.879-.073-6.2-.297-1.376-1.271-2.416-2.67-2.847l-.297-.092-6.58-.006c-3.619-.004-6.664.008-6.767.026m13.422 1.566c.698.271 1.225.849 1.405 1.541.092.35.09 11.68-.001 12.03-.183.702-.768 1.304-1.519 1.563-.154.053-.418.076-1.14.1-.774.026-.992.047-1.235.117-.889.257-1.199.475-2.519 1.777-.975.961-1.088 1.06-1.306 1.142-.313.118-.749.103-1.02-.036-.113-.058-.558-.465-1.2-1.098-1.086-1.07-1.348-1.285-1.883-1.541-.567-.271-.85-.325-1.897-.363-.506-.018-.992-.054-1.08-.08-.725-.213-1.374-.871-1.559-1.581-.091-.35-.093-11.68-.001-12.03a2.277 2.277 0 0 1 1.72-1.627c.088-.018 3.04-.03 6.56-.027l6.4.006.275.107M8.16 6.78c-.455.102-.821.313-1.18.676-.497.503-.704.982-.712 1.647-.004.355.059.52.257.667.218.162.698.169.936.013.161-.105.252-.293.281-.579.034-.327.105-.505.27-.678a.922.922 0 0 1 1.417.068c.355.466.238 1.017-.317 1.486-.144.121-.511.395-.816.608-1.035.722-1.422 1.118-1.746 1.788-.143.294-.168.386-.182.669-.015.286-.005.354.084.548.135.296.388.561.662.696l.226.111H9c1.588 0 1.666-.003 1.796-.08.221-.13.292-.259.314-.573.026-.363-.079-.609-.313-.728-.144-.074-.24-.079-1.495-.079-.78 0-1.342-.015-1.342-.036 0-.02.071-.127.158-.237.163-.206.572-.54 1.162-.948.905-.625 1.315-1.028 1.578-1.549.375-.743.337-1.712-.094-2.379-.327-.506-.754-.852-1.276-1.034A2.784 2.784 0 0 0 8.16 6.78m6.893.012c-.287.102-.511.259-.657.459-.182.25-2.192 3.613-2.312 3.869-.088.186-.104.276-.104.58 0 .312.015.39.111.586.135.275.399.525.702.667.226.106.231.107 1.352.121l1.124.013.02.473c.021.512.07.657.276.81.226.168.724.168.95 0 .206-.153.255-.299.276-.81l.02-.472.253-.027c.462-.049.668-.278.668-.741 0-.465-.206-.692-.673-.742l-.259-.027V9.825c0-1-.018-1.834-.042-1.985-.049-.307-.23-.634-.445-.805-.359-.285-.867-.384-1.26-.243m.227 3.328v1.44h-.86c-.473 0-.86-.009-.86-.02 0-.042 1.685-2.86 1.71-2.86.005 0 .01.648.01 1.44" fill-rule="evenodd" fill="#000"/></svg>