<svg width="24" height="24" fill="none" xmlns="http://www.w3.org/2000/svg"><path d="M8.393 1.28a7.764 7.764 0 0 0-6.75 5.302 7.534 7.534 0 0 0-.361 1.891c-.051.741.004.984.26 1.152.235.154.716.147.933-.015.203-.152.247-.285.286-.877.053-.797.131-1.199.358-1.837.32-.9.806-1.655 1.507-2.344.544-.535.954-.828 1.614-1.153.437-.215 1.32-.527 1.32-.467 0 .008-.081.156-.18.33-.099.173-.191.373-.204.444-.091.485.645.991 1.099.756a.74.74 0 0 0 .211-.19c.108-.142 1.058-1.721 1.175-1.952.083-.163.093-.54.018-.685-.179-.346-.445-.419-1.286-.355m3.187 3.999a3.204 3.204 0 0 0-1.04.293c-.387.192-3.383 1.867-3.58 2.001-.628.428-1.219 1.34-1.406 2.167-.078.346-.078 4.221 0 4.54.22.9.799 1.771 1.461 2.194.395.252 3.397 1.913 3.652 2.02.511.215 1.118.293 1.742.226.648-.07.906-.182 2.634-1.139 1.766-.979 2.131-1.204 2.411-1.486.536-.539.933-1.33 1.03-2.048.026-.193.036-1.046.026-2.268-.014-1.873-.019-1.972-.102-2.247-.25-.826-.757-1.555-1.372-1.974-.327-.223-3.452-1.954-3.734-2.069-.459-.186-1.169-.273-1.722-.21m1.003 1.54c.229.068 3.554 1.901 3.686 2.033l.089.088-2.156 1.25c-1.186.687-2.177 1.25-2.202 1.25-.025 0-1.017-.563-2.205-1.25L7.636 8.94l.097-.084c.167-.144 3.516-1.986 3.706-2.039.256-.07.904-.07 1.144.002m4.414 7.077a2.277 2.277 0 0 1-.582 1.113c-.182.182-.498.373-1.926 1.166l-1.709.948-.01-2.169c-.007-1.328.004-2.184.027-2.207.021-.021.98-.584 2.131-1.251l2.092-1.214.011 1.669c.008 1.117-.004 1.76-.034 1.945m-7.908-2.391a99.105 99.105 0 0 1 2.101 1.232c.04.037.048.513.04 2.215l-.01 2.168-1.7-.942c-1.563-.865-1.72-.962-1.947-1.197a2.21 2.21 0 0 1-.4-.569L7.02 14.1l-.011-1.89c-.007-1.039-.003-1.89.009-1.89s.944.533 2.071 1.185m12.698 2.773a.773.773 0 0 0-.26.11c-.205.154-.249.286-.288.879-.053.798-.131 1.199-.359 1.84a6.145 6.145 0 0 1-1.506 2.342 5.6 5.6 0 0 1-1.605 1.145c-.438.219-1.329.536-1.329.474 0-.008.081-.156.18-.33.099-.173.191-.373.204-.444.091-.485-.645-.991-1.099-.756-.155.079-.234.193-.859 1.236-.309.515-.563.986-.584 1.08-.067.304.043.629.26.771.168.11.411.133.998.092a7.513 7.513 0 0 0 2.88-.775 7.077 7.077 0 0 0 1.995-1.415 7.63 7.63 0 0 0 2.302-4.987c.042-.607.016-.849-.107-1.014-.158-.213-.491-.313-.823-.248" fill-rule="evenodd" fill="#000"/></svg>