<svg width="24" height="24" fill="none" xmlns="http://www.w3.org/2000/svg"><path d="M8.08 1.282c-4.072.213-6.185 2.014-6.697 5.709-.113.812-.141 1.825-.141 5.009 0 4.504.06 5.273.518 6.65.772 2.313 2.446 3.576 5.267 3.972.759.106 1.875.137 4.973.137s4.214-.031 4.973-.137c2.47-.347 4.023-1.334 4.924-3.132.482-.96.741-2.121.823-3.683.051-.969.051-6.645 0-7.614-.063-1.195-.199-2.002-.478-2.837-.61-1.825-1.773-2.989-3.592-3.596-.862-.287-1.627-.416-2.844-.48-.854-.045-6.854-.043-7.726.002m8.72 1.572c2.786.462 3.914 1.6 4.348 4.386.066.421.072.824.072 4.76s-.006 4.339-.072 4.76c-.436 2.798-1.59 3.952-4.388 4.388-.421.066-.824.072-4.76.072s-4.339-.006-4.76-.072c-2.79-.435-3.957-1.597-4.386-4.368-.069-.445-.074-.791-.074-4.78 0-4.753-.004-4.663.264-5.712C3.557 4.282 4.722 3.274 6.96 2.9c.73-.123 1.088-.131 5.24-.123 3.763.007 4.222.014 4.6.077m-5.22 2.425a3.204 3.204 0 0 0-1.04.293c-.387.192-3.383 1.867-3.58 2.001-.628.428-1.219 1.34-1.406 2.167-.078.346-.078 4.221 0 4.54.22.9.799 1.771 1.461 2.194.395.252 3.397 1.913 3.652 2.02.511.215 1.118.293 1.742.226.648-.07.906-.182 2.634-1.139 1.766-.979 2.131-1.204 2.411-1.486.536-.539.933-1.33 1.03-2.048.026-.193.036-1.046.026-2.268-.014-1.873-.019-1.972-.102-2.247-.25-.826-.757-1.555-1.372-1.974-.327-.223-3.452-1.954-3.734-2.069-.459-.186-1.169-.273-1.722-.21m1.003 1.54c.229.068 3.554 1.901 3.686 2.033l.089.088-2.156 1.25c-1.186.687-2.177 1.25-2.202 1.25-.025 0-1.017-.563-2.205-1.25L7.636 8.94l.097-.084c.167-.144 3.516-1.986 3.706-2.039.256-.07.904-.07 1.144.002m4.414 7.077a2.277 2.277 0 0 1-.582 1.113c-.182.182-.498.373-1.926 1.166l-1.709.948-.01-2.169c-.007-1.328.004-2.184.027-2.207.021-.021.98-.584 2.131-1.251l2.092-1.214.011 1.669c.008 1.117-.004 1.76-.034 1.945m-7.908-2.391a99.105 99.105 0 0 1 2.101 1.232c.04.037.048.513.04 2.215l-.01 2.168-1.7-.942c-1.563-.865-1.72-.962-1.947-1.197a2.21 2.21 0 0 1-.4-.569L7.02 14.1l-.011-1.89c-.007-1.039-.003-1.89.009-1.89s.944.533 2.071 1.185" fill-rule="evenodd" fill="#000"/></svg>