<svg width="24" height="24" fill="none" xmlns="http://www.w3.org/2000/svg"><path d="M11.48 1.34a3.231 3.231 0 0 0-.463.133c-.243.096-6.766 3.609-7.001 3.77-.936.641-1.007 2.149-.138 2.927.13.116 1.25.741 3.546 1.978 1.846.995 3.442 1.846 3.547 1.893.589.259 1.47.259 2.058-.001.105-.046 1.701-.897 3.547-1.892 2.296-1.237 3.416-1.862 3.546-1.978.399-.358.604-.835.606-1.41.001-.65-.281-1.206-.788-1.548-.214-.145-6.747-3.656-6.957-3.739a2.751 2.751 0 0 0-1.503-.133m.86 1.492c.296.104 6.705 3.562 6.81 3.676a.397.397 0 0 1 0 .507c-.145.161-6.681 3.663-6.936 3.717a.938.938 0 0 1-.428 0c-.255-.054-6.791-3.556-6.936-3.717a.36.36 0 0 1-.09-.255.35.35 0 0 1 .09-.252c.105-.114 6.514-3.572 6.81-3.676.11-.038.263-.069.34-.069.077 0 .23.031.34.069M2.514 9.373c-.679.231-1.141.802-1.237 1.527-.027.209-.037 1.37-.028 3.36l.014 3.04.111.358A3.093 3.093 0 0 0 2.62 19.33c.154.099 1.686.883 3.404 1.741 2.243 1.121 3.19 1.574 3.36 1.61a1.879 1.879 0 0 0 2.215-1.456c.031-.151.041-1.156.031-3.39-.014-3.523 0-3.332-.288-3.942a2.895 2.895 0 0 0-.729-.968c-.253-.229-.505-.364-3.493-1.868-1.771-.892-3.323-1.657-3.449-1.699-.324-.11-.808-.104-1.157.015m17.806-.014c-.121.041-1.669.805-3.44 1.697-2.986 1.504-3.24 1.64-3.493 1.869-.334.302-.55.589-.729.968-.29.613-.278.438-.278 4.067v3.26l.091.26c.302.866 1.237 1.39 2.146 1.201.172-.036 1.113-.487 3.38-1.622 1.729-.864 3.26-1.648 3.403-1.741.535-.348 1.014-.978 1.196-1.572.046-.151.102-.43.124-.62.052-.455.051-5.895-.001-6.266a1.854 1.854 0 0 0-1.27-1.5c-.338-.105-.828-.105-1.129-.001M6.353 12.337c3.136 1.568 3.154 1.578 3.377 1.819.136.147.259.331.317.473l.093.231.012 2.98c.009 1.968-.001 3.028-.028 3.121-.042.14-.21.279-.34.279-.035 0-1.482-.709-3.214-1.576-2.326-1.163-3.199-1.619-3.339-1.742a1.483 1.483 0 0 1-.32-.433l-.131-.267-.011-3.101c-.008-2.269.001-3.124.034-3.187.053-.099.176-.167.308-.171.049-.002 1.509.707 3.242 1.574m14.701-1.533a.361.361 0 0 1 .143.13c.033.063.042.925.034 3.187l-.011 3.101-.131.267a1.483 1.483 0 0 1-.32.433c-.14.123-1.013.579-3.339 1.742-1.732.867-3.178 1.576-3.212 1.576-.142 0-.295-.122-.339-.27-.031-.105-.04-1.045-.031-3.13l.012-2.98.093-.231c.058-.142.181-.326.317-.473.223-.24.244-.252 3.367-1.817 1.729-.866 3.183-1.576 3.231-1.577a.524.524 0 0 1 .186.042" fill-rule="evenodd" fill="#000"/></svg>