<svg width="24" height="24" fill="none" xmlns="http://www.w3.org/2000/svg"><path d="M14.1 1.28c-.92.082-1.506.321-2.002.818-.411.411-.594.773-.743 1.471-.064.299-.084.592-.103 1.515l-.023 1.145-1.145.023c-1.187.025-1.597.074-2.075.253a2.588 2.588 0 0 0-1.504 1.504c-.179.478-.228.888-.253 2.075l-.023 1.145-1.145.023c-1.207.025-1.593.074-2.103.264a2.56 2.56 0 0 0-1.492 1.548c-.226.651-.229.71-.229 3.936 0 3.247.002 3.288.239 3.965A2.541 2.541 0 0 0 3.032 22.5c.681.238.716.24 3.988.24 2.975-.001 3.003-.002 3.42-.092.833-.182 1.468-.597 1.824-1.194.367-.616.455-1.079.485-2.558l.023-1.124 1.144-.024c1.375-.03 1.725-.086 2.324-.376.53-.256.876-.602 1.132-1.132.29-.599.346-.949.376-2.324l.024-1.144 1.144-.024c1.375-.03 1.725-.086 2.324-.376.744-.359 1.202-.987 1.408-1.932.091-.417.091-.444.092-3.42 0-3.25-.003-3.303-.229-3.958-.305-.882-1.024-1.481-2.051-1.706-.388-.085-.486-.088-3.2-.098-1.54-.005-2.962.004-3.16.022m6.066 1.538c.603.128.888.413 1.016 1.015.083.392.083 5.942 0 6.333-.132.625-.448.921-1.102 1.033-.18.031-1.166.041-3.22.033l-2.96-.012-.269-.095c-.487-.173-.701-.445-.814-1.035-.083-.434-.082-5.864.001-6.256.127-.602.406-.886.998-1.014.368-.081 5.973-.082 6.35-.002M11.251 8.95c.022 1.257.051 1.498.247 2.036a2.492 2.492 0 0 0 1.516 1.516c.538.196.779.225 2.036.247l1.19.02-.001 1.066c0 1.125-.036 1.447-.193 1.751-.17.33-.485.53-.966.613-.18.031-1.166.041-3.22.033L8.9 16.22l-.269-.095c-.487-.173-.701-.445-.814-1.035-.083-.434-.082-5.864.001-6.256.096-.452.275-.718.597-.882.302-.154.592-.185 1.73-.189l1.086-.003.02 1.19m-5 5c.016.906.037 1.261.088 1.486.288 1.275.95 1.937 2.225 2.225.225.051.58.072 1.486.088l1.19.02-.001 1.066c0 1.125-.036 1.447-.193 1.751-.17.33-.485.531-.966.613-.18.031-1.173.041-3.24.032-2.676-.011-3-.019-3.18-.08-.427-.145-.666-.384-.811-.811-.061-.18-.069-.504-.08-3.18-.009-2.067.001-3.06.032-3.24.083-.481.283-.796.615-.967.299-.155.59-.186 1.729-.19l1.086-.003.02 1.19" fill-rule="evenodd" fill="#000"/></svg>