<svg width="24" height="24" fill="none" xmlns="http://www.w3.org/2000/svg"><path d="M8.08 1.282c-4.072.213-6.185 2.014-6.697 5.709-.113.812-.141 1.825-.141 5.009 0 4.504.06 5.273.518 6.65.772 2.313 2.446 3.576 5.267 3.972.759.106 1.875.137 4.973.137s4.214-.031 4.973-.137c2.47-.347 4.023-1.334 4.924-3.132.482-.96.741-2.121.823-3.683.051-.969.051-6.645 0-7.614-.063-1.195-.199-2.002-.478-2.837-.61-1.825-1.773-2.989-3.592-3.596-.862-.287-1.627-.416-2.844-.48-.854-.045-6.854-.043-7.726.002m8.72 1.572c2.786.462 3.914 1.6 4.348 4.386.066.421.072.824.072 4.76s-.006 4.339-.072 4.76c-.436 2.798-1.59 3.952-4.388 4.388-.421.066-.824.072-4.76.072s-4.339-.006-4.76-.072c-2.79-.435-3.957-1.597-4.386-4.368-.069-.445-.074-.791-.074-4.78 0-4.753-.004-4.663.264-5.712C3.557 4.282 4.722 3.274 6.96 2.9c.73-.123 1.088-.131 5.24-.123 3.763.007 4.222.014 4.6.077m-.423 5.947c-.133.065-.372.351-1.316 1.57a74.818 74.818 0 0 1-1.275 1.619c-.213.228-.16.257-1.526-.825-.418-.331-.877-.661-1.02-.733-.247-.126-.282-.132-.7-.132-.551 0-.824.091-1.153.384-.22.196-2.506 3.117-2.717 3.472-.205.344-.128.675.215.923.342.248.66.25.903.007.062-.062.623-.777 1.248-1.589 1.265-1.645 1.342-1.737 1.469-1.737.055 0 .467.298 1.082.781 1.163.914 1.358 1.026 1.83 1.051.543.029.935-.094 1.286-.403.191-.169 2.48-3.085 2.644-3.369.228-.397.031-.826-.478-1.039-.194-.081-.297-.077-.492.02" fill-rule="evenodd" fill="#000"/></svg>