<svg width="24" height="24" fill="none" xmlns="http://www.w3.org/2000/svg"><path d="M11.56 1.266a10.763 10.763 0 0 0-9.105 5.833c-.811 1.574-1.181 3.1-1.183 4.881-.001 1.143.123 2.029.43 3.07 1.014 3.438 3.82 6.244 7.248 7.247 1.693.495 3.576.574 5.246.219a10.796 10.796 0 0 0 7.349-5.615c.815-1.582 1.183-3.103 1.183-4.901 0-1.137-.121-1.99-.431-3.05-1.003-3.428-3.819-6.244-7.247-7.247-1.11-.325-2.406-.487-3.49-.437m1.588 1.556c2.079.272 3.88 1.162 5.374 2.656a8.988 8.988 0 0 1 1.909 2.736A8.898 8.898 0 0 1 21.24 12c0 1.36-.258 2.567-.809 3.786a8.988 8.988 0 0 1-1.909 2.736 8.988 8.988 0 0 1-2.736 1.909A8.898 8.898 0 0 1 12 21.24a8.898 8.898 0 0 1-3.786-.809 8.988 8.988 0 0 1-2.736-1.909C3.695 16.739 2.76 14.495 2.76 12s.935-4.739 2.718-6.522c1.482-1.482 3.278-2.374 5.343-2.656.559-.076 1.748-.076 2.327 0m-1.361 4.456a.659.659 0 0 0-.447.326c-.076.129-.081.22-.092 1.884l-.013 1.747-1.747.013c-1.664.011-1.755.016-1.884.092-.273.161-.396.478-.327.845a.646.646 0 0 0 .327.475c.129.076.22.081 1.884.092l1.747.013.013 1.747c.011 1.664.016 1.755.092 1.884.161.273.478.396.845.327a.646.646 0 0 0 .475-.327c.076-.129.081-.22.092-1.884l.013-1.747 1.747-.013c1.664-.011 1.755-.016 1.884-.092a.646.646 0 0 0 .327-.475c.069-.367-.054-.684-.327-.845-.129-.076-.22-.081-1.886-.092l-1.75-.013-.002-1.627c-.001-.896-.017-1.706-.035-1.802-.079-.408-.458-.621-.936-.528" fill-rule="evenodd" fill="#000"/></svg>