<svg width="24" height="24" fill="none" xmlns="http://www.w3.org/2000/svg"><path d="M11.787 5.278a.659.659 0 0 0-.447.326c-.078.132-.08.219-.092 2.884l-.011 2.749-2.749.011c-2.665.012-2.752.014-2.884.092-.273.161-.396.478-.327.845a.646.646 0 0 0 .327.475c.132.078.219.08 2.884.092l2.749.011.011 2.749c.012 2.665.014 2.752.092 2.884.161.273.478.396.845.327a.646.646 0 0 0 .475-.327c.078-.132.08-.219.092-2.884l.011-2.749 2.749-.011c2.665-.012 2.752-.014 2.884-.092a.646.646 0 0 0 .327-.475c.069-.367-.054-.684-.327-.845-.132-.078-.219-.08-2.886-.092l-2.75-.011-.002-2.629c-.001-1.445-.017-2.706-.035-2.802-.079-.408-.458-.621-.936-.528" fill-rule="evenodd" fill="#000"/></svg>