<svg width="24" height="24" fill="none" xmlns="http://www.w3.org/2000/svg"><path d="M4.882 1.282c-1.899.153-3.108 1.142-3.496 2.861C1.264 4.684 1.24 5.479 1.24 9c0 4.229.022 4.611.309 5.42a3.434 3.434 0 0 0 1.99 2.018c.713.262 1.508.335 3.421.315 1.214-.012 1.309-.018 1.436-.093a.646.646 0 0 0 .327-.475c.069-.367-.054-.684-.327-.845-.129-.076-.231-.081-1.956-.103-1.72-.023-1.836-.029-2.114-.112-.806-.241-1.22-.658-1.454-1.466l-.092-.319V4.66l.092-.319c.234-.807.643-1.22 1.454-1.469.291-.089.319-.089 3.24-.102 2.788-.013 2.966-.009 3.326.064 1.184.242 1.692.926 1.784 2.399.036.573.063.648.299.825.093.068.17.082.465.082.401 0 .522-.056.653-.303.064-.121.07-.208.052-.737-.037-1.053-.265-1.773-.779-2.456-.388-.516-1.05-.963-1.726-1.164-.689-.204-.763-.209-3.64-.221-1.485-.006-2.888.004-3.118.023m8.578 6.001c-2.071.165-3.293 1.291-3.579 3.297-.024.171-.039 1.888-.039 4.42s.015 4.249.039 4.42c.154 1.084.589 1.924 1.277 2.472.488.388 1.034.622 1.802.771.286.056.737.069 2.86.085 3.291.026 3.9-.018 4.694-.335.887-.354 1.604-1.081 1.924-1.952.309-.842.332-1.275.312-5.901-.014-3.296-.024-3.826-.082-4.142-.223-1.225-.752-2.051-1.654-2.584-.562-.332-1.118-.487-1.977-.553-.618-.047-4.979-.045-5.577.002m6.214 1.589c.811.249 1.22.662 1.454 1.469l.092.319v8.68l-.092.319c-.234.807-.643 1.22-1.454 1.469-.291.089-.319.089-3.24.102-2.788.013-2.966.009-3.326-.064-.745-.153-1.216-.485-1.487-1.05-.292-.609-.281-.405-.281-5.116 0-3.911.005-4.242.071-4.524.218-.929.739-1.441 1.664-1.638.32-.069.561-.073 3.325-.065 2.961.01 2.982.01 3.274.099m-3.607 3.852c-.249.131-.305.309-.306.961l-.001.545-.57.018c-.655.02-.813.071-.959.306-.074.118-.091.204-.091.446 0 .242.017.328.091.446.146.235.304.286.959.306l.57.018.001.545c.001.66.057.831.314.963.219.111.628.113.842.003.26-.132.323-.32.323-.969v-.542l.57-.018c.655-.02.813-.071.959-.306.13-.209.13-.683 0-.892-.146-.235-.304-.286-.959-.306l-.57-.018v-.542c0-.649-.063-.837-.323-.969-.212-.109-.639-.106-.85.005" fill-rule="evenodd" fill="#000"/></svg>