<svg width="24" height="24" fill="none" xmlns="http://www.w3.org/2000/svg"><path d="M11.56 1.267c-4.685.214-8.534 3.834-9.038 8.501-.054.5-.054 1.565 0 2.064a9.55 9.55 0 0 0 2.595 5.54c.515.533.689.645.963.619.465-.045.837-.599.679-1.013-.022-.058-.243-.316-.491-.572-.701-.726-1.103-1.294-1.508-2.135a7.976 7.976 0 0 1 1.539-9.133 7.927 7.927 0 0 1 4.629-2.318c.544-.077 1.593-.076 2.155.002 4.98.695 8.117 5.706 6.555 10.471-.384 1.17-.995 2.17-1.899 3.107-.466.483-.499.534-.499.772 0 .228.039.315.235.521.19.201.323.267.535.267.241 0 .45-.143.898-.613a9.577 9.577 0 0 0 2.575-5.579c.067-.636.028-1.929-.079-2.548a9.37 9.37 0 0 0-.912-2.753 9.033 9.033 0 0 0-1.788-2.448 9.516 9.516 0 0 0-5.162-2.639c-.363-.061-1.448-.147-1.642-.131-.044.003-.197.012-.34.018M11.24 4.6c-.661.091-1.474.334-1.993.597-2.323 1.172-3.687 3.604-3.449 6.15.125 1.337.628 2.508 1.539 3.586.342.404.69.493 1.036.263.325-.215.466-.502.389-.789-.024-.088-.145-.278-.282-.441-.515-.613-.832-1.18-1.019-1.825-.145-.503-.188-.816-.188-1.381a4.614 4.614 0 0 1 .93-2.799c.99-1.323 2.647-2.056 4.26-1.884 2.296.245 4.061 2.039 4.255 4.323.112 1.317-.276 2.479-1.185 3.55-.362.427-.406.649-.194.974.237.363.669.493.998.3.173-.101.622-.631.902-1.064a6.222 6.222 0 0 0-.058-6.818c-.926-1.39-2.299-2.313-3.961-2.662-.455-.095-1.546-.139-1.98-.08m.26 3.296a2.96 2.96 0 0 0-2.14 1.582c-.404.8-.399 1.842.011 2.662.137.274.491.711.735.91a2.938 2.938 0 0 0 1.881.673c1.049.001 1.92-.469 2.492-1.345.281-.431.407-.851.431-1.443.03-.722-.123-1.273-.511-1.837-.618-.898-1.789-1.383-2.899-1.202m1.108 1.591c.29.136.569.414.705.705.092.197.107.28.107.608 0 .328-.015.411-.107.608a1.553 1.553 0 0 1-.705.705c-.197.092-.28.107-.608.107-.328 0-.411-.015-.608-.107a1.603 1.603 0 0 1-.697-.679c-.158-.308-.181-.831-.052-1.174.12-.319.484-.691.797-.813.321-.126.85-.108 1.168.04m-.912 5.637a2.872 2.872 0 0 0-1.628.717c-.228.209-1.431 1.661-1.856 2.241a2.947 2.947 0 0 0-.352 2.847 2.991 2.991 0 0 0 1.398 1.492c.607.293.663.299 2.723.299 1.144 0 1.893-.016 2.027-.043a2.926 2.926 0 0 0 2.075-1.651c.168-.359.233-.619.262-1.046a2.809 2.809 0 0 0-.423-1.692c-.172-.267-1.56-2.01-1.818-2.282-.61-.647-1.486-.968-2.408-.882m.808 1.561c.124.046.299.15.388.23.274.246 1.748 2.115 1.861 2.359.138.299.142.718.011 1.056-.117.3-.412.621-.711.772l-.233.118H12c-1.799 0-1.822-.001-2.012-.089a1.937 1.937 0 0 1-.405-.291c-.498-.471-.596-1.223-.233-1.78.152-.233 1.602-2.024 1.725-2.131.12-.103.377-.246.525-.292.21-.064.67-.04.904.048" fill-rule="evenodd" fill="#000"/></svg>