<svg width="24" height="24" fill="none" xmlns="http://www.w3.org/2000/svg"><path d="M11.675 1.479c-.923.166-1.927 1.243-2.302 2.47-.107.35-.107.354-.13 2.025L9.22 7.649l-2.7 1.168c-1.485.642-2.781 1.21-2.879 1.261-.584.303-1.018.832-1.268 1.542-.112.32-.112.321-.113 1.38 0 1.176.019 1.291.279 1.7.405.636 1.192.885 1.961.62a296.6 296.6 0 0 0 4.67-2.006c.066-.035.07.038.07 1.266v1.302l-1.255 1.269c-1.36 1.376-1.42 1.454-1.531 1.984-.084.397-.05.595.254 1.525.28.853.382 1.09.559 1.301.155.185.536.422.806.503.329.099.809.09 1.094-.02.231-.089.277-.126 2.003-1.574.426-.358.784-.63.83-.63.046 0 .404.272.83.63 1.731 1.453 1.772 1.485 2.003 1.573.497.189 1.175.082 1.639-.261.361-.265.492-.502.816-1.472.322-.963.361-1.215.256-1.631-.136-.536-.193-.608-1.534-1.962l-1.251-1.264.01-1.277.011-1.278 2.06.892c2.575 1.114 2.707 1.167 3.026 1.217a1.595 1.595 0 0 0 1.595-.707c.26-.409.279-.524.279-1.7-.001-1.056-.001-1.061-.112-1.376-.24-.68-.704-1.264-1.228-1.545-.055-.03-1.342-.59-2.86-1.245l-2.76-1.191-.023-1.631c-.026-1.772-.036-1.867-.273-2.449-.295-.725-.909-1.464-1.504-1.81a2.664 2.664 0 0 0-.48-.228 2.367 2.367 0 0 0-.825-.046m.618 1.605c.321.213.641.633.849 1.116.072.167.079.316.098 2.02.018 1.654.028 1.856.092 2 .114.255.271.458.446.578.089.061 1.401.645 2.915 1.297 1.514.653 2.839 1.23 2.945 1.284.229.116.378.283.518.581.099.21.104.256.115 1 .013.866-.012.991-.193.967-.054-.008-1.245-.508-2.648-1.113-1.607-.693-2.637-1.115-2.788-1.143-.517-.096-.997.145-1.242.626l-.14.275-.013 1.555c-.014 1.693.008 1.975.183 2.372.093.211.262.399 1.358 1.508.688.697 1.27 1.316 1.293 1.376.035.092.004.223-.203.843-.242.727-.291.814-.456.814-.034 0-.598-.45-1.252-1.001-.702-.59-1.275-1.041-1.397-1.1a1.828 1.828 0 0 0-1.056-.147 2.284 2.284 0 0 0-.49.147c-.122.059-.695.51-1.397 1.1-.656.552-1.224 1.001-1.267 1.001a.229.229 0 0 1-.137-.059c-.076-.077-.506-1.365-.506-1.519 0-.1.177-.296 1.234-1.36 1.711-1.723 1.62-1.496 1.599-3.972l-.013-1.552-.134-.271a1.148 1.148 0 0 0-1.346-.623c-.088.023-1.303.535-2.7 1.136-1.397.601-2.584 1.099-2.638 1.107-.183.024-.207-.099-.192-.987.013-.782.015-.805.123-1.011.226-.435.2-.421 2.668-1.486l2.953-1.277c.764-.331.952-.47 1.132-.835.093-.19.094-.203.115-2.011.021-1.75.025-1.829.11-2.057.119-.32.308-.63.547-.893.389-.43.599-.495.915-.286" fill-rule="evenodd" fill="#000"/></svg>