<svg width="24" height="24" fill="none" xmlns="http://www.w3.org/2000/svg"><path d="M8.08 1.282c-4.072.213-6.185 2.014-6.697 5.709-.113.812-.141 1.825-.141 5.009 0 4.504.06 5.273.518 6.65.772 2.313 2.446 3.576 5.267 3.972.759.106 1.875.137 4.973.137s4.214-.031 4.973-.137c2.47-.347 4.023-1.334 4.924-3.132.482-.96.741-2.121.823-3.683.051-.969.051-6.645 0-7.614-.063-1.195-.199-2.002-.478-2.837-.61-1.825-1.773-2.989-3.592-3.596-.862-.287-1.627-.416-2.844-.48-.854-.045-6.854-.043-7.726.002m8.72 1.572c2.786.462 3.914 1.6 4.348 4.386.066.421.072.824.072 4.76s-.006 4.339-.072 4.76c-.436 2.798-1.59 3.952-4.388 4.388-.421.066-.824.072-4.76.072s-4.339-.006-4.76-.072c-2.79-.435-3.957-1.597-4.386-4.368-.069-.445-.074-.791-.074-4.78 0-4.753-.004-4.663.264-5.712C3.557 4.282 4.722 3.274 6.96 2.9c.73-.123 1.088-.131 5.24-.123 3.763.007 4.222.014 4.6.077M11.756 4.2c-.787.135-1.608 1.036-1.858 2.04-.04.159-.056.527-.057 1.325-.001.835-.013 1.115-.051 1.144-.027.021-.923.415-1.99.874-2.191.944-2.28.995-2.626 1.506-.3.442-.376.716-.403 1.451-.042 1.174.139 1.648.756 1.983.238.129.275.137.633.136h.38l1.64-.704 1.64-.703.013.724.012.724-.857.84c-.472.462-.904.903-.959.98-.149.204-.269.598-.269.881 0 .182.047.389.185.811.321.982.466 1.21.907 1.426.461.226.918.241 1.308.041.077-.039.524-.396.994-.792l.854-.721.846.723c.983.841 1.131.927 1.586.924.512-.004.952-.228 1.225-.625.083-.121.214-.444.358-.88.216-.656.226-.702.206-.998-.038-.56-.133-.702-1.15-1.728l-.881-.889.011-.72.011-.72 1.52.655c.836.36 1.618.683 1.737.718a1.4 1.4 0 0 0 1.637-.74c.102-.217.107-.259.12-1.026.015-.888-.015-1.106-.199-1.473-.186-.37-.42-.648-.708-.842-.172-.115-.955-.475-2.197-1.009l-1.93-.83V7.635c0-.606-.019-1.163-.043-1.283-.149-.732-.652-1.487-1.25-1.876-.372-.242-.779-.34-1.151-.276m.49 1.657c.099.097.241.29.317.43l.137.253.02 1.32c.019 1.241.025 1.331.105 1.505.11.237.348.499.543.599.085.043 1.004.445 2.043.893 1.039.448 1.939.837 2 .865a.763.763 0 0 1 .23.232c.116.175.119.192.119.678 0 .455-.006.496-.07.477-.038-.011-.79-.329-1.67-.707-.88-.379-1.707-.716-1.839-.75-.437-.112-.851.015-1.167.358-.285.309-.3.404-.286 1.837l.012 1.253.111.237c.091.193.273.4 1.009 1.145l.898.908-.133.395-.15.449c-.011.034-.301-.188-.796-.611-.905-.773-1.129-.905-1.573-.934a1.408 1.408 0 0 0-.907.228c-.098.066-.511.402-.917.746l-.739.626-.151-.451-.151-.451.899-.884c.813-.798.911-.91 1.029-1.163l.131-.28v-2.6l-.107-.204a1.316 1.316 0 0 0-.564-.545c-.134-.071-.235-.09-.489-.09l-.32-.001-1.742.75c-.959.413-1.755.75-1.77.75-.016 0-.028-.219-.028-.486 0-.453.007-.5.104-.665.125-.212.014-.158 2.543-1.247 1.237-.533 1.835-.81 1.943-.903.086-.073.217-.247.293-.386l.137-.253.02-1.321.02-1.321.131-.267c.127-.256.437-.591.548-.591.026 0 .128.08.227.177" fill-rule="evenodd" fill="#000"/></svg>