<svg width="24" height="24" fill="none" xmlns="http://www.w3.org/2000/svg"><path d="M7.76 1.282c-2.405.115-3.873.676-4.72 1.804-.567.754-.845 1.541-1.047 2.961-.085.598-.088.735-.103 5.493-.011 3.253-.002 5.087.027 5.5.195 2.79.892 4.175 2.503 4.975.881.437 1.816.628 3.457.705 1.067.05 7.179.05 8.246 0 1.602-.075 2.547-.263 3.419-.68 1.415-.678 2.132-1.82 2.433-3.88.137-.938.151-1.616.135-6.62-.017-5.295-.011-5.123-.231-6.26-.465-2.394-1.784-3.549-4.455-3.899a20.414 20.414 0 0 0-1.277-.1c-.919-.045-7.447-.044-8.387.001m8.94 1.52c1.893.16 2.868.638 3.354 1.641.326.673.511 1.662.569 3.047l.028.67h-1.446c-1.231 0-1.445-.009-1.445-.058 0-.031-.085-.225-.19-.43a2.99 2.99 0 0 0-1.75-1.457c-.22-.065-.518-.073-3.64-.086-3.662-.015-3.768-.011-4.288.19-.679.262-1.37.962-1.591 1.613l-.078.228H3.36l.001-.25c.001-.4.074-1.374.138-1.832.263-1.892.908-2.696 2.461-3.071a11.743 11.743 0 0 1 1.46-.219c.521-.036 8.844-.023 9.28.014m-1.135 4.923c.308.145.53.357.674.645.101.203.121.29.121.529 0 .421-.087.634-.377.925-.423.423-.152.396-3.983.396-3.744 0-3.536.017-3.92-.327-.313-.282-.412-.482-.432-.875-.023-.435.054-.668.317-.956.218-.238.453-.371.744-.421.105-.018 1.64-.03 3.411-.027l3.22.006.225.105M6.293 9.894c.193.614.948 1.39 1.582 1.628.515.194.595.198 4.125.198 3.578 0 3.633-.003 4.155-.215.65-.264 1.33-.967 1.544-1.597l.078-.228h2.863l-.001 3.31c0 1.821-.018 3.58-.039 3.91-.08 1.239-.241 2.03-.539 2.64-.456.934-1.218 1.365-2.841 1.608-.441.066-.862.072-5.2.072-4.323 0-4.762-.006-5.22-.072-2.216-.317-2.972-1.043-3.28-3.145-.138-.947-.159-1.604-.159-5.013L3.36 9.68h2.865l.068.214" fill-rule="evenodd" fill="#000"/></svg>