<svg width="24" height="24" fill="none" xmlns="http://www.w3.org/2000/svg"><path d="M5.354 1.28c-1.993.191-3.631 1.689-4.02 3.676-.081.414-.079 1.217.003 1.656a4.564 4.564 0 0 0 3.049 3.463c.367.12.731.186 1.264.227l.31.025v3.387c0 2.104.016 3.514.042 3.72A2.597 2.597 0 0 0 7.43 19.45l.33.163v1.305c0 1.274.002 1.309.09 1.483.126.248.282.328.647.33.344.002.514-.075.642-.292.076-.13.082-.224.101-1.455l.02-1.316.212-.073c.668-.226 1.331-.859 1.588-1.515.188-.479.186-.401.173-7.32l-.013-6.54-.112-.36C10.7 2.554 9.716 1.632 8.415 1.335c-.32-.073-2.474-.112-3.061-.055M16.1 1.264c-.798.081-1.32.279-1.927.729-.611.453-1.028 1.063-1.284 1.879l-.109.348-.011 6.58c-.012 7.324-.027 6.894.261 7.479.111.226.233.387.489.644.352.355.641.548 1.009.672l.212.073.02 1.316c.019 1.231.025 1.325.101 1.455.126.213.292.29.636.292.365.002.525-.078.653-.33.088-.174.09-.209.09-1.483v-1.305l.33-.163a2.606 2.606 0 0 0 1.432-2.062c.02-.18.038-1.843.038-3.695v-3.366l.31-.025c.533-.041.897-.107 1.264-.227a4.567 4.567 0 0 0 3.052-3.471c.077-.394.077-1.254 0-1.648-.359-1.833-1.756-3.237-3.603-3.622-.204-.042-.634-.062-1.543-.072a35.816 35.816 0 0 0-1.42.002M8.219 2.821c.736.192 1.373.892 1.498 1.646.033.197.042 2.022.034 6.593-.012 7.118.021 6.44-.333 6.818a1.122 1.122 0 0 1-1.14.317c-.219-.066-.518-.308-.657-.533l-.121-.196-.02-4.083c-.02-3.992-.022-4.086-.1-4.219-.184-.312-.355-.36-1.312-.362-.812-.002-1.099-.057-1.628-.311-.333-.16-.43-.233-.784-.587-.352-.352-.429-.454-.589-.784a2.824 2.824 0 0 1-.307-1.34c0-.507.087-.887.307-1.34.16-.33.237-.432.589-.784.351-.352.454-.429.784-.59.578-.28.702-.297 2.222-.302 1.068-.003 1.366.008 1.557.057m10.673.002c.158.035.459.146.668.246.333.16.43.233.784.587.354.354.427.451.587.784.223.466.309.837.309 1.34 0 .503-.086.874-.309 1.34-.16.333-.233.43-.587.784-.354.354-.451.427-.784.587-.529.254-.816.309-1.628.311-.957.002-1.128.05-1.312.362-.078.133-.08.227-.1 4.219l-.02 4.083-.121.196c-.139.225-.438.467-.657.533-.395.118-.832 0-1.131-.305-.364-.37-.33.314-.342-6.83-.008-4.503.001-6.397.033-6.588.125-.755.753-1.453 1.482-1.649.328-.088 2.728-.088 3.128 0M5.501 4.124c-.131.02-.338.084-.46.143a1.981 1.981 0 0 0-.773.773 1.817 1.817 0 0 0 0 1.48c.137.282.49.635.772.772.398.193.969.216 1.222.051.241-.159.333-.675.179-1.012-.092-.205-.257-.312-.533-.349-.239-.032-.308-.077-.308-.202s.069-.17.308-.202a1.03 1.03 0 0 0 .332-.104c.269-.164.366-.688.19-1.035-.147-.29-.435-.388-.929-.315m12.492-.007c-.33.066-.511.322-.511.723 0 .438.203.684.61.738.239.032.308.077.308.202s-.069.17-.308.202c-.276.037-.441.144-.533.349-.154.337-.062.853.179 1.012.253.165.824.142 1.222-.051.282-.137.635-.49.772-.772a1.732 1.732 0 0 0-.239-1.838c-.356-.416-1.009-.662-1.5-.565" fill-rule="evenodd" fill="#000"/></svg>