<svg width="24" height="24" fill="none" xmlns="http://www.w3.org/2000/svg"><path d="M11.787 1.278a.659.659 0 0 0-.447.326c-.072.123-.08.208-.08.896 0 .688.008.773.08.896a.85.85 0 0 0 .185.214c.226.168.724.168.95 0 .214-.16.258-.297.277-.872.031-.921-.04-1.216-.332-1.381-.148-.084-.429-.119-.633-.079M3.806 3.245c-.193.057-.51.389-.565.59-.089.332-.029.429.733 1.191.576.576.713.694.856.732.254.067.458-.002.692-.236.234-.234.304-.438.236-.691-.038-.139-.157-.282-.672-.803-.344-.348-.68-.667-.746-.707a.69.69 0 0 0-.534-.076m15.994.001c-.101.029-.329.23-.826.727-.762.763-.822.86-.733 1.192.06.221.373.534.594.594.332.089.429.029 1.191-.733.578-.577.694-.713.732-.857.136-.511-.447-1.073-.958-.923m-8.46 2.035c-3.717.237-7.019 2.644-8.394 6.119a9.712 9.712 0 0 0-.668 3.011c-.02.313-.037 1.975-.037 3.694L2.24 21.23l-.277.027c-.488.048-.695.269-.695.743 0 .418.175.653.538.723.096.018 4.683.034 10.194.034 5.511 0 10.098-.016 10.194-.034.363-.07.538-.305.538-.723 0-.472-.207-.695-.691-.743l-.274-.027-.017-3.545c-.017-3.357-.022-3.573-.101-4.065-.282-1.754-.853-3.121-1.874-4.486-1.957-2.616-5.126-4.064-8.435-3.853m1.621 1.521a8.323 8.323 0 0 1 5.894 3.608c.543.802 1.034 1.968 1.222 2.899.155.764.163.995.163 4.5v3.431H3.76v-3.431c0-3.505.008-3.736.163-4.5.241-1.192.914-2.606 1.67-3.509.302-.36.766-.829 1.107-1.119 1.166-.99 2.735-1.677 4.284-1.875.395-.051 1.579-.053 1.977-.004" fill-rule="evenodd" fill="#000"/></svg>