<svg width="24" height="24" fill="none" xmlns="http://www.w3.org/2000/svg"><path d="M18.717 1.276a.62.62 0 0 0-.384.316c-.066.133-.074.285-.086 1.537l-.013 1.388-3.447.013c-3.152.011-3.468.018-3.687.082-.962.283-1.524.881-1.74 1.854-.159.715-.146 2.505.023 3.174.178.704.598 1.251 1.177 1.533.617.3.385.284 4.23.297l3.45.013V13h-5.697c-3.815 0-5.801.014-6.01.043-1.152.157-1.845.728-2.131 1.758-.215.774-.215 2.624 0 3.398.286 1.03.979 1.601 2.131 1.758.209.029 2.194.043 6.007.043h5.693l.014 1.13c.012 1.044.019 1.14.093 1.266.148.251.262.304.66.304s.512-.053.66-.304c.079-.135.08-.208.08-10.396 0-9.915-.002-10.265-.074-10.409-.104-.21-.297-.318-.598-.335a1.274 1.274 0 0 0-.351.02M18.24 8v2h-3.238c-3.374 0-3.513-.006-3.814-.173-.358-.198-.428-.497-.428-1.827 0-1.309.07-1.619.407-1.818.29-.171.384-.175 3.803-.179L18.24 6v2m0 8.5v2.02l-5.61-.001c-3.382-.001-5.729-.017-5.909-.04-.517-.067-.768-.252-.891-.655-.07-.23-.07-2.418 0-2.648.119-.392.381-.591.855-.653.14-.018 2.797-.035 5.905-.038l5.65-.005v2.02" fill-rule="evenodd" fill="#000"/></svg>