<svg width="24" height="24" fill="none" xmlns="http://www.w3.org/2000/svg"><path d="M4.693 1.282a.655.655 0 0 0-.401.43c-.018.081-.032 4.738-.032 10.348 0 10.128.001 10.201.08 10.336.148.251.262.304.66.304s.512-.053.66-.304c.074-.126.081-.222.093-1.266L5.767 20h5.693c3.813 0 5.798-.014 6.007-.043 1.152-.157 1.845-.728 2.131-1.758.215-.774.215-2.624 0-3.398-.286-1.03-.979-1.601-2.131-1.758-.209-.029-2.195-.043-6.01-.043H5.76v-1.517l3.45-.013c3.845-.013 3.613.003 4.23-.297.586-.286 1.004-.836 1.181-1.553.182-.743.182-2.497 0-3.24-.225-.915-.789-1.494-1.721-1.768-.219-.064-.535-.071-3.687-.082l-3.447-.013-.013-1.388c-.015-1.554-.023-1.602-.3-1.773-.158-.098-.557-.137-.76-.074m7.755 4.762c.44.092.617.262.731.697.088.339.088 2.179 0 2.518-.114.435-.291.605-.731.697-.145.03-1.231.044-3.45.044H5.76V6h3.238c2.219 0 3.305.014 3.45.044m4.831 8.477c.517.067.768.252.891.655.07.23.07 2.418 0 2.648-.123.403-.374.588-.891.655-.18.023-2.527.039-5.909.04l-5.61.001v-4.04l5.61.001c3.382.001 5.729.017 5.909.04" fill-rule="evenodd" fill="#000"/></svg>