<svg width="24" height="24" fill="none" xmlns="http://www.w3.org/2000/svg"><path d="M1.787 4.278c-.341.067-.519.314-.519.722 0 .418.175.653.538.723.096.018.745.034 1.442.035l1.269.002.013 3.43c.015 3.83 0 3.625.303 4.249.275.566.848 1.004 1.547 1.181.716.182 2.553.182 3.264 0 .887-.227 1.511-.832 1.736-1.683.117-.442.137-1.032.139-4.107l.001-3.07H13l.001 5.57c.001 3.101.018 5.747.039 5.97.047.507.124.804.305 1.174.263.54.773.934 1.456 1.124.667.186 2.498.21 3.253.042.981-.218 1.575-.783 1.851-1.76.069-.246.074-.579.085-6.187l.012-5.927 1.129-.013c1.043-.012 1.139-.019 1.265-.093.273-.161.396-.478.327-.845a.646.646 0 0 0-.327-.475c-.135-.079-.213-.08-10.296-.086-5.588-.003-10.229.008-10.313.024M10 9.053c0 2.912-.007 3.318-.064 3.51-.083.277-.185.42-.37.514-.283.144-.576.171-1.707.154-1.196-.018-1.321-.04-1.57-.282-.274-.265-.266-.159-.28-3.859l-.012-3.33H10v3.293m8.511 2.537c-.012 6.568.01 6.106-.311 6.381-.263.224-.354.24-1.539.259-1.637.026-1.895-.057-2.077-.667-.058-.196-.064-.799-.064-6.01V5.76h4.002l-.011 5.83" fill-rule="evenodd" fill="#000"/></svg>