<svg width="24" height="24" fill="none" xmlns="http://www.w3.org/2000/svg"><path d="M11.787 1.278a.659.659 0 0 0-.447.326c-.075.128-.081.221-.093 1.526l-.013 1.39H9.687c-.851 0-1.655.018-1.787.039-1.117.18-1.788.814-2.053 1.941-.102.431-.097 2.589.006 3.04.218.951.769 1.554 1.667 1.825.287.086.373.091 2.01.105l1.71.015V12.996l-2.65.013c-2.591.014-2.657.016-2.97.103-.745.206-1.237.594-1.531 1.208-.278.581-.309.803-.309 2.18 0 1.377.031 1.598.309 2.18.291.611.784.998 1.537 1.209.306.086.379.088 2.961.102l2.647.013.013 1.128c.012 1.042.019 1.138.093 1.264.161.273.478.396.845.327a.646.646 0 0 0 .475-.327c.074-.126.081-.222.093-1.264l.013-1.128 2.647-.014c2.888-.017 2.837-.013 3.425-.258.233-.098.619-.368.754-.53.31-.369.528-.907.606-1.495.054-.404.054-2.01 0-2.414-.078-.588-.296-1.126-.606-1.495-.135-.162-.521-.432-.754-.53-.588-.245-.537-.241-3.428-.258l-2.65-.014V11.48l1.57-.001c1.378 0 1.614-.009 1.93-.075 1.11-.231 1.727-.909 1.923-2.113.077-.478.077-2.104 0-2.582-.157-.967-.598-1.604-1.343-1.939-.484-.218-.795-.249-2.51-.249l-1.57-.001-.002-1.27c-.002-1.338-.02-1.553-.148-1.724-.158-.213-.491-.313-.823-.248m4.372 4.813c.491.196.598.539.598 1.909 0 1.379-.114 1.735-.613 1.909-.19.066-.472.071-4.144.071-3.703 0-3.953-.004-4.148-.073-.262-.091-.427-.275-.521-.577C7.27 9.133 7.26 8.941 7.26 8c0-.941.01-1.133.071-1.33.119-.383.343-.566.789-.643a244.68 244.68 0 0 1 3.98-.012c3.623.005 3.892.01 4.059.076m1.946 8.484c.536.194.654.543.654 1.925 0 1.382-.118 1.731-.654 1.925-.196.072-.459.076-5.865.087-3.618.007-5.779-.003-5.991-.029-.473-.058-.68-.17-.818-.446-.152-.302-.19-.612-.19-1.537 0-.925.038-1.235.19-1.537.088-.176.146-.236.3-.313.106-.052.304-.11.44-.128.137-.018 2.832-.031 5.989-.028 5.493.006 5.749.009 5.945.081" fill-rule="evenodd" fill="#000"/></svg>