<svg width="24" height="24" fill="none" xmlns="http://www.w3.org/2000/svg"><path d="M6.38 3.787a3.628 3.628 0 0 0-1.06.302c-.614.294-1.002.786-1.208 1.531-.087.313-.089.379-.103 2.967l-.013 2.647-1.128.013c-1.042.012-1.138.019-1.264.093-.273.161-.396.478-.327.845a.646.646 0 0 0 .327.475c.126.074.222.081 1.264.093l1.128.013.013 2.647c.014 2.588.016 2.654.103 2.967.205.741.599 1.241 1.208 1.531.549.261.79.301 1.969.32 1.143.019 1.548-.016 2.063-.178.286-.089.629-.275.85-.461.162-.135.432-.521.53-.754.245-.588.241-.537.258-3.428l.014-2.65h1.516v1.55c0 .852.018 1.658.039 1.79.179 1.109.815 1.788 1.921 2.049.356.084 2.198.119 2.7.051 1.022-.138 1.703-.59 2.05-1.36.218-.484.249-.795.249-2.507l.001-1.567 1.39-.013c1.305-.012 1.398-.018 1.526-.093.273-.161.396-.478.327-.845a.646.646 0 0 0-.327-.475c-.128-.075-.221-.081-1.526-.093l-1.39-.013-.001-1.567c0-1.375-.009-1.611-.075-1.927-.237-1.14-.958-1.769-2.224-1.94-.543-.073-2.347-.036-2.74.057-.941.221-1.535.769-1.805 1.663-.086.287-.091.373-.105 2.01l-.015 1.71H11.004l-.015-2.65c-.013-2.392-.022-2.677-.087-2.93-.276-1.074-.953-1.669-2.094-1.841-.358-.054-2.071-.077-2.428-.032m2.18 1.496c.513.083.74.249.866.633.071.213.074.498.074 6.084 0 5.586-.003 5.871-.074 6.084-.182.554-.527.675-1.926.675-.925 0-1.235-.038-1.537-.19-.267-.134-.386-.343-.443-.777-.05-.389-.05-11.195 0-11.584.057-.433.176-.643.443-.778.119-.06.316-.126.437-.145.314-.051 1.852-.052 2.16-.002m8.791 2.053c.285.091.467.26.556.516.069.195.073.445.073 4.148 0 4.249.007 4.104-.211 4.395-.224.3-.693.383-2 .355-1.01-.022-1.226-.062-1.467-.274a.824.824 0 0 1-.209-.328c-.069-.195-.073-.445-.073-4.148s.004-3.953.073-4.148c.117-.337.352-.497.843-.574.112-.018.654-.027 1.204-.021.803.01 1.042.025 1.211.079" fill-rule="evenodd" fill="#000"/></svg>