<svg width="24" height="24" fill="none" xmlns="http://www.w3.org/2000/svg"><path d="M11.393 1.281c-3.086.23-5.786 2.35-6.75 5.301a7.534 7.534 0 0 0-.361 1.891c-.051.741.004.984.26 1.152.235.154.716.147.933-.015.203-.152.247-.285.286-.877.053-.797.131-1.199.358-1.837.32-.9.806-1.655 1.507-2.344.536-.528.954-.827 1.59-1.142a6.25 6.25 0 0 1 4.884-.293c2.171.773 3.729 2.675 4.083 4.983a7.632 7.632 0 0 1 0 1.8 6.15 6.15 0 0 1-1.734 3.474 6.145 6.145 0 0 1-2.342 1.506c-.656.233-1.066.312-1.851.355-.629.035-.767.084-.916.332-.075.124-.081.216-.092 1.4l-.012 1.267-1.248.013c-1.163.012-1.257.018-1.384.093-.273.161-.396.478-.327.845a.646.646 0 0 0 .327.475c.127.075.221.081 1.383.093l1.247.013.013 1.247c.012 1.162.018 1.256.093 1.383.161.273.478.396.845.327a.646.646 0 0 0 .475-.327c.075-.127.081-.221.093-1.383l.013-1.247 1.247-.013c1.162-.012 1.256-.018 1.383-.093.273-.161.396-.478.327-.845a.646.646 0 0 0-.327-.475c-.127-.075-.221-.081-1.386-.093l-1.25-.013v-.753c0-.819-.005-.801.233-.801.059 0 .318-.044.575-.098a7.775 7.775 0 0 0 4.891-3.305c.125-.185.342-.571.483-.857a7.75 7.75 0 0 0-2.665-9.878c-1.406-.938-3.156-1.39-4.884-1.261" fill-rule="evenodd" fill="#000"/></svg>