<svg width="24" height="24" fill="none" xmlns="http://www.w3.org/2000/svg"><path d="M6.732 1.284C5.027 1.436 3.49 2.608 2.884 4.22a4.11 4.11 0 0 0-.283 1.263c-.054.612-.054 14.317 0 14.832.084.797.295 1.297.739 1.749.58.591 1.398.808 2.26.599.454-.11.835-.304 3.502-1.785 2.668-1.481 2.648-1.472 3.124-1.397.253.04.013-.085 2.834 1.48a316.63 316.63 0 0 0 2.58 1.42c.578.291 1.229.42 1.741.344.806-.12 1.394-.561 1.741-1.305.32-.684.293.009.309-8.22.01-5.168 0-7.469-.031-7.777-.114-1.124-.587-2.103-1.385-2.865-.806-.77-1.708-1.179-2.818-1.277-.549-.048-9.917-.046-10.465.003M17.81 2.905c.509.182.762.347 1.19.775.588.588.836 1.102.922 1.914.027.254.037 2.843.03 7.586-.012 6.711-.017 7.214-.082 7.404-.205.6-.658.807-1.282.584-.127-.046-1.396-.73-2.82-1.52-1.423-.79-2.689-1.474-2.812-1.52-.477-.176-1.174-.202-1.703-.064-.294.076-.431.148-3.196 1.684-1.344.746-2.546 1.389-2.671 1.428-.611.192-1.059-.018-1.229-.576-.077-.255-.078-.395-.068-7.82L4.1 5.22l.109-.32c.06-.176.177-.435.26-.576.324-.55 1.024-1.162 1.559-1.364.531-.201.351-.195 6.072-.187l5.36.007.35.125m-6.207 4.643a.612.612 0 0 0-.326.458c-.018.096-.034.566-.035 1.044l-.002.87h-1.002c-.932 0-1.012.006-1.163.083-.232.118-.332.355-.305.727.022.311.094.44.314.57.125.073.221.081 1.143.092l1.006.013.014 1.027c.015 1.158.035 1.248.307 1.417.118.074.204.091.446.091.242 0 .328-.017.446-.091.272-.169.292-.259.307-1.417l.014-1.027 1.006-.013c.922-.011 1.018-.019 1.143-.092.22-.13.292-.259.314-.57.027-.372-.073-.609-.305-.727-.151-.077-.231-.083-1.16-.083h-.998l-.013-.99c-.013-.904-.021-1.002-.094-1.126-.139-.236-.268-.302-.613-.316-.236-.009-.339.005-.444.06" fill-rule="evenodd" fill="#000"/></svg>