<svg width="24" height="24" fill="none" xmlns="http://www.w3.org/2000/svg"><path d="M21.801 1.246c-.1.029-.346.246-.869.764l-.729.723-.212-.205c-.607-.589-1.412-1.004-2.331-1.2-.238-.051-1.038-.063-5.28-.077-5.085-.016-5.749-.002-6.274.132a4.622 4.622 0 0 0-2.592 1.71c-.558.748-.831 1.462-.913 2.39-.048.54-.053 14.41-.006 14.657l.031.16-.669.681c-.553.562-.677.71-.714.85-.069.253.001.457.235.691.234.234.437.303.692.237.154-.04 1.143-1.017 10.302-10.172 5.572-5.57 10.17-10.189 10.217-10.264a.625.625 0 0 0-.032-.692c-.229-.325-.558-.473-.856-.385m-4.096 1.619c.274.095.673.29.885.434.158.107.53.455.53.495 0 .014-3.384 3.41-7.52 7.546l-7.521 7.52.011-6.82.01-6.82.109-.32c.06-.176.177-.435.26-.576.324-.55 1.024-1.162 1.559-1.364.531-.201.35-.195 6.072-.186 5.329.007 5.361.008 5.605.091m2.692 5.131a.62.62 0 0 0-.384.316c-.07.141-.074.428-.093 6.088-.02 5.928-.02 5.94-.104 6.145-.121.294-.266.466-.5.593-.187.102-.232.11-.53.094a1.592 1.592 0 0 1-.606-.138c-.154-.066-1.729-1.027-3.5-2.135a261.021 261.021 0 0 0-3.397-2.107c-.372-.193-.713-.068-.937.343-.193.355-.141.679.142.891.342.257 6.672 4.178 6.967 4.316.462.217.951.328 1.425.325.708-.006 1.201-.206 1.68-.683.52-.518.764-1.095.841-1.993.029-.348.04-2.274.031-6.051-.011-5.303-.015-5.546-.086-5.689-.104-.21-.297-.318-.598-.335a1.274 1.274 0 0 0-.351.02" fill-rule="evenodd" fill="#000"/></svg>