<svg width="24" height="24" fill="none" xmlns="http://www.w3.org/2000/svg"><path d="M6.732 1.284C5.027 1.436 3.49 2.608 2.884 4.22a4.11 4.11 0 0 0-.283 1.263c-.054.612-.054 14.317 0 14.832.084.797.295 1.297.739 1.749.58.591 1.398.808 2.26.599.454-.11.835-.304 3.502-1.785 2.668-1.481 2.648-1.472 3.124-1.397.253.04.013-.085 2.834 1.48a316.63 316.63 0 0 0 2.58 1.42c.578.291 1.229.42 1.741.344.806-.12 1.394-.561 1.741-1.305.32-.684.293.009.309-8.22.01-5.168 0-7.469-.031-7.777-.114-1.124-.587-2.103-1.385-2.865-.806-.77-1.708-1.179-2.818-1.277-.549-.048-9.917-.046-10.465.003M17.81 2.905c.509.182.762.347 1.19.775.588.588.836 1.102.922 1.914.027.254.037 2.843.03 7.586-.012 6.711-.017 7.214-.082 7.404-.205.6-.658.807-1.282.584-.127-.046-1.396-.73-2.82-1.52-1.423-.79-2.689-1.474-2.812-1.52-.477-.176-1.174-.202-1.703-.064-.294.076-.431.148-3.196 1.684-1.344.746-2.546 1.389-2.671 1.428-.611.192-1.059-.018-1.229-.576-.077-.255-.078-.395-.068-7.82L4.1 5.22l.109-.32c.06-.176.177-.435.26-.576.324-.55 1.024-1.162 1.559-1.364.531-.201.351-.195 6.072-.187l5.36.007.35.125m-2.991 4.876c-.066.033-.929.869-1.918 1.858l-1.798 1.798-.562-.552c-.636-.626-.818-.734-1.094-.652-.195.059-.469.294-.568.49-.1.194-.1.36-.002.549.098.19 1.826 1.909 1.976 1.965a.619.619 0 0 0 .59-.075c.097-.065 1.115-1.059 2.262-2.21 2.215-2.222 2.213-2.22 2.161-2.542-.053-.326-.456-.691-.763-.689a.784.784 0 0 0-.284.06" fill-rule="evenodd" fill="#000"/></svg>