<svg width="24" height="24" fill="none" xmlns="http://www.w3.org/2000/svg"><path d="M8.08 1.282c-4.072.213-6.185 2.014-6.697 5.709-.113.812-.141 1.825-.141 5.009 0 4.504.06 5.273.518 6.65.772 2.313 2.446 3.576 5.267 3.972.759.106 1.875.137 4.973.137s4.214-.031 4.973-.137c2.47-.347 4.023-1.334 4.924-3.132.482-.96.741-2.121.823-3.683.051-.969.051-6.645 0-7.614-.063-1.195-.199-2.002-.478-2.837-.61-1.825-1.773-2.989-3.592-3.596-.862-.287-1.627-.416-2.844-.48-.854-.045-6.854-.043-7.726.002m8.72 1.572c2.786.462 3.914 1.6 4.348 4.386.066.421.072.824.072 4.76s-.006 4.339-.072 4.76c-.436 2.798-1.59 3.952-4.388 4.388-.421.066-.824.072-4.76.072s-4.339-.006-4.76-.072c-2.79-.435-3.957-1.597-4.386-4.368-.069-.445-.074-.791-.074-4.78 0-4.753-.004-4.663.264-5.712C3.557 4.282 4.722 3.274 6.96 2.9c.73-.123 1.088-.131 5.24-.123 3.763.007 4.222.014 4.6.077M7.42 5.065c-.788.166-1.523.742-1.882 1.475-.29.593-.274.333-.288 4.605l-.014 3.845-.274.019c-.493.035-.694.253-.694.75 0 .37.119.577.392.681.085.033.707.045 2.147.043l2.027-.004.027.125a3.323 3.323 0 0 0 2.287 2.284c.446.126 1.258.126 1.704 0 1.027-.292 1.878-1.086 2.209-2.06l.118-.348 2.021.003c1.435.002 2.055-.01 2.14-.043.273-.104.392-.311.392-.681 0-.497-.201-.715-.694-.75l-.274-.019-.014-3.845c-.012-3.5-.019-3.867-.082-4.085-.293-1.018-1.117-1.795-2.116-1.998-.449-.09-8.699-.088-9.132.003m9.066 1.541c.262.123.512.358.641.602.08.151.093.243.106.748.014.547.011.574-.059.544a8.69 8.69 0 0 0-.394-.136l-.32-.104H7.54l-.32.104a8.69 8.69 0 0 0-.394.136c-.07.03-.073.003-.059-.544.013-.505.026-.597.106-.748.185-.351.551-.624.924-.688.101-.018 2.046-.029 4.323-.026l4.14.006.226.106m-.032 3.235c.29.109.596.415.705.705.069.185.081.312.081.857v.639l-.122-.063a2.767 2.767 0 0 0-.427-.141c-.292-.075-.477-.078-4.691-.078-4.214 0-4.399.003-4.691.078a2.767 2.767 0 0 0-.427.141l-.122.063v-.639c0-.782.052-.964.366-1.277.39-.39.006-.362 4.862-.364 4.174-.002 4.253-.001 4.466.079m.035 3.526c.509.239.751.65.751 1.275V15h-1.43c-.915 0-1.487.016-1.588.044a.591.591 0 0 0-.439.498c-.105.844-.186 1.055-.549 1.427a1.716 1.716 0 0 1-2.468 0c-.363-.372-.444-.583-.549-1.427a.591.591 0 0 0-.439-.498C9.677 15.016 9.105 15 8.19 15H6.76v-.358c0-.265.022-.417.082-.579.145-.387.541-.712.955-.783.101-.018 2.046-.029 4.323-.026l4.14.006.229.107" fill-rule="evenodd" fill="#000"/></svg>