<svg width="24" height="24" fill="none" xmlns="http://www.w3.org/2000/svg"><path d="M7.4 1.282c-1.888.121-3.298.834-4.163 2.104-.584.859-.874 1.796-.957 3.088-.052.826-.052 10.226 0 11.052.083 1.29.375 2.233.961 3.093.602.884 1.502 1.516 2.62 1.84.958.278 1.398.299 6.139.299 3.92 0 4.791-.021 5.441-.135 2.262-.397 3.705-1.81 4.158-4.068.141-.705.161-1.493.161-6.555 0-5.074-.019-5.847-.163-6.566-.257-1.291-.882-2.371-1.752-3.028-.95-.718-1.875-1.031-3.325-1.126-.671-.044-8.434-.043-9.12.002m.369 5.208.011 3.73.092.172c.293.548.854.813 1.417.669.136-.035.301-.097.365-.138.065-.041.614-.531 1.219-1.089.605-.558 1.112-1.014 1.127-1.014.015 0 .524.459 1.131 1.02 1.251 1.155 1.39 1.251 1.825 1.253.509.003.905-.224 1.145-.659l.119-.214.011-3.735.011-3.736.375.028c.772.056 1.573.303 2.076.638.727.485 1.175 1.179 1.42 2.2l.107.445v11.88l-.107.445c-.192.803-.465 1.327-.933 1.795-.468.468-.992.741-1.795.933l-.445.107H7.06l-.445-.107c-1.523-.365-2.349-1.185-2.727-2.708l-.105-.425-.014-5.72c-.009-3.805.001-5.842.028-6.083.201-1.746 1.1-2.852 2.635-3.241.42-.107.788-.163 1.117-.171l.209-.005.011 3.73m6.991-.465c0 3.046-.004 3.261-.067 3.21-.037-.03-.491-.447-1.01-.926C12.587 7.297 12.476 7.225 12 7.225c-.473 0-.589.074-1.664 1.064-.508.468-.962.885-1.01.927l-.086.076V2.76h5.52v3.265m-1.733 7.253c-.36.072-.517.313-.499.769.014.345.08.474.316.613.132.078.208.08 2.536.08 2.336 0 2.404-.002 2.54-.081a.67.67 0 0 0 .23-.258c.186-.367.073-.885-.23-1.06-.136-.079-.21-.081-2.44-.087-1.265-.004-2.369.007-2.453.024m-4.24 4c-.342.068-.519.314-.519.722 0 .462.207.693.663.739.137.014 2.184.02 4.549.013 4.232-.012 4.302-.013 4.44-.093.424-.245.424-1.073 0-1.318-.138-.08-.202-.081-4.56-.087-2.431-.003-4.489.008-4.573.024" fill-rule="evenodd" fill="#000"/></svg>