<svg width="24" height="24" fill="none" xmlns="http://www.w3.org/2000/svg"><path d="M4.498 1.281c-1.5.126-2.53.845-2.981 2.081-.23.629-.255.893-.255 2.638 0 1.747.025 2.009.257 2.643a3.038 3.038 0 0 0 1.898 1.859l.343.117v4.46c.001 2.74.016 4.6.041 4.821.19 1.691 1.006 2.521 2.739 2.785.53.081 10.39.081 10.92 0 1.733-.264 2.549-1.094 2.739-2.785.025-.221.04-2.081.041-4.821v-4.46l.343-.117c1.118-.379 1.847-1.272 2.086-2.554.102-.542.102-3.354 0-3.896-.235-1.263-.934-2.135-2.03-2.535-.732-.267-.207-.251-8.379-.259-4.07-.005-7.563.006-7.762.023m15.275 1.538c.779.165 1.244.628 1.407 1.401.085.404.085 3.156 0 3.56-.163.773-.628 1.236-1.407 1.401-.41.087-15.136.087-15.546 0-.779-.165-1.244-.628-1.407-1.401-.084-.401-.085-3.156-.001-3.553.163-.77.626-1.241 1.381-1.404.395-.086 15.17-.089 15.573-.004M18.751 15.29l-.013 4.53-.09.32c-.172.613-.432.865-1.044 1.009-.284.066-.656.071-5.604.071s-5.32-.005-5.604-.071c-.612-.144-.872-.396-1.044-1.009l-.09-.32-.013-4.53-.012-4.53h13.526l-.012 4.53m-8.776-2.014c-.229.039-.369.142-.457.337-.168.37-.051.877.242 1.046.136.078.205.081 2.24.081s2.104-.003 2.24-.081c.424-.245.424-1.073 0-1.318-.135-.078-.211-.081-2.12-.087-1.089-.003-2.054.007-2.145.022" fill-rule="evenodd" fill="#000"/></svg>