<svg width="24" height="24" fill="none" xmlns="http://www.w3.org/2000/svg"><path d="M11.32 1.281c-4.279.244-8.068 3.128-9.477 7.216a10.886 10.886 0 0 0-.279 6.053 10.76 10.76 0 0 0 7.886 7.886 10.96 10.96 0 0 0 5.1 0 10.76 10.76 0 0 0 7.886-7.886 10.96 10.96 0 0 0 0-5.1 10.758 10.758 0 0 0-8.694-8.052c-.408-.067-1.668-.169-1.862-.151l-.56.034m1.826 1.541a9.086 9.086 0 0 1 2.914.874c2.817 1.383 4.708 4.026 5.118 7.158.123.932.066 2.172-.144 3.144-.289 1.345-1.031 2.857-1.913 3.902a9.31 9.31 0 0 1-3.061 2.404 8.94 8.94 0 0 1-4.06.936 8.93 8.93 0 0 1-4.06-.936c-2.817-1.383-4.708-4.026-5.118-7.158-.123-.932-.066-2.172.144-3.144.211-.982.737-2.227 1.302-3.082a9.335 9.335 0 0 1 6.552-4.097c.56-.077 1.749-.077 2.326-.001m-3.526 3.6c-.066.034-.804.743-1.64 1.575-.836.833-1.561 1.535-1.61 1.56-.133.068-.29.405-.29.623 0 .269.158.557.364.662.164.083.166.084 5.55.079 5.363-.004 5.387-.004 5.557-.087.232-.112.329-.305.329-.654 0-.352-.103-.558-.332-.662-.162-.073-.329-.076-4.526-.077L8.665 9.44l.962-.97c1.018-1.027 1.087-1.122 1.039-1.42-.053-.326-.456-.69-.763-.69a.736.736 0 0 0-.283.062m2.14 6.658c-4.897.019-5.228.024-5.35.091-.188.103-.29.33-.29.649 0 .352.103.558.332.662.162.073.329.076 4.526.077l4.357.001-.962.97c-1.018 1.027-1.087 1.122-1.039 1.42.052.318.456.69.75.69a.878.878 0 0 0 .263-.043c.062-.023.826-.752 1.697-1.62.87-.867 1.604-1.577 1.629-1.577.025 0 .091-.089.146-.199.209-.411.077-.866-.305-1.057a.74.74 0 0 0-.372-.094c-.089.005-2.511.018-5.382.03" fill-rule="evenodd" fill="#000"/></svg>