<svg width="24" height="24" fill="none" xmlns="http://www.w3.org/2000/svg"><path d="M11.32 1.281c-4.279.244-8.068 3.128-9.477 7.216a10.886 10.886 0 0 0-.279 6.053 10.76 10.76 0 0 0 7.886 7.886 10.96 10.96 0 0 0 5.1 0 10.76 10.76 0 0 0 7.886-7.886 10.96 10.96 0 0 0 0-5.1 10.758 10.758 0 0 0-8.694-8.052c-.408-.067-1.668-.169-1.862-.151l-.56.034m1.826 1.541a9.086 9.086 0 0 1 2.914.874c2.817 1.383 4.708 4.026 5.118 7.158.123.932.066 2.172-.144 3.144-.289 1.345-1.031 2.857-1.913 3.902a9.31 9.31 0 0 1-3.061 2.404 8.94 8.94 0 0 1-4.06.936 8.93 8.93 0 0 1-4.06-.936c-2.817-1.383-4.708-4.026-5.118-7.158-.123-.932-.066-2.172.144-3.144.211-.982.737-2.227 1.302-3.082a9.335 9.335 0 0 1 6.552-4.097c.56-.077 1.749-.077 2.326-.001m.554 3.259c-.244.053-.456.195-.542.363-.083.164-.084.168-.079 5.547.004 5.18.007 5.39.079 5.554.102.231.307.335.662.335.351 0 .542-.097.656-.331.084-.174.084-.183.084-4.529V8.665l.97.962c1.027 1.018 1.122 1.087 1.42 1.039.318-.052.69-.456.69-.75a.911.911 0 0 0-.042-.263c-.024-.062-.733-.806-1.576-1.653-.843-.847-1.553-1.58-1.579-1.63-.087-.171-.517-.338-.743-.289m-3.953.123a.502.502 0 0 0-.229.249c-.073.161-.076.329-.077 4.525l-.001 4.357-.97-.962c-1.027-1.018-1.122-1.087-1.42-1.039-.318.052-.69.456-.69.75 0 .083.019.201.042.263.024.062.733.806 1.576 1.653.843.847 1.553 1.581 1.579 1.63.068.133.406.29.623.29.263 0 .537-.15.653-.356l.093-.165-.005-5.389c-.004-5.367-.004-5.391-.087-5.561-.113-.235-.305-.33-.662-.327-.193.001-.317.025-.425.082" fill-rule="evenodd" fill="#000"/></svg>