<svg width="24" height="24" fill="none" xmlns="http://www.w3.org/2000/svg"><path d="M11.32 1.281c-4.279.244-8.068 3.128-9.477 7.216a10.886 10.886 0 0 0-.279 6.053 10.76 10.76 0 0 0 7.886 7.886 10.96 10.96 0 0 0 5.1 0 10.76 10.76 0 0 0 7.886-7.886 10.96 10.96 0 0 0 0-5.1 10.758 10.758 0 0 0-8.694-8.052c-.408-.067-1.668-.169-1.862-.151l-.56.034m1.826 1.541a9.086 9.086 0 0 1 2.914.874c2.817 1.383 4.708 4.026 5.118 7.158.123.932.066 2.172-.144 3.144-.289 1.345-1.031 2.857-1.913 3.902a9.31 9.31 0 0 1-3.061 2.404 8.94 8.94 0 0 1-4.06.936 8.93 8.93 0 0 1-4.06-.936c-2.817-1.383-4.708-4.026-5.118-7.158-.123-.932-.066-2.172.144-3.144.211-.982.737-2.227 1.302-3.082a9.335 9.335 0 0 1 6.552-4.097c.56-.077 1.749-.077 2.326-.001m-1.905 5.461c-.131.06-.577.477-1.693 1.589-.833.829-1.58 1.598-1.661 1.707-.128.173-.147.228-.147.421 0 .193.019.248.147.421.081.109.837.885 1.68 1.723 1.695 1.685 1.74 1.72 2.078 1.619.09-.027.24-.12.335-.207.294-.271.368-.537.232-.83-.038-.082-.463-.546-.966-1.054l-.898-.909 2.716-.011c2.642-.012 2.72-.014 2.856-.093a.67.67 0 0 0 .23-.258c.186-.367.073-.885-.23-1.06-.136-.079-.214-.081-2.855-.093l-2.715-.011.897-.909c.495-.501.927-.973.965-1.054a.63.63 0 0 0 .03-.489c-.097-.254-.515-.583-.742-.583a.9.9 0 0 0-.259.081" fill-rule="evenodd" fill="#000"/></svg>