<svg width="24" height="24" fill="none" xmlns="http://www.w3.org/2000/svg"><path d="M16.911 2.357a1.049 1.049 0 0 0-.412.571c-.063.257.014.355 1.366 1.713.712.716 1.295 1.314 1.295 1.33 0 .016-3.716.033-8.257.039l-8.257.01-.113.084c-.191.143-.265.313-.265.611 0 .331.088.531.286.654l.146.091 8.238.01 8.238.011-1.282 1.289c-1.078 1.084-1.294 1.321-1.354 1.481-.09.241-.047.417.163.662.257.3.561.397.829.263.07-.035.975-.904 2.011-1.93a241.367 241.367 0 0 1 2.01-1.978c.17-.151.269-.481.208-.696a1.138 1.138 0 0 0-.092-.232c-.095-.154-3.97-3.971-4.097-4.035a.661.661 0 0 0-.661.052M6.46 12.826c-.066.034-.967.902-2.003 1.928a239.395 239.395 0 0 1-2.007 1.975c-.231.205-.296.584-.149.871.072.142 3.912 3.961 4.091 4.07.321.194.772.046.985-.324.136-.239.153-.321.101-.514-.04-.15-.209-.336-1.342-1.473-.713-.716-1.296-1.314-1.296-1.33 0-.016 3.716-.033 8.257-.039l8.257-.01.113-.084c.191-.143.265-.313.265-.611 0-.331-.088-.531-.286-.654l-.146-.091-8.238-.01-8.238-.011 1.282-1.289c1.056-1.061 1.295-1.323 1.352-1.474.088-.236.04-.433-.162-.67-.256-.299-.573-.398-.836-.26" fill-rule="evenodd" fill="#000"/></svg>