<svg width="24" height="24" fill="none" xmlns="http://www.w3.org/2000/svg"><path d="M3.794 8.241c-.196.103-.425.379-.478.573-.094.351-.202.229 3.339 3.78 1.785 1.79 3.38 3.371 3.545 3.514.322.278.79.528 1.16.617.283.069.997.069 1.28 0 .37-.089.838-.339 1.16-.617.165-.143 1.76-1.724 3.545-3.514 3.541-3.551 3.433-3.429 3.339-3.78-.085-.316-.481-.654-.764-.654a.68.68 0 0 0-.252.064c-.07.035-1.667 1.598-3.548 3.474-3.802 3.79-3.571 3.589-4.12 3.589-.549 0-.318.201-4.12-3.589-1.881-1.876-3.478-3.439-3.548-3.474a.574.574 0 0 0-.538.017" fill-rule="evenodd" fill="#000"/></svg>