<svg width="24" height="24" fill="none" xmlns="http://www.w3.org/2000/svg"><path d="M3.802 1.246c-.101.029-.443.341-1.28 1.167-.628.62-1.177 1.19-1.219 1.267a.727.727 0 0 0 0 .64c.042.077.591.647 1.219 1.266 1.255 1.239 1.294 1.267 1.643 1.173.221-.06.534-.373.594-.594.081-.302.009-.442-.489-.951l-.443-.454.857.001c1.108.001 1.635.078 2.416.356a6.102 6.102 0 0 1 2.349 1.509c.903.917 1.44 1.953 1.72 3.314.022.111.052 1.127.066 2.28.024 1.985.029 2.086.105 2.213.135.223.314.307.66.307.346 0 .525-.084.66-.307.076-.127.081-.228.105-2.213.014-1.153.044-2.169.066-2.28.17-.828.488-1.656.868-2.26.456-.724 1.255-1.523 1.981-1.98a7.687 7.687 0 0 1 1.216-.581c.786-.28 1.311-.357 2.42-.358l.857-.001-.443.454c-.498.509-.57.649-.489.951.06.221.373.534.594.594.349.094.388.066 1.643-1.173.628-.619 1.177-1.189 1.219-1.266a.727.727 0 0 0 0-.64c-.042-.077-.591-.647-1.219-1.266-1.255-1.239-1.294-1.267-1.643-1.173-.221.06-.534.373-.594.594-.081.302-.009.442.489.951l.443.454h-.577c-.782.001-1.582.063-2.101.163a7.986 7.986 0 0 0-3.396 1.598c-.773.631-1.506 1.523-1.93 2.349-.082.159-.158.29-.169.29-.011 0-.087-.131-.169-.29-.541-1.052-1.485-2.092-2.551-2.808a8.928 8.928 0 0 0-1.862-.899c-.873-.285-1.75-.402-3.014-.403h-.577l.443-.454c.347-.354.453-.489.488-.62.137-.506-.45-1.07-.956-.92m7.985 14.032a.659.659 0 0 0-.447.326c-.075.128-.08.208-.08 1.396s.005 1.268.08 1.396c.161.273.478.396.845.327a.646.646 0 0 0 .475-.327c.073-.125.081-.222.094-1.176.015-1.21-.006-1.486-.127-1.666-.158-.235-.49-.344-.84-.276m0 4a.659.659 0 0 0-.447.326c-.075.128-.08.208-.08 1.396s.005 1.268.08 1.396c.161.273.478.396.845.327a.646.646 0 0 0 .475-.327c.073-.125.081-.222.094-1.176.015-1.21-.006-1.486-.127-1.666-.158-.235-.49-.344-.84-.276" fill-rule="evenodd" fill="#000"/></svg>