<svg width="24" height="24" fill="none" xmlns="http://www.w3.org/2000/svg"><path d="M8.08 1.282c-4.072.213-6.185 2.014-6.697 5.709-.113.812-.141 1.825-.141 5.009 0 4.504.06 5.273.518 6.65.772 2.313 2.446 3.576 5.267 3.972.759.106 1.875.137 4.973.137s4.214-.031 4.973-.137c2.47-.347 4.023-1.334 4.924-3.132.482-.96.741-2.121.823-3.683.051-.969.051-6.645 0-7.614-.063-1.195-.199-2.002-.478-2.837-.61-1.825-1.773-2.989-3.592-3.596-.862-.287-1.627-.416-2.844-.48-.854-.045-6.854-.043-7.726.002m8.72 1.572c2.786.462 3.914 1.6 4.348 4.386.066.421.072.824.072 4.76s-.006 4.339-.072 4.76c-.436 2.798-1.59 3.952-4.388 4.388-.421.066-.824.072-4.76.072s-4.339-.006-4.76-.072c-2.79-.435-3.957-1.597-4.386-4.368-.069-.445-.074-.791-.074-4.78 0-4.753-.004-4.663.264-5.712C3.557 4.282 4.722 3.274 6.96 2.9c.73-.123 1.088-.131 5.24-.123 3.763.007 4.222.014 4.6.077M6.882 6.021c-.164.073-2.034 1.92-2.204 2.176a.622.622 0 0 0-.076.59c.046.12 1.91 2.022 2.174 2.217.312.231.708.128 1.006-.263.141-.185.176-.472.079-.659-.037-.072-.213-.282-.39-.466l-.322-.336h.181c1.958 0 3.453 1.099 3.96 2.911.084.297.088.403.108 2.829.02 2.326.028 2.53.094 2.652.134.245.468.367.85.31.216-.033.434-.206.494-.394.024-.077.05-1.107.064-2.588.027-2.817.028-2.825.377-3.54.623-1.275 1.79-2.059 3.222-2.165l.361-.027-.327.342c-.401.419-.468.539-.443.795.021.222.153.419.4.598a.518.518 0 0 0 .367.117.61.61 0 0 0 .304-.066c.054-.037.524-.487 1.044-1 .52-.514.966-.934.992-.934.074 0 .242-.403.242-.58 0-.176-.168-.58-.242-.58-.025 0-.48-.429-1.011-.954-1.022-1.009-1.12-1.08-1.416-1.032-.318.052-.69.456-.69.75 0 .243.063.349.429.723l.345.353h-.267a6.46 6.46 0 0 0-1.247.174c-1.244.338-2.372 1.148-3.054 2.191l-.147.226-.146-.226c-.674-1.038-1.821-1.852-3.075-2.182A6.634 6.634 0 0 0 7.429 7.8h-.283l.345-.353c.19-.195.365-.403.387-.463a.623.623 0 0 0-.078-.592c-.236-.356-.613-.508-.918-.371" fill-rule="evenodd" fill="#000"/></svg>