<svg width="24" height="24" fill="none" xmlns="http://www.w3.org/2000/svg"><path d="M11.32 1.281c-4.279.244-8.068 3.128-9.477 7.216a10.886 10.886 0 0 0-.279 6.053 10.76 10.76 0 0 0 7.886 7.886 10.96 10.96 0 0 0 5.1 0 10.76 10.76 0 0 0 7.886-7.886 10.96 10.96 0 0 0 0-5.1 10.758 10.758 0 0 0-8.694-8.052c-.408-.067-1.668-.169-1.862-.151l-.56.034m1.826 1.541a9.086 9.086 0 0 1 2.914.874c2.817 1.383 4.708 4.026 5.118 7.158.123.932.066 2.172-.144 3.144-.289 1.345-1.031 2.857-1.913 3.902a9.31 9.31 0 0 1-3.061 2.404 8.94 8.94 0 0 1-4.06.936 8.93 8.93 0 0 1-4.06-.936c-2.817-1.383-4.708-4.026-5.118-7.158-.123-.932-.066-2.172.144-3.144.211-.982.737-2.227 1.302-3.082a9.335 9.335 0 0 1 6.552-4.097c.56-.077 1.749-.077 2.326-.001M11.599 7.85a.67.67 0 0 0-.258.23c-.079.136-.081.214-.093 2.856l-.011 2.716-.909-.898c-.508-.503-.972-.928-1.054-.966-.293-.136-.559-.062-.83.232-.087.095-.18.245-.207.335-.101.338-.066.383 1.619 2.078.838.843 1.614 1.599 1.723 1.68.173.128.228.147.423.147.203 0 .246-.016.441-.167.12-.093.894-.849 1.721-1.68 1.663-1.673 1.7-1.721 1.599-2.058-.027-.09-.12-.24-.207-.335-.271-.294-.537-.368-.83-.232-.082.038-.546.463-1.054.965l-.908.898-.012-2.715c-.012-2.642-.014-2.72-.093-2.856-.111-.193-.373-.32-.659-.32a.86.86 0 0 0-.401.09" fill-rule="evenodd" fill="#000"/></svg>