<svg width="24" height="24" fill="none" xmlns="http://www.w3.org/2000/svg"><path d="M8.74 5.28c-2.03.179-3.393 1.183-3.788 2.792-.064.263-.085.47-.084.848.002.764.153 1.387.529 2.18.243.512 3.018 5.297 3.317 5.718.474.669 1.211 1.303 1.864 1.605a3.482 3.482 0 0 0 2.18.215c.943-.226 1.881-.927 2.549-1.903.211-.308 2.462-4.154 3.055-5.218.555-.996.791-1.892.747-2.832-.026-.534-.122-.924-.334-1.345-.536-1.066-1.535-1.728-3.032-2.009-.268-.051-.862-.063-3.483-.072-1.738-.006-3.322.004-3.52.021m7.035 1.577c1.78.467 2.319 1.777 1.467 3.563-.195.41-2.767 4.868-3.097 5.369-.354.537-.85 1.007-1.301 1.233-.634.318-1.254.284-1.903-.102-.292-.175-.79-.658-1.03-1-.227-.325-2.848-4.836-3.111-5.357-.215-.425-.3-.656-.383-1.043-.071-.332-.072-.881-.001-1.146.172-.648.665-1.131 1.422-1.396.606-.212.635-.213 4.282-.203 3.115.009 3.402.015 3.655.082" fill-rule="evenodd" fill="#000"/></svg>