<svg width="24" height="24" fill="none" xmlns="http://www.w3.org/2000/svg"><path d="M14.257 5.183c-.456.157-.722.636-.555 1.001.048.104.881.969 2.513 2.605l2.441 2.45-7.718.01c-7.664.011-7.719.012-7.858.092-.424.245-.424 1.073 0 1.318.139.08.194.081 7.858.092l7.718.01-2.441 2.45c-1.534 1.538-2.466 2.503-2.508 2.595a.542.542 0 0 0-.013.485c.184.439.674.668 1.038.485.149-.075 6.11-6.011 6.36-6.333.152-.195.168-.238.168-.441 0-.196-.019-.249-.147-.423-.186-.25-6.217-6.271-6.352-6.341a.628.628 0 0 0-.504-.055" fill-rule="evenodd" fill="#000"/></svg>