<svg width="24" height="24" fill="none" xmlns="http://www.w3.org/2000/svg"><path d="M14.619 4.88c-.566.061-1.259.278-1.863.582-.517.261-5.245 3.019-5.574 3.252-.669.474-1.303 1.211-1.605 1.864a3.444 3.444 0 0 0 .056 2.929c.332.658.933 1.322 1.632 1.8.32.219 3.856 2.291 5.091 2.983 1.051.589 1.847.83 2.744.83.829 0 1.481-.216 2.122-.702.732-.556 1.22-1.458 1.447-2.675.049-.263.064-.88.079-3.308.019-3.051-.003-3.801-.129-4.418-.387-1.889-1.623-3.054-3.339-3.147a4.874 4.874 0 0 0-.661.01m1.07 1.559c.802.248 1.301.929 1.492 2.036.053.308.06.824.049 3.691-.015 3.641-.006 3.485-.252 4.108-.542 1.368-1.805 1.728-3.398.968-.408-.194-4.908-2.789-5.381-3.103-.701-.465-1.223-1.112-1.384-1.715-.255-.959.366-1.99 1.672-2.775.808-.486 4.608-2.677 4.936-2.846a4.449 4.449 0 0 1 1.102-.4c.336-.066.888-.049 1.164.036" fill-rule="evenodd" fill="#000"/></svg>