<svg width="24" height="24" fill="none" xmlns="http://www.w3.org/2000/svg"><path d="M6.52 2.253a1.362 1.362 0 0 0-.2.089c-.145.092-3.957 3.971-4.015 4.086a.794.794 0 0 0-.065.303c0 .307.307.659.668.767a.619.619 0 0 0 .26-.02c.15-.04.336-.209 1.473-1.342.716-.713 1.314-1.296 1.33-1.296.016 0 .033 3.716.039 8.257l.01 8.257.084.113c.143.191.313.265.611.265.331 0 .531-.088.654-.286l.091-.146.01-8.238.011-8.238L8.77 6.106c1.418 1.41 1.491 1.465 1.816 1.378.316-.085.654-.481.654-.764a.68.68 0 0 0-.064-.252c-.035-.07-.906-.974-1.936-2.008-1.029-1.034-1.891-1.919-1.915-1.966-.05-.099-.321-.239-.525-.271a.656.656 0 0 0-.28.03m10.549.025c-.222.044-.341.119-.44.279l-.089.143-.01 8.238-.011 8.238-1.289-1.282c-1.084-1.078-1.321-1.294-1.481-1.354-.241-.09-.417-.047-.662.163-.3.257-.397.561-.263.829.035.07.904.975 1.93 2.011a241.367 241.367 0 0 1 1.978 2.01c.151.17.481.269.696.208.083-.023.188-.065.232-.092.153-.094 3.97-3.97 4.035-4.097.16-.314.004-.744-.342-.946-.477-.278-.458-.289-1.994 1.239-.716.712-1.314 1.295-1.33 1.295-.016 0-.033-3.716-.039-8.257l-.01-8.257-.084-.113c-.164-.219-.492-.321-.827-.255" fill-rule="evenodd" fill="#000"/></svg>