<svg width="24" height="24" fill="none" xmlns="http://www.w3.org/2000/svg"><path d="M8.249 3.266c-.071.036-1.241 1.179-2.6 2.542-1.358 1.363-2.53 2.515-2.604 2.561-.16.099-.324.422-.325.638 0 .172.117.464.226.561.042.038.157.101.255.14.171.069.589.071 8.879.052 8.61-.02 8.701-.021 8.836-.1.221-.13.292-.259.314-.573.026-.363-.079-.609-.313-.728-.151-.078-.277-.079-7.884-.079h-7.73l1.924-1.93C8.285 5.288 9.18 4.362 9.215 4.292c.139-.274.043-.649-.223-.873-.26-.219-.506-.27-.743-.153M11.8 14.24c-8.489.02-8.581.021-8.716.1-.22.13-.292.259-.314.57-.027.372.073.609.305.727l.162.083h15.46l-1.924 1.93c-1.058 1.062-1.953 1.988-1.988 2.058-.139.274-.043.649.223.873.258.217.496.268.731.157.073-.035 1.246-1.179 2.606-2.543 1.361-1.364 2.532-2.515 2.602-2.559.156-.097.333-.437.333-.641 0-.174-.117-.466-.226-.563-.123-.11-.425-.231-.554-.221-.066.004-3.981.018-8.7.029" fill-rule="evenodd" fill="#000"/></svg>