<svg width="24" height="24" fill="none" xmlns="http://www.w3.org/2000/svg"><path d="M11.599 2.85a.67.67 0 0 0-.258.23c-.08.139-.081.193-.092 7.858l-.01 7.718-2.45-2.441c-1.538-1.534-2.503-2.466-2.595-2.508a.542.542 0 0 0-.485-.013c-.439.184-.668.674-.485 1.038.075.149 6.011 6.11 6.333 6.36.196.152.238.168.443.168.205 0 .247-.016.443-.168.322-.25 6.258-6.211 6.333-6.36.183-.364-.046-.854-.485-1.038a.542.542 0 0 0-.485.013c-.092.042-1.057.974-2.595 2.508l-2.45 2.441-.01-7.718c-.011-7.664-.012-7.719-.092-7.858-.111-.193-.373-.32-.659-.32a.86.86 0 0 0-.401.09" fill-rule="evenodd" fill="#000"/></svg>