<svg width="24" height="24" fill="none" xmlns="http://www.w3.org/2000/svg"><path d="M11.32 1.281c-4.279.244-8.068 3.128-9.477 7.216a10.886 10.886 0 0 0-.279 6.053 10.76 10.76 0 0 0 7.886 7.886 10.96 10.96 0 0 0 5.1 0 10.76 10.76 0 0 0 7.886-7.886 10.96 10.96 0 0 0 0-5.1 10.758 10.758 0 0 0-8.694-8.052c-.408-.067-1.668-.169-1.862-.151l-.56.034m1.826 1.541a9.086 9.086 0 0 1 2.914.874c2.817 1.383 4.708 4.026 5.118 7.158.123.932.066 2.172-.144 3.144-.289 1.345-1.031 2.857-1.913 3.902a9.31 9.31 0 0 1-3.061 2.404 8.94 8.94 0 0 1-4.06.936 8.93 8.93 0 0 1-4.06-.936c-2.817-1.383-4.708-4.026-5.118-7.158-.123-.932-.066-2.172.144-3.144.211-.982.737-2.227 1.302-3.082a9.335 9.335 0 0 1 6.552-4.097c.56-.077 1.749-.077 2.326-.001M10.56 7.705a1.232 1.232 0 0 0-.48.407.628.628 0 0 0-.078.595c.023.062.757.828 1.63 1.703L13.219 12l-1.587 1.59c-.873.875-1.607 1.641-1.63 1.703a.911.911 0 0 0-.042.263c0 .294.372.698.69.75.318.052.34.033 2.242-1.861.986-.982 1.866-1.88 1.955-1.995.198-.256.239-.478.131-.714-.076-.166-3.59-3.73-3.867-3.922-.146-.102-.427-.157-.551-.109" fill-rule="evenodd" fill="#000"/></svg>