<svg width="24" height="24" fill="none" xmlns="http://www.w3.org/2000/svg"><path d="M8.738 3.323c-.168.049-.445.295-.539.48a.55.55 0 0 0-.015.529c.035.07 1.598 1.667 3.474 3.548 3.79 3.802 3.589 3.571 3.589 4.12 0 .549.201.318-3.589 4.12-1.876 1.881-3.439 3.478-3.474 3.548a.68.68 0 0 0-.064.252c0 .283.338.679.654.764.351.094.229.202 3.78-3.339 1.79-1.785 3.371-3.38 3.514-3.545.278-.322.528-.79.617-1.16.069-.285.069-.999-.001-1.28a3.258 3.258 0 0 0-.406-.907c-.071-.106-1.652-1.719-3.514-3.584C9.013 3.11 9.126 3.21 8.738 3.323" fill-rule="evenodd" fill="#000"/></svg>