<svg width="24" height="24" fill="none" xmlns="http://www.w3.org/2000/svg"><path d="M8.16 4.941C6.632 5.253 5.603 6.502 5.312 8.4c-.04.259-.052 1.127-.052 3.64 0 3.604-.001 3.585.241 4.42.479 1.655 1.745 2.655 3.379 2.669.781.006 1.412-.143 2.22-.526.54-.256 5.313-3.03 5.74-3.336.674-.483 1.28-1.19 1.583-1.845a3.482 3.482 0 0 0 .215-2.18c-.226-.943-.927-1.882-1.903-2.549-.328-.224-4.598-2.72-5.375-3.142a5.883 5.883 0 0 0-1.817-.63c-.323-.056-1.065-.045-1.383.02m1.56 1.541c.496.14.993.404 3.46 1.836 2.627 1.525 2.772 1.616 3.144 1.956.964.884 1.166 1.828.596 2.785-.175.292-.658.79-1 1.03-.255.178-4.357 2.572-5.152 3.006a6.46 6.46 0 0 1-.835.369c-.367.125-.501.15-.878.167-.376.017-.488.007-.722-.064-.821-.25-1.321-.924-1.514-2.042-.053-.308-.06-.824-.048-3.691.015-3.672.004-3.512.271-4.158.274-.664.807-1.15 1.398-1.275.274-.058.938-.016 1.28.081" fill-rule="evenodd" fill="#000"/></svg>