<svg width="24" height="24" fill="none" xmlns="http://www.w3.org/2000/svg"><path d="M9.46 5.16a1.023 1.023 0 0 0-.22.078c-.136.07-6.167 6.09-6.353 6.341-.128.174-.147.227-.147.423 0 .203.016.246.168.441.25.322 6.211 6.258 6.36 6.333.364.183.854-.046 1.038-.485a.542.542 0 0 0-.013-.485c-.042-.092-.974-1.057-2.508-2.595l-2.441-2.45 7.718-.01c7.665-.011 7.719-.012 7.858-.092a.67.67 0 0 0 .23-.258c.186-.367.073-.885-.23-1.06-.139-.08-.193-.081-7.858-.092l-7.718-.01 2.441-2.45c1.534-1.538 2.466-2.503 2.508-2.595a.542.542 0 0 0 .013-.485c-.15-.358-.545-.614-.846-.549" fill-rule="evenodd" fill="#000"/></svg>