<svg width="24" height="24" fill="none" xmlns="http://www.w3.org/2000/svg"><path d="M11.66 7.222c-.044.01-.179.039-.3.063-.3.06-.731.265-1.02.486-.132.101-1.745 1.693-3.585 3.536-3.65 3.659-3.534 3.527-3.439 3.879.085.316.481.654.764.654a.68.68 0 0 0 .252-.064c.07-.035 1.667-1.598 3.548-3.474 3.802-3.79 3.571-3.589 4.12-3.589.549 0 .318-.201 4.12 3.589 1.881 1.876 3.478 3.439 3.548 3.474a.68.68 0 0 0 .252.064c.283 0 .679-.338.764-.654.094-.351.202-.229-3.339-3.78-1.785-1.79-3.379-3.37-3.543-3.512a2.934 2.934 0 0 0-1.082-.596c-.223-.06-.913-.11-1.06-.076" fill-rule="evenodd" fill="#000"/></svg>