<svg width="24" height="24" fill="none" xmlns="http://www.w3.org/2000/svg"><path d="M11.72 2.785c-.165.08-6.353 6.247-6.476 6.455-.215.361.009.875.465 1.066a.542.542 0 0 0 .485-.013c.092-.042 1.057-.974 2.595-2.508l2.45-2.441.01 7.718c.011 7.665.012 7.719.092 7.858.245.424 1.073.424 1.318 0 .08-.139.081-.194.092-7.858l.01-7.718 2.45 2.441c1.538 1.534 2.503 2.466 2.595 2.508a.542.542 0 0 0 .485.013c.439-.184.668-.674.485-1.038-.076-.151-6.066-6.167-6.35-6.377-.234-.173-.488-.211-.706-.106" fill-rule="evenodd" fill="#000"/></svg>