<svg width="24" height="24" fill="none" xmlns="http://www.w3.org/2000/svg"><path d="M8.08 1.282c-4.072.213-6.185 2.014-6.697 5.709-.113.812-.141 1.825-.141 5.009 0 4.504.06 5.273.518 6.65.772 2.313 2.446 3.576 5.267 3.972.759.106 1.875.137 4.973.137s4.214-.031 4.973-.137c2.47-.347 4.023-1.334 4.924-3.132.482-.96.741-2.121.823-3.683.051-.969.051-6.645 0-7.614-.063-1.195-.199-2.002-.478-2.837-.61-1.825-1.773-2.989-3.592-3.596-.862-.287-1.627-.416-2.844-.48-.854-.045-6.854-.043-7.726.002m8.72 1.572c2.786.462 3.914 1.6 4.348 4.386.066.421.072.824.072 4.76s-.006 4.339-.072 4.76c-.436 2.798-1.59 3.952-4.388 4.388-.421.066-.824.072-4.76.072s-4.339-.006-4.76-.072c-2.79-.435-3.957-1.597-4.386-4.368-.069-.445-.074-.791-.074-4.78 0-4.753-.004-4.663.264-5.712C3.557 4.282 4.722 3.274 6.96 2.9c.73-.123 1.088-.131 5.24-.123 3.763.007 4.222.014 4.6.077m-4.2 3.409c-.055.009-.235.037-.4.061-.885.13-1.716.555-2.532 1.295-.664.602-2.636 2.619-2.835 2.901-.915 1.29-1.074 2.86-.431 4.234.269.574.723 1.174 1.022 1.35.337.198.777.058.993-.318.208-.364.175-.513-.219-.986-.308-.37-.523-.765-.617-1.138-.091-.356-.08-1.014.022-1.383.169-.611.194-.641 1.934-2.385l1.603-1.606.42-.203c.234-.113.553-.231.72-.267.434-.093 1.136-.084 1.54.019a3.319 3.319 0 0 1 2.343 2.343c.16.626.097 1.512-.149 2.07-.22.501-.371.679-1.746 2.058-1.539 1.545-1.545 1.549-2.068 1.55-.228 0-.348-.022-.5-.091a1.262 1.262 0 0 1-.658-1.587c.082-.218.173-.324.98-1.141.982-.995 1.028-1.064.937-1.404-.06-.221-.373-.534-.594-.594-.349-.094-.407-.054-1.446.992-1 1.007-1.159 1.214-1.326 1.727-.06.186-.089.402-.103.762-.023.598.029.852.277 1.358.333.679 1.086 1.269 1.813 1.42.93.194 1.776-.038 2.52-.692.606-.532 2.503-2.487 2.75-2.834 1.362-1.912 1.157-4.482-.49-6.135a4.718 4.718 0 0 0-2.41-1.296c-.308-.063-1.159-.114-1.35-.08" fill-rule="evenodd" fill="#000"/></svg>