<svg width="24" height="24" fill="none" xmlns="http://www.w3.org/2000/svg"><path d="M11.32 1.281c-4.279.244-8.068 3.128-9.477 7.216a10.886 10.886 0 0 0-.279 6.053 10.76 10.76 0 0 0 7.886 7.886 10.96 10.96 0 0 0 5.1 0 10.76 10.76 0 0 0 7.886-7.886 10.96 10.96 0 0 0 0-5.1 10.758 10.758 0 0 0-8.694-8.052c-.408-.067-1.668-.169-1.862-.151l-.56.034m1.826 1.541a9.086 9.086 0 0 1 2.914.874c2.817 1.383 4.708 4.026 5.118 7.158.123.932.066 2.172-.144 3.144-.289 1.345-1.031 2.857-1.913 3.902a9.31 9.31 0 0 1-3.061 2.404 8.94 8.94 0 0 1-4.06.936 8.93 8.93 0 0 1-4.06-.936c-2.817-1.383-4.708-4.026-5.118-7.158-.123-.932-.066-2.172.144-3.144.211-.982.737-2.227 1.302-3.082a9.335 9.335 0 0 1 6.552-4.097c.56-.077 1.749-.077 2.326-.001M12.6 6.263c-.055.009-.235.037-.4.061-.885.13-1.716.555-2.532 1.295-.664.602-2.636 2.619-2.835 2.901-.915 1.29-1.074 2.86-.431 4.234.269.574.723 1.174 1.022 1.35.337.198.777.058.993-.318.208-.364.175-.513-.219-.986-.308-.37-.523-.765-.617-1.138-.091-.356-.08-1.014.022-1.383.169-.611.194-.641 1.934-2.385l1.603-1.606.42-.203c.234-.113.553-.231.72-.267.434-.093 1.136-.084 1.54.019a3.319 3.319 0 0 1 2.343 2.343c.16.626.097 1.512-.149 2.07-.22.501-.371.679-1.746 2.058-1.539 1.545-1.545 1.549-2.068 1.55-.228 0-.348-.022-.5-.091a1.262 1.262 0 0 1-.658-1.587c.082-.218.173-.324.98-1.141.982-.995 1.028-1.064.937-1.404-.06-.221-.373-.534-.594-.594-.349-.094-.407-.054-1.446.992-1 1.007-1.159 1.214-1.326 1.727-.06.186-.089.402-.103.762-.023.598.029.852.277 1.358.333.679 1.086 1.269 1.813 1.42.93.194 1.776-.038 2.52-.692.606-.532 2.503-2.487 2.75-2.834 1.362-1.912 1.157-4.482-.49-6.135a4.718 4.718 0 0 0-2.41-1.296c-.308-.063-1.159-.114-1.35-.08" fill-rule="evenodd" fill="#000"/></svg>