<svg width="24" height="24" fill="none" xmlns="http://www.w3.org/2000/svg"><path d="M8.08 1.282c-4.072.213-6.185 2.014-6.697 5.709-.113.812-.141 1.825-.141 5.009 0 4.504.06 5.273.518 6.65.772 2.313 2.446 3.576 5.267 3.972.759.106 1.875.137 4.973.137s4.214-.031 4.973-.137c2.47-.347 4.023-1.334 4.924-3.132.482-.96.741-2.121.823-3.683.051-.969.051-6.645 0-7.614-.063-1.195-.199-2.002-.478-2.837-.61-1.825-1.773-2.989-3.592-3.596-.862-.287-1.627-.416-2.844-.48-.854-.045-6.854-.043-7.726.002m8.72 1.572c2.786.462 3.914 1.6 4.348 4.386.066.421.072.824.072 4.76s-.006 4.339-.072 4.76c-.436 2.798-1.59 3.952-4.388 4.388-.421.066-.824.072-4.76.072s-4.339-.006-4.76-.072c-2.79-.435-3.957-1.597-4.386-4.368-.069-.445-.074-.791-.074-4.78 0-4.753-.004-4.663.264-5.712C3.557 4.282 4.722 3.274 6.96 2.9c.73-.123 1.088-.131 5.24-.123 3.763.007 4.222.014 4.6.077m-4.623 3.177a1.699 1.699 0 0 0-1.132 1.281c-.031.143-.045 1.043-.045 2.77 0 1.407-.007 2.558-.015 2.558s-.114-.044-.235-.097c-.707-.313-1.652-.29-2.37.057a2.867 2.867 0 0 0-1.34 3.82c1.041 2.155 4.119 2.155 5.16 0 .275-.569.28-.629.28-3.423 0-1.972.01-2.482.05-2.467.571.213 2.562.838 2.763.866a1.69 1.69 0 0 0 1.907-1.351c.054-.29.051-1.23-.005-1.493-.142-.67-.691-1.361-1.295-1.628-.094-.041-.753-.27-1.465-.507-1.227-.409-1.315-.432-1.675-.445-.292-.011-.427.003-.583.059m1.883 1.834c1.224.407 1.287.433 1.441.592.203.209.259.396.258.868 0 .443-.048.57-.22.586-.071.007-.63-.16-1.378-.411-1.655-.555-1.659-.559-1.66-1.433-.001-.462.007-.519.077-.57a.295.295 0 0 1 .14-.057c.034 0 .638.191 1.342.425m-3.872 6.074c.269.123.552.408.679.686.148.322.149.786.004 1.103-.133.29-.412.569-.703.703a1.4 1.4 0 0 1-1.096 0 1.532 1.532 0 0 1-.704-.703 1.395 1.395 0 0 1 .001-1.096c.18-.392.565-.709.965-.792.244-.052.617-.008.854.099" fill-rule="evenodd" fill="#000"/></svg>