<svg width="24" height="24" fill="none" xmlns="http://www.w3.org/2000/svg"><path d="M8.988 1.284c-1.834.151-2.955 1.205-3.187 2.996-.021.165-.04.912-.041 1.66L5.757 7.3l-.553.373c-.898.604-1.251.948-1.465 1.427-.2.449-.199.422-.199 4.44 0 3.526.005 3.776.073 4.02.178.629.533 1.049 1.398 1.652.577.403 5.376 3.187 5.709 3.312.753.285 1.807.285 2.56.001.331-.125 5.136-2.913 5.712-3.315.855-.596 1.219-1.026 1.395-1.65.068-.244.073-.494.073-4.02 0-2.796-.012-3.812-.048-3.964-.185-.779-.504-1.155-1.616-1.903l-.553-.373-.003-1.36c-.001-.748-.02-1.495-.041-1.66-.163-1.258-.75-2.142-1.739-2.62-.446-.215-.898-.328-1.52-.379-.565-.047-5.382-.044-5.952.003m6.284 1.54c.621.128 1 .397 1.224.87.206.433.23.594.252 1.72l.021 1.034-.095-.051a213.1 213.1 0 0 1-1.494-.858c-1.615-.933-1.782-1.021-2.165-1.137-.559-.17-1.471-.17-2.029 0-.383.116-.591.225-2.186 1.147-.759.439-1.422.821-1.474.848l-.095.051.021-1.034c.022-1.095.046-1.276.229-1.68.216-.48.619-.78 1.219-.908.433-.092 6.127-.094 6.572-.002m-2.605 3.023c.252.093 4.934 2.806 5.393 3.125.616.43.765.566.847.779.069.178.073.404.073 3.789 0 3.234-.007 3.615-.065 3.742-.156.343-.841.798-3.6 2.389-2.439 1.406-2.537 1.459-2.791 1.528-.282.076-.875.058-1.148-.034-.277-.093-4.823-2.706-5.401-3.104-.544-.374-.814-.61-.89-.779-.058-.127-.065-.508-.065-3.742 0-4.186-.034-3.838.414-4.195.523-.416.938-.671 3.266-2.013 2.718-1.567 2.507-1.45 2.74-1.517.24-.069 1.005-.049 1.227.032m-1.056 4.049c-.449.146-.684.373-1.135 1.09-.159.254-.327.478-.373.497-.046.02-.308.091-.583.159-.539.133-.776.223-1.008.384-.343.236-.586.806-.536 1.253.037.329.214.646.662 1.189l.404.489-.041.611c-.046.698-.016.978.139 1.296.259.528.926.831 1.539.7.118-.025.462-.143.764-.262l.549-.216.614.247c.61.245.617.247 1.014.247.344 0 .425-.013.58-.095.302-.159.499-.346.643-.612l.137-.253v-1.697l.38-.463c.432-.527.588-.8.64-1.122.098-.598-.247-1.224-.813-1.478a6.96 6.96 0 0 0-.787-.241l-.58-.148-.313-.493c-.41-.647-.572-.826-.89-.983-.306-.15-.724-.191-1.006-.099m.723 2.014c.509.781.684.905 1.596 1.133.28.07.51.139.51.153 0 .014-.127.179-.283.365-.403.483-.5.632-.599.922-.081.238-.086.306-.064.925l.025.668-.259-.097c-.142-.054-.364-.14-.492-.193-.695-.282-.898-.262-2.083.211l-.214.085.029-.636c.042-.929-.017-1.1-.642-1.849l-.345-.413.585-.15c.911-.233 1.058-.341 1.582-1.164.165-.258.305-.47.311-.47.006 0 .16.23.343.51" fill-rule="evenodd" fill="#000"/></svg>