<svg width="24" height="24" fill="none" xmlns="http://www.w3.org/2000/svg"><path d="M9.889 5.686c-.521.075-.352-.016-5.729 3.084-.913.526-1.753 1.027-1.868 1.113-.374.281-.738.793-.89 1.251-.388 1.175.027 2.425 1.03 3.099.126.085 1.254.744 2.508 1.466l3.08 1.773c1.035.596 1.369.754 1.76.831 1.416.28 2.851-.672 3.141-2.083.027-.132.06-.521.074-.865l.025-.626.9.52c3.008 1.739 4.7 2.702 4.98 2.837a2.65 2.65 0 0 0 2.593-.164 2.54 2.54 0 0 0 .825-.825c.225-.343.348-.699.401-1.166.052-.453.052-7.482.001-7.891a2.65 2.65 0 0 0-.4-1.135 2.538 2.538 0 0 0-.822-.824 2.682 2.682 0 0 0-2.352-.267c-.225.083-1.32.701-4.836 2.732-.699.404-1.28.734-1.29.734-.011 0-.021-.211-.021-.47-.003-.904-.122-1.422-.439-1.905a2.538 2.538 0 0 0-.822-.824 2.516 2.516 0 0 0-1.078-.4 2.106 2.106 0 0 0-.771.005m.894 1.572c.258.116.479.337.601.598l.095.204.001 3.923c0 4.342.013 4.128-.259 4.445a1.569 1.569 0 0 1-.379.288c-.317.169-.586.198-.882.097-.121-.041-1.318-.707-2.66-1.479-3.781-2.176-4.111-2.37-4.23-2.483a1.365 1.365 0 0 1-.21-.307c-.139-.279-.142-.753-.005-1.046.173-.372-.039-.24 5.196-3.243 1.009-.579 1.907-1.068 2-1.09.225-.052.484-.02.732.093m9.76 0c.258.116.479.337.601.598l.095.204.001 3.923c0 4.342.013 4.128-.259 4.445a1.569 1.569 0 0 1-.379.288c-.317.169-.586.198-.882.097-.189-.064-1.956-1.066-5.79-3.283l-.93-.537v-1.952l.15-.096c.152-.098 2.724-1.582 5.161-2.978.732-.42 1.407-.78 1.5-.802.225-.052.484-.02.732.093" fill-rule="evenodd" fill="#000"/></svg>