<svg width="24" height="24" fill="none" xmlns="http://www.w3.org/2000/svg"><path d="M15.8 1.264c-1.223.078-1.99.362-2.582.954-.657.657-.903 1.408-.962 2.94l-.028.714-1.404.019c-1.095.014-1.482.033-1.759.086-1.815.347-2.741 1.273-3.088 3.088-.053.277-.072.664-.086 1.759l-.019 1.404-.714.028c-1.532.059-2.283.305-2.94.962-.495.494-.764 1.093-.903 2.002-.078.512-.078 4.048 0 4.56.139.909.408 1.508.903 2.002.494.495 1.093.764 2.002.903.512.078 4.048.078 4.56 0 .909-.139 1.508-.408 2.002-.903.657-.657.903-1.408.962-2.94l.028-.714 1.404-.019c1.095-.014 1.482-.033 1.759-.086 1.815-.347 2.741-1.273 3.088-3.088.053-.277.072-.664.086-1.759l.019-1.404.714-.028c.78-.03 1.271-.096 1.7-.227 1.008-.309 1.696-1.013 1.991-2.039.188-.655.207-.923.207-2.978s-.019-2.323-.207-2.978c-.295-1.026-.983-1.73-1.991-2.039-.614-.188-.898-.211-2.762-.222a76.708 76.708 0 0 0-1.98.003m3.926 1.552c.498.096.748.212.997.461.159.159.25.293.315.463.182.483.199.715.199 2.76s-.017 2.277-.199 2.76c-.124.328-.45.654-.778.778-.509.192-.752.208-2.913.192-1.788-.014-2.035-.023-2.267-.088-.716-.2-1.022-.505-1.222-1.222-.065-.232-.074-.479-.088-2.29-.016-2.182-.004-2.366.193-2.89.123-.328.449-.654.777-.777.487-.184.647-.195 2.726-.199 1.541-.003 2.031.008 2.26.052M12.251 8.01c.037 1.044.218 1.76.589 2.325.614.935 1.552 1.357 3.15 1.414l.65.023v1.073c0 1.204-.045 1.742-.185 2.228-.126.435-.222.617-.459.867-.239.254-.475.385-.917.513-.493.142-1.026.187-2.234.187h-1.073l-.023-.65c-.037-1.044-.218-1.76-.589-2.325-.614-.935-1.552-1.357-3.15-1.414l-.65-.023v-1.07c0-1.225.042-1.738.182-2.222.129-.445.224-.625.462-.876.243-.257.48-.388.938-.518.506-.143.843-.171 2.142-.177l1.144-.005.023.65M8.92 13.858c.717.201 1.022.506 1.222 1.222.065.232.074.479.088 2.267.016 2.161 0 2.404-.192 2.913-.124.328-.45.654-.778.778-.483.182-.715.199-2.76.199s-2.277-.017-2.76-.199a1.451 1.451 0 0 1-.777-.778c-.188-.502-.203-.7-.203-2.76 0-2.06.015-2.258.203-2.76.123-.328.449-.654.777-.777.506-.191.625-.199 2.84-.188 1.87.009 2.106.017 2.34.083" fill-rule="evenodd" fill="#000"/></svg>