<svg width="24" height="24" fill="none" xmlns="http://www.w3.org/2000/svg"><path d="M11.79 1.257a.923.923 0 0 0-.217.108c-.037.03-.462.55-.945 1.155A37.968 37.968 0 0 1 9.54 3.84c-.341.358-.396.69-.17 1.023.071.105.177.225.234.267.144.106.543.139.699.059.064-.033.299-.089.522-.125 2.171-.344 4.516.285 6.234 1.674.392.316 1.028.948 1.318 1.309.517.643 1.096 1.716 1.361 2.523.398 1.208.506 2.692.286 3.93a8.165 8.165 0 0 1-6.935 6.678c-.58.08-1.598.08-2.178 0a8.17 8.17 0 0 1-6.949-6.751c-.137-.819-.121-1.964.038-2.807.194-1.031.66-2.126 1.318-3.099.294-.437.339-.526.354-.708.021-.252-.077-.438-.324-.617-.34-.247-.656-.235-.916.033-.467.482-1.253 1.93-1.566 2.886-.359 1.094-.477 1.839-.48 3.025-.003.904.05 1.392.237 2.18a9.68 9.68 0 0 0 4.249 5.948 9.99 9.99 0 0 0 3.108 1.266c1.204.264 2.836.264 4.04 0a9.717 9.717 0 0 0 6.007-4.094c1.512-2.255 1.982-5.108 1.286-7.8-.317-1.225-.99-2.555-1.811-3.58a11.825 11.825 0 0 0-1.362-1.374c-1.628-1.358-3.927-2.206-5.984-2.206-.196 0-.356-.008-.356-.017 0-.009.197-.264.438-.565.504-.629.598-.819.526-1.06-.064-.215-.245-.412-.494-.535-.233-.117-.271-.12-.48-.046m-2.58 8.91c-.237.13-1.826 1.908-1.916 2.143-.087.227-.028.433.19.67.188.203.373.3.574.3.19 0 .322-.072.542-.299l.18-.185.02 1.859c.019 1.812.022 1.862.104 1.972.147.197.324.273.636.273s.489-.076.636-.273c.084-.112.084-.125.084-3.127s0-3.015-.084-3.127c-.125-.167-.308-.258-.566-.28-.19-.016-.26-.004-.4.074m3.367-.012a.778.778 0 0 0-.247.182c-.125.159-.939 2.627-.942 2.858-.004.251.099.414.349.553l.203.112 1.383.02c1.381.02 1.383.02 1.524.116.41.282.474.829.138 1.198-.203.223-.214.224-1.745.246-1.3.018-1.431.026-1.545.095-.209.127-.275.282-.275.645 0 .363.066.518.275.645.117.07.227.075 1.685.075h1.56l.261-.102a2.334 2.334 0 0 0 1.403-1.478c.116-.363.117-.996 0-1.363-.209-.662-.817-1.27-1.481-1.482-.22-.07-.4-.087-1.093-.105-.457-.011-.83-.032-.83-.045 0-.014.055-.191.123-.393l.123-.369 1.434-.012c1.386-.011 1.438-.014 1.547-.095.191-.143.265-.313.265-.611 0-.331-.088-.531-.286-.654-.145-.091-.155-.091-1.906-.101-1.648-.009-1.77-.005-1.923.065" fill-rule="evenodd" fill="#000"/></svg>