<svg width="24" height="24" fill="none" xmlns="http://www.w3.org/2000/svg"><path d="M8.08 1.282c-4.072.213-6.185 2.014-6.697 5.709-.113.812-.141 1.825-.141 5.009 0 4.504.06 5.273.518 6.65.772 2.313 2.446 3.576 5.267 3.972.759.106 1.875.137 4.973.137s4.214-.031 4.973-.137c2.47-.347 4.023-1.334 4.924-3.132.482-.96.741-2.121.823-3.683.051-.969.051-6.645 0-7.614-.063-1.195-.199-2.002-.478-2.837-.61-1.825-1.773-2.989-3.592-3.596-.862-.287-1.627-.416-2.844-.48-.854-.045-6.854-.043-7.726.002m8.72 1.572c2.786.462 3.914 1.6 4.348 4.386.066.421.072.824.072 4.76s-.006 4.339-.072 4.76c-.436 2.798-1.59 3.952-4.388 4.388-.421.066-.824.072-4.76.072s-4.339-.006-4.76-.072c-2.79-.435-3.957-1.597-4.386-4.368-.069-.445-.074-.791-.074-4.78 0-4.753-.004-4.663.264-5.712C3.557 4.282 4.722 3.274 6.96 2.9c.73-.123 1.088-.131 5.24-.123 3.763.007 4.222.014 4.6.077M8.296 6.903c-.068.034-.548.488-1.066 1.009-1.354 1.362-1.356 1.211.045 2.614.783.784.974.955 1.111.996.273.08.434.024.697-.239.375-.374.367-.654-.029-1.082l-.223-.241 2.655.001c2.918 0 2.959.003 3.464.243.198.094.356.215.591.452.504.507.699.967.699 1.644 0 .677-.195 1.137-.699 1.644-.235.237-.393.358-.591.452-.506.24-.543.243-3.492.243l-2.681.001-.178.09c-.25.127-.332.288-.332.65 0 .362.082.523.332.65l.178.09h2.747c2.999 0 3.062-.004 3.718-.236 1.332-.471 2.342-1.776 2.473-3.195.187-2.012-1.135-3.771-3.116-4.147-.276-.052-.758-.062-3.068-.062h-2.74l.23-.248a1.93 1.93 0 0 0 .289-.389c.122-.292-.034-.652-.382-.883-.207-.137-.43-.157-.632-.057" fill-rule="evenodd" fill="#000"/></svg>