<svg width="24" height="24" fill="none" xmlns="http://www.w3.org/2000/svg"><path d="M11.79 1.257a.923.923 0 0 0-.217.108c-.037.03-.462.55-.945 1.155A37.968 37.968 0 0 1 9.54 3.84c-.341.358-.396.69-.17 1.023.071.105.177.225.234.267.144.106.543.139.699.059.064-.033.299-.089.522-.125 2.171-.344 4.516.285 6.234 1.674.392.316 1.028.948 1.318 1.309.517.643 1.096 1.716 1.361 2.523.398 1.208.506 2.692.286 3.93a8.165 8.165 0 0 1-6.935 6.678c-.58.08-1.598.08-2.178 0a8.17 8.17 0 0 1-6.949-6.751c-.137-.819-.121-1.964.038-2.807.194-1.031.66-2.126 1.318-3.099.294-.437.339-.526.354-.708.021-.252-.077-.438-.324-.617-.34-.247-.656-.235-.916.033-.467.482-1.253 1.93-1.566 2.886-.359 1.094-.477 1.839-.48 3.025-.003.904.05 1.392.237 2.18a9.68 9.68 0 0 0 4.249 5.948 9.99 9.99 0 0 0 3.108 1.266c1.204.264 2.836.264 4.04 0a9.717 9.717 0 0 0 6.007-4.094c1.512-2.255 1.982-5.108 1.286-7.8-.317-1.225-.99-2.555-1.811-3.58a11.825 11.825 0 0 0-1.362-1.374c-1.628-1.358-3.927-2.206-5.984-2.206-.196 0-.356-.008-.356-.017 0-.009.197-.264.438-.565.504-.629.598-.819.526-1.06-.064-.215-.245-.412-.494-.535-.233-.117-.271-.12-.48-.046M9.22 9.913c-.113.054-.391.334-.939.946-.891.995-.947 1.066-1.008 1.269-.064.213.039.463.276.671.366.323.643.316 1.011-.025l.24-.223v1.796c0 1.783.001 1.797.09 1.974.126.248.282.328.647.33.366.002.525-.078.654-.332l.091-.179-.011-2.94c-.01-2.799-.015-2.946-.086-3.065-.108-.177-.277-.262-.56-.282-.185-.012-.284.002-.405.06m4.167-.011a2.733 2.733 0 0 0-1.847 1.478c-.258.535-.28.683-.279 1.9 0 .88.012 1.104.07 1.32.273 1.017 1.108 1.813 2.117 2.018a2.769 2.769 0 0 0 3.221-2.018c.058-.216.07-.44.07-1.32.001-1.223-.021-1.369-.284-1.906-.322-.659-.916-1.182-1.586-1.397-.419-.134-1.069-.167-1.482-.075m1.159 1.56c.251.122.47.356.601.642.097.212.098.226.086 1.205-.015 1.119-.025 1.163-.359 1.497-.599.599-1.592.434-2.002-.334-.089-.167-.092-.205-.092-1.212 0-1.012.003-1.045.093-1.22.328-.631 1.053-.881 1.673-.578" fill-rule="evenodd" fill="#000"/></svg>