<svg width="24" height="24" fill="none" xmlns="http://www.w3.org/2000/svg"><path d="M11.79 1.257a.923.923 0 0 0-.217.108c-.037.03-.462.55-.945 1.155A37.968 37.968 0 0 1 9.54 3.84c-.341.358-.396.69-.17 1.023.071.105.177.225.234.267.144.106.543.139.699.059.064-.033.299-.089.522-.125 2.171-.344 4.516.285 6.234 1.674.392.316 1.028.948 1.318 1.309.517.643 1.096 1.716 1.361 2.523.398 1.208.506 2.692.286 3.93a8.165 8.165 0 0 1-6.935 6.678c-.58.08-1.598.08-2.178 0a8.17 8.17 0 0 1-6.949-6.751c-.137-.819-.121-1.964.038-2.807.194-1.031.66-2.126 1.318-3.099.294-.437.339-.526.354-.708.021-.252-.077-.438-.324-.617-.34-.247-.656-.235-.916.033-.467.482-1.253 1.93-1.566 2.886-.359 1.094-.477 1.839-.48 3.025-.003.904.05 1.392.237 2.18a9.68 9.68 0 0 0 4.249 5.948 9.99 9.99 0 0 0 3.108 1.266c1.204.264 2.836.264 4.04 0a9.717 9.717 0 0 0 6.007-4.094c1.512-2.255 1.982-5.108 1.286-7.8-.317-1.225-.99-2.555-1.811-3.58a11.825 11.825 0 0 0-1.362-1.374c-1.628-1.358-3.927-2.206-5.984-2.206-.196 0-.356-.008-.356-.017 0-.009.197-.264.438-.565.504-.629.598-.819.526-1.06-.064-.215-.245-.412-.494-.535-.233-.117-.271-.12-.48-.046m-1.217 8.866c-.277.082-.36.249-.827 1.66-.471 1.421-.489 1.521-.311 1.77a.882.882 0 0 0 .275.214c.185.091.225.094 1.57.113.975.014 1.405.034 1.465.068.136.079.323.314.375.473.107.325-.043.715-.347.904-.152.094-.165.095-1.573.115-1.259.018-1.435.028-1.55.091-.188.103-.29.33-.29.649 0 .352.103.558.332.662.155.07.278.076 1.568.077 1.508 0 1.694-.019 2.113-.217.486-.23.994-.798 1.164-1.302.094-.278.128-.945.064-1.254-.158-.761-.838-1.472-1.621-1.695-.128-.037-.496-.065-1.025-.079l-.826-.022.129-.385.129-.385 1.444-.02c1.38-.019 1.448-.024 1.556-.103.194-.142.259-.317.245-.664-.013-.33-.068-.447-.287-.611-.108-.08-.161-.082-1.878-.089-1.01-.004-1.821.009-1.894.03" fill-rule="evenodd" fill="#000"/></svg>