<svg width="24" height="24" fill="none" xmlns="http://www.w3.org/2000/svg"><path d="M11.102 1.342c-2.153.406-3.909 2.291-4.283 4.597a6.715 6.715 0 0 0-.059.867v.506l-.21.028c-2.415.32-3.736 1.483-3.991 3.515-.094.745-.039 1.413.416 5.005.273 2.152.455 3.454.518 3.702.398 1.553 1.413 2.513 3.087 2.92.983.239 1.715.276 5.42.276s4.437-.037 5.42-.276c1.674-.407 2.689-1.367 3.087-2.92.063-.248.245-1.548.517-3.702.47-3.714.52-4.352.401-5.132-.3-1.951-1.618-3.076-3.975-3.388l-.21-.028v-.586c-.001-1.354-.33-2.403-1.058-3.37-.721-.96-1.736-1.63-2.942-1.943-.494-.129-1.632-.166-2.138-.071m1.646 1.495c.39.08.869.269 1.244.49.352.207 1.034.912 1.245 1.287.362.643.523 1.319.523 2.195v.431H8.24v-.357c0-.952.289-1.837.84-2.568.255-.34.804-.857 1.091-1.028a4.303 4.303 0 0 1 1.129-.461c.4-.085 1.007-.08 1.448.011m4.759 6.014c.847.158 1.447.422 1.838.809.278.275.414.518.544.968.079.272.09.399.088.992-.003.614-.043.993-.41 3.9-.223 1.771-.444 3.387-.49 3.592-.29 1.286-1.153 1.894-2.965 2.087-.524.055-7.7.055-8.224 0-1.812-.193-2.675-.801-2.965-2.087-.046-.205-.267-1.821-.49-3.592-.367-2.907-.407-3.286-.41-3.9-.002-.593.009-.72.088-.992.13-.45.266-.693.544-.968.477-.472 1.239-.752 2.385-.874.077-.008 2.381-.012 5.12-.009 4.509.005 5.015.012 5.347.074M8.18 11.036c-.487.136-.658.387-.658.964 0 .699.275.974.978.974.418 0 .586-.059.772-.271.151-.172.208-.363.208-.703 0-.143-.019-.328-.042-.411a.86.86 0 0 0-.434-.494c-.169-.072-.653-.106-.824-.059m7 0c-.318.089-.488.229-.598.493-.09.215-.082.764.014.971.156.338.423.48.904.48.679 0 .977-.296.979-.971.001-.488-.149-.774-.479-.915-.166-.071-.65-.105-.82-.058" fill-rule="evenodd" fill="#000"/></svg>