<svg width="24" height="24" fill="none" xmlns="http://www.w3.org/2000/svg"><path d="M8.56 1.283c-.136.061-.642.541-2.06 1.955L4.62 5.113l-.7.019c-.78.022-1.012.067-1.464.288-.871.425-1.291 1.449-1.176 2.868.099 1.217.548 1.915 1.41 2.19.083.027.15.063.15.08 0 .115 1.378 8.448 1.442 8.722.409 1.746 1.197 2.706 2.606 3.178.805.269 1.336.301 4.992.301 2.828-.001 3.889-.03 4.36-.12 1.012-.194 1.723-.544 2.224-1.092.415-.455.69-1.005.894-1.79.066-.251.49-2.392.943-4.757.453-2.365.833-4.34.845-4.388.014-.058.072-.104.168-.135.665-.212 1.113-.724 1.303-1.489.1-.403.143-1.063.1-1.553-.089-1.026-.489-1.696-1.217-2.039-.419-.197-.665-.243-1.42-.264l-.7-.02-1.9-1.891c-1.627-1.619-1.927-1.901-2.091-1.962-.241-.089-.417-.045-.662.164-.31.266-.398.564-.25.849.043.081.673.742 1.4 1.468.728.726 1.323 1.333 1.323 1.35 0 .016-2.34.03-5.2.03-2.86 0-5.2-.014-5.2-.03 0-.017.595-.624 1.323-1.35.727-.726 1.357-1.387 1.4-1.468a.543.543 0 0 0-.001-.547c-.13-.256-.498-.527-.711-.524a.928.928 0 0 0-.251.082m12.007 5.375c.341.072.447.144.56.375.076.157.093.27.107.705.02.646-.04 1.023-.188 1.187-.094.104-.145.122-.446.156-.458.052-16.742.052-17.2 0-.301-.034-.352-.052-.446-.156-.148-.164-.208-.541-.188-1.187.025-.778.139-.967.648-1.078.377-.082 16.766-.084 17.153-.002m-.947 3.992c-.009.028-.378 1.931-.818 4.23-.441 2.299-.847 4.35-.903 4.558-.302 1.121-.809 1.558-2.019 1.743-.569.087-7.411.086-7.948-.001-1.209-.196-1.833-.788-2.15-2.04-.073-.289-1.422-8.37-1.422-8.52 0-.011 3.437-.02 7.639-.02 6.093 0 7.635.01 7.621.05m-5.54 3.149c-.077.041-.766.654-1.532 1.362l-1.392 1.286-.572-.558c-.657-.639-.824-.738-1.109-.652-.196.058-.482.312-.576.51-.1.211-.061.445.112.681.217.294 1.67 1.707 1.835 1.784a.604.604 0 0 0 .537.004c.217-.103 3.581-3.226 3.69-3.426.123-.224.101-.437-.069-.684-.24-.348-.615-.473-.924-.307" fill-rule="evenodd" fill="#000"/></svg>