<svg width="24" height="24" fill="none" xmlns="http://www.w3.org/2000/svg"><path d="M11.102 1.342c-2.153.406-3.909 2.291-4.283 4.597a6.715 6.715 0 0 0-.059.867v.506l-.21.028c-2.415.32-3.736 1.483-3.991 3.515-.094.745-.039 1.413.416 5.005.273 2.152.455 3.454.518 3.702.398 1.553 1.413 2.513 3.087 2.92.983.239 1.715.276 5.42.276s4.437-.037 5.42-.276c1.674-.407 2.689-1.367 3.087-2.92.063-.248.245-1.548.517-3.702.47-3.714.52-4.352.401-5.132-.3-1.951-1.618-3.076-3.975-3.388l-.21-.028v-.586c-.001-1.354-.33-2.403-1.058-3.37-.721-.96-1.736-1.63-2.942-1.943-.494-.129-1.632-.166-2.138-.071m1.646 1.495c.39.08.869.269 1.244.49.352.207 1.034.912 1.245 1.287.362.643.523 1.319.523 2.195v.431H8.24v-.357c0-.952.289-1.837.84-2.568.255-.34.804-.857 1.091-1.028a4.303 4.303 0 0 1 1.129-.461c.4-.085 1.007-.08 1.448.011m4.759 6.014c.847.158 1.447.422 1.838.809.278.275.414.518.544.968.079.272.09.399.088.992-.003.614-.043.993-.41 3.9-.223 1.771-.444 3.387-.49 3.592-.29 1.286-1.153 1.894-2.965 2.087-.524.055-7.7.055-8.224 0-1.812-.193-2.675-.801-2.965-2.087-.046-.205-.267-1.821-.49-3.592-.367-2.907-.407-3.286-.41-3.9-.002-.593.009-.72.088-.992.13-.45.266-.693.544-.968.477-.472 1.239-.752 2.385-.874.077-.008 2.381-.012 5.12-.009 4.509.005 5.015.012 5.347.074m-5.928 1.429c-1.829.16-3.379 1.352-4.039 3.104-.358.951-.358 2.281 0 3.232a4.799 4.799 0 0 0 2.836 2.841c.964.363 2.284.363 3.248 0a4.799 4.799 0 0 0 2.836-2.841c.359-.955.358-2.28-.003-3.24-.762-2.028-2.741-3.284-4.878-3.096m1.401 1.614c.528.174.874.392 1.304.822.428.427.644.769.824 1.304.101.296.109.369.109.98s-.008.684-.109.98c-.18.535-.396.877-.824 1.304-.427.428-.769.644-1.304.824-.296.101-.369.109-.98.109s-.684-.008-.98-.109c-.535-.18-.877-.396-1.304-.824-.428-.427-.644-.769-.824-1.304-.101-.296-.109-.369-.109-.98s.008-.684.109-.98c.18-.535.396-.877.824-1.304.717-.717 1.35-.966 2.384-.941.472.012.61.031.88.119m-2.243 1.363a1.192 1.192 0 0 0-.499.468c-.165.322-.078.543.399 1.014l.323.319-.334.341c-.432.44-.466.494-.466.744 0 .5.625.932 1.039.718.072-.038.288-.219.479-.403l.347-.335.298.302c.339.344.524.455.757.455.203 0 .337-.069.525-.267.191-.201.235-.294.235-.492 0-.234-.111-.419-.455-.758l-.301-.297.334-.351c.356-.374.447-.548.408-.785-.052-.322-.456-.69-.757-.69-.234 0-.378.087-.729.44l-.316.318-.327-.318c-.313-.306-.587-.479-.757-.478a.675.675 0 0 0-.203.055" fill-rule="evenodd" fill="#000"/></svg>