<svg width="24" height="24" fill="none" xmlns="http://www.w3.org/2000/svg"><path d="M11.44 1.434c-.363.123-9.036 3.602-9.254 3.713-.448.227-.822.772-.907 1.323-.03.193-.039.881-.029 2.079.018 1.978.017 1.97.282 2.379.33.507.753.75 1.418.813l.29.027v5.464l-.29.027c-.665.063-1.088.306-1.418.813-.251.388-.262.455-.281 1.873l-.018 1.285-.274.027c-.484.048-.691.271-.691.743 0 .418.175.653.538.723.228.044 22.16.044 22.388 0 .363-.07.538-.305.538-.723 0-.472-.208-.695-.691-.743l-.273-.027-.019-1.285c-.021-1.417-.031-1.487-.281-1.873-.33-.507-.753-.75-1.418-.813l-.29-.027v-5.464l.29-.027c.665-.063 1.088-.306 1.418-.813.264-.407.263-.402.282-2.377.011-1.206.002-1.884-.028-2.079-.089-.572-.462-1.101-.944-1.341-.131-.065-2.281-.935-4.778-1.933l-4.54-1.815-.4-.012c-.307-.008-.451.006-.62.063m5.15 3.208c2.843 1.136 4.536 1.833 4.58 1.885.064.075.07.223.07 1.824 0 1.565-.007 1.75-.066 1.816-.064.07-.401.073-9.167.073-8.412 0-9.106-.005-9.174-.066-.069-.062-.073-.172-.073-1.816 0-1.608.006-1.756.07-1.831.077-.091 9.004-3.682 9.16-3.685.049-.001 2.119.809 4.6 1.8m-5.09.165c-.581.109-1.23.623-1.508 1.193a2.213 2.213 0 0 0 .427 2.581c.484.484 1.064.697 1.758.646 1.904-.138 2.757-2.454 1.404-3.808-.55-.549-1.277-.764-2.081-.612m.771 1.495a.748.748 0 0 1 0 1.396.65.65 0 0 1-.542 0 .745.745 0 0 1-.029-1.382.665.665 0 0 1 .571-.014M7.24 14.5v2.74H4.76v-5.48h2.48v2.74m4 0v2.74H8.76v-5.48h2.48v2.74m4 0v2.74h-2.48v-5.48h2.48v2.74m4 0v2.74h-2.48v-5.48h2.48v2.74m1.927 4.326c.068.061.073.154.073 1.24v1.174H2.76v-1.167c0-1.029.008-1.175.066-1.24.064-.07.401-.073 9.167-.073 8.412 0 9.106.005 9.174.066" fill-rule="evenodd" fill="#000"/></svg>