<svg width="24" height="24" fill="none" xmlns="http://www.w3.org/2000/svg"><path d="M5.928 2.822c-1.288.165-2.289.606-3.081 1.355-.755.713-1.25 1.681-1.466 2.863-.114.627-.139 1.52-.139 4.96s.025 4.333.139 4.96c.216 1.184.711 2.15 1.467 2.865.804.76 1.797 1.191 3.127 1.355.719.089 11.331.089 12.05 0 1.981-.245 3.368-1.161 4.115-2.719.35-.73.514-1.417.58-2.441.05-.78.05-7.26 0-8.04-.066-1.024-.23-1.711-.58-2.441-.747-1.558-2.134-2.474-4.115-2.719-.671-.083-11.449-.081-12.097.002m11.784 1.46c2.039.221 3.179 1.276 3.465 3.207.094.63.094 8.392 0 9.022-.288 1.94-1.442 3.001-3.491 3.207-.566.057-10.806.057-11.372 0-2.049-.206-3.203-1.267-3.491-3.207-.094-.63-.094-8.392 0-9.022.282-1.903 1.425-2.98 3.397-3.202.468-.053 11.009-.057 11.492-.005M5.787 7.278a.659.659 0 0 0-.447.326c-.079.134-.08.208-.08 4.396s.001 4.262.08 4.396a.646.646 0 0 0 .475.327c.367.069.684-.054.845-.327.078-.133.08-.219.092-4.176.007-2.222.001-4.152-.013-4.289-.041-.405-.242-.62-.619-.662a1.307 1.307 0 0 0-.333.009m3 0a.659.659 0 0 0-.447.326c-.077.132-.08.208-.08 2.396 0 2.188.003 2.264.08 2.396.161.273.478.396.845.327a.646.646 0 0 0 .475-.327c.077-.13.081-.22.093-2.176.007-1.122.001-2.152-.013-2.289-.042-.405-.244-.62-.62-.662a1.307 1.307 0 0 0-.333.009m3 0a.659.659 0 0 0-.447.326c-.079.134-.08.208-.08 4.396s.001 4.262.08 4.396c.161.273.478.396.845.327a.646.646 0 0 0 .475-.327c.078-.133.08-.219.092-4.176.007-2.222.001-4.152-.013-4.289-.041-.405-.242-.62-.619-.662a1.307 1.307 0 0 0-.333.009m3 0a.659.659 0 0 0-.447.326c-.072.123-.08.208-.08.896 0 .688.008.773.08.896a.85.85 0 0 0 .185.214c.226.168.724.168.95 0 .214-.16.258-.297.277-.872.031-.921-.04-1.216-.332-1.381-.148-.084-.429-.119-.633-.079m3 0a.659.659 0 0 0-.447.326c-.079.134-.08.208-.08 4.396s.001 4.262.08 4.396c.161.273.478.396.845.327a.646.646 0 0 0 .475-.327c.078-.133.08-.219.092-4.176.007-2.222.001-4.152-.013-4.289-.041-.405-.242-.62-.619-.662a1.307 1.307 0 0 0-.333.009m-3 4a.659.659 0 0 0-.447.326c-.077.132-.08.208-.08 2.396 0 2.188.003 2.264.08 2.396.161.273.478.396.845.327a.646.646 0 0 0 .475-.327c.077-.13.081-.22.093-2.176.007-1.122.001-2.152-.013-2.289-.042-.405-.244-.62-.62-.662a1.307 1.307 0 0 0-.333.009m-6 3a.659.659 0 0 0-.447.326c-.072.123-.08.208-.08.896 0 .688.008.773.08.896a.85.85 0 0 0 .185.214c.226.168.724.168.95 0 .214-.16.258-.297.277-.872.031-.921-.04-1.216-.332-1.381-.148-.084-.429-.119-.633-.079" fill-rule="evenodd" fill="#000"/></svg>