<svg width="24" height="24" fill="none" xmlns="http://www.w3.org/2000/svg"><path d="M15.616 1.835c-.125.092-1.17 1.721-5.269 8.215l-5.113 8.1-.271-.052c-.421-.08-.6-.135-.913-.279-.559-.257-.896-.724-1.084-1.499-.182-.75-.186-.849-.186-4.36 0-3.683.007-3.799.259-4.549.195-.581.422-.887.851-1.144.516-.309 1.261-.458 2.536-.504.918-.034 1.011-.056 1.184-.288.106-.142.155-.433.113-.66a.646.646 0 0 0-.327-.475c-.123-.072-.199-.079-.796-.071-2.065.027-3.296.389-4.119 1.212-.659.658-1.003 1.541-1.164 2.979-.064.574-.095 5.111-.042 6.24.089 1.901.355 2.828 1.052 3.665.391.47 1.092.885 1.813 1.075.11.029.207.058.215.065.008.006-.21.368-.484.803-.612.972-.638 1.021-.641 1.233-.003.223.103.399.342.564.331.228.645.229.879.003.073-.07 2.424-3.759 5.226-8.196l5.093-8.068.125.021c1.3.224 1.87.708 2.139 1.815.182.75.186.849.186 4.36 0 3.052-.006 3.378-.073 3.775-.187 1.107-.532 1.684-1.196 1.999-.576.273-1.156.376-2.375.423-.921.034-1.014.057-1.186.288-.168.226-.168.724 0 .95a.85.85 0 0 0 .214.185c.123.072.199.079.796.071 3.577-.046 4.938-1.127 5.283-4.191.064-.573.095-5.108.042-6.24-.045-.959-.108-1.478-.244-2.025-.164-.658-.478-1.275-.88-1.726-.34-.383-1.021-.784-1.621-.954a7.89 7.89 0 0 1-.335-.101c-.008-.006.21-.367.484-.802.61-.968.638-1.021.641-1.227a.619.619 0 0 0-.268-.521c-.334-.255-.638-.292-.886-.109m4.56 6.968c-.287.084-.442.39-.405.804.043.469.202.588.854.637.251.018.492.053.535.076.078.042.08.087.08 1.68s-.002 1.638-.08 1.68c-.043.023-.284.058-.535.076-.701.053-.845.18-.845.744 0 .548.165.707.76.733.919.04 1.635-.257 1.962-.814.223-.379.238-.528.238-2.419 0-1.548-.008-1.769-.071-1.999-.182-.659-.637-1.051-1.372-1.182-.353-.063-.931-.071-1.121-.016" fill-rule="evenodd" fill="#000"/></svg>