<svg width="24" height="24" fill="none" xmlns="http://www.w3.org/2000/svg"><path d="M6.009 4.28c-1.417.084-2.308.318-3.038.799-.984.648-1.47 1.657-1.658 3.441-.075.709-.075 6.25 0 6.96.156 1.476.499 2.371 1.168 3.039.823.823 2.054 1.185 4.119 1.212.597.008.673.001.796-.071a.85.85 0 0 0 .214-.185c.168-.226.168-.724 0-.95-.172-.231-.265-.254-1.186-.288-1.284-.049-2.019-.195-2.534-.504-.429-.257-.656-.563-.851-1.144-.253-.751-.259-.862-.259-4.589 0-3.727.006-3.838.259-4.589.195-.581.422-.887.851-1.144.516-.309 1.261-.458 2.536-.504.918-.034 1.011-.056 1.184-.288.168-.226.168-.724 0-.95-.195-.262-.505-.309-1.601-.245m6.784-.004a.649.649 0 0 0-.418.266c-.154.235-.147.716.015.933.173.232.266.254 1.184.288 1.275.046 2.02.195 2.536.504.429.257.656.563.851 1.144.253.751.259.862.259 4.589 0 3.09-.006 3.417-.073 3.815-.187 1.107-.532 1.684-1.196 1.999-.576.273-1.156.376-2.375.423-.921.034-1.014.057-1.186.288-.106.142-.155.433-.113.66a.646.646 0 0 0 .327.475c.123.072.199.079.796.071 2.065-.027 3.296-.389 4.119-1.212.669-.668 1.012-1.563 1.168-3.039.075-.709.075-6.251 0-6.96-.156-1.476-.499-2.371-1.168-3.039-.665-.666-1.618-1.033-2.999-1.156-.66-.059-1.555-.084-1.727-.049M9.78 7.259c-.21.075-.274.149-1.409 1.655-.88 1.168-.976 1.31-1.055 1.57-.126.415-.095.898.08 1.254.184.374.436.634.779.803.392.194.605.217 2.013.218 1.202.001 1.208.001 1.27.09a.346.346 0 0 1 .062.157c0 .037-.477.623-1.06 1.301-1.115 1.297-1.289 1.547-1.244 1.788.062.329.488.688.807.681a.731.731 0 0 0 .295-.08c.209-.121 2.423-2.727 2.553-3.004.099-.21.109-.275.109-.693 0-.44-.006-.473-.131-.726-.27-.55-.754-.911-1.33-.994-.143-.021-.803-.038-1.468-.038l-1.209-.001-.066-.1c-.036-.055-.057-.133-.046-.174.01-.04.461-.659 1.002-1.375 1.046-1.386 1.116-1.506 1.027-1.775a.898.898 0 0 0-.413-.473c-.224-.129-.376-.151-.566-.084m10.396 1.544c-.287.084-.442.39-.405.804.043.469.202.588.854.637.251.018.492.053.535.076.078.042.08.087.08 1.68s-.002 1.638-.08 1.68c-.043.023-.284.058-.535.076-.701.053-.845.18-.845.744 0 .548.165.707.76.733.919.04 1.635-.257 1.962-.814.223-.379.238-.528.238-2.419 0-1.548-.008-1.769-.071-1.999-.182-.659-.637-1.051-1.372-1.182-.353-.063-.931-.071-1.121-.016" fill-rule="evenodd" fill="#000"/></svg>