<svg width="24" height="24" fill="none" xmlns="http://www.w3.org/2000/svg"><path d="M10.18 3.28a2.271 2.271 0 0 0-1.625 1.1c-.204.352-.278.664-.304 1.29l-.023.57H5.646l-.047-.15c-.181-.571-.708-1.179-1.319-1.522-.714-.4-1.846-.4-2.56 0C.781 5.094.269 5.953.269 7S.781 8.906 1.72 9.432c.714.4 1.846.4 2.56 0 .611-.343 1.138-.951 1.319-1.522l.047-.15.947.001.947.002-.12.088c-1.716 1.272-2.999 3.707-3.126 5.934l-.026.446-.361.028c-.456.036-.788.137-1.09.334-.503.329-.868.831-.996 1.371-.086.366-.087 2.702-.001 3.067a2.3 2.3 0 0 0 1.518 1.62c.268.085.349.089 1.642.089 1.294 0 1.374-.004 1.64-.089.783-.248 1.421-.929 1.576-1.683.07-.338.057-2.688-.016-2.999-.133-.561-.47-1.027-.997-1.374-.298-.196-.624-.298-1.078-.336l-.355-.029.027-.373c.125-1.695.989-3.45 2.251-4.567l.282-.249.086.237c.238.652.77 1.151 1.464 1.373.273.087.325.089 2.14.089 1.815 0 1.867-.002 2.14-.089.694-.222 1.226-.721 1.464-1.373l.086-.237.282.249c1.262 1.117 2.126 2.872 2.251 4.567l.027.373-.355.029c-.452.038-.778.139-1.078.334-.503.329-.868.831-.996 1.371-.074.317-.088 2.662-.017 3.004.157.759.789 1.434 1.576 1.683.266.085.346.089 1.64.089 1.293 0 1.374-.004 1.642-.089a2.3 2.3 0 0 0 1.518-1.62c.085-.361.085-2.701 0-3.062-.133-.561-.47-1.027-.997-1.374-.301-.198-.632-.3-1.09-.336l-.361-.028-.026-.446c-.099-1.723-.87-3.567-2.061-4.93a8.24 8.24 0 0 0-1.065-1.004l-.12-.088.947-.002.947-.001.047.15c.125.395.515.941.872 1.221.545.427 1.042.6 1.727.6 1.047 0 1.906-.512 2.432-1.451.4-.714.4-1.846 0-2.56-.526-.939-1.385-1.451-2.432-1.451-.685 0-1.182.173-1.727.6-.357.28-.747.826-.872 1.221l-.047.15h-2.582l-.024-.57c-.015-.344-.05-.657-.09-.79a2.335 2.335 0 0 0-1.538-1.543c-.195-.063-.42-.072-1.96-.081-.957-.005-1.848.006-1.98.024m3.652 1.556c.169.086.251.17.343.352.057.112.065.339.065 1.812s-.008 1.7-.065 1.812a.682.682 0 0 1-.343.352c-.139.071-.259.076-1.832.076-1.473 0-1.7-.008-1.812-.065a.682.682 0 0 1-.352-.343C9.765 8.693 9.76 8.573 9.76 7s.005-1.693.076-1.832a.696.696 0 0 1 .344-.341c.104-.055.347-.064 1.812-.065 1.582-.002 1.701.003 1.84.074M3.454 5.841c.29.109.596.415.705.705A1.246 1.246 0 0 1 3 8.24c-.508 0-.986-.327-1.163-.795-.109-.288-.094-.741.033-.987.149-.289.479-.572.77-.661.198-.06.592-.039.814.044m18 0c.29.109.596.415.705.705.176.471.068.975-.285 1.328a1.216 1.216 0 0 1-1.748 0c-.279-.278-.38-.549-.357-.954.021-.353.107-.547.355-.795.273-.272.473-.356.864-.362.16-.002.327.026.466.078M6.405 15.875c.077.053.183.161.237.24.097.144.098.152.11 1.272.008.723-.003 1.185-.031 1.288a.793.793 0 0 1-.408.488c-.148.076-.223.08-1.368.069-1.201-.012-1.212-.013-1.35-.107a1.101 1.101 0 0 1-.237-.24c-.098-.144-.098-.151-.11-1.292-.008-.708.003-1.207.029-1.302.047-.175.244-.397.423-.476.093-.042.393-.052 1.343-.044 1.216.009 1.224.01 1.362.104m14 0c.077.053.183.161.237.24l.098.145v2.48l-.098.145c-.054.079-.16.187-.237.24-.138.094-.149.095-1.35.107-1.145.011-1.22.007-1.368-.069a.794.794 0 0 1-.405-.474c-.053-.191-.055-2.221-.002-2.411.046-.164.246-.386.42-.463.093-.042.393-.052 1.343-.044 1.216.009 1.224.01 1.362.104" fill-rule="evenodd" fill="#000"/></svg>