<svg width="24" height="24" fill="none" xmlns="http://www.w3.org/2000/svg"><path d="M1.599 1.85c-.25.127-.332.288-.332.65 0 .362.082.523.332.65.16.081.236.09.749.09h.572v5.71c0 6.123 0 6.12.202 6.729.174.525.469 1.02.858 1.437.275.294 5.604 4.315 6.125 4.621.807.473 1.871.616 2.855.382.694-.165.905-.302 3.92-2.559 1.529-1.144 2.885-2.183 3.014-2.308a3.833 3.833 0 0 0 1.111-2.031c.07-.342.074-.664.074-6.171l.001-5.81h.572c.513 0 .589-.009.749-.09.25-.127.328-.281.328-.65s-.078-.523-.328-.65l-.178-.09H1.777l-.178.09m18 7.1c0 4.858-.009 5.752-.059 5.99-.077.369-.331.87-.569 1.123-.248.264-5.574 4.257-5.891 4.417a2.318 2.318 0 0 1-1.06.25 2.15 2.15 0 0 1-1.04-.232c-.298-.143-5.47-3.981-5.835-4.331a2.465 2.465 0 0 1-.615-.984l-.11-.323-.011-5.758c-.006-3.167-.002-5.782.009-5.81.016-.042 1.425-.052 7.601-.052H19.6l-.001 5.71M7.787 7.278c-.342.068-.519.314-.519.722 0 .462.207.693.663.739.137.014 2.067.02 4.289.013 3.957-.012 4.043-.014 4.176-.092a.646.646 0 0 0 .327-.475c.069-.367-.054-.684-.327-.845-.133-.079-.213-.08-4.296-.086-2.288-.003-4.229.008-4.313.024m0 5c-.342.068-.519.314-.519.722 0 .462.207.693.663.739.137.014 2.067.02 4.289.013 3.957-.012 4.043-.014 4.176-.092.273-.161.396-.478.327-.845a.646.646 0 0 0-.327-.475c-.133-.079-.213-.08-4.296-.086-2.288-.003-4.229.008-4.313.024" fill-rule="evenodd" fill="#000"/></svg>