<svg width="24" height="24" fill="none" xmlns="http://www.w3.org/2000/svg"><path d="M18.547 1.278c-.358.071-.505.293-.536.815l-.022.375-1.172.036c-1.098.034-1.179.041-1.284.12-.191.143-.265.313-.265.611 0 .505.199.72.696.756l.276.02v3.5l-.298.015c-.478.024-.674.23-.674.709 0 .331.088.531.286.654.141.088.182.091 1.29.103l1.145.012.022.398c.026.477.092.618.348.748.358.181.886.073 1.052-.216.05-.088.079-.25.096-.53L19.532 9l.624-.001c.69 0 1.037-.055 1.396-.219.494-.227.921-.682 1.093-1.166.114-.324.115-.902.001-1.223a2.03 2.03 0 0 0-.53-.791l-.19-.18.082-.24c.297-.86-.003-1.754-.782-2.327-.34-.25-.645-.333-1.23-.333h-.476l-.002-.27c-.003-.517-.094-.755-.342-.896-.144-.081-.427-.115-.629-.076M5.38 2.786c-2.034.165-3.057.725-3.643 1.992-.266.576-.395 1.22-.457 2.287-.051.878-.051 8.992 0 9.87.062 1.067.191 1.711.457 2.287.532 1.152 1.453 1.725 3.123 1.945.585.077 13.695.077 14.28 0 1.67-.22 2.591-.793 3.123-1.945.431-.932.509-1.835.49-5.662-.013-2.416-.016-2.505-.093-2.636-.148-.251-.262-.304-.66-.304s-.512.053-.66.304c-.078.132-.081.231-.104 3.336-.026 3.426-.03 3.488-.24 4.112-.271.805-.783 1.139-2.016 1.316-.526.076-13.434.076-13.96 0-1.569-.225-2.043-.725-2.218-2.336-.026-.245-.042-1.819-.042-4.25V9.24H13.223l.178-.09c.25-.127.328-.281.328-.65s-.078-.523-.328-.65l-.178-.09H2.76v-.362c0-.47.064-1.053.163-1.475.232-.99.711-1.384 1.937-1.59.35-.059.919-.07 4.56-.09 4.091-.023 4.162-.024 4.299-.104.215-.127.29-.291.29-.639 0-.369-.078-.523-.328-.65l-.178-.09-3.981.007c-2.19.003-4.054.012-4.142.019m15.082 1.382a.81.81 0 0 1 .162.252c.038.153-.067.385-.221.489-.133.09-.152.091-1.389.091H17.76V3.997l1.283.011 1.283.012.136.148M20.96 6.6c.196.1.28.22.28.4 0 .182-.083.298-.293.411-.161.086-.208.089-1.287.093a40.567 40.567 0 0 1-1.51-.015l-.39-.021v-.947l1.31-.013c1.564-.016 1.691-.01 1.89.092M5.599 15.85c-.25.127-.332.288-.332.65 0 .362.082.523.332.65.173.087.212.09 1.401.09s1.228-.003 1.401-.09c.25-.127.328-.281.328-.65s-.078-.523-.328-.65c-.173-.087-.212-.09-1.401-.09s-1.228.003-1.401.09m4.577-.047c-.288.085-.442.39-.405.804.024.267.112.433.284.538.119.071.243.075 2.445.075s2.326-.004 2.445-.075c.209-.127.275-.282.275-.645 0-.363-.066-.518-.275-.645-.118-.071-.248-.075-2.385-.082-1.276-.004-2.314.009-2.384.03" fill-rule="evenodd" fill="#000"/></svg>