<svg width="24" height="24" fill="none" xmlns="http://www.w3.org/2000/svg"><path d="M6.9.303C3.245.868.542 3.77.282 7.412.226 8.2.281 8.437.56 8.612c.203.127.679.126.886-.003.22-.137.274-.293.315-.92.039-.594.075-.846.178-1.249.545-2.144 2.244-3.893 4.351-4.48.149-.041.27-.07.27-.064 0 .006-.08.15-.177.321-.098.171-.189.379-.203.462-.045.265.133.552.44.711.307.16.589.13.801-.084.19-.193 1.249-1.983 1.295-2.189.076-.348-.051-.671-.319-.807C8.226.223 7.446.219 6.9.303m7.52 1.519c-1.567.213-2.893.878-4.02 2.017A6.816 6.816 0 0 0 8.661 6.86a8.281 8.281 0 0 0-.23 1.36c-.011.198-.013.2-.151.21-3.314.225-5.93 2.624-6.444 5.91-.07.448-.06 1.589.018 2.081a6.948 6.948 0 0 0 3.17 4.771c1.152.715 2.262 1.027 3.656 1.027.767 0 1.048-.033 1.72-.201a6.896 6.896 0 0 0 4.602-3.898c.311-.716.558-1.716.558-2.256 0-.277.022-.304.245-.304.271 0 .905-.105 1.335-.222a6.923 6.923 0 0 0 4.897-4.998 6.931 6.931 0 0 0-1.822-6.555 6.908 6.908 0 0 0-5.795-1.963m1.998 1.542a5.44 5.44 0 0 1 3.929 3.264c1.119 2.77-.207 5.927-2.964 7.053-.561.229-1.299.399-1.733.399h-.154l-.05-.25c-.175-.879-.71-2.008-1.32-2.79a9.594 9.594 0 0 0-1.09-1.101 7.005 7.005 0 0 0-2.726-1.343l-.39-.092V8.35c0-.434.17-1.172.399-1.733a5.45 5.45 0 0 1 4.406-3.334 6.49 6.49 0 0 1 1.693.081m-6.575 6.67a5.718 5.718 0 0 1 2.297 1.132c2.412 1.998 2.625 5.636.461 7.889a5.294 5.294 0 0 1-2.301 1.444c-.981.32-2.295.319-3.256-.003a5.319 5.319 0 0 1-2.285-1.441 5.346 5.346 0 0 1-1.474-4.152c.172-2.191 1.619-4.023 3.737-4.736.206-.069.468-.129.978-.223.055-.01.415-.012.8-.004.513.011.791.036 1.043.094m-1.737 1.222c-.321.12-.425.313-.426.791v.266l-.67.014c-.735.014-.847.046-1.026.286-.083.112-.084.142-.095 2.652-.011 2.439-.008 2.545.066 2.714.126.284.228.318 1.025.341l.68.02.023.343c.04.577.2.737.737.737.537 0 .697-.16.737-.737l.023-.343.6-.023c.474-.019.644-.041.811-.107.882-.347 1.399-1.18 1.258-2.027a1.699 1.699 0 0 0-.474-.944L11.147 15l.065-.23c.097-.348.113-.545.068-.841-.141-.906-.969-1.609-1.897-1.609H9.17l-.017-.36c-.019-.398-.076-.518-.307-.654-.168-.098-.543-.123-.74-.05m1.577 2.695c.15.167.157.355.019.503l-.098.106H7.36v-.353c0-.195.011-.365.025-.379.014-.013.51-.021 1.103-.016l1.079.008.116.131m12.92 1.359c-.269.137-.357.365-.362.93-.003.343-.077.835-.196 1.302a6.268 6.268 0 0 1-4.482 4.478l-.136.029.115-.194c.323-.546.36-.773.167-1.027a1.076 1.076 0 0 0-.647-.378c-.224-.025-.459.101-.609.327a58.205 58.205 0 0 0-1.102 1.84.993.993 0 0 0-.011.757c.149.315.478.391 1.341.308 1.759-.169 3.258-.832 4.579-2.024 1.132-1.021 2.009-2.578 2.321-4.119.113-.56.19-1.52.141-1.773-.068-.358-.299-.526-.722-.526a.926.926 0 0 0-.397.07m-12.491.826c.251.13.329.347.183.511-.162.182-.255.193-1.634.193H7.36v-.76h1.322c1.054 0 1.344.011 1.43.056" fill-rule="evenodd" fill="#000"/></svg>