<svg width="24" height="24" fill="none" xmlns="http://www.w3.org/2000/svg"><path d="M11.18 2.027A10.155 10.155 0 0 0 5.7 4.228c-.448.362-1.232 1.15-1.5 1.506-.15.2-.178.266-.19.46-.018.277.06.419.339.623.22.161.359.202.56.164.118-.022.279-.164.927-.816.83-.835 1.179-1.113 1.964-1.562a8.512 8.512 0 0 1 8.599.109c.76.458 1.669 1.254 2.227 1.948a8.593 8.593 0 0 1 1.794 4.08c.034.22.073.706.087 1.08l.025.68-.304-.288c-.382-.362-.503-.427-.753-.402-.222.021-.419.153-.598.4a.518.518 0 0 0-.117.367c0 .124.026.244.066.304.036.054.445.488.91.963.464.475.898.928.965 1.006a.639.639 0 0 0 .35.209c.214.062.244.062.429.001.174-.058.312-.181 1.145-1.022.521-.526.994-1.022 1.051-1.102a.635.635 0 0 0-.011-.729c-.156-.225-.437-.407-.629-.407-.24 0-.348.062-.696.403l-.328.32-.024-.772c-.033-1.04-.126-1.65-.395-2.589-.315-1.097-.885-2.222-1.639-3.234-.373-.499-1.383-1.509-1.882-1.882-1.848-1.378-3.92-2.064-6.152-2.039-.319.003-.652.012-.74.02m.337 4.009c-.377.123-.448.287-.47 1.094l-.017.63H9.904c-1.09 0-1.133.003-1.305.09a.67.67 0 0 0-.258.23c-.08.138-.081.199-.081 3.92s.001 3.782.081 3.92a.67.67 0 0 0 .258.23c.172.087.215.09 1.305.09h1.126l.017.63c.02.72.065.868.307 1.019.209.13.683.13.892 0 .242-.151.287-.299.307-1.019l.017-.63h.876c.986 0 1.326-.047 1.75-.243.743-.344 1.293-.958 1.468-1.642.079-.308.088-.854.018-1.155-.119-.511-.48-1.039-.942-1.379-.145-.106-.258-.203-.251-.217l.118-.226c.186-.353.25-.638.251-1.118.001-.36-.017-.494-.096-.738-.202-.618-.747-1.238-1.342-1.523-.402-.193-.658-.239-1.323-.239h-.527l-.017-.63c-.02-.715-.065-.869-.3-1.014-.152-.094-.558-.138-.736-.08M2.458 8.97c-.163.072-.393.285-1.164 1.072C.217 11.142.143 11.25.238 11.571c.066.225.419.574.619.611.285.054.407-.004.787-.37L2 11.469v.515c.001 2.224.686 4.264 2.046 6.088.373.499 1.383 1.509 1.882 1.882a10.145 10.145 0 0 0 4.792 1.973c.487.068 2.143.068 2.58-.001 1.86-.291 3.358-.909 4.756-1.962.674-.508 1.683-1.53 1.868-1.892.105-.205.099-.466-.014-.633-.135-.201-.444-.406-.645-.429-.218-.024-.361.048-.59.298-.487.53-1.047 1.085-1.315 1.303-1.147.931-2.614 1.577-4.12 1.814-.608.096-1.879.097-2.476.002-1.828-.291-3.387-1.066-4.678-2.324-.71-.692-1.192-1.331-1.622-2.151-.619-1.18-.918-2.341-.971-3.772l-.025-.68.304.288c.382.362.503.427.753.402.222-.021.419-.153.598-.4a.517.517 0 0 0 .117-.37c0-.275-.053-.343-.979-1.26-.411-.407-.802-.819-.869-.914a.766.766 0 0 0-.934-.276m11.325.377c.198.106.443.371.526.567.188.448-.062 1.039-.528 1.251-.149.068-.308.073-2.091.074l-1.93.001V9.237l1.93.012c1.895.011 1.933.013 2.093.098m.883 3.567c.247.134.46.351.534.546.062.163.046.464-.035.64-.091.202-.316.401-.603.536l-.222.104-2.29.012-2.29.011v-2.005l2.33.011 2.33.011.246.134" fill-rule="evenodd" fill="#000"/></svg>