<svg width="22" height="22" fill="none" xmlns="http://www.w3.org/2000/svg"><path d="M7.15.294C3.57.73.87 3.321.305 6.862.231 7.329.222 8.481.289 8.983c.276 2.065 1.38 3.969 3.002 5.178.861.641 1.623 1.015 2.646 1.297.25.069.457.129.459.134.003.006.044.166.091.358.304 1.22.982 2.442 1.886 3.398a7.848 7.848 0 0 0 3.709 2.16 7.758 7.758 0 0 0 6.787-1.51c1.437-1.161 2.433-2.882 2.747-4.745.094-.559.112-1.576.038-2.163-.165-1.297-.585-2.421-1.288-3.447-1.052-1.533-2.641-2.657-4.407-3.117a3.453 3.453 0 0 1-.396-.117 4.197 4.197 0 0 1-.126-.418 7.713 7.713 0 0 0-3.282-4.497A7.561 7.561 0 0 0 9.132.346C8.705.279 7.526.248 7.15.294m1.602 1.503a6.27 6.27 0 0 1 5.235 4.546c.276.988.284 2.192.022 3.217a6.26 6.26 0 0 1-3.898 4.302 5.865 5.865 0 0 1-2.108.364c-1.665-.002-3.124-.569-4.29-1.667-.592-.557-.972-1.06-1.309-1.732-.984-1.966-.901-4.185.229-6.079.347-.583 1.002-1.304 1.565-1.726a6.337 6.337 0 0 1 2.934-1.22c.309-.047 1.278-.049 1.62-.005m7.424 6.363c2.438.928 4.029 3.222 4.031 5.81.001 1.695-.589 3.172-1.742 4.358-1.218 1.254-2.765 1.912-4.495 1.912-2.653 0-4.976-1.64-5.884-4.153-.057-.157-.095-.294-.085-.304.01-.01.231-.033.491-.052.26-.019.593-.054.739-.078l.266-.044.532.521c.577.565.763.686 1.007.653.286-.038.616-.347.699-.655.064-.237-.014-.411-.334-.743l-.278-.29.38-.193c.383-.195.95-.555 1.257-.799l.164-.131.551.545c.302.299.605.572.673.607.347.176.841-.058 1.019-.484.138-.329.049-.499-.612-1.165-.301-.304-.548-.571-.548-.593 0-.022.024-.06.054-.084.105-.088.569-.804.775-1.197.115-.22.215-.406.222-.415.006-.008.123.093.259.224.297.286.441.366.656.366.366 0 .784-.413.784-.776 0-.222-.111-.38-.646-.919l-.532-.537.055-.381c.03-.21.066-.55.08-.757.018-.269.039-.376.073-.376.026 0 .201.059.389.13" fill-rule="evenodd" fill="#000"/></svg>