<svg width="24" height="24" fill="none" xmlns="http://www.w3.org/2000/svg"><path d="M7.5 5.282a6.595 6.595 0 0 0-2.213.54 6.776 6.776 0 0 0-3.847 4.5 7.358 7.358 0 0 0-.139 2.647A6.745 6.745 0 0 0 6.94 18.66c.48.078 1.461.087 1.94.02 1.001-.141 2.086-.555 2.842-1.085.122-.085.233-.155.247-.155.014 0 .173.099.353.219 1.499 1.003 3.525 1.332 5.338.866 1.591-.409 3.025-1.438 3.951-2.837.218-.329.56-1.014.702-1.408.272-.754.383-1.417.383-2.28 0-.864-.112-1.53-.384-2.28-.755-2.084-2.523-3.698-4.652-4.245a6.899 6.899 0 0 0-3.82.131 7.134 7.134 0 0 0-1.534.741 3.66 3.66 0 0 1-.34.213 1.83 1.83 0 0 1-.244-.155C10.572 5.599 8.994 5.18 7.5 5.282m1.6 1.59a5.143 5.143 0 0 1 2.52 1.385c.487.484.737.826 1.02 1.403.431.877.54 1.35.54 2.34 0 .99-.109 1.463-.54 2.34-.286.582-.535.923-1.028 1.408-.731.72-1.555 1.164-2.592 1.399-.245.056-.489.073-1.04.073-1.003 0-1.452-.101-2.322-.52-1.782-.859-2.938-2.709-2.938-4.7 0-2.556 1.844-4.729 4.4-5.183.456-.081 1.524-.051 1.98.055m8.08.022c.964.247 1.705.65 2.384 1.296a5.249 5.249 0 0 1 1.576 2.91c.084.47.084 1.33 0 1.8a5.288 5.288 0 0 1-2.86 3.805c-.722.351-1.296.493-2.123.523-.706.026-1.214-.044-1.833-.251-.403-.134-1.085-.462-1.166-.559-.026-.032.002-.096.087-.202.256-.317.645-.946.832-1.345.743-1.588.845-3.311.296-5.011-.21-.649-.692-1.536-1.128-2.076-.085-.106-.113-.17-.087-.202.081-.097.764-.425 1.167-.56.638-.213.984-.261 1.775-.244.567.012.746.031 1.08.116" fill-rule="evenodd" fill="#000"/></svg>