<svg width="24" height="24" fill="none" xmlns="http://www.w3.org/2000/svg"><path d="M8.458 1.283a5.814 5.814 0 0 0-2.272.613 4.674 4.674 0 0 0-1.327.963c-.966.966-1.466 2.134-1.578 3.686-.053.737-.053 10.173 0 10.91.068.951.246 1.633.615 2.359.278.547.529.894.963 1.327.966.966 2.134 1.466 3.686 1.578.721.052 6.189.052 6.91 0 .951-.068 1.633-.246 2.359-.615a4.674 4.674 0 0 0 1.327-.963c.966-.966 1.466-2.134 1.578-3.686.053-.737.053-10.173 0-10.91-.068-.951-.246-1.633-.615-2.359a4.674 4.674 0 0 0-.963-1.327c-.966-.966-2.134-1.466-3.686-1.578-.647-.047-6.344-.045-6.997.002M16.12 2.85c1.655.411 2.723 1.508 3.044 3.13.083.415.083 11.625 0 12.04-.328 1.654-1.49 2.816-3.144 3.144-.412.082-7.628.082-8.04 0-1.654-.328-2.816-1.49-3.144-3.144-.083-.415-.083-11.625 0-12.04C5.165 4.319 6.392 3.102 8 2.841c.165-.026.327-.054.36-.061.033-.007 1.734-.008 3.78-.003 3.269.007 3.752.016 3.98.073m-3.7 3.071c-.336.068-.571.22-.75.487-.23.343-.243.438-.267 2.078l-.023 1.506-1.17-1.073c-.643-.59-1.23-1.11-1.304-1.156a.638.638 0 0 0-.699.037c-.396.287-.508.721-.264 1.026.067.085.863.835 1.768 1.666l1.645 1.513-1.688 1.55c-.929.852-1.721 1.599-1.761 1.66-.18.274-.104.627.191.899.241.222.444.279.677.19.189-.072.205-.086 1.675-1.436l.95-.873.001 1.353c0 .743.017 1.464.037 1.602.102.708.548 1.14 1.182 1.146.465.004.686-.131 1.96-1.196.594-.496 1.146-.974 1.226-1.062a1.313 1.313 0 0 0 .154-1.566c-.071-.113-.563-.596-1.239-1.217-.618-.567-1.118-1.044-1.112-1.06.006-.017.389-.376.851-.798 1.52-1.387 1.638-1.527 1.687-2.003a1.527 1.527 0 0 0-.213-.877c-.119-.178-2.329-2.042-2.62-2.209-.301-.172-.628-.24-.894-.187m2.14 3.138c0 .009-.682.638-1.47 1.356l-.17.155V7.678l.82.685c.451.376.82.689.82.696m-.147 5.744.161.142-.736.618c-.405.339-.777.65-.827.69l-.091.073v-2.892l.666.613c.367.337.739.677.827.756" fill-rule="evenodd" fill="#000"/></svg>