<svg width="24" height="24" fill="none" xmlns="http://www.w3.org/2000/svg"><path d="M11.842 1.283c-.592.119-1.044.592-1.23 1.286-.059.222-.069.645-.089 3.698L10.5 9.715 7.84 7.274C6.377 5.932 5.1 4.778 5.002 4.709c-.343-.239-.723-.135-1.007.278-.156.228-.176.477-.053.687.043.073 1.54 1.474 3.328 3.113l3.25 2.98v.466l-3.25 2.98c-1.788 1.639-3.285 3.04-3.328 3.113-.123.21-.103.459.053.687.284.413.664.517 1.007.278.098-.069 1.375-1.223 2.838-2.565l2.66-2.441.023 3.448c.02 3.079.03 3.474.091 3.703.153.574.525 1.034.976 1.206.549.21 1.274.048 1.87-.417.695-.543 4.113-3.43 4.236-3.578a1.828 1.828 0 0 0-.064-2.374c-.095-.104-1.171-1.102-2.392-2.218-1.221-1.117-2.22-2.042-2.22-2.055 0-.013.999-.938 2.22-2.055 1.221-1.116 2.297-2.114 2.392-2.218a1.825 1.825 0 0 0 .064-2.374c-.124-.148-3.559-3.05-4.236-3.578-.497-.387-1.152-.587-1.618-.492m.51 1.554c.146.076 4.101 3.348 4.198 3.474.088.113.06.317-.06.444-.06.064-1.087 1.01-2.281 2.102l-2.171 1.986.011-3.991c.006-2.196.026-4.015.043-4.042.044-.068.086-.063.26.027M4.84 10.27a1.768 1.768 0 0 0-1.509 1.225 2.209 2.209 0 0 0 0 1.01c.116.387.378.727.742.963.282.183.552.258.927.258s.645-.075.927-.258c.532-.345.799-.836.799-1.468 0-.354-.072-.634-.227-.885a1.757 1.757 0 0 0-1.659-.845m14 0a1.768 1.768 0 0 0-1.509 1.225c-.033.113-.061.34-.061.505 0 .625.274 1.125.803 1.468.282.183.552.258.927.258s.645-.075.927-.258c.532-.345.799-.836.799-1.468 0-.354-.072-.634-.227-.885a1.757 1.757 0 0 0-1.659-.845M5.167 11.826c.152.138.045.414-.16.414a.243.243 0 0 1-.181-.407c.083-.091.244-.094.341-.007m14 0c.091.083.094.244.007.341-.138.152-.414.045-.414-.16 0-.214.248-.324.407-.181m-2.677 5.419c.12.127.148.331.06.444-.111.144-4.062 3.405-4.22 3.483-.136.067-.18.074-.22.034-.039-.039-.052-.916-.061-4.05l-.011-3.999 2.171 1.986a221.28 221.28 0 0 1 2.281 2.102" fill-rule="evenodd" fill="#000"/></svg>