<svg width="24" height="24" fill="none" xmlns="http://www.w3.org/2000/svg"><path d="M12.842 1.283c-.592.119-1.044.592-1.23 1.286-.059.222-.069.645-.089 3.698L11.5 9.715 8.82 7.254C7.346 5.901 6.068 4.747 5.98 4.69c-.33-.216-.711-.101-.985.297-.156.228-.176.477-.053.687.043.073 1.54 1.474 3.328 3.113l3.25 2.98v.466l-3.25 2.98c-1.788 1.639-3.285 3.04-3.328 3.113-.123.21-.103.459.053.687.284.413.664.517 1.007.278.098-.069 1.375-1.223 2.838-2.565l2.66-2.441.023 3.448c.02 3.053.03 3.476.089 3.698.191.712.641 1.171 1.263 1.288.403.076.957-.069 1.405-.369.35-.233 4.286-3.537 4.435-3.722.548-.679.511-1.707-.083-2.355-.095-.104-1.171-1.102-2.392-2.218-1.221-1.117-2.22-2.042-2.22-2.055 0-.013.999-.938 2.22-2.055 1.221-1.116 2.297-2.114 2.392-2.218a1.825 1.825 0 0 0 .064-2.374c-.124-.149-3.572-3.061-4.236-3.578-.498-.388-1.153-.587-1.618-.492m.51 1.554c.146.076 4.101 3.348 4.198 3.474.088.113.06.317-.06.444-.06.064-1.087 1.01-2.281 2.102l-2.171 1.986.011-3.991c.006-2.196.026-4.015.043-4.042.044-.068.086-.063.26.027m4.138 14.408c.12.127.148.331.06.444-.111.144-4.062 3.405-4.22 3.483-.136.067-.18.074-.22.034-.039-.039-.052-.916-.061-4.05l-.011-3.999 2.171 1.986a221.28 221.28 0 0 1 2.281 2.102" fill-rule="evenodd" fill="#000"/></svg>