<svg width="24" height="24" fill="none" xmlns="http://www.w3.org/2000/svg"><path d="M11.32 1.281c-4.279.244-8.068 3.128-9.477 7.216a10.886 10.886 0 0 0-.279 6.053 10.76 10.76 0 0 0 7.886 7.886 10.96 10.96 0 0 0 5.1 0 10.76 10.76 0 0 0 7.886-7.886 10.96 10.96 0 0 0 0-5.1 10.758 10.758 0 0 0-8.694-8.052c-.408-.067-1.668-.169-1.862-.151l-.56.034m1.826 1.541a9.086 9.086 0 0 1 2.914.874c2.817 1.383 4.708 4.026 5.118 7.158.123.932.066 2.172-.144 3.144-.289 1.345-1.031 2.857-1.913 3.902a9.31 9.31 0 0 1-3.061 2.404 8.94 8.94 0 0 1-4.06.936 8.93 8.93 0 0 1-4.06-.936c-2.817-1.383-4.708-4.026-5.118-7.158-.123-.932-.066-2.172.144-3.144.211-.982.737-2.227 1.302-3.082a9.335 9.335 0 0 1 6.552-4.097c.56-.077 1.749-.077 2.326-.001m-.726 3.099c-.336.068-.571.22-.75.487-.23.343-.243.438-.267 2.078l-.023 1.506-1.17-1.073c-.643-.59-1.23-1.11-1.304-1.156a.638.638 0 0 0-.699.037c-.396.287-.508.721-.264 1.026.067.085.863.835 1.768 1.666l1.645 1.513-1.688 1.55c-.929.852-1.721 1.599-1.761 1.66-.18.274-.104.627.191.899.241.222.444.279.677.19.189-.072.205-.086 1.675-1.436l.95-.873.001 1.353c0 .743.017 1.464.037 1.602.102.708.548 1.14 1.182 1.146.465.004.686-.131 1.96-1.196.594-.496 1.146-.974 1.226-1.062a1.313 1.313 0 0 0 .154-1.566c-.071-.113-.563-.596-1.239-1.217-.618-.567-1.118-1.044-1.112-1.06.006-.017.389-.376.851-.798 1.52-1.387 1.638-1.527 1.687-2.003a1.527 1.527 0 0 0-.213-.877c-.119-.178-2.329-2.042-2.62-2.209-.301-.172-.628-.24-.894-.187m2.14 3.138c0 .009-.682.638-1.47 1.356l-.17.155V7.678l.82.685c.451.376.82.689.82.696m-.147 5.744.161.142-.736.618c-.405.339-.777.65-.827.69l-.091.073v-2.892l.666.613c.367.337.739.677.827.756" fill-rule="evenodd" fill="#000"/></svg>