<svg width="24" height="24" fill="none" xmlns="http://www.w3.org/2000/svg"><path d="M11.62 1.297c-.345.086-.557.215-1.188.721-1.69 1.355-3.096 2.766-4.287 4.301a22.076 22.076 0 0 0-1.506 2.279c-1.762 3.198-1.945 6.44-.523 9.273a8.9 8.9 0 0 0 5.807 4.623c.981.239 2.346.309 3.297.169 2.513-.372 4.69-1.722 6.095-3.78a8.668 8.668 0 0 0 1.525-4.977c0-1.367-.263-2.601-.849-3.986-.895-2.114-2.705-4.547-4.891-6.574a32.284 32.284 0 0 0-1.95-1.657c-.526-.4-1.008-.523-1.53-.392m-.402 19.898c-.041.041-.875-.122-1.338-.261a9.134 9.134 0 0 1-1.695-.762c-.665-.4-1.504-1.159-2-1.81-1.333-1.75-1.808-3.873-1.362-6.08.305-1.507 1.137-3.227 2.332-4.816.913-1.216 2.181-2.561 3.406-3.612l.659-.566.01 8.942c.006 4.919 0 8.953-.012 8.965m1.935-17.581c.824.699 2.103 1.953 2.581 2.53l.103.124-.589.281c-.323.155-1.016.49-1.538.744l-.95.463V5.538c0-1.22.01-2.218.023-2.218s.179.132.37.294m3.962 4.256c.381.535.835 1.272 1.077 1.75.111.22.199.402.195.406-.004.003-1.258.613-2.787 1.354a853.146 853.146 0 0 0-2.81 1.367c-.017.01-.03-.735-.03-1.655V9.419l1.99-.968c1.095-.533 2.012-.97 2.038-.97.027-.001.174.174.327.389m1.978 4.03c.058.22.133.562.168.76.071.398.126 1.569.084 1.783l-.027.137-2.829 1.371-3.279 1.588-.45.217v-1.668l.001-1.668 3.089-1.502c1.879-.914 3.1-1.486 3.115-1.46.014.023.071.222.128.442m-.231 4.67c-.436 1.042-.908 1.755-1.661 2.511-.931.934-2.003 1.566-3.227 1.901-.379.104-.967.218-1.124.218h-.09v-.89l.001-.89 3.049-1.486a362.576 362.576 0 0 1 3.078-1.49c.015-.002.003.054-.026.126" fill-rule="evenodd" fill="#000"/></svg>