<svg width="24" height="24" fill="none" xmlns="http://www.w3.org/2000/svg"><path d="M3.38 1.976c-.926.214-1.713.922-1.984 1.784a3.94 3.94 0 0 0-.12.64c-.024.233-.034 2.78-.026 6.58.012 5.849.017 6.214.085 6.44.26.862.935 1.601 1.735 1.9.119.045.555.134.968.199 1.24.193 2.335.473 3.83.978 1.098.371 1.797.654 2.732 1.106.451.217.918.416 1.039.441.128.027.342.036.52.021.276-.023.37-.059 1.121-.421 2.152-1.037 4.678-1.839 6.743-2.14.375-.055.782-.137.903-.182.803-.3 1.478-1.041 1.739-1.905.068-.222.073-.617.085-6.437.009-4.172 0-6.329-.028-6.595-.073-.675-.276-1.126-.721-1.601-.63-.673-1.447-.942-2.501-.825-2.169.242-5.149 1.245-7.058 2.377-.208.123-.405.224-.438.224-.034 0-.278-.125-.544-.279-1.367-.787-3.129-1.483-4.907-1.938-1.357-.346-2.626-.493-3.173-.367m1 1.466c1.971.232 4.677 1.151 6.41 2.179l.45.266v14.348l-.49-.223c-1.906-.866-4.538-1.669-6.401-1.954-.777-.119-.959-.192-1.248-.504-.372-.402-.341.228-.341-6.881 0-6.018.003-6.28.074-6.468.145-.381.472-.667.87-.76.214-.051.265-.051.676-.003m15.918.019c.24.039.432.154.633.377.335.373.309-.2.309 6.842 0 7.081.029 6.47-.331 6.864-.281.308-.476.396-1.051.475-1.919.265-4.672 1.093-6.655 2.002a5.508 5.508 0 0 1-.417.179c-.014 0-.026-3.22-.026-7.156V5.888l.37-.22c.425-.252 1.044-.588 1.083-.588.015 0 .027.68.027 1.51 0 .915.017 1.569.042 1.659.117.42.621.646 1.003.449.074-.039.481-.302.904-.584.423-.283.788-.514.811-.514.023 0 .388.231.811.514.423.282.83.545.904.584.382.197.886-.029 1.003-.449.026-.095.042-.999.042-2.476V3.446l.09-.018c.093-.018.175-.012.448.033m-2.074 3.088c-.01.01-.176-.089-.371-.22-.808-.543-.897-.544-1.701-.003a4.205 4.205 0 0 1-.371.234c-.012 0-.018-.481-.012-1.07l.011-1.07.64-.215c.352-.117.901-.281 1.22-.363l.58-.149.011 1.42c.005.78.002 1.427-.007 1.436" fill-rule="evenodd" fill="#000"/></svg>