<svg width="24" height="24" fill="none" xmlns="http://www.w3.org/2000/svg"><path d="M9.66 1.265c-1.509.105-2.494.703-3.024 1.835-.141.3-.292.822-.324 1.115-.011.107-.032.12-.312.19-1.216.304-2.122.792-2.882 1.553-.758.758-1.196 1.572-1.517 2.82-.294 1.139-.382 2.489-.349 5.362.023 1.962.065 2.592.231 3.429.523 2.647 1.977 4.225 4.467 4.847.464.116.975.201 1.63.272.685.074 8.103.074 8.82 0 2.097-.216 3.404-.739 4.465-1.788.844-.833 1.367-1.888 1.652-3.331.165-.832.208-1.468.231-3.429.033-2.858-.053-4.189-.346-5.347-.13-.515-.348-1.126-.53-1.488a5.378 5.378 0 0 0-2.308-2.319c-.529-.275-.954-.43-1.714-.625-.149-.039-.17-.058-.17-.155 0-.191-.163-.773-.3-1.073-.456-.993-1.204-1.549-2.42-1.799-.247-.051-.724-.064-2.7-.073-1.32-.005-2.49-.004-2.6.004m5.113 1.554c.799.169 1.241.623 1.405 1.441.057.284.063.781.053 4.38-.011 3.955-.013 4.065-.091 4.254-.263.64-.819.785-1.593.415a16.681 16.681 0 0 1-1.017-.58c-.883-.535-1.022-.589-1.53-.589s-.647.054-1.53.589c-.401.244-.859.505-1.017.58-.774.37-1.33.225-1.593-.415-.078-.189-.08-.299-.091-4.254-.01-3.599-.004-4.096.053-4.38.162-.809.606-1.269 1.386-1.439.38-.082 5.177-.084 5.565-.002M6.24 8.95c0 1.85.017 3.253.043 3.53.11 1.195.653 2.015 1.576 2.379.215.085.37.115.68.131.785.04 1.298-.138 2.498-.866.638-.386.854-.498.963-.498.109 0 .327.113.976.506 1.193.723 1.699.898 2.485.858 1.262-.064 2.118-1.017 2.256-2.51.026-.277.043-1.68.043-3.53 0-1.689.009-3.07.02-3.07.047 0 .7.241.917.339.562.253 1.174.751 1.523 1.241.452.635.759 1.52.929 2.675.063.429.071.808.071 3.285 0 2.493-.008 2.853-.072 3.28-.425 2.831-1.613 4.029-4.408 4.448-.439.066-.845.072-4.74.072-3.895 0-4.301-.006-4.74-.072-1.482-.222-2.463-.655-3.159-1.395-.648-.688-1.037-1.639-1.249-3.053-.064-.427-.072-.786-.072-3.26 0-2.913.01-3.128.187-3.96.242-1.14.634-1.925 1.259-2.522.332-.318.553-.472.985-.687.281-.139.904-.382.999-.389.016-.001.03 1.379.03 3.068" fill-rule="evenodd" fill="#000"/></svg>