<svg width="24" height="24" fill="none" xmlns="http://www.w3.org/2000/svg"><path d="M8.08 1.282c-4.072.213-6.185 2.014-6.697 5.709-.113.812-.141 1.825-.141 5.009 0 4.504.06 5.273.518 6.65.772 2.313 2.446 3.576 5.267 3.972.759.106 1.875.137 4.973.137s4.214-.031 4.973-.137c2.47-.347 4.023-1.334 4.924-3.132.482-.96.741-2.121.823-3.683.051-.969.051-6.645 0-7.614-.063-1.195-.199-2.002-.478-2.837-.61-1.825-1.773-2.989-3.592-3.596-.862-.287-1.627-.416-2.844-.48-.854-.045-6.854-.043-7.726.002m8.72 1.572c2.786.462 3.914 1.6 4.348 4.386.066.421.072.824.072 4.76s-.006 4.339-.072 4.76c-.436 2.798-1.59 3.952-4.388 4.388-.421.066-.824.072-4.76.072s-4.339-.006-4.76-.072c-2.79-.435-3.957-1.597-4.386-4.368-.069-.445-.074-.791-.074-4.78 0-4.753-.004-4.663.264-5.712C3.557 4.282 4.722 3.274 6.96 2.9c.73-.123 1.088-.131 5.24-.123 3.763.007 4.222.014 4.6.077M6.442 5.587c-.613.132-1.223.67-1.455 1.282L4.9 7.1l-.011 4.179c-.007 2.818.003 4.246.031 4.383.1.479.439.985.844 1.261.317.215.541.291 1.171.395 1.27.211 2.796.703 4.06 1.308.902.433 1.043.433 1.965-.003a16.052 16.052 0 0 1 4.16-1.318c.632-.11.771-.156 1.096-.364.385-.246.717-.72.843-1.203.091-.349.092-8.322.001-8.67-.255-.982-1.132-1.58-2.187-1.492-1.372.114-3.302.745-4.683 1.529l-.19.108-.19-.109c-1.411-.813-3.518-1.483-4.79-1.524a4.58 4.58 0 0 0-.578.007M7.73 7.164c1.028.205 2.286.655 3.1 1.107l.41.227v4.295c0 3.422-.01 4.291-.05 4.273-1.06-.483-2.771-1.01-3.857-1.187-.627-.103-.709-.133-.845-.312l-.108-.141-.01-3.983c-.01-3.733-.006-3.992.06-4.123a.555.555 0 0 1 .21-.212c.165-.085.458-.07 1.09.056m9.579-.062a.63.63 0 0 1 .231.17c.079.106.08.179.09 4.088.01 3.729.006 3.989-.06 4.117-.115.226-.224.275-.85.384a18.535 18.535 0 0 0-3.468 1 6.147 6.147 0 0 1-.462.179c-.017 0-.03-1.922-.03-4.27l.001-4.27.289-.165c.907-.515 2.503-1.066 3.57-1.231.476-.074.513-.074.689-.002" fill-rule="evenodd" fill="#000"/></svg>