<svg width="24" height="24" fill="none" xmlns="http://www.w3.org/2000/svg"><path d="M7.862 1.282c-3.67.259-5.714 1.861-6.364 4.99C1.264 7.4 1.26 7.491 1.26 12c0 4.509.004 4.6.238 5.728.549 2.643 2.131 4.225 4.774 4.774 1.128.234 1.219.238 5.728.238 4.509 0 4.6-.004 5.728-.238 2.643-.549 4.225-2.131 4.774-4.774.234-1.128.238-1.219.238-5.728 0-4.509-.004-4.6-.238-5.728-.549-2.643-2.134-4.228-4.776-4.774-1.098-.227-1.141-.229-5.426-.239-2.178-.006-4.175.005-4.438.023m8.109 1.504.271.026-.011 5.084-.011 5.084-.096.24c-.131.33-.336.52-.623.58-.418.086-.76-.04-1.838-.679-.48-.285-.966-.55-1.078-.59-.301-.104-.933-.095-1.218.019-.117.046-.577.301-1.022.566-.937.558-1.249.691-1.626.693-.441.003-.679-.175-.867-.649-.068-.169-.073-.489-.083-5.268l-.011-5.088.191-.015c.339-.026 7.742-.029 8.022-.003M6.251 8.05c.014 5.602-.006 5.24.328 5.93.214.444.52.791.889 1.01.435.259.637.31 1.212.31.815 0 1.19-.137 2.454-.897.53-.318.774-.443.866-.443.091 0 .334.124.854.435 1.269.761 1.577.882 2.326.914.788.033 1.254-.14 1.767-.654.228-.228.326-.367.468-.662.341-.706.32-.331.334-5.943.011-4.211.022-4.97.069-4.97.092 0 .745.241 1.002.369a3.75 3.75 0 0 1 1.086.805c.735.778 1.141 1.905 1.292 3.586.056.615.056 7.705 0 8.32-.113 1.253-.359 2.162-.8 2.943-.245.436-.859 1.05-1.295 1.295-.781.441-1.69.687-2.943.8-.615.056-7.705.056-8.32 0-1.253-.113-2.162-.359-2.943-.8-.436-.245-1.05-.859-1.295-1.295-.441-.781-.687-1.69-.8-2.943-.056-.615-.056-7.705 0-8.32.209-2.322.928-3.659 2.358-4.382.258-.13.909-.373 1.009-.376.064-.002.069.298.082 4.968" fill-rule="evenodd" fill="#000"/></svg>