<svg width="24" height="24" fill="none" xmlns="http://www.w3.org/2000/svg"><path d="M7.496 1.283c-1.764.096-2.834.475-3.583 1.269-.569.604-.878 1.351-1.06 2.568-.062.418-.07 1.069-.082 7.095-.015 7.169-.02 6.962.193 7.595.502 1.487 1.671 2.52 3.236 2.857.32.069.659.073 5.8.073s5.48-.004 5.8-.073c1.565-.337 2.734-1.37 3.236-2.857.213-.633.208-.426.193-7.596-.012-6.02-.02-6.677-.082-7.094-.179-1.199-.489-1.958-1.038-2.545-.777-.831-1.799-1.189-3.697-1.294-.822-.046-8.074-.044-8.916.002m9.844 1.569c1.72.311 2.229.973 2.38 3.088.022.312.039 2.273.04 4.43v3.87h-6.676c-4.419 0-6.816.014-7.09.042a3.742 3.742 0 0 0-1.443.458l-.291.171-.012-4.146c-.014-4.885.013-5.511.274-6.322.318-.982.985-1.449 2.287-1.6l.491-.058c.066-.008 2.271-.011 4.9-.006 4.216.007 4.822.016 5.14.073M7.787 6.278c-.342.068-.519.314-.519.722 0 .462.207.693.663.739.137.014 2.067.02 4.289.013 3.957-.012 4.043-.014 4.176-.092a.646.646 0 0 0 .327-.475c.069-.367-.054-.684-.327-.845-.133-.079-.213-.08-4.296-.086-2.288-.003-4.229.008-4.313.024M7.599 9.85c-.25.127-.332.288-.332.65 0 .362.082.523.332.65l.178.09h5.446l.178-.09c.25-.127.328-.281.328-.65s-.078-.523-.328-.65l-.178-.09H7.777l-.178.09m12.151 7.54-.013 1.63-.117.339c-.299.87-1.058 1.581-1.924 1.802-.3.077-.465.079-5.696.079s-5.396-.002-5.696-.079c-.868-.222-1.633-.939-1.921-1.802-.094-.284-.116-.427-.133-.879-.039-1.062.11-1.59.585-2.072.273-.277.519-.432.885-.557l.26-.089 6.891-.001 6.892-.001-.013 1.63" fill-rule="evenodd" fill="#000"/></svg>