<svg width="24" height="24" fill="none" xmlns="http://www.w3.org/2000/svg"><path d="M3.38 1.976c-.926.214-1.714.923-1.984 1.784a4.129 4.129 0 0 0-.12.6c-.023.209-.033 2.744-.026 6.58.012 5.888.017 6.254.085 6.48.26.862.935 1.601 1.735 1.9.119.045.555.134.968.199 1.24.193 2.335.473 3.83.978 1.103.373 1.8.655 2.736 1.109.914.442 1.142.507 1.609.457.226-.025.376-.081.88-.331 2.156-1.068 4.794-1.916 6.93-2.228.375-.055.782-.137.903-.182.803-.3 1.478-1.041 1.739-1.905.068-.222.073-.617.085-6.437.009-4.172 0-6.329-.028-6.595-.049-.453-.176-.854-.367-1.156-.335-.528-.915-.986-1.49-1.176-.658-.217-1.816-.12-3.405.287-1.915.491-3.747 1.223-5.077 2.028-.174.106-.344.192-.378.192-.034 0-.279-.125-.545-.279-1.367-.787-3.129-1.483-4.907-1.938-1.357-.346-2.626-.493-3.173-.367m1 1.466c1.968.231 4.679 1.153 6.41 2.179l.45.266v14.348l-.49-.223c-1.913-.869-4.511-1.662-6.41-1.956-.386-.06-.753-.14-.85-.185-.232-.109-.585-.498-.665-.735-.059-.172-.065-.789-.065-6.463 0-6.018.003-6.28.074-6.468.145-.381.472-.667.87-.76.214-.051.265-.051.676-.003m15.918.019c.24.039.432.154.633.377.335.373.309-.2.309 6.842 0 7.107.032 6.471-.345 6.879-.28.302-.457.38-1.038.46-1.926.266-4.663 1.089-6.654 2.002a5.508 5.508 0 0 1-.417.179c-.014 0-.026-3.22-.026-7.156V5.887l.475-.284c1.497-.895 4.007-1.789 5.845-2.081.743-.118.845-.123 1.218-.061M5.067 7.844c-.224.118-.323.361-.297.726.022.311.094.44.314.57.129.076.208.08 1.563.08 1.379 0 1.431-.003 1.538-.082.234-.175.275-.274.275-.658 0-.401-.057-.525-.303-.65-.123-.063-.281-.07-1.537-.068-1.327.001-1.408.006-1.553.082m0 3c-.224.118-.323.361-.297.726.022.311.094.44.314.57.131.077.208.08 1.916.08s1.785-.003 1.916-.08c.221-.13.292-.259.314-.573.026-.363-.079-.609-.313-.728-.146-.075-.241-.079-1.925-.077-1.7.001-1.778.005-1.925.082" fill-rule="evenodd" fill="#000"/></svg>