<svg width="24" height="24" fill="none" xmlns="http://www.w3.org/2000/svg"><path d="M11.434 1.283c-.484.04-.996.161-1.412.332-.476.196-5.963 3.256-6.316 3.522-.767.577-1.528 1.688-1.838 2.683-.215.69-.208.559-.208 4.18 0 3.621-.007 3.49.208 4.18.31.995 1.071 2.106 1.838 2.683.32.241 5.796 3.303 6.272 3.506 1.151.494 2.886.491 4.062-.006.555-.235.8-.471.8-.77 0-.286-.213-.656-.449-.778-.194-.1-.396-.075-.78.096a4.533 4.533 0 0 1-.551.207c-.11.027-.222.056-.25.065-.04.011-.05-.827-.05-4.098v-4.113l3.985-2.308c2.191-1.269 3.989-2.303 3.995-2.296.006.007.034.111.063.232.038.16.058.812.075 2.407.021 2.131.024 2.19.105 2.3.142.194.317.259.664.245.33-.013.447-.068.611-.287.08-.108.082-.161.093-2.205.013-2.325-.006-2.594-.232-3.272-.348-1.041-1.058-2.074-1.823-2.65-.32-.24-5.8-3.304-6.274-3.507-.416-.179-.965-.304-1.529-.35a8.685 8.685 0 0 0-.589-.035l-.47.037M13 2.861c.143.039.35.11.461.158.2.088 5.221 2.859 5.679 3.134.222.134.9.77.9.844 0 .018-1.809 1.081-4.02 2.361L12 11.687 8.01 9.379a510.841 510.841 0 0 1-4.026-2.341c-.048-.046.35-.498.623-.708.216-.165 5.451-3.09 5.893-3.291a3.27 3.27 0 0 1 .52-.173l.36-.083c.199-.046 1.368.01 1.62.078m-5.726 7.815 3.966 2.297v8.218l-.158-.035a3.406 3.406 0 0 1-.69-.241c-.442-.224-5.594-3.098-5.712-3.186-.782-.583-1.416-1.698-1.522-2.675-.065-.603-.031-6.162.04-6.465.029-.128.066-.227.082-.22.015.006 1.813 1.044 3.994 2.307m11.506 3.608a3.91 3.91 0 0 0-2.362 1.134c-1.341 1.341-1.534 3.387-.472 5.012.193.296.728.831 1.024 1.024 1.308.855 2.965.907 4.242.133l.193-.117.629.621c.699.691.807.755 1.131.668.221-.06.534-.373.594-.594.087-.324.023-.432-.668-1.131l-.621-.629.117-.193c.545-.899.692-2.075.391-3.115a3.78 3.78 0 0 0-.996-1.679c-.665-.664-1.461-1.037-2.425-1.136a6.737 6.737 0 0 0-.431-.037c-.014.003-.17.021-.346.039m1.016 1.537c.409.097.785.316 1.126.657.496.497.717 1.026.717 1.722s-.221 1.225-.717 1.722c-.497.496-1.026.717-1.722.717s-1.225-.221-1.722-.717c-.496-.497-.717-1.026-.717-1.722s.221-1.225.717-1.722c.334-.334.717-.56 1.108-.655a3.303 3.303 0 0 1 1.21-.002" fill-rule="evenodd" fill="#000"/></svg>