<svg width="24" height="24" fill="none" xmlns="http://www.w3.org/2000/svg"><path d="M11.41 1.282a5.039 5.039 0 0 0-1.388.333c-.474.196-5.965 3.258-6.318 3.523-.87.655-1.603 1.797-1.937 3.019l-.105.383-.013 3.243c-.014 3.581-.007 3.712.231 4.424.353 1.053 1.141 2.17 1.92 2.721.327.231 5.873 3.316 6.21 3.454.533.219.995.303 1.776.327.974.029 1.599-.067 2.259-.349.328-.139 5.563-3.047 6.032-3.349.955-.618 1.832-1.903 2.173-3.187.084-.317.087-.396.1-3.656.012-2.898.005-3.38-.05-3.699-.178-1.032-.755-2.125-1.538-2.913a5.439 5.439 0 0 0-.622-.544c-.25-.166-5.359-3.02-5.843-3.263-.76-.382-1.881-.564-2.887-.467m1.61 1.578c.132.037.33.105.44.151.244.103 5.419 2.97 5.771 3.198.228.147.809.715.809.79 0 .017-1.809 1.079-4.02 2.359L12 11.687 8.01 9.379a510.841 510.841 0 0 1-4.026-2.341c-.048-.046.35-.498.623-.708.216-.165 5.451-3.09 5.893-3.291a3.27 3.27 0 0 1 .52-.173l.36-.083c.192-.045 1.406.012 1.64.077m-5.746 7.816 3.966 2.297v8.197l-.165-.026a3.019 3.019 0 0 1-.45-.137c-.282-.11-5.576-3.035-5.885-3.251-.696-.489-1.31-1.424-1.532-2.336-.061-.252-.068-.595-.068-3.4 0-2.484.011-3.175.055-3.392.03-.149.068-.266.084-.26.016.007 1.814 1.045 3.995 2.308M20.807 8.59c.08.347.077 6.44-.003 6.81-.073.335-.308.886-.552 1.289-.213.353-.688.867-.986 1.069-.107.073-1.435.821-2.951 1.664-2.644 1.47-3.179 1.738-3.465 1.738h-.09v-8.188l3.97-2.303a449.06 449.06 0 0 1 3.997-2.306c.015-.002.051.1.08.227" fill-rule="evenodd" fill="#000"/></svg>