<svg width="24" height="24" fill="none" xmlns="http://www.w3.org/2000/svg"><path d="M11.78 1.295c-.088.029-.684.315-1.325.637-1.242.625-1.384.725-1.438 1.011-.05.268.121.632.38.806l.135.091h2.476c2.382 0 2.481-.003 2.629-.079.199-.101.323-.345.323-.635 0-.272-.115-.497-.322-.628-.321-.202-2.422-1.217-2.558-1.236a.794.794 0 0 0-.3.033M4.055 5.124c-.635.31-1.236.604-1.335.654-.144.072-.201.133-.284.306l-.104.216.024 1.6c.023 1.504.029 1.608.104 1.736.13.221.259.292.573.314.363.026.609-.079.728-.313.072-.139.079-.238.079-1.055 0-.517.016-.902.037-.902.02 0 .329.144.688.32.722.354.877.387 1.13.237.264-.155.463-.627.386-.913-.057-.214-.227-.351-.777-.629-.255-.129-.464-.244-.464-.255 0-.011.209-.126.464-.255.55-.278.72-.415.777-.629.076-.281-.121-.755-.379-.915-.271-.167-.382-.134-1.647.483m14.237-.481c-.255.164-.448.635-.373.913.057.214.227.351.777.629.255.129.464.244.464.255 0 .011-.209.126-.464.255-.55.278-.72.415-.777.629-.076.281.121.755.379.915.245.151.414.116 1.137-.239a9.91 9.91 0 0 1 .688-.32c.021 0 .037.385.037.902 0 .831.006.914.083 1.063.118.232.355.332.727.305.311-.022.44-.094.57-.314.075-.128.081-.232.104-1.736l.024-1.6-.104-.216c-.083-.173-.14-.234-.284-.306-.099-.05-.702-.344-1.34-.655-1.27-.618-1.381-.651-1.648-.48M9.453 9.076c-.298.138-.53.682-.413.965.091.218.268.335 1.235.817l.959.478.013 1.302c.012 1.217.018 1.311.093 1.438.148.251.262.304.66.304s.512-.053.66-.304c.075-.127.081-.221.093-1.438l.013-1.302.959-.478c.528-.263 1.01-.528 1.072-.588.244-.238.257-.523.039-.904-.148-.26-.388-.39-.642-.35-.086.014-.615.254-1.175.534L12 10.059l-1.022-.51c-1.12-.56-1.253-.601-1.525-.473m-6.68 5.008c-.156.045-.316.23-.371.427-.058.209-.056 3.039.003 3.271.03.119.091.219.184.301.077.067.679.391 1.338.72 1.062.529 1.22.597 1.397.597.24 0 .457-.102.626-.295.149-.169.188-.328.133-.533-.045-.169-2.221-4.025-2.399-4.252a.898.898 0 0 0-.247-.21c-.148-.075-.452-.087-.664-.026m17.719.031a.504.504 0 0 0-.25.24c-.078.153-.082.229-.082 1.443v1.28l-.961.483c-.529.266-1.024.538-1.1.605-.253.222-.264.546-.032.943.129.219.312.331.543.331.153 0 .372-.095 1.42-.616.681-.339 1.303-.673 1.382-.742.222-.195.236-.322.221-2.062-.012-1.435-.017-1.528-.093-1.656-.134-.227-.259-.294-.587-.311-.231-.013-.328 0-.461.062m-8.893 4.455c-.317.161-.337.232-.353 1.28-.007.501-.019.91-.026.91-.007 0-.306-.144-.665-.32-.72-.354-.898-.391-1.143-.242-.144.088-.358.431-.397.636a.626.626 0 0 0 .208.564c.079.068.623.366 1.21.661.587.295 1.121.573 1.187.618.091.062.184.082.38.082s.289-.02.38-.082c.066-.045.6-.323 1.187-.618.587-.295 1.13-.592 1.208-.66.262-.23.282-.527.061-.913-.146-.256-.313-.366-.558-.366-.146 0-.308.062-.833.32-.359.176-.657.32-.664.32-.007 0-.019-.409-.027-.91-.013-.825-.022-.923-.095-1.05-.111-.193-.373-.32-.659-.32a.86.86 0 0 0-.401.09" fill-rule="evenodd" fill="#000"/></svg>