<svg width="24" height="24" fill="none" xmlns="http://www.w3.org/2000/svg"><path d="M11.434 1.283c-.484.04-.996.161-1.412.332-.484.2-5.994 3.273-6.333 3.532-.761.582-1.514 1.688-1.821 2.673-.215.69-.208.559-.208 4.18 0 3.621-.007 3.49.208 4.18.31.995 1.071 2.106 1.836 2.682.32.24 5.8 3.304 6.274 3.507 1.163.499 2.929.49 4.089-.021.172-.076.619-.309.993-.519l.68-.382.16.136a5.278 5.278 0 0 0 1.656.933c.625.204 1.527.271 2.224.165 1.476-.225 2.809-1.238 3.503-2.661.804-1.65.513-3.747-.713-5.137l-.21-.238v-2.852c0-3.141-.011-3.314-.241-4.005-.348-1.041-1.058-2.074-1.823-2.65-.32-.24-5.8-3.304-6.274-3.507-.416-.179-.965-.304-1.529-.35a8.685 8.685 0 0 0-.589-.035l-.47.037M13 2.861c.143.039.35.11.461.158.2.088 5.221 2.859 5.679 3.134.222.134.9.77.9.844 0 .018-1.809 1.081-4.02 2.361L12 11.687 8.01 9.379a510.841 510.841 0 0 1-4.026-2.341c-.048-.046.35-.498.623-.708.216-.165 5.451-3.09 5.893-3.291a3.27 3.27 0 0 1 .52-.173l.36-.083c.199-.046 1.368.01 1.62.078m-5.726 7.815 3.966 2.297v8.218l-.158-.035a3.406 3.406 0 0 1-.69-.241c-.648-.328-5.618-3.117-5.785-3.245-.739-.568-1.346-1.665-1.449-2.616-.065-.603-.031-6.162.04-6.465.029-.128.066-.227.082-.22.015.006 1.813 1.044 3.994 2.307M20.802 8.59c.04.174.057.815.068 2.62.008 1.315.003 2.39-.013 2.39-.015 0-.149-.044-.298-.098-.898-.324-2.088-.333-3.037-.023-1.606.525-2.868 1.952-3.178 3.596a4.71 4.71 0 0 0 .302 2.822c.118.272.142.366.104.391-.027.017-.329.184-.67.369-.6.325-.831.425-1.162.499l-.158.035V12.972l3.97-2.303a520.011 520.011 0 0 1 3.994-2.306c.014-.002.049.1.078.227m-.982 6.268c1.165.315 2.117 1.307 2.36 2.46a3.735 3.735 0 0 1-.02 1.422 4.443 4.443 0 0 1-.288.74 2.358 2.358 0 0 1-.551.765c-.73.739-1.469 1.032-2.487.986-.977-.044-1.813-.49-2.422-1.291a3.243 3.243 0 0 1 1.948-5.122c.332-.071 1.131-.049 1.46.04m-1.033.94a.65.65 0 0 0-.443.321c-.06.102-.081.234-.096.622l-.019.491-.531.014c-.466.012-.546.025-.645.098-.197.147-.273.324-.273.636s.076.489.273.636c.099.073.179.086.645.098l.532.014.018.53c.019.579.063.712.285.878.095.071.169.084.467.084.298 0 .372-.013.467-.084.222-.166.266-.299.285-.878l.018-.53.532-.014c.466-.012.546-.025.645-.098.197-.147.273-.324.273-.636s-.076-.489-.273-.636c-.099-.074-.179-.086-.65-.098l-.537-.014-.002-.366c-.003-.617-.081-.844-.342-.992-.144-.081-.427-.115-.629-.076" fill-rule="evenodd" fill="#000"/></svg>