<svg width="24" height="24" fill="none" xmlns="http://www.w3.org/2000/svg"><path d="M11.434 1.283c-.484.04-.996.161-1.412.332-.484.2-5.994 3.273-6.333 3.532-.761.582-1.514 1.688-1.821 2.673-.215.69-.208.559-.208 4.18 0 3.621-.007 3.49.208 4.18.31.995 1.071 2.106 1.836 2.682.32.24 5.8 3.304 6.274 3.507 1.163.499 2.929.49 4.089-.021.172-.076.619-.31.993-.52l.68-.382.12.112c.342.319.972.695 1.501.893.961.362 2.212.376 3.199.036 1.136-.391 2.209-1.363 2.722-2.464.321-.689.446-1.261.445-2.041a4.475 4.475 0 0 0-.539-2.201c-.174-.333-.542-.853-.722-1.018l-.106-.097v-2.863c0-3.152-.011-3.324-.241-4.015-.348-1.041-1.058-2.074-1.823-2.65-.32-.24-5.8-3.304-6.274-3.507-.416-.179-.965-.304-1.529-.35a8.685 8.685 0 0 0-.589-.035l-.47.037M13 2.861c.143.039.35.11.461.158.2.088 5.221 2.859 5.679 3.134.222.134.9.77.9.844 0 .018-1.809 1.081-4.02 2.361L12 11.687 8.01 9.379a510.841 510.841 0 0 1-4.026-2.341c-.048-.046.35-.498.623-.708.216-.165 5.451-3.09 5.893-3.291a3.27 3.27 0 0 1 .52-.173l.36-.083c.199-.046 1.368.01 1.62.078m-5.726 7.815 3.966 2.297v8.218l-.158-.035a3.406 3.406 0 0 1-.69-.241c-.648-.328-5.618-3.117-5.785-3.245-.739-.568-1.346-1.665-1.449-2.616-.065-.603-.031-6.162.04-6.465.029-.128.066-.227.082-.22.015.006 1.813 1.044 3.994 2.307M20.802 8.59c.063.272.108 5.01.048 5.01-.02 0-.161-.043-.313-.097a4.861 4.861 0 0 0-3.015-.024c-1.606.525-2.868 1.952-3.178 3.596a4.75 4.75 0 0 0 .319 2.863c.105.241.125.325.087.35-.027.018-.329.184-.67.369-.6.325-.831.425-1.162.499l-.158.035V12.972l3.97-2.303a520.011 520.011 0 0 1 3.994-2.306c.014-.002.049.1.078.227m-.791 6.331a3.348 3.348 0 0 1 2.094 2.099c.139.428.175 1.138.08 1.605-.133.659-.411 1.169-.901 1.657-.513.51-1.06.804-1.71.919-.439.077-1.157.033-1.554-.096-1.041-.339-1.876-1.227-2.168-2.305-.099-.364-.097-1.239.002-1.6a3.298 3.298 0 0 1 1.703-2.099c.524-.264.904-.343 1.563-.325.435.013.551.032.891.145m-1.066 1.118a.677.677 0 0 0-.215.129c-.182.167-.21.301-.21.985 0 .555-.009.642-.07.695-.038.033-.271.18-.516.326-.245.146-.502.33-.57.408-.227.258-.152.7.172 1.014a.573.573 0 0 0 .561.155c.188-.041 1.559-.857 1.709-1.018.179-.19.201-.351.187-1.353-.012-.84-.02-.932-.094-1.059a.721.721 0 0 0-.212-.214c-.149-.087-.564-.125-.742-.068" fill-rule="evenodd" fill="#000"/></svg>