<svg width="24" height="24" fill="none" xmlns="http://www.w3.org/2000/svg"><path d="M11.434 1.283c-.484.04-.996.161-1.412.332-.484.2-5.994 3.273-6.333 3.532-.761.582-1.514 1.688-1.821 2.673-.215.69-.208.559-.208 4.18 0 3.621-.007 3.49.208 4.18.31.995 1.071 2.106 1.836 2.682.32.24 5.8 3.304 6.274 3.507 1.118.48 2.815.493 3.97.03.165-.066.623-.3 1.017-.519.394-.22.736-.4.759-.4.024 0 .136.078.25.174 1.158.974 2.716 1.315 4.241.928 1.479-.375 2.835-1.661 3.297-3.127.168-.53.218-.854.219-1.415.001-.84-.154-1.498-.523-2.217-.187-.364-.552-.886-.742-1.06l-.106-.097v-2.863c0-3.152-.011-3.324-.241-4.015-.348-1.041-1.058-2.074-1.823-2.65-.32-.24-5.8-3.304-6.274-3.507-.416-.179-.965-.304-1.529-.35a8.685 8.685 0 0 0-.589-.035l-.47.037M13 2.861c.143.039.35.11.461.158.2.088 5.221 2.859 5.679 3.134.222.134.9.77.9.844 0 .018-1.809 1.081-4.02 2.361L12 11.687 8.01 9.379a510.841 510.841 0 0 1-4.026-2.341c-.048-.046.35-.498.623-.708.216-.165 5.451-3.09 5.893-3.291a3.27 3.27 0 0 1 .52-.173l.36-.083c.199-.046 1.368.01 1.62.078m-5.726 7.815 3.966 2.297v8.218l-.158-.035a3.406 3.406 0 0 1-.69-.241c-.648-.328-5.618-3.117-5.785-3.245-.739-.568-1.346-1.665-1.449-2.616-.065-.603-.031-6.162.04-6.465.029-.128.066-.227.082-.22.015.006 1.813 1.044 3.994 2.307M20.802 8.59c.04.174.057.815.068 2.62.008 1.315.002 2.39-.014 2.39-.017 0-.157-.044-.313-.097-1.305-.447-2.793-.296-3.956.403-2.073 1.245-2.897 3.78-1.946 5.986.117.272.145.373.108.396a31.51 31.51 0 0 1-.669.369c-.6.325-.831.425-1.162.499l-.158.035V12.972l3.97-2.303a520.011 520.011 0 0 1 3.994-2.306c.014-.002.049.1.078.227m-.808 6.326c.592.198.996.466 1.456.962.292.315.533.744.676 1.202.081.259.094.383.094.9 0 .518-.013.641-.094.898-.371 1.184-1.31 2.056-2.48 2.304a3.962 3.962 0 0 1-1.326-.002c-1.287-.271-2.316-1.372-2.523-2.701a3.686 3.686 0 0 1 .083-1.359 3.291 3.291 0 0 1 2.48-2.303c.169-.036.435-.05.76-.041.431.012.551.031.874.14m.26 1.348c-.07.034-.496.421-.948.859-.452.438-.835.797-.85.797-.016 0-.165-.123-.332-.274-.344-.31-.505-.406-.684-.406-.395 0-.864.55-.774.909a.98.98 0 0 0 .098.227c.104.171 1.249 1.242 1.409 1.318a.67.67 0 0 0 .574-.006c.184-.099 2.393-2.239 2.49-2.412.188-.334.037-.72-.396-1.01-.125-.083-.42-.084-.587-.002" fill-rule="evenodd" fill="#000"/></svg>