<svg width="24" height="24" fill="none" xmlns="http://www.w3.org/2000/svg"><path d="M11.434 1.283c-.484.04-.996.161-1.412.332-.484.2-5.994 3.273-6.333 3.532-.761.582-1.514 1.688-1.821 2.673-.215.69-.208.559-.208 4.18 0 3.621-.007 3.49.208 4.18.31.995 1.071 2.106 1.836 2.682.32.24 5.8 3.304 6.274 3.507 1.118.48 2.815.493 3.97.03.165-.066.623-.3 1.017-.519.394-.22.734-.4.756-.4.022 0 .143.084.27.187a4.735 4.735 0 0 0 3.439 1.049c.711-.062 1.303-.241 1.859-.563 2.286-1.322 3.101-4.059 1.899-6.372-.174-.333-.542-.853-.722-1.018l-.106-.097v-2.863c0-3.152-.011-3.324-.241-4.015-.348-1.041-1.058-2.074-1.823-2.65-.32-.24-5.8-3.304-6.274-3.507-.416-.179-.965-.304-1.529-.35a8.685 8.685 0 0 0-.589-.035l-.47.037M13 2.861c.143.039.35.11.461.158.2.088 5.221 2.859 5.679 3.134.222.134.9.77.9.844 0 .018-1.809 1.081-4.02 2.361L12 11.687 8.01 9.379a510.841 510.841 0 0 1-4.026-2.341c-.048-.046.35-.498.623-.708.216-.165 5.451-3.09 5.893-3.291a3.27 3.27 0 0 1 .52-.173l.36-.083c.199-.046 1.368.01 1.62.078m-5.726 7.815 3.966 2.297v8.218l-.158-.035a3.406 3.406 0 0 1-.69-.241c-.648-.328-5.618-3.117-5.785-3.245-.739-.568-1.346-1.665-1.449-2.616-.065-.603-.031-6.162.04-6.465.029-.128.066-.227.082-.22.015.006 1.813 1.044 3.994 2.307M20.802 8.59c.063.272.108 5.01.048 5.01-.02 0-.161-.043-.313-.097a4.861 4.861 0 0 0-3.015-.024c-1.606.525-2.868 1.952-3.178 3.596a4.71 4.71 0 0 0 .302 2.822c.118.272.142.366.104.391-.027.017-.329.184-.67.369-.6.325-.831.425-1.162.499l-.158.035V12.972l3.97-2.303a520.011 520.011 0 0 1 3.994-2.306c.014-.002.049.1.078.227m-.791 6.331a3.348 3.348 0 0 1 2.094 2.099c.084.256.109.423.124.84.024.654-.055 1.015-.357 1.62-.176.352-.265.476-.551.765-.692.701-1.384.995-2.337.995-1.847 0-3.334-1.598-3.211-3.452a3.215 3.215 0 0 1 1.784-2.687c.524-.264.904-.343 1.563-.325.435.013.551.032.891.145m-2.376 1.319c-.253.134-.475.462-.475.703 0 .186.126.378.466.709l.332.325-.357.364c-.38.388-.441.49-.441.744 0 .194.045.288.235.488.188.198.322.267.525.267.236 0 .418-.112.778-.476l.317-.321.368.356c.38.367.589.478.789.419.361-.108.668-.46.668-.767 0-.242-.082-.38-.445-.753l-.313-.322.302-.298c.456-.45.541-.674.377-.995-.099-.196-.373-.431-.568-.49-.237-.071-.465.039-.851.409l-.323.31-.309-.296a4.124 4.124 0 0 0-.439-.376c-.167-.102-.444-.101-.636 0" fill-rule="evenodd" fill="#000"/></svg>