<svg width="24" height="24" fill="none" xmlns="http://www.w3.org/2000/svg"><path d="M11.434 1.282c-.467.04-.981.158-1.371.314-.355.142-5.901 3.221-6.263 3.477-1.014.716-1.91 2.206-2.103 3.493-.052.347-.059.898-.048 3.651l.013 3.243.105.383c.334 1.22 1.067 2.364 1.933 3.016.325.245 5.732 3.275 6.227 3.491 1.291.56 3.138.519 4.37-.099.477-.239 5.591-3.095 5.843-3.263.132-.088.412-.333.622-.544.783-.788 1.36-1.881 1.538-2.913.055-.319.062-.801.05-3.699-.013-3.26-.016-3.339-.1-3.656-.175-.658-.421-1.187-.855-1.841-.363-.545-.929-1.112-1.399-1.402-.185-.113-1.579-.897-3.099-1.742-2.952-1.641-3.123-1.723-3.881-1.847a7 7 0 0 0-1.582-.062m1.621 1.595c.173.048.42.14.55.205.373.189 5.183 2.866 5.515 3.07.293.18.935.782.911.855-.007.02-.678.422-1.492.893-1.318.763-1.488.851-1.559.806a1399.3 1399.3 0 0 0-4.13-2.387C10.623 5.034 8.814 3.97 8.83 3.955c.017-.016.402-.234.857-.485 1.159-.641 1.415-.714 2.413-.693.502.01.708.032.955.1m-1.599 4.364c3.533 2.04 4.095 2.377 4.035 2.419-.039.026-.84.493-1.781 1.037l-1.709.99L8.01 9.38a585.585 585.585 0 0 1-4.022-2.338c-.044-.041.247-.383.533-.626.282-.239 2.665-1.586 2.764-1.562.036.009 1.913 1.083 4.171 2.387m-4.182 3.435 3.966 2.297v4.113c0 2.263-.005 4.114-.011 4.114-.095 0-.662-.196-.87-.301-.322-.161-5.147-2.84-5.493-3.049-.466-.28-1.023-.928-1.335-1.55a3.71 3.71 0 0 1-.373-1.246c-.067-.619-.031-6.165.042-6.465.031-.126.068-.225.082-.22.015.006 1.811 1.044 3.992 2.307M20.805 8.61c.044.202.055.866.055 3.43 0 3.611.017 3.405-.337 4.145-.342.715-.807 1.293-1.294 1.608-.352.227-5.527 3.093-5.769 3.195a3.31 3.31 0 0 1-.38.131c-.099.025-.212.055-.25.066-.066.019-.07-.195-.07-4.097v-4.117l1.73-1.001 1.73-1.001.02 1.265c.019 1.174.026 1.276.1 1.402.161.273.478.396.845.327a.646.646 0 0 0 .475-.327c.076-.129.081-.228.1-1.853l.02-1.718 1.46-.85a73.958 73.958 0 0 1 1.485-.853c.013-.001.049.111.08.248" fill-rule="evenodd" fill="#000"/></svg>