<svg width="24" height="24" fill="none" xmlns="http://www.w3.org/2000/svg"><path d="M10.589 1.282c-1.136.071-1.92.345-2.469.863-.589.556-.8 1.179-.863 2.54l-.025.546-.546.026c-.737.036-1.27.094-1.726.187-2.304.47-3.439 1.839-3.44 4.152 0 .535.754 8.78.862 9.424.179 1.066.556 1.851 1.164 2.42.857.801 1.977 1.178 3.802 1.279.925.051 8.379.051 9.304 0 1.481-.082 2.473-.342 3.267-.856.758-.49 1.306-1.26 1.559-2.188.146-.537.198-.984.542-4.675.188-2.013.36-3.715.381-3.781.022-.067.037-.211.034-.32-.003-.11.008-.55.024-.979.023-.625.017-.862-.034-1.192-.275-1.789-1.399-2.879-3.385-3.284-.456-.093-.989-.151-1.726-.187l-.546-.026-.025-.546c-.033-.713-.089-1.116-.205-1.484-.309-.973-1.089-1.59-2.303-1.824-.643-.123-2.45-.171-3.646-.095m3.254 1.543c.558.095.782.19 1.019.431.281.286.339.5.367 1.334l.021.65h-6.5l.021-.65c.028-.834.086-1.048.367-1.334.232-.236.46-.335.983-.428.51-.091 3.198-.093 3.722-.003m4.664 4.026c.848.158 1.447.422 1.838.809.518.513.704 1.215.636 2.398l-.029.507-.186.136c-.3.218-1.273.794-1.706 1.01a15.48 15.48 0 0 1-3.7 1.309l-.58.128-.028-.404c-.05-.726-.159-1.013-.473-1.245-.308-.227-.422-.239-2.279-.239-1.851 0-1.972.012-2.273.235-.32.236-.43.518-.471 1.207-.015.252-.041.458-.056.458-.099 0-1.097-.224-1.518-.34a16.163 16.163 0 0 1-4.25-1.912c-.42-.273-.407-.233-.41-1.248-.002-.633.009-.758.089-1.032.13-.451.267-.693.544-.968.477-.472 1.243-.753 2.385-.874a671 671 0 0 1 6.12-.009c5.46.005 6.012.011 6.347.074m1.973 8.611c-.298 3.169-.323 3.387-.446 3.829-.319 1.152-1.195 1.724-2.922 1.908-.528.056-9.696.056-10.224 0-1.975-.211-2.805-.888-3.046-2.487-.048-.318-.599-6.125-.583-6.143.005-.006.125.055.265.136 1.484.852 3.299 1.516 5.076 1.858l.661.127.066.34c.086.436.256.779.517 1.038.234.233.656.462 1.016.551.4.099 1.091.142 1.59.099 1.334-.116 2.01-.632 2.226-1.701l.072-.357.196-.031c1.067-.17 2.658-.637 3.736-1.097.486-.208 1.493-.71 1.827-.911.126-.076.234-.133.24-.128.005.006-.115 1.342-.267 2.969m-7.247-1.672c-.015 1.198-.024 1.234-.342 1.356-.28.108-1.502.108-1.782 0-.318-.122-.327-.158-.342-1.356l-.013-1.03h2.492l-.013 1.03" fill-rule="evenodd" fill="#000"/></svg>