<svg width="24" height="24" fill="none" xmlns="http://www.w3.org/2000/svg"><path d="M10.589 1.282c-1.136.071-1.92.345-2.469.863-.589.556-.8 1.179-.863 2.54l-.025.546-.546.026c-.737.036-1.27.094-1.726.187-2.304.47-3.439 1.839-3.44 4.152 0 .535.754 8.78.862 9.424.179 1.066.556 1.851 1.164 2.42.857.801 1.977 1.178 3.802 1.279.925.051 8.379.051 9.304 0 1.481-.082 2.473-.342 3.267-.856.758-.49 1.306-1.26 1.559-2.188.146-.537.198-.984.542-4.675.188-2.013.36-3.715.381-3.781.022-.067.037-.211.034-.32-.003-.11.008-.55.024-.979.023-.625.017-.862-.034-1.192-.275-1.789-1.399-2.879-3.385-3.284-.456-.093-.989-.151-1.726-.187l-.546-.026-.025-.546c-.033-.713-.089-1.116-.205-1.484-.309-.973-1.089-1.59-2.303-1.824-.643-.123-2.45-.171-3.646-.095m3.254 1.543c.558.095.782.19 1.019.431.281.286.339.5.367 1.334l.021.65h-6.5l.021-.65c.028-.834.086-1.048.367-1.334.232-.236.46-.335.983-.428.51-.091 3.198-.093 3.722-.003m4.664 4.026c.848.158 1.447.422 1.838.809.276.273.415.519.536.946.098.349.14 1.086.092 1.613l-.033.358-.245.171c-.691.482-2.021 1.187-2.855 1.513-.563.221-1.286.46-1.322.438a.483.483 0 0 1-.081-.17 4.8 4.8 0 0 0-2.813-2.786c-.964-.363-2.284-.363-3.248 0a4.81 4.81 0 0 0-2.819 2.797c-.046.121-.089.22-.097.22-.008 0-.26-.082-.56-.182a16.034 16.034 0 0 1-3.11-1.448c-.759-.457-.713-.404-.758-.872-.054-.56-.016-1.291.087-1.652.122-.428.261-.673.536-.946.477-.472 1.243-.753 2.385-.874a671 671 0 0 1 6.12-.009c5.46.005 6.012.011 6.347.074m-5.527 4.243c.528.174.874.392 1.304.822.428.427.644.769.824 1.304.101.296.109.369.109.98s-.008.684-.109.98c-.18.535-.396.877-.824 1.304-.427.428-.769.644-1.304.824-.296.101-.369.109-.98.109s-.684-.008-.98-.109c-.535-.18-.877-.396-1.304-.824-.428-.427-.644-.769-.824-1.304-.101-.296-.109-.369-.109-.98s.008-.684.109-.98c.18-.535.396-.877.824-1.304.717-.717 1.35-.966 2.384-.941.472.012.61.031.88.119m-1.035 1.145a.677.677 0 0 0-.215.129c-.178.163-.21.305-.211.921 0 .314-.011.611-.024.66-.016.06-.185.188-.516.391-.668.41-.767.531-.741.9.021.278.329.666.568.717.224.047.425-.027.977-.359.596-.359.844-.585 1.015-.926.175-.351.21-.594.195-1.344-.015-.747-.052-.873-.306-1.021-.149-.087-.564-.125-.742-.068m8.535 3.223c-.298 3.169-.323 3.387-.446 3.829-.319 1.152-1.195 1.724-2.922 1.908-.528.056-9.696.056-10.224 0-1.975-.211-2.805-.888-3.046-2.487-.051-.34-.599-6.126-.581-6.145.006-.007.083.032.17.087.29.183 1.431.738 1.982.964.299.122.828.315 1.175.429.348.113.645.226.661.25.017.023.03.139.03.257.001.117.037.389.081.604.326 1.601 1.456 2.913 3.016 3.499.96.361 2.285.362 3.24.003a4.799 4.799 0 0 0 2.841-2.836c.126-.334.263-.985.264-1.25.001-.354-.008-.346.572-.533.29-.094.753-.258 1.03-.366.488-.189 1.812-.827 2.217-1.068a1.35 1.35 0 0 1 .209-.111c.004.004-.117 1.339-.269 2.966" fill-rule="evenodd" fill="#000"/></svg>