<svg width="24" height="24" fill="none" xmlns="http://www.w3.org/2000/svg"><path d="M6.06 1.455a2.948 2.948 0 0 0-1.516.871A3.02 3.02 0 0 0 3.935 3.5c-.091.374-.091 1 .001 1.337.094.346.241.624.902 1.703l.563.92-.11.08c-.377.272-.502.52-.41.807.028.084.482.864 1.01 1.733.528.869.968 1.593.977 1.61.009.016-.036.106-.101.2-.18.263-.398.718-.526 1.102-.397 1.184-.309 2.418.259 3.628.557 1.186 2.096 4.281 2.239 4.5a3.178 3.178 0 0 0 1.855 1.368c.42.113 1.19.121 1.586.016.456-.121.982-.386 1.78-.898.121-.077.76-.468 1.42-.867 3.684-2.23 4.257-2.584 4.553-2.81.457-.35.871-.966 1.067-1.589.137-.436.155-1.11.043-1.594a3.648 3.648 0 0 0-.609-1.306c-.983-1.361-2.903-3.911-3.107-4.128a4.646 4.646 0 0 0-3.479-1.47l-.541.007-.935-1.535c-.514-.844-.982-1.602-1.039-1.684-.237-.343-.527-.394-.95-.17a4.24 4.24 0 0 1-.277.14c-.008 0-.3-.472-.65-1.049-.53-.873-.686-1.1-.937-1.354A2.684 2.684 0 0 0 7.3 1.498c-.331-.087-.944-.108-1.24-.043M6.8 2.92c.296.056.545.191.715.386.147.168 1.285 2.011 1.285 2.078-.001.037-2.053 1.297-2.109 1.294-.043-.002-1.176-1.881-1.259-2.088-.149-.373-.049-.952.218-1.255.149-.17.424-.335.667-.4.232-.063.231-.063.483-.015m4.365 4.283c.601.985.638 1.058.568 1.105-.581.386-3.761 2.28-3.785 2.256a37.889 37.889 0 0 1-.653-1.049c-.572-.939-.613-1.019-.547-1.068.04-.03.873-.539 1.852-1.133.979-.594 1.806-1.105 1.838-1.136.031-.031.063-.05.07-.043.008.007.303.488.657 1.068m3.344 2.18c.695.144 1.229.436 1.695.928.245.259 2.707 3.533 3.145 4.182.167.248.291.652.291.948 0 .444-.211.932-.531 1.227-.267.246-.334.273-.404.163l-.628-1.031c-.65-1.072-.728-1.183-.882-1.262-.266-.138-.672-.024-.93.262-.166.183-.212.375-.143.587.028.084.345.637.706 1.229.36.592.641 1.09.624 1.106-.018.016-.302.193-.631.393-.466.284-.609.353-.644.315a35.45 35.45 0 0 1-.637-1.03c-.672-1.111-.749-1.222-.905-1.302-.266-.138-.672-.024-.93.262-.166.183-.212.375-.143.587.028.084.345.637.705 1.229.361.591.645 1.085.632 1.098-.012.012-.296.189-.631.392-.462.281-.618.358-.652.322-.024-.026-.31-.489-.636-1.028-.672-1.111-.749-1.222-.905-1.302-.266-.138-.672-.024-.93.262-.166.183-.212.375-.143.587.028.084.346.637.706 1.23.495.813.643 1.085.604 1.112-.123.085-.405.19-.633.234-.511.101-1.108-.107-1.486-.517-.188-.203-.342-.493-1.31-2.468a136.519 136.519 0 0 1-1.187-2.46c-.503-1.234-.066-2.856.988-3.665.304-.233 3.469-2.153 3.856-2.339a3.088 3.088 0 0 1 1.969-.251" fill-rule="evenodd" fill="#000"/></svg>