<svg width="24" height="24" fill="none" xmlns="http://www.w3.org/2000/svg"><path d="M6.388 1.285c-.632.061-1.297.33-1.856.751-.646.486-1.132 1.223-1.349 2.044-.129.487-.118.985.114 5.129.123 2.194.223 4.04.223 4.102 0 .095-.03.128-.19.205a2.772 2.772 0 0 0-1.513 3.045 2.745 2.745 0 0 0 1.523 1.922c.538.25.501.247 3.065.266l2.346.017.019.667c.023.751.069.972.305 1.467a3.29 3.29 0 0 0 2.105 1.743c.241.062.444.083.82.083.376 0 .579-.021.82-.083 1.088-.282 1.983-1.157 2.304-2.25.067-.229.09-.439.106-.963l.019-.67h2.066c1.136-.001 2.219-.018 2.407-.04.703-.08 1.221-.336 1.74-.857.507-.509.723-.996.765-1.723a2.732 2.732 0 0 0-1.457-2.57c-.255-.132-.29-.164-.29-.262 0-.061.1-1.906.223-4.1.232-4.143.243-4.641.114-5.128-.217-.821-.703-1.558-1.349-2.044a3.662 3.662 0 0 0-1.929-.754c-.532-.051-10.624-.048-11.151.003m.861 3.745L7.26 7.3l.091.146c.123.198.323.286.654.286.298 0 .468-.074.611-.265.083-.111.084-.146.095-2.41l.011-2.297h2.509l.015.75c.016.818.042.924.279 1.1.226.168.724.168.95 0 .237-.176.263-.282.279-1.1l.015-.75h2.38c2.041 0 2.414.009 2.625.063.854.221 1.565 1.043 1.647 1.905.013.139-.076 2.043-.198 4.248a580.93 580.93 0 0 0-.223 4.13v.134H5v-.13c0-.072-.1-1.93-.223-4.13-.123-2.21-.212-4.113-.198-4.252.046-.491.297-.978.702-1.369.434-.418.884-.592 1.548-.596l.408-.003.012 2.27m12.806 9.85c.23.117.483.388.599.64.118.258.113.713-.01.968-.112.231-.423.528-.675.645-.187.086-.218.087-2.969.107-2.699.019-2.784.022-2.92.101a.67.67 0 0 0-.23.258c-.085.169-.09.225-.09 1.059 0 .981-.03 1.246-.177 1.566-.203.444-.633.823-1.08.953-.276.081-.73.081-1.006 0-.447-.13-.877-.509-1.08-.953-.147-.32-.177-.585-.177-1.566 0-.834-.005-.89-.09-1.059a.67.67 0 0 0-.23-.258c-.136-.079-.221-.082-2.96-.101l-2.82-.02-.172-.092c-.455-.243-.704-.634-.706-1.106 0-.155.023-.35.052-.433.117-.337.523-.71.859-.791.07-.016 3.628-.027 7.907-.024l7.78.006.195.1" fill-rule="evenodd" fill="#000"/></svg>