<svg width="24" height="24" fill="none" xmlns="http://www.w3.org/2000/svg"><path d="M8.34 1.265c-2.44.11-4.036.657-5.203 1.783C2.044 4.103 1.475 5.517 1.28 7.66c-.053.583-.053 8.097 0 8.68.195 2.143.764 3.557 1.857 4.612.842.813 1.901 1.317 3.34 1.59.903.171 1.256.186 4.882.206 4.537.025 5.433-.021 6.716-.344 2.41-.606 3.863-2.155 4.387-4.676.198-.953.233-1.453.236-3.308.002-1.72.002-1.72-.089-1.866-.123-.198-.323-.286-.654-.286-.298 0-.468.074-.611.265-.081.109-.085.169-.11 1.78-.032 2.012-.1 2.695-.354 3.567-.58 1.993-1.72 2.888-4.16 3.268-.421.066-.824.072-4.74.072-3.932 0-4.319-.006-4.759-.073-2.178-.33-3.339-1.118-3.972-2.695-.237-.59-.405-1.383-.487-2.292-.056-.615-.056-7.705 0-8.32.15-1.665.556-2.804 1.275-3.569.588-.627 1.247-.983 2.318-1.251.791-.198 1.187-.231 3.085-.256 1.994-.028 1.988-.027 2.169-.318.074-.118.091-.204.091-.446 0-.358-.095-.548-.331-.666-.135-.067-.267-.074-1.449-.078a63.4 63.4 0 0 0-1.58.009m12.212.017c-.585.089-2.207.889-3.632 1.792-2.178 1.379-4.279 3.085-5.663 4.595-.384.42-1.791 2.144-2.171 2.661-.134.183-.191.23-.278.23-.171 0-.673.151-.989.297a4.091 4.091 0 0 0-1.541 1.232 3.816 3.816 0 0 0-.719 1.591c-.103.546-.286 2.471-.266 2.8a2.445 2.445 0 0 0 1.614 2.123c.479.165.696.169 1.934.038 1.298-.138 1.63-.196 2.097-.365.952-.344 1.841-1.201 2.249-2.166.117-.277.197-.557.313-1.093.01-.046.06-.102.111-.126.096-.043 1.416-1.078 2.049-1.607 2.392-1.995 5.232-5.74 6.575-8.674.439-.957.525-1.297.449-1.765a1.889 1.889 0 0 0-2.132-1.563m.536 1.585c.156.15.145.299-.053.765-.808 1.9-2.587 4.585-4.335 6.54l-.35.392-.159-.372a4.609 4.609 0 0 0-1.434-1.831c-.33-.246-.916-.563-1.188-.644-.094-.028-.166-.062-.16-.077.046-.109 1.397-1.237 2.251-1.878 1.648-1.239 3.257-2.217 4.66-2.833.453-.2.611-.212.768-.062m-8.273 6.172c.523.133.911.363 1.349.799.328.327.41.436.569.762.179.363.271.659.324 1.031.029.207.073.161-.897.94-.385.309-.729.586-.764.616-.056.047-.076.022-.171-.223-.23-.585-.899-1.402-1.465-1.79a5.834 5.834 0 0 0-.909-.47l-.129-.045.222-.279c.122-.154.431-.536.686-.85l.463-.57h.207c.114 0 .346.035.515.079m-2.535 3.078a2.67 2.67 0 0 1 1.47 1.287c.195.399.252.657.259 1.162.008.679-.209 1.192-.729 1.718-.389.393-.731.589-1.21.694-.333.072-2.051.262-2.362.261a.944.944 0 0 1-.925-.779c-.032-.2.196-2.357.282-2.66.231-.816.97-1.53 1.801-1.739.35-.088 1.078-.059 1.414.056" fill-rule="evenodd" fill="#000"/></svg>