<svg width="24" height="24" fill="none" xmlns="http://www.w3.org/2000/svg"><path d="M19.9 1.356c-.318.093-.904.346-1.64.707C14.71 3.805 10.367 7.142 8.059 9.9c-.558.667-2.022 2.522-2.162 2.74-.145.224-.146.225-.371.253-.32.039-.89.224-1.306.423-1.418.681-2.382 1.951-2.64 3.479-.13.773-.348 2.982-.325 3.305A2.852 2.852 0 0 0 3.9 22.745c.421.03 3.1-.267 3.635-.403 1.854-.47 3.231-1.973 3.565-3.89.033-.189.06-.347.06-.353 0-.006.083-.06.184-.119.193-.114 1.591-1.218 2.569-2.031 3.123-2.593 6.809-7.554 8.42-11.333.123-.288.242-.603.264-.7.063-.269.051-.833-.021-1.079-.21-.715-.817-1.313-1.518-1.496-.311-.081-.855-.074-1.158.015m.882 1.468c.335.159.454.529.296.925-1.005 2.527-3.313 6.03-5.787 8.783-.253.282-.469.503-.48.492a2.962 2.962 0 0 1-.13-.332 5.041 5.041 0 0 0-.613-1.239 5.465 5.465 0 0 0-2.844-2.178l-.396-.134.316-.295c2.181-2.038 5.358-4.263 7.756-5.431 1.323-.645 1.591-.729 1.882-.591M10.42 10.6a3.987 3.987 0 0 1 2.844 2.565c.117.334.216.808.216 1.035 0 .185-.036.219-1.477 1.374l-.978.783-.085-.268a4.806 4.806 0 0 0-.592-1.166c-.249-.363-.822-.949-1.208-1.236-.323-.24-.971-.57-1.32-.672a3.308 3.308 0 0 1-.254-.081c-.018-.012 1.031-1.341 1.568-1.988l.393-.473.287.026c.157.015.43.06.606.101m-3.303 3.784c1.159.283 2.189 1.303 2.471 2.447.105.426.095 1.303-.019 1.7-.329 1.147-1.212 2.036-2.331 2.347-.178.05-.875.147-1.726.242-1.535.17-1.699.17-2.035-.001-.362-.185-.68-.635-.736-1.039-.03-.217.269-2.933.363-3.294a3.35 3.35 0 0 1 2.516-2.4c.385-.082 1.165-.083 1.497-.002" fill-rule="evenodd" fill="#000"/></svg>