<svg width="24" height="24" fill="none" xmlns="http://www.w3.org/2000/svg"><path d="M6.498 1.28c-.999.086-1.743.405-2.301.987-.451.471-.729 1.041-.86 1.764-.084.465-.084 1.473 0 1.938.223 1.232.934 2.116 2.025 2.514.707.258.686.257 4.638.257 3.234 0 3.615-.007 3.948-.07 1.304-.247 2.184-.976 2.568-2.13.065-.198.132-.455.147-.57l.027-.21h.505c.888.001 1.512.138 1.776.391.242.231.249.313.249 2.849 0 2.059-.007 2.323-.069 2.521-.12.388-.395.559-1.058.659-.312.047-.871.06-2.713.06-1.276.001-2.576.019-2.889.04-1.933.132-2.896.835-3.154 2.3a3.59 3.59 0 0 0-.057.491c0 .192.019.181-.4.245-.613.094-1.111.432-1.358.921-.255.505-.262.575-.262 2.763 0 1.749.008 2.011.069 2.25.2.777.65 1.226 1.421 1.419.391.097 2.109.097 2.5 0 .771-.193 1.221-.642 1.42-1.419.061-.238.07-.503.07-2.25 0-1.747-.009-2.012-.07-2.25-.151-.589-.454-1-.906-1.228-.26-.131-.658-.24-.879-.241l-.134-.001.029-.27c.056-.53.272-.877.64-1.029.46-.19.481-.191 3.54-.223 3.245-.033 3.485-.051 4.2-.308.515-.185.998-.592 1.232-1.037.295-.563.365-1.216.365-3.413 0-2.69-.11-3.273-.736-3.902-.521-.523-1.17-.741-2.429-.818a36.718 36.718 0 0 0-.777-.04c-.12 0-.126-.008-.152-.21-.042-.321-.248-.898-.432-1.21a3.104 3.104 0 0 0-1.587-1.301c-.691-.252-.649-.249-4.384-.26-1.87-.006-3.563.004-3.762.021m.366 1.514c-.049.079-.232.857-.285 1.216-.033.214-.059.66-.059.99 0 .33.026.776.059.99.053.359.236 1.137.285 1.216.033.053-.336.038-.637-.025-.779-.165-1.244-.628-1.407-1.401-.076-.362-.076-1.196-.001-1.553.163-.77.626-1.241 1.381-1.404.291-.063.696-.081.664-.029m4.665.306a9.39 9.39 0 0 1 0 3.8l-.069.32H8.54l-.069-.32c-.186-.86-.25-2.071-.153-2.88.044-.363.195-1.174.229-1.23.01-.017.67-.026 1.466-.02l1.447.01.069.32m2.251-.28c.773.163 1.236.628 1.401 1.407.075.357.075 1.191-.001 1.553-.163.773-.628 1.236-1.407 1.401-.301.063-.67.078-.637.025.049-.079.232-.857.285-1.216.033-.214.059-.66.059-.99 0-.33-.026-.776-.059-.99-.053-.359-.236-1.137-.285-1.216-.033-.054.337-.038.644.026m-2.781 14.01a.491.491 0 0 1 .19.17c.038.076.05.561.05 2s-.012 1.924-.05 2c-.106.211-.248.24-1.189.24-.941 0-1.083-.029-1.189-.24-.072-.144-.072-3.856 0-4 .106-.211.248-.24 1.189-.24.739 0 .88.01.999.07" fill-rule="evenodd" fill="#000"/></svg>