<svg width="24" height="24" fill="none" xmlns="http://www.w3.org/2000/svg"><path d="M15.28 1.268a5.988 5.988 0 0 0-2.623.778A5.872 5.872 0 0 0 9.9 8.561a5.86 5.86 0 0 0 1.824 2.988 5.9 5.9 0 0 0 6.366.895c1.316-.606 2.465-1.839 2.974-3.191.105-.279.273-.872.316-1.113.105-.599.087-1.575-.041-2.204-.572-2.81-3.18-4.82-6.059-4.668m1.436 1.629a4.34 4.34 0 0 1 1.963 1.144 4.33 4.33 0 0 1 1.143 1.963c.194.701.174 1.767-.045 2.423a4.404 4.404 0 0 1-1.055 1.746 4.36 4.36 0 0 1-5.55.603c-1.353-.9-2.122-2.538-1.933-4.114.128-1.061.566-1.951 1.314-2.67a4.337 4.337 0 0 1 2.252-1.174c.481-.091 1.441-.051 1.911.079M5.947 12.563A3.833 3.833 0 0 0 2.94 14.66a3.832 3.832 0 0 0 1.031 4.68c1.643 1.313 4.057 1.048 5.369-.591a3.832 3.832 0 0 0 .001-4.776 3.829 3.829 0 0 0-3.394-1.41m.995 1.538c.411.104.732.292 1.058.619.473.472.68.973.68 1.64 0 .667-.207 1.166-.681 1.639-.473.474-.972.681-1.639.681s-1.168-.207-1.64-.68c-.473-.472-.68-.973-.68-1.64 0-.667.207-1.168.68-1.64.32-.321.644-.513 1.04-.617.292-.077.885-.078 1.182-.002m9.258 2.063c-.337.04-.779.164-1.02.286a3.449 3.449 0 0 0-1.749 2.098c-.129.45-.129 1.334 0 1.784.227.789.713 1.438 1.428 1.905.532.347 1.046.49 1.761.49.893 0 1.615-.275 2.245-.856.415-.382.786-.986.942-1.531.132-.462.132-1.338 0-1.8-.329-1.153-1.32-2.092-2.447-2.32a3.915 3.915 0 0 0-1.16-.056m1.173 1.626c.346.163.727.536.879.862a1.781 1.781 0 0 1-.358 2.06 1.86 1.86 0 0 1-.522.38c-.259.122-.295.128-.752.128-.458 0-.492-.006-.753-.129-.346-.164-.727-.538-.879-.863a1.78 1.78 0 0 1 .351-2.052c.411-.415.73-.54 1.341-.525.378.01.447.024.693.139" fill-rule="evenodd" fill="#000"/></svg>