<svg width="24" height="24" fill="none" xmlns="http://www.w3.org/2000/svg"><path d="M8.08 1.282c-4.072.213-6.185 2.014-6.697 5.709-.113.812-.141 1.825-.141 5.009 0 4.504.06 5.273.518 6.65.772 2.313 2.446 3.576 5.267 3.972.759.106 1.875.137 4.973.137s4.214-.031 4.973-.137c2.47-.347 4.023-1.334 4.924-3.132.482-.96.741-2.121.823-3.683.051-.969.051-6.645 0-7.614-.063-1.195-.199-2.002-.478-2.837-.61-1.825-1.773-2.989-3.592-3.596-.862-.287-1.627-.416-2.844-.48-.854-.045-6.854-.043-7.726.002m8.72 1.572c2.786.462 3.914 1.6 4.348 4.386.066.421.072.824.072 4.76s-.006 4.339-.072 4.76c-.436 2.798-1.59 3.952-4.388 4.388-.421.066-.824.072-4.76.072s-4.339-.006-4.76-.072c-2.79-.435-3.957-1.597-4.386-4.368-.069-.445-.074-.791-.074-4.78 0-4.753-.004-4.663.264-5.712C3.557 4.282 4.722 3.274 6.96 2.9c.73-.123 1.088-.131 5.24-.123 3.763.007 4.222.014 4.6.077M9.686 4.845c-.193.057-.51.389-.565.59-.073.274-.001.445.339.798l.294.307-2.19 2.2c-1.245 1.251-2.269 2.312-2.372 2.46-.379.54-.512.925-.512 1.48 0 .543.158 1.006.512 1.5.195.273 3.153 3.247 3.535 3.554.593.478 1.072.647 1.753.617.667-.028 1.08-.23 1.794-.876.75-.678 4.385-4.364 4.494-4.555.142-.252.207-.563.178-.846-.056-.531.096-.358-3.402-3.866-1.762-1.767-3.258-3.246-3.324-3.287a.69.69 0 0 0-.534-.076m3.09 4.711 1.916 1.916-.296.024c-.163.013-1.781.087-3.596.164-1.815.077-3.498.151-3.74.164l-.44.024 2.1-2.104a161.342 161.342 0 0 1 2.12-2.104c.011 0 .882.862 1.936 1.916m-.016 5.298c-1.969 1.962-2.045 2.026-2.402 2.026-.384 0-.499-.094-2.248-1.836-.897-.893-1.63-1.642-1.63-1.665 0-.038 6.661-.361 7.72-.373l.42-.005-1.86 1.853m4.246-.746c-.158.077-.568.534-.91 1.012-.628.877-.897 1.567-.841 2.162.074.8.61 1.486 1.381 1.768.175.065.32.083.664.083.344 0 .489-.018.664-.083.984-.36 1.564-1.379 1.34-2.35-.127-.547-.6-1.364-1.241-2.143-.319-.388-.504-.517-.739-.516a.85.85 0 0 0-.318.067m.597 2.363c.235.409.288.58.238.764a.573.573 0 0 1-.681.405c-.265-.071-.472-.391-.413-.637.035-.145.234-.536.404-.792l.144-.217.071.093c.039.051.145.224.237.384" fill-rule="evenodd" fill="#000"/></svg>