<svg width="24" height="24" fill="none" xmlns="http://www.w3.org/2000/svg"><path d="M11.32 1.281c-4.279.244-8.068 3.128-9.477 7.216a10.886 10.886 0 0 0-.279 6.053 10.76 10.76 0 0 0 7.886 7.886 10.96 10.96 0 0 0 5.1 0 10.76 10.76 0 0 0 7.886-7.886 10.96 10.96 0 0 0 0-5.1 10.758 10.758 0 0 0-8.694-8.052c-.408-.067-1.668-.169-1.862-.151l-.56.034m1.826 1.541a9.086 9.086 0 0 1 2.914.874c2.817 1.383 4.708 4.026 5.118 7.158.123.932.066 2.172-.144 3.144-.289 1.345-1.031 2.857-1.913 3.902a9.31 9.31 0 0 1-3.061 2.404 8.94 8.94 0 0 1-4.06.936 8.93 8.93 0 0 1-4.06-.936c-2.817-1.383-4.708-4.026-5.118-7.158-.123-.932-.066-2.172.144-3.144.211-.982.737-2.227 1.302-3.082a9.335 9.335 0 0 1 6.552-4.097c.56-.077 1.749-.077 2.326-.001M9.94 5.663c-.465.243-.64.734-.385 1.081.063.086.171.209.24.273.069.065.125.137.125.161 0 .023-.82.861-1.822 1.862-1.886 1.883-2.116 2.147-2.298 2.628-.11.289-.147.791-.082 1.104.081.389.321.807.714 1.248.46.514 2.481 2.514 2.766 2.737.8.625 1.701.697 2.544.203.318-.186 4.285-4.122 4.413-4.379.192-.384.193-.849.002-1.229-.099-.199-5.304-5.441-5.594-5.634-.203-.135-.43-.155-.623-.055m4.029 5.58c-.016.013-1.217.073-2.669.134l-3.1.13-.46.022 1.64-1.644 1.64-1.645 1.489 1.489c.819.819 1.476 1.5 1.46 1.514M12.5 14.2c-1.441 1.442-1.627 1.6-1.881 1.6-.25 0-.405-.13-1.708-1.43-.72-.718-1.299-1.315-1.288-1.326.019-.02 5.395-.269 6.017-.279l.3-.005-1.44 1.44m3.616-.686c-.425.269-1.232 1.468-1.417 2.104-.108.37-.07.889.087 1.222.154.325.32.533.586.734.271.204.498.299.823.345a1.845 1.845 0 0 0 2.098-1.579c.055-.381-.025-.769-.252-1.23-.288-.586-1.006-1.508-1.286-1.653-.184-.095-.435-.072-.639.057m.543 2.169c.184.351.196.534.043.666-.22.188-.582.042-.582-.236 0-.155.281-.713.36-.713.016 0 .097.128.179.283" fill-rule="evenodd" fill="#000"/></svg>