<svg width="24" height="24" fill="none" xmlns="http://www.w3.org/2000/svg"><path d="M12.498 1.28c-.999.086-1.743.405-2.301.987-.249.259-.506.633-.592.861l-.04.104-1.512.018c-1.414.017-1.533.024-1.813.107A2.82 2.82 0 0 0 4.359 5.24c-.072.251-.089.444-.108 1.186l-.022.885-.204.027a4.125 4.125 0 0 0-.565.146c-1.154.384-1.883 1.264-2.13 2.568-.064.336-.07.763-.07 4.948 0 4.185.006 4.612.07 4.948.247 1.305.978 2.186 2.13 2.567.704.233.388.225 8.58.225 6.998 0 7.566-.005 7.908-.07 1.305-.247 2.186-.978 2.567-2.13.233-.704.225-.392.225-8.54s.008-7.836-.225-8.54a3.033 3.033 0 0 0-1.871-1.941c-.691-.252-.649-.249-4.384-.26-1.87-.006-3.563.004-3.762.021m7.275 1.539c.779.165 1.244.628 1.407 1.401.087.417.089 15.139.001 15.553-.207.977-.888 1.464-2.048 1.466l-.367.001-.016-1.79c-.019-1.941-.021-1.964-.251-2.336a1.845 1.845 0 0 0-.619-.611c-.384-.229-.49-.243-1.88-.243s-1.496.014-1.88.243c-.251.15-.462.359-.619.611-.231.374-.233.394-.251 2.336l-.016 1.79-.307-.001a3.592 3.592 0 0 1-1.147-.201c-.333-.126-.693-.486-.817-.818-.21-.56-.203-.267-.202-8.234 0-7.118.003-7.42.076-7.774.042-.203.126-.46.186-.571.223-.409.649-.703 1.185-.82.383-.083 7.174-.085 7.565-.002M9.24 6v1.24H5.76v-.738c0-.892.043-1.053.366-1.376.35-.35.407-.361 1.864-.364l1.25-.002V6m4.547 1.278a.659.659 0 0 0-.447.326c-.078.132-.08.208-.08 2.896 0 2.688.002 2.764.08 2.896.161.273.478.396.845.327a.646.646 0 0 0 .475-.327c.077-.132.08-.22.093-2.676.007-1.397.001-2.652-.013-2.789-.042-.405-.244-.62-.62-.662a1.307 1.307 0 0 0-.333.009m4 0a.659.659 0 0 0-.447.326c-.078.132-.08.208-.08 2.896 0 2.688.002 2.764.08 2.896.161.273.478.396.845.327a.646.646 0 0 0 .475-.327c.077-.132.08-.22.093-2.676.007-1.397.001-2.652-.013-2.789-.042-.405-.244-.62-.62-.662a1.307 1.307 0 0 0-.333.009M9.24 14.031c0 3.374.015 5.393.041 5.61.057.468.178.919.341 1.272.076.164.138.305.138.313 0 .008-1.183.014-2.63.013-2.164 0-2.68-.011-2.91-.059-.773-.163-1.236-.628-1.401-1.407-.086-.407-.086-9.139 0-9.546.163-.77.626-1.241 1.381-1.404.206-.045.755-.057 2.65-.06l2.39-.003v5.271m-3.453-1.753a.659.659 0 0 0-.447.326c-.077.132-.08.208-.08 2.396 0 2.188.003 2.264.08 2.396.161.273.478.396.845.327a.646.646 0 0 0 .475-.327c.077-.13.081-.22.093-2.176.007-1.122.001-2.152-.013-2.289-.042-.405-.244-.62-.62-.662a1.307 1.307 0 0 0-.333.009m11.38 5.548c.068.062.073.169.073 1.74v1.674h-2.48v-1.667c0-1.495.007-1.674.066-1.74.061-.067.152-.073 1.167-.073.968 0 1.11.008 1.174.066" fill-rule="evenodd" fill="#000"/></svg>