<svg width="24" height="24" fill="none" xmlns="http://www.w3.org/2000/svg"><path d="M3.72 1.28c-1.325.141-2.113.824-2.391 2.073-.064.283-.069.807-.069 6.647s.005 6.364.069 6.647c.246 1.107.896 1.768 1.982 2.016.193.044.603.068 1.454.085l1.186.022.019.765c.023.884.086 1.194.354 1.741a2.589 2.589 0 0 0 1.411 1.245c.605.213.537.209 3.943.228 3.223.017 3.842-.002 4.342-.129 1.049-.268 1.714-.951 1.985-2.035.06-.241.086-.517.103-1.07l.023-.744 1.144-.024c.812-.016 1.223-.04 1.414-.084 1.085-.248 1.736-.909 1.982-2.016.064-.283.069-.807.069-6.647s-.005-6.364-.069-6.647c-.25-1.123-.901-1.774-2.024-2.024-.273-.061-.6-.069-2.947-.069s-2.674.008-2.947.069c-.738.164-1.243.481-1.602 1.006-.361.527-.468.978-.5 2.095l-.023.81h-1.256l-.023-.81c-.014-.495-.047-.922-.085-1.099-.192-.893-.696-1.522-1.469-1.836-.549-.223-.574-.225-3.275-.236-1.375-.006-2.635.003-2.8.021m5.279 1.523c.312.067.557.254.7.534l.121.237.013.827.014.826-.659.026c-1.233.049-1.813.253-2.413.851-.326.325-.555.74-.705 1.276l-.089.32-.012 4.773-.011 4.772-1.192-.012-1.192-.013-.237-.121a1 1 0 0 1-.535-.709c-.03-.147-.04-2.095-.033-6.513l.011-6.303.121-.235a.974.974 0 0 1 .646-.522c.254-.068 5.14-.08 5.452-.014m11.664.098c.28.143.467.388.534.7.061.285.061 12.513 0 12.798a1.001 1.001 0 0 1-.534.7l-.237.121-1.152.013-1.151.012-.013-4.752c-.013-4.727-.013-4.755-.1-5.078-.294-1.103-.939-1.763-1.99-2.036-.3-.078-.914-.136-1.453-.138l-.414-.001.014-.833.013-.833.121-.235a.972.972 0 0 1 .646-.522c.152-.042.756-.051 2.836-.045l2.643.008.237.121m-4.848 3.974c.471.189.704.537.783 1.165.057.453.055 11.479-.002 11.937-.077.61-.315.961-.781 1.148-.229.092-.272.094-1.642.107l-1.407.013-.013-1.253c-.012-1.167-.018-1.261-.093-1.388a.646.646 0 0 0-.475-.327c-.367-.069-.684.054-.845.327-.075.127-.081.221-.093 1.388l-.013 1.253-1.367-.013c-1.328-.013-1.374-.016-1.607-.108a1.161 1.161 0 0 1-.708-.772l-.092-.292V7.9l.091-.264c.106-.305.309-.564.533-.678.384-.196.345-.194 4.036-.186l3.46.008.235.095m-6.028 3.403c-.342.068-.519.314-.519.722 0 .462.207.692.663.74.137.014 1.167.02 2.289.013 1.956-.012 2.046-.016 2.176-.093a.646.646 0 0 0 .327-.475c.069-.367-.054-.684-.327-.845-.131-.077-.214-.08-2.296-.086-1.188-.004-2.229.007-2.313.024m0 3c-.342.068-.519.314-.519.722 0 .462.207.692.663.74.137.014 1.167.02 2.289.013 1.956-.012 2.046-.016 2.176-.093a.646.646 0 0 0 .327-.475c.069-.367-.054-.684-.327-.845-.131-.077-.214-.08-2.296-.086-1.188-.004-2.229.007-2.313.024" fill-rule="evenodd" fill="#000"/></svg>