<svg width="24" height="24" fill="none" xmlns="http://www.w3.org/2000/svg"><path d="M4.38 2.307c-1.666.208-2.711 1.226-2.961 2.883-.05.333-.059 1.535-.059 8.214v7.824l-.325.025c-.482.037-.689.19-.758.562-.069.367.054.684.327.845.135.079.208.08 11.396.08s11.261-.001 11.396-.08a.646.646 0 0 0 .327-.475c.069-.367-.054-.684-.327-.845-.128-.075-.221-.081-1.506-.093l-1.371-.013.011-1.503.01-1.503.2-.068c.945-.322 1.702-1.15 1.927-2.109.064-.273.073-.499.072-1.851 0-1.667-.013-1.793-.235-2.295-.321-.726-1.018-1.365-1.759-1.613-.298-.1-.376-.109-.945-.109s-.647.009-.945.109c-.891.298-1.65 1.1-1.903 2.011-.083.301-.088.395-.09 1.877-.002 1.77.017 1.929.299 2.491.347.693 1.029 1.287 1.709 1.491l.17.051v3.027h-4v-7.83c0-6.613-.009-7.889-.058-8.21-.246-1.619-1.176-2.582-2.76-2.859-.302-.052-.883-.06-4.037-.055-2.027.003-3.739.013-3.805.021m7.631 1.511c.784.14 1.225.534 1.439 1.285l.09.317.011 7.91.011 7.91H9.003l-.011-1.657c-.012-1.602-.015-1.661-.094-1.768-.175-.234-.274-.275-.658-.275-.401 0-.525.057-.65.303-.063.124-.07.294-.07 1.767v1.63H2.838l.011-7.91.011-7.91.09-.317c.196-.69.575-1.07 1.233-1.237.13-.034.291-.068.357-.077.066-.01 1.704-.019 3.64-.022 2.842-.003 3.58.006 3.831.051m-6.57 3.747c-.254.101-.373.317-.373.676 0 .325.089.526.286.648l.146.091h2.787c2.753 0 2.789-.001 2.898-.082.234-.175.275-.274.275-.658 0-.401-.057-.525-.303-.65-.127-.065-.344-.07-2.877-.067-1.707.001-2.777.017-2.839.042m.146 3.713c-.342.068-.519.314-.519.722 0 .462.207.692.663.74.137.014 1.383.02 2.769.013 2.436-.013 2.525-.016 2.656-.093.251-.148.304-.262.304-.66s-.053-.512-.304-.66c-.132-.078-.214-.08-2.776-.086-1.452-.004-2.709.007-2.793.024m14.636.425c.403.117.784.477.937.886.079.212.082.287.071 1.686l-.011 1.465-.107.228a1.553 1.553 0 0 1-.705.705c-.197.092-.28.107-.608.107-.328 0-.411-.015-.608-.107a1.553 1.553 0 0 1-.705-.705l-.107-.228-.011-1.465c-.011-1.399-.008-1.474.071-1.686a1.462 1.462 0 0 1 1.783-.886" fill-rule="evenodd" fill="#000"/></svg>