<svg width="24" height="24" fill="none" xmlns="http://www.w3.org/2000/svg"><path d="M8.82 1.67a2.717 2.717 0 0 0-.92.228c-.391.178-4.589 2.986-4.842 3.239a2.8 2.8 0 0 0-.723 1.287c-.072.266-.075.549-.062 7.54l.013 7.264-.291.027c-.446.041-.651.201-.718.56-.069.367.054.684.327.845.135.079.208.08 10.396.08s10.261-.001 10.396-.08a.646.646 0 0 0 .327-.475c.069-.367-.054-.684-.327-.845-.121-.071-.224-.082-.906-.094l-.77-.014V18.653l.17-.05c.232-.068.608-.283.856-.491a2.8 2.8 0 0 0 .902-1.372c.088-.308.092-.375.092-1.74s-.004-1.432-.092-1.74a2.792 2.792 0 0 0-1.908-1.903 3.062 3.062 0 0 0-1.48 0 2.792 2.792 0 0 0-1.908 1.903c-.088.308-.092.375-.092 1.74s.004 1.432.092 1.74a2.8 2.8 0 0 0 .902 1.372c.233.195.613.416.836.487l.15.047v2.594h-3.48v-7.05c-.001-4.501-.015-7.178-.041-7.404-.074-.647-.324-1.186-.752-1.621-.274-.279-4.43-3.068-4.867-3.267a2.813 2.813 0 0 0-1.28-.228m.555 1.539c.243.071 4.415 2.86 4.596 3.071.28.327.269.176.269 3.747v3.213H3.76v-3.213c0-3.571-.011-3.42.269-3.747.166-.193 4.34-2.995 4.571-3.068.192-.06.577-.062.775-.003M8.5 6.807C7.919 6.916 7.27 7.43 6.992 8a2.213 2.213 0 0 0 .427 2.581c.484.484 1.064.697 1.758.646 1.904-.138 2.757-2.454 1.404-3.808-.55-.549-1.277-.764-2.081-.612m.771 1.495a.748.748 0 0 1 0 1.396.65.65 0 0 1-.542 0A.745.745 0 0 1 8.7 8.316a.665.665 0 0 1 .571-.014m11.183 4.539c.29.109.596.415.705.705.075.201.081.309.081 1.454 0 1.45-.014 1.523-.366 1.874a1.216 1.216 0 0 1-1.748 0c-.352-.351-.366-.424-.366-1.874 0-1.45.014-1.523.366-1.874a1.236 1.236 0 0 1 1.328-.285M14.28 18v3.24H9.765l-.013-1.63c-.011-1.546-.016-1.637-.092-1.766-.148-.251-.262-.304-.66-.304s-.512.053-.66.304c-.076.129-.081.22-.092 1.766l-.013 1.63H3.76v-6.48h10.52V18" fill-rule="evenodd" fill="#000"/></svg>