<svg width="24" height="24" fill="none" xmlns="http://www.w3.org/2000/svg"><path d="M4.3 1.266C2.666 1.405 1.532 2.56 1.281 4.34c-.032.231-.041 2.536-.033 8.26l.012 7.94.107.293c.156.426.334.704.673 1.049.504.513 1.023.762 1.749.84.264.028 2.879.037 8.051.027 7.016-.013 7.689-.02 8-.083 1.58-.316 2.422-1.127 2.767-2.662.082-.365.087-.504.103-2.784.011-1.649.002-2.524-.03-2.796-.118-1.016-.525-1.821-1.188-2.348-.653-.519-1.048-.661-3.092-1.115-2.76-.614-4.86-1.085-5.007-1.124l-.147-.038-.016-1.49c-.015-1.4-.021-1.507-.105-1.786-.272-.907-.895-1.803-1.584-2.279-.261-.181-4.406-2.248-5.201-2.594-.643-.28-1.457-.433-2.04-.384M5.431 2.9c.517.174 5.132 2.461 5.372 2.663.408.341.794.972.9 1.472.046.222.056 1.41.056 7.235l.001 6.97H7.782c-3.945 0-3.981-.001-4.204-.084-.315-.118-.656-.458-.772-.769l-.087-.234.011-7.866c.011-7.165.018-7.886.077-8.078.191-.61.534-1.075.94-1.274.314-.154.424-.173.913-.159.353.01.505.034.771.124m-.136 5.376c-.229.039-.369.142-.457.337-.168.37-.051.877.242 1.046.135.078.205.081 2.14.081 2.246 0 2.203.005 2.389-.294.13-.209.13-.683 0-.892-.184-.297-.159-.293-2.269-.3-1.034-.003-1.954.007-2.045.022m9.955 3.531 1.47.329v1.402c-.001 1.517-.017 1.66-.216 1.975a1.7 1.7 0 0 1-.664.603c-.191.09-.272.104-.62.104-.327 0-.435-.016-.589-.087a1.569 1.569 0 0 1-.657-.564c-.246-.371-.253-.437-.254-2.359 0-.952.013-1.73.03-1.731.017 0 .692.148 1.5.328m-9.955.469c-.229.039-.369.142-.457.337-.168.37-.051.877.242 1.046.135.078.205.081 2.14.081 2.246 0 2.203.005 2.389-.294.13-.209.13-.683 0-.892-.184-.297-.159-.293-2.269-.3-1.034-.003-1.954.007-2.045.022m13.695.368c1.02.236 1.361.387 1.704.754.23.246.36.524.449.963.089.443.064.726-.095 1.049a1.52 1.52 0 0 1-.721.704c-.196.091-.279.106-.607.106-.329 0-.411-.015-.609-.107a1.663 1.663 0 0 1-.734-.702l-.117-.231-.012-1.35c-.006-.742-.001-1.35.01-1.35.012 0 .341.074.732.164m-.95 4.583c.522.356 1.005.499 1.68.499.511 0 .923-.085 1.275-.263.111-.057.215-.103.23-.103.052 0-.018 2.088-.081 2.369-.165.747-.515 1.149-1.201 1.382l-.323.109-3.19.012-3.19.011v-2.101c0-1.156.01-2.102.022-2.102.013 0 .107.064.21.143.477.364 1.057.545 1.748.545.524 0 .882-.075 1.288-.27.287-.139.88-.58.92-.685.015-.039.083.002.227.138.113.106.286.248.385.316" fill-rule="evenodd" fill="#000"/></svg>