<svg width="24" height="24" fill="none" xmlns="http://www.w3.org/2000/svg"><path d="M6.458 1.282c-1.381.093-2.503.611-3.205 1.479-.587.726-.888 1.576-.972 2.747-.025.337-.04 3.502-.041 8.137v7.585l-.277.027c-.488.048-.695.269-.695.743 0 .418.175.653.538.723.228.044 20.16.044 20.388 0 .363-.07.538-.305.538-.723 0-.474-.207-.695-.695-.743l-.277-.027v-7.585c-.001-4.635-.016-7.8-.041-8.137-.064-.894-.256-1.605-.593-2.192-.72-1.256-1.906-1.916-3.657-2.036-.659-.045-10.34-.044-11.011.002m11.329 1.521c.367.05.909.223 1.193.381.11.061.319.23.464.374.301.3.539.737.686 1.262l.09.32.011 8.05.01 8.05H3.759l.01-8.05.011-8.05.09-.32c.147-.525.385-.962.686-1.262.145-.144.354-.313.464-.374.268-.149.82-.331 1.14-.377.381-.054 11.232-.058 11.627-.004M6.599 6.85c-.25.127-.332.288-.332.65 0 .362.082.523.332.65.176.089.193.09 1.901.09s1.725-.001 1.901-.09c.25-.127.328-.281.328-.65s-.078-.523-.328-.65c-.176-.089-.193-.09-1.901-.09s-1.725.001-1.901.09m7 0c-.25.127-.332.288-.332.65 0 .362.082.523.332.65.176.089.193.09 1.901.09s1.725-.001 1.901-.09c.25-.127.328-.281.328-.65s-.078-.523-.328-.65c-.176-.089-.193-.09-1.901-.09s-1.725.001-1.901.09m-6.812 4.428c-.342.069-.519.314-.519.722 0 .461.207.692.663.74.137.014.942.02 1.789.013 1.455-.012 1.547-.017 1.676-.093.273-.161.396-.478.327-.845a.646.646 0 0 0-.327-.475c-.13-.076-.214-.08-1.796-.087-.913-.003-1.729.008-1.813.025m7 0c-.342.069-.519.314-.519.722 0 .461.207.692.663.74.137.014.942.02 1.789.013 1.455-.012 1.547-.017 1.676-.093.273-.161.396-.478.327-.845a.646.646 0 0 0-.327-.475c-.13-.076-.214-.08-1.796-.087-.913-.003-1.729.008-1.813.025M6.599 15.85c-.25.127-.332.288-.332.65 0 .362.082.523.332.65.176.089.193.09 1.901.09s1.725-.001 1.901-.09c.25-.127.328-.281.328-.65s-.078-.523-.328-.65c-.176-.089-.193-.09-1.901-.09s-1.725.001-1.901.09m7 0c-.25.127-.332.288-.332.65 0 .362.082.523.332.65.176.089.193.09 1.901.09s1.725-.001 1.901-.09c.25-.127.328-.281.328-.65s-.078-.523-.328-.65c-.176-.089-.193-.09-1.901-.09s-1.725.001-1.901.09" fill-rule="evenodd" fill="#000"/></svg>