<svg width="24" height="24" fill="none" xmlns="http://www.w3.org/2000/svg"><path d="M6.676 1.284c-.813.079-1.624.464-2.244 1.067a3.78 3.78 0 0 0-1.151 2.398c-.056.588-.056 13.914 0 14.502a3.842 3.842 0 0 0 3.462 3.468c.546.053 9.948.053 10.508 0a3.824 3.824 0 0 0 3.468-3.468c.054-.566.054-13.956 0-14.508a3.844 3.844 0 0 0-3.462-3.462c-.486-.048-10.089-.044-10.581.003m10.818 1.539c.135.035.354.12.486.189.316.165.843.692 1.008 1.008.234.448.252.594.252 2.04v1.309l-.11-.029c-.331-.086-1.179-.097-7.13-.097s-6.799.011-7.13.097l-.11.029V6.06c0-1.44.017-1.577.248-2.037.157-.31.689-.85.992-1.005.525-.268.144-.252 5.974-.255 4.689-.003 5.302.004 5.52.06M9.295 4.276c-.229.039-.369.142-.457.337-.168.37-.051.877.242 1.046.137.079.202.081 2.92.081s2.783-.002 2.92-.081a.67.67 0 0 0 .23-.258c.186-.367.073-.885-.23-1.06-.136-.079-.208-.081-2.8-.087-1.463-.003-2.734.007-2.825.022m9.545 4.558c.076.041.192.142.259.224l.121.149v2.586l-.121.149a1.064 1.064 0 0 1-.259.224c-.134.071-.389.074-6.84.074s-6.706-.003-6.84-.074a1.064 1.064 0 0 1-.259-.224l-.121-.149V9.207l.121-.149c.067-.082.183-.183.259-.224.134-.071.389-.074 6.84-.074s6.706.003 6.84.074m-13.6 4.889c.34.045 13.18.045 13.52 0 .143-.019.31-.047.37-.063l.11-.029v2.809c0 2.424-.009 2.842-.063 3.051a2.413 2.413 0 0 1-1.686 1.686c-.215.056-.849.063-5.491.063-5.792 0-5.471.014-5.98-.252-.328-.171-.853-.696-1.012-1.011-.252-.5-.248-.449-.248-3.537v-2.809l.11.029c.061.016.227.044.37.063m2.952 2.76c-.379.056-.654.24-.805.541-.114.226-.162.636-.111.945.098.594.372.867.952.949.501.071.98-.049 1.217-.304.243-.262.349-.716.276-1.185-.091-.588-.368-.864-.949-.948a2.81 2.81 0 0 0-.312-.035c-.022.002-.143.019-.268.037m7 0c-.379.056-.654.24-.805.541-.114.226-.162.636-.111.945.098.594.372.867.952.949.501.071.98-.049 1.217-.304.243-.262.349-.716.276-1.185-.091-.588-.368-.864-.949-.948a2.81 2.81 0 0 0-.312-.035c-.022.002-.143.019-.268.037" fill-rule="evenodd" fill="#000"/></svg>