<svg width="24" height="24" fill="none" xmlns="http://www.w3.org/2000/svg"><path d="M14.891 1.283c-1.657.127-3.303.894-4.508 2.1-1.201 1.2-1.98 2.867-2.095 4.483l-.028.394-.394.028c-1.616.115-3.283.894-4.483 2.095a7.222 7.222 0 0 0-1.747 7.414 7.237 7.237 0 0 0 13.745-.057 6.66 6.66 0 0 0 .333-1.64l.026-.36.36-.026c1.647-.118 3.311-.89 4.517-2.097A7.303 7.303 0 0 0 22.641 9.7a7.788 7.788 0 0 0 0-2.4 7.314 7.314 0 0 0-2.025-3.919 7.217 7.217 0 0 0-4.589-2.101 9.888 9.888 0 0 0-.627-.034l-.509.037m1.749 1.576c.998.22 1.909.674 2.634 1.313A5.827 5.827 0 0 1 21.148 7.4c.102.481.102 1.719 0 2.2a5.827 5.827 0 0 1-1.874 3.228c-.905.798-2.128 1.317-3.299 1.4l-.324.023-.07-.315a7.304 7.304 0 0 0-5.517-5.517l-.315-.07.023-.324c.069-.97.466-2.05 1.058-2.877a7.033 7.033 0 0 1 1.315-1.316c.719-.515 1.526-.848 2.455-1.015.408-.073 1.632-.048 2.04.042M9.6 9.86c.788.171 1.639.542 2.25.98.42.301 1.089.984 1.382 1.411a7.09 7.09 0 0 1 .744 1.529c.19.611.242.987.243 1.76.001.811-.046 1.113-.286 1.82a5.72 5.72 0 0 1-3.573 3.573c-.713.242-1.005.287-1.86.287-.855 0-1.147-.045-1.86-.287a5.711 5.711 0 0 1-3.573-3.573c-.242-.713-.287-1.005-.287-1.86 0-.853.045-1.143.286-1.86a5.544 5.544 0 0 1 1.377-2.197c.88-.88 1.884-1.397 3.157-1.626.401-.072 1.588-.047 2 .043m-1.469 2.459c-.152.093-.204.173-.69 1.066l-.373.684-.717.39c-.394.215-.772.437-.839.494-.242.204-.344.631-.212.887.084.162.221.254 1.044.7l.725.391.39.717c.215.395.436.771.491.836.211.252.626.352.89.216.151-.078.268-.255.72-1.085l.372-.684.717-.39c.394-.215.772-.437.839-.494.242-.204.344-.631.212-.887-.084-.162-.221-.254-1.044-.7l-.725-.391-.39-.717c-.215-.395-.436-.771-.491-.836-.223-.266-.655-.358-.919-.197m.573 2.611c.114.184.198.264.425.398.243.145.273.174.212.21-.433.256-.527.338-.676.595-.086.147-.16.267-.166.267-.005 0-.084-.125-.176-.279-.142-.24-.204-.302-.444-.444A3.098 3.098 0 0 1 7.6 15.5c0-.006.125-.085.279-.177.242-.143.301-.203.448-.45.123-.207.178-.27.202-.229l.175.286" fill-rule="evenodd" fill="#000"/></svg>