<svg width="24" height="24" fill="none" xmlns="http://www.w3.org/2000/svg"><path d="M11.787 1.278a.659.659 0 0 0-.447.326c-.075.127-.081.221-.093 1.386l-.013 1.25H8.769l-.015-.75c-.016-.818-.042-.924-.279-1.1-.226-.168-.724-.168-.95 0-.237.177-.263.279-.285 1.144l-.02.794-.28.089c-.994.318-1.779 1.117-2.045 2.083-.054.195-.07.505-.085 1.652l-.018 1.411-.286.144c-1.024.515-1.734 1.365-2.035 2.433l-.09.32-.012 4.384-.012 4.384-.323.025c-.481.037-.688.191-.757.562-.069.367.054.684.327.845.135.079.208.08 10.396.08s10.261-.001 10.396-.08c.273-.161.396-.478.327-.845-.069-.371-.276-.525-.756-.562l-.323-.025-.015-4.344c-.012-3.802-.022-4.377-.077-4.605a3.853 3.853 0 0 0-.999-1.809c-.285-.284-.863-.688-1.164-.813l-.181-.075-.018-1.421c-.021-1.591-.029-1.653-.314-2.234-.336-.687-1.094-1.312-1.849-1.524l-.247-.07-.02-.797c-.022-.867-.048-.969-.285-1.146-.226-.168-.724-.168-.95 0-.237.176-.263.282-.279 1.1l-.015.75H12.76l-.002-1.13c-.002-1.199-.022-1.416-.148-1.584-.158-.213-.491-.313-.823-.248m5.021 4.652c.216.107.367.219.523.387.339.367.349.415.349 1.77V9.24H6.32V8.087c0-1.339.012-1.402.33-1.75a1.79 1.79 0 0 1 .769-.505c.187-.065.509-.069 4.643-.061l4.442.009.304.15m1.404 4.895c.911.205 1.683.908 1.866 1.699.022.097.04.307.041.466l.001.29h-.19c-.674.002-1.389.481-1.731 1.159-.141.281-.165.389-.196.906-.032.526-.084.673-.296.831-.082.061-.172.084-.327.084-.155 0-.245-.023-.327-.084-.212-.158-.264-.305-.296-.831a4.048 4.048 0 0 0-.069-.605 2.162 2.162 0 0 0-1.468-1.406c-.26-.069-.826-.068-1.08.002a2.112 2.112 0 0 0-1.341 1.103c-.141.281-.165.389-.196.906-.032.526-.084.673-.296.831-.082.061-.172.084-.327.084-.155 0-.245-.023-.327-.084-.212-.158-.264-.305-.296-.831a4.048 4.048 0 0 0-.069-.605 2.162 2.162 0 0 0-1.468-1.406c-.26-.069-.826-.068-1.08.002a2.112 2.112 0 0 0-1.341 1.103c-.141.281-.165.389-.196.906-.032.526-.084.673-.296.831-.082.061-.172.084-.327.084-.155 0-.245-.023-.327-.084-.214-.16-.263-.302-.296-.851-.017-.292-.057-.58-.095-.684a2.13 2.13 0 0 0-1.77-1.386l-.259-.027.028-.324c.051-.597.265-1.032.715-1.45a2.746 2.746 0 0 1 1.184-.632c.216-.046 1.278-.056 6.212-.059 5.351-.003 5.981.004 6.24.062M4.268 14.887c.169.158.212.286.213.641.001.428.084.815.238 1.103.357.669.98 1.074 1.721 1.118.636.039 1.189-.168 1.62-.606.424-.431.618-.931.619-1.597.001-.531.186-.766.601-.766s.6.235.601.766c.002 1.229.807 2.134 1.959 2.203.636.039 1.189-.168 1.62-.606.424-.431.618-.931.619-1.597.001-.531.186-.766.601-.766s.6.235.601.766c.002 1.229.807 2.134 1.959 2.203.636.039 1.189-.168 1.62-.606.424-.431.618-.931.619-1.597.001-.476.158-.718.501-.774l.14-.022v6.49H3.84v-3.233c0-1.779.01-3.244.022-3.256.044-.044.308.045.406.136" fill-rule="evenodd" fill="#000"/></svg>