<svg width="24" height="24" fill="none" xmlns="http://www.w3.org/2000/svg"><path d="M9.08 1.282c-4.072.213-6.185 2.014-6.697 5.709-.113.812-.141 1.825-.141 5.009 0 4.504.06 5.273.518 6.65.772 2.313 2.446 3.576 5.267 3.972.704.099 1.819.137 3.973.137 3.375 0 4.369-.091 5.644-.517 2.322-.776 3.581-2.445 3.978-5.269.106-.759.137-1.875.137-4.973s-.031-4.214-.137-4.973c-.263-1.87-.936-3.286-1.981-4.17-1.164-.983-2.63-1.461-4.835-1.577-.851-.045-4.854-.043-5.726.002m6.72 1.573c2.782.457 3.914 1.599 4.348 4.385.066.421.072.824.072 4.76s-.006 4.339-.072 4.76c-.436 2.798-1.59 3.952-4.388 4.388-.415.065-.785.072-3.76.072-2.975 0-3.345-.007-3.76-.072-2.79-.435-3.957-1.597-4.386-4.368-.069-.445-.074-.791-.074-4.78 0-3.989.005-4.335.074-4.78.375-2.423 1.334-3.614 3.346-4.155 1.041-.28 1.356-.298 5-.288 2.798.007 3.23.017 3.6.078M8.679 5.358c-.878.117-1.654.823-1.859 1.692-.082.347-.082 1.713 0 2.06.173.732.791 1.393 1.518 1.621.282.089.284.089 3.662.089s3.38 0 3.662-.089c.727-.228 1.345-.889 1.518-1.621.082-.348.082-1.713 0-2.061-.173-.733-.763-1.371-1.497-1.619-.262-.088-.272-.088-3.523-.095-1.793-.004-3.359.007-3.481.023m6.726 1.597c.077.053.183.161.237.24.092.137.099.183.112.8.011.535.001.686-.053.827-.08.211-.33.445-.509.477-.072.014-1.557.019-3.299.013-3.129-.012-3.169-.013-3.278-.095a1.647 1.647 0 0 1-.233-.233l-.122-.151-.014-.602a7.6 7.6 0 0 1 .012-.771c.03-.198.25-.481.439-.564.1-.044.721-.052 3.346-.045l3.223.009.139.095M7.82 13.039c-.47.121-.66.397-.66.961 0 .627.254.925.841.986.274.029.614-.039.79-.158.331-.223.451-.921.233-1.361a.885.885 0 0 0-.233-.295c-.225-.151-.666-.211-.971-.133m3.75.036c-.414.143-.548.369-.548.925 0 .421.076.634.283.797.404.317 1.271.23 1.525-.153.274-.413.203-1.175-.134-1.44-.253-.199-.757-.256-1.126-.129m3.97-.039c-.487.136-.658.387-.658.964 0 .699.275.974.978.974s.978-.275.978-.974c0-.497-.139-.761-.478-.906-.166-.071-.65-.105-.82-.058M7.682 16.57c-.189.063-.414.298-.473.496a1.89 1.89 0 0 0-.049.434c0 .36.068.568.242.742.184.184.421.251.825.232.538-.025.813-.253.888-.734.078-.509-.083-.943-.415-1.116-.188-.099-.788-.13-1.018-.054m3.863.009c-.45.16-.661.737-.485 1.329.072.24.295.465.527.529.197.055.629.055.826 0 .357-.099.587-.466.587-.937 0-.471-.23-.838-.587-.937-.213-.059-.682-.05-.868.016m3.857-.009c-.195.065-.429.313-.482.511-.025.092-.045.28-.045.419 0 .361.065.56.24.735.192.192.423.258.832.239.542-.025.822-.258.884-.734.07-.54-.077-.942-.411-1.116-.188-.099-.788-.13-1.018-.054" fill-rule="evenodd" fill="#000"/></svg>