<svg width="24" height="24" fill="none" xmlns="http://www.w3.org/2000/svg"><path d="M7.787 1.278a.652.652 0 0 0-.444.322c-.062.107-.081.233-.095.661l-.018.53-.245.026c-2.173.229-3.77 1.461-4.401 3.395-.156.476-.259 1.084-.304 1.778-.052.822-.052 8.715 0 9.536.083 1.29.375 2.233.961 3.093.602.884 1.502 1.516 2.62 1.84.958.278 1.398.299 6.139.299 3.92 0 4.791-.021 5.441-.135 1.456-.256 2.597-.945 3.318-2.004.583-.857.879-1.808.961-3.093.051-.804.051-8.751 0-9.546-.105-1.623-.535-2.729-1.422-3.657-.796-.833-1.959-1.366-3.283-1.506l-.245-.026-.018-.53c-.019-.574-.063-.711-.277-.871-.226-.168-.724-.168-.95 0-.212.158-.257.297-.277.855l-.019.515H8.76l-.002-.39c-.003-.642-.078-.866-.342-1.016-.144-.081-.427-.115-.629-.076m7.461 3.477c.015.412.034.541.095.646.106.18.254.281.472.322.227.042.518-.007.66-.113.209-.156.256-.298.277-.834l.019-.495.164.023c1.883.268 2.968 1.334 3.242 3.185.035.232.063.522.063.646v.225H3.76v-.225c0-.338.112-1.026.227-1.391.321-1.026 1.007-1.784 1.936-2.143.312-.12.809-.249 1.142-.297l.164-.023.019.495c.021.536.068.678.277.834.226.168.724.168.95 0 .212-.158.257-.297.277-.855l.019-.515h6.458l.019.515m4.982 9.155-.014 4.07-.105.425c-.195.791-.469 1.314-.931 1.775-.468.468-.992.741-1.795.933l-.445.107H7.06l-.445-.107c-1.524-.365-2.351-1.186-2.726-2.708l-.105-.425-.014-4.07-.013-4.07h16.486l-.013 4.07M7.842 12.772c-.194.062-.429.31-.482.509a1.975 1.975 0 0 0 0 .838c.056.21.291.448.506.512.21.063.658.063.868 0a.831.831 0 0 0 .497-.497c.063-.21.063-.658 0-.868a.831.831 0 0 0-.497-.497c-.198-.059-.702-.057-.892.003m3.703.007c-.45.16-.661.737-.485 1.329.072.24.295.465.527.529.197.055.629.055.826 0 .357-.099.587-.466.587-.937 0-.471-.23-.838-.587-.937-.213-.059-.682-.05-.868.016m-3.703 2.993c-.194.062-.429.31-.482.509a1.975 1.975 0 0 0 0 .838c.056.21.291.448.506.512.21.063.658.063.868 0a.831.831 0 0 0 .497-.497c.063-.21.063-.658 0-.868a.831.831 0 0 0-.497-.497c-.198-.059-.702-.057-.892.003" fill-rule="evenodd" fill="#000"/></svg>