<svg width="24" height="24" fill="none" xmlns="http://www.w3.org/2000/svg"><path d="M7.787 1.278a.652.652 0 0 0-.444.322c-.062.107-.081.233-.095.661l-.018.53-.245.026c-2.173.229-3.77 1.461-4.401 3.395-.156.476-.259 1.084-.304 1.778-.052.822-.052 8.715 0 9.536.083 1.29.375 2.233.961 3.093.602.884 1.502 1.516 2.62 1.84.945.274 1.424.299 5.731.3l3.531.001.219.162c.403.297 1.088.599 1.625.716.366.08 1.047.117 1.465.081 2.254-.197 4.09-2.033 4.287-4.287a5.12 5.12 0 0 0-.232-1.992c-.1-.289-.362-.8-.565-1.1l-.162-.24-.001-3.76c-.001-4.495-.024-4.979-.284-5.927-.554-2.025-2.208-3.358-4.46-3.596l-.245-.026-.018-.53c-.019-.574-.063-.711-.277-.871-.226-.168-.724-.168-.95 0-.212.158-.257.297-.277.855l-.019.515H8.76l-.002-.39c-.003-.642-.078-.866-.342-1.016-.144-.081-.427-.115-.629-.076m7.461 3.477c.015.412.034.541.095.646.106.18.254.281.472.322.227.042.518-.007.66-.113.209-.156.256-.298.277-.834l.019-.495.164.023c1.883.268 2.968 1.334 3.242 3.185.035.232.063.522.063.646v.225H3.76v-.225c0-.338.112-1.026.227-1.391.321-1.026 1.007-1.784 1.936-2.143.312-.12.809-.249 1.142-.297l.164-.023.019.495c.021.536.068.678.277.834.226.168.724.168.95 0 .212-.158.257-.297.277-.855l.019-.515h6.458l.019.515m4.992 7.565c0 1.364-.01 2.48-.021 2.48a.417.417 0 0 1-.11-.056 4.154 4.154 0 0 0-.469-.197 4.73 4.73 0 0 0-4.997 1.096 4.742 4.742 0 0 0-.992 5.269l.145.332-3.388-.014-3.388-.014-.425-.105c-1.512-.372-2.333-1.193-2.706-2.706l-.105-.425-.014-4.07-.013-4.07H20.24v2.48m-12.398.452c-.194.062-.429.31-.482.509a1.975 1.975 0 0 0 0 .838c.056.21.291.448.506.512.21.063.658.063.868 0a.831.831 0 0 0 .497-.497c.063-.21.063-.658 0-.868a.831.831 0 0 0-.497-.497c-.198-.059-.702-.057-.892.003m3.703.007c-.45.16-.661.737-.485 1.329.072.24.295.465.527.529.197.055.629.055.826 0 .357-.099.587-.466.587-.937 0-.471-.23-.838-.587-.937-.213-.059-.682-.05-.868.016m-3.703 2.993c-.194.062-.429.31-.482.509a1.975 1.975 0 0 0 0 .838c.056.21.291.448.506.512.21.063.658.063.868 0a.831.831 0 0 0 .497-.497c.063-.21.063-.658 0-.868a.831.831 0 0 0-.497-.497c-.198-.059-.702-.057-.892.003m10.978.088c.876.238 1.702.914 2.098 1.717.224.454.289.726.311 1.303.016.42.005.555-.066.84-.24.965-.853 1.745-1.698 2.161-.531.262-.922.359-1.449.359-.933 0-1.621-.285-2.291-.95a3.242 3.242 0 0 1-.518-3.949c.215-.364.77-.919 1.134-1.134.31-.182.745-.347 1.069-.405.299-.054 1.125-.02 1.41.058m.466 1.448c-.073.036-.515.42-.982.853l-.848.788-.343-.331c-.393-.38-.555-.453-.838-.377-.221.06-.534.373-.594.594-.087.324-.023.432.673 1.138.344.349.693.669.774.711a.654.654 0 0 0 .577.011c.128-.061 1.519-1.317 2.225-2.009.375-.368.468-.561.393-.811-.053-.179-.316-.488-.489-.578a.668.668 0 0 0-.548.011" fill-rule="evenodd" fill="#000"/></svg>