<svg width="24" height="24" fill="none" xmlns="http://www.w3.org/2000/svg"><path d="M7.787 1.278a.652.652 0 0 0-.444.322c-.062.107-.081.233-.095.661l-.018.53-.245.026c-2.173.229-3.77 1.461-4.401 3.395-.156.476-.259 1.084-.304 1.778-.052.822-.052 8.715 0 9.536.083 1.29.375 2.233.961 3.093.602.884 1.502 1.516 2.62 1.84.945.274 1.425.299 5.714.3l3.514.001.266.175c.824.545 1.65.792 2.645.792 1.26 0 2.358-.434 3.256-1.286.968-.919 1.471-2.097 1.471-3.441 0-.995-.247-1.821-.792-2.645l-.175-.266-.001-3.754c-.001-4.49-.024-4.974-.284-5.922-.554-2.025-2.208-3.358-4.46-3.596l-.245-.026-.018-.53c-.019-.574-.063-.711-.277-.871-.226-.168-.724-.168-.95 0-.212.158-.257.297-.277.855l-.019.515H8.76l-.002-.39c-.003-.642-.078-.866-.342-1.016-.144-.081-.427-.115-.629-.076m7.461 3.477c.015.412.034.541.095.646.106.18.254.281.472.322.227.042.518-.007.66-.113.209-.156.256-.298.277-.834l.019-.495.164.023c1.883.268 2.968 1.334 3.242 3.185.035.232.063.522.063.646v.225H3.76v-.225c0-.338.112-1.026.227-1.391.321-1.026 1.007-1.784 1.936-2.143.312-.12.809-.249 1.142-.297l.164-.023.019.495c.021.536.068.678.277.834.226.168.724.168.95 0 .212-.158.257-.297.277-.855l.019-.515h6.458l.019.515m4.992 7.565c0 1.364-.014 2.48-.032 2.48-.018 0-.049-.017-.07-.037-.057-.056-.625-.274-.941-.361a5.602 5.602 0 0 0-.757-.125 4.662 4.662 0 0 0-2.78.59c-2.141 1.234-2.984 3.791-2 6.065l.136.312-3.388-.014-3.388-.014-.425-.105c-1.512-.372-2.333-1.193-2.706-2.706l-.105-.425-.014-4.07-.013-4.07H20.24v2.48m-12.398.452c-.194.062-.429.31-.482.509a1.975 1.975 0 0 0 0 .838c.056.21.291.448.506.512.21.063.658.063.868 0a.831.831 0 0 0 .497-.497c.063-.21.063-.658 0-.868a.831.831 0 0 0-.497-.497c-.198-.059-.702-.057-.892.003m3.703.007c-.45.16-.661.737-.485 1.329.072.24.295.465.527.529.197.055.629.055.826 0 .357-.099.587-.466.587-.937 0-.471-.23-.838-.587-.937-.213-.059-.682-.05-.868.016m-3.703 2.993c-.194.062-.429.31-.482.509a1.975 1.975 0 0 0 0 .838c.056.21.291.448.506.512.21.063.658.063.868 0a.831.831 0 0 0 .497-.497c.063-.21.063-.658 0-.868a.831.831 0 0 0-.497-.497c-.198-.059-.702-.057-.892.003m10.978.086a3.385 3.385 0 0 1 2.288 2.162c.101.296.109.369.109.98s-.008.684-.109.98c-.18.535-.396.877-.824 1.304-.427.428-.769.644-1.304.824-.296.101-.369.109-.98.109s-.684-.008-.98-.109a3.33 3.33 0 0 1-1.958-1.752 2.834 2.834 0 0 1-.29-1.176c-.054-.977.25-1.769.944-2.464.495-.494 1.065-.802 1.694-.914.3-.054 1.126-.021 1.41.056m-2.083 1.399a1.192 1.192 0 0 0-.499.468c-.165.322-.078.543.399 1.014l.323.319-.334.341c-.432.44-.466.494-.466.744 0 .5.625.932 1.039.718.072-.038.288-.219.479-.403l.347-.335.298.302c.339.344.524.455.757.455.203 0 .337-.069.525-.267.191-.201.235-.294.235-.492 0-.234-.111-.419-.455-.758l-.301-.297.334-.351c.356-.374.447-.548.408-.785-.052-.322-.456-.69-.757-.69-.234 0-.378.087-.729.44l-.316.318-.327-.318c-.313-.306-.587-.479-.757-.478a.675.675 0 0 0-.203.055" fill-rule="evenodd" fill="#000"/></svg>