<svg width="24" height="24" fill="none" xmlns="http://www.w3.org/2000/svg"><path d="M7.787 1.278a.65.65 0 0 0-.443.321c-.061.103-.081.241-.1.675l-.024.545-.32.047c-.793.117-1.358.287-1.949.587-1.708.868-2.513 2.471-2.671 5.317-.05.904-.05 6.989 0 7.984.089 1.758.383 2.891.987 3.799.881 1.323 2.346 1.999 4.693 2.165.76.054 7.32.054 8.08 0 3.075-.217 4.705-1.334 5.362-3.672.303-1.078.357-2.043.357-6.306-.001-4.151-.041-4.911-.324-6.059-.367-1.491-1.053-2.474-2.186-3.134-.52-.303-1.349-.569-2.113-.678l-.356-.05-.024-.545c-.025-.59-.069-.726-.281-.884-.226-.168-.724-.168-.95 0-.212.158-.257.297-.277.855l-.019.515H8.76l-.002-.39c-.003-.642-.078-.866-.342-1.016-.144-.081-.427-.115-.629-.076m7.461 3.477c.015.412.034.541.095.646.106.18.254.281.472.322.227.042.518-.007.66-.113.206-.154.255-.298.276-.815l.02-.478.185.026c.332.048.904.206 1.219.337.964.402 1.568 1.228 1.848 2.526.194.902.19.8.206 5.344l.015 4.29H3.756l.015-4.29c.016-4.544.012-4.442.206-5.344.364-1.69 1.203-2.507 2.897-2.824.184-.034.339-.062.345-.062.005 0 .019.214.03.476.021.516.07.66.276.814.226.168.724.168.95 0 .212-.158.257-.297.277-.855l.019-.515h6.458l.019.515m-3.659 3.528c-1.03.14-1.715.755-1.827 1.641-.076.604.095 1.134.484 1.498l.207.193-.097.063c-.531.344-.836.92-.836 1.582 0 .933.549 1.595 1.547 1.867.256.07.425.085.933.085s.677-.015.933-.085c1.005-.273 1.547-.937 1.547-1.892 0-.64-.266-1.14-.82-1.542l-.12-.087.165-.142c.356-.306.534-.728.534-1.264-.001-.557-.162-.965-.519-1.32-.473-.469-1.32-.707-2.131-.597m.847 1.301c.303.127.457.361.457.696 0 .488-.347.798-.893.798s-.893-.31-.893-.798c0-.42.212-.65.713-.775.123-.03.457.013.616.079m.099 2.657c.768.288.814 1.281.076 1.643-.279.137-.943.137-1.222 0-.499-.245-.675-.798-.405-1.271.168-.293.508-.446 1.004-.45.239-.002.389.019.547.078m7.485 6.209a6.026 6.026 0 0 1-.318.89c-.556 1.193-1.741 1.77-3.902 1.9-.857.051-6.696.051-7.587-.001-2.129-.123-3.309-.681-3.892-1.839a6.536 6.536 0 0 1-.341-.95l-.025-.09h16.09l-.025.09" fill-rule="evenodd" fill="#000"/></svg>