<svg width="24" height="24" fill="none" xmlns="http://www.w3.org/2000/svg"><path d="M7.787 1.278a.652.652 0 0 0-.444.322c-.062.107-.081.233-.095.661l-.018.53-.245.026c-2.173.229-3.77 1.461-4.401 3.395-.156.476-.259 1.084-.304 1.778-.052.822-.052 8.715 0 9.536.083 1.29.375 2.233.961 3.093.602.884 1.502 1.516 2.62 1.84.89.258 1.664.31 4.379.293 1.936-.011 2.026-.015 2.156-.092a.646.646 0 0 0 .327-.475c.069-.367-.054-.684-.327-.845-.131-.077-.23-.081-2.756-.103l-2.62-.024-.425-.103c-1.507-.367-2.333-1.192-2.706-2.705l-.105-.425-.014-4.07-.013-4.07h16.477l.013 1.21c.012 1.125.019 1.22.093 1.346a.646.646 0 0 0 .475.327c.367.069.684-.054.845-.327.076-.129.081-.221.093-1.876.018-2.392-.039-3.235-.278-4.107-.553-2.024-2.208-3.358-4.46-3.596l-.245-.026-.018-.53c-.019-.574-.063-.711-.277-.871-.226-.168-.724-.168-.95 0-.212.158-.257.297-.277.855l-.019.515H8.76l-.002-.39c-.003-.642-.078-.866-.342-1.016-.144-.081-.427-.115-.629-.076m7.461 3.477c.015.412.034.541.095.646.106.18.254.281.472.322.227.042.518-.007.66-.113.209-.156.256-.298.277-.834l.019-.495.164.023c1.883.268 2.968 1.334 3.242 3.185.035.232.063.522.063.646v.225H3.76v-.225c0-.338.112-1.026.227-1.391.321-1.026 1.007-1.784 1.936-2.143.312-.12.809-.249 1.142-.297l.164-.023.019.495c.021.536.068.678.277.834.226.168.724.168.95 0 .212-.158.257-.297.277-.855l.019-.515h6.458l.019.515m-7.406 8.017c-.194.062-.429.31-.482.509a1.975 1.975 0 0 0 0 .838c.056.21.291.448.506.512.21.063.658.063.868 0a.831.831 0 0 0 .497-.497c.063-.21.063-.658 0-.868a.831.831 0 0 0-.497-.497c-.198-.059-.702-.057-.892.003m3.703.007c-.45.16-.661.737-.485 1.329.072.24.295.465.527.529.197.055.629.055.826 0 .357-.099.587-.466.587-.937 0-.471-.23-.838-.587-.937-.213-.059-.682-.05-.868.016m8.386 1.721c-.374.082-.757.305-1.197.698-.47.42-3.458 3.416-3.69 3.7-.311.381-.365.56-.546 1.822-.085.589-.064 1.037.058 1.274.134.259.385.511.631.631.329.161.635.165 1.613.019 1.243-.186 1.075-.075 3-1.973.869-.857 1.603-1.579 1.631-1.604.206-.19.818-.892.945-1.083.232-.35.342-.699.343-1.087.002-.629-.215-1.082-.795-1.66-.314-.313-.448-.415-.724-.551-.315-.155-.673-.25-.92-.243a3.005 3.005 0 0 0-.349.057M7.842 15.772c-.194.062-.429.31-.482.509a1.975 1.975 0 0 0 0 .838c.056.21.291.448.506.512.21.063.658.063.868 0a.831.831 0 0 0 .497-.497c.063-.21.063-.658 0-.868a.831.831 0 0 0-.497-.497c-.198-.059-.702-.057-.892.003m12.719.254c.337.224.679.659.679.865 0 .118-.184.406-.376.588l-.147.139-.188-.098c-.243-.126-.723-.606-.85-.849l-.098-.189.18-.186c.098-.102.233-.219.299-.261.148-.092.37-.097.501-.009m-1.833 1.873c.201.26.517.56.797.756l.094.066-1.16 1.16c-.637.638-1.186 1.168-1.219 1.179-.08.024-1.145.18-1.235.18-.068 0-.066-.036.022-.65l.094-.65 1.169-1.17c.643-.643 1.179-1.169 1.19-1.167.011.001.122.135.248.296" fill-rule="evenodd" fill="#000"/></svg>