<svg width="24" height="24" fill="none" xmlns="http://www.w3.org/2000/svg"><path d="M11.32 1.281c-4.279.244-8.068 3.128-9.477 7.216a10.886 10.886 0 0 0-.279 6.053 10.76 10.76 0 0 0 7.886 7.886 10.96 10.96 0 0 0 5.1 0 10.76 10.76 0 0 0 7.886-7.886 10.96 10.96 0 0 0 0-5.1 10.758 10.758 0 0 0-8.694-8.052c-.408-.067-1.668-.169-1.862-.151l-.56.034m1.826 1.541a9.086 9.086 0 0 1 2.914.874c2.817 1.383 4.708 4.026 5.118 7.158.123.932.066 2.172-.144 3.144-.289 1.345-1.031 2.857-1.913 3.902a9.31 9.31 0 0 1-3.061 2.404 8.94 8.94 0 0 1-4.06.936 8.93 8.93 0 0 1-4.06-.936c-2.817-1.383-4.708-4.026-5.118-7.158-.123-.932-.066-2.172.144-3.144.211-.982.737-2.227 1.302-3.082a9.335 9.335 0 0 1 6.552-4.097c.56-.077 1.749-.077 2.326-.001M9.585 5.119a.728.728 0 0 0-.356.301c-.025.044-.055.212-.067.374l-.022.293-.333.115c-1.423.493-2.46 1.608-2.861 3.078-.177.648-.192.914-.175 3.1.014 1.907.02 2.063.1 2.4.456 1.94 1.806 3.228 3.726 3.556.555.094 4.251.094 4.806 0 1.727-.295 3.068-1.436 3.59-3.056.22-.685.227-.776.227-3.1 0-1.687-.012-2.221-.056-2.44-.176-.886-.527-1.637-1.061-2.274-.422-.501-1.205-1.02-1.91-1.264l-.333-.115-.022-.303c-.023-.323-.082-.444-.293-.602-.09-.066-.17-.082-.418-.082-.484 0-.702.178-.754.616l-.024.204h-2.698l-.024-.204c-.048-.406-.256-.595-.679-.62-.136-.008-.3.003-.363.023m3.782 2.661c.018.407.06.507.288.677.156.117.667.137.862.035.215-.113.297-.256.316-.552.009-.143.033-.26.053-.26.073 0 .42.196.662.374.136.1.346.302.467.449.207.25.505.754.505.853 0 .032-1.25.044-4.52.044-3.27 0-4.52-.012-4.52-.044 0-.099.298-.603.505-.853.121-.147.331-.349.467-.449.242-.178.589-.374.662-.374.02 0 .044.117.053.26.019.296.101.439.316.552.195.102.706.082.862-.035.228-.17.27-.27.288-.677l.017-.38h2.7l.017.38m3.382 4.8c-.016 1.632-.021 1.736-.106 2.04a3.015 3.015 0 0 1-.895 1.484c-.348.323-.708.527-1.208.683l-.36.112H9.82l-.36-.112a2.931 2.931 0 0 1-1.224-.699c-.449-.421-.704-.849-.883-1.485-.08-.283-.087-.417-.102-2.023l-.017-1.72h9.532l-.017 1.72" fill-rule="evenodd" fill="#000"/></svg>