<svg width="24" height="24" fill="none" xmlns="http://www.w3.org/2000/svg"><path d="M5.32 1.268c-1.185.089-2.486 1-3.247 2.272-.782 1.307-.998 2.836-.648 4.595.693 3.492 4.069 8.076 8.375 11.373 1.831 1.403 3.91 2.513 5.481 2.927 1.527.403 2.87.402 4.059-.004 1.344-.458 2.475-1.463 3.056-2.715.29-.626.384-1.287.268-1.878-.088-.452-.328-.937-.596-1.21-.23-.233-3.735-2.735-4.151-2.963-.8-.439-1.497-.478-2.219-.123-.401.197-.702.43-1.314 1.02l-.412.396-.228-.137c-1.127-.679-3.799-3.351-4.612-4.612l-.136-.212.505-.528c1.156-1.211 1.4-1.963.978-3.019-.165-.412-.182-.438-1.615-2.47-.817-1.159-1.331-1.849-1.503-2.02-.499-.494-1.257-.752-2.041-.692m9.473.01a.64.64 0 0 0-.418.264c-.154.235-.147.716.015.933.152.203.285.247.877.286.795.052 1.2.131 1.833.356a6.238 6.238 0 0 1 3.482 3.086c.412.822.589 1.502.657 2.53.039.592.083.725.286.877.217.162.698.169.933.015.257-.169.311-.41.259-1.165a7.726 7.726 0 0 0-3.44-5.918 8.056 8.056 0 0 0-2.33-1.039c-.663-.173-1.81-.292-2.154-.225M6.054 2.859c.115.054.256.149.313.21.136.145 2.448 3.411 2.598 3.671.189.326.243.555.178.745-.083.241-.209.4-.844 1.071-.321.338-.617.683-.659.765-.178.347-.172.89.012 1.293.505 1.102 3.235 4.008 4.862 5.174.808.58 1.241.744 1.739.658.369-.063.483-.136 1.007-.645.647-.627.872-.819 1.076-.915.257-.121.438-.109.765.049.319.153 3.745 2.566 3.903 2.748.298.343.267 1.052-.071 1.634-.266.459-.745.965-1.213 1.283-.298.202-.785.413-1.214.526-.414.108-1.266.144-1.815.075-2.415-.3-5.551-2.175-8.525-5.099-2.84-2.791-4.804-5.872-5.293-8.304-.123-.615-.133-1.767-.019-2.255a4.733 4.733 0 0 1 .571-1.351c.242-.364.764-.895 1.076-1.094.536-.343 1.137-.436 1.553-.239m8.545 1.991c-.25.127-.332.288-.332.65 0 .502.182.687.732.742.708.072 1.409.519 2.037 1.299.416.517.724 1.161.724 1.512 0 .225.145.505.312.601.095.054.213.076.425.077.365.002.524-.078.656-.332.082-.158.091-.219.074-.519-.081-1.427-1.636-3.363-3.137-3.908-.627-.227-1.191-.274-1.491-.122" fill-rule="evenodd" fill="#000"/></svg>