<svg width="24" height="24" fill="none" xmlns="http://www.w3.org/2000/svg"><path d="M21.8 1.245c-.111.032-1.287 1.187-5.586 5.484l-5.447 5.443-.218-.236c-.657-.711-1.193-1.367-1.445-1.768l-.107-.172.504-.528c.587-.614.944-1.124 1.07-1.528.187-.6.085-1.272-.291-1.916-.218-.372-2.606-3.737-2.827-3.983-.354-.395-.971-.693-1.569-.76-.887-.1-1.82.215-2.619.884-1.44 1.204-2.123 2.906-1.981 4.93.185 2.628 1.845 5.75 4.788 9.005l.361.4-2.573 2.58c-2.287 2.293-2.579 2.599-2.618 2.75-.067.254.002.458.236.692.234.234.437.303.692.237.154-.04 1.143-1.017 10.302-10.172 5.572-5.57 10.17-10.189 10.217-10.264a.625.625 0 0 0-.032-.692c-.229-.325-.557-.472-.857-.386M6.054 2.859c.115.054.256.149.313.21.136.145 2.448 3.411 2.598 3.671.189.326.243.555.178.745-.083.241-.209.4-.844 1.071-.321.338-.617.683-.659.765-.178.347-.172.89.012 1.293.205.448.786 1.22 1.581 2.101.246.273.447.507.447.521 0 .013-.492.516-1.094 1.118l-1.093 1.093-.438-.494c-2.342-2.636-3.761-5.064-4.182-7.155-.123-.615-.133-1.767-.019-2.255.103-.438.342-1.006.566-1.342.231-.349.765-.898 1.064-1.096.519-.344 1.154-.443 1.57-.246M16.32 13.326c-.339.047-.897.322-1.254.617-.149.122-.455.4-.681.618l-.409.394-.158-.09a6.743 6.743 0 0 1-.394-.257c-.376-.266-.63-.27-.911-.017-.299.271-.402.588-.279.865.087.198.394.448.907.742.406.233.752.31 1.112.248.369-.063.483-.136 1.007-.645.864-.838 1.093-1.001 1.411-1.001.272 0 .679.248 2.329 1.419 1.984 1.407 2.018 1.433 2.097 1.601.22.464.12 1.074-.276 1.68-.2.305-.769.879-1.081 1.088-.598.401-1.296.614-2.109.643-.664.023-1.151-.032-1.851-.211-.689-.176-1.241-.394-2.138-.844-.957-.48-1.891-1.066-2.911-1.823-.232-.173-.542-.202-.752-.072-.305.188-.498.586-.421.87.061.23.272.412 1.282 1.11.989.683 2.512 1.497 3.501 1.871 1.805.683 3.566.788 4.999.299 1.344-.458 2.475-1.463 3.056-2.715.29-.626.384-1.287.268-1.878-.089-.452-.328-.937-.596-1.209-.226-.229-3.566-2.618-4.088-2.923-.555-.326-1.124-.456-1.66-.38" fill-rule="evenodd" fill="#000"/></svg>