<svg width="24" height="24" fill="none" xmlns="http://www.w3.org/2000/svg"><path d="M5.32 1.268c-1.185.089-2.486 1-3.247 2.272-.782 1.307-.998 2.836-.648 4.595.693 3.492 4.069 8.076 8.375 11.373 1.831 1.403 3.91 2.513 5.481 2.927 1.527.403 2.87.402 4.059-.004 1.344-.458 2.475-1.463 3.056-2.715.29-.626.384-1.287.268-1.878-.088-.452-.328-.937-.596-1.21-.23-.233-3.735-2.735-4.151-2.963-.8-.439-1.497-.478-2.219-.123-.401.197-.702.43-1.314 1.02l-.412.396-.228-.137c-1.127-.679-3.799-3.351-4.612-4.612l-.136-.212.505-.528c1.156-1.211 1.4-1.963.978-3.019-.165-.412-.182-.438-1.615-2.47-.817-1.159-1.331-1.849-1.503-2.02-.499-.494-1.257-.752-2.041-.692m.734 1.591c.115.054.256.149.313.21.136.145 2.448 3.411 2.598 3.671.189.326.243.555.178.745-.083.241-.209.4-.844 1.071-.321.338-.617.683-.659.765-.178.347-.172.89.012 1.293.505 1.102 3.235 4.008 4.862 5.174.808.58 1.241.744 1.739.658.369-.063.483-.136 1.007-.645.647-.627.872-.819 1.076-.915.257-.121.438-.109.765.049.319.153 3.745 2.566 3.903 2.748.298.343.267 1.052-.071 1.634-.266.459-.745.965-1.213 1.283-.298.202-.785.413-1.214.526-.414.108-1.266.144-1.815.075-2.415-.3-5.551-2.175-8.525-5.099-2.84-2.791-4.804-5.872-5.293-8.304-.123-.615-.133-1.767-.019-2.255a4.733 4.733 0 0 1 .571-1.351c.242-.364.764-.895 1.076-1.094.536-.343 1.137-.436 1.553-.239m11.545-.009c-.322.164-.337.22-.352 1.376l-.014 1.006-1.006.014c-1.157.016-1.213.031-1.377.353-.186.367-.073.885.23 1.06.128.074.224.082 1.147.095l1.006.014.014 1.006c.012.923.02 1.018.094 1.146.245.424 1.073.424 1.318 0 .074-.128.082-.224.095-1.147l.014-1.006 1.006-.014c1.156-.015 1.212-.03 1.376-.352.186-.367.073-.885-.23-1.06-.128-.074-.223-.082-1.146-.094l-1.006-.014-.014-1.006c-.013-.923-.021-1.019-.095-1.147-.111-.193-.373-.32-.659-.32a.86.86 0 0 0-.401.09" fill-rule="evenodd" fill="#000"/></svg>