<svg width="24" height="24" fill="none" xmlns="http://www.w3.org/2000/svg"><path d="M10.54 1.278c-.533.057-.975.21-1.533.529-.838.478-1.184.885-1.814 2.133-.244.484-.476.926-.516.982-.146.209-.411.305-.972.354-1.006.087-1.69.345-2.463.927-.753.568-1.329 1.435-1.59 2.393-.181.666-.172 1.074.127 5.804.145 2.299.289 4.342.321 4.54.236 1.491.964 2.59 2.14 3.234.581.318 1.209.484 2.069.546.745.053 10.651.052 11.402-.002 2.374-.17 3.882-1.564 4.205-3.888.023-.167.161-2.173.306-4.457.298-4.701.307-5.111.126-5.777A4.5 4.5 0 0 0 19.119 5.4c-.17-.044-.541-.1-.824-.125-.536-.047-.7-.099-.9-.285-.058-.053-.314-.51-.569-1.014-.532-1.05-.777-1.395-1.268-1.788a4.442 4.442 0 0 0-1.638-.834c-.272-.075-.432-.084-1.7-.095-.77-.006-1.526.002-1.68.019m3.311 1.617c.374.158.698.375.965.646.192.195.295.367.682 1.136.507 1.009.705 1.303 1.048 1.558.483.358.781.457 1.574.522.567.046.879.134 1.32.37A2.972 2.972 0 0 1 21 9.715c0 .467-.511 8.56-.563 8.917-.163 1.11-.659 1.867-1.481 2.261-.741.355-.15.327-6.956.327H5.98l-.34-.092c-.701-.191-1.238-.557-1.585-1.078-.211-.317-.403-.85-.475-1.318-.064-.416-.58-8.441-.58-9.015a2.972 2.972 0 0 1 1.558-2.59c.442-.234.756-.323 1.301-.368.612-.051.802-.091 1.111-.233.351-.161.687-.424.894-.7.097-.129.373-.625.613-1.101.239-.476.497-.942.572-1.037.28-.353.724-.655 1.228-.834.26-.093.278-.094 1.783-.084l1.52.01.271.115m-3.556 4.381c-.229.039-.369.142-.457.337-.168.37-.051.877.242 1.046.135.078.206.081 1.92.081s1.785-.003 1.92-.081a.67.67 0 0 0 .23-.258c.186-.367.073-.885-.23-1.06-.134-.077-.213-.081-1.8-.087-.913-.004-1.734.006-1.825.022m1.066 3.527a4.002 4.002 0 0 0-2.181 1.135 3.883 3.883 0 0 0-1.126 2.238c-.294 1.918.902 3.812 2.766 4.38a3.984 3.984 0 0 0 3.397-.493c1.269-.847 1.957-2.394 1.729-3.887-.247-1.614-1.373-2.866-2.966-3.296-.368-.1-1.255-.142-1.619-.077m1.446 1.586c.42.145.726.345 1.029.676.453.495.65 1.007.65 1.695.001.703-.228 1.255-.73 1.756-.531.53-1.13.755-1.907.715-.645-.034-1.127-.246-1.585-.698-.52-.513-.751-1.059-.75-1.773 0-.491.066-.775.272-1.165a2.49 2.49 0 0 1 3.021-1.206" fill-rule="evenodd" fill="#000"/></svg>