<svg width="24" height="24" fill="none" xmlns="http://www.w3.org/2000/svg"><path d="M21.8 1.245c-.108.032-.591.491-2.105 2.002l-1.964 1.961-.116-.06c-.232-.12-.334-.273-.789-1.172-.313-.618-.543-1.016-.705-1.223-.517-.66-1.396-1.204-2.3-1.425-.24-.058-.504-.068-1.821-.068-1.377 0-1.572.008-1.84.076a4.718 4.718 0 0 0-1.749.872c-.447.359-.723.753-1.218 1.732-.244.484-.476.926-.516.982-.146.209-.411.305-.972.354-1.006.087-1.69.345-2.463.927-.753.568-1.329 1.435-1.59 2.393-.181.666-.172 1.076.125 5.784.144 2.288.281 4.286.304 4.44.066.443.187.914.324 1.262l.127.32-.622.63c-.511.518-.63.66-.668.799-.068.253.002.457.236.691.234.234.437.303.692.237.153-.041.965-.839 8.301-8.172C23.39 1.675 22.706 2.366 22.758 2.169c.136-.511-.446-1.072-.958-.924m-7.949 1.65c.374.158.698.375.965.646.192.195.295.367.682 1.136.483.96.672 1.255.958 1.486l.177.144-6.471 6.471L3.69 19.25l-.062-.295a8.144 8.144 0 0 1-.086-.475C3.501 18.155 3 10.068 3 9.72a2.971 2.971 0 0 1 1.558-2.593c.442-.234.756-.323 1.301-.368.612-.051.802-.091 1.111-.233.351-.161.687-.424.894-.7.097-.129.373-.625.613-1.101.239-.476.497-.942.572-1.037.28-.353.724-.655 1.228-.834.26-.093.278-.094 1.783-.084l1.52.01.271.115m6.929 3.9c-.351.16-.54.4-.54.685 0 .181.042.276.296.672.321.5.464.986.464 1.58 0 .459-.512 8.553-.563 8.9-.163 1.11-.659 1.867-1.481 2.261-.736.352-.157.322-6.676.346-5.689.021-5.782.022-5.916.101a.646.646 0 0 0-.327.475c-.069.367.054.684.327.845.134.079.219.08 5.376.092 5.789.014 6.241.001 7.003-.191 1.76-.445 2.903-1.788 3.173-3.731.061-.441.567-8.521.569-9.09a5.939 5.939 0 0 0-.042-.751c-.142-.861-.706-1.951-1.129-2.179-.201-.108-.322-.112-.534-.015M5.787 9.278c-.342.069-.519.314-.519.722 0 .461.207.692.663.74.137.014.942.02 1.789.013 1.455-.012 1.547-.017 1.676-.093.273-.161.396-.478.327-.845a.646.646 0 0 0-.327-.475c-.13-.076-.214-.08-1.796-.087-.913-.003-1.729.008-1.813.025m8.652 3.072c-.116.06-.266.179-.335.264-.19.235-.171.458.082.946.237.458.305.737.302 1.24a2.32 2.32 0 0 1-.602 1.58c-.526.586-1.129.858-1.902.859-.541.001-.942-.133-1.501-.501-.301-.198-.425-.238-.627-.2-.31.058-.697.589-.639.878.042.209.201.398.519.619.579.4 1.172.616 1.879.682a3.983 3.983 0 0 0 3.198-1.146 4.014 4.014 0 0 0 1.055-1.843c.088-.333.103-.473.104-.988 0-.524-.013-.651-.106-.998-.177-.669-.535-1.292-.828-1.443-.171-.088-.365-.072-.599.051" fill-rule="evenodd" fill="#000"/></svg>