<svg width="24" height="24" fill="none" xmlns="http://www.w3.org/2000/svg"><path d="M6.295 1.277c-.229.038-.369.141-.457.336-.069.152-.076.276-.077 1.392L5.76 4.23l-.39.028c-.576.041-.91.121-1.287.306-.61.301-1.027.829-1.23 1.556-.068.242-.073.504-.073 3.88s.005 3.638.073 3.88c.203.727.62 1.255 1.23 1.556.377.185.711.265 1.287.306l.39.028V22.223l.09.178c.126.248.282.328.647.33.365.002.525-.078.653-.33l.09-.178V15.77l.39-.028c.576-.041.91-.121 1.288-.307.605-.298 1.027-.833 1.229-1.555.068-.242.073-.504.073-3.88s-.005-3.638-.073-3.88c-.202-.722-.624-1.257-1.229-1.555-.378-.186-.712-.266-1.288-.307l-.39-.028V3.004c0-1.193-.002-1.232-.09-1.405a.68.68 0 0 0-.21-.244c-.147-.081-.424-.115-.645-.078m11 0c-.229.038-.369.141-.457.336-.073.159-.076.313-.077 3.392L16.76 8.23l-.39.028c-.576.041-.91.121-1.287.306-.61.301-1.027.829-1.23 1.556-.068.242-.073.504-.073 3.88s.005 3.638.073 3.88c.203.727.62 1.255 1.23 1.556.377.185.711.265 1.287.306l.39.028v1.226c0 1.193.002 1.232.09 1.405.126.248.282.328.647.33.365.002.525-.078.653-.33.088-.173.09-.212.09-1.405V19.77l.39-.028c.576-.041.91-.121 1.288-.307.605-.298 1.027-.833 1.229-1.555.068-.242.073-.504.073-3.88s-.005-3.638-.073-3.88c-.202-.722-.624-1.257-1.229-1.555-.378-.186-.712-.266-1.288-.307l-.39-.028V1.777l-.09-.178a.67.67 0 0 0-.21-.244c-.147-.081-.424-.115-.645-.078M8.239 5.9c.236.13.372.297.451.556.038.126.05.957.05 3.544 0 3.16-.005 3.394-.072 3.588-.097.277-.195.393-.442.523l-.206.109H4.98l-.219-.12a.879.879 0 0 1-.451-.556c-.072-.237-.072-6.851 0-7.088a.95.95 0 0 1 .706-.659c.068-.017.772-.028 1.564-.024l1.44.007.219.12m11 4c.236.13.372.297.451.556.038.126.05.957.05 3.544 0 3.16-.005 3.394-.072 3.588-.097.277-.195.393-.442.523l-.206.109h-3.04l-.219-.12a.879.879 0 0 1-.451-.556c-.072-.237-.072-6.851 0-7.088a.95.95 0 0 1 .706-.659c.068-.017.772-.028 1.564-.024l1.44.007.219.12" fill-rule="evenodd" fill="#000"/></svg>