<svg width="24" height="24" fill="none" xmlns="http://www.w3.org/2000/svg"><path d="M10.37 2.804c-.7.119-1.26.453-1.625.97-.306.432-.438.865-.488 1.596l-.027.39H1.777l-.178.09c-.25.127-.332.288-.332.65 0 .362.082.523.332.65l.178.09H8.23l.028.39c.041.576.121.91.306 1.287.301.61.829 1.027 1.556 1.23.242.068.504.073 3.88.073s3.638-.005 3.88-.073c.722-.202 1.257-.624 1.555-1.229.186-.378.266-.712.307-1.288l.028-.39h1.226c1.193 0 1.232-.002 1.405-.09.25-.127.328-.281.328-.65s-.078-.523-.328-.65c-.173-.088-.212-.09-1.405-.09H19.77l-.028-.39c-.041-.576-.121-.91-.307-1.288-.294-.597-.818-1.015-1.535-1.227-.221-.066-.52-.072-3.78-.079-1.947-.005-3.635.008-3.75.028m7.195 1.507c.246.085.41.222.535.45l.12.219v3.04l-.12.219a.879.879 0 0 1-.556.451c-.237.072-6.851.072-7.088 0a.879.879 0 0 1-.556-.451l-.12-.219V4.98l.095-.18c.165-.315.293-.411.665-.504.285-.072 6.813-.057 7.025.015M6.37 13.804c-.7.119-1.26.453-1.625.97-.306.432-.438.865-.488 1.596l-.027.39H3.004c-1.193 0-1.232.002-1.405.09-.25.127-.332.288-.332.65 0 .362.082.523.332.65.173.088.212.09 1.405.09H4.23l.028.39c.041.576.121.91.306 1.287.301.61.829 1.027 1.556 1.23.242.068.504.073 3.88.073s3.638-.005 3.88-.073c.722-.202 1.257-.624 1.555-1.229.186-.378.266-.712.307-1.288l.028-.39H22.223l.178-.09c.25-.127.328-.281.328-.65s-.078-.523-.328-.65l-.178-.09H15.77l-.028-.39c-.041-.576-.121-.91-.307-1.288-.294-.597-.818-1.015-1.535-1.227-.221-.066-.52-.072-3.78-.079-1.947-.005-3.635.008-3.75.028m7.195 1.507c.246.085.41.222.535.45l.12.219v3.04l-.12.219a.879.879 0 0 1-.556.451c-.237.072-6.851.072-7.088 0a.879.879 0 0 1-.556-.451l-.12-.219v-3.04l.095-.18c.165-.315.293-.411.665-.504.285-.072 6.813-.057 7.025.015" fill-rule="evenodd" fill="#000"/></svg>