<svg width="24" height="24" fill="none" xmlns="http://www.w3.org/2000/svg"><path d="M7.74 2.126c-1.125.125-2.04.601-2.556 1.328-.424.597-.602 1.111-.927 2.671l-.231 1.106-.644.015c-.7.017-.822.052-.992.279-.168.226-.168.724 0 .95.155.208.298.256.826.276l.486.019-.203.98c-.195.94-.208.983-.321 1.062-.769.539-1.127 1.199-1.295 2.388-.084.592-.608 6.428-.611 6.8-.003.465.072.785.294 1.24.231.476.708.951 1.194 1.19.593.292.716.309 2.24.31 1.46 0 1.631-.018 2.063-.223.286-.135.601-.448.754-.752.058-.114.211-.512.339-.884.276-.8.333-.907.544-1.017.159-.083.189-.084 3.3-.084 3.06 0 3.144.002 3.299.08.208.105.267.215.545 1.021.128.372.281.77.339.884.227.449.674.79 1.197.914.292.069 2.361.102 2.845.045.731-.087 1.2-.312 1.719-.824.522-.516.78-1.13.782-1.86.001-.361-.519-6.205-.609-6.84-.154-1.093-.502-1.791-1.124-2.251l-.288-.214-.204-.982-.203-.983.486-.019c.528-.02.671-.068.826-.276.168-.226.168-.724 0-.95-.17-.227-.292-.262-.993-.279l-.644-.015-.212-1.026c-.242-1.172-.421-1.807-.627-2.218-.561-1.122-1.488-1.709-2.942-1.865-.479-.052-7.986-.048-8.452.004m3.5 1.768v.335l-.518.021c-.609.024-.732.074-.872.349-.186.367-.073.885.23 1.06.135.078.206.081 1.92.081s1.785-.003 1.92-.081c.421-.243.424-1.074.005-1.315-.109-.062-.237-.081-.65-.096l-.515-.019v-.678l1.69.02c1.845.023 2.038.043 2.535.268.353.16.585.391.774.769.231.461.278.646.804 3.166l.497 2.376.022.09H4.918l.022-.09.497-2.376c.526-2.52.573-2.705.804-3.166.189-.378.422-.61.773-.767.529-.237.836-.268 2.776-.275l1.45-.006v.334m7.94 7.906c.544.089.949.288 1.127.554.14.208.239.512.31.947.072.443.623 6.379.623 6.713 0 .117-.029.297-.064.4-.082.24-.388.577-.641.707-.194.099-.201.099-1.492.111-1.334.013-1.486-.002-1.544-.146a37.563 37.563 0 0 1-.245-.706c-.12-.352-.28-.768-.355-.924-.347-.724-.933-1.081-1.928-1.175-.561-.053-5.378-.054-5.939 0-.904.085-1.484.412-1.865 1.05-.073.122-.23.507-.35.855-.336.977-.329.961-.451 1.011-.077.032-.501.043-1.408.035-1.293-.012-1.299-.012-1.493-.111-.253-.13-.559-.467-.641-.707a1.494 1.494 0 0 1-.064-.4c0-.334.551-6.27.623-6.713.071-.435.17-.739.31-.947.171-.257.589-.467 1.095-.552.285-.048 14.1-.05 14.392-.002M5.787 14.278c-.342.069-.519.314-.519.722 0 .461.207.692.663.74.137.014.942.02 1.789.013 1.455-.012 1.547-.017 1.676-.093a.646.646 0 0 0 .327-.475c.069-.367-.054-.684-.327-.845-.13-.076-.214-.08-1.796-.087-.913-.003-1.729.008-1.813.025m9 0c-.342.069-.519.314-.519.722 0 .461.207.692.663.74.137.014.942.02 1.789.013 1.455-.012 1.547-.017 1.676-.093.273-.161.396-.478.327-.845a.646.646 0 0 0-.327-.475c-.13-.076-.214-.08-1.796-.087-.913-.003-1.729.008-1.813.025" fill-rule="evenodd" fill="#000"/></svg>