<svg width="24" height="24" fill="none" xmlns="http://www.w3.org/2000/svg"><path d="M8.393 1.28a7.764 7.764 0 0 0-6.75 5.302 7.534 7.534 0 0 0-.361 1.891c-.051.741.004.984.26 1.152.235.154.716.147.933-.015.203-.152.247-.285.286-.877.053-.797.131-1.199.358-1.837.32-.9.806-1.655 1.507-2.344.544-.535.954-.828 1.614-1.153.437-.215 1.32-.527 1.32-.467 0 .008-.081.156-.18.33-.099.173-.191.373-.204.444-.091.485.645.991 1.099.756a.74.74 0 0 0 .211-.19c.108-.142 1.058-1.721 1.175-1.952.083-.163.093-.54.018-.685-.179-.346-.445-.419-1.286-.355m9.627.005a5.238 5.238 0 0 0-3.222 8.917 5.238 5.238 0 0 0 7.404 0 5.238 5.238 0 0 0 0-7.404c-1.107-1.106-2.593-1.644-4.182-1.513m1.512 1.61a3.791 3.791 0 0 1 2.573 2.565c.102.333.111.411.111 1.04 0 .626-.009.708-.108 1.032-.389 1.262-1.313 2.189-2.568 2.573-.333.102-.411.111-1.04.111s-.707-.009-1.04-.111c-1.255-.384-2.179-1.311-2.568-2.573-.099-.324-.108-.406-.108-1.032 0-.629.009-.707.111-1.04a3.804 3.804 0 0 1 1.965-2.329c.57-.284 1.006-.373 1.74-.355.484.012.638.031.932.119M3.306 12.804c-.352.047-.835.209-1.072.36-.403.258-.719.723-.853 1.256-.109.433-.14 1.17-.14 3.34 0 2.78.039 3.249.317 3.82.327.67.948 1.038 1.922 1.138.547.056 6.493.056 7.04 0 .974-.1 1.595-.468 1.922-1.138.278-.571.317-1.04.317-3.82 0-2.846-.037-3.256-.345-3.871-.257-.512-.677-.826-1.366-1.02-.305-.086-.348-.087-3.888-.094-1.969-.004-3.703.01-3.854.029m7.436 1.527c.404.135.464.29.488 1.259l.019.73H2.751l.019-.73c.027-1.093.104-1.22.79-1.312.121-.016 1.741-.026 3.6-.022 3.064.006 3.399.013 3.582.075m11.045-.053a.773.773 0 0 0-.26.11c-.205.154-.249.286-.288.879-.053.798-.131 1.199-.359 1.84a6.145 6.145 0 0 1-1.506 2.342 5.6 5.6 0 0 1-1.605 1.145c-.438.219-1.329.536-1.329.474 0-.008.081-.156.18-.33.099-.173.191-.373.204-.444.091-.485-.645-.991-1.099-.756-.155.079-.234.193-.859 1.236-.309.515-.563.986-.584 1.08-.067.304.043.629.26.771.168.11.411.133.998.092a7.513 7.513 0 0 0 2.88-.775 7.077 7.077 0 0 0 1.995-1.415 7.63 7.63 0 0 0 2.302-4.987c.042-.607.016-.849-.107-1.014-.158-.213-.491-.313-.823-.248M11.233 19.23c-.012 1.366-.017 1.438-.099 1.617-.195.422-.109.413-4.134.413s-3.939.009-4.134-.413c-.082-.179-.087-.251-.099-1.617l-.012-1.43h8.49l-.012 1.43" fill-rule="evenodd" fill="#000"/></svg>