<svg width="24" height="24" fill="none" xmlns="http://www.w3.org/2000/svg"><path d="M19.679 2.808c-.124.063-.528.444-1.263 1.193-1.204 1.224-1.275 1.324-1.179 1.644.057.192.311.481.501.571.323.154.527.067 1.083-.464l.415-.397.012 2.213c.012 2.136.015 2.217.093 2.352a.67.67 0 0 0 .258.23c.367.186.885.073 1.06-.23.078-.135.081-.216.093-2.353l.012-2.213.41.395c.55.529.764.621 1.088.467.19-.09.444-.379.501-.571.097-.322.025-.423-1.155-1.613-.583-.588-1.129-1.117-1.214-1.176a.68.68 0 0 0-.715-.048M5.38 2.786c-2.043.17-3.057.724-3.643 1.992-.266.576-.395 1.22-.457 2.287-.051.878-.051 8.992 0 9.87.062 1.067.191 1.711.457 2.287.532 1.152 1.453 1.725 3.123 1.945.585.077 13.695.077 14.28 0 1.67-.22 2.591-.793 3.123-1.945.383-.83.517-2.005.49-4.302-.015-1.282-.03-1.357-.307-1.529-.209-.13-.683-.13-.892 0-.292.182-.291.17-.318 2.209-.025 1.922-.05 2.208-.24 2.772-.271.805-.783 1.139-2.016 1.316-.526.076-13.434.076-13.96 0-1.569-.225-2.043-.725-2.218-2.336-.026-.245-.042-1.819-.042-4.25V9.241l6.03-.01c5.827-.011 6.034-.014 6.155-.086.209-.127.275-.282.275-.645 0-.363-.066-.518-.275-.645-.121-.072-.328-.075-6.155-.086l-6.03-.01v-.361c0-.786.148-1.622.366-2.064.274-.556.76-.837 1.734-1.001.354-.06.948-.07 5.18-.09 4.591-.022 4.785-.026 4.905-.098.209-.127.275-.282.275-.645 0-.363-.066-.518-.275-.645-.12-.072-.293-.075-4.765-.079a462.86 462.86 0 0 0-4.8.01m.219 13.064c-.25.127-.332.288-.332.65 0 .362.082.523.332.65.173.087.212.09 1.401.09s1.228-.003 1.401-.09c.25-.127.328-.281.328-.65s-.078-.523-.328-.65c-.173-.087-.212-.09-1.401-.09s-1.228.003-1.401.09m4.577-.047c-.288.085-.442.39-.405.804.024.267.112.433.284.538.119.071.243.075 2.445.075s2.326-.004 2.445-.075c.209-.127.275-.282.275-.645 0-.363-.066-.518-.275-.645-.118-.071-.248-.075-2.385-.082-1.276-.004-2.314.009-2.384.03" fill-rule="evenodd" fill="#000"/></svg>