<svg width="24" height="24" fill="none" xmlns="http://www.w3.org/2000/svg"><path d="M12.6 1.283c-.636.07-1.214.356-2.04 1.012-.346.275-7.622 7.519-8.051 8.017-.895 1.037-1.236 1.751-1.236 2.588 0 .872.388 1.641 1.38 2.734.232.256 1.581 1.623 2.996 3.036l2.574 2.57-3.142.001c-2.022.001-3.205.016-3.321.042-.333.077-.492.311-.492.723 0 .421.183.656.56.718.251.041 20.093.041 20.344 0 .377-.062.56-.297.56-.718 0-.412-.159-.646-.492-.723-.118-.027-1.577-.041-4.219-.042l-4.04-.001 3.743-3.75c2.059-2.062 3.85-3.885 3.981-4.05.758-.955 1.018-1.554 1.018-2.34-.001-.793-.294-1.454-1.055-2.38-.365-.443-5.945-6.023-6.388-6.388-1.014-.834-1.808-1.145-2.68-1.049m.88 1.622c.269.127.737.467 1.12.814l.22.2-5.444 5.444-5.444 5.445-.202-.214c-.361-.381-.649-.767-.801-1.072-.135-.27-.149-.328-.149-.62 0-.293.013-.348.15-.615.082-.16.252-.43.377-.6.256-.346 7.447-7.581 8.033-8.081.474-.406.601-.497.898-.648.347-.176.426-.197.722-.185.193.007.327.041.52.132m4.685 4.365c2.304 2.314 2.64 2.687 2.92 3.244.117.235.133.304.134.586 0 .292-.013.346-.15.614-.325.635-.551.876-4.696 5.01-3.805 3.795-4.093 4.063-4.687 4.361-.234.117-.304.133-.586.134-.291.001-.347-.013-.621-.149a4.701 4.701 0 0 1-.66-.437c-.197-.158-1.367-1.291-2.599-2.519l-2.24-2.232 5.44-5.441C13.412 7.448 15.87 5 15.882 5c.012 0 1.039 1.021 2.283 2.27m-2.205 5.193c-.182.078-2.776 2.66-2.887 2.874-.154.297-.005.676.357.905.23.146.482.158.69.034.183-.109 2.647-2.573 2.756-2.756.211-.354.001-.835-.456-1.045-.193-.088-.276-.091-.46-.012m-3.911 3.896c-.187.085-1.256 1.107-1.534 1.467-.285.37-.253.68.105 1.01a.975.975 0 0 0 .342.205c.3.08.446-.009 1.167-.715.876-.857.999-1.038.935-1.38-.051-.269-.505-.664-.764-.664a.88.88 0 0 0-.251.077" fill-rule="evenodd" fill="#000"/></svg>