<svg width="24" height="24" fill="none" xmlns="http://www.w3.org/2000/svg"><path d="M5.26 2.803c-1.862.154-2.894.707-3.47 1.859-.238.477-.354.888-.475 1.678-.067.444-.099 9.948-.036 10.788.092 1.22.286 1.928.702 2.553.421.634 1.093 1.081 1.979 1.318.771.206.912.213 4.472.23l3.332.016.183-.088c.227-.11.331-.312.332-.646.001-.31-.091-.527-.273-.64l-.146-.091-3.3-.024c-2.815-.02-3.359-.033-3.7-.09-1.146-.191-1.621-.535-1.884-1.365-.216-.684-.226-.858-.245-4.331l-.018-3.21h18.519l.014.91c.013.823.022.923.094 1.046.148.251.262.304.66.304s.512-.053.66-.304c.078-.132.08-.208.08-2.916 0-2.889-.018-3.296-.179-4.067a3.973 3.973 0 0 0-.578-1.431c-.551-.813-1.363-1.242-2.743-1.448-.419-.063-1.042-.07-7.02-.077-3.608-.004-6.74.008-6.96.026m13.68 1.511c1.283.192 1.796.534 2.075 1.387.16.49.195.848.214 2.209l.02 1.33H2.708l.024-1.15c.039-1.888.19-2.63.632-3.11.391-.424 1.038-.632 2.176-.699.883-.052 13.028-.022 13.4.033m-1.361 8.966c-1.822.16-3.38 1.353-4.033 3.089-.417 1.106-.364 2.517.132 3.576.488 1.042 1.253 1.826 2.26 2.317a4.55 4.55 0 0 0 1.632.457c2.018.179 3.877-.906 4.752-2.774.498-1.062.549-2.469.129-3.584a4.758 4.758 0 0 0-4.872-3.081m1.401 1.614c.528.174.874.392 1.304.822.653.652.912 1.24.945 2.144.016.44.006.572-.066.86-.241.965-.853 1.745-1.698 2.161-.537.265-.921.359-1.465.359s-.928-.094-1.465-.359c-.845-.416-1.457-1.196-1.698-2.161-.072-.288-.082-.42-.066-.86.033-.904.292-1.492.945-2.144.717-.717 1.35-.966 2.384-.941.472.012.61.031.88.119m-13.193.384c-.342.068-.519.314-.519.722 0 .462.207.692.663.74.137.014 1.167.02 2.289.013 1.956-.012 2.046-.016 2.176-.093a.646.646 0 0 0 .327-.475c.069-.367-.054-.684-.327-.845-.131-.077-.214-.08-2.296-.086-1.188-.004-2.229.007-2.313.024m13.501 1.029c-.072.036-.514.42-.982.854l-.85.789-.343-.332c-.393-.38-.555-.453-.838-.377-.221.06-.534.373-.594.594-.087.324-.023.432.673 1.138.344.349.693.669.774.711a.653.653 0 0 0 .578.01c.136-.064 2.248-1.992 2.463-2.248.172-.205.217-.407.136-.618a1.145 1.145 0 0 0-.445-.514c-.148-.091-.396-.094-.572-.007" fill-rule="evenodd" fill="#000"/></svg>