<svg width="24" height="24" fill="none" xmlns="http://www.w3.org/2000/svg"><path d="M21.72 2.788c-.079.037-.92.843-1.928 1.846l-1.789 1.78-.556-.542c-.639-.622-.809-.72-1.092-.635-.196.058-.482.312-.576.51-.1.211-.061.445.112.681.226.306 1.671 1.707 1.845 1.789.235.109.457.069.714-.13.115-.089 1.112-1.068 2.214-2.175 2.209-2.218 2.203-2.21 2.099-2.557-.057-.192-.311-.481-.501-.571a.621.621 0 0 0-.542.004M5.38 2.786c-2.044.17-3.057.724-3.643 1.992-.266.576-.395 1.22-.457 2.287-.051.878-.051 8.992 0 9.87.062 1.067.191 1.711.457 2.287.532 1.152 1.453 1.725 3.123 1.945.585.077 13.695.077 14.28 0 1.67-.22 2.591-.793 3.123-1.945.434-.94.508-1.819.49-5.802-.012-2.477-.018-2.649-.087-2.789-.118-.236-.308-.331-.666-.331-.358 0-.548.095-.666.331-.07.14-.075.343-.098 3.489-.026 3.58-.028 3.624-.24 4.252-.271.805-.783 1.139-2.016 1.316-.526.076-13.434.076-13.96 0-1.569-.225-2.043-.725-2.218-2.336-.026-.245-.042-1.819-.042-4.25V9.241l5.53-.01c5.337-.011 5.534-.014 5.655-.086.209-.127.275-.282.275-.645 0-.363-.066-.518-.275-.645-.121-.072-.318-.075-5.655-.086l-5.53-.01v-.361c0-.47.064-1.053.163-1.475.232-.99.711-1.384 1.937-1.59.351-.059.927-.07 4.68-.09 4.1-.022 4.285-.026 4.405-.098.209-.127.275-.282.275-.645 0-.363-.066-.518-.275-.645-.12-.072-.283-.075-4.265-.079-2.277-.002-4.212.003-4.3.01m.219 13.064c-.25.127-.332.288-.332.65 0 .362.082.523.332.65.173.087.212.09 1.401.09s1.228-.003 1.401-.09c.25-.127.328-.281.328-.65s-.078-.523-.328-.65c-.173-.087-.212-.09-1.401-.09s-1.228.003-1.401.09m4.577-.047c-.288.085-.442.39-.405.804.024.267.112.433.284.538.119.071.243.075 2.445.075s2.326-.004 2.445-.075c.209-.127.275-.282.275-.645 0-.363-.066-.518-.275-.645-.118-.071-.248-.075-2.385-.082-1.276-.004-2.314.009-2.384.03" fill-rule="evenodd" fill="#000"/></svg>