<svg width="24" height="24" fill="none" xmlns="http://www.w3.org/2000/svg"><path d="M5.22 2.803c-2.364.191-3.503 1.146-3.841 3.222-.114.699-.138 1.742-.138 5.975 0 4.226.024 5.273.137 5.976.27 1.676 1.094 2.644 2.573 3.022.882.225.606.216 7.629.232 6.584.015 7.163.006 7.981-.134 1.321-.225 2.177-.803 2.66-1.796.299-.613.434-1.255.498-2.353.052-.893.052-9.001 0-9.894-.064-1.098-.199-1.74-.498-2.353-.578-1.189-1.603-1.741-3.521-1.899-.577-.048-12.887-.045-13.48.002m13.76 1.511c.47.071.902.186 1.167.311.293.138.604.448.739.736.21.445.354 1.277.354 2.037v.362H2.76v-.362c0-1.079.243-2.043.613-2.432.367-.388 1.005-.6 2.048-.682.706-.055 13.173-.028 13.559.03m2.26 8.788c0 2.401-.016 4.008-.042 4.25-.148 1.382-.559 1.953-1.591 2.21-.69.171-.701.171-7.167.188-6.275.015-7.127.001-7.802-.128-1.24-.237-1.674-.774-1.836-2.27-.026-.245-.042-1.819-.042-4.25V9.24h18.48v3.862M5.718 15.797c-.327.102-.446.289-.449.7-.002.327.066.491.264.639.11.082.153.084 1.467.084s1.357-.002 1.467-.084c.198-.148.266-.312.264-.639-.001-.23-.021-.323-.09-.436-.171-.276-.196-.28-1.581-.289-.682-.004-1.286.007-1.342.025m4.466.004a.646.646 0 0 0-.384.397c-.116.417.008.821.295.96.166.08.23.082 2.405.082s2.239-.002 2.405-.082c.249-.121.352-.35.325-.725-.021-.298-.081-.418-.285-.571-.109-.08-.156-.082-2.378-.089-1.247-.004-2.319.008-2.383.028" fill-rule="evenodd" fill="#000"/></svg>