<svg width="24" height="24" fill="none" xmlns="http://www.w3.org/2000/svg"><path d="M5.38 2.786c-2.044.17-3.057.724-3.643 1.992-.266.576-.395 1.22-.457 2.287-.051.878-.051 8.992 0 9.87.062 1.067.191 1.711.457 2.287.532 1.152 1.453 1.725 3.123 1.945.585.077 13.695.077 14.28 0 1.67-.22 2.591-.793 3.123-1.945.42-.91.51-1.879.49-5.302-.015-2.4-.008-2.343-.307-2.529-.209-.13-.683-.13-.892 0-.305.19-.291.049-.317 3.209-.024 3.017-.032 3.152-.241 3.772-.271.805-.783 1.139-2.016 1.316-.526.076-13.434.076-13.96 0-1.569-.225-2.043-.725-2.218-2.336-.026-.245-.042-1.819-.042-4.25V9.241l5.53-.01c5.337-.011 5.534-.014 5.655-.086.209-.127.275-.282.275-.645 0-.363-.066-.518-.275-.645-.121-.072-.318-.075-5.655-.086l-5.53-.01v-.361c0-.47.064-1.053.163-1.475.232-.99.711-1.384 1.937-1.59.351-.059.927-.07 4.68-.09 4.1-.022 4.285-.026 4.405-.098.209-.127.275-.282.275-.645 0-.363-.066-.518-.275-.645-.12-.072-.283-.075-4.265-.079-2.277-.002-4.212.003-4.3.01m11.668.804c-.426.228-.628.657-.463.982.035.07.408.474.827.897l.764.769-.76.771c-.418.424-.791.837-.828.917-.124.266-.066.512.186.788.195.213.583.311.799.202.048-.025.442-.398.877-.83l.79-.785.77.765c.423.422.828.795.898.83.158.079.42.083.564.007.114-.06.312-.257.422-.422.084-.126.085-.407.002-.573-.035-.07-.408-.474-.83-.898l-.765-.77.764-.77c.42-.424.794-.815.83-.869.203-.307-.051-.846-.484-1.027-.345-.145-.489-.058-1.402.842l-.771.76-.769-.766c-.913-.909-1.078-1.004-1.421-.82M5.599 15.85c-.25.127-.332.288-.332.65 0 .362.082.523.332.65.173.087.212.09 1.401.09s1.228-.003 1.401-.09c.25-.127.328-.281.328-.65s-.078-.523-.328-.65c-.173-.087-.212-.09-1.401-.09s-1.228.003-1.401.09m4.577-.047c-.288.085-.442.39-.405.804.024.267.112.433.284.538.119.071.243.075 2.445.075s2.326-.004 2.445-.075c.209-.127.275-.282.275-.645 0-.363-.066-.518-.275-.645-.118-.071-.248-.075-2.385-.082-1.276-.004-2.314.009-2.384.03" fill-rule="evenodd" fill="#000"/></svg>