<svg width="24" height="24" fill="none" xmlns="http://www.w3.org/2000/svg"><path d="M8 2.281c-.943.054-1.573.197-2.124.483-.904.471-1.398 1.325-1.557 2.696-.026.22-.055.413-.065.43-.01.017-.06.03-.111.03-.051 0-.265.044-.476.097-1.261.32-1.992 1.112-2.265 2.455-.131.643-.161 1.615-.161 5.288.001 3.522.028 4.583.136 5.188.264 1.479 1.004 2.287 2.39 2.609.779.182.831.183 6.773.183 5.213 0 5.676-.005 6.111-.071 1.953-.297 2.799-1.17 3.029-3.129.026-.22.055-.408.065-.418.01-.01.184-.052.386-.093 1.381-.279 2.179-1.088 2.467-2.501.131-.643.161-1.615.161-5.288-.001-4.331-.032-4.975-.28-5.789-.317-1.041-1.03-1.701-2.148-1.989-.763-.196-.717-.194-6.431-.203-2.948-.005-5.603.005-5.9.022m11.321 1.521c.998.122 1.469.387 1.676.94.23.615.223.432.223 5.458 0 4.298-.005 4.643-.072 4.954-.188.873-.434 1.161-1.176 1.379l-.207.061-.015-3.707c-.017-4.045-.021-4.112-.257-4.863-.371-1.176-1.149-1.837-2.453-2.085-.667-.127-1.22-.139-6.21-.139H5.8l.001-.13c.002-.431.227-1.084.464-1.348.249-.276.746-.454 1.495-.534.355-.038 11.245-.025 11.561.014m-3 3.56c.96.117 1.425.363 1.646.871.199.457.24.819.262 2.277l.02 1.37H2.752l.02-1.39c.014-1.034.035-1.462.08-1.67.206-.949.556-1.268 1.581-1.44.397-.067 11.355-.084 11.888-.018m1.908 8.548c-.013 2.199-.024 2.589-.082 2.83-.216.914-.484 1.187-1.367 1.393-.355.083-.439.084-6.02.098-5.762.014-6.091.007-6.68-.137-.733-.178-1.04-.508-1.224-1.314-.066-.288-.074-.575-.087-2.87l-.013-2.55h15.489l-.016 2.55M4.843 17.149c-.246.127-.303.25-.303.651 0 .384.041.483.275.658.106.078.162.082 1.278.082 1.102 0 1.175-.005 1.306-.081.221-.13.301-.307.301-.666 0-.332-.049-.442-.275-.611-.105-.078-.171-.083-1.278-.093-1.052-.01-1.181-.004-1.304.06m3.895-.013a.655.655 0 0 0-.36.484c-.057.38.065.714.31.848.122.067.283.072 2.159.072 1.985 0 2.029-.002 2.138-.082.234-.175.275-.274.275-.658 0-.401-.057-.525-.303-.65-.125-.064-.309-.07-2.117-.068-1.556.001-2.006.013-2.102.054" fill-rule="evenodd" fill="#000"/></svg>