<svg width="24" height="24" fill="none" xmlns="http://www.w3.org/2000/svg"><path d="M5.14 2.805c-1.366.119-2.238.471-2.874 1.158-.594.642-.888 1.53-.985 2.977-.052.79-.052 9.33 0 10.12.097 1.447.391 2.335.985 2.977.582.629 1.363.97 2.594 1.131.582.076 13.694.076 14.28 0 2.143-.278 3.154-1.21 3.479-3.208.098-.602.148-2.181.134-4.26-.013-1.877-.015-1.924-.099-2.08-.13-.24-.293-.32-.654-.319-.357.001-.51.069-.646.288l-.094.151-.023 2.84c-.019 2.384-.034 2.893-.088 3.167-.221 1.121-.551 1.533-1.433 1.788-.714.206-.684.205-7.776.205-6.142 0-6.631-.005-7.05-.071-1.081-.172-1.579-.492-1.847-1.188-.262-.678-.255-.558-.272-5.11l-.014-4.13 4.538-.01c4.514-.011 4.54-.011 4.65-.093.23-.173.275-.276.275-.638s-.045-.465-.275-.638c-.11-.082-.136-.082-4.654-.093l-4.543-.01.024-.61c.028-.729.107-1.206.271-1.63.264-.685.756-1.008 1.805-1.184.369-.062.911-.072 5.199-.092 4.755-.023 4.788-.024 4.898-.105.23-.173.275-.276.275-.638s-.045-.465-.275-.638c-.11-.082-.131-.082-4.758-.087-2.556-.002-4.827.011-5.047.03m14.54.068c-.643.215-.649.22-3.342 2.932-2.042 2.057-1.915 1.868-2.102 3.121-.146.976-.146 1.428 0 1.71.142.274.418.541.677.658.369.165.563.169 1.545.027.892-.129 1.113-.187 1.452-.383.221-.127 3.883-3.754 4.259-4.218.704-.869.761-1.729.172-2.616-.328-.493-.965-1.017-1.455-1.195-.321-.117-.911-.134-1.206-.036m.797 1.485c.196.1.611.515.697.695.113.238.087.391-.11.653a3.277 3.277 0 0 1-.276.327l-.1.093-.154-.081c-.378-.197-.764-.577-1.006-.99l-.12-.206.186-.182c.214-.21.505-.386.638-.387.05 0 .16.035.245.078M18.64 6.38c.163.208.519.54.824.767l.116.086-1.22 1.224c-.798.8-1.261 1.236-1.34 1.26-.148.046-1.378.218-1.4.196-.008-.008.028-.312.081-.674.053-.362.097-.685.098-.718.001-.032.564-.622 1.251-1.311l1.25-1.253.08.096c.044.053.161.2.26.327M5.599 15.85c-.249.127-.337.295-.337.65 0 .355.088.523.337.65.173.087.212.09 1.401.09s1.228-.002 1.399-.09c.236-.12.326-.301.326-.65 0-.349-.09-.53-.326-.65-.171-.088-.21-.09-1.399-.09s-1.228.003-1.401.09m4.493-.007c-.456.227-.452 1.094.006 1.316.17.082.209.083 2.454.072 2.234-.011 2.285-.013 2.393-.093.23-.173.275-.276.275-.638s-.045-.465-.275-.638c-.108-.08-.159-.082-2.398-.093-2.253-.01-2.29-.009-2.455.074" fill-rule="evenodd" fill="#000"/></svg>