<svg width="24" height="24" fill="none" xmlns="http://www.w3.org/2000/svg"><path d="M5.38 2.786c-2.044.17-3.057.724-3.643 1.992-.266.576-.395 1.22-.457 2.287-.051.878-.051 8.992 0 9.87.062 1.067.191 1.711.457 2.287.532 1.152 1.453 1.725 3.123 1.945.585.077 13.695.077 14.28 0 1.67-.22 2.591-.793 3.123-1.945.42-.91.51-1.879.49-5.302-.015-2.4-.008-2.343-.307-2.529-.209-.13-.683-.13-.892 0-.305.19-.291.049-.317 3.209-.024 3.017-.032 3.152-.241 3.772-.271.805-.783 1.139-2.016 1.316-.526.076-13.434.076-13.96 0-1.569-.225-2.043-.725-2.218-2.336-.026-.245-.042-1.819-.042-4.25V9.241l5.53-.01c5.337-.011 5.534-.014 5.655-.086.209-.127.275-.282.275-.645 0-.363-.066-.518-.275-.645-.121-.072-.318-.075-5.655-.086l-5.53-.01v-.361c0-.47.064-1.053.163-1.475.232-.99.711-1.384 1.937-1.59.351-.059.927-.07 4.68-.09 4.1-.022 4.285-.026 4.405-.098.209-.127.275-.282.275-.645 0-.363-.066-.518-.275-.645-.12-.072-.283-.075-4.265-.079-2.277-.002-4.212.003-4.3.01m13.473.049c-.301.141-.31.183-.333 1.505L18.5 5.5l-1.16.02c-1.337.023-1.367.03-1.508.35-.066.147-.078.239-.062.46.022.311.094.44.314.57.126.074.22.081 1.284.092l1.149.012.011 1.175c.011 1.123.016 1.18.096 1.288.143.191.313.265.611.265.331 0 .531-.088.654-.286.088-.141.091-.181.103-1.294l.012-1.148 1.148-.012c1.113-.012 1.153-.015 1.294-.103.198-.123.286-.323.286-.654 0-.298-.074-.468-.265-.611-.108-.08-.165-.085-1.288-.096l-1.175-.011-.012-1.149c-.011-1.064-.018-1.158-.092-1.284-.134-.227-.259-.294-.587-.311-.231-.013-.328 0-.46.062M5.599 15.85c-.25.127-.332.288-.332.65 0 .362.082.523.332.65.173.087.212.09 1.401.09s1.228-.003 1.401-.09c.25-.127.328-.281.328-.65s-.078-.523-.328-.65c-.173-.087-.212-.09-1.401-.09s-1.228.003-1.401.09m4.577-.047c-.288.085-.442.39-.405.804.024.267.112.433.284.538.119.071.243.075 2.445.075s2.326-.004 2.445-.075c.209-.127.275-.282.275-.645 0-.363-.066-.518-.275-.645-.118-.071-.248-.075-2.385-.082-1.276-.004-2.314.009-2.384.03" fill-rule="evenodd" fill="#000"/></svg>