<svg width="24" height="24" fill="none" xmlns="http://www.w3.org/2000/svg"><path d="M5.2 2.825c-1.062.105-1.737.277-2.28.583-.855.48-1.36 1.246-1.596 2.417-.159.791-.171 1.284-.155 6.575.017 5.394.016 5.365.214 6.131.385 1.49 1.347 2.331 2.977 2.604.209.035.623.082.92.104.727.055 6.252.054 6.449-.001.316-.088.471-.331.471-.74 0-.285-.132-.529-.336-.622-.155-.07-.317-.074-2.904-.075-3.616-.002-4.325-.048-5.043-.325-.565-.218-.893-.609-1.075-1.284-.173-.639-.182-.858-.182-4.212v-3.2l9.25-.01 9.25-.01v.874c0 .934.021 1.071.193 1.256.19.204.649.254.959.104a.444.444 0 0 0 .253-.257c.072-.162.076-.31.076-2.927 0-2.724-.019-3.241-.143-3.92-.283-1.549-1.083-2.445-2.538-2.844-.845-.231-.538-.222-7.88-.229-3.707-.003-6.803.001-6.88.008m13.84 1.547c1.337.231 1.796.675 2.026 1.961.039.22.066.757.081 1.637l.023 1.31H2.64v-.894c0-2.156.226-3.123.833-3.566.346-.253.976-.431 1.754-.497.216-.018 3.327-.029 6.913-.025 5.831.008 6.56.016 6.9.074m-1.716 8.95a4.796 4.796 0 0 0-3.88 3.079c-.356.958-.372 2.146-.041 3.134.916 2.735 4.092 4.03 6.654 2.713a4.728 4.728 0 0 0 2.054-6.381 4.74 4.74 0 0 0-3.277-2.484 6.034 6.034 0 0 0-1.51-.061m1.396 1.564c.907.228 1.673.861 2.118 1.748.218.436.293.793.293 1.406.001.473-.013.585-.108.9a3.047 3.047 0 0 1-.62 1.153c-.471.543-1.007.897-1.623 1.073-.457.131-1.3.132-1.752.003-1.103-.316-2.025-1.26-2.294-2.349-.106-.429-.098-1.229.018-1.632a3.295 3.295 0 0 1 2.2-2.268 3.394 3.394 0 0 1 1.768-.034m-13.12.441c-.294.083-.44.328-.439.733.001.289.117.517.314.618.158.08.219.082 2.425.082 2.171 0 2.269-.003 2.417-.079.278-.141.398-.563.276-.969a.6.6 0 0 0-.424-.39c-.196-.055-4.375-.05-4.569.005m11.08.941c-.288.102-.6.485-.6.736 0 .243.063.349.429.723l.345.353-.341.35c-.407.417-.489.558-.463.793.034.302.387.676.686.724.24.039.416-.056.81-.437l.371-.358.291.299c.161.165.355.337.432.384.359.217.875-.007 1.066-.464.124-.295.058-.453-.4-.952l-.314-.342.341-.355c.363-.376.421-.498.374-.788-.048-.296-.395-.615-.702-.644-.255-.025-.39.049-.774.422l-.31.3-.342-.329c-.419-.402-.644-.506-.899-.415" fill-rule="evenodd" fill="#000"/></svg>