<svg width="24" height="24" fill="none" xmlns="http://www.w3.org/2000/svg"><path d="M21.8 1.246c-.102.03-.368.268-.987.882l-.847.841-.353-.063c-.781-.142-1.316-.151-7.973-.136-7.072.015-6.81.007-7.669.227-1.504.385-2.317 1.334-2.592 3.028-.033.2-.077.668-.099 1.04-.051.885-.05 8.955.001 9.844.092 1.591.395 2.514 1.04 3.176l.262.268-.647.654c-.536.541-.656.683-.693.823-.069.254.001.458.235.692.234.234.437.303.692.237.154-.04 1.143-1.017 10.302-10.172 5.572-5.57 10.17-10.189 10.217-10.264a.625.625 0 0 0-.032-.692c-.229-.325-.558-.473-.857-.385m-3.426 3.02.273.026-1.733 1.734L15.18 7.76H2.76v-.362c0-.786.148-1.621.366-2.064.328-.666 1.063-.988 2.434-1.067.439-.025 12.547-.026 12.814-.001m3.229 1.962a.612.612 0 0 0-.326.458c-.018.096-.034 2.447-.035 5.226-.002 5.191-.01 5.504-.165 6.165-.188.806-.541 1.202-1.28 1.44-.682.219-.609.217-6.597.241-5.336.021-5.545.025-5.665.097-.209.127-.275.282-.275.645 0 .363.066.518.275.645.121.073.308.075 5.665.075 5.915 0 5.898.001 6.74-.2 1.566-.372 2.401-1.319 2.681-3.039.121-.74.143-1.882.131-6.641-.012-4.637-.013-4.722-.092-4.856-.139-.236-.268-.302-.613-.316-.236-.009-.339.005-.444.06M10.44 12.5l-3.26 3.26h-.701c-.649 0-.716.007-.88.09-.25.127-.332.288-.332.65 0 .344.082.517.304.642l.146.082-1.031 1.03-1.031 1.03-.208-.205c-.363-.357-.551-.861-.645-1.727-.026-.245-.042-1.819-.042-4.25V9.24H13.7l-3.26 3.26m.161 3.349c-.252.128-.334.289-.334.651 0 .362.082.523.334.651l.179.091 2.02-.011c1.897-.01 2.028-.016 2.145-.086.209-.127.275-.282.275-.645 0-.363-.066-.518-.275-.645-.117-.07-.248-.076-2.145-.086l-2.02-.011-.179.091" fill-rule="evenodd" fill="#000"/></svg>