<svg width="24" height="24" fill="none" xmlns="http://www.w3.org/2000/svg"><path d="M5.579 1.28C3.75 1.44 2.2 2.632 1.54 4.384c-.358.951-.358 2.281 0 3.232a4.799 4.799 0 0 0 2.836 2.841c.964.363 2.284.363 3.248 0a4.799 4.799 0 0 0 2.836-2.841c.359-.955.358-2.28-.003-3.24-.762-2.028-2.741-3.284-4.878-3.096m10.919-.001c-1.51.134-2.53.847-2.981 2.083-.23.629-.255.893-.255 2.638 0 1.324.011 1.64.069 1.948.282 1.514 1.207 2.439 2.721 2.721.308.058.624.069 1.948.069 1.324 0 1.64-.011 1.948-.069 1.263-.236 2.135-.934 2.535-2.031.23-.629.255-.893.255-2.638 0-1.745-.025-2.009-.255-2.638-.398-1.09-1.275-1.798-2.514-2.026-.399-.074-2.834-.114-3.471-.057M6.98 2.894c.528.174.874.392 1.304.822.428.427.644.769.824 1.304.101.296.109.369.109.98s-.008.684-.109.98c-.18.535-.396.877-.824 1.304-.427.428-.769.644-1.304.824-.296.101-.369.109-.98.109s-.684-.008-.98-.109c-.535-.18-.877-.396-1.304-.824-.428-.427-.644-.769-.824-1.304-.101-.296-.109-.369-.109-.98s.008-.684.109-.98c.18-.535.396-.877.824-1.304.717-.717 1.35-.966 2.384-.941.472.012.61.031.88.119m12.8-.074c.773.163 1.236.628 1.401 1.407.084.397.083 3.152-.001 3.553-.163.773-.628 1.236-1.407 1.401-.393.083-3.153.083-3.546 0-.779-.165-1.244-.628-1.407-1.401-.084-.401-.085-3.156-.001-3.553.163-.77.626-1.241 1.381-1.404.385-.084 3.187-.085 3.58-.003M4.498 13.279c-1.51.134-2.53.847-2.981 2.083-.23.629-.255.893-.255 2.638 0 1.324.011 1.64.069 1.948.282 1.514 1.207 2.439 2.721 2.721.308.058.624.069 1.948.069 1.324 0 1.64-.011 1.948-.069 1.263-.236 2.135-.934 2.535-2.031.23-.629.255-.893.255-2.638 0-1.745-.025-2.009-.255-2.638-.398-1.09-1.275-1.798-2.514-2.026-.399-.074-2.834-.114-3.471-.057m13.081.001c-1.829.16-3.379 1.352-4.039 3.104-.358.951-.358 2.281 0 3.232a4.799 4.799 0 0 0 2.836 2.841c.964.363 2.284.363 3.248 0a4.799 4.799 0 0 0 2.836-2.841c.359-.955.358-2.28-.003-3.24-.762-2.028-2.741-3.284-4.878-3.096M7.78 14.82c.773.163 1.236.628 1.401 1.407.084.397.083 3.152-.001 3.553-.163.773-.628 1.236-1.407 1.401-.21.044-.616.058-1.773.058s-1.563-.014-1.773-.058c-.779-.165-1.244-.628-1.407-1.401-.084-.401-.085-3.156-.001-3.553.163-.77.626-1.241 1.381-1.404.385-.084 3.187-.085 3.58-.003m11.2.074c.528.174.874.392 1.304.822.428.427.644.769.824 1.304.101.296.109.369.109.98s-.008.684-.109.98c-.18.535-.396.877-.824 1.304-.427.428-.769.644-1.304.824-.296.101-.369.109-.98.109s-.684-.008-.98-.109c-.535-.18-.877-.396-1.304-.824-.428-.427-.644-.769-.824-1.304-.101-.296-.109-.369-.109-.98s.008-.684.109-.98c.18-.535.396-.877.824-1.304.717-.717 1.35-.966 2.384-.941.472.012.61.031.88.119" fill-rule="evenodd" fill="#000"/></svg>