<svg width="24" height="24" fill="none" xmlns="http://www.w3.org/2000/svg"><path d="M4.498 1.279c-1.51.134-2.53.847-2.981 2.083-.23.629-.255.893-.255 2.638 0 1.324.011 1.64.069 1.948.282 1.514 1.207 2.439 2.721 2.721.308.058.624.069 1.948.069 1.324 0 1.64-.011 1.948-.069 1.263-.236 2.135-.934 2.535-2.031.23-.629.255-.893.255-2.638 0-1.745-.025-2.009-.255-2.638-.398-1.09-1.275-1.798-2.514-2.026-.399-.074-2.834-.114-3.471-.057m12 0c-1.51.134-2.53.847-2.981 2.083-.23.629-.255.893-.255 2.638 0 1.324.011 1.64.069 1.948.282 1.514 1.207 2.439 2.721 2.721.308.058.624.069 1.948.069 1.324 0 1.64-.011 1.948-.069 1.263-.236 2.135-.934 2.535-2.031.23-.629.255-.893.255-2.638 0-1.745-.025-2.009-.255-2.638-.398-1.09-1.275-1.798-2.514-2.026-.399-.074-2.834-.114-3.471-.057M7.78 2.82c.773.163 1.236.628 1.401 1.407.084.397.083 3.152-.001 3.553-.163.773-.628 1.236-1.407 1.401-.393.083-3.153.083-3.546 0-.779-.165-1.244-.628-1.407-1.401-.084-.401-.085-3.156-.001-3.553.163-.77.626-1.241 1.381-1.404.385-.084 3.187-.085 3.58-.003m12 0c.773.163 1.236.628 1.401 1.407.084.397.083 3.152-.001 3.553-.163.773-.628 1.236-1.407 1.401-.393.083-3.153.083-3.546 0-.779-.165-1.244-.628-1.407-1.401-.084-.401-.085-3.156-.001-3.553.163-.77.626-1.241 1.381-1.404.385-.084 3.187-.085 3.58-.003M4.498 13.279c-1.51.134-2.53.847-2.981 2.083-.23.629-.255.893-.255 2.638 0 1.324.011 1.64.069 1.948.282 1.514 1.207 2.439 2.721 2.721.308.058.624.069 1.948.069 1.324 0 1.64-.011 1.948-.069 1.263-.236 2.135-.934 2.535-2.031.23-.629.255-.893.255-2.638 0-1.745-.025-2.009-.255-2.638-.398-1.09-1.275-1.798-2.514-2.026-.399-.074-2.834-.114-3.471-.057m12 0c-1.51.134-2.53.847-2.981 2.083-.23.629-.255.893-.255 2.638 0 1.324.011 1.64.069 1.948.282 1.514 1.207 2.439 2.721 2.721.308.058.624.069 1.948.069 1.324 0 1.64-.011 1.948-.069 1.263-.236 2.135-.934 2.535-2.031.23-.629.255-.893.255-2.638 0-1.745-.025-2.009-.255-2.638-.398-1.09-1.275-1.798-2.514-2.026-.399-.074-2.834-.114-3.471-.057M7.78 14.82c.773.163 1.236.628 1.401 1.407.084.397.083 3.152-.001 3.553-.163.773-.628 1.236-1.407 1.401-.21.044-.616.058-1.773.058s-1.563-.014-1.773-.058c-.779-.165-1.244-.628-1.407-1.401-.084-.401-.085-3.156-.001-3.553.163-.77.626-1.241 1.381-1.404.385-.084 3.187-.085 3.58-.003m12 0c.773.163 1.236.628 1.401 1.407.084.397.083 3.152-.001 3.553-.163.773-.628 1.236-1.407 1.401-.21.044-.616.058-1.773.058s-1.563-.014-1.773-.058c-.779-.165-1.244-.628-1.407-1.401-.084-.401-.085-3.156-.001-3.553.163-.77.626-1.241 1.381-1.404.385-.084 3.187-.085 3.58-.003" fill-rule="evenodd" fill="#000"/></svg>