<svg width="22" height="22" fill="none" xmlns="http://www.w3.org/2000/svg"><path d="M10.212.278c-1.559.154-2.785.495-4.028 1.12a10.187 10.187 0 0 0-2.776 2.01C1.719 5.097.7 7.152.343 9.588c-.092.621-.092 2.203 0 2.824.357 2.436 1.376 4.491 3.065 6.18s3.744 2.708 6.18 3.065c.621.092 2.203.092 2.824 0 1.997-.293 3.789-1.06 5.317-2.277a13.551 13.551 0 0 0 1.651-1.651c1.217-1.528 1.984-3.32 2.277-5.317.092-.621.092-2.203 0-2.824-.293-1.997-1.06-3.789-2.277-5.317-.371-.465-1.182-1.277-1.633-1.635A10.79 10.79 0 0 0 12.522.362c-.457-.07-1.918-.123-2.31-.084m2.181 1.57c1.608.274 2.936.838 4.206 1.786.462.346 1.421 1.305 1.767 1.767.949 1.271 1.526 2.633 1.789 4.224.095.575.095 2.171 0 2.75a9.415 9.415 0 0 1-1.789 4.224c-.346.462-1.305 1.421-1.767 1.767-1.271.949-2.633 1.526-4.224 1.789-.577.095-2.173.095-2.75 0-1.591-.263-2.953-.84-4.224-1.789-.462-.346-1.421-1.305-1.767-1.767-.953-1.276-1.519-2.614-1.788-4.224-.104-.619-.095-2.21.015-2.842a9.415 9.415 0 0 1 1.774-4.132c.345-.462 1.304-1.421 1.766-1.767 1.304-.974 2.8-1.595 4.334-1.798l.403-.054c.279-.039 1.923.01 2.255.066m-1.845 6.44a2.901 2.901 0 0 0-.905.318c-.309.179-.858.729-1.037 1.037-.463.799-.463 1.915 0 2.714.179.308.729.858 1.037 1.037.799.463 1.915.463 2.714 0 .308-.179.858-.729 1.037-1.037a2.785 2.785 0 0 0 .329-1.678c-.089-.688-.293-1.1-.798-1.604a3.516 3.516 0 0 0-.568-.469 2.856 2.856 0 0 0-1.809-.318m.971 1.582c.263.122.488.347.612.611.081.173.097.258.097.519 0 .374-.103.635-.348.88s-.506.348-.88.348c-.261 0-.346-.016-.519-.097a1.247 1.247 0 0 1-.505-1.839c.134-.202.312-.342.581-.455.281-.118.666-.105.962.033" fill-rule="evenodd" fill="#000"/></svg>