<svg width="24" height="24" fill="none" xmlns="http://www.w3.org/2000/svg"><path d="M8.08 1.282c-4.072.213-6.185 2.014-6.697 5.709-.113.812-.141 1.825-.141 5.009 0 4.504.06 5.273.518 6.65.772 2.313 2.446 3.576 5.267 3.972.759.106 1.875.137 4.973.137s4.214-.031 4.973-.137c2.47-.347 4.023-1.334 4.924-3.132.482-.96.741-2.121.823-3.683.051-.969.051-6.645 0-7.614-.063-1.195-.199-2.002-.478-2.837-.61-1.825-1.773-2.989-3.592-3.596-.862-.287-1.627-.416-2.844-.48-.854-.045-6.854-.043-7.726.002m8.72 1.572c2.786.462 3.914 1.6 4.348 4.386.066.421.072.824.072 4.76s-.006 4.339-.072 4.76c-.436 2.798-1.59 3.952-4.388 4.388-.421.066-.824.072-4.76.072s-4.339-.006-4.76-.072c-2.79-.435-3.957-1.597-4.386-4.368-.069-.445-.074-.791-.074-4.78 0-4.753-.004-4.663.264-5.712C3.557 4.282 4.722 3.274 6.96 2.9c.73-.123 1.088-.131 5.24-.123 3.763.007 4.222.014 4.6.077m-1.92 1.968c-.751.162-1.482.748-1.843 1.478-.288.582-.276.332-.276 5.7 0 5.37-.012 5.12.276 5.7.68 1.368 2.311 1.931 3.663 1.263.74-.365 1.319-1.095 1.48-1.863.088-.418.088-9.782 0-10.2-.206-.983-1.097-1.874-2.08-2.08a3.403 3.403 0 0 0-1.22.002m1.14 1.554c.26.121.485.349.615.624l.105.22v9.56l-.105.22c-.256.541-.808.831-1.368.721a1.28 1.28 0 0 1-.985-.961c-.035-.164-.044-1.405-.034-4.88l.012-4.66.105-.22c.307-.647 1.023-.917 1.655-.624m-7.876 3.906c-1.011.119-1.92.865-2.252 1.849l-.111.329-.012 2.163c-.014 2.445-.008 2.521.268 3.077.284.571.692.979 1.263 1.263 1.345.667 2.989.101 3.663-1.263.276-.557.282-.633.268-3.077l-.012-2.163-.111-.329c-.415-1.231-1.652-2.003-2.964-1.849m.886 1.599c.277.139.5.365.625.634.083.181.085.226.085 2.225v2.04l-.105.22c-.427.899-1.628 1.003-2.168.188-.226-.341-.234-.442-.22-2.568.013-1.863.016-1.926.098-2.105.305-.658 1.065-.944 1.685-.634" fill-rule="evenodd" fill="#000"/></svg>