<svg width="24" height="24" fill="none" xmlns="http://www.w3.org/2000/svg"><path d="M8.08 1.282c-4.072.213-6.185 2.014-6.697 5.709-.113.812-.141 1.825-.141 5.009 0 4.504.06 5.273.518 6.65.772 2.313 2.446 3.576 5.267 3.972.759.106 1.875.137 4.973.137s4.214-.031 4.973-.137c2.47-.347 4.023-1.334 4.924-3.132.482-.96.741-2.121.823-3.683.051-.969.051-6.645 0-7.614-.063-1.195-.199-2.002-.478-2.837-.61-1.825-1.773-2.989-3.592-3.596-.862-.287-1.627-.416-2.844-.48-.854-.045-6.854-.043-7.726.002m8.72 1.572c2.786.462 3.914 1.6 4.348 4.386.066.421.072.824.072 4.76s-.006 4.339-.072 4.76c-.436 2.798-1.59 3.952-4.388 4.388-.421.066-.824.072-4.76.072s-4.339-.006-4.76-.072c-2.79-.435-3.957-1.597-4.386-4.368-.069-.445-.074-.791-.074-4.78 0-4.753-.004-4.663.264-5.712C3.557 4.282 4.722 3.274 6.96 2.9c.73-.123 1.088-.131 5.24-.123 3.763.007 4.222.014 4.6.077m-5.013 5.424a.659.659 0 0 0-.447.326c-.078.133-.08.208-.08 3.736s.002 3.603.08 3.736c.161.273.478.396.845.327a.646.646 0 0 0 .475-.327c.078-.133.08-.22.092-3.516.007-1.859.001-3.492-.013-3.629-.041-.405-.242-.62-.619-.662a1.307 1.307 0 0 0-.333.009M6.599 10.09a.67.67 0 0 0-.258.23c-.078.135-.081.206-.081 2.02s.003 1.885.081 2.02c.245.424 1.073.424 1.318 0 .078-.135.081-.206.081-2.02s-.003-1.885-.081-2.02C7.548 10.127 7.286 10 7 10a.86.86 0 0 0-.401.09m10 0a.67.67 0 0 0-.258.23c-.078.135-.081.206-.081 2.02s.003 1.885.081 2.02c.245.424 1.073.424 1.318 0 .078-.135.081-.206.081-2.02s-.003-1.885-.081-2.02c-.111-.193-.373-.32-.659-.32a.86.86 0 0 0-.401.09" fill-rule="evenodd" fill="#000"/></svg>