<svg width="24" height="24" fill="none" xmlns="http://www.w3.org/2000/svg"><path d="M11.156 1.283c-1.169.124-1.941.917-2.113 2.17-.03.215-.043 3.044-.043 9.05v8.737H7.76v-5.636c0-3.639-.015-5.78-.042-6.044C7.594 8.349 6.989 7.559 6 7.315c-.302-.074-1.698-.074-2 0A2.114 2.114 0 0 0 2.569 8.48c-.325.676-.303.21-.318 6.845l-.014 5.905-.276.027c-.486.048-.693.27-.693.743 0 .418.175.653.538.723.228.044 20.16.044 20.388 0 .363-.07.538-.305.538-.723 0-.474-.207-.695-.695-.743l-.277-.027v-3.131c0-1.894-.017-3.292-.042-3.539-.124-1.211-.729-2.001-1.718-2.245-.147-.036-.478-.054-1-.054s-.853.018-1 .054a2.114 2.114 0 0 0-1.431 1.165c-.31.646-.301.518-.318 4.35l-.016 3.41h-1.234l-.01-8.93-.011-8.93-.089-.312c-.306-1.075-1.008-1.672-2.101-1.788a9.693 9.693 0 0 0-1.634.003M13.078 2.9c.239.162.353.395.402.821.025.21.04 3.612.04 8.929v8.59h-3.042l.011-8.83c.01-8.39.015-8.841.083-9.042.084-.247.321-.506.516-.564.073-.022.51-.036.972-.032l.84.008.178.12M5.865 8.862c.169.127.247.256.314.516.053.209.061.969.061 6.05v5.812H3.759l.01-5.91c.01-5.563.015-5.92.082-6.089a1.14 1.14 0 0 1 .16-.275c.172-.186.277-.206 1.036-.196.643.009.717.017.818.092m14 5c.169.127.247.256.314.516.052.205.061.711.061 3.55v3.312h-2.482l.011-3.41c.01-3.163.016-3.423.082-3.589a1.14 1.14 0 0 1 .16-.275c.172-.186.277-.206 1.036-.196.643.009.717.017.818.092" fill-rule="evenodd" fill="#000"/></svg>