<svg width="24" height="24" fill="none" xmlns="http://www.w3.org/2000/svg"><path d="M8.06 1.267c-1.64.095-3.107.49-4.036 1.085C2.457 3.355 1.635 4.861 1.332 7.28c-.065.526-.072.964-.072 4.72 0 4.521.005 4.636.244 5.77.551 2.614 2.118 4.175 4.752 4.731 1.033.219 1.381.238 4.324.238l2.72.001.14-.087c.224-.14.3-.304.3-.653 0-.349-.076-.513-.3-.653-.139-.087-.154-.087-2.92-.112-1.713-.015-2.895-.042-3.08-.069-1.675-.25-2.605-.641-3.33-1.401-.741-.775-1.167-1.957-1.309-3.625-.053-.636-.053-7.644 0-8.28.147-1.732.578-2.888 1.375-3.684.796-.797 1.952-1.228 3.684-1.375.636-.053 7.644-.053 8.28 0 1.668.142 2.85.568 3.625 1.309.76.725 1.151 1.655 1.401 3.33.027.185.054 1.367.069 3.08.024 2.701.027 2.784.106 2.919.13.219.308.301.659.301.346 0 .525-.084.66-.307.078-.13.08-.203.079-2.853 0-2.943-.019-3.291-.238-4.324-.558-2.642-2.126-4.211-4.753-4.756-1.11-.23-1.151-.231-5.468-.24a333.69 333.69 0 0 0-4.22.007M6.599 9.85a.67.67 0 0 0-.258.23c-.078.135-.081.206-.081 1.92s.003 1.785.081 1.92c.245.424 1.073.424 1.318 0 .078-.135.081-.206.081-1.92s-.003-1.785-.081-1.92c-.111-.193-.373-.32-.659-.32a.86.86 0 0 0-.401.09m5 0a.67.67 0 0 0-.258.23c-.078.135-.081.206-.081 1.92s.003 1.785.081 1.92a.67.67 0 0 0 .258.23c.367.186.885.073 1.06-.23.078-.135.081-.206.081-1.92s-.003-1.785-.081-1.92c-.111-.193-.373-.32-.659-.32a.86.86 0 0 0-.401.09m5 0a.67.67 0 0 0-.258.23c-.078.135-.081.206-.081 1.92s.003 1.785.081 1.92a.67.67 0 0 0 .258.23c.367.186.885.073 1.06-.23.078-.135.081-.206.081-1.92s-.003-1.785-.081-1.92c-.111-.193-.373-.32-.659-.32a.86.86 0 0 0-.401.09m4.24 6.386a1.215 1.215 0 0 0-.195.088c-.051.031-.768.844-1.592 1.806-.825.963-1.512 1.75-1.527 1.75-.014 0-.269-.244-.566-.543-.554-.558-.745-.697-.959-.697-.278 0-.673.333-.767.647-.037.124-.032.184.026.342.058.158.228.348.996 1.115.759.758.959.936 1.116.996.235.088.434.043.652-.148.274-.241 3.557-4.11 3.672-4.329.09-.17.109-.248.089-.356-.074-.394-.613-.776-.945-.671" fill-rule="evenodd" fill="#000"/></svg>