<svg width="24" height="24" fill="none" xmlns="http://www.w3.org/2000/svg"><path d="M8.08 1.282c-4.072.213-6.185 2.014-6.697 5.709-.113.812-.141 1.825-.141 5.009 0 4.504.06 5.273.518 6.65.772 2.313 2.446 3.576 5.267 3.972.759.106 1.875.137 4.973.137s4.214-.031 4.973-.137c2.47-.347 4.023-1.334 4.924-3.132.482-.96.741-2.121.823-3.683.051-.969.051-6.645 0-7.614-.063-1.195-.199-2.002-.478-2.837-.61-1.825-1.773-2.989-3.592-3.596-.862-.287-1.627-.416-2.844-.48-.854-.045-6.854-.043-7.726.002m8.72 1.572c2.786.462 3.914 1.6 4.348 4.386.066.421.072.824.072 4.76s-.006 4.339-.072 4.76c-.436 2.798-1.59 3.952-4.388 4.388-.421.066-.824.072-4.76.072s-4.339-.006-4.76-.072c-2.79-.435-3.957-1.597-4.386-4.368-.069-.445-.074-.791-.074-4.78 0-4.753-.004-4.663.264-5.712C3.557 4.282 4.722 3.274 6.96 2.9c.73-.123 1.088-.131 5.24-.123 3.763.007 4.222.014 4.6.077M11 5.868c-.246.027-.613.17-.84.326a2.192 2.192 0 0 0-.686.873c-.092.228-.094.265-.106 1.783l-.012 1.55h-1.04c-1.212 0-1.456.037-1.824.276-.41.266-.665.58-.819 1.007l-.093.257v2.86c0 2.706.004 2.868.074 3.009.041.083.14.191.22.24l.146.091h5.96c5.726 0 5.966-.003 6.109-.074a.693.693 0 0 0 .24-.22l.091-.146v-2.02c0-1.812-.007-2.043-.07-2.247-.152-.49-.631-1.01-1.108-1.203-.21-.084-.289-.09-1.412-.102l-1.19-.012-.001-2.288c0-1.9-.01-2.331-.061-2.545a1.873 1.873 0 0 0-1.521-1.401c-.26-.038-1.749-.048-2.057-.014m2.01 1.593a.526.526 0 0 1 .125.225c.032.161.032 2.395-.002 6.044l-.026 2.91h-2.214l-.028-4.453c-.02-3.179-.016-4.487.016-4.57.092-.247.128-.255 1.124-.256l.904-.001.101.101M9.34 14.28v2.38l-1.13.011-1.13.01v-4.55l.103-.103a.487.487 0 0 1 .19-.121c.048-.009.51-.015 1.027-.012l.94.005v2.38m7.433-.598a.508.508 0 0 1 .145.23c.025.087.042.677.042 1.438v1.29h-2.32V13.6h1.015c.961 0 1.02.004 1.118.082" fill-rule="evenodd" fill="#000"/></svg>