<svg width="24" height="24" fill="none" xmlns="http://www.w3.org/2000/svg"><path d="M18.16 1.28c-.302.046-.437.092-.643.22a1.873 1.873 0 0 0-.801 1.04c-.047.168-.056 1.439-.056 7.96 0 8.511-.016 7.946.243 8.38.224.374.583.661.992.793.302.098 2.308.098 2.61 0 .409-.132.768-.419.992-.793.259-.434.243.131.243-8.38 0-6.521-.009-7.792-.056-7.96a1.855 1.855 0 0 0-1.158-1.207c-.216-.071-1.992-.111-2.366-.053m2.007 1.546c.07.064.073.354.073 7.667 0 7.016-.005 7.606-.066 7.674-.061.067-.145.073-.967.073-.782 0-.91-.009-.974-.066-.07-.064-.073-.354-.073-7.667 0-7.016.005-7.606.066-7.674.061-.067.145-.073.967-.073.782 0 .91.009.974.066m-9.303 1.656c-.315.053-.664.249-.919.516-.28.294-.412.572-.467.986-.028.212-.037 2.3-.029 6.336.012 5.457.02 6.037.079 6.206.194.55.673 1.008 1.212 1.158.311.087 2.287.079 2.565-.011a1.849 1.849 0 0 0 1.179-1.213c.083-.298.083-12.421 0-12.72a1.783 1.783 0 0 0-1.391-1.261c-.279-.046-1.951-.043-2.229.003m2.029 1.484c.048.025.1.066.116.09.017.024.03 2.743.03 6.041.001 5.524-.004 6.002-.065 6.07-.061.067-.145.073-.967.073-.782 0-.91-.009-.974-.066-.07-.064-.073-.304-.072-6.07 0-3.302.013-6.024.03-6.047.078-.117.211-.135 1.002-.136.537-.001.842.015.9.045M3.54 7.7c-.671.182-1.168.764-1.262 1.48-.028.213-.037 1.802-.028 4.74.012 3.96.02 4.439.078 4.606.141.401.428.754.792.971.375.224.507.243 1.68.243s1.305-.019 1.68-.243c.364-.217.651-.57.792-.971.058-.167.066-.646.078-4.606.009-2.938 0-4.527-.028-4.74-.095-.725-.595-1.304-1.28-1.483-.301-.078-2.211-.077-2.502.003m2.22 1.5c.079.079.08.133.08 4.487 0 4.044-.005 4.413-.066 4.48-.061.067-.145.073-.967.073-.782 0-.91-.009-.974-.066-.07-.064-.073-.255-.073-4.48 0-4.361.001-4.415.08-4.494.075-.075.133-.08.96-.08s.885.005.96.08M2.787 21.278c-.341.067-.519.314-.519.722 0 .462.207.693.663.739.137.014 4.317.02 9.289.013 8.957-.012 9.041-.013 9.176-.092.273-.161.396-.478.327-.845a.646.646 0 0 0-.327-.475c-.135-.079-.213-.08-9.296-.086-5.038-.003-9.229.008-9.313.024" fill-rule="evenodd" fill="#000"/></svg>