<svg width="24" height="24" fill="none" xmlns="http://www.w3.org/2000/svg"><path d="M11.793 1.277a.646.646 0 0 0-.418.265c-.154.235-.147.716.015.933.161.216.279.25.987.286 1.42.072 2.6.382 3.832 1.006.857.435 1.486.89 2.225 1.611.839.817 1.38 1.559 1.869 2.562A8.914 8.914 0 0 1 21.24 12a8.895 8.895 0 0 1-.938 4.06c-.472.964-.913 1.588-1.68 2.374-.817.839-1.559 1.38-2.562 1.869a8.914 8.914 0 0 1-4.06.937 8.914 8.914 0 0 1-4.06-.937c-1.003-.489-1.745-1.03-2.562-1.869-.767-.786-1.208-1.41-1.68-2.374a8.898 8.898 0 0 1-.938-4.054c0-1.894.526-3.614 1.587-5.191.405-.604.453-.695.453-.875 0-.173-.073-.323-.226-.466-.378-.352-.761-.369-1.06-.048-.156.168-.546.739-.807 1.184a11.05 11.05 0 0 0-1.35 3.93 10.771 10.771 0 0 0 2.067 7.93c.456.613 1.485 1.641 2.106 2.105 2.076 1.551 4.54 2.295 7.097 2.142 2.163-.129 4.097-.838 5.843-2.142.617-.46 1.645-1.488 2.105-2.105 1.552-2.079 2.295-4.54 2.142-7.097-.129-2.163-.838-4.097-2.142-5.843-.46-.617-1.488-1.645-2.105-2.105a10.762 10.762 0 0 0-4.712-2.024c-.659-.107-1.714-.174-1.965-.124m0 3.001a.64.64 0 0 0-.418.264c-.154.235-.147.716.015.933.152.203.285.247.877.286.795.052 1.2.131 1.833.356 2.171.773 3.729 2.675 4.083 4.983a7.632 7.632 0 0 1 0 1.8 6.15 6.15 0 0 1-1.734 3.474 5.843 5.843 0 0 1-1.645 1.204 6.238 6.238 0 0 1-8.685-3.474c-.227-.638-.305-1.04-.358-1.837-.039-.592-.083-.725-.286-.877-.217-.162-.698-.169-.933-.015-.256.168-.311.411-.26 1.152a7.465 7.465 0 0 0 .776 2.893 7.069 7.069 0 0 0 1.415 1.995 7.228 7.228 0 0 0 2.107 1.527 7.723 7.723 0 0 0 8.947-1.527 7.077 7.077 0 0 0 1.415-1.995 7.75 7.75 0 0 0-2.665-9.878 8.056 8.056 0 0 0-2.33-1.039c-.663-.173-1.81-.292-2.154-.225m0 3c-.392.075-.603.444-.516.907.076.405.26.521.912.574.902.074 1.473.334 2.095.957.428.427.644.769.824 1.304.101.296.109.369.109.98s-.008.684-.109.98c-.18.535-.396.877-.824 1.304-.622.623-1.193.883-2.095.957-.514.042-.656.092-.799.284-.168.226-.168.724 0 .95.159.213.307.263.756.255 1.913-.035 3.619-1.266 4.314-3.114.359-.955.358-2.28-.003-3.24a4.795 4.795 0 0 0-2.937-2.868c-.519-.177-1.391-.293-1.727-.23" fill-rule="evenodd" fill="#000"/></svg>