<svg width="24" height="24" fill="none" xmlns="http://www.w3.org/2000/svg"><path d="M14.787 1.278a.659.659 0 0 0-.447.326c-.079.135-.08.208-.08 10.396s.001 10.261.08 10.396c.161.273.478.396.845.327a.646.646 0 0 0 .475-.327c.073-.124.081-.222.094-1.146l.013-1.01h.767c2.449-.002 3.902-.449 4.703-1.448.551-.688.855-1.645.961-3.03.055-.709.055-6.815 0-7.524-.106-1.385-.41-2.342-.961-3.03-.802-1.001-2.251-1.446-4.707-1.448h-.77l-.002-.89c-.002-.961-.026-1.181-.148-1.344-.158-.213-.491-.313-.823-.248M6.163 3.804c-2.971.264-4.139 1.451-4.362 4.436-.053.704-.053 6.816 0 7.52.103 1.372.411 2.344.962 3.032.526.656 1.38 1.091 2.523 1.286.837.143 1.437.167 3.794.154 2.131-.011 2.267-.016 2.385-.087.209-.127.275-.282.275-.645 0-.363-.066-.518-.275-.645-.118-.071-.272-.076-2.645-.1-1.996-.02-2.61-.038-2.955-.089-1.771-.259-2.277-.772-2.536-2.566-.061-.427-.069-.879-.069-4.1 0-3.221.008-3.673.069-4.1.259-1.797.762-2.306 2.536-2.566.344-.051.953-.07 2.915-.089 2.399-.024 2.485-.028 2.619-.106.215-.127.29-.291.29-.639 0-.369-.078-.523-.328-.65l-.178-.09-2.321.006c-1.277.003-2.492.02-2.699.038m11.972 1.533c1.757.243 2.277.769 2.536 2.563.061.427.069.879.069 4.1 0 3.221-.008 3.673-.069 4.1-.141.978-.338 1.494-.708 1.861-.535.53-1.394.738-3.233.786l-.97.025V5.228l.97.025c.534.013 1.166.051 1.405.084M7.599 7.85a.67.67 0 0 0-.258.23c-.08.138-.081.199-.081 3.92s.001 3.782.081 3.92c.245.424 1.073.424 1.318 0 .08-.138.081-.199.081-3.92s-.001-3.782-.081-3.92c-.111-.193-.373-.32-.659-.32a.86.86 0 0 0-.401.09" fill-rule="evenodd" fill="#000"/></svg>