<svg width="24" height="24" fill="none" xmlns="http://www.w3.org/2000/svg"><path d="M11.32 1.281c-2.503.142-4.936 1.215-6.756 2.978-.273.265-.631.643-.797.841a4.395 4.395 0 0 1-.371.41 1.111 1.111 0 0 0-.187.26c-.064.116-.262.449-.438.74-1.088 1.793-1.613 3.941-1.49 6.1.121 2.149.837 4.107 2.143 5.86.456.613 1.485 1.641 2.106 2.105 1.722 1.287 3.802 2.055 5.81 2.146 1.873.084 3.505-.217 5.127-.948 1.131-.51 2.152-1.228 3.115-2.191 1.212-1.211 2.037-2.518 2.574-4.075.787-2.281.774-4.864-.036-7.107a9.516 9.516 0 0 1-.205-.619.673.673 0 0 0-.093-.22 3.443 3.443 0 0 1-.214-.381 12.222 12.222 0 0 0-1.038-1.657c-.455-.609-1.487-1.641-2.1-2.098a10.75 10.75 0 0 0-4.728-2.027c-.408-.067-1.668-.169-1.862-.151l-.56.034m1.826 1.541a9.332 9.332 0 0 1 4.473 1.831c.396.3 1.23 1.108 1.542 1.496.292.361.613.81.594.829a2.787 2.787 0 0 1-.395-.039c-.878-.122-1.542-.159-2.8-.158-1.592.001-2.694.1-4.045.362a11.62 11.62 0 0 1-.906.136c-.713.068-1.214.214-1.828.533A4.8 4.8 0 0 0 7.75 9.9c-.163.328-.335.812-.373 1.052a.495.495 0 0 1-.055.187c-.036.022-.637-.944-1.047-1.686a25.551 25.551 0 0 1-1.237-2.63l-.247-.621.16-.191c.271-.323 1.091-1.101 1.43-1.358a9.384 9.384 0 0 1 4.439-1.83c.56-.077 1.749-.077 2.326-.001M4.001 8.22c.766 1.813 2.202 4.149 3.518 5.72.147.176.382.482.522.68 1.051 1.488 2.634 2.248 4.37 2.097.362-.031.999-.167 1.199-.255.092-.04-.034.238-.451.998-.67 1.219-1.546 2.494-2.331 3.39-.276.315-.26.312-.881.171a9.546 9.546 0 0 1-3.566-1.674c-.409-.309-1.233-1.112-1.568-1.527-.872-1.079-1.568-2.518-1.848-3.822a9.746 9.746 0 0 1 .001-3.996c.162-.756.749-2.307.837-2.214.016.018.105.212.198.432m14.447.119a19.29 19.29 0 0 1 1.827.248c.335.066.335.066.409.233.125.282.343 1.093.437 1.62.11.625.152 1.906.082 2.524a9.428 9.428 0 0 1-2.016 4.856c-.335.415-1.159 1.218-1.568 1.527-1.059.801-2.397 1.425-3.621 1.688-.4.086-1.238.205-1.442.205h-.119l.214-.27c.303-.381.885-1.225 1.236-1.791a22.494 22.494 0 0 0 2.053-4.299 8.94 8.94 0 0 1 .304-.768c.332-.658.483-1.318.483-2.112 0-1.293-.437-2.372-1.342-3.31-.196-.204-.35-.372-.341-.375.009-.003.232-.02.496-.036.646-.042 2.157-.01 2.908.06m-5.468.555c.528.174.874.392 1.304.822.428.428.644.77.824 1.304.099.293.108.374.11.96.002.563-.009.676-.092.94-.166.532-.416.936-.843 1.364-.426.428-.767.644-1.303.824-.296.101-.369.109-.98.109s-.684-.008-.98-.109a3.448 3.448 0 0 1-2.13-2.128c-.098-.295-.107-.371-.107-.98 0-.611.008-.684.109-.98.18-.535.396-.877.824-1.304.717-.717 1.35-.966 2.384-.941.472.012.61.031.88.119" fill-rule="evenodd" fill="#000"/></svg>