<svg width="24" height="24" fill="none" xmlns="http://www.w3.org/2000/svg"><path d="M7.28 1.269c-2.538.091-4.038 1.297-4.821 3.876-.18.595-.279 1.126-.682 3.675-.493 3.122-.498 3.163-.523 4-.037 1.226.106 2.025.506 2.84.235.48.493.828.893 1.208.201.191.314.333.348.438.083.255.339.736.554 1.04.628.891 1.715 1.627 3.228 2.187.583.215 4.918 1.656 5.488 1.824 1.368.402 2.75.474 3.769.197a4.918 4.918 0 0 0 1.365-.672c.813-.618 1.538-1.678 2.067-3.022.234-.593 1.867-5.536 1.983-6 .462-1.852.364-3.292-.301-4.403-.36-.601-.838-1.098-1.479-1.538l-.346-.237-.028-.228a4.917 4.917 0 0 0-.504-1.574c-.699-1.337-2.136-2.229-4.245-2.636-.684-.132-5.46-.879-5.893-.922a11.591 11.591 0 0 0-1.379-.053M8.5 2.802c.512.058 5.097.779 5.72.899 2.261.438 3.335 1.32 3.601 2.959.069.423.076 1.223.017 1.772-.071.654-.836 5.519-.944 6.008-.373 1.683-1.002 2.686-1.958 3.123-.617.283-1.483.398-2.435.323-.787-.061-5.972-.88-6.626-1.046-1.036-.262-1.738-.616-2.256-1.137-.671-.675-.948-1.577-.885-2.885.031-.656.029-.644.51-3.698.422-2.681.529-3.242.723-3.797.548-1.564 1.304-2.274 2.665-2.503.379-.064 1.382-.074 1.868-.018m-.8 2.005c-.651.122-1.383.707-1.692 1.353a2.427 2.427 0 0 0 0 2.16c.23.48.672.922 1.152 1.152a2.427 2.427 0 0 0 2.16 0c.48-.23.922-.672 1.152-1.152a2.427 2.427 0 0 0 0-2.16c-.13-.272-.228-.405-.488-.664-.514-.515-1.067-.742-1.781-.732a3.707 3.707 0 0 0-.503.043m.965 1.546a.973.973 0 0 1 .552.887c0 .384-.197.701-.557.892-.221.118-.619.118-.84 0-.36-.191-.557-.508-.557-.892 0-.289.067-.456.271-.673a.949.949 0 0 1 1.131-.214m10.94 2.497c.258.309.494.796.574 1.183.07.334.08 1.125.02 1.547-.022.154-.095.505-.161.78-.134.556-1.709 5.329-1.986 6.02-.538 1.341-1.181 2.171-1.996 2.575-.369.183-.667.248-1.256.272-.632.026-1.267-.064-2.04-.288a219.783 219.783 0 0 1-5.4-1.788c-.545-.202-1.336-.572-1.519-.71-.098-.074-.095-.074.18-.016.383.081 5.468.882 5.938.935.569.064 1.677.054 2.177-.02 1.895-.282 3.108-1.301 3.851-3.237.286-.743.431-1.458.869-4.265.232-1.484.433-2.819.448-2.968.015-.148.042-.27.06-.27.018 0 .127.113.241.25" fill-rule="evenodd" fill="#000"/></svg>