<svg width="24" height="24" fill="none" xmlns="http://www.w3.org/2000/svg"><path d="M9.32 1.281c-.876.085-1.459.466-1.776 1.16-.109.238-.224.642-.224.786 0 .07-.028.094-.13.111l-.51.082c-1.301.212-2.213.659-2.966 1.454-.549.579-.913 1.292-1.151 2.253-.285 1.15-.322 1.816-.322 5.853 0 4.056.042 4.891.303 5.94.485 1.948 1.705 3.107 3.746 3.562 1.066.238 1.87.277 5.69.277 3.149-.001 4.187-.03 4.971-.14 2.538-.356 3.964-1.527 4.505-3.699.26-1.048.303-1.886.303-5.92-.001-3.819-.035-4.561-.258-5.642-.337-1.625-1.19-2.802-2.481-3.42a6.424 6.424 0 0 0-1.92-.555c-.384-.05-.42-.063-.42-.158 0-.17-.122-.567-.264-.858-.255-.521-.663-.844-1.283-1.015-.304-.084-.389-.086-2.893-.095-1.419-.005-2.733.006-2.92.024m5.594 1.572a.557.557 0 0 1 .22.26c.078.17.086.253.086.927 0 .87-.025.951-.333 1.094-.186.086-.203.086-2.927.086-3.12 0-2.93.02-3.094-.333-.078-.169-.086-.254-.086-.887s.008-.718.086-.887c.088-.19.18-.264.394-.317.066-.016 1.335-.026 2.82-.023 2.529.007 2.708.012 2.834.08M7.343 4.95c.154.696.516 1.236 1.006 1.501.113.061.346.149.518.197.3.082.412.086 2.648.102 3.04.022 3.457-.012 4.118-.334.516-.252.892-.73 1.011-1.287a1.09 1.09 0 0 1 .08-.264c.017-.02.2-.005.423.035 1.998.358 2.829 1.429 3.056 3.938.027.298.036 1.907.027 4.542-.013 3.592-.023 4.13-.083 4.498-.101.628-.215 1.018-.433 1.48-.174.371-.236.456-.545.76-.639.629-1.514.954-2.909 1.082-.585.053-7.935.053-8.52 0-1.394-.128-2.272-.454-2.905-1.079-.452-.446-.661-.842-.854-1.615-.205-.819-.22-1.192-.221-5.406 0-2.324.016-4.052.041-4.309.23-2.428 1.033-3.486 2.939-3.871.52-.106.573-.103.603.03m2.503 6.495c-.193.057-.51.389-.565.59-.091.339-.039.418.861 1.325l.814.82-.834.84c-.922.929-.972 1.005-.881 1.345.06.221.373.534.594.594.34.091.416.041 1.345-.881l.84-.834.82.814c.907.9.986.952 1.325.861.221-.06.534-.373.594-.594.091-.338.039-.418-.861-1.325l-.814-.82.794-.8c.878-.885.932-.968.841-1.305-.06-.221-.373-.534-.594-.594-.337-.09-.42-.037-1.306.842l-.801.795-.759-.761c-.418-.418-.813-.794-.879-.836a.685.685 0 0 0-.534-.076" fill-rule="evenodd" fill="#000"/></svg>