<svg width="24" height="24" fill="none" xmlns="http://www.w3.org/2000/svg"><path d="M9.32 1.281c-.876.085-1.459.466-1.776 1.16-.109.238-.224.642-.224.786 0 .07-.028.094-.13.111l-.51.082c-1.301.212-2.213.659-2.966 1.454-.549.579-.913 1.292-1.151 2.253-.285 1.15-.322 1.816-.322 5.853 0 4.056.042 4.891.303 5.94.485 1.948 1.705 3.107 3.746 3.562 1.061.237 2.07.287 5.39.271 2.496-.013 2.584-.016 2.716-.093.273-.161.396-.478.327-.845a.646.646 0 0 0-.327-.475c-.132-.078-.23-.081-3.456-.104-2.23-.016-3.412-.039-3.6-.07-1.312-.218-1.928-.475-2.505-1.045-.452-.446-.661-.842-.854-1.615-.205-.819-.22-1.192-.221-5.406 0-2.324.016-4.052.041-4.309.208-2.191.889-3.259 2.379-3.729.341-.107 1.085-.25 1.12-.215.012.011.048.127.081.257.096.377.323.798.554 1.029.256.255.524.403.932.515.3.082.412.086 2.648.102 3.04.022 3.457-.012 4.118-.334.516-.252.892-.73 1.011-1.287a1.09 1.09 0 0 1 .08-.264c.04-.047.734.079 1.116.202 1.369.442 1.988 1.299 2.306 3.193.057.342.07.875.09 3.7.023 3.206.026 3.304.104 3.436a.646.646 0 0 0 .475.327c.367.069.684-.054.845-.327.077-.132.08-.22.092-2.736.018-3.817-.054-4.802-.437-5.98-.426-1.309-1.177-2.206-2.295-2.742a6.424 6.424 0 0 0-1.92-.555c-.384-.05-.42-.063-.42-.158 0-.17-.122-.567-.264-.858-.255-.521-.663-.844-1.283-1.015-.304-.084-.389-.086-2.893-.095-1.419-.005-2.733.006-2.92.024m5.594 1.572a.557.557 0 0 1 .22.26c.078.17.086.253.086.927 0 .87-.025.951-.333 1.094-.186.086-.203.086-2.927.086-3.12 0-2.93.02-3.094-.333-.078-.169-.086-.254-.086-.887s.008-.718.086-.887c.088-.19.18-.264.394-.317.066-.016 1.335-.026 2.82-.023 2.529.007 2.708.012 2.834.08m-.108 12.393c-.192.055-.51.387-.565.589-.101.376-.196.264 2.487 2.95l2.441 2.446-.714.015c-.625.013-.732.025-.851.094-.273.16-.396.478-.327.845a.646.646 0 0 0 .327.475c.13.077.208.08 1.896.08 1.703 0 1.764-.003 1.9-.082a.708.708 0 0 0 .34-.55c.014-.114.02-.919.013-1.788-.012-1.495-.017-1.587-.093-1.716a.646.646 0 0 0-.475-.327c-.367-.069-.685.054-.845.327-.069.119-.081.226-.094.851l-.015.714-2.446-2.441c-2.708-2.704-2.58-2.597-2.979-2.482" fill-rule="evenodd" fill="#000"/></svg>