<svg width="24" height="24" fill="none" xmlns="http://www.w3.org/2000/svg"><path d="M10.98 1.283c-1.511.132-2.532.968-3.053 2.501-.046.135-.194.783-.329 1.44L7.351 6.42l-.414.41C4.68 9.068 4.113 12.431 5.52 15.241a7.031 7.031 0 0 0 1.403 1.922l.428.423.245 1.185c.317 1.533.462 1.952.895 2.58.465.675 1.115 1.097 1.989 1.293.445.099 1.747.143 2.443.082 1.374-.121 2.274-.696 2.864-1.832.275-.528.376-.869.654-2.213l.236-1.139.228-.2c.335-.293.785-.824 1.102-1.298a7.222 7.222 0 0 0-.93-9.199l-.402-.399-.235-1.133c-.277-1.338-.378-1.68-.653-2.207-.579-1.116-1.492-1.71-2.803-1.826a14.573 14.573 0 0 0-2.004.003m2.314 1.555c.374.096.602.225.835.474.335.358.535.807.695 1.558.053.248.096.457.096.465a2.79 2.79 0 0 1-.361-.122 7.342 7.342 0 0 0-5.029-.032c-.212.075-.393.129-.403.119-.028-.028.107-.689.201-.98.198-.618.525-1.088.907-1.303.378-.213.649-.252 1.749-.255.87-.002 1.044.008 1.31.076m-.454 3.488c1.811.243 3.452 1.426 4.289 3.091a5.719 5.719 0 0 1-1.063 6.638 5.923 5.923 0 0 1-2.869 1.566 6.61 6.61 0 0 1-1.662.094c-1.064-.085-1.849-.365-2.779-.989-.519-.349-.809-.608-1.181-1.055a5.921 5.921 0 0 1-1.241-2.656c-.094-.478-.094-1.49.001-2.015A5.824 5.824 0 0 1 9.06 7.072c1.152-.687 2.396-.932 3.78-.746M11.599 9.01a.67.67 0 0 0-.258.23c-.078.134-.081.207-.081 1.74 0 .88.015 1.654.033 1.72.041.149 1.619 1.751 1.835 1.863a.732.732 0 0 0 .272.077c.283 0 .679-.339.764-.654.079-.293-.018-.446-.747-1.186l-.651-.66-.013-1.38c-.012-1.299-.018-1.388-.094-1.52-.111-.193-.373-.32-.659-.32a.86.86 0 0 0-.401.09m-2.2 9.767c.341.138.881.29 1.321.372.547.101 2.021.099 2.576-.003a7.82 7.82 0 0 0 1.316-.371c.15-.057.279-.097.288-.088.031.031-.175.902-.278 1.173-.197.52-.494.914-.846 1.12-.361.212-.689.26-1.776.26-1.085 0-1.386-.044-1.765-.257-.494-.278-.845-.894-1.037-1.817-.081-.389-.092-.486-.057-.486.011 0 .128.043.258.097" fill-rule="evenodd" fill="#000"/></svg>