<svg width="24" height="24" fill="none" xmlns="http://www.w3.org/2000/svg"><path d="M11.32 1.281c-2.061.117-4.07.861-5.79 2.143-.618.46-1.646 1.488-2.106 2.106-1.549 2.078-2.288 4.52-2.143 7.08.121 2.149.837 4.107 2.143 5.86.456.613 1.485 1.641 2.106 2.105 2.076 1.551 4.54 2.295 7.097 2.142 2.163-.129 4.097-.838 5.843-2.142.617-.46 1.645-1.488 2.105-2.105 1.552-2.079 2.295-4.54 2.142-7.097-.129-2.163-.838-4.097-2.142-5.843-.46-.617-1.488-1.645-2.105-2.105a10.75 10.75 0 0 0-4.728-2.027c-.408-.067-1.668-.169-1.862-.151l-.56.034m1.826 1.541a9.055 9.055 0 0 1 2.914.876c.964.472 1.588.913 2.374 1.68.839.817 1.38 1.559 1.869 2.562A8.914 8.914 0 0 1 21.24 12a8.895 8.895 0 0 1-.938 4.06c-.472.964-.913 1.588-1.68 2.374-.817.839-1.559 1.38-2.562 1.869a8.914 8.914 0 0 1-4.06.937 8.914 8.914 0 0 1-4.06-.937c-1.003-.489-1.745-1.03-2.562-1.869-.767-.786-1.208-1.41-1.68-2.374A8.895 8.895 0 0 1 2.76 12c0-2.14.713-4.162 2.053-5.82.335-.415 1.159-1.218 1.568-1.527a9.388 9.388 0 0 1 4.439-1.83c.56-.077 1.749-.077 2.326-.001M11.3 6.818a.585.585 0 0 0-.38.424c-.03.109-.039.902-.03 2.469.011 2.065.02 2.334.083 2.549.173.586.578 1.206.991 1.516.261.197 3.326 2.039 3.541 2.129.073.03.189.055.258.055.328 0 .676-.386.709-.785.032-.39.038-.386-1.902-1.544-1.849-1.104-1.865-1.116-2.081-1.578l-.109-.233-.02-2.327c-.02-2.272-.022-2.33-.102-2.438a1.135 1.135 0 0 0-.186-.187c-.138-.103-.556-.13-.772-.05" fill-rule="evenodd" fill="#000"/></svg>