<svg width="24" height="24" fill="none" xmlns="http://www.w3.org/2000/svg"><path d="M11.56 1.266a10.763 10.763 0 0 0-9.105 5.833c-.811 1.574-1.181 3.1-1.183 4.881-.001 1.143.123 2.029.43 3.07 1.014 3.438 3.82 6.244 7.248 7.247 1.693.495 3.576.574 5.246.219a10.796 10.796 0 0 0 7.349-5.615c.815-1.582 1.183-3.103 1.183-4.901 0-1.137-.121-1.99-.431-3.05-1.003-3.428-3.819-6.244-7.247-7.247-1.11-.325-2.406-.487-3.49-.437m1.588 1.556c2.079.272 3.88 1.162 5.374 2.656a8.988 8.988 0 0 1 1.909 2.736A8.898 8.898 0 0 1 21.24 12c0 1.36-.258 2.567-.809 3.786a8.988 8.988 0 0 1-1.909 2.736 8.988 8.988 0 0 1-2.736 1.909A8.898 8.898 0 0 1 12 21.24a8.898 8.898 0 0 1-3.786-.809 8.988 8.988 0 0 1-2.736-1.909C3.695 16.739 2.76 14.495 2.76 12s.935-4.739 2.718-6.522c1.482-1.482 3.278-2.374 5.343-2.656.559-.076 1.748-.076 2.327 0M8.9 8.446c-.127.07-.381.324-.443.442-.076.143-.072.405.007.564.035.07.606.673 1.27 1.338L10.94 12l-1.206 1.21c-.664.666-1.235 1.268-1.27 1.338-.079.159-.083.421-.007.564.065.125.323.378.45.443.126.065.396.055.545-.019.07-.035.673-.606 1.338-1.27L12 13.06l1.21 1.206c.666.664 1.268 1.235 1.338 1.27.159.079.421.083.564.007.125-.065.378-.323.443-.45.065-.126.055-.396-.019-.545-.035-.07-.606-.672-1.27-1.338L13.06 12l1.206-1.21c.664-.665 1.235-1.268 1.27-1.338.074-.149.084-.419.019-.545a1.557 1.557 0 0 0-.443-.45c-.143-.076-.405-.072-.564.007-.07.035-.672.606-1.338 1.27L12 10.94l-1.21-1.206c-.665-.664-1.268-1.235-1.338-1.27-.147-.073-.434-.082-.552-.018" fill-rule="evenodd" fill="#000"/></svg>