<svg width="24" height="24" fill="none" xmlns="http://www.w3.org/2000/svg"><path d="M10.82 3.244a7.76 7.76 0 0 0-2.639.736C6.097 5.011 4.77 6.788 4.461 8.96a8.1 8.1 0 0 0 .118 2.661c.033.145.061.279.061.297 0 .019-.145.081-.322.138a4.183 4.183 0 0 0-2.613 2.407c-.705 1.672-.36 3.682.852 4.953.75.786 1.736 1.239 2.883 1.325.306.022.358.016.519-.068.257-.133.339-.297.34-.679.001-.25-.015-.329-.081-.419-.158-.211-.266-.259-.722-.321-.839-.115-1.299-.331-1.82-.853-.273-.274-.378-.414-.51-.683-.264-.535-.339-.906-.317-1.556.016-.473.034-.587.14-.892.398-1.144 1.324-1.846 2.554-1.937.394-.029.802.052 1.297.258.551.229.819.176 1.056-.21a.851.851 0 0 0 .137-.443c.015-.231.008-.254-.119-.399-.208-.238-.98-.562-1.527-.641-.231-.033-.233-.037-.379-.718-.089-.414-.103-.579-.103-1.2-.001-.835.077-1.289.33-1.918.298-.741.658-1.258 1.276-1.833.733-.682 1.69-1.169 2.77-1.408.412-.092 1.465-.125 1.931-.062a4.99 4.99 0 0 1 3.697 2.507c.261.46.64 1.427.603 1.538-.008.024-.167.093-.353.153-.92.299-1.212.587-1.083 1.068.052.192.24.464.388.561.158.104.429.081.776-.066.642-.271 1.105-.334 1.595-.219 1.537.363 2.805 1.706 3.207 3.398.283 1.192.113 2.358-.494 3.394-.202.343-.929 1.093-1.305 1.346-.375.253-.9.503-1.306.622-.325.096-.612.138-1.386.203-.472.039-.671.258-.671.736 0 .423.168.655.526.722.217.041 1.041-.018 1.46-.104 1.119-.231 2.16-.789 3.039-1.629 1.019-.974 1.591-2.17 1.738-3.629a5.948 5.948 0 0 0-.104-1.784c-.431-2.155-1.879-3.886-3.819-4.566a4.723 4.723 0 0 0-.489-.146c-.134-.025-.153-.044-.192-.196-.285-1.098-.593-1.816-1.113-2.592-1.117-1.668-2.843-2.664-4.913-2.836-.527-.043-.62-.043-1.193.004m-1.1 12.039c-.13.059-.475.375-1.235 1.129-.58.577-1.106 1.128-1.17 1.226-.224.346-.096.792.292 1.014.246.142.327.158.521.106.149-.039.324-.197 1.325-1.192.635-.63 1.188-1.213 1.23-1.294a.545.545 0 0 0-.002-.549c-.099-.195-.373-.431-.558-.483-.188-.052-.194-.051-.403.043m4 0c-.13.059-.475.375-1.235 1.129-.58.577-1.106 1.128-1.17 1.226-.224.346-.096.792.292 1.014.246.142.327.158.521.106.149-.039.324-.197 1.325-1.192.635-.63 1.188-1.213 1.23-1.294a.543.543 0 0 0-.001-.547c-.13-.256-.498-.527-.711-.524a.928.928 0 0 0-.251.082m-4 4c-.13.059-.475.375-1.235 1.129-.58.577-1.106 1.128-1.17 1.226-.224.346-.096.792.292 1.014.246.142.327.158.521.106.149-.039.324-.197 1.325-1.192.635-.63 1.188-1.213 1.23-1.294a.545.545 0 0 0-.002-.549c-.099-.195-.373-.431-.558-.483-.188-.052-.194-.051-.403.043m4 0c-.13.059-.475.375-1.235 1.129-.58.577-1.106 1.128-1.17 1.226-.224.346-.096.792.292 1.014.246.142.327.158.521.106.149-.039.324-.197 1.325-1.192.635-.63 1.188-1.213 1.23-1.294a.543.543 0 0 0-.001-.547c-.13-.256-.498-.527-.711-.524a.928.928 0 0 0-.251.082" fill-rule="evenodd" fill="#000"/></svg>