<svg width="24" height="24" fill="none" xmlns="http://www.w3.org/2000/svg"><path d="M11.06 3.226a7.505 7.505 0 0 0-4.403 1.737 6.785 6.785 0 0 0-1.674 2.178c-.463 1.002-.648 1.922-.609 3.039.021.607.049.828.211 1.681.022.12.02.122-.271.214a4.236 4.236 0 0 0-2.556 2.222c-.852 1.752-.514 3.904.825 5.25.612.615 1.286.975 2.217 1.184.376.084.437.085 6.02.099 5.862.015 6.457.003 7.133-.149 2.214-.497 3.956-2.113 4.547-4.218.183-.654.258-1.56.183-2.223-.109-.971-.454-2-.911-2.715l-.137-.215.097-.105c.172-.185.425-.587.585-.931.832-1.788.299-3.95-1.266-5.132a4.22 4.22 0 0 0-2.187-.858 4.706 4.706 0 0 0-1.504.121c-.316.087-.96.373-1.16.515l-.118.084-.351-.285a6.035 6.035 0 0 0-1.191-.785c-.713-.37-1.584-.612-2.502-.693a5.007 5.007 0 0 0-.978-.015m1.325 1.555c1.965.34 3.35 1.584 4.039 3.632a6.2 6.2 0 0 1 .136.431c0 .015-.13.068-.29.116-.369.112-.861.337-.983.452-.232.216-.267.493-.103.82.236.474.522.553 1.113.308.801-.331 1.333-.339 2.131-.03.915.354 1.768 1.166 2.262 2.15.675 1.347.705 2.907.079 4.16-.219.438-.434.73-.826 1.121-.573.571-1.095.899-1.823 1.146-.711.241-.465.233-6.895.233-5.777-.001-5.891-.002-6.224-.082-1.07-.256-1.846-1.025-2.123-2.103-.112-.437-.111-1.154.001-1.591.282-1.099 1.034-1.841 2.132-2.105.596-.142 1.06-.097 1.748.171.626.244.824.218 1.082-.138.226-.312.251-.644.065-.887-.163-.214-.801-.493-1.426-.622l-.34-.071-.069-.276c-.372-1.482-.273-2.739.308-3.916.279-.564.501-.869.977-1.342.752-.746 1.777-1.288 2.869-1.514.527-.109.546-.111 1.22-.118.371-.004.714.016.94.055m6.935 1.092c.143.047.377.153.52.236.318.185.813.674.995.982.507.861.507 1.939.001 2.798l-.159.27-.228-.187a5.605 5.605 0 0 0-1.965-1.035c-.187-.055-.354-.12-.369-.146a3.015 3.015 0 0 1-.114-.387 8.288 8.288 0 0 0-.819-1.979 1.748 1.748 0 0 1-.142-.264c0-.047.521-.274.781-.339.35-.088 1.155-.06 1.499.051" fill-rule="evenodd" fill="#000"/></svg>