<svg width="24" height="24" fill="none" xmlns="http://www.w3.org/2000/svg"><path d="M14.793 1.278c-.388.075-.604.443-.511.868.021.094.275.565.584 1.08.625 1.043.704 1.157.859 1.236.454.235 1.19-.271 1.099-.756-.013-.071-.105-.271-.204-.444a5.405 5.405 0 0 1-.18-.33c0-.024.207.033.58.159a6.232 6.232 0 0 1 3.562 3.112c.412.822.589 1.502.657 2.53.039.592.083.725.286.877.217.162.698.169.933.015.257-.169.311-.41.259-1.165a7.726 7.726 0 0 0-3.44-5.918 8.056 8.056 0 0 0-2.33-1.039c-.663-.173-1.81-.292-2.154-.225m-3.969 4.704c-1.789.337-3.16 1.569-3.593 3.229-.07.269-.086.449-.088.989-.002.363.01.75.027.86l.029.2-.311.15c-1.114.535-1.758 1.749-1.612 3.036.145 1.273 1.007 2.267 2.213 2.554.341.081.426.082 4.18.071 3.812-.012 3.833-.012 4.142-.1 1.395-.395 2.475-1.471 2.809-2.794.088-.35.132-1.029.091-1.411-.125-1.175-.775-2.28-1.717-2.918-.241-.163-.689-.386-.903-.45-.169-.05-.17-.052-.273-.388a5.484 5.484 0 0 0-.751-1.46c-.553-.734-1.359-1.258-2.327-1.514-.427-.113-1.452-.142-1.916-.054m1.448 1.48c.438.089.97.357 1.288.649.477.437.757.96.943 1.759.058.247.144.508.192.579.097.144.288.23.725.328.827.186 1.463.827 1.723 1.739.096.335.105.421.087.8-.035.688-.253 1.158-.756 1.623a2.443 2.443 0 0 1-1.054.581c-.301.077-.445.08-3.838.08-3.935 0-3.817.008-4.221-.274-.431-.302-.622-.728-.593-1.322.038-.786.47-1.249 1.298-1.39.76-.129.97-.451.741-1.135-.31-.924-.271-1.776.114-2.516.576-1.107 2.045-1.765 3.351-1.501M1.793 14.277c-.287.057-.459.235-.517.535-.017.092-.015.414.006.715.167 2.422 1.413 4.57 3.441 5.932.757.508 1.864.963 2.772 1.138.527.102 1.462.171 1.699.125.345-.065.533-.302.536-.673a.835.835 0 0 0-.069-.369c-.117-.231-1.067-1.81-1.175-1.952-.255-.34-.696-.336-1.079.011-.183.165-.266.365-.231.555.013.071.105.271.204.444.099.174.18.322.18.33 0 .06-.884-.253-1.32-.468a6.36 6.36 0 0 1-2.551-2.302c-.538-.854-.922-2.107-.93-3.038-.005-.529-.094-.764-.343-.906-.142-.08-.426-.115-.623-.077" fill-rule="evenodd" fill="#000"/></svg>