<svg width="24" height="24" fill="none" xmlns="http://www.w3.org/2000/svg"><path d="M10.751 3.242c-1.852.194-3.663 1.103-4.783 2.4-1.399 1.622-1.895 3.671-1.432 5.913l.089.433-.303.089c-1.039.305-2.021 1.132-2.521 2.123-.704 1.395-.653 3.201.126 4.489.679 1.121 1.709 1.826 2.99 2.046.336.058 1.029.065 6.346.065 5.795 0 5.983-.002 6.439-.08 1.195-.205 2.243-.731 3.186-1.6.91-.84 1.455-1.819 1.738-3.12.115-.529.104-1.831-.02-2.4a6.437 6.437 0 0 0-.567-1.62c-.777-1.561-2.151-2.697-3.748-3.1-.154-.039-.172-.057-.211-.211a18.258 18.258 0 0 0-.222-.729c-.69-2.148-2.187-3.704-4.217-4.383-.838-.28-2.008-.408-2.89-.315m1.509 1.524c.777.105 1.58.417 2.222.863.843.586 1.599 1.662 1.973 2.81l.136.419-.39.127c-1.038.34-1.306.668-1.017 1.247.236.474.522.553 1.114.308.727-.301 1.263-.343 1.858-.143.427.143.695.272 1.024.494.943.637 1.596 1.589 1.912 2.789.11.422.121.517.124 1.14.002.576-.011.733-.086 1.028-.221.875-.541 1.449-1.147 2.055-.787.787-1.685 1.243-2.712 1.377-.228.03-2.161.039-6.211.031l-5.88-.012-.293-.09c-.842-.261-1.415-.745-1.787-1.509-.24-.492-.315-.887-.289-1.515.022-.543.09-.834.288-1.245.363-.751 1.054-1.295 1.902-1.498a2.795 2.795 0 0 1 1.818.184c.131.059.302.121.38.139.302.069.591-.117.758-.485.149-.331.09-.62-.167-.814-.272-.205-.99-.473-1.42-.529l-.211-.027-.057-.205c-.345-1.223-.318-2.443.079-3.554.347-.97 1.107-1.9 2.033-2.487a5.986 5.986 0 0 1 4.046-.898" fill-rule="evenodd" fill="#000"/></svg>