<svg width="24" height="24" fill="none" xmlns="http://www.w3.org/2000/svg"><path d="M10.743 3.244c-.87.092-1.921.399-2.663.778-2.433 1.243-3.817 3.572-3.706 6.235.021.515.06.811.211 1.604.022.12.02.122-.271.214a4.236 4.236 0 0 0-2.556 2.222c-.852 1.752-.514 3.904.825 5.25.612.615 1.286.975 2.217 1.184.376.084.437.085 6.02.099 5.862.015 6.457.003 7.133-.149a6.158 6.158 0 0 0 2.656-1.309 5.83 5.83 0 0 0 2.01-3.412c.149-.766.103-2.055-.086-2.427-.088-.174-.353-.333-.554-.333-.209 0-.546.121-.663.237-.151.151-.177.342-.124.884.091.909-.072 1.82-.455 2.559-.525 1.011-1.486 1.824-2.603 2.202-.727.247-.466.238-6.909.238-5.777-.001-5.891-.002-6.224-.082-1.07-.256-1.846-1.025-2.123-2.103-.112-.437-.111-1.154.001-1.591.282-1.099 1.034-1.841 2.132-2.105.596-.142 1.06-.097 1.748.171.626.244.824.218 1.082-.138.226-.312.251-.644.065-.887-.163-.214-.8-.492-1.424-.622l-.339-.071-.071-.276A6.12 6.12 0 0 1 5.867 10c-.002-.664.067-1.117.256-1.685.88-2.647 4.014-4.191 6.89-3.394.531.147.787.09.965-.215.217-.37.204-.756-.033-.974-.389-.357-2.047-.61-3.202-.488m7.281 1.041c-1.577.151-2.985 1.257-3.542 2.784a4.356 4.356 0 0 0-.027 2.795 4.236 4.236 0 0 0 3.615 2.852c1.294.12 2.48-.311 3.407-1.239 1.401-1.401 1.631-3.598.554-5.283a4.363 4.363 0 0 0-2.257-1.728 4.395 4.395 0 0 0-1.75-.181m1.152 1.554c.934.239 1.729 1.046 1.968 2 .084.334.084.941 0 1.297-.185.778-.74 1.466-1.484 1.837-.751.375-1.699.36-2.472-.039-.432-.223-.962-.768-1.182-1.215a2.707 2.707 0 0 1 .003-2.436c.223-.452.747-.991 1.18-1.216a2.901 2.901 0 0 1 1.987-.228" fill-rule="evenodd" fill="#000"/></svg>