<svg width="24" height="24" fill="none" xmlns="http://www.w3.org/2000/svg"><path d="M10.68 1.764c-1.377.155-2.841.755-3.88 1.589a6.646 6.646 0 0 0-2.116 3.036c-.359 1.098-.42 2.482-.162 3.669.043.197.078.378.078.402 0 .024-.156.094-.347.157-1.997.65-3.236 2.73-2.917 4.894.295 1.997 1.656 3.413 3.599 3.748.243.042.625.061 1.205.061h.849l.198.31a5.575 5.575 0 0 0 2.28 2.046 5.63 5.63 0 0 0 1.429.491c.577.124 1.631.124 2.208 0 1.586-.339 2.859-1.209 3.705-2.532l.195-.304.268-.027c1.234-.125 2.409-.637 3.407-1.484 1.031-.874 1.675-1.997 1.948-3.4.1-.511.098-1.58-.002-2.12a6.908 6.908 0 0 0-1.028-2.547c-.321-.476-1.096-1.252-1.561-1.562a6.254 6.254 0 0 0-1.535-.73 2.37 2.37 0 0 1-.384-.132A3.034 3.034 0 0 1 18 6.94c-.338-1.317-1.061-2.582-1.966-3.442-1.373-1.304-3.385-1.956-5.354-1.734m1.736 1.541a5.353 5.353 0 0 1 1.999.799c.5.333 1.122 1.008 1.479 1.602.33.552.631 1.368.783 2.128.133.663.236.805.649.889.909.185 1.317.338 1.85.693.41.273 1.024.905 1.283 1.32.896 1.437 1.007 3.225.289 4.649-.402.796-1.2 1.56-2.077 1.986-.396.193-.97.384-1.016.338-.014-.015-.004-.166.024-.336.068-.424.06-1.312-.016-1.781a6.966 6.966 0 0 0-.515-1.616c-.543-1.079-1.528-2.061-2.585-2.58-.863-.422-1.605-.595-2.563-.595-1.58 0-2.928.559-4.043 1.675-.702.703-1.106 1.352-1.402 2.254a5.89 5.89 0 0 0-.171 3l.022.11h-.479c-1.018 0-1.721-.261-2.307-.858-.477-.485-.736-1.046-.819-1.77-.11-.968.182-1.835.839-2.497.507-.51 1.037-.748 1.853-.834.545-.057.817-.253.856-.618.012-.116-.03-.311-.144-.674-.338-1.079-.432-1.933-.306-2.809.163-1.143.627-2.073 1.438-2.882 1.305-1.302 3.218-1.902 5.079-1.593m.632 9.109c.431.112.946.338 1.3.572.301.2.812.687 1.055 1.006a4.5 4.5 0 0 1 .798 1.897c.107.67-.011 1.658-.259 2.171-.053.11-.132.284-.175.386-.214.507-.842 1.226-1.397 1.601a4.21 4.21 0 0 1-4.74 0c-.555-.375-1.183-1.094-1.397-1.601a10.312 10.312 0 0 0-.175-.386c-.248-.513-.366-1.501-.259-2.171a4.516 4.516 0 0 1 .676-1.729c.183-.278.675-.796.975-1.028.48-.369 1.165-.668 1.816-.791.473-.089 1.286-.056 1.782.073m.252 2.423c-.088.041-.538.426-1 .856l-.84.781-.26-.253c-.373-.364-.533-.461-.758-.461-.532 0-.953.661-.691 1.085.046.074.368.416.717.761.498.492.667.634.791.669.19.052.386.009.57-.127.142-.105 2.016-1.827 2.279-2.095.302-.307.312-.635.028-.967-.163-.191-.399-.326-.564-.325a.794.794 0 0 0-.272.076" fill-rule="evenodd" fill="#000"/></svg>