<svg width="24" height="24" fill="none" xmlns="http://www.w3.org/2000/svg"><path d="M10.948 1.28c-1.936.184-3.712 1.198-4.72 2.697a5.582 5.582 0 0 0-.873 2.063c-.076.352-.09.542-.09 1.18-.001.717.019.914.156 1.563.025.117.018.125-.147.173-.973.287-1.891 1.097-2.337 2.062-.566 1.225-.468 2.804.244 3.908.589.915 1.361 1.458 2.451 1.723.332.081.466.085 2.978.1l2.63.016v1.584l-.23.085c-.66.242-1.334.915-1.575 1.574l-.084.228-1.806.012c-1.721.011-1.811.016-1.941.092-.273.161-.396.478-.327.845a.646.646 0 0 0 .327.475c.13.076.22.081 1.944.092l1.807.012.047.148c.124.393.515.94.871 1.219.545.427 1.042.6 1.727.6s1.182-.173 1.727-.6c.356-.279.747-.826.871-1.219l.047-.148 1.807-.012c1.724-.011 1.814-.016 1.944-.092a.646.646 0 0 0 .327-.475c.069-.367-.054-.684-.327-.845-.13-.076-.22-.081-1.941-.092l-1.806-.012-.084-.228c-.241-.659-.915-1.332-1.575-1.574l-.23-.085v-1.581l1.95-.02c2.128-.022 2.246-.032 3-.272 1.243-.397 2.376-1.292 3.014-2.381 1.208-2.063.819-4.836-.923-6.576a4.98 4.98 0 0 0-2.036-1.256l-.376-.123-.077-.299c-.321-1.239-1.048-2.451-1.904-3.171-.832-.7-1.722-1.121-2.763-1.307a7.185 7.185 0 0 0-1.697-.083m1.743 1.612c1.22.323 2.175 1.098 2.762 2.24.203.395.431 1.08.529 1.588.114.59.265.748.798.838.823.139 1.547.54 2.122 1.175.972 1.072 1.291 2.77.773 4.113-.393 1.02-1.379 1.899-2.537 2.262l-.358.112-5.289.011c-5.878.012-5.537.027-6.127-.257-.576-.277-1.051-.88-1.225-1.554-.081-.314-.082-.968-.002-1.311.145-.626.609-1.246 1.143-1.526a2.508 2.508 0 0 1 1.01-.304c.579-.066.87-.295.87-.684 0-.107-.053-.361-.118-.565-.402-1.265-.416-2.276-.047-3.32.438-1.241 1.634-2.312 3.069-2.748.533-.162.84-.198 1.556-.185.578.01.739.028 1.071.115m-.237 16.949c.29.109.596.415.705.705.176.471.068.975-.285 1.328a1.182 1.182 0 0 1-.874.366c-.508 0-.986-.327-1.163-.795-.109-.288-.094-.741.033-.987.149-.289.479-.572.77-.661.198-.06.592-.039.814.044" fill-rule="evenodd" fill="#000"/></svg>