<svg width="24" height="24" fill="none" xmlns="http://www.w3.org/2000/svg"><path d="M9.16 2.299c-1.837.268-3.481 1.152-4.578 2.461C3.06 6.576 2.667 8.99 3.48 11.53c.179.561.304.752.542.831.275.091.787-.097.94-.344.114-.184.098-.427-.062-.936-.272-.867-.317-1.168-.316-2.081.002-.789.006-.838.127-1.294.144-.543.456-1.222.759-1.647.81-1.14 2.106-1.941 3.631-2.245.492-.098 1.58-.099 2.066-.002 2.006.4 3.42 1.748 4.045 3.854l.061.207-.343.107c-.482.15-.92.372-1.036.525-.186.243-.161.575.065.887.258.356.456.382 1.082.138.914-.356 1.422-.333 2.339.106.493.236.795.462 1.222.913.36.381.586.708.841 1.22.091.182.212.381.269.442.218.231.635.225.966-.014.35-.254.368-.551.069-1.162-.746-1.522-2.119-2.695-3.631-3.1a1.611 1.611 0 0 1-.287-.095c-.017-.014-.076-.196-.132-.403-.737-2.766-2.647-4.604-5.301-5.102-.468-.087-1.743-.108-2.236-.036M3.717 14.318c-.312.095-.449.317-.449.727 0 .298.074.468.265.611l.113.084h16.708l.113-.084c.191-.143.265-.313.265-.611 0-.331-.088-.531-.286-.654L20.3 14.3l-8.24-.007c-4.532-.003-8.287.008-8.343.025m2 3c-.312.095-.449.317-.449.727 0 .298.074.468.265.611l.113.084h12.708l.113-.084c.191-.143.265-.313.265-.611 0-.331-.088-.531-.286-.654L18.3 17.3l-6.24-.007c-3.432-.004-6.287.008-6.343.025m3 3c-.312.096-.449.317-.449.727 0 .298.074.468.265.611.113.084.12.084 3.467.084s3.354 0 3.467-.084c.191-.143.265-.313.265-.611 0-.331-.088-.531-.286-.654L15.3 20.3l-3.24-.007c-1.782-.004-3.287.007-3.343.025" fill-rule="evenodd" fill="#000"/></svg>