<svg width="24" height="24" fill="none" xmlns="http://www.w3.org/2000/svg"><path d="M8.08 1.282c-4.072.213-6.185 2.014-6.697 5.709-.113.812-.141 1.825-.141 5.009 0 4.504.06 5.273.518 6.65.772 2.313 2.446 3.576 5.267 3.972.759.106 1.875.137 4.973.137s4.214-.031 4.973-.137c2.47-.347 4.023-1.334 4.924-3.132.482-.96.741-2.121.823-3.683.051-.969.051-6.645 0-7.614-.063-1.195-.199-2.002-.478-2.837-.61-1.825-1.773-2.989-3.592-3.596-.862-.287-1.627-.416-2.844-.48-.854-.045-6.854-.043-7.726.002m8.72 1.572c2.161.359 3.262 1.103 3.896 2.633.154.372.313.947.398 1.438l.053.305-9.11.03c-5.01.016-9.127.019-9.148.005-.025-.015-.013-.168.031-.414.428-2.384 1.617-3.546 4.04-3.951.73-.123 1.088-.131 5.24-.123 3.763.007 4.222.014 4.6.077m4.43 9.716c-.016 4.181-.011 4.074-.27 5.118-.456 1.831-1.44 2.816-3.272 3.272-1.066.266-.943.26-5.688.26-3.936 0-4.339-.006-4.76-.072-2.786-.434-3.93-1.568-4.386-4.348-.061-.372-.071-.856-.084-4.23l-.014-3.81h18.488l-.014 3.81m-12.646-.188c-.831.427-1.624 1.194-1.96 1.898-.117.244-.124.288-.124.722 0 .452.003.469.147.76.256.517.85 1.162 1.435 1.56.895.607 1.333.586 1.62-.077.083-.192.074-.47-.021-.623-.049-.08-.217-.209-.447-.345C8.666 15.942 7.96 15.234 7.96 15c0-.234.706-.942 1.274-1.277.23-.136.398-.265.447-.345.139-.225.094-.563-.115-.872-.209-.309-.54-.351-.982-.124m6.209-.022c-.08.066-.192.213-.249.328-.196.392-.11.691.266.932l.419.266c.325.206.586.445.815.747.239.315.246.409.05.671-.304.408-.599.664-1.117.97-.398.235-.504.356-.528.603-.015.163.002.244.089.422.153.314.345.461.601.461.704-.002 2.19-1.299 2.51-2.192a1.962 1.962 0 0 0 0-1.136c-.32-.893-1.806-2.19-2.51-2.192-.164 0-.227.022-.346.12" fill-rule="evenodd" fill="#000"/></svg>