<svg width="24" height="24" fill="none" xmlns="http://www.w3.org/2000/svg"><path d="M11.32 1.281c-4.279.244-8.068 3.128-9.477 7.216a10.886 10.886 0 0 0-.279 6.053 10.76 10.76 0 0 0 7.886 7.886 10.96 10.96 0 0 0 5.1 0 10.76 10.76 0 0 0 7.886-7.886 10.96 10.96 0 0 0 0-5.1 10.758 10.758 0 0 0-8.694-8.052c-.408-.067-1.668-.169-1.862-.151l-.56.034m1.826 1.541a9.086 9.086 0 0 1 2.914.874c2.817 1.383 4.708 4.026 5.118 7.158.123.932.066 2.172-.144 3.144-.289 1.345-1.031 2.857-1.913 3.902a9.31 9.31 0 0 1-3.061 2.404 8.94 8.94 0 0 1-4.06.936 8.93 8.93 0 0 1-4.06-.936c-2.817-1.383-4.708-4.026-5.118-7.158-.123-.932-.066-2.172.144-3.144.211-.982.737-2.227 1.302-3.082a9.335 9.335 0 0 1 6.552-4.097c.56-.077 1.749-.077 2.326-.001m-.406 6.119a.734.734 0 0 0-.269.184c-.061.073-.559 1.179-1.157 2.572-1.156 2.694-1.173 2.747-.986 3.022.176.259.618.431.905.352.291-.08.334-.161 1.448-2.758 1.16-2.703 1.178-2.756.993-3.033-.097-.145-.43-.335-.654-.373a.7.7 0 0 0-.28.034m-4.94.304c-.106.031-.429.33-1.327 1.228-1.31 1.31-1.327 1.334-1.231 1.697.039.148.2.326 1.231 1.357 1.308 1.307 1.336 1.328 1.692 1.232.221-.06.534-.373.594-.594.091-.339.04-.417-.871-1.335L7.064 12l.824-.83c.698-.703.831-.856.87-1.001.137-.51-.446-1.072-.958-.924m8.006 0c-.193.057-.51.389-.565.59-.091.339-.04.417.871 1.335l.824.83-.824.83c-.911.918-.962.996-.871 1.335.06.221.373.534.594.594.356.096.384.075 1.692-1.232 1.031-1.031 1.192-1.209 1.231-1.357.095-.359.071-.392-1.172-1.642-.619-.623-1.18-1.166-1.246-1.207a.69.69 0 0 0-.534-.076" fill-rule="evenodd" fill="#000"/></svg>