<svg width="24" height="24" fill="none" xmlns="http://www.w3.org/2000/svg"><path d="M5.067 1.604a.502.502 0 0 0-.229.249c-.069.151-.076.273-.077 1.269-.001 1.063.002 1.107.089 1.279.126.248.282.328.647.33.365.002.525-.078.653-.33.087-.172.09-.217.09-1.277 0-1.035-.005-1.109-.084-1.273-.115-.237-.305-.332-.664-.329-.193.001-.317.025-.425.082m4 0a.502.502 0 0 0-.229.249c-.069.151-.076.273-.077 1.269-.001 1.063.002 1.107.089 1.279.126.248.282.328.647.33.365.002.525-.078.653-.33.087-.172.09-.217.09-1.277 0-1.035-.005-1.109-.084-1.273-.115-.237-.305-.332-.664-.329-.193.001-.317.025-.425.082m4 0a.502.502 0 0 0-.229.249c-.069.151-.076.273-.077 1.269-.001 1.063.002 1.107.089 1.279.126.248.282.328.647.33.365.002.525-.078.653-.33.087-.172.09-.217.09-1.277 0-1.035-.005-1.109-.084-1.273-.115-.237-.305-.332-.664-.329-.193.001-.317.025-.425.082M5.64 5.546c-.733.121-1.17.256-1.697.526A4.961 4.961 0 0 0 1.398 9.3c-.147.61-.164 1.197-.148 5.22.016 3.809.017 3.865.104 4.252.401 1.779 1.616 3.153 3.277 3.707.813.27.622.261 5.289.261h4.22l.408-.09c2.15-.476 3.635-2.076 3.945-4.249l.047-.329.44-.111a4.833 4.833 0 0 0 2.401-1.406 5.011 5.011 0 0 0 1.302-2.629c.057-.342.057-1.19 0-1.532a5.134 5.134 0 0 0-1.427-2.764 4.874 4.874 0 0 0-2.916-1.387c-.198-.023-.365-.059-.372-.079a7.409 7.409 0 0 0-.258-.41c-.711-1.079-1.794-1.824-3.11-2.139-.278-.066-.616-.072-4.58-.078-2.354-.004-4.325 0-4.38.009m8.78 1.564c.176.048.507.182.735.296a3.482 3.482 0 0 1 1.6 1.707c.214.506.251.697.274 1.437l.021.69H2.75l.018-.73c.017-.71.022-.741.159-1.138.159-.459.317-.743.621-1.109.389-.469 1.024-.909 1.566-1.083.535-.172.592-.174 4.886-.166 4.097.007 4.1.007 4.42.096m4.696 2.848c.73.302 1.428.955 1.781 1.67.262.53.323.827.321 1.552-.002.61-.008.658-.129 1.02-.321.96-1.073 1.779-1.973 2.15a3.465 3.465 0 0 1-.426.149l-.13.027v-3.057c0-1.681-.012-3.197-.026-3.369l-.027-.312.159.025c.088.014.29.08.45.145M17.03 15.59c-.013 2.784-.014 2.835-.101 3.118-.394 1.286-1.373 2.205-2.634 2.472-.428.091-8.321.088-8.767-.003-1.258-.256-2.223-1.144-2.652-2.437l-.092-.28-.014-2.85-.013-2.85H17.044l-.014 2.83" fill-rule="evenodd" fill="#000"/></svg>