<svg width="24" height="24" fill="none" xmlns="http://www.w3.org/2000/svg"><path d="M11.26 1.284c-3.161.259-5.786 2.404-6.406 5.236-.07.322-.074.617-.074 5.46v5.12l.092.418c.594 2.684 2.958 4.709 6.008 5.147.507.072 1.648.081 2.12.016a8.32 8.32 0 0 0 2.467-.721c1.874-.884 3.241-2.542 3.661-4.442l.092-.418v-5.12c0-4.843-.004-5.138-.074-5.46-.352-1.607-1.345-3.028-2.786-3.986-1.077-.716-2.339-1.144-3.696-1.253a7.01 7.01 0 0 0-1.404.003m1.623 1.535c1.381.193 2.584.764 3.457 1.64.419.42.666.754.912 1.233.338.655.478 1.254.476 2.028-.002.574-.07.938-.269 1.423-.251.61-.537 1.017-1.073 1.525-.74.7-1.728 1.191-2.899 1.441-.473.101-.573.108-1.487.108-.914 0-1.014-.007-1.487-.108-1.171-.25-2.159-.741-2.899-1.441-.689-.653-1.083-1.317-1.273-2.148-.086-.381-.091-1.222-.008-1.64.379-1.912 1.971-3.428 4.147-3.947a7.064 7.064 0 0 1 2.403-.114m-5.472 9.598c1.011.673 2.147 1.083 3.509 1.266.187.025.673.046 1.08.046.768 0 1.129-.034 1.84-.175 1.305-.256 2.684-.946 3.561-1.782l.359-.341-.001.574c-.003 1.14-.106 1.725-.419 2.378-.498 1.037-1.532 1.935-2.76 2.397-1.868.702-4.148.582-5.818-.307-.974-.518-1.688-1.228-2.102-2.09-.313-.653-.416-1.238-.419-2.378l-.001-.574.36.343c.198.188.563.478.811.643m-.904 4.288c.642.619 1.596 1.205 2.493 1.53 1.876.681 4.185.68 6-.003.959-.361 1.843-.902 2.495-1.53.129-.124.24-.22.246-.214.007.007-.003.154-.023.327-.15 1.34-.971 2.606-2.211 3.411-1.037.673-2.216 1.014-3.507 1.014-2.374 0-4.461-1.21-5.341-3.096-.188-.403-.323-.848-.359-1.184a9.646 9.646 0 0 0-.044-.35c-.011-.072-.011-.13-.001-.13.011 0 .124.101.252.225" fill-rule="evenodd" fill="#000"/></svg>