<svg width="24" height="24" fill="none" xmlns="http://www.w3.org/2000/svg"><path d="M9.34 1.28a8.799 8.799 0 0 0-4.188 1.439C3.072 4.106 1.709 6.272 1.337 8.78c-.088.6-.088 1.769.001 2.398a8.73 8.73 0 0 0 3.082 5.536c2.305 1.925 5.503 2.515 8.375 1.544a8.757 8.757 0 0 0 5.043-4.436c1.057-2.166 1.167-4.746.299-6.975a8.84 8.84 0 0 0-3.703-4.378c-1.485-.885-3.326-1.315-5.094-1.189m2.106 1.613a7.42 7.42 0 0 1 2.346.939c.476.296.771.53 1.24.985A7.186 7.186 0 0 1 15.1 15.1a7.205 7.205 0 0 1-7.347 1.778 9.444 9.444 0 0 1-1.527-.705c-.646-.388-1.52-1.176-1.998-1.801a7.437 7.437 0 0 1-1.334-2.926C2.755 10.805 2.72 9.671 2.818 9A7.136 7.136 0 0 1 4.88 4.88c1.117-1.117 2.476-1.807 4.06-2.06.257-.041.6-.053 1.2-.042.713.012.91.029 1.306.115M9.64 5.725c-.214.085-.327.254-.378.562-.024.146-.027.148-.253.173-.482.055-.845.226-1.166.552-.404.411-.573.825-.572 1.408.001.615.151 1.031.497 1.376.285.285.541.403 1.972.905.714.251 1.335.475 1.379.498.101.055.137.194.11.432-.016.143-.05.212-.146.298l-.124.111h-.89c-.811 0-.9-.007-1.017-.078-.187-.114-.249-.235-.306-.593-.074-.466-.205-.625-.567-.693-.36-.067-.68.057-.837.326-.116.198-.102.732.03 1.111.25.718.936 1.314 1.611 1.398l.237.029.033.16c.092.446.262.594.7.612.473.019.697-.136.771-.534.02-.105.042-.197.048-.204.007-.007.147-.031.31-.054a1.921 1.921 0 0 0 1.465-1.102c.132-.276.148-.349.165-.713a3.1 3.1 0 0 0-.03-.634 1.801 1.801 0 0 0-.925-1.213c-.119-.06-.797-.313-1.506-.562a46.02 46.02 0 0 1-1.366-.493c-.099-.053-.125-.128-.125-.357 0-.185.067-.331.198-.435.098-.077 1.809-.07 1.961.008.187.097.281.27.336.622.082.515.272.691.745.691.58 0 .811-.336.718-1.044-.082-.62-.505-1.253-1.041-1.557-.248-.141-.591-.251-.783-.251-.127 0-.132-.006-.158-.202-.054-.408-.292-.6-.736-.595-.143.001-.305.02-.36.042m10.053 6.518c-.177.053-.47.392-.533.617-.097.347-.036.443.674 1.053 1.394 1.199 1.794 3.331.94 5.02-.369.73-1.114 1.475-1.841 1.841-.619.312-1.156.438-1.873.438-.752.001-1.235-.105-1.86-.409a3.983 3.983 0 0 1-1.446-1.156c-.302-.378-.414-.477-.595-.527-.392-.107-.959.319-.959.72 0 .19.096.378.378.739.636.814 1.636 1.513 2.662 1.86.949.321 2.134.364 3.14.115a5.676 5.676 0 0 0 4.329-5.766 5.116 5.116 0 0 0-.289-1.574 5.684 5.684 0 0 0-1.797-2.603 4.244 4.244 0 0 0-.422-.31.744.744 0 0 0-.508-.058" fill-rule="evenodd" fill="#000"/></svg>