<svg width="24" height="24" fill="none" xmlns="http://www.w3.org/2000/svg"><path d="M11.48 1.283c-2.968.216-5.486 2.433-6.08 5.354-.186.919-.169 2.146.041 2.926.034.129.035.178.002.189-.185.062-.907.448-1.191.637-1.418.943-2.498 2.535-2.85 4.197a7.737 7.737 0 0 0-.119 1.887 6.725 6.725 0 0 0 7.187 6.244 6.672 6.672 0 0 0 3.18-1.057l.35-.228.35.228c2.648 1.722 6.167 1.346 8.412-.898a6.78 6.78 0 0 0 1.838-6.161c-.336-1.65-1.43-3.266-2.852-4.212-.284-.189-1.006-.575-1.191-.637-.033-.011-.032-.06.002-.189.282-1.045.212-2.587-.166-3.703a6.747 6.747 0 0 0-6.913-4.577m1.6 1.576a5.302 5.302 0 0 1 2.621 1.44 5.271 5.271 0 0 1 1.446 2.662c.112.519.101 1.69-.02 2.179-.539 2.175-2.201 3.708-4.387 4.046-.502.078-1.328.05-1.84-.061a5.266 5.266 0 0 1-3.393-2.431 6.343 6.343 0 0 1-.618-1.49c-.096-.382-.107-.497-.108-1.164-.001-.568.016-.819.072-1.08a5.259 5.259 0 0 1 1.446-2.661c.738-.739 1.681-1.251 2.641-1.435.176-.033.356-.069.4-.08.186-.044 1.449.01 1.74.075m-6.908 8.559c.54.94 1.511 1.89 2.528 2.477 1.114.641 2.668.969 3.936.83.229-.025.423-.039.431-.031.052.051.14.643.16 1.066a5.22 5.22 0 0 1-.793 3.026c-.258.415-.934 1.139-1.359 1.455-.552.41-1.334.755-2.095.924-.376.083-1.598.073-2.02-.018a5.259 5.259 0 0 1-2.661-1.446A5.294 5.294 0 0 1 2.86 17.08c-.103-.464-.124-1.427-.042-1.928.073-.447.285-1.12.464-1.475.49-.972 1.479-1.959 2.398-2.394.143-.068.279-.123.301-.123.023 0 .109.116.191.258m12.148-.135c.454.215.926.56 1.362.995.827.827 1.317 1.767 1.5 2.874.082.503.062 1.464-.042 1.928a5.3 5.3 0 0 1-1.439 2.621 5.271 5.271 0 0 1-2.662 1.446c-.421.091-1.642.101-2.019.018-.6-.133-1.319-.414-1.773-.693l-.132-.082.097-.105c.315-.342.767-1.087 1.009-1.666a7.93 7.93 0 0 0 .465-1.639c.103-.643.051-1.877-.106-2.492l-.053-.212.326-.151a7.33 7.33 0 0 0 1.239-.754c.632-.483 1.367-1.31 1.736-1.953.082-.142.168-.258.191-.258.022 0 .158.055.301.123" fill-rule="evenodd" fill="#000"/></svg>