<svg width="24" height="24" fill="none" xmlns="http://www.w3.org/2000/svg"><path d="M8.08 1.282c-4.072.213-6.185 2.014-6.697 5.709-.113.812-.141 1.825-.141 5.009 0 4.504.06 5.273.518 6.65.772 2.313 2.446 3.576 5.267 3.972.759.106 1.875.137 4.973.137s4.214-.031 4.973-.137c2.47-.347 4.023-1.334 4.924-3.132.482-.96.741-2.121.823-3.683.051-.969.051-6.645 0-7.614-.063-1.195-.199-2.002-.478-2.837-.61-1.825-1.773-2.989-3.592-3.596-.862-.287-1.627-.416-2.844-.48-.854-.045-6.854-.043-7.726.002m8.72 1.572c2.786.462 3.914 1.6 4.348 4.386.066.421.072.824.072 4.76s-.006 4.339-.072 4.76c-.436 2.798-1.59 3.952-4.388 4.388-.421.066-.824.072-4.76.072s-4.339-.006-4.76-.072c-2.79-.435-3.957-1.597-4.386-4.368-.069-.445-.074-.791-.074-4.78 0-4.753-.004-4.663.264-5.712C3.557 4.282 4.722 3.274 6.96 2.9c.73-.123 1.088-.131 5.24-.123 3.763.007 4.222.014 4.6.077m-5.26 2.43c-1.481.144-2.849 1.121-3.48 2.488a4.474 4.474 0 0 0-.379 2.188c.019.187.035.378.036.423.002.064-.083.135-.358.298-.825.488-1.552 1.381-1.861 2.284a3.577 3.577 0 0 0-.217 1.047 4.33 4.33 0 0 0 4.713 4.707 3.873 3.873 0 0 0 1.555-.441l.489-.245.118.084c.396.282 1.199.545 1.832.6 2.731.237 4.968-1.987 4.731-4.705a3.577 3.577 0 0 0-.217-1.047c-.333-.976-1.166-1.95-2.052-2.4-.19-.097-.184-.071-.131-.605a4.803 4.803 0 0 0-.143-1.551c-.591-2.038-2.509-3.331-4.636-3.125m1.028 1.519c.542.111.962.332 1.378.728.619.587.89 1.218.892 2.069.001.49-.076.81-.308 1.28a2.812 2.812 0 0 1-1.21 1.231c-.88.44-1.802.441-2.653.001a3.038 3.038 0 0 1-1.18-1.181 2.744 2.744 0 0 1-.327-1.315c0-.805.232-1.394.771-1.962.425-.448.879-.713 1.429-.837.28-.062.933-.07 1.208-.014m-4.185 5.223c.11.191.625.754.877.958a4.39 4.39 0 0 0 2.761.976c.432 0 .419-.013.419.425 0 1.526-1.174 2.775-2.675 2.846-.924.044-1.609-.227-2.234-.885-.539-.568-.771-1.157-.771-1.962 0-.712.264-1.381.754-1.911.223-.241.677-.594.762-.593a.484.484 0 0 1 .107.146m7.599-.003c.327.217.742.686.934 1.054.222.426.324.839.324 1.307 0 .805-.232 1.394-.771 1.962-.588.619-1.216.889-2.073.893a2.989 2.989 0 0 1-1.127-.217l-.151-.064.125-.182c.182-.265.457-.87.552-1.216.157-.57.195-1.28.099-1.885-.022-.144-.019-.148.212-.271.505-.27 1.198-.896 1.475-1.333.065-.103.134-.189.152-.19.018 0 .131.063.249.142" fill-rule="evenodd" fill="#000"/></svg>