<svg width="24" height="24" fill="none" xmlns="http://www.w3.org/2000/svg"><path d="M4.091 1.279C2.665 1.438 1.653 2.327 1.334 3.7c-.071.306-.074.643-.074 7.52 0 8.048-.016 7.562.282 8.432.366 1.064 1.272 2.075 2.338 2.609.347.174.825.325 1.28.405.398.07.799.074 7.6.074 6.794 0 7.198-.004 7.518-.073 1.236-.266 2.123-1.153 2.389-2.389.065-.301.073-.552.073-2.278s-.008-1.977-.073-2.278c-.262-1.218-1.143-2.112-2.347-2.382-.232-.052-.585-.072-1.551-.088l-1.251-.022.779-.792c.829-.844 1.071-1.137 1.287-1.566.222-.441.309-.822.309-1.352 0-.711-.188-1.269-.634-1.88-.247-.338-2.561-2.652-2.899-2.899-.611-.446-1.169-.634-1.88-.634-.53 0-.911.087-1.352.309-.429.216-.722.458-1.566 1.287l-.792.779-.022-1.251c-.016-.966-.036-1.319-.088-1.551a3.052 3.052 0 0 0-2.34-2.341c-.256-.059-.568-.071-2.12-.081-1.001-.006-1.95.004-2.109.021m4.155 1.592c.409.166.717.474.882.883l.092.226v7.28c0 8.205.029 7.458-.318 8.16a3.182 3.182 0 0 1-1.482 1.481c-.544.263-.785.317-1.44.318-.478.001-.604-.013-.859-.093-1.106-.347-1.866-1.1-2.246-2.226l-.095-.28-.011-7.238c-.011-7.842-.022-7.405.193-7.826.091-.178.401-.495.572-.584.397-.207.427-.21 2.526-.201 1.939.009 1.962.01 2.186.1m6.697 2.795c.108.037.287.125.397.196.244.158 2.693 2.615 2.829 2.838a1.548 1.548 0 0 1-.031 1.68c-.072.11-1.761 1.829-3.754 3.82l-3.624 3.62V8.658l1.39-1.384c.765-.762 1.453-1.419 1.53-1.46.413-.219.886-.274 1.263-.148m5.303 9.205c.409.166.717.474.882.883.092.225.092.234.092 2.246s0 2.021-.092 2.246a1.572 1.572 0 0 1-.882.883l-.226.091-5.26.01-5.26.011 3.24-3.242 3.24-3.241 2.02.011c1.999.011 2.022.012 2.246.102M5.84 16.27a1.768 1.768 0 0 0-1.509 1.225 2.209 2.209 0 0 0 0 1.01c.116.387.378.727.742.963.282.183.552.258.927.258s.645-.075.927-.258c.532-.345.799-.836.799-1.468 0-.354-.072-.634-.227-.885a1.757 1.757 0 0 0-1.659-.845m.327 1.556c.152.138.045.414-.16.414a.243.243 0 0 1-.181-.407c.083-.091.244-.094.341-.007" fill-rule="evenodd" fill="#000"/></svg>