<svg width="24" height="24" fill="none" xmlns="http://www.w3.org/2000/svg"><path d="M8.08 1.282c-4.072.213-6.185 2.014-6.697 5.709-.113.812-.141 1.825-.141 5.009 0 4.504.06 5.273.518 6.65.772 2.313 2.446 3.576 5.267 3.972.759.106 1.875.137 4.973.137s4.214-.031 4.973-.137c2.47-.347 4.023-1.334 4.924-3.132.482-.96.741-2.121.823-3.683.051-.969.051-6.645 0-7.614-.063-1.195-.199-2.002-.478-2.837-.61-1.825-1.773-2.989-3.592-3.596-.862-.287-1.627-.416-2.844-.48-.854-.045-6.854-.043-7.726.002m8.72 1.572c2.786.462 3.914 1.6 4.348 4.386.066.421.072.824.072 4.76s-.006 4.339-.072 4.76c-.436 2.798-1.59 3.952-4.388 4.388-.421.066-.824.072-4.76.072s-4.339-.006-4.76-.072c-2.79-.435-3.957-1.597-4.386-4.368-.069-.445-.074-.791-.074-4.78 0-4.753-.004-4.663.264-5.712C3.557 4.282 4.722 3.274 6.96 2.9c.73-.123 1.088-.131 5.24-.123 3.763.007 4.222.014 4.6.077M7.44 5.281c-.915.11-1.773.832-2.065 1.739-.085.266-.103.398-.104.781-.001.407.012.5.116.801.136.394.327.701.619.992.578.578 1.147.766 2.323.766h.511v3.268l-.75.022c-.658.02-.789.035-1.07.125a2.625 2.625 0 0 0-1.645 1.645c-.085.266-.103.398-.104.781-.001.407.012.5.116.801a2.534 2.534 0 0 0 2.737 1.715c.627-.078 1.084-.319 1.548-.816.508-.545.644-.948.677-2.011l.022-.73H13.628l.021.752c.02.698.03.777.139 1.092a2.535 2.535 0 0 0 2.736 1.713c.604-.076 1.066-.311 1.502-.766.42-.438.618-.847.691-1.427a2.535 2.535 0 0 0-1.713-2.736c-.315-.109-.394-.119-1.092-.139l-.752-.021V10.371l.73-.022c1.063-.033 1.466-.169 2.011-.677.497-.464.738-.921.816-1.548a2.534 2.534 0 0 0-1.715-2.737c-.3-.103-.396-.117-.802-.117s-.502.014-.802.117a2.591 2.591 0 0 0-1.623 1.633c-.09.281-.105.412-.125 1.07l-.022.75H10.36v-.511c0-1.176-.188-1.745-.766-2.323-.566-.567-1.331-.824-2.154-.725m.82 1.569c.151.079.407.333.494.49.052.095.069.263.079.813l.014.694-.694-.014c-.55-.01-.718-.027-.813-.079a1.627 1.627 0 0 1-.489-.492c-.081-.157-.111-.561-.056-.765.075-.277.356-.578.638-.684.186-.069.664-.048.827.037m8.4 0c.151.079.407.333.493.49.047.085.066.221.067.465 0 .326-.007.354-.135.54-.297.43-.457.491-1.295.493l-.63.002.002-.63c.001-.414.019-.68.054-.777.091-.256.356-.522.617-.62.186-.069.664-.048.827.037M13.64 12v1.64h-3.28v-3.28h3.28V12m-4.807 3.855-.013.694-.136.2c-.075.109-.226.26-.336.335-.188.129-.217.136-.543.136-.389-.001-.494-.041-.739-.286-.208-.209-.273-.347-.296-.632-.032-.401.088-.681.4-.938.206-.169.367-.2 1.043-.202l.634-.002-.014.695m7.827-.609c.154.085.409.34.493.494.047.085.066.221.067.465 0 .326-.007.355-.136.543a1.53 1.53 0 0 1-.336.336c-.188.129-.217.136-.543.136-.389-.001-.494-.041-.739-.286-.272-.272-.284-.317-.299-1.087l-.014-.694.694.014c.55.01.718.027.813.079" fill-rule="evenodd" fill="#000"/></svg>