<svg width="24" height="24" fill="none" xmlns="http://www.w3.org/2000/svg"><path d="M4.74 1.266c-1.548.139-2.796 1.107-3.291 2.554-.243.71-.243 1.65 0 2.36a3.792 3.792 0 0 0 2.776 2.485c.21.048.6.068 1.645.084l1.37.02v6.462l-1.37.02c-1.045.016-1.435.036-1.645.084a3.789 3.789 0 0 0-2.776 2.485c-.243.71-.243 1.65 0 2.36a3.796 3.796 0 0 0 2.371 2.371c.709.242 1.647.243 2.36 0a3.86 3.86 0 0 0 2.338-2.276c.187-.5.209-.708.231-2.145l.02-1.37h6.462l.02 1.37c.022 1.432.044 1.646.228 2.136.471 1.26 1.549 2.176 2.841 2.415a4.995 4.995 0 0 0 1.36 0c1.494-.277 2.724-1.507 3.001-3.001a4.995 4.995 0 0 0 0-1.36 3.813 3.813 0 0 0-1.99-2.655c-.692-.349-.942-.39-2.561-.414l-1.37-.02V8.769l1.37-.02c1.437-.022 1.645-.044 2.145-.231 1.236-.462 2.17-1.564 2.406-2.838a4.995 4.995 0 0 0 0-1.36 3.793 3.793 0 0 0-3.001-3.001 4.995 4.995 0 0 0-1.36 0c-1.294.24-2.369 1.154-2.841 2.415-.184.49-.206.704-.228 2.136l-.02 1.37H8.769l-.02-1.37c-.022-1.432-.044-1.646-.227-2.135A3.808 3.808 0 0 0 6.18 1.449c-.393-.134-1.05-.218-1.44-.183m.834 1.557c.135.035.354.121.486.19.309.163.764.618.927.927.234.445.253.595.253 2.016V7.24H5.956c-1.421 0-1.571-.019-2.016-.253a2.716 2.716 0 0 1-.52-.407c-.459-.459-.66-.937-.66-1.573 0-.644.202-1.129.66-1.587.459-.458.916-.652 1.554-.657.203-.002.46.024.6.06m14 0c.376.097.697.287 1.006.597.456.456.66.944.66 1.58 0 .636-.204 1.124-.66 1.58a2.716 2.716 0 0 1-.52.407c-.445.234-.595.253-2.016.253H16.76V5.956c0-1.421.019-1.571.253-2.016.157-.298.614-.761.907-.918a2.439 2.439 0 0 1 1.654-.199M15.24 12v3.24H8.76V8.76h6.48V12m-8 6.044c0 1.421-.019 1.571-.253 2.016a2.716 2.716 0 0 1-.407.52c-.456.456-.944.66-1.58.66-.636 0-1.124-.204-1.58-.66-.459-.459-.66-.937-.66-1.573 0-.644.202-1.129.66-1.587.306-.306.59-.479.96-.585.204-.059.435-.07 1.55-.072l1.31-.003v1.284m12.334-1.221c.376.097.697.287 1.006.597.456.456.66.944.66 1.58 0 .636-.204 1.124-.66 1.58-.456.456-.944.66-1.58.66-.636 0-1.124-.204-1.58-.66a2.714 2.714 0 0 1-.409-.523c-.234-.444-.251-.577-.251-2.005V16.76h1.284c1.042 0 1.331.012 1.53.063" fill-rule="evenodd" fill="#000"/></svg>