<svg width="24" height="24" fill="none" xmlns="http://www.w3.org/2000/svg"><path d="M11.54 1.284a4.542 4.542 0 0 0-1.379.38c-.739.348-.753.361-4.387 3.992C3.497 7.932 2.29 9.167 2.132 9.384a4.54 4.54 0 0 0-.814 1.973c-.067.458-.029 1.291.078 1.696.131.499.339.962.619 1.379.228.341.677.804 3.732 3.853 2.094 2.088 3.576 3.536 3.733 3.646a4.562 4.562 0 0 0 1.876.751c.453.066 1.334.027 1.704-.075.643-.177 1.069-.381 1.58-.756.184-.136 1.614-1.536 3.702-3.626 3.626-3.629 3.65-3.655 3.994-4.386.423-.899.516-2.064.241-3.034a5.177 5.177 0 0 0-.699-1.425c-.269-.361-6.891-6.985-7.25-7.252a4.473 4.473 0 0 0-3.088-.844m1.12 1.536c.393.082.869.329 1.221.633.478.413 6.734 6.707 6.876 6.918.333.495.482.999.482 1.629 0 .495-.079.85-.282 1.275l-.165.345-3.566 3.565c-3.064 3.064-3.603 3.586-3.826 3.707a2.92 2.92 0 0 1-2.68.042l-.38-.183-3.472-3.466c-2.399-2.393-3.526-3.545-3.645-3.725-.578-.872-.615-2.064-.095-3 .093-.167.976-1.074 3.687-3.786l3.565-3.566.347-.166c.19-.091.46-.19.6-.221.337-.073.986-.074 1.333-.001" fill-rule="evenodd" fill="#000"/></svg>