<svg width="24" height="24" fill="none" xmlns="http://www.w3.org/2000/svg"><path d="M8.34 1.267c-2.4.095-4.038.656-5.203 1.781C2.044 4.103 1.475 5.517 1.28 7.66c-.053.583-.053 8.097 0 8.68.195 2.143.764 3.557 1.857 4.612.842.813 1.901 1.317 3.34 1.59.903.171 1.256.186 4.882.206 4.537.025 5.433-.021 6.716-.344 2.41-.606 3.863-2.155 4.387-4.676.234-1.128.238-1.219.238-5.728 0-4.509-.004-4.6-.238-5.728-.327-1.572-1.056-2.832-2.088-3.606-1.137-.854-2.512-1.272-4.554-1.385-.62-.034-6.686-.046-7.48-.014m7.88 1.534c.812.075 1.704.267 2.17.466l.171.073-7.635 7.634-7.634 7.634-.143-.434a9.976 9.976 0 0 1-.355-1.594c-.066-.445-.097-7.953-.036-8.68.144-1.701.55-2.852 1.279-3.629.588-.627 1.247-.982 2.318-1.251a11.943 11.943 0 0 1 1.465-.232c.402-.036 7.996-.025 8.4.013m3.892 1.701c.362.473.696 1.237.865 1.978.224.974.262 1.784.262 5.52 0 4.213-.05 4.932-.423 6.1-.579 1.809-1.753 2.683-4.096 3.048-.421.066-.824.072-4.74.072-3.932 0-4.319-.006-4.759-.073-1.319-.2-2.292-.581-2.912-1.142l-.155-.139 7.833-7.833c4.308-4.308 7.851-7.827 7.873-7.821.022.007.136.138.252.29M5.176 6.803c-.288.084-.442.39-.405.804.024.267.112.433.284.538.119.072.253.075 2.945.075 2.692 0 2.826-.003 2.945-.075.209-.127.275-.282.275-.645 0-.363-.066-.518-.275-.645-.119-.071-.258-.075-2.885-.082-1.573-.004-2.813.009-2.884.03m10.679 5.474c-.229.038-.369.141-.457.336-.068.149-.076.272-.077 1.155l-.001.987-1.07.013c-1.186.013-1.235.024-1.395.287-.106.177-.106.713 0 .89.16.263.209.274 1.395.287l1.07.013v.989c0 .946.004.997.09 1.167.126.248.282.328.647.33.365.002.525-.078.653-.33.086-.17.09-.221.09-1.167v-.989l1.01-.013c1.119-.013 1.176-.026 1.335-.287.106-.177.106-.713 0-.89-.159-.261-.216-.274-1.335-.287l-1.01-.013v-.989c0-.946-.004-.997-.09-1.167a.68.68 0 0 0-.21-.244c-.147-.081-.424-.115-.645-.078" fill-rule="evenodd" fill="#000"/></svg>