<svg width="24" height="24" fill="none" xmlns="http://www.w3.org/2000/svg"><path d="M8.393 1.28a7.764 7.764 0 0 0-6.75 5.302 7.534 7.534 0 0 0-.361 1.891c-.051.741.004.984.26 1.152.235.154.716.147.933-.015.203-.152.247-.285.286-.877.053-.797.131-1.199.358-1.837.32-.9.806-1.655 1.507-2.344.544-.535.954-.828 1.614-1.153.437-.215 1.32-.527 1.32-.467 0 .008-.081.156-.18.33-.099.173-.191.373-.204.444-.091.485.645.991 1.099.756a.74.74 0 0 0 .211-.19c.108-.142 1.058-1.721 1.175-1.952.083-.163.093-.54.018-.685-.179-.346-.445-.419-1.286-.355m8.9.004a3.156 3.156 0 0 0-.536.117c-.307.104-2.775 1.463-3.077 1.694-.472.363-.908 1.08-1.021 1.679-.071.376-.084 2.924-.017 3.346.109.691.578 1.455 1.123 1.829.352.243 2.742 1.548 3.015 1.647.252.092.339.102.88.103.839.001.717.048 2.638-1.013 1.377-.76 1.6-.921 1.911-1.379.198-.291.403-.733.476-1.027.042-.168.055-.593.055-1.8 0-1.383-.009-1.612-.07-1.84-.157-.577-.58-1.235-.989-1.536-.22-.162-2.223-1.296-2.781-1.574-.437-.218-1.044-.311-1.607-.246m2.06 2.192c.69.381 1.239.706 1.22.723a90.46 90.46 0 0 1-1.463.858l-1.431.83-1.444-.835c-.795-.46-1.442-.853-1.439-.874.006-.038 1.313-.781 2.122-1.207l.418-.22.382.016.382.016 1.253.693m-3.829 2.89 1.396.806v1.414c0 .778-.006 1.414-.014 1.414-.007 0-.534-.288-1.17-.64-1.235-.684-1.313-.742-1.524-1.16l-.112-.22-.013-1.21c-.007-.665-.001-1.21.014-1.21s.655.363 1.423.806m5.716.398v1.205l-.118.245a1.622 1.622 0 0 1-.27.394c-.12.116-1.558.952-2.282 1.327l-.13.067V7.171l1.37-.801a59.781 59.781 0 0 1 1.4-.806c.017-.002.03.538.03 1.2M5.98 12.28c-.556.061-.621.09-2.316 1.031-.592.329-1.19.682-1.327.784-.43.318-.848.961-1.007 1.545-.061.228-.07.457-.07 1.84 0 1.207.013 1.632.055 1.8.073.294.278.736.476 1.027.308.454.538.621 1.871 1.359 1.93 1.068 1.843 1.034 2.658 1.033.586 0 .732-.026 1.13-.196.205-.088 2.572-1.407 2.77-1.543.465-.322.857-.874 1.063-1.5.089-.269.094-.34.108-1.808.012-1.261.004-1.586-.047-1.858-.124-.658-.594-1.417-1.086-1.755-.232-.16-2.637-1.485-2.878-1.587-.367-.154-.927-.223-1.4-.172m1.11 1.696c.791.416 2.108 1.164 2.113 1.2.002.02-.646.414-1.44.874l-1.445.837-1.429-.828a71.13 71.13 0 0 1-1.462-.859c-.034-.031 2.298-1.343 2.49-1.402.057-.017.252-.033.433-.035.325-.003.337.001.74.213m14.697.302a.773.773 0 0 0-.26.11c-.205.154-.249.286-.288.879-.053.798-.131 1.199-.359 1.84a6.145 6.145 0 0 1-1.506 2.342 5.6 5.6 0 0 1-1.605 1.145c-.438.219-1.329.536-1.329.474 0-.008.081-.156.18-.33.099-.173.191-.373.204-.444.091-.485-.645-.991-1.099-.756-.155.079-.234.193-.859 1.236-.309.515-.563.986-.584 1.08-.067.304.043.629.26.771.168.11.411.133.998.092a7.513 7.513 0 0 0 2.88-.775 7.077 7.077 0 0 0 1.995-1.415 7.63 7.63 0 0 0 2.302-4.987c.042-.607.016-.849-.107-1.014-.158-.213-.491-.313-.823-.248M4.29 17.437l1.27.734v2.831l-.13-.067c-.727-.376-2.162-1.211-2.282-1.327a1.716 1.716 0 0 1-.27-.384l-.118-.237v-2.435l.13.076 1.4.809m5.623.313L9.9 18.94l-.125.264a1.811 1.811 0 0 1-.265.404c-.104.103-2.138 1.279-2.397 1.385-.018.008-.033-.624-.033-1.404v-1.417l1.39-.806c.765-.443 1.405-.806 1.423-.806.018 0 .027.536.02 1.19" fill-rule="evenodd" fill="#000"/></svg>