<svg width="24" height="24" fill="none" xmlns="http://www.w3.org/2000/svg"><path d="M8.393 1.28a7.764 7.764 0 0 0-6.75 5.302 7.534 7.534 0 0 0-.361 1.891c-.051.741.004.984.26 1.152.235.154.716.147.933-.015.203-.152.247-.285.286-.877.053-.797.131-1.199.358-1.837.32-.9.806-1.655 1.507-2.344.544-.535.954-.828 1.614-1.153.437-.215 1.32-.527 1.32-.467 0 .008-.081.156-.18.33-.099.173-.191.373-.204.444-.091.485.645.991 1.099.756a.74.74 0 0 0 .211-.19c.108-.142 1.058-1.721 1.175-1.952.083-.163.093-.54.018-.685-.179-.346-.445-.419-1.286-.355m7.407-.016c-.451.029-.95.108-1.278.203-1.053.304-1.752 1.003-2.055 2.055-.194.676-.207.887-.207 3.478s.013 2.802.207 3.478c.303 1.052 1.003 1.752 2.055 2.055.655.188.923.207 2.978.207s2.323-.019 2.978-.207c1.052-.303 1.752-1.003 2.055-2.055.194-.676.207-.887.207-3.478s-.013-2.802-.207-3.478c-.295-1.026-.983-1.73-1.991-2.039-.614-.188-.898-.211-2.762-.222a76.708 76.708 0 0 0-1.98.003m3.926 1.552c.498.096.748.212.997.461.159.159.25.293.315.463.188.498.199.681.199 3.26 0 2.579-.011 2.762-.199 3.26-.124.328-.45.654-.778.778-.483.182-.715.199-2.76.199s-2.277-.017-2.76-.199a1.451 1.451 0 0 1-.777-.778c-.194-.516-.203-.663-.203-3.26 0-2.597.009-2.744.203-3.26.123-.328.449-.654.777-.777.487-.184.647-.195 2.726-.199 1.541-.003 2.031.008 2.26.052M4.8 11.264c-.451.029-.95.108-1.278.203-1.053.304-1.752 1.003-2.055 2.055-.194.676-.207.887-.207 3.478s.013 2.802.207 3.478c.303 1.052 1.003 1.752 2.055 2.055.655.188.923.207 2.978.207s2.323-.019 2.978-.207c1.052-.303 1.752-1.003 2.055-2.055.194-.676.207-.887.207-3.478s-.013-2.802-.207-3.478c-.295-1.026-.983-1.73-1.991-2.039-.614-.188-.898-.211-2.762-.222a76.708 76.708 0 0 0-1.98.003m3.926 1.552c.498.096.748.212.997.461.252.252.37.509.46 1.003.078.434.078 5.006 0 5.44-.09.494-.208.751-.46 1.003-.252.252-.509.37-1.003.46-.429.078-4.011.078-4.44 0-.494-.09-.751-.208-1.003-.46-.249-.249-.365-.499-.461-.997-.082-.427-.082-5.025 0-5.452.096-.498.212-.748.461-.997.243-.244.494-.362.963-.457.39-.079 4.081-.082 4.486-.004m13.061 1.462a.773.773 0 0 0-.26.11c-.205.154-.249.286-.288.879-.053.798-.131 1.199-.359 1.84a6.145 6.145 0 0 1-1.506 2.342 5.6 5.6 0 0 1-1.605 1.145c-.438.219-1.329.536-1.329.474 0-.008.081-.156.18-.33.099-.173.191-.373.204-.444.091-.485-.645-.991-1.099-.756-.155.079-.234.193-.859 1.236-.309.515-.563.986-.584 1.08-.067.304.043.629.26.771.168.11.411.133.998.092a7.513 7.513 0 0 0 2.88-.775 7.077 7.077 0 0 0 1.995-1.415 7.63 7.63 0 0 0 2.302-4.987c.042-.607.016-.849-.107-1.014-.158-.213-.491-.313-.823-.248" fill-rule="evenodd" fill="#000"/></svg>