<svg width="24" height="24" fill="none" xmlns="http://www.w3.org/2000/svg"><path d="M11.02 1.325a11.6 11.6 0 0 0-2.726.615c-.628.23-1.628.742-2.214 1.132A10.652 10.652 0 0 0 2.4 7.255 10.428 10.428 0 0 0 1.321 11.1c-.373 4.036 1.668 8.006 5.199 10.117 1.388.829 2.863 1.306 4.54 1.468.594.057 1.918.023 2.5-.064a10.778 10.778 0 0 0 8.576-7.096c.179-.513.404-1.426.485-1.965.14-.934.121-2.358-.046-3.36-.529-3.195-2.563-6.042-5.435-7.609a10.82 10.82 0 0 0-6.12-1.266m2.239 1.534a9.327 9.327 0 0 1 2.801.861c2.734 1.335 4.612 3.905 5.086 6.961.098.635.099 1.999.001 2.639a9.342 9.342 0 0 1-2.767 5.354l-.391.374-3.985-3.981c-4.333-4.33-4.101-4.119-4.455-4.024-.183.049-.437.268-.521.448-.051.109-.062.51-.074 2.629-.014 2.455-.013 2.502.067 2.639.117.197.298.289.612.309.344.023.581-.088.705-.328.078-.152.083-.238.095-1.637l.012-1.477 3.138 3.137c1.725 1.725 3.137 3.15 3.137 3.166 0 .064-1.289.664-1.761.82-1.079.357-1.782.468-2.959.468-1.248 0-2.234-.178-3.31-.598-3.193-1.247-5.392-4.064-5.854-7.499-.075-.556-.064-1.797.022-2.38.24-1.641.92-3.227 1.919-4.48C5.057 5.909 5.955 5 6.022 5c.028 0 1.811 1.77 3.964 3.933 2.684 2.697 3.963 3.956 4.07 4.005.286.131.645-.007.87-.334l.094-.138.029-2.303c.031-2.509.023-2.769-.093-2.961-.245-.402-1.084-.365-1.296.058-.075.15-.081.254-.093 1.643l-.012 1.483-3.128-3.135a336.6 336.6 0 0 1-3.139-3.169c-.016-.046 1.05-.565 1.512-.735a9.883 9.883 0 0 1 2.46-.547 11.569 11.569 0 0 1 1.999.059" fill-rule="evenodd" fill="#000"/></svg>