<svg width="24" height="24" fill="none" xmlns="http://www.w3.org/2000/svg"><path d="M8.393 1.28a7.764 7.764 0 0 0-6.75 5.302 7.534 7.534 0 0 0-.361 1.891c-.051.741.004.984.26 1.152.235.154.716.147.933-.015.203-.152.247-.285.286-.877.053-.797.131-1.199.358-1.837.32-.9.806-1.655 1.507-2.344.544-.535.954-.828 1.614-1.153.437-.215 1.32-.527 1.32-.467 0 .008-.081.156-.18.33-.099.173-.191.373-.204.444-.091.485.645.991 1.099.756a.74.74 0 0 0 .211-.19c.108-.142 1.058-1.721 1.175-1.952.083-.163.093-.54.018-.685-.179-.346-.445-.419-1.286-.355m8.627.005a5.238 5.238 0 0 0-3.222 8.917 5.238 5.238 0 0 0 7.404 0 5.238 5.238 0 0 0 0-7.404c-1.107-1.106-2.593-1.644-4.182-1.513m1.512 1.61a3.791 3.791 0 0 1 2.573 2.565c.102.333.111.411.111 1.04 0 .626-.009.708-.108 1.032-.389 1.262-1.313 2.189-2.568 2.573-.333.102-.411.111-1.04.111s-.707-.009-1.04-.111c-1.255-.384-2.179-1.311-2.568-2.573-.099-.324-.108-.406-.108-1.032 0-.629.009-.707.111-1.04a3.804 3.804 0 0 1 1.965-2.329c.57-.284 1.006-.373 1.74-.355.484.012.638.031.932.119M4.8 12.264c-1.223.078-1.99.362-2.582.954-.495.494-.764 1.093-.903 2.002-.078.512-.078 4.048 0 4.56.139.909.408 1.508.903 2.002.494.495 1.093.764 2.002.903.512.078 4.048.078 4.56 0 .909-.139 1.508-.408 2.002-.903.495-.494.764-1.093.903-2.002.078-.512.078-4.048 0-4.56-.224-1.472-.922-2.363-2.143-2.737-.614-.188-.898-.211-2.762-.222a76.708 76.708 0 0 0-1.98.003m3.926 1.552c.498.096.748.212.997.461.252.252.37.509.46 1.003.078.429.078 4.011 0 4.44-.09.494-.208.751-.46 1.003-.252.252-.509.37-1.003.46-.429.078-4.011.078-4.44 0-.494-.09-.751-.208-1.003-.46-.249-.249-.365-.499-.461-.997-.081-.424-.081-4.028 0-4.452.096-.498.212-.748.461-.997.243-.244.494-.362.963-.457.39-.079 4.081-.082 4.486-.004m13.061.462a.773.773 0 0 0-.26.11c-.205.154-.249.286-.288.879-.053.798-.131 1.199-.359 1.84a6.145 6.145 0 0 1-1.506 2.342 5.6 5.6 0 0 1-1.605 1.145c-.438.219-1.329.536-1.329.474 0-.008.081-.156.18-.33.099-.173.191-.373.204-.444.091-.485-.645-.991-1.099-.756-.155.079-.234.193-.859 1.236-.309.515-.563.986-.584 1.08-.067.304.043.629.26.771.168.11.411.133.998.092a7.513 7.513 0 0 0 2.88-.775 7.077 7.077 0 0 0 1.995-1.415 7.63 7.63 0 0 0 2.302-4.987c.042-.607.016-.849-.107-1.014-.158-.213-.491-.313-.823-.248" fill-rule="evenodd" fill="#000"/></svg>