<svg width="24" height="24" fill="none" xmlns="http://www.w3.org/2000/svg"><path d="M12.173 1.284c-.896.052-1.931.293-2.513.586-.967.488-1.649 1.284-2.013 2.35-.208.608-.321 1.278-.371 2.183-.024.449-.047.82-.05.823-.003.003-.374.026-.823.05-1.794.098-2.953.508-3.786 1.341-.602.603-.973 1.367-1.194 2.463-.142.705-.182 1.56-.182 3.92 0 2.979.069 3.794.406 4.78.436 1.277 1.296 2.137 2.573 2.573.986.337 1.801.406 4.78.406s3.794-.069 4.78-.406c1.277-.436 2.137-1.296 2.573-2.573.206-.602.319-1.271.37-2.18.025-.451.048-.823.051-.826.003-.003.375-.026.826-.051 1.802-.101 2.95-.508 3.783-1.34.603-.604.974-1.369 1.193-2.463.142-.708.184-1.602.184-3.92 0-2.947-.073-3.801-.407-4.78-.436-1.277-1.296-2.137-2.573-2.573-.569-.195-1.278-.32-2.06-.365-.813-.047-4.714-.045-5.547.002m5.955 1.52c.968.105 1.725.406 2.193.875.469.468.77 1.225.875 2.193.028.259.044 1.415.044 3.128s-.016 2.869-.044 3.128c-.105.968-.406 1.725-.875 2.193-.605.606-1.657.919-3.083.919h-.478l-.001-1.33c0-1.76-.052-2.396-.262-3.23-.429-1.708-1.469-2.748-3.177-3.177-.834-.21-1.47-.262-3.23-.262L8.76 7.24v-.478c0-1.426.313-2.478.919-3.083.453-.454 1.237-.774 2.141-.873.484-.054 5.814-.055 6.308-.002m-5.649 6.05c.482.088 1.03.271 1.355.453.521.291.887.771 1.122 1.474.252.753.257.832.274 3.979.011 2.003.002 2.998-.031 3.32-.102 1.005-.399 1.763-.878 2.241-.468.469-1.225.77-2.193.875-.557.06-5.699.06-6.256 0-.968-.105-1.725-.406-2.193-.875-.469-.468-.77-1.225-.875-2.193-.06-.557-.06-5.699 0-6.256.105-.968.406-1.725.875-2.193.453-.453 1.23-.771 2.141-.874.176-.02 1.661-.033 3.3-.028 2.626.007 3.025.016 3.359.077" fill-rule="evenodd" fill="#000"/></svg>