<svg width="24" height="24" fill="none" xmlns="http://www.w3.org/2000/svg"><path d="M11.32 1.281c-2.061.117-4.07.861-5.79 2.143-.618.46-1.646 1.488-2.106 2.106-1.549 2.078-2.288 4.52-2.143 7.08.121 2.149.837 4.107 2.143 5.86.456.613 1.485 1.641 2.106 2.105 2.076 1.551 4.54 2.295 7.097 2.142 2.163-.129 4.097-.838 5.843-2.142.617-.46 1.645-1.488 2.105-2.105 1.552-2.079 2.295-4.54 2.142-7.097-.129-2.163-.838-4.097-2.142-5.843-.46-.617-1.488-1.645-2.105-2.105a10.75 10.75 0 0 0-4.728-2.027c-.408-.067-1.668-.169-1.862-.151l-.56.034m1.826 1.541a9.055 9.055 0 0 1 2.914.876c.964.472 1.588.913 2.374 1.68.839.817 1.38 1.559 1.869 2.562A8.914 8.914 0 0 1 21.24 12a8.895 8.895 0 0 1-.938 4.06c-.472.964-.913 1.588-1.68 2.374-.817.839-1.559 1.38-2.562 1.869a8.914 8.914 0 0 1-4.06.937 8.914 8.914 0 0 1-4.06-.937c-1.003-.489-1.745-1.03-2.562-1.869-.767-.786-1.208-1.41-1.68-2.374A8.895 8.895 0 0 1 2.76 12c0-2.14.713-4.162 2.053-5.82.335-.415 1.159-1.218 1.568-1.527a9.388 9.388 0 0 1 4.439-1.83c.56-.077 1.749-.077 2.326-.001M11.819 7.28C9.99 7.44 8.44 8.632 7.78 10.384c-.358.951-.358 2.281 0 3.232a4.797 4.797 0 0 0 2.821 2.835c.961.362 2.212.376 3.199.036.524-.181 1.264-.627 1.606-.97.253-.252.312-.446.214-.703-.095-.248-.365-.516-.579-.574-.23-.062-.37-.008-.791.306-.392.293-.79.497-1.171.603-.2.055-.401.07-.879.069-.563-.003-.65-.013-.94-.11-.533-.179-.876-.396-1.304-.824-.428-.427-.644-.769-.824-1.304-.101-.296-.109-.369-.109-.98s.008-.684.109-.98c.18-.535.396-.877.824-1.304.428-.428.771-.645 1.304-.824.29-.097.377-.107.94-.11.478-.001.679.014.879.069.381.106.779.31 1.171.603.421.314.561.368.791.306.214-.058.484-.326.579-.574.098-.257.039-.451-.214-.703-.464-.464-1.273-.903-1.999-1.084-.252-.062-1.166-.175-1.247-.153a9.608 9.608 0 0 1-.341.034" fill-rule="evenodd" fill="#000"/></svg>