<svg width="24" height="24" fill="none" xmlns="http://www.w3.org/2000/svg"><path d="M11.787 1.278a.659.659 0 0 0-.447.326c-.078.132-.08.219-.092 2.882l-.011 2.747-2.449.019c-2.675.02-2.778.028-3.427.265a3.032 3.032 0 0 0-1.842 1.839c-.263.721-.251.429-.268 6.43l-.015 5.445-.748.015c-.66.013-.764.024-.884.094-.273.161-.396.478-.327.845a.646.646 0 0 0 .327.475c.135.079.208.08 10.396.08s10.261-.001 10.396-.08a.646.646 0 0 0 .327-.475c.069-.367-.054-.684-.327-.845-.12-.07-.224-.081-.884-.094l-.748-.015-.015-5.445c-.017-6.001-.005-5.709-.268-6.43a3.032 3.032 0 0 0-1.842-1.839c-.649-.237-.752-.245-3.429-.265l-2.45-.019V6.006l.13.038c.523.153 1.896.214 2.591.115.765-.109 1.737-.395 1.989-.585.275-.208.27-.167.27-2.055V1.818l-.102-.199c-.206-.399-.46-.461-1.06-.258-.783.265-1.319.358-2.078.358-.735 0-1.202-.076-1.96-.318-.443-.142-.558-.161-.753-.123m1.633 1.865c.745.115 2.132.064 2.69-.099l.13-.038v1.471l-.17.043a3.9 3.9 0 0 0-.225.063c-.184.062-.918.137-1.345.137-.427 0-1.161-.075-1.345-.137a3.9 3.9 0 0 0-.225-.063l-.17-.043V3.006l.13.038c.072.02.31.065.53.099m4.353 5.676c.978.207 1.464.887 1.466 2.051l.001.37H4.76l.001-.37c.002-1.149.488-1.841 1.439-2.047.394-.086 11.172-.089 11.573-.004M7.24 17v4.24H4.76v-8.48h2.48V17m4 0v4.24H8.72v-8.48h2.52V17m4 0v4.24h-2.52v-8.48h2.52V17m4 0v4.24h-2.52v-8.48h2.52V17" fill-rule="evenodd" fill="#000"/></svg>