<svg width="24" height="24" fill="none" xmlns="http://www.w3.org/2000/svg"><path d="M7.793 1.277a.64.64 0 0 0-.422.272c-.061.092-.074.237-.091 1.025l-.02.918-.32.089c-1.684.468-2.74 1.457-3.274 3.067-.056.17-.113.37-.128.446l-.025.138-.887.014c-.799.013-.899.022-1.022.094a.646.646 0 0 0-.327.475c-.069.367.054.684.327.845.121.071.224.082.912.094l.775.015-.025.361c-.014.199-.026.754-.026 1.232v.869l-.75.015c-.818.016-.924.042-1.1.279-.168.226-.168.724 0 .95.176.237.282.263 1.1.279l.75.015v.869c0 .478.012 1.033.026 1.232l.025.361-.775.015c-.688.012-.791.023-.912.094-.273.161-.396.478-.327.845a.646.646 0 0 0 .327.475c.123.072.223.081 1.022.094l.887.014.025.138c.015.076.072.276.128.446.534 1.61 1.59 2.599 3.274 3.067l.32.089.02.923c.019.859.026.931.104 1.036.143.191.313.265.611.265.331 0 .531-.088.654-.286.085-.137.092-.197.104-.934l.013-.787.547.007c.599.009.726-.028.897-.257.168-.226.168-.724 0-.95-.164-.22-.274-.25-1.053-.288-1.205-.059-1.87-.204-2.596-.566-.341-.17-.474-.264-.721-.511-.484-.484-.806-1.212-.991-2.24-.062-.34-.069-.752-.069-3.92s.007-3.58.069-3.92c.108-.604.255-1.068.48-1.519.17-.341.264-.474.511-.721.484-.484 1.212-.806 2.24-.991.34-.062.752-.069 3.92-.069s3.58.007 3.92.069c1.462.263 2.285.776 2.754 1.718.359.72.504 1.388.563 2.59.038.779.068.889.288 1.053.226.168.724.168.95 0 .229-.171.266-.298.258-.896l-.008-.546.768-.014c.679-.012.782-.023.903-.094.273-.161.396-.478.327-.845a.646.646 0 0 0-.327-.475c-.123-.072-.223-.081-1.022-.094l-.887-.014-.025-.138c-.044-.23-.222-.735-.381-1.077a4.258 4.258 0 0 0-2.098-2.098c-.342-.159-.847-.337-1.077-.381l-.138-.025-.014-.887c-.013-.799-.022-.899-.094-1.022a.646.646 0 0 0-.475-.327c-.367-.069-.684.054-.845.327-.071.121-.082.224-.094.912l-.015.775-.361-.025a24.728 24.728 0 0 0-1.232-.026h-.869l-.015-.75c-.016-.818-.042-.924-.279-1.1-.226-.168-.724-.168-.95 0-.237.176-.263.282-.279 1.1l-.015.75h-.869c-.478 0-1.033.012-1.233.026l-.363.026-.013-.796c-.012-.745-.019-.805-.104-.942-.142-.228-.505-.346-.856-.277m2.327 4.987c-1.36.089-2.248.418-2.864 1.062-.511.533-.801 1.214-.944 2.214-.073.508-.073 4.416 0 4.913.147 1 .435 1.68.941 2.219.376.4.688.529.995.412.244-.092.512-.494.512-.765 0-.215-.041-.288-.345-.605-.29-.303-.459-.623-.564-1.072-.064-.271-.071-.542-.071-2.642 0-2.589.005-2.654.263-3.202.224-.474.587-.749 1.231-.929.293-.082.402-.086 2.525-.1 2.483-.015 2.75.004 3.311.238.233.097.371.19.591.399.324.308.523.412.713.372a1.1 1.1 0 0 0 .588-.387c.243-.336.127-.715-.352-1.153-.538-.492-1.182-.768-2.15-.921-.265-.042-3.876-.085-4.38-.053m4.48 5.04c-.234.063-1.199.6-1.549.861-.358.268-.593.724-.638 1.239-.028.317.032.605.195.929.188.376.136.449-.328.463-.665.019-1.335.553-1.539 1.227-.045.146-.06.402-.061.981 0 .666.011.817.076 1.004.243.707.893 1.19 1.602 1.193.404.001.43.051.243.464-.258.568-.257 1.09.002 1.601.184.362.474.612 1.166 1.007.706.403.887.463 1.334.439.28-.015.378-.04.625-.162.33-.164.43-.256.702-.651.126-.184.218-.279.269-.279.05 0 .133.08.23.22.267.387.355.484.569.62.396.254.986.339 1.382.201.316-.111 1.324-.712 1.566-.935.292-.268.466-.606.526-1.024.053-.363.006-.643-.173-1.037-.187-.413-.161-.463.241-.465.703-.004 1.372-.511 1.615-1.223.09-.264.093-1.661.004-1.954-.204-.674-.874-1.208-1.539-1.227-.464-.014-.516-.087-.328-.463.236-.47.265-.95.088-1.424-.104-.278-.362-.625-.58-.78-.214-.153-1.184-.717-1.326-.772-.391-.15-.904-.116-1.319.088-.279.138-.452.304-.704.675-.111.163-.204.26-.251.26-.047 0-.14-.097-.251-.26-.25-.369-.423-.535-.704-.676-.399-.202-.754-.245-1.145-.14m.693 1.77c.121.173.291.37.378.439.523.414 1.154.499 1.695.228.317-.16.501-.325.741-.667.125-.179.248-.314.286-.314.115 0 1.079.592 1.107.678.016.051-.027.196-.115.391-.345.766-.254 1.473.253 1.964.278.27.847.484 1.292.486.096.001.179.03.23.081.072.072.08.133.08.638 0 .523-.006.564-.088.64-.061.058-.142.082-.27.083-.248 0-.644.098-.873.215a1.509 1.509 0 0 0-.811 1.096c-.065.336-.003.714.188 1.131.138.301.141.32.079.415-.069.105-.978.662-1.082.662-.034 0-.144-.126-.245-.279a1.96 1.96 0 0 0-.813-.732c-.238-.117-.298-.129-.625-.129s-.387.012-.625.129a1.96 1.96 0 0 0-.813.732c-.101.153-.211.279-.245.279-.104 0-1.013-.557-1.082-.662-.062-.095-.059-.114.079-.415.191-.417.253-.795.188-1.131a1.509 1.509 0 0 0-.811-1.096 2.305 2.305 0 0 0-.881-.215c-.323-.001-.35-.056-.35-.721 0-.507.008-.568.08-.64a.329.329 0 0 1 .23-.081c.445-.002 1.014-.216 1.292-.486.508-.492.598-1.198.251-1.968-.113-.25-.133-.332-.102-.402.043-.094.981-.661 1.096-.662.038-.001.16.132.286.313m.767 1.678c-.381.113-.657.284-.985.607-.482.477-.687.965-.687 1.641 0 .675.205 1.164.687 1.641.527.521.995.7 1.745.669.53-.023.843-.125 1.232-.403a2.332 2.332 0 0 0 0-3.814c-.407-.291-.699-.382-1.272-.398-.374-.011-.533.002-.72.057m1.021 1.5c.355.188.541.578.445.938-.177.671-.985.868-1.439.352-.166-.189-.207-.297-.207-.542 0-.245.041-.353.207-.542.26-.296.665-.38.994-.206" fill-rule="evenodd" fill="#000"/></svg>