<svg width="24" height="24" fill="none" xmlns="http://www.w3.org/2000/svg"><path d="M7.793 1.277a.64.64 0 0 0-.422.272c-.061.092-.074.237-.091 1.025l-.02.918-.32.089c-1.684.468-2.74 1.457-3.274 3.067-.056.17-.113.37-.128.446l-.025.138-.887.014c-.799.013-.899.022-1.022.094a.646.646 0 0 0-.327.475c-.069.367.054.684.327.845.121.071.224.082.912.094l.775.015-.025.361c-.014.199-.026.754-.026 1.232v.869l-.75.015c-.818.016-.924.042-1.1.279-.168.226-.168.724 0 .95.176.237.282.263 1.1.279l.75.015v.869c0 .478.012 1.033.026 1.232l.025.361-.775.015c-.688.012-.791.023-.912.094-.273.161-.396.478-.327.845a.646.646 0 0 0 .327.475c.123.072.223.081 1.022.094l.887.014.025.138c.015.076.072.276.128.446.534 1.61 1.59 2.599 3.274 3.067l.32.089.02.923c.019.859.026.931.104 1.036.143.191.313.265.611.265.331 0 .531-.088.654-.286.085-.137.092-.197.104-.942l.013-.796.363.026c.2.014.764.026 1.255.026h.891l.013.797c.011.738.018.806.096.91.143.191.313.265.611.265.331 0 .531-.088.654-.286.085-.136.092-.198.104-.916l.013-.77h.871c.479 0 1.034-.012 1.233-.026l.361-.025.015.775c.012.688.023.791.094.912.161.273.478.396.845.327a.646.646 0 0 0 .475-.327c.072-.123.081-.223.094-1.022l.014-.887.138-.025c.23-.044.735-.222 1.077-.381a4.258 4.258 0 0 0 2.098-2.098c.159-.342.337-.847.381-1.077l.025-.138.887-.014c.799-.013.899-.022 1.022-.094a.646.646 0 0 0 .327-.475c.069-.367-.054-.684-.327-.845-.121-.071-.224-.082-.912-.094l-.775-.015.025-.361c.014-.199.026-.754.026-1.232v-.869l.75-.015c.818-.016.924-.042 1.1-.279.168-.226.168-.724 0-.95-.176-.237-.282-.263-1.1-.279l-.75-.015v-.869c0-.478-.012-1.033-.026-1.232l-.025-.361.775-.015c.688-.012.791-.023.912-.094.273-.161.396-.478.327-.845a.646.646 0 0 0-.327-.475c-.123-.072-.223-.081-1.022-.094l-.887-.014-.025-.138c-.044-.23-.222-.735-.381-1.077a4.258 4.258 0 0 0-2.098-2.098c-.342-.159-.847-.337-1.077-.381l-.138-.025-.014-.887c-.013-.799-.022-.899-.094-1.022a.646.646 0 0 0-.475-.327c-.367-.069-.684.054-.845.327-.071.121-.082.224-.094.912l-.015.775-.361-.025a24.728 24.728 0 0 0-1.232-.026h-.869l-.015-.75c-.016-.818-.042-.924-.279-1.1-.226-.168-.724-.168-.95 0-.237.176-.263.282-.279 1.1l-.015.75h-.869c-.478 0-1.033.012-1.233.026l-.363.026-.013-.796c-.012-.745-.019-.805-.104-.942-.142-.228-.505-.346-.856-.277m8.148 3.574c1.451.267 2.266.779 2.733 1.716.222.446.369.911.477 1.513.062.34.069.752.069 3.92s-.007 3.58-.069 3.92c-.108.602-.255 1.067-.477 1.514-.169.339-.262.47-.516.724a2.244 2.244 0 0 1-.724.516c-.447.222-.912.369-1.514.477-.34.062-.752.069-3.92.069s-3.58-.007-3.92-.069c-.604-.108-1.068-.255-1.519-.48-.341-.17-.474-.264-.721-.511-.484-.484-.806-1.212-.991-2.24-.062-.34-.069-.752-.069-3.92s.007-3.58.069-3.92c.108-.604.255-1.068.48-1.519.171-.343.263-.473.511-.72.561-.558 1.456-.913 2.62-1.038.176-.019 1.85-.031 3.72-.026 2.976.006 3.445.016 3.761.074M10.12 6.265c-1.358.087-2.248.417-2.864 1.061-.511.533-.801 1.214-.944 2.214-.074.51-.073 4.415 0 4.92.289 1.991 1.237 2.939 3.228 3.228.508.074 4.412.074 4.92 0 1.991-.289 2.939-1.237 3.228-3.228.074-.508.074-4.412 0-4.92-.286-1.969-1.22-2.919-3.168-3.221-.283-.044-3.874-.088-4.4-.054m4.606 1.604c.644.18 1.007.455 1.231.929.258.548.263.613.263 3.202 0 2.608-.005 2.664-.277 3.224-.234.482-.638.769-1.301.925-.271.064-.542.071-2.642.071-2.1 0-2.371-.007-2.642-.071-.663-.156-1.067-.443-1.301-.925-.272-.56-.277-.616-.277-3.224 0-2.1.007-2.371.071-2.642.219-.931.681-1.354 1.683-1.54.22-.041.818-.051 2.586-.044 2.215.009 2.311.012 2.606.095m-3.039 1.116a.795.795 0 0 0-.227.191c-.125.164-1.006 1.706-1.132 1.979-.191.417-.114.879.208 1.235.22.244.47.333 1.01.36.25.012.454.03.454.039 0 .01-.132.246-.294.524-.42.723-.469.828-.473 1.026-.004.231.101.408.338.567.342.231.661.223.903-.022.139-.142 1.09-1.769 1.229-2.104.153-.367.055-.845-.239-1.17-.22-.244-.47-.333-1.01-.36a3.647 3.647 0 0 1-.454-.036c0-.008.164-.303.366-.655.201-.352.378-.711.394-.797a.68.68 0 0 0-.146-.529c-.228-.252-.682-.373-.927-.248" fill-rule="evenodd" fill="#000"/></svg>