<svg width="24" height="24" fill="none" xmlns="http://www.w3.org/2000/svg"><path d="M11.32 1.281c-2.061.117-4.07.861-5.79 2.143-.618.46-1.646 1.488-2.106 2.106-1.549 2.078-2.288 4.52-2.143 7.08.121 2.149.837 4.107 2.143 5.86.456.613 1.485 1.641 2.106 2.105 2.076 1.551 4.54 2.295 7.097 2.142 2.163-.129 4.097-.838 5.843-2.142.617-.46 1.645-1.488 2.105-2.105 1.552-2.079 2.295-4.54 2.142-7.097-.129-2.163-.838-4.097-2.142-5.843-.46-.617-1.488-1.645-2.105-2.105a10.75 10.75 0 0 0-4.728-2.027c-.408-.067-1.668-.169-1.862-.151l-.56.034m1.826 1.541a9.055 9.055 0 0 1 2.914.876c.964.472 1.588.913 2.374 1.68.839.817 1.38 1.559 1.869 2.562A8.914 8.914 0 0 1 21.24 12a8.895 8.895 0 0 1-.938 4.06c-.472.964-.913 1.588-1.68 2.374-.817.839-1.559 1.38-2.562 1.869a8.914 8.914 0 0 1-4.06.937 8.914 8.914 0 0 1-4.06-.937c-1.003-.489-1.745-1.03-2.562-1.869-.767-.786-1.208-1.41-1.68-2.374A8.895 8.895 0 0 1 2.76 12c0-2.14.713-4.162 2.053-5.82.335-.415 1.159-1.218 1.568-1.527a9.388 9.388 0 0 1 4.439-1.83c.56-.077 1.749-.077 2.326-.001M8.33 8.442a3.647 3.647 0 0 0-1.046.382 3.551 3.551 0 0 0-1.879 2.787c-.175 1.716.82 3.26 2.461 3.822.724.248 1.686.223 2.421-.063.349-.135.918-.495 1.148-.725.323-.323.306-.67-.053-1.028-.342-.343-.556-.342-1.038.004-.381.273-.54.353-.867.434-1.094.271-2.208-.385-2.533-1.492-.1-.341-.085-.867.036-1.227a1.87 1.87 0 0 1 .538-.856 2.105 2.105 0 0 1 2.399-.382c.108.055.314.189.459.299.429.325.671.321 1.008-.016.255-.255.325-.444.257-.697-.104-.388-.886-.936-1.666-1.169-.316-.094-1.286-.137-1.645-.073m7 0a3.647 3.647 0 0 0-1.046.382 3.551 3.551 0 0 0-1.879 2.787c-.175 1.716.82 3.26 2.461 3.822.724.248 1.686.223 2.421-.063.349-.135.918-.495 1.148-.725.323-.323.306-.67-.053-1.028-.342-.343-.556-.342-1.038.004-.381.273-.54.353-.867.434-1.094.271-2.208-.385-2.533-1.492-.1-.341-.085-.867.036-1.227a1.87 1.87 0 0 1 .538-.856 2.105 2.105 0 0 1 2.399-.382c.108.055.314.189.459.299.429.325.671.321 1.008-.016.255-.255.325-.444.257-.697-.104-.388-.886-.936-1.666-1.169-.316-.094-1.286-.137-1.645-.073" fill-rule="evenodd" fill="#000"/></svg>