<svg width="24" height="24" fill="none" xmlns="http://www.w3.org/2000/svg"><path d="M4.787 1.278a.659.659 0 0 0-.447.326c-.075.127-.081.221-.093 1.383l-.013 1.247-1.247.013c-1.162.012-1.256.018-1.383.093-.273.161-.396.478-.327.845a.646.646 0 0 0 .327.475c.127.075.221.081 1.386.093l1.25.013.001 4.267c0 4.444.024 5.333.163 6.167.341 2.042 1.353 3.054 3.396 3.396.825.138 1.742.162 6.187.163l4.247.001.013 1.25c.012 1.165.018 1.259.093 1.386a.646.646 0 0 0 .475.327c.367.069.684-.054.845-.327.075-.127.081-.221.093-1.383l.013-1.247 1.247-.013c1.162-.012 1.256-.018 1.383-.093a.646.646 0 0 0 .327-.475c.069-.367-.054-.684-.327-.845-.127-.075-.221-.081-1.386-.093l-1.25-.013-.001-4.247c-.001-4.445-.025-5.362-.163-6.187-.342-2.043-1.354-3.055-3.396-3.396-.834-.139-1.723-.163-6.17-.163L5.76 4.24l-.002-1.13c-.002-1.199-.022-1.416-.148-1.584-.158-.213-.491-.313-.823-.248m11.007 4.557c1.584.271 2.1.787 2.371 2.371.038.222.054 1.495.064 5.166l.014 4.871-4.871-.014c-3.671-.01-4.944-.026-5.166-.064-1.584-.271-2.1-.787-2.371-2.371-.038-.222-.054-1.495-.064-5.166l-.014-4.871 4.871.014c3.671.01 4.944.026 5.166.064" fill-rule="evenodd" fill="#000"/></svg>