<svg width="24" height="24" fill="none" xmlns="http://www.w3.org/2000/svg"><path d="M11.644 3.003c-.096.019-.294.09-.438.158-.24.112-.432.291-2.186 2.041C7.55 6.668 7.074 7.12 7 7.12c-.073 0-.448-.35-1.558-1.453-.958-.952-1.552-1.51-1.722-1.621-1.026-.664-2.033-.286-2.385.894-.066.224-.072.577-.085 5.2-.014 5.023 0 5.71.132 6.34.098.463.285.98.519 1.432a5.739 5.739 0 0 0 4.415 3.084c.456.06 11.013.061 11.488.002 2.618-.325 4.376-1.984 4.848-4.575.088-.482.088-.494.088-5.823 0-4.978-.005-5.359-.071-5.616-.309-1.204-1.348-1.611-2.389-.938-.17.111-.764.669-1.722 1.621C17.451 6.767 17.072 7.12 17 7.12c-.073 0-.554-.456-2.018-1.912-1.588-1.579-1.964-1.933-2.162-2.035a1.727 1.727 0 0 0-1.176-.17m2.353 3.369c1.717 1.706 1.973 1.946 2.203 2.059.511.253 1.179.246 1.634-.015.108-.062.812-.729 1.686-1.596.825-.819 1.54-1.51 1.589-1.536.078-.04.092-.035.111.045.013.05.017 2.512.01 5.471l-.013 5.38-.105.388c-.392 1.439-1.374 2.44-2.759 2.811-.675.182-.887.187-6.573.172-4.925-.014-5.383-.02-5.649-.084-1.003-.242-1.84-.766-2.456-1.538-.377-.472-.609-.937-.805-1.609l-.087-.3-.013-5.3c-.007-2.915-.003-5.341.01-5.391.019-.08.033-.085.111-.045.049.026.755.708 1.569 1.516.814.809 1.559 1.519 1.655 1.579.321.199.789.286 1.185.221.527-.086.553-.108 2.62-2.181 1.726-1.732 1.977-1.968 2.097-1.976.021-.002.912.866 1.98 1.929" fill-rule="evenodd" fill="#000"/></svg>