<svg width="24" height="24" fill="none" xmlns="http://www.w3.org/2000/svg"><path d="M11.621 1.304c-.445.142-.83.506-1.117 1.056-.075.143-.535 1.322-1.024 2.62a258.333 258.333 0 0 1-.966 2.545c-.089.207-.217.298-.359.254-.052-.015-1.057-.715-2.233-1.553-1.413-1.008-2.263-1.588-2.507-1.711-.763-.382-1.353-.355-1.828.083-.449.413-.532 1.127-.242 2.054.245.777 4.271 11.985 4.364 12.145.212.366.593.667 1.051.829l.26.092 4.966.001c4.835.001 4.972-.001 5.22-.078.482-.15.924-.512 1.139-.933.146-.286 4.207-11.668 4.297-12.044.206-.862.112-1.504-.276-1.886-.536-.528-1.272-.529-2.195-.004-.121.069-1.123.769-2.226 1.555-1.103.786-2.057 1.44-2.12 1.454-.089.02-.136.004-.21-.07-.065-.065-.381-.857-.996-2.494a196.63 196.63 0 0 0-1.002-2.637c-.137-.32-.417-.735-.627-.929-.38-.35-.929-.49-1.369-.349m.546 1.719c.058.108.511 1.277 1.006 2.597s.936 2.481.979 2.58c.187.429.534.768.978.955.216.091.306.105.67.105.382 0 .444-.011.68-.12.146-.067 1.09-.712 2.16-1.477 1.73-1.237 2.475-1.743 2.566-1.743.062 0 .035.227-.065.566-.055.183-1.005 2.862-2.11 5.953-1.956 5.464-2.015 5.621-2.147 5.71l-.136.091h-4.736c-5.086 0-4.901.007-5.009-.194-.056-.105-4.137-11.528-4.242-11.875-.049-.159-.082-.309-.074-.332.021-.063.328.145 2.533 1.721 1.1.786 2.09 1.474 2.2 1.529a1.766 1.766 0 0 0 1.561.017c.385-.183.643-.44.831-.828.08-.164.552-1.387 1.05-2.718.888-2.376 1.057-2.78 1.151-2.75.026.009.095.104.154.213M9.295 13.276c-.229.039-.369.142-.457.337-.168.37-.051.877.242 1.046.137.079.202.081 2.92.081s2.783-.002 2.92-.081a.67.67 0 0 0 .23-.258c.186-.367.073-.885-.23-1.06-.136-.079-.208-.081-2.8-.087-1.463-.003-2.734.007-2.825.022m-3 8.001c-.229.038-.369.141-.457.336-.168.37-.051.877.242 1.046.139.08.191.081 5.92.081s5.781-.001 5.92-.081c.424-.245.424-1.073 0-1.318-.139-.08-.196-.081-5.8-.086-3.113-.003-5.734.007-5.825.022" fill-rule="evenodd" fill="#000"/></svg>