<svg width="24" height="24" fill="none" xmlns="http://www.w3.org/2000/svg"><path d="M8.579 1.278a4.719 4.719 0 0 0-3.02 1.466 5.132 5.132 0 0 0-.475.581l-.174.264-.465.023c-.534.026-.965.127-1.331.31a3.218 3.218 0 0 0-1.717 2.102c-.104.396-.113 1.176-.02 1.745.166 1.025.669 2.062 1.449 2.991.434.517 1.024.967 1.711 1.306l.438.215.187.354a7.228 7.228 0 0 0 1.311 1.78 7.62 7.62 0 0 0 4.457 2.252l.47.067V18.231l-1.35.019c-1.49.021-1.593.035-2.11.288-.916.449-1.54 1.443-1.54 2.455v.236l-.268.027c-.534.055-.712.241-.712.744 0 .358.095.548.331.666.143.071.391.074 6.409.074 6.188 0 6.262-.001 6.396-.08.251-.148.304-.262.304-.66 0-.298-.013-.372-.084-.467-.13-.174-.293-.248-.608-.278l-.288-.026v-.308c0-1.162-.849-2.247-2.02-2.582-.198-.057-.478-.072-1.61-.088l-1.37-.02v-.757c0-.571.012-.76.05-.771.027-.008.266-.054.53-.103 2.27-.42 4.294-1.912 5.378-3.965l.187-.354.438-.215c.687-.339 1.277-.789 1.711-1.306.773-.921 1.284-1.971 1.448-2.98.094-.578.086-1.356-.018-1.76a3.281 3.281 0 0 0-1.649-2.06c-.416-.216-.833-.32-1.4-.348l-.465-.023-.174-.264c-.631-.96-1.737-1.699-2.952-1.972-.375-.084-.463-.087-3.724-.095-1.837-.005-3.484.004-3.661.02M15.98 2.89c.538.184.878.4 1.304.826.427.426.642.767.826 1.304l.109.32.014 2.04c.014 2.124-.002 2.445-.158 3.08a6.146 6.146 0 0 1-1.626 2.914 5.843 5.843 0 0 1-1.645 1.204 6.238 6.238 0 0 1-4.904.305A6.27 6.27 0 0 1 5.8 9.78c-.032-.246-.042-1.006-.033-2.4l.014-2.04.109-.32c.184-.537.399-.878.826-1.304.389-.388.701-.598 1.136-.765.489-.187.481-.186 4.248-.178l3.56.007.32.11M4.18 7.37c0 1.237.013 2.344.028 2.458.036.266-.006.253-.292-.092-.473-.569-.832-1.245-1.002-1.889-.105-.398-.145-1.172-.073-1.436A1.777 1.777 0 0 1 4.02 5.176c.088-.028.16-.052.16-.053V7.37m16.118-2.061c.246.125.593.475.716.723.165.333.199.532.175 1.039-.044.946-.398 1.802-1.092 2.645-.3.365-.341.38-.305.112.015-.114.028-1.218.028-2.452V5.132l.14.039c.077.021.229.083.338.138m-4.725 14.515c.102.035.278.145.389.245.276.248.405.514.43.881l.019.29h-8.54l.028-.27c.046-.441.225-.771.534-.985.331-.229.199-.221 3.71-.223 2.864-.002 3.265.005 3.43.062" fill-rule="evenodd" fill="#000"/></svg>