<svg width="24" height="24" fill="none" xmlns="http://www.w3.org/2000/svg"><path d="M11.5 1.882c-1.107.173-2.187.934-2.977 2.097-.266.392-1.133 1.935-4.812 8.561-1.836 3.309-2.02 3.663-2.205 4.248-.264.835-.313 1.755-.133 2.455.387 1.501 1.609 2.508 3.427 2.824.395.069.82.073 7.26.073 7.548 0 7.028.016 7.9-.246 1.372-.413 2.339-1.373 2.665-2.647.08-.311.1-.489.102-.907.004-.844-.154-1.503-.565-2.36-.353-.738-6.374-11.544-6.697-12.02-.519-.766-1.321-1.475-2.034-1.798-.559-.253-1.36-.37-1.931-.28m.96 1.526c.647.139 1.366.75 1.945 1.652.238.372 6.189 11.122 6.399 11.56.296.619.394.969.423 1.52.018.339.008.5-.043.7-.264 1.037-1.125 1.642-2.564 1.8-.472.052-12.423.052-13.089 0-.986-.076-1.686-.346-2.174-.836-.45-.451-.621-.939-.585-1.664.041-.834.157-1.11 1.413-3.375A1776.23 1776.23 0 0 1 9.491 5.24c.611-1.027 1.359-1.691 2.069-1.835.403-.082.503-.082.9.003m-.673 4.87a.659.659 0 0 0-.447.326c-.078.132-.08.208-.08 2.896 0 2.688.002 2.764.08 2.896a.646.646 0 0 0 .475.327c.367.069.684-.054.845-.327.077-.132.08-.22.093-2.676.007-1.397.001-2.652-.013-2.789-.042-.405-.244-.62-.62-.662a1.307 1.307 0 0 0-.333.009m-.217 7.795c-.373.133-.531.366-.561.827-.043.662.253 1.033.867 1.089.453.041.849-.131 1.012-.439.075-.141.09-.235.091-.553.001-.357-.007-.397-.119-.578-.163-.263-.402-.386-.791-.406a1.17 1.17 0 0 0-.499.06" fill-rule="evenodd" fill="#000"/></svg>