<svg width="24" height="24" fill="none" xmlns="http://www.w3.org/2000/svg"><path d="M3.66 1.277A2.77 2.77 0 0 0 1.352 3.26c-.088.308-.092.375-.092 1.74s.004 1.432.092 1.74A2.813 2.813 0 0 0 3.26 8.648c.314.09.353.092 2.24.092 1.887 0 1.926-.002 2.24-.092a2.8 2.8 0 0 0 1.372-.902c.384-.459.578-.964.63-1.636l.027-.35h1.99l.01 6.39.011 6.39.111.329c.231.679.75 1.267 1.403 1.586.451.22.652.263 1.374.293l.569.024.024.184c.047.368.108.561.252.805.299.506.842.881 1.387.958.364.051 3.836.051 4.2 0 .798-.113 1.506-.821 1.619-1.619.051-.362.051-1.838 0-2.2-.113-.798-.821-1.506-1.619-1.619-.364-.051-3.836-.051-4.2 0-.545.077-1.088.452-1.387.958-.145.245-.204.436-.253.811l-.025.19h-.511c-.489 0-.522-.005-.754-.121a1.361 1.361 0 0 1-.625-.634c-.084-.182-.085-.227-.096-2.715l-.012-2.53h1.998l.025.19c.071.557.225.895.561 1.23.273.273.539.43.88.519.35.091 4.248.091 4.598 0 .626-.164 1.118-.624 1.348-1.261.088-.247.092-.306.092-1.418 0-1.112-.004-1.171-.092-1.418-.23-.637-.722-1.097-1.348-1.261-.35-.091-4.248-.091-4.598 0a1.837 1.837 0 0 0-.88.519c-.336.335-.49.673-.561 1.23l-.025.19H13.24v-6h1.995l.025.19c.049.375.108.566.253.811.299.506.842.881 1.387.958.364.051 3.836.051 4.2 0 .798-.113 1.506-.821 1.619-1.619.051-.362.051-1.838 0-2.2-.113-.798-.821-1.506-1.619-1.619-.364-.051-3.836-.051-4.2 0-.545.077-1.088.452-1.387.958-.145.245-.204.436-.253.811l-.025.19H9.769l-.027-.35a4.387 4.387 0 0 0-.107-.65c-.231-.866-.979-1.618-1.875-1.884-.288-.085-.371-.089-2.08-.099-.979-.005-1.888.004-2.02.02m3.794 1.564c.29.109.596.415.705.705.075.201.081.309.081 1.454 0 1.45-.014 1.523-.366 1.874-.366.367-.36.366-2.374.366-2.014 0-2.008.001-2.374-.366C2.774 6.523 2.76 6.45 2.76 5c0-1.45.014-1.523.366-1.874.364-.365.343-.362 2.362-.364 1.662-.002 1.76.002 1.966.079m13.65 1.055.136.136v1.936l-.136.136-.136.136h-3.936l-.136-.136-.136-.136V4.032l.136-.136.136-.136h3.936l.136.136M21 11.3c.235.121.24.148.24 1.2s-.005 1.079-.24 1.2c-.098.051-.407.06-2 .06s-1.902-.009-2-.06c-.235-.121-.24-.148-.24-1.192 0-.597.016-.983.043-1.033a.536.536 0 0 1 .17-.157c.121-.074.216-.078 2.019-.078 1.601 0 1.91.009 2.008.06m.104 7.596.136.136v1.936l-.136.136-.136.136h-3.936l-.136-.136-.136-.136v-1.936l.136-.136.136-.136h3.936l.136.136" fill-rule="evenodd" fill="#000"/></svg>