<svg width="24" height="24" fill="none" xmlns="http://www.w3.org/2000/svg"><path d="M19.66 1.278c-.884.107-1.642.629-2.09 1.442a2.523 2.523 0 0 0-.167.366l-.046.146-2.009.02c-2.191.022-2.362.037-2.987.265a3.032 3.032 0 0 0-1.842 1.839c-.239.655-.247.754-.267 3.434l-.019 2.45H6.646l-.047-.15c-.181-.571-.708-1.179-1.319-1.522-.714-.4-1.846-.4-2.56 0-.939.526-1.451 1.385-1.451 2.432s.512 1.906 1.451 2.432c.714.4 1.846.4 2.56 0 .611-.343 1.138-.951 1.319-1.522l.047-.15H10.233l.019 2.45c.02 2.677.028 2.78.265 3.429a3.032 3.032 0 0 0 1.839 1.842c.631.23.798.245 2.992.267l2.009.02.046.146c.178.567.708 1.176 1.317 1.518.714.4 1.846.4 2.56 0 .939-.526 1.451-1.385 1.451-2.432s-.512-1.906-1.451-2.432c-.714-.4-1.846-.4-2.56 0-.611.343-1.138.951-1.319 1.522l-.047.15-1.927-.001c-2.119 0-2.274-.014-2.731-.238a1.654 1.654 0 0 1-.72-.739c-.206-.449-.215-.577-.215-3.132l-.001-2.37h5.594l.047.15c.125.395.515.941.872 1.221.545.427 1.042.6 1.727.6 1.047 0 1.906-.512 2.432-1.451.4-.714.4-1.846 0-2.56-.526-.939-1.385-1.451-2.432-1.451-.685 0-1.182.173-1.727.6-.357.28-.747.826-.872 1.221l-.047.15H11.76l.001-2.37c0-2.601.008-2.706.238-3.174.145-.295.442-.584.739-.72.438-.201.612-.215 2.689-.215l1.927-.001.047.15c.125.395.515.941.872 1.221.545.427 1.042.6 1.727.6 1.047 0 1.906-.512 2.432-1.451.4-.714.4-1.846 0-2.56-.575-1.026-1.636-1.578-2.772-1.442m.794 1.563c.458.172.786.655.786 1.159s-.328.987-.786 1.159c-.644.241-1.379-.083-1.617-.714-.109-.288-.094-.741.033-.987.149-.289.479-.572.77-.661.198-.06.592-.039.814.044m-16 8c.29.109.596.415.705.705A1.246 1.246 0 0 1 4 13.24c-.508 0-.986-.327-1.163-.795-.109-.288-.094-.741.033-.987.149-.289.479-.572.77-.661.198-.06.592-.039.814.044m16 0c.29.109.596.415.705.705.176.471.068.975-.285 1.328a1.216 1.216 0 0 1-1.748 0c-.279-.278-.38-.549-.357-.954.021-.353.107-.547.355-.795.273-.272.473-.356.864-.362.16-.002.327.026.466.078m0 8c.29.109.596.415.705.705.176.471.068.975-.285 1.328a1.182 1.182 0 0 1-.874.366c-.508 0-.986-.327-1.163-.795-.109-.288-.094-.741.033-.987.149-.289.479-.572.77-.661.198-.06.592-.039.814.044" fill-rule="evenodd" fill="#000"/></svg>