<svg width="24" height="24" fill="none" xmlns="http://www.w3.org/2000/svg"><path d="M7.92 1.281c-.752.089-1.429.437-2.201 1.13-.464.416-3.234 3.204-3.487 3.509-.452.545-.781 1.18-.899 1.735-.085.4-.052 1.147.067 1.525.178.566.517 1.122 1.037 1.703.266.298.437.397.682.397.2 0 .293-.044.494-.235.199-.188.267-.322.267-.525 0-.214-.081-.365-.366-.676a3.324 3.324 0 0 1-.632-.944c-.086-.202-.101-.299-.099-.62.003-.442.072-.649.367-1.099.209-.318 3.296-3.455 3.81-3.871.165-.134.435-.308.6-.386.285-.137.32-.144.72-.144.4 0 .434.007.72.144.342.165.69.418.978.713l.199.203-1.642 1.65c-.996 1.002-1.667 1.707-1.708 1.796a.542.542 0 0 0-.013.485c.184.439.675.668 1.038.484.149-.075 3.753-3.652 3.995-3.965.204-.263.241-.481.121-.713-.11-.213-1.187-1.267-1.608-1.575-.782-.57-1.621-.819-2.44-.721m11.98.075c-.318.093-.904.346-1.64.707C14.71 3.805 10.367 7.142 8.059 9.9c-.558.667-2.022 2.522-2.162 2.74-.145.224-.146.225-.371.253-.32.039-.89.224-1.306.423-1.418.681-2.382 1.951-2.64 3.479-.13.773-.348 2.982-.325 3.305A2.852 2.852 0 0 0 3.9 22.745c.421.03 3.1-.267 3.635-.403 1.854-.47 3.231-1.973 3.565-3.89.033-.189.06-.347.06-.353 0-.006.083-.06.184-.119.193-.114 1.591-1.218 2.569-2.031 3.123-2.593 6.809-7.554 8.42-11.333.123-.288.242-.603.264-.7.063-.269.051-.833-.021-1.079-.21-.715-.817-1.313-1.518-1.496-.311-.081-.855-.074-1.158.015m.882 1.468c.335.159.454.529.296.925-1.005 2.527-3.313 6.03-5.787 8.783-.253.282-.469.503-.48.492a2.962 2.962 0 0 1-.13-.332 5.041 5.041 0 0 0-.613-1.239 5.465 5.465 0 0 0-2.844-2.178l-.396-.134.316-.295c2.181-2.038 5.358-4.263 7.756-5.431 1.323-.645 1.591-.729 1.882-.591M10.42 10.6a3.987 3.987 0 0 1 2.844 2.565c.117.334.216.808.216 1.035 0 .185-.036.219-1.477 1.374l-.978.783-.085-.268a4.806 4.806 0 0 0-.592-1.166c-.249-.363-.822-.949-1.208-1.236-.323-.24-.971-.57-1.32-.672a3.308 3.308 0 0 1-.254-.081c-.018-.012 1.031-1.341 1.568-1.988l.393-.473.287.026c.157.015.43.06.606.101m9.5 1.365c-.108.031-.525.426-1.807 1.708-1.833 1.833-1.811 1.805-1.712 2.172.06.221.373.534.594.594.358.096.373.085 1.815-1.351l1.309-1.305.166.159c.479.459.826 1.021.916 1.486.089.455-.07.965-.46 1.48-.096.128-.991 1.044-1.988 2.036-1.887 1.877-2.031 2.001-2.544 2.185a1.65 1.65 0 0 1-1.1-.023c-.338-.129-.6-.302-1.004-.664-.511-.457-.758-.475-1.148-.085-.391.391-.372.678.077 1.123.55.544 1.289.988 1.906 1.144.384.098 1.105.098 1.48.001.403-.103 1.027-.42 1.42-.719.495-.378 3.926-3.84 4.19-4.229.277-.409.468-.799.578-1.18.12-.419.128-1.184.017-1.577-.106-.374-.427-1.015-.671-1.34-.244-.325-1.317-1.431-1.494-1.54a.702.702 0 0 0-.54-.075M7.117 14.384c1.159.283 2.189 1.303 2.471 2.447.105.426.095 1.303-.019 1.7-.329 1.147-1.212 2.036-2.331 2.347-.178.05-.875.147-1.726.242-1.535.17-1.699.17-2.035-.001-.362-.185-.68-.635-.736-1.039-.03-.217.269-2.933.363-3.294a3.35 3.35 0 0 1 2.516-2.4c.385-.082 1.165-.083 1.497-.002" fill-rule="evenodd" fill="#000"/></svg>