<svg width="24" height="24" fill="none" xmlns="http://www.w3.org/2000/svg"><path d="M11.789 2.684c-.385.06-.774.404-.873.771-.076.283-.05.616.067.855.357.729 1.395.84 1.898.203.195-.245.253-.452.23-.813-.021-.33-.095-.488-.335-.722-.262-.255-.6-.355-.987-.294m.293 1.058c.042.051.04.074-.015.129-.063.062-.071.062-.134 0-.055-.055-.057-.078-.015-.129.029-.034.065-.062.082-.062s.053.028.082.062M4.801 5.549c-.247.088-.568.416-.654.668-.191.561.038 1.152.545 1.409.501.254 1.071.125 1.425-.321.153-.194.218-.414.215-.729-.005-.433-.255-.808-.669-1.001a1.225 1.225 0 0 0-.862-.026m13.535.027c-.436.203-.671.569-.671 1.044 0 .467.238.845.651 1.034.274.125.719.119.979-.014.696-.355.841-1.27.288-1.823-.342-.341-.83-.435-1.247-.241m-13.079.968c.08.031.082.131.002.162-.091.035-.192-.063-.135-.131.053-.063.05-.063.133-.031m13.615.067c.016.082-.099.138-.16.077-.061-.061-.005-.176.077-.16a.11.11 0 0 1 .083.083m-.152-.036c0 .008.032.04.07.07.063.05.065.048.015-.015-.052-.067-.085-.088-.085-.055m-7.34.853c-.978.127-1.77.397-2.505.853a6.045 6.045 0 0 0-2.832 4.307c-.095.636-.035 1.672.135 2.324.571 2.193 2.4 3.938 4.598 4.387a6.062 6.062 0 0 0 5.546-1.724c1.115-1.162 1.677-2.559 1.677-4.175a5.91 5.91 0 0 0-1.757-4.238 5.933 5.933 0 0 0-4.295-1.756 7.808 7.808 0 0 0-.567.022m1.348 1.534c1.453.205 2.819 1.283 3.419 2.699a4.424 4.424 0 0 1-.108 3.728 4.49 4.49 0 0 1-4.276 2.519c-2.211-.108-4.005-1.826-4.248-4.069-.205-1.89.902-3.776 2.673-4.554.806-.353 1.602-.455 2.54-.323m-10.71 3.371c-.553.213-.851.743-.734 1.305.15.724.943 1.113 1.607.788.26-.127.402-.279.54-.58.084-.183.096-.257.08-.5a1.109 1.109 0 0 0-.671-.983c-.204-.092-.621-.107-.822-.03m19.198-.002c-.328.129-.65.481-.715.783-.165.761.344 1.418 1.099 1.418.437 0 .768-.19.99-.567.157-.267.175-.719.04-1.013a1.235 1.235 0 0 0-.543-.577c-.18-.088-.693-.114-.871-.044m-9.396.331a1.802 1.802 0 0 1-.178.057c-.061.002-1.863 1.85-1.931 1.98a.81.81 0 0 0-.082.306c0 .306.357.719.674.778.291.055.412-.035 1.444-1.073 1.06-1.065 1.116-1.144 1.02-1.46-.086-.285-.379-.551-.687-.622a.598.598 0 0 0-.26.034m9.858.694c.061.113-.056.203-.147.113-.053-.054-.055-.076-.013-.127.068-.082.111-.078.16.014m-19.212.024c.007.022-.004.067-.025.1-.034.053-.046.052-.104-.006-.037-.037-.054-.087-.038-.112.033-.054.148-.041.167.018m2.53 5.701c-.235.039-.378.114-.566.297-.222.216-.32.435-.341.768-.016.243-.004.317.079.5.197.429.583.679 1.048.679.64 0 1.116-.479 1.116-1.124-.001-.727-.613-1.24-1.336-1.12m13.578.002c-.547.104-.911.562-.908 1.142.002.428.185.739.569.965.266.157.719.175 1.011.042.249-.114.441-.293.565-.527.127-.238.126-.773-.001-1.013a1.158 1.158 0 0 0-1.236-.609M5.267 20.141c.047.048.05.074.014.118-.059.071-.161.035-.161-.057 0-.127.057-.15.147-.061m13.6.002c.013.035-.003.09-.035.122-.052.052-.065.051-.111-.004-.07-.084-.021-.126.068-.059.061.046.064.046.021-.002-.028-.031-.05-.07-.05-.088 0-.057.082-.034.107.031" fill-rule="evenodd" fill="#000"/></svg>