<svg width="24" height="24" fill="none" xmlns="http://www.w3.org/2000/svg"><path d="M5.18 1.282c-2.08.109-3.163.782-3.635 2.258-.276.861-.317 1.697-.294 5.935.019 3.408.028 3.613.206 4.38.29 1.248 1.075 2.049 2.314 2.364.662.168.943.189 2.739.209l1.73.02v2.786l-1.27.013c-1.141.012-1.285.021-1.419.087-.236.118-.331.308-.331.666 0 .358.095.548.331.666.14.07.317.075 3.039.085 2.048.009 2.89.025 2.89.055 0 .024.049.154.108.289.346.786.927 1.266 1.802 1.489.613.156 1.389.187 4.125.164 2.015-.016 2.483-.031 2.765-.085 1.056-.202 1.696-.635 2.072-1.403.156-.318.232-.562.317-1.02.066-.351.071-.761.071-5.36 0-4.598-.005-5.009-.071-5.36-.15-.806-.354-1.245-.769-1.661a2.605 2.605 0 0 0-.99-.617l-.15-.048-.001-.587c-.002-.856-.067-1.973-.139-2.387-.291-1.675-1.165-2.55-2.84-2.84-.198-.035-.675-.08-1.06-.1-.809-.044-10.703-.042-11.54.002M17.294 2.82c1.593.209 1.946.801 1.946 3.26v.916l-2.69.015c-2.398.013-2.723.022-2.99.085-1.22.288-1.913.981-2.18 2.184-.043.195-.074.576-.088 1.09l-.022.79H2.76V8.162c0-2.424.011-3.085.06-3.452.17-1.302.574-1.715 1.846-1.888.62-.084 11.986-.086 12.628-.002m2.345 5.701c1.087.084 1.421.357 1.563 1.276.026.171.036 2.012.029 5.243-.011 4.626-.017 4.997-.083 5.22-.148.502-.388.741-.888.887-.217.063-.517.072-3.078.083-1.812.009-2.935-.001-3.104-.028-.871-.135-1.161-.454-1.277-1.401-.054-.446-.055-9.094-.001-9.707.062-.704.214-1.093.504-1.291.188-.129.58-.241.974-.279.487-.047 4.764-.05 5.361-.003M16.5 9.894c-.4.132-.781.419-1.022.769-.289.419-.372 1.072-.2 1.574.161.471.527.875.993 1.096.254.12.294.127.729.126.38-.001.498-.016.682-.09.459-.184.913-.664 1.066-1.129.097-.297.097-.863 0-1.16-.154-.466-.611-.95-1.066-1.127-.276-.107-.936-.14-1.182-.059m.722 1.564a.345.345 0 0 1 .098.202.345.345 0 0 1-.098.202c-.196.195-.502.072-.502-.202s.306-.397.502-.202M11.28 13.8v1.16H8.41c-3.394-.001-3.844-.027-4.522-.267a1.381 1.381 0 0 1-.826-.735c-.121-.27-.261-.883-.261-1.148l-.001-.17h8.48v1.16m5.14.376c-1.423.326-2.367 1.564-2.289 3.002.066 1.201.821 2.185 1.986 2.588.7.241 1.672.143 2.323-.235.334-.194.897-.757 1.091-1.091.464-.799.483-1.903.048-2.762-.238-.47-.788-1.02-1.258-1.258-.516-.26-1.357-.368-1.901-.244m1.078 1.547c.271.101.61.401.733.648.138.276.185.6.129.886-.062.315-.165.51-.385.73-.697.698-1.905.435-2.253-.49a1.536 1.536 0 0 1 .04-1.077c.135-.284.452-.589.719-.692a1.575 1.575 0 0 1 1.017-.005M11.28 17.84v1.4H9.76v-2.8h1.52v1.4" fill-rule="evenodd" fill="#000"/></svg>