<svg width="24" height="24" fill="none" xmlns="http://www.w3.org/2000/svg"><path d="M11.74 1.284c-.641.057-1.325.3-1.86.658-.343.231-.812.715-1.014 1.048l-.152.25-1.067.001c-2.084.001-2.889.118-3.832.557-1.274.594-2.123 1.748-2.432 3.302-.112.565-.142 1.424-.142 4.1 0 3.279.034 3.831.287 4.7.122.418.434 1.042.701 1.402.831 1.116 2.037 1.699 3.755 1.816.328.023 1.419.041 2.426.041l1.83.001v2.075l-1.55.012c-1.466.012-1.557.017-1.686.093-.273.161-.396.478-.327.845a.646.646 0 0 0 .327.475c.133.079.208.08 3.996.08s3.863-.001 3.996-.08c.273-.161.396-.478.327-.845a.646.646 0 0 0-.327-.475c-.129-.076-.22-.081-1.686-.093l-1.55-.012V19.16l1.83-.001c2.505 0 3.195-.056 4.02-.325 1.601-.521 2.655-1.759 3.007-3.534.079-.398.142-1.3.142-2.047l.001-.567.248-.151a4.07 4.07 0 0 0 .546-.433c.678-.644 1.076-1.503 1.166-2.518.052-.583.051-4.154-.001-4.744a5.94 5.94 0 0 0-.125-.78 3.662 3.662 0 0 0-1.974-2.399c-.457-.219-.879-.328-1.46-.38-.545-.048-6.885-.046-7.42.003m7.752 1.554c.48.123.733.265 1.069.601.336.336.478.589.601 1.069.073.285.078.455.077 2.668 0 1.93-.011 2.415-.059 2.643-.145.684-.576 1.258-1.155 1.54-.529.258-.729.281-2.453.283-1.115.001-1.549.015-1.652.052-.077.028-.765.468-1.53.979l-1.39.928v-.712c0-.659-.007-.725-.09-.89-.132-.259-.27-.322-.802-.362a5.042 5.042 0 0 1-.678-.095c-.605-.16-1.153-.606-1.411-1.15-.255-.538-.264-.656-.249-3.338.016-2.615.01-2.552.26-3.087.158-.338.604-.77.978-.948.545-.259.434-.252 4.496-.256 3.525-.003 3.696 0 3.988.075M8.26 7.23c0 2.714.004 2.774.243 3.444a3.663 3.663 0 0 0 1.583 1.931c.295.177.917.413 1.199.455l.184.027.021.513c.017.435.035.545.122.733.142.31.389.563.702.717.234.115.301.13.585.128.257-.002.366-.023.546-.106.124-.057.832-.509 1.574-1.006l1.349-.902 1.436-.012 1.436-.012-.001.66c0 .363-.019.786-.041.94-.217 1.516-.962 2.384-2.378 2.771l-.4.109H5.58l-.4-.109c-1.426-.39-2.18-1.277-2.381-2.806-.029-.216-.039-1.464-.03-3.725l.013-3.4.108-.4c.06-.22.193-.571.296-.779.352-.715.982-1.216 1.838-1.46.537-.154.734-.171 2.036-.176l1.2-.005v2.47m4.207-.626a.502.502 0 0 0-.229.249c-.085.187-.103.556-.035.734.118.315.487.469.908.381.368-.077.53-.296.528-.717-.002-.503-.237-.733-.747-.729-.193.001-.317.025-.425.082m2.8 0a.502.502 0 0 0-.229.249c-.085.187-.103.556-.035.734.118.315.487.469.908.381.368-.077.53-.296.528-.717-.002-.503-.237-.733-.747-.729-.193.001-.317.025-.425.082m2.8 0a.502.502 0 0 0-.229.249c-.085.187-.103.556-.035.734.118.315.487.469.908.381.368-.077.53-.296.528-.717-.002-.503-.237-.733-.747-.729-.193.001-.317.025-.425.082" fill-rule="evenodd" fill="#000"/></svg>