<svg width="24" height="24" fill="none" xmlns="http://www.w3.org/2000/svg"><path d="M1.787 1.278a.659.659 0 0 0-.447.326c-.079.135-.08.218-.091 8.716-.012 8.661-.005 9.106.133 9.652.086.341.41.995.649 1.309.47.62 1.257 1.146 1.997 1.336.541.14.978.146 9.652.134 8.498-.011 8.581-.012 8.716-.091.273-.161.396-.478.327-.845a.646.646 0 0 0-.327-.475c-.135-.079-.226-.08-9.036-.1l-8.9-.02-.226-.091c-.521-.211-.976-.611-1.224-1.075-.268-.505-.25.183-.252-9.392-.001-4.775-.017-8.76-.035-8.856-.079-.408-.458-.621-.936-.528m19.052 4.958a1.215 1.215 0 0 0-.195.088c-.051.031-1.151 1.289-2.444 2.796s-2.412 2.798-2.486 2.868c-.21.2-.488.306-.814.309-.481.005-.586-.058-1.36-.815-.374-.366-.766-.724-.871-.796-1.03-.706-2.464-.627-3.349.185-.393.36-4.879 5.607-5.015 5.865-.137.261-.125.409.054.657.248.341.666.473.959.303.072-.042 1.185-1.303 2.483-2.816 1.293-1.507 2.411-2.798 2.485-2.868.154-.147.42-.272.662-.311.21-.034.587.04.772.151.077.047.464.401.86.787.64.625.758.721 1.06.873a2.6 2.6 0 0 0 1.24.287c.701 0 1.347-.243 1.816-.681.401-.375 4.868-5.607 4.999-5.855.09-.17.109-.248.089-.356-.074-.394-.613-.776-.945-.671" fill-rule="evenodd" fill="#000"/></svg>