<svg width="24" height="24" fill="none" xmlns="http://www.w3.org/2000/svg"><path d="M7.06 1.444c-1.19.152-2.138.787-2.71 1.817-.208.374-2.823 6.26-2.934 6.603a4.5 4.5 0 0 0-.138.704c-.11.973.193 2.161.732 2.878.261.347 7.207 7.968 7.443 8.167a4.22 4.22 0 0 0 1.495.815c.324.099.407.108 1.052.11.575.001.746-.013.96-.075.657-.194 1.186-.481 1.635-.887.267-.243 7.067-7.718 7.347-8.078.507-.65.79-1.56.79-2.538-.001-.818-.007-.835-1.498-4.194a241.318 241.318 0 0 0-1.476-3.286c-.541-1.075-1.338-1.713-2.478-1.984-.279-.067-.645-.072-5.12-.08-2.651-.004-4.946.009-5.1.028m9.92 1.513c.64.162 1.083.525 1.411 1.156.149.286 1.207 2.617 1.397 3.077.016.04-1.556.05-7.784.05-4.292 0-7.804-.007-7.804-.016 0-.074 1.432-3.209 1.541-3.373.378-.569.854-.85 1.575-.929.167-.018 2.365-.029 4.884-.025 3.543.007 4.625.021 4.78.06m3.826 6.527c.4.901.45 1.092.423 1.636-.035.702-.229 1.211-.631 1.655l-3.355 3.705a449.444 449.444 0 0 1-3.458 3.792c-.544.557-.964.759-1.645.795-.623.033-1.074-.103-1.569-.472-.155-.116-5.349-5.775-7.227-7.876-.369-.412-.585-1.047-.583-1.715.001-.211.02-.465.042-.564.036-.153.487-1.223.663-1.57l.056-.11 8.486.01 8.486.01.312.704" fill-rule="evenodd" fill="#000"/></svg>