<svg width="24" height="24" fill="none" xmlns="http://www.w3.org/2000/svg"><path d="M11.8 1.245c-.106.031-.429.33-1.327 1.228-1.307 1.308-1.328 1.336-1.232 1.692.06.221.373.534.594.594.302.081.442.009.95-.487l.452-.442.011 2.715c.012 2.632.014 2.719.092 2.851.161.273.478.396.845.327a.646.646 0 0 0 .475-.327c.078-.132.08-.219.092-2.851l.011-2.715.452.442c.508.496.648.568.95.487.221-.06.534-.373.594-.594.094-.349.066-.388-1.173-1.643-.619-.628-1.18-1.172-1.247-1.209a.743.743 0 0 0-.539-.068M6.94 4.391c-.306.029-1.166.231-1.594.374-.918.307-1.592.715-2.23 1.352a4.808 4.808 0 0 0-1.04 1.459c-.655 1.374-.835 2.674-.835 6.044.001 2.745.109 3.8.519 5.03.607 1.819 1.771 2.982 3.596 3.592.835.279 1.642.415 2.837.478.969.051 6.645.051 7.614 0 1.195-.063 2.002-.199 2.837-.478 2.322-.776 3.581-2.445 3.978-5.269.187-1.334.186-5.554-.002-6.913-.184-1.332-.542-2.368-1.112-3.22-.274-.409-.97-1.095-1.388-1.368-.71-.463-1.477-.768-2.44-.971-.529-.111-.872-.133-1.046-.066-.173.066-.315.292-.365.578-.037.221-.034.283.027.442.1.261.276.351.944.482 2.738.54 3.883 2.118 3.987 5.493l.025.81-1.796.001c-.988 0-1.922.018-2.076.04-.375.053-.748.24-1.007.505-.177.181-.307.41-.891 1.573-.376.748-.736 1.42-.8 1.493a1.481 1.481 0 0 1-.329.25l-.213.118-2.065.011c-2.013.011-2.07.01-2.289-.072-.419-.157-.504-.278-1.268-1.803-.606-1.207-.714-1.397-.902-1.585a1.8 1.8 0 0 0-.976-.489c-.151-.024-1.018-.042-2.076-.042H2.748l.024-.79c.027-.896.104-1.511.269-2.152.247-.962.576-1.587 1.111-2.113.66-.649 1.424-1.014 2.608-1.248.83-.163.984-.29.976-.802-.007-.511-.307-.791-.796-.744m.28 10.724c.374.734.753 1.432.843 1.551.231.306.584.593.957.776.592.291.581.29 2.693.308 2.405.021 2.797-.019 3.367-.343.691-.394.828-.578 1.68-2.252l.7-1.375 1.895-.01 1.894-.011-.02 1.311c-.022 1.416-.059 1.772-.269 2.618-.544 2.188-1.876 3.209-4.557 3.494-.792.084-8.014.084-8.806 0-2.695-.287-4.034-1.324-4.572-3.542-.195-.803-.232-1.179-.254-2.57l-.02-1.311 1.894.011 1.895.01.68 1.335" fill-rule="evenodd" fill="#000"/></svg>