<svg width="24" height="24" fill="none" xmlns="http://www.w3.org/2000/svg"><path d="M8.08 1.282c-4.079.217-6.185 2.013-6.697 5.709-.113.812-.141 1.825-.141 5.009s.028 4.197.141 5.009c.384 2.775 1.665 4.461 3.973 5.233.835.279 1.642.415 2.837.478.969.051 6.645.051 7.614 0 1.195-.063 2.002-.199 2.837-.478 2.318-.775 3.575-2.437 3.977-5.256.107-.75.144-2.082.132-4.686-.013-2.476-.016-2.564-.093-2.696-.161-.273-.478-.396-.845-.327a.646.646 0 0 0-.475.327c-.075.127-.081.221-.093 1.386l-.013 1.25-1.587.001c-2.045.002-2.3.045-2.961.497-.506.345-.686.598-1.327 1.867-.31.615-.616 1.177-.679 1.249a1.47 1.47 0 0 1-.327.248l-.213.118-2.076.011c-2.334.013-2.309.016-2.639-.275-.156-.137-.265-.324-.762-1.308-.618-1.224-.831-1.544-1.208-1.812-.483-.344-.859-.493-1.403-.555-.194-.022-1.015-.04-1.825-.041H2.754l.016-2.31c.014-1.92.029-2.381.085-2.73C3.3 4.441 4.439 3.302 7.2 2.855c.362-.059.882-.072 3.74-.092 3.226-.022 3.324-.025 3.456-.103a.646.646 0 0 0 .327-.475c.069-.367-.054-.684-.327-.845-.132-.078-.212-.08-2.936-.085-1.54-.002-3.061.01-3.38.027m10.66-.016c-1.325.119-2.413.819-3.021 1.946A3.483 3.483 0 0 0 15.271 5c0 .682.129 1.197.45 1.792a3.518 3.518 0 0 0 1.491 1.489A3.483 3.483 0 0 0 19 8.729c.68 0 1.197-.129 1.788-.448a3.518 3.518 0 0 0 1.491-1.489c.321-.595.45-1.11.45-1.792 0-.68-.129-1.197-.448-1.788a3.674 3.674 0 0 0-2.066-1.749c-.422-.147-1.066-.233-1.475-.197m.838 1.555c.371.097.696.291 1.003.598.46.46.659.937.659 1.581 0 .644-.199 1.121-.659 1.581-.46.46-.937.659-1.581.659-.644 0-1.121-.199-1.581-.659-.46-.46-.659-.937-.659-1.581 0-.644.199-1.121.659-1.581.3-.301.631-.5.985-.596.288-.077.881-.078 1.174-.002m1.651 12.229c-.022 1.437-.058 1.788-.269 2.638-.456 1.831-1.44 2.816-3.272 3.272-1.066.266-.943.26-5.688.26s-4.622.006-5.688-.26c-2.084-.519-3.072-1.709-3.455-4.16-.046-.297-.072-.803-.086-1.732l-.02-1.311 1.694.011 1.695.012.213.118c.117.065.266.178.331.253.065.074.344.586.62 1.138.276.551.574 1.117.662 1.256.217.344.646.732 1.003.908.551.272.598.277 2.724.296 2.428.022 2.818-.017 3.387-.343.681-.39.861-.622 1.564-2.016.307-.611.611-1.17.675-1.242.142-.162.461-.34.69-.386.094-.018.862-.035 1.706-.038l1.534-.004-.02 1.33" fill-rule="evenodd" fill="#000"/></svg>