<svg width="24" height="24" fill="none" xmlns="http://www.w3.org/2000/svg"><path d="M11.787 1.278a.659.659 0 0 0-.447.326c-.077.131-.08.219-.092 2.351l-.012 2.214-.451-.441c-.508-.496-.648-.568-.95-.487-.221.06-.534.373-.594.594-.094.349-.066.388 1.173 1.643.619.628 1.189 1.177 1.266 1.219.19.105.468.102.643-.007.075-.047.644-.595 1.263-1.218 1.241-1.247 1.268-1.284 1.173-1.637-.06-.221-.373-.534-.594-.594-.302-.081-.442-.009-.951.489l-.454.443-.002-2.097c-.001-1.153-.017-2.174-.035-2.27-.079-.408-.458-.621-.936-.528M7.58 3.342c-1.781.266-2.796 1.064-3.154 2.478-.137.539-.153.856-.174 3.352l-.022 2.512-.205.103c-.985.498-1.525 1.323-1.703 2.599-.123.877-.083 4.106.06 4.911.155.876.487 1.569.998 2.086.821.832 1.962 1.227 3.855 1.337.89.052 8.48.05 9.339-.002 1.678-.101 2.864-.552 3.728-1.416.488-.488.826-1.051 1.072-1.786.2-.599.298-1.164.35-2.024.05-.819.022-2.619-.048-3.122-.175-1.258-.721-2.087-1.701-2.583l-.205-.103-.022-2.512c-.021-2.496-.037-2.813-.174-3.352-.362-1.433-1.384-2.223-3.21-2.482-.73-.104-.97.011-1.084.521-.067.299-.015.534.156.706.152.152.205.169.884.274.799.124 1.366.425 1.622.861.054.092.138.309.186.483.086.308.089.386.103 2.73l.014 2.413-.233-.029a10.413 10.413 0 0 0-.912-.028c-1.424.005-1.843.206-3.073 1.474-.657.679-.738.748-1.04.897a2.24 2.24 0 0 1-2.342-.217c-.102-.075-.444-.417-.761-.759-.794-.857-1.29-1.189-1.987-1.329-.343-.069-1.491-.092-1.909-.038l-.233.029.014-2.413c.014-2.344.017-2.422.103-2.73.048-.174.132-.391.186-.483.256-.436.823-.737 1.622-.861.679-.105.732-.122.884-.274.357-.359.168-1.137-.304-1.246-.195-.045-.228-.044-.68.023m.32 9.557c.184.092.352.236.719.62 1.166 1.219 1.458 1.429 2.375 1.71.314.096.406.105 1.006.105.603 0 .691-.009 1.012-.107.426-.13.837-.329 1.164-.563.134-.096.568-.506.964-.912.929-.952.955-.966 1.793-.986 1.586-.039 2.628.284 3.009.934.054.092.138.309.187.483.085.304.088.385.09 2.037.001 1.83-.01 1.98-.206 2.657-.374 1.301-1.211 1.986-2.793 2.289-.225.043-1.276.054-5.34.054-4.697 0-5.091-.005-5.489-.072-.951-.161-1.537-.404-1.931-.804-.273-.277-.428-.565-.543-1.016-.139-.538-.163-1.038-.147-2.977.014-1.756.019-1.867.102-2.168.153-.55.393-.847.864-1.067.549-.257 1.163-.352 2.204-.343.713.007.722.008.96.126" fill-rule="evenodd" fill="#000"/></svg>