<svg width="24" height="24" fill="none" xmlns="http://www.w3.org/2000/svg"><path d="M11.8 1.245c-.106.031-.429.33-1.327 1.228-1.307 1.308-1.328 1.336-1.232 1.692.06.221.373.534.594.594.302.081.442.009.95-.487l.451-.441.012 2.214c.012 2.132.015 2.22.092 2.351.161.273.478.396.845.327a.646.646 0 0 0 .475-.327c.077-.131.08-.219.092-2.351l.012-2.214.451.441c.508.496.648.568.95.487.221-.06.534-.373.594-.594.094-.349.066-.388-1.173-1.643-.619-.628-1.18-1.172-1.247-1.209a.743.743 0 0 0-.539-.068M7.58 5.342c-1.781.266-2.796 1.064-3.154 2.478-.119.47-.148.859-.173 2.353l-.026 1.512-.203.103c-.984.497-1.525 1.323-1.702 2.598-.123.877-.083 4.106.06 4.911.155.876.487 1.569.998 2.086.821.832 1.962 1.227 3.855 1.337.89.052 8.48.05 9.339-.002 1.678-.101 2.864-.552 3.728-1.416.488-.488.826-1.051 1.072-1.786.2-.599.298-1.164.35-2.024.05-.819.022-2.619-.048-3.122-.175-1.257-.721-2.087-1.7-2.582l-.203-.103-.026-1.512c-.025-1.494-.054-1.883-.173-2.353-.362-1.433-1.384-2.223-3.21-2.482-.73-.104-.97.011-1.084.521-.067.299-.015.534.156.706.152.152.205.169.884.274.799.124 1.366.425 1.622.861.054.092.137.309.185.483.079.291.088.434.103 1.73l.017 1.414-.233-.03a10.5 10.5 0 0 0-.914-.028c-1.424.005-1.843.206-3.073 1.474-.657.679-.738.748-1.04.897a2.24 2.24 0 0 1-2.342-.217c-.102-.075-.444-.417-.761-.759-.794-.857-1.29-1.189-1.987-1.329-.343-.069-1.491-.092-1.911-.038l-.233.03.017-1.414c.015-1.296.024-1.439.103-1.73a2.53 2.53 0 0 1 .185-.483c.256-.436.823-.737 1.622-.861.679-.105.732-.122.884-.274.357-.359.168-1.137-.304-1.246-.195-.045-.228-.044-.68.023m.32 7.557c.184.092.352.236.719.62 1.166 1.219 1.458 1.429 2.375 1.71.314.096.406.105 1.006.105.603 0 .691-.009 1.012-.107.426-.13.837-.329 1.164-.563.134-.096.568-.506.964-.912.929-.952.955-.966 1.793-.986 1.586-.039 2.628.284 3.009.934.054.092.138.309.187.483.085.304.088.385.09 2.037.001 1.83-.01 1.98-.206 2.657-.374 1.301-1.211 1.986-2.793 2.289-.225.043-1.276.054-5.34.054-4.697 0-5.091-.005-5.489-.072-.951-.161-1.537-.404-1.931-.804-.273-.277-.428-.565-.543-1.016-.139-.538-.163-1.038-.147-2.977.014-1.756.019-1.867.102-2.168.153-.55.393-.847.864-1.067.549-.257 1.163-.352 2.204-.343.713.007.722.008.96.126" fill-rule="evenodd" fill="#000"/></svg>