<svg width="24" height="24" fill="none" xmlns="http://www.w3.org/2000/svg"><path d="M17.58 1.95a3.823 3.823 0 0 0-1.344.333c-.391.169-11.983 6.278-12.259 6.46-.837.554-1.45 1.497-1.658 2.551-.1.503-.051 1.335.108 1.846a3.94 3.94 0 0 0 1.533 2.101c.281.19 11.842 6.288 12.276 6.476.619.267 1.047.343 1.751.312 1.047-.046 1.941-.459 2.673-1.235.8-.848 1.198-2.012 1.061-3.107-.082-.651-.223-1.001-1.196-2.954-.502-1.008-.947-1.932-.988-2.053-.058-.167-.076-.332-.076-.68 0-.348.018-.513.076-.68.041-.121.486-1.045.988-2.053.973-1.953 1.114-2.303 1.196-2.954.081-.649-.046-1.424-.338-2.055-.396-.857-1.239-1.669-2.094-2.017a4.264 4.264 0 0 0-1.709-.291m.821 1.573c.45.125.74.297 1.101.657.51.506.736 1.032.737 1.712.001.539-.069.717-1.083 2.755-.941 1.892-1.036 2.112-1.141 2.653-.108.554-.061 1.292.123 1.913.038.128.496 1.091 1.018 2.14.625 1.256.972 1.999 1.017 2.175.083.332.085.809.006 1.148-.203.857-.983 1.616-1.879 1.826-.37.087-.864.06-1.24-.067-.284-.096-11.865-6.169-12.248-6.423-.459-.303-.847-.864-.991-1.43a2.924 2.924 0 0 1 0-1.164c.144-.566.532-1.127.991-1.43.209-.138 11.403-6.044 11.928-6.293.567-.269 1.108-.325 1.661-.172" fill-rule="evenodd" fill="#000"/></svg>