<svg width="24" height="24" fill="none" xmlns="http://www.w3.org/2000/svg"><path d="M11.74 2.268c-1.173.066-2.356.741-2.997 1.709-.195.296-6.353 11.986-6.503 12.346a3.957 3.957 0 0 0 .001 2.966c.35.861 1.152 1.694 2.013 2.092.8.37 1.761.458 2.599.239.392-.102.839-.306 2.576-1.174.919-.459 1.77-.868 1.891-.91.31-.106 1.05-.106 1.36 0 .121.042.985.457 1.92.924 2.374 1.186 2.603 1.268 3.5 1.269a3.768 3.768 0 0 0 2.672-1.049c.792-.74 1.211-1.635 1.257-2.689.027-.608-.026-.986-.207-1.491-.143-.398-6.285-12.101-6.581-12.54-.759-1.125-2.097-1.771-3.501-1.692m.842 1.553c.567.144 1.128.533 1.43.991.25.378 6.318 11.953 6.419 12.243.129.372.157.829.074 1.22-.189.889-.939 1.677-1.811 1.902-.31.08-.845.081-1.156.003-.137-.035-1.062-.468-2.178-1.021-1.067-.528-2.03-.987-2.14-1.02a4.258 4.258 0 0 0-2.44 0c-.11.033-1.073.492-2.14 1.02-1.116.553-2.041.986-2.178 1.021a2.849 2.849 0 0 1-1.156-.003c-.633-.164-1.305-.706-1.596-1.288-.295-.59-.346-1.257-.14-1.84.105-.299 6.17-11.863 6.418-12.237.298-.452.858-.843 1.412-.989.292-.077.885-.078 1.182-.002" fill-rule="evenodd" fill="#000"/></svg>