<svg width="24" height="24" fill="none" xmlns="http://www.w3.org/2000/svg"><path d="M5.878 1.966c-.9.069-1.684.424-2.373 1.076-1.12 1.06-1.521 2.583-1.06 4.025.072.227.466 1.068 1.03 2.2.502 1.008.947 1.932.988 2.053.108.31.108 1.05 0 1.36-.041.121-.486 1.045-.988 2.053-.564 1.132-.958 1.973-1.03 2.2-.436 1.364-.101 2.805.895 3.861.732.776 1.626 1.189 2.673 1.235.704.031 1.132-.045 1.751-.312.434-.188 11.995-6.286 12.276-6.476.842-.568 1.433-1.481 1.641-2.535.06-.302.06-1.11 0-1.412-.208-1.054-.799-1.967-1.641-2.535C19.805 8.6 8.298 2.52 7.848 2.317a3.803 3.803 0 0 0-1.97-.351m1.087 1.602c.294.109 11.893 6.201 12.223 6.42.459.303.847.864.991 1.43a2.865 2.865 0 0 1 0 1.164c-.144.567-.533 1.128-.991 1.43-.114.075-2.881 1.543-6.148 3.262-6.399 3.366-6.234 3.287-6.836 3.285-.638-.001-1.218-.252-1.706-.738-.51-.508-.736-1.033-.737-1.713-.001-.539.068-.715 1.098-2.787C5.998 13.03 6.02 12.967 6.02 12c0-.967-.022-1.03-1.161-3.321-1.03-2.072-1.099-2.248-1.098-2.787.001-.68.227-1.206.737-1.712.357-.355.614-.512 1.062-.649.409-.125 1.012-.109 1.405.037" fill-rule="evenodd" fill="#000"/></svg>