<svg width="24" height="24" fill="none" xmlns="http://www.w3.org/2000/svg"><path d="M8.08 1.282c-4.072.213-6.185 2.014-6.697 5.709-.113.812-.141 1.825-.141 5.009 0 4.504.06 5.273.518 6.65.772 2.313 2.446 3.576 5.267 3.972.759.106 1.875.137 4.973.137s4.214-.031 4.973-.137c2.47-.347 4.023-1.334 4.924-3.132.482-.96.741-2.121.823-3.683.051-.969.051-6.645 0-7.614-.063-1.195-.199-2.002-.478-2.837-.61-1.825-1.773-2.989-3.592-3.596-.862-.287-1.627-.416-2.844-.48-.854-.045-6.854-.043-7.726.002m8.72 1.572c2.774.46 3.895 1.582 4.345 4.346.057.351.071.801.085 2.73l.016 2.31-1.593.001c-2.052.002-2.305.045-2.967.497-.506.345-.686.598-1.327 1.867-.31.615-.616 1.177-.679 1.249a1.47 1.47 0 0 1-.327.248l-.213.118-2.085.011c-2.024.011-2.091.009-2.306-.071-.38-.142-.522-.338-1.111-1.53-.285-.578-.597-1.155-.694-1.283a2.73 2.73 0 0 0-.964-.789c-.583-.287-.601-.289-2.513-.308l-1.713-.017.017-2.307c.018-2.483.029-2.638.254-3.566.496-2.045 1.677-3.083 3.935-3.46.73-.123 1.088-.131 5.24-.123 3.763.007 4.222.014 4.6.077m-6.665 3.422c-.229.039-.369.142-.457.337-.168.37-.051.877.242 1.046.135.078.205.081 2.08.081 1.868 0 1.945-.003 2.076-.08.251-.148.304-.262.304-.66s-.053-.512-.304-.66c-.13-.077-.214-.08-1.956-.086-1.001-.003-1.894.006-1.985.022m-.84 3c-.229.039-.369.142-.457.337-.168.37-.051.877.242 1.046.137.079.202.081 2.92.081s2.783-.002 2.92-.081a.67.67 0 0 0 .23-.258c.186-.367.073-.885-.23-1.06-.136-.079-.208-.081-2.8-.087-1.463-.003-2.734.007-2.825.022m11.934 5.774c-.022 1.437-.058 1.788-.269 2.638-.456 1.831-1.44 2.816-3.272 3.272-1.066.266-.943.26-5.688.26s-4.622.006-5.688-.26c-2.084-.519-3.072-1.709-3.455-4.16-.046-.297-.072-.803-.086-1.73l-.02-1.31h1.623c2.297 0 2.111-.104 3.009 1.685l.589 1.174.344.342c.259.258.418.378.644.489.563.276.603.28 2.733.299 2.428.022 2.818-.017 3.387-.343.681-.39.861-.622 1.564-2.016.307-.611.611-1.17.675-1.242.142-.162.461-.34.69-.386.094-.018.862-.035 1.706-.038l1.534-.004-.02 1.33" fill-rule="evenodd" fill="#000"/></svg>