<svg width="24" height="24" fill="none" xmlns="http://www.w3.org/2000/svg"><path d="M8.212 1.282c-2.42.163-3.569 1.073-3.894 3.084-.033.204-.054 1.372-.067 3.805l-.019 3.512-.206.104c-.986.499-1.526 1.323-1.704 2.599-.123.877-.083 4.106.06 4.911.155.876.487 1.569.998 2.086.821.832 1.962 1.227 3.855 1.337.89.052 8.48.05 9.339-.002 1.678-.101 2.864-.552 3.728-1.416.488-.488.826-1.051 1.072-1.786.2-.599.298-1.164.35-2.024.05-.819.022-2.619-.048-3.122-.175-1.258-.721-2.087-1.702-2.583l-.206-.104-.019-3.512c-.013-2.433-.034-3.601-.067-3.805-.218-1.349-.767-2.142-1.82-2.629-.545-.252-1.205-.392-2.145-.456-.661-.046-6.83-.045-7.505.001m7.813 1.521c.985.109 1.634.413 1.917.897.054.092.138.309.187.483.088.315.089.343.102 3.73l.012 3.413-.231-.03a10.972 10.972 0 0 0-.912-.027c-1.424.005-1.843.206-3.073 1.474-.657.679-.738.748-1.04.897a2.24 2.24 0 0 1-2.342-.217c-.102-.075-.444-.417-.761-.759-.794-.857-1.29-1.189-1.987-1.329-.343-.069-1.491-.092-1.909-.039l-.231.03.012-3.413c.013-3.387.014-3.415.102-3.73.108-.384.231-.601.452-.801.307-.278.92-.499 1.597-.577.45-.052 7.642-.054 8.105-.002M7.9 12.899c.184.092.352.236.719.62 1.166 1.219 1.458 1.429 2.375 1.71.314.096.406.105 1.006.105.603 0 .691-.009 1.012-.107.426-.13.837-.329 1.164-.563.134-.096.568-.506.964-.912.929-.952.955-.966 1.793-.986 1.586-.039 2.628.284 3.009.934.054.092.138.309.187.483.085.304.088.385.09 2.037.001 1.83-.01 1.98-.206 2.657-.374 1.301-1.211 1.986-2.793 2.289-.225.043-1.276.054-5.34.054-4.697 0-5.091-.005-5.489-.072-.951-.161-1.537-.404-1.931-.804-.273-.277-.428-.565-.543-1.016-.139-.538-.163-1.038-.147-2.977.014-1.756.019-1.867.102-2.168.153-.55.393-.847.864-1.067.549-.257 1.163-.352 2.204-.343.713.007.722.008.96.126" fill-rule="evenodd" fill="#000"/></svg>