<svg width="24" height="24" fill="none" xmlns="http://www.w3.org/2000/svg"><path d="M5.42 2.284c-1.615.217-2.967 1.412-3.356 2.966a4.002 4.002 0 0 0 .176 2.427c.165.397 6.317 12.064 6.519 12.363.569.842 1.481 1.433 2.536 1.641.33.065 1.148.056 1.485-.017 1.034-.223 1.9-.794 2.461-1.624.296-.437 6.438-12.141 6.581-12.54.181-.505.234-.883.207-1.491-.046-1.054-.465-1.949-1.257-2.689a3.79 3.79 0 0 0-2.652-1.052c-.885-.002-1.147.091-3.396 1.211-1.003.5-1.923.943-2.044.984-.309.107-1.049.108-1.36.001-.121-.042-.985-.457-1.92-.924-1.813-.905-2.262-1.104-2.702-1.196-.382-.079-.942-.106-1.278-.06M6.462 3.82c.136.035 1.086.479 2.218 1.038C11.022 6.015 11.037 6.02 12 6.02c.963 0 .978-.005 3.32-1.162 1.132-.559 2.082-1.003 2.218-1.038a2.849 2.849 0 0 1 1.156.003c.643.166 1.304.705 1.598 1.302.291.592.34 1.24.139 1.82-.102.291-6.169 11.863-6.419 12.243-.302.458-.863.847-1.43.991a2.924 2.924 0 0 1-1.164 0c-.566-.144-1.127-.532-1.43-.991C9.74 18.814 3.675 7.25 3.57 6.951c-.206-.583-.155-1.25.14-1.84.283-.566.928-1.097 1.55-1.276.304-.088.885-.095 1.202-.015" fill-rule="evenodd" fill="#000"/></svg>