<svg width="24" height="24" fill="none" xmlns="http://www.w3.org/2000/svg"><path d="M11.787 1.278a.659.659 0 0 0-.447.326c-.078.132-.08.219-.092 2.851l-.011 2.715-.452-.442c-.508-.496-.648-.568-.95-.487-.221.06-.534.373-.594.594-.094.349-.066.388 1.173 1.643.619.628 1.189 1.177 1.266 1.219.19.105.468.102.643-.007.075-.047.644-.595 1.263-1.218 1.241-1.247 1.268-1.284 1.173-1.637-.06-.221-.373-.534-.594-.594-.302-.081-.442-.009-.951.489l-.454.443-.002-2.597c-.001-1.428-.017-2.674-.035-2.77-.079-.408-.458-.621-.936-.528M6.94 3.391c-.306.029-1.166.231-1.594.374-.918.307-1.592.715-2.23 1.352a6.248 6.248 0 0 0-.635.739c-.415.62-.746 1.433-.942 2.311-.239 1.073-.298 2.05-.298 4.953.001 3.284.091 4.243.519 5.53.607 1.819 1.771 2.982 3.596 3.592.835.279 1.642.415 2.837.478.969.051 6.645.051 7.614 0 1.195-.063 2.002-.199 2.837-.478 2.322-.776 3.581-2.445 3.978-5.269.098-.699.137-1.815.137-3.893-.001-3.215-.075-4.16-.428-5.42-.299-1.067-.734-1.831-1.447-2.543-.827-.825-1.812-1.322-3.204-1.616-.529-.111-.872-.133-1.046-.066-.173.066-.315.292-.365.578-.037.221-.034.283.027.442.1.261.276.351.944.482 2.071.409 3.167 1.367 3.682 3.221.226.813.283 1.33.307 2.772l.021 1.31-1.795.001c-.987 0-1.921.018-2.075.04-.375.053-.748.24-1.007.505-.177.181-.307.41-.891 1.573-.376.748-.736 1.42-.8 1.493a1.481 1.481 0 0 1-.329.25l-.213.118-2.065.011c-2.013.011-2.07.01-2.289-.072-.419-.157-.504-.278-1.268-1.803-.606-1.207-.714-1.397-.902-1.585a1.8 1.8 0 0 0-.976-.489c-.151-.024-1.018-.042-2.075-.042H2.75l.022-1.31c.024-1.395.064-1.807.252-2.57.242-.978.586-1.643 1.128-2.175.66-.649 1.424-1.014 2.608-1.248.83-.163.984-.29.976-.802-.007-.511-.307-.791-.796-.744m.28 11.724c.374.734.753 1.432.843 1.551.231.306.584.593.957.776.592.291.581.29 2.693.308 2.405.021 2.797-.019 3.367-.343.691-.394.828-.578 1.68-2.252l.7-1.375 1.895-.01 1.894-.011-.02 1.311c-.022 1.416-.059 1.772-.269 2.618-.544 2.188-1.876 3.209-4.557 3.494-.792.084-8.014.084-8.806 0-2.695-.287-4.034-1.324-4.572-3.542-.195-.803-.232-1.179-.254-2.57l-.02-1.311 1.894.011 1.895.01.68 1.335" fill-rule="evenodd" fill="#000"/></svg>