<svg width="24" height="24" fill="none" xmlns="http://www.w3.org/2000/svg"><path d="M11.32 1.281c-4.279.244-8.068 3.128-9.477 7.216a10.886 10.886 0 0 0-.279 6.053 10.76 10.76 0 0 0 7.886 7.886 10.96 10.96 0 0 0 5.1 0 10.76 10.76 0 0 0 7.886-7.886 10.96 10.96 0 0 0 0-5.1 10.758 10.758 0 0 0-8.694-8.052c-.408-.067-1.668-.169-1.862-.151l-.56.034m1.826 1.541a9.086 9.086 0 0 1 2.914.874c2.817 1.383 4.708 4.026 5.118 7.158.123.932.066 2.172-.144 3.144-.289 1.345-1.031 2.857-1.913 3.902a9.31 9.31 0 0 1-3.061 2.404 8.94 8.94 0 0 1-4.06.936 8.93 8.93 0 0 1-4.06-.936c-2.817-1.383-4.708-4.026-5.118-7.158-.123-.932-.066-2.172.144-3.144.211-.982.737-2.227 1.302-3.082a9.335 9.335 0 0 1 6.552-4.097c.56-.077 1.749-.077 2.326-.001M14.8 8.245c-.11.032-.83.73-3.327 3.228-3.502 3.502-3.334 3.31-3.232 3.692.06.221.373.534.594.594.381.102.196.263 3.637-3.172 1.723-1.72 3.171-3.189 3.218-3.264a.629.629 0 0 0-.033-.692c-.229-.325-.557-.472-.857-.386m-5.758.327c-.194.062-.429.31-.482.509-.025.092-.045.28-.045.419 0 .36.065.56.238.733.179.179.385.247.747.247.359 0 .568-.068.74-.24.172-.172.24-.381.24-.74a1.89 1.89 0 0 0-.049-.434.831.831 0 0 0-.497-.497c-.198-.059-.702-.057-.892.003m5 5c-.194.062-.429.31-.482.509-.025.092-.045.28-.045.419 0 .36.065.56.238.733.179.179.385.247.747.247.359 0 .568-.068.74-.24.172-.172.24-.381.24-.74a1.89 1.89 0 0 0-.049-.434.831.831 0 0 0-.497-.497c-.198-.059-.702-.057-.892.003" fill-rule="evenodd" fill="#000"/></svg>