<svg width="24" height="24" fill="none" xmlns="http://www.w3.org/2000/svg"><path d="M18.193 1.259c-.368.06-10.39 2.565-10.833 2.708-1.218.392-2.524 1.559-3.149 2.813a5.081 5.081 0 0 0-.244.58C3.872 7.654 1.405 17.474 1.294 18c-.055.259-.072.516-.07 1.08.001.67.011.777.106 1.128.192.712.603 1.37 1.121 1.794.321.262.956.573 1.389.679.443.109 1.26.146 1.786.081.501-.063 10.831-2.638 11.251-2.806 1.404-.559 2.737-1.977 3.174-3.376.11-.351 2.539-10.031 2.655-10.58.111-.526.101-1.659-.018-2.138-.323-1.287-1.255-2.224-2.532-2.545-.44-.11-1.456-.14-1.963-.058m1.476 1.484c.795.164 1.353.68 1.557 1.437.085.315.109.844.056 1.24-.048.366-2.531 10.367-2.679 10.793-.167.481-.495.965-.981 1.447-.514.51-.957.797-1.502.973-.413.134-10.309 2.595-10.628 2.643-1.38.209-2.419-.342-2.714-1.441-.089-.328-.114-.852-.061-1.255.051-.39 2.583-10.543 2.717-10.893.335-.882 1.372-1.919 2.252-2.253.263-.1 10.297-2.624 10.714-2.695a3.72 3.72 0 0 1 1.269.004m-8.5 5.098c-1.622.351-2.856 1.518-3.277 3.099-.096.357-.107.472-.107 1.06 0 .591.011.702.107 1.059a4.291 4.291 0 0 0 3.049 3.048c.356.096.47.107 1.059.107s.703-.011 1.059-.107a4.287 4.287 0 0 0 3.048-3.048c.096-.356.107-.47.107-1.059s-.011-.703-.107-1.059a4.282 4.282 0 0 0-3.048-3.046c-.558-.146-1.358-.169-1.89-.054m1.551 1.497c.742.201 1.416.769 1.758 1.482.205.427.261.678.261 1.18 0 .502-.056.753-.261 1.18a2.749 2.749 0 0 1-1.298 1.298c-.427.205-.678.261-1.18.261-.502 0-.753-.056-1.18-.261a2.749 2.749 0 0 1-1.298-1.298c-.205-.427-.261-.678-.261-1.18 0-.502.056-.753.261-1.18.357-.744 1.099-1.348 1.838-1.495.121-.024.256-.053.3-.063.147-.034.837.016 1.06.076" fill-rule="evenodd" fill="#000"/></svg>