<svg width="24" height="24" fill="none" xmlns="http://www.w3.org/2000/svg"><path d="M11.45 1.338c-.553.126-.708.238-1.75 1.265-.528.521-1.023.98-1.1 1.022-.127.068-.274.077-1.56.1-1.572.027-1.63.035-2.12.305-.483.266-.95.844-1.123 1.39-.035.11-.058.605-.074 1.58-.023 1.397-.025 1.423-.118 1.6-.057.107-.472.562-1.021 1.12-.985 1-1.114 1.172-1.244 1.663-.037.14-.064.402-.064.638 0 .482.12.915.349 1.259.081.121.55.626 1.042 1.123.759.766.907.935.974 1.111.072.189.079.31.079 1.439 0 .706.018 1.334.043 1.47.067.371.286.782.582 1.096.301.319.553.492.928.635.263.101.286.103 1.687.124 1.251.019 1.439.031 1.579.094.102.046.494.402 1.08.983.984.973 1.195 1.134 1.68 1.282.35.108.937.117 1.308.022.506-.131.666-.25 1.673-1.243.565-.557 1.012-.965 1.12-1.021.177-.093.207-.095 1.6-.118.975-.016 1.47-.039 1.58-.074.546-.173 1.119-.636 1.391-1.125.26-.469.281-.617.306-2.158.021-1.243.03-1.394.098-1.52.041-.077.475-.545.964-1.04s.943-.981 1.008-1.08c.487-.741.49-1.775.009-2.523-.098-.152-.52-.615-1.036-1.137-.479-.484-.904-.943-.945-1.02-.068-.126-.077-.28-.099-1.54-.022-1.278-.032-1.423-.109-1.66a2.476 2.476 0 0 0-1.607-1.581c-.185-.059-.442-.074-1.62-.095-1.26-.022-1.414-.031-1.54-.099-.077-.041-.536-.466-1.02-.945-.937-.927-1.221-1.147-1.657-1.284-.343-.107-.937-.134-1.273-.058m.929 1.531c.067.034.544.478 1.061.988 1.003.989 1.126 1.08 1.7 1.266.262.084.371.092 1.683.114l1.403.023.146.111c.08.061.196.177.257.257l.111.146.023 1.403c.021 1.316.028 1.42.114 1.683.187.575.277.697 1.266 1.7.51.517.954.994.987 1.06.094.19.116.398.065.607-.043.176-.126.272-.956 1.113-.934.945-1.11 1.167-1.293 1.626-.156.394-.184.695-.185 1.985-.001.966-.012 1.198-.063 1.32a.805.805 0 0 1-.398.423c-.153.082-.224.087-1.56.106-1.393.021-1.402.021-1.693.128-.523.19-.7.325-1.668 1.28-.581.574-.975.931-1.068.97a.954.954 0 0 1-.66.001c-.093-.039-.495-.406-1.089-.994-.885-.877-.962-.943-1.282-1.099-.561-.273-.656-.286-2.058-.286-.752 0-1.302-.017-1.395-.043a.936.936 0 0 1-.312-.187c-.3-.271-.293-.226-.316-1.81l-.021-1.42-.123-.321a3.709 3.709 0 0 0-.234-.5c-.061-.099-.522-.593-1.024-1.1-.58-.585-.936-.975-.975-1.069a.951.951 0 0 1 0-.661c.039-.093.396-.487.97-1.068.955-.968 1.09-1.145 1.28-1.668.106-.291.107-.301.128-1.693.014-.91.037-1.436.067-1.502.068-.154.247-.352.388-.429.109-.06.308-.072 1.525-.093 1.563-.027 1.577-.029 2.16-.328.286-.147.421-.264 1.266-1.099.776-.767.978-.945 1.12-.991a.942.942 0 0 1 .653.051M14.8 8.245c-.11.032-.83.73-3.327 3.228-3.502 3.502-3.334 3.31-3.232 3.692.06.221.373.534.594.594.381.102.196.263 3.637-3.172 1.723-1.72 3.171-3.189 3.218-3.264a.629.629 0 0 0-.033-.692c-.229-.325-.557-.472-.857-.386m-5.758.327c-.194.062-.429.31-.482.509-.025.092-.045.28-.045.419 0 .36.065.56.238.733.179.179.385.247.747.247.359 0 .568-.068.74-.24.172-.172.24-.381.24-.74a1.89 1.89 0 0 0-.049-.434.831.831 0 0 0-.497-.497c-.198-.059-.702-.057-.892.003m5 5c-.194.062-.429.31-.482.509-.025.092-.045.28-.045.419 0 .36.065.56.238.733.179.179.385.247.747.247.359 0 .568-.068.74-.24.172-.172.24-.381.24-.74a1.89 1.89 0 0 0-.049-.434.831.831 0 0 0-.497-.497c-.198-.059-.702-.057-.892.003" fill-rule="evenodd" fill="#000"/></svg>