<svg width="24" height="24" fill="none" xmlns="http://www.w3.org/2000/svg"><path d="M7 1.982c-1.058.227-2.083 1.003-2.561 1.938-.13.255-2.696 8.083-2.759 8.415a3.11 3.11 0 0 0 .076 1.266c.217.693.782 1.286 1.503 1.574.518.207.761.225 3.106.225 2.102 0 2.157.002 2.235.08.044.044.08.124.08.177 0 .053-.12.85-.266 1.77-.312 1.968-.329 2.25-.157 2.753.188.552.545 1.063.955 1.368.932.692 2.108.723 3.136.082.366-.228.551-.456 1.409-1.733l1.516-2.252.738-1.095.134.288c.177.384.567.778.949.959.479.229.863.282 2.026.282 1.163 0 1.547-.053 2.026-.282.365-.173.771-.575.933-.923.279-.599.259-.153.273-6.114.009-3.858-.001-5.471-.033-5.7-.15-1.056-.684-1.668-1.699-1.947-.294-.08-.414-.088-1.46-.09-1.293-.003-1.542.031-2.08.287-.361.172-.739.53-.883.838-.053.115-.109.205-.124.2a57.769 57.769 0 0 1-1.21-.928c-.652-.506-1.287-.978-1.414-1.05-.286-.161-.755-.32-1.159-.392-.451-.08-4.913-.077-5.29.004m5.052 1.475c.536.103.653.177 2.283 1.442l1.545 1.2v7.966l-2.041 3.037c-1.123 1.67-2.098 3.095-2.166 3.165-.202.209-.481.311-.853.312-.281.001-.346-.013-.535-.118a1.399 1.399 0 0 1-.544-.577c-.138-.27-.122-.497.16-2.284.319-2.027.327-2.244.1-2.704a1.814 1.814 0 0 0-.83-.828L8.9 13.94l-2.42-.021c-2.392-.021-2.423-.022-2.645-.111a1.186 1.186 0 0 1-.604-.54c-.07-.132-.089-.232-.086-.468.002-.283.074-.519 1.283-4.18.704-2.134 1.326-3.97 1.383-4.08.241-.472.853-.929 1.449-1.082.306-.078 4.382-.079 4.792-.001m8.295 1.119c.23.073.376.216.46.453.08.229.078 10.798-.003 11.031-.091.263-.189.368-.415.447-.182.064-.346.073-1.269.073-1.389 0-1.518-.04-1.684-.52-.081-.233-.083-10.802-.003-11.031.168-.473.443-.552 1.847-.531.652.01.91.029 1.067.078" fill-rule="evenodd" fill="#000"/></svg>