<svg width="24" height="24" fill="none" xmlns="http://www.w3.org/2000/svg"><path d="M3 1.287c-.748.107-1.425.725-1.656 1.51-.052.176-.064.429-.064 1.334 0 1.216.02 1.37.239 1.852.197.435.407.688 1.741 2.094.718.757 1.347 1.432 1.396 1.5.05.067.134.222.187.343l.097.22.023 2.12c.026 2.39.017 2.323.342 2.847.409.662 1.088 1.003 1.915.963.51-.025.663-.086 1.435-.578.852-.542 1.119-.838 1.35-1.492.089-.252.093-.313.114-2.061l.021-1.801.13-.264c.123-.25.203-.328 1.64-1.591.871-.767 1.6-1.44 1.723-1.593a4.15 4.15 0 0 0 .628-1.23c.089-.323.129-1.853.062-2.361-.126-.949-.85-1.689-1.776-1.816-.393-.054-9.167-.05-9.547.004m13.577.274c-.32.158-.471.675-.307 1.046.108.243.279.32 1.01.451 1.503.27 2.09.554 2.767 1.334.512.591.857 1.421 1.049 2.528.138.801.15 1.278.135 5.4-.017 4.458-.01 4.318-.271 5.368-.456 1.831-1.44 2.816-3.272 3.272-1.066.266-.943.26-5.688.26-3.936 0-4.339-.006-4.76-.072-2.484-.387-3.664-1.353-4.196-3.436-.238-.934-.256-1.163-.281-3.672-.022-2.206-.026-2.306-.103-2.436-.161-.273-.478-.396-.845-.327a.646.646 0 0 0-.475.327c-.076.129-.081.221-.093 1.716-.02 2.398.07 3.689.328 4.707.557 2.197 1.762 3.54 3.781 4.215.835.279 1.642.415 2.837.478.969.051 6.645.051 7.614 0 1.195-.063 2.002-.199 2.837-.478 2.318-.775 3.575-2.437 3.977-5.256.119-.834.147-2.087.128-5.619-.016-2.924-.029-3.555-.086-4.027-.245-2.029-.879-3.456-1.968-4.434-.306-.275-.934-.682-1.267-.82-.37-.154-1.204-.373-1.921-.505-.666-.122-.722-.123-.93-.02M12.55 2.84a.75.75 0 0 1 .21.21c.073.12.08.203.08 1.056 0 1.043-.023 1.156-.312 1.561-.088.124-.767.753-1.688 1.565-1.8 1.587-1.865 1.665-2.129 2.546-.078.263-.085.397-.101 2.026-.02 2.081.02 1.916-.57 2.308-.613.407-.766.487-.932.488-.201 0-.453-.133-.549-.292-.075-.122-.079-.212-.079-1.969 0-1.013-.018-1.987-.041-2.165-.069-.557-.336-1.199-.665-1.603a82.084 82.084 0 0 0-1.44-1.54C3.202 5.84 3.013 5.623 2.896 5.381l-.136-.279V4.17c0-.86.006-.946.082-1.093a.69.69 0 0 1 .21-.238c.125-.077.232-.079 4.748-.079 4.54 0 4.622.002 4.75.08m.237 9.438c-.342.068-.519.314-.519.722 0 .462.207.692.663.74.137.014 1.392.02 2.789.013 2.456-.013 2.544-.016 2.676-.093a.646.646 0 0 0 .327-.475c.069-.367-.054-.684-.327-.845-.132-.078-.214-.08-2.796-.086-1.463-.004-2.729.007-2.813.024m-2 4c-.342.068-.519.314-.519.722 0 .462.207.693.663.739.137.014 1.842.02 3.789.013 3.456-.012 3.543-.014 3.676-.092.273-.161.396-.478.327-.845a.646.646 0 0 0-.327-.475c-.133-.078-.214-.08-3.796-.086-2.013-.003-3.729.008-3.813.024" fill-rule="evenodd" fill="#000"/></svg>