<svg width="24" height="24" fill="none" xmlns="http://www.w3.org/2000/svg"><path d="M8.08 1.282c-4.072.213-6.185 2.014-6.697 5.709-.113.812-.141 1.825-.141 5.009s.028 4.197.141 5.009c.384 2.775 1.665 4.461 3.973 5.233.835.279 1.642.415 2.837.478.969.051 6.645.051 7.614 0 1.195-.063 2.002-.199 2.837-.478 2.322-.776 3.581-2.445 3.978-5.269.102-.727.135-1.815.139-4.531.004-2.188-.005-2.655-.052-2.744-.03-.058-1.917-1.968-4.192-4.243-3.29-3.29-4.165-4.145-4.277-4.176-.164-.045-5.274-.043-6.16.003m5.16 3.088c.001 1.741.043 2.702.142 3.233.329 1.763 1.25 2.684 3.018 3.015.521.098 1.505.141 3.253.141l1.592.001-.015 2.81c-.018 3.069-.021 3.114-.27 4.118-.456 1.831-1.44 2.816-3.272 3.272-1.066.266-.943.26-5.688.26-3.936 0-4.339-.006-4.76-.072-2.79-.435-3.957-1.597-4.386-4.368-.069-.445-.074-.791-.074-4.78 0-3.989.005-4.335.074-4.78.375-2.423 1.334-3.614 3.346-4.155.999-.268 1.366-.293 4.43-.3l2.61-.005v1.61m5.51 4.861c-1.125.009-1.499-.002-1.85-.053-1.229-.177-1.728-.571-1.981-1.563-.133-.518-.159-.91-.159-2.374V3.82l2.7 2.7 2.7 2.7-1.41.011m-9.963 1.047a.659.659 0 0 0-.447.326c-.077.131-.08.219-.092 2.351l-.012 2.214-.451-.441c-.508-.496-.648-.568-.95-.487-.221.06-.534.373-.594.594-.094.349-.066.388 1.173 1.643.619.628 1.189 1.177 1.266 1.219.19.105.468.102.643-.007.075-.047.644-.595 1.263-1.218 1.241-1.247 1.268-1.284 1.173-1.637-.06-.221-.373-.534-.594-.594-.302-.081-.442-.009-.951.489l-.454.443-.002-2.097c-.001-1.153-.017-2.174-.035-2.27-.079-.408-.458-.621-.936-.528" fill-rule="evenodd" fill="#000"/></svg>