<svg width="24" height="24" fill="none" xmlns="http://www.w3.org/2000/svg"><path d="M9.595 1.282a3.765 3.765 0 0 0-2.564 1.437c-.238.313-.563.968-.649 1.306-.088.349-.143.964-.104 1.169.068.362.304.538.722.538.472 0 .696-.208.737-.683.044-.499.1-.742.242-1.041.18-.378.607-.819.971-1.003.494-.249.434-.245 3.493-.245h2.786l.024 1.53c.026 1.589.054 1.9.222 2.444.271.877.849 1.468 1.73 1.768.553.188.904.223 2.525.247l1.51.022v2.866c0 2.461-.009 2.9-.062 3.105-.111.426-.398.835-.786 1.121-.313.23-.598.33-1.085.38-.477.049-.633.114-.756.311-.074.118-.091.204-.091.446 0 .539.218.737.805.73 1.587-.021 2.968-1.116 3.372-2.672.1-.385.121-1.088.124-4.088.003-2.984-.001-3.172-.069-3.297-.04-.073-1.476-1.53-3.192-3.238-2.899-2.884-3.133-3.107-3.3-3.147-.217-.051-6.136-.057-6.605-.006m9.715 5.949c-1.866.025-2.325-.23-2.508-1.391-.023-.143-.042-.656-.042-1.14v-.88l1.7 1.7 1.7 1.7-.85.011M6.765 6.283c-2.662.17-4.286 1.185-5.018 3.137-.259.691-.403 1.445-.466 2.44-.053.828-.053 4.452 0 5.28.194 3.06 1.346 4.673 3.799 5.318.941.247 1.739.302 4.42.302s3.479-.055 4.42-.302c1.939-.51 3.028-1.599 3.538-3.538.237-.9.298-1.716.305-4.065.004-1.36-.005-1.664-.053-1.755-.031-.06-1.558-1.611-3.393-3.445-2.648-2.648-3.365-3.345-3.476-3.376-.166-.046-3.339-.043-4.076.004M9.851 9.39c.024 1.714.054 2.052.233 2.632.296.962.932 1.598 1.894 1.894.58.18.918.209 2.636.233l1.633.022-.017 1.705c-.019 1.823-.039 2.042-.249 2.785a5.5 5.5 0 0 1-.307.773c-.169.339-.262.47-.516.724a2.244 2.244 0 0 1-.724.516c-.447.222-.912.369-1.514.477-.337.061-.724.069-3.42.069-2.696 0-3.083-.008-3.42-.069-.604-.108-1.068-.255-1.519-.48-.341-.17-.474-.264-.721-.511-.484-.484-.806-1.212-.991-2.24-.061-.337-.069-.724-.069-3.42 0-2.696.008-3.083.069-3.42.108-.604.255-1.068.48-1.519.171-.343.263-.473.511-.72.46-.457 1.104-.762 1.985-.94.545-.11.914-.13 2.48-.136l1.524-.005.022 1.63m4.321 3.241c-1.417.015-1.957-.094-2.333-.47-.371-.371-.479-.897-.479-2.336V8.82l1.9 1.9 1.9 1.9-.988.011" fill-rule="evenodd" fill="#000"/></svg>