<svg width="24" height="24" fill="none" xmlns="http://www.w3.org/2000/svg"><path d="M7.4 1.282c-2.75.177-4.52 1.653-5.003 4.172-.136.711-.162 1.633-.149 5.306.012 3.416.014 3.503.092 3.636a.646.646 0 0 0 .475.327c.367.069.684-.054.845-.327.078-.133.081-.229.102-4.256l.023-4.12.104-.425c.194-.79.469-1.313.931-1.775.468-.468.992-.741 1.795-.933l.445-.107h9.88l.445.107c.803.192 1.327.465 1.795.933.468.468.741.992.933 1.795l.107.445v11.88l-.107.445c-.365 1.524-1.19 2.355-2.708 2.725l-.425.104-3.12.023c-3.026.022-3.124.025-3.256.103-.273.161-.396.478-.327.845a.646.646 0 0 0 .327.475c.131.077.22.08 2.656.092 2.549.012 3.552-.019 4.181-.129 1.458-.257 2.597-.945 3.318-2.004.586-.86.878-1.803.961-3.093.052-.826.052-10.226 0-11.052-.083-1.29-.375-2.233-.961-3.093-.273-.4-.563-.71-.914-.975-.95-.718-1.875-1.031-3.325-1.126-.671-.044-8.434-.043-9.12.002m6.776 2.519a.607.607 0 0 0-.375.394c-.067.239-.051 2.57.019 2.905.161.768.74 1.498 1.48 1.863.522.259.722.283 2.217.269 1.193-.011 1.313-.018 1.428-.087.209-.127.275-.282.275-.645 0-.363-.066-.518-.275-.645-.114-.068-.243-.077-1.425-.095-1.3-.02-1.3-.02-1.52-.125A1.324 1.324 0 0 1 15.365 7c-.105-.22-.105-.22-.125-1.52-.022-1.437-.027-1.464-.291-1.62-.141-.083-.586-.117-.773-.059M3.8 16.245c-.106.031-.429.33-1.327 1.228-1.31 1.31-1.327 1.334-1.231 1.697.039.148.2.326 1.231 1.357 1.308 1.307 1.336 1.328 1.692 1.232.221-.06.534-.373.594-.594.091-.339.04-.417-.871-1.335L3.064 19l.824-.83c.698-.703.831-.856.87-1.001.137-.51-.446-1.072-.958-.924m3.006 0c-.193.057-.51.389-.565.59-.091.339-.04.417.871 1.335l.824.83-.824.83c-.911.918-.962.996-.871 1.335.06.221.373.534.594.594.356.096.384.075 1.692-1.232 1.031-1.031 1.192-1.209 1.231-1.357.095-.359.071-.392-1.172-1.642-.619-.623-1.18-1.166-1.246-1.207a.69.69 0 0 0-.534-.076" fill-rule="evenodd" fill="#000"/></svg>