<svg width="24" height="24" fill="none" xmlns="http://www.w3.org/2000/svg"><path d="M8.08 1.282c-4.072.213-6.185 2.014-6.697 5.709-.113.812-.141 1.825-.141 5.009s.028 4.197.141 5.009c.384 2.775 1.665 4.461 3.973 5.233.835.279 1.642.415 2.837.478.969.051 6.645.051 7.614 0 1.195-.063 2.002-.199 2.837-.478 2.322-.776 3.581-2.445 3.978-5.269.102-.727.135-1.815.139-4.531.004-2.188-.005-2.655-.052-2.744-.03-.058-1.917-1.968-4.192-4.243-3.29-3.29-4.165-4.145-4.277-4.176-.164-.045-5.274-.043-6.16.003m5.16 3.088c.001 1.741.043 2.702.142 3.233.329 1.763 1.25 2.684 3.018 3.015.521.098 1.505.141 3.253.141l1.592.001-.015 2.81c-.018 3.069-.021 3.114-.27 4.118-.456 1.831-1.44 2.816-3.272 3.272-1.066.266-.943.26-5.688.26-3.936 0-4.339-.006-4.76-.072-2.79-.435-3.957-1.597-4.386-4.368-.069-.445-.074-.791-.074-4.78 0-3.989.005-4.335.074-4.78.375-2.423 1.334-3.614 3.346-4.155.999-.268 1.366-.293 4.43-.3l2.61-.005v1.61m5.51 4.861c-1.125.009-1.499-.002-1.85-.053-1.229-.177-1.728-.571-1.981-1.563-.133-.518-.159-.91-.159-2.374V3.82l2.7 2.7 2.7 2.7-1.41.011M8.069 11.282a2.073 2.073 0 0 0-.871.424c-.228.205-1.486 2.097-1.577 2.372-.053.16-.066.303-.054.599.013.343.031.422.15.666.121.25.269.412 1.519 1.661 1.223 1.223 1.415 1.4 1.647 1.512.49.238 1.024.238 1.514 0 .232-.112.424-.289 1.647-1.512 1.25-1.249 1.398-1.411 1.519-1.661.119-.244.137-.323.15-.666.012-.296-.001-.439-.054-.599-.091-.276-1.349-2.165-1.584-2.381a1.756 1.756 0 0 0-.878-.415c-.298-.048-2.842-.049-3.128 0m3.039 1.568c.159.175 1.132 1.67 1.132 1.739 0 .086-2.514 2.611-2.6 2.611-.085 0-2.6-2.525-2.6-2.611 0-.069.972-1.563 1.132-1.739l.082-.09h2.772l.082.09" fill-rule="evenodd" fill="#000"/></svg>