<svg width="24" height="24" fill="none" xmlns="http://www.w3.org/2000/svg"><path d="M7.4 1.282c-1.888.121-3.298.834-4.163 2.104-.584.859-.874 1.796-.957 3.088-.052.826-.052 10.226 0 11.052.083 1.29.375 2.233.961 3.093.602.884 1.502 1.516 2.62 1.84.958.278 1.398.299 6.139.299 3.92 0 4.791-.021 5.441-.135 2.262-.397 3.705-1.81 4.158-4.068.141-.705.161-1.493.161-6.555 0-5.074-.019-5.847-.163-6.566-.257-1.291-.882-2.371-1.752-3.028-.95-.718-1.875-1.031-3.325-1.126-.671-.044-8.434-.043-9.12.002m10.005 1.606c.792.196 1.314.47 1.775.932.468.468.741.992.933 1.795l.107.445v11.88l-.107.445c-.192.803-.465 1.327-.933 1.795-.468.468-.992.741-1.795.933l-.445.107H7.06l-.445-.107c-1.523-.365-2.349-1.185-2.727-2.708l-.105-.425-.014-5.72c-.009-3.805.001-5.842.028-6.083C4.024 4.206 5.14 3.06 7.08 2.803c.143-.019 2.429-.031 5.08-.027l4.82.007.425.105m-3.229.913a.607.607 0 0 0-.375.394c-.067.239-.051 2.57.019 2.905.161.768.74 1.498 1.48 1.863.522.259.722.283 2.217.269 1.193-.011 1.313-.018 1.428-.087.209-.127.275-.282.275-.645 0-.363-.066-.518-.275-.645-.114-.068-.243-.077-1.425-.095-1.3-.02-1.3-.02-1.52-.125A1.324 1.324 0 0 1 15.365 7c-.105-.22-.105-.22-.125-1.52-.022-1.437-.027-1.464-.291-1.62-.141-.083-.586-.117-.773-.059m-3.01 8.245c-.278.033-.703.164-.821.253-.066.051-.098.046-.269-.041a2.137 2.137 0 0 0-.989-.218c-.677 0-1.185.213-1.667.698-.532.536-.784 1.173-.79 2.002-.008.953.381 1.823 1.17 2.621.587.593 1.212 1.005 1.86 1.226.595.203.931.163 1.68-.202 1.571-.765 2.581-2.182 2.58-3.62-.001-1.116-.544-2.065-1.42-2.484-.466-.222-.856-.291-1.334-.235m-1.795 1.53c.071.03.228.157.349.281.144.147.271.239.37.266.267.072.559-.057.812-.358.265-.316.725-.327 1.117-.029.176.135.331.446.388.777.064.373.008.669-.215 1.127-.291.6-1.04 1.253-1.744 1.521l-.2.075-.333-.161c-1.061-.513-1.796-1.468-1.795-2.332.002-.688.413-1.217.951-1.221a.876.876 0 0 1 .3.054" fill-rule="evenodd" fill="#000"/></svg>