<svg width="24" height="24" fill="none" xmlns="http://www.w3.org/2000/svg"><path d="M8.08 1.282c-4.072.213-6.185 2.014-6.697 5.709-.113.812-.141 1.825-.141 5.009 0 4.504.06 5.273.518 6.65.772 2.314 2.446 3.576 5.268 3.972.585.082 1.914.146 2.142.104.217-.041.362-.126.455-.268.154-.235.147-.716-.015-.933-.17-.228-.268-.253-1.147-.289-3.274-.134-4.807-1.131-5.419-3.524-.268-1.049-.264-.959-.264-5.712 0-3.989.005-4.335.074-4.78.427-2.759 1.578-3.915 4.346-4.366.36-.058.823-.07 3.23-.084l2.81-.015v1.612c.001 1.744.043 2.705.142 3.236.329 1.763 1.25 2.684 3.018 3.015.521.098 1.505.141 3.25.141l1.59.001.002 1.13c.001.622.017 1.208.035 1.304.07.363.305.538.723.538s.654-.176.722-.538c.018-.096.036-.896.039-1.779.006-1.325-.003-1.624-.05-1.714-.032-.06-1.919-1.971-4.194-4.246-3.29-3.29-4.165-4.145-4.277-4.176-.164-.045-5.274-.043-6.16.003m10.67 7.949c-1.125.009-1.499-.002-1.85-.053-1.229-.177-1.728-.571-1.981-1.563-.133-.518-.159-.91-.159-2.374V3.82l2.7 2.7 2.7 2.7-1.41.011m-2.607 4.011c-1.505.236-2.698 1.189-3.155 2.518-.161.468-.202.793-.178 1.403l.022.545-.182.089c-.455.22-.891.663-1.128 1.144-.185.377-.256.703-.256 1.179 0 .495.072.812.28 1.238.205.419.681.896 1.094 1.096.608.294.454.281 3.68.296 1.81.009 3.054-.002 3.311-.027 1.265-.128 2.389-.93 2.851-2.036.312-.746.326-1.74.037-2.518-.349-.939-1.063-1.683-1.93-2.013-.225-.086-.231-.092-.295-.309a3.683 3.683 0 0 0-2.621-2.529c-.383-.095-1.166-.134-1.53-.076m1.087 1.498c.394.093.797.318 1.07.596.349.357.551.769.683 1.399.103.491.243.63.737.732.403.084.719.258.983.543.592.64.709 1.597.283 2.323-.133.227-.501.563-.762.695-.42.214-.376.211-3.624.211-2.951-.001-3.024-.003-3.2-.082a1.063 1.063 0 0 1-.639-.997c-.001-.336.052-.518.211-.729.154-.205.495-.391.715-.391.203 0 .539-.131.68-.267.218-.209.224-.38.033-1.033-.108-.371-.143-.894-.082-1.2a2.345 2.345 0 0 1 .976-1.426c.565-.366 1.338-.515 1.936-.374" fill-rule="evenodd" fill="#000"/></svg>