<svg width="24" height="24" fill="none" xmlns="http://www.w3.org/2000/svg"><path d="M8.08 1.282c-4.072.213-6.185 2.014-6.697 5.709-.113.812-.141 1.825-.141 5.009 0 4.504.06 5.273.518 6.65.772 2.313 2.446 3.576 5.267 3.972.759.106 1.875.137 4.973.137s4.214-.031 4.973-.137c2.47-.347 4.023-1.334 4.924-3.132.482-.96.741-2.121.823-3.683.051-.969.051-6.645 0-7.614-.063-1.195-.199-2.002-.478-2.837-.61-1.825-1.773-2.989-3.592-3.596-.862-.287-1.627-.416-2.844-.48-.854-.045-6.854-.043-7.726.002m8.72 1.572c2.786.462 3.914 1.6 4.348 4.386.066.421.072.824.072 4.76s-.006 4.339-.072 4.76c-.436 2.798-1.59 3.952-4.388 4.388-.421.066-.824.072-4.76.072s-4.339-.006-4.76-.072c-2.79-.435-3.957-1.597-4.386-4.368-.069-.445-.074-.791-.074-4.78 0-4.753-.004-4.663.264-5.712C3.557 4.282 4.722 3.274 6.96 2.9c.73-.123 1.088-.131 5.24-.123 3.763.007 4.222.014 4.6.077m-5.013 2.424a.653.653 0 0 0-.442.318c-.056.096-.08.238-.096.566l-.02.438-.465.001c-.255 0-.585.026-.734.058-.93.197-1.744.998-2.015 1.981-.053.191-.071.398-.069.78.004.905.182 1.392.698 1.907.374.373.715.55 1.756.907.385.132.732.253.77.268.065.025.07.144.07 1.722v1.696h-.195c-.501 0-.863-.145-1.169-.468-.278-.294-.393-.566-.456-1.08-.057-.466-.116-.586-.343-.702-.156-.08-.566-.095-.744-.027-.316.119-.442.425-.395.962.07.808.389 1.455.996 2.022.532.496 1.074.722 1.831.761l.464.023.021.433c.022.467.076.618.275.766.226.168.724.168.95 0 .2-.149.253-.299.276-.772l.02-.438.465-.001c.565-.001.934-.073 1.304-.257.566-.281.98-.7 1.264-1.282.225-.46.289-.808.262-1.42-.032-.719-.159-1.118-.505-1.581-.327-.438-.754-.677-1.971-1.101l-.83-.289V8.08l.23.001c.524.001.971.208 1.266.587.192.247.29.526.339.968.05.443.136.608.367.7.229.092.604.083.803-.019.256-.13.332-.346.302-.855-.04-.692-.241-1.222-.664-1.755-.557-.701-1.258-1.055-2.173-1.097l-.47-.021-.002-.304c-.003-.553-.089-.787-.342-.931-.144-.081-.427-.115-.629-.076M11.24 9.5c0 .905-.014 1.42-.039 1.42-.076 0-1.182-.408-1.33-.491-.29-.161-.433-.478-.439-.977-.007-.497.134-.82.486-1.117.21-.176.488-.252.932-.254l.39-.001V9.5m2.894 4.074c.232.137.33.277.411.592.171.669-.105 1.351-.658 1.622-.199.098-.283.113-.677.126l-.45.015v-2.877l.597.208c.328.115.678.256.777.314" fill-rule="evenodd" fill="#000"/></svg>