<svg width="24" height="24" fill="none" xmlns="http://www.w3.org/2000/svg"><path d="M11.32 1.281c-4.279.244-8.068 3.128-9.477 7.216a10.886 10.886 0 0 0-.279 6.053 10.76 10.76 0 0 0 7.886 7.886 10.96 10.96 0 0 0 5.1 0 10.76 10.76 0 0 0 7.886-7.886 10.96 10.96 0 0 0 0-5.1 10.758 10.758 0 0 0-8.694-8.052c-.408-.067-1.668-.169-1.862-.151l-.56.034m1.826 1.541a9.086 9.086 0 0 1 2.914.874c2.817 1.383 4.708 4.026 5.118 7.158.123.932.066 2.172-.144 3.144-.289 1.345-1.031 2.857-1.913 3.902a9.31 9.31 0 0 1-3.061 2.404 8.94 8.94 0 0 1-4.06.936 8.93 8.93 0 0 1-4.06-.936c-2.817-1.383-4.708-4.026-5.118-7.158-.123-.932-.066-2.172.144-3.144.211-.982.737-2.227 1.302-3.082a9.335 9.335 0 0 1 6.552-4.097c.56-.077 1.749-.077 2.326-.001m-1.359 2.456a.653.653 0 0 0-.442.318c-.056.096-.08.238-.096.566l-.02.438-.465.001c-.255 0-.585.026-.734.058-.93.197-1.744.998-2.015 1.981-.053.191-.071.398-.069.78.004.905.182 1.392.698 1.907.374.373.715.55 1.756.907.385.132.732.253.77.268.065.025.07.144.07 1.722v1.696h-.195c-.501 0-.863-.145-1.169-.468-.278-.294-.393-.566-.456-1.08-.057-.466-.116-.586-.343-.702-.156-.08-.566-.095-.744-.027-.316.119-.442.425-.395.962.07.808.389 1.455.996 2.022.532.496 1.074.722 1.831.761l.464.023.021.433c.022.467.076.618.275.766.226.168.724.168.95 0 .2-.149.253-.299.276-.772l.02-.438.465-.001c.565-.001.934-.073 1.304-.257.566-.281.98-.7 1.264-1.282.225-.46.289-.808.262-1.42-.032-.719-.159-1.118-.505-1.581-.327-.438-.754-.677-1.971-1.101l-.83-.289V8.08l.23.001c.524.001.971.208 1.266.587.192.247.29.526.339.968.05.443.136.608.367.7.229.092.604.083.803-.019.256-.13.332-.346.302-.855-.04-.692-.241-1.222-.664-1.755-.557-.701-1.258-1.055-2.173-1.097l-.47-.021-.002-.304c-.003-.553-.089-.787-.342-.931-.144-.081-.427-.115-.629-.076M11.24 9.5c0 .905-.014 1.42-.039 1.42-.076 0-1.182-.408-1.33-.491-.29-.161-.433-.478-.439-.977-.007-.497.134-.82.486-1.117.21-.176.488-.252.932-.254l.39-.001V9.5m2.894 4.074c.232.137.33.277.411.592.171.669-.105 1.351-.658 1.622-.199.098-.283.113-.677.126l-.45.015v-2.877l.597.208c.328.115.678.256.777.314" fill-rule="evenodd" fill="#000"/></svg>