<svg width="24" height="24" fill="none" xmlns="http://www.w3.org/2000/svg"><path d="M8.08 1.282c-4.072.213-6.185 2.014-6.697 5.709-.113.812-.141 1.825-.141 5.009s.028 4.197.141 5.009c.384 2.775 1.665 4.461 3.973 5.233 1.243.415 2.489.535 5.344.511 1.475-.012 1.567-.017 1.696-.093a.646.646 0 0 0 .327-.475c.069-.367-.054-.684-.327-.845-.13-.077-.232-.081-2.456-.104-2.519-.027-2.674-.039-3.628-.276-2.083-.518-3.064-1.699-3.456-4.16-.053-.332-.071-.801-.085-2.23l-.019-1.809 9.774-.011 9.774-.01.14-.087a.794.794 0 0 0 .22-.22c.076-.126.081-.216.093-1.713.022-2.886-.095-4.119-.511-5.364-.61-1.825-1.773-2.989-3.592-3.596-.862-.287-1.627-.416-2.844-.48-.854-.045-6.854-.043-7.726.002m8.72 1.572c2.773.46 3.901 1.588 4.344 4.346.053.333.071.793.085 2.23l.019 1.81H2.752l.019-1.81c.019-1.938.04-2.189.254-3.07.496-2.045 1.677-3.083 3.935-3.46.73-.123 1.088-.131 5.24-.123 3.763.007 4.222.014 4.6.077M5.601 5.588c-.201.104-.31.291-.342.583-.014.137-.02.717-.012 1.289.015 1.171.034 1.26.307 1.429.209.13.683.13.892 0 .284-.177.294-.23.294-1.649 0-1.188-.005-1.268-.08-1.396-.139-.236-.268-.302-.613-.316-.235-.009-.339.005-.446.06m4 0c-.201.104-.31.291-.342.583-.014.137-.02.717-.012 1.289.015 1.171.034 1.26.307 1.429.209.13.683.13.892 0 .284-.177.294-.23.294-1.649 0-1.188-.005-1.268-.08-1.396-.139-.236-.268-.302-.613-.316-.235-.009-.339.005-.446.06m4.04.976c-.254.103-.373.318-.373.677 0 .325.089.526.286.648l.146.091h4.6l.146-.091c.198-.123.286-.323.286-.654 0-.298-.074-.468-.265-.611-.111-.083-.143-.084-2.42-.092-1.467-.005-2.343.007-2.406.032m7.96 8.026c-.202.102-.31.288-.343.591-.015.143-.036.259-.046.259-.01 0-.138-.07-.285-.154-.708-.41-1.499-.596-2.364-.555a3.922 3.922 0 0 0-2.617 1.139c-.321.317-.731.909-.769 1.112-.061.327.062.559.403.759.41.239.702.15 1.012-.309.381-.565.821-.914 1.385-1.098.56-.184 1.34-.145 1.887.093l.156.068-.197.03c-.377.058-.555.286-.555.71 0 .42.162.663.492.737.055.012.622.028 1.26.034 1.143.011 1.163.01 1.351-.081a.642.642 0 0 0 .293-.268l.103-.175-.006-1.131c-.003-.622-.021-1.209-.039-1.305-.067-.358-.299-.526-.722-.526a.942.942 0 0 0-.399.07m-15.814.688a.659.659 0 0 0-.447.326c-.075.128-.08.208-.08 1.396s.005 1.268.08 1.396a.646.646 0 0 0 .475.327c.367.069.684-.054.845-.327.073-.125.081-.222.094-1.176.015-1.21-.006-1.486-.127-1.666-.158-.235-.49-.344-.84-.276m4 0a.659.659 0 0 0-.447.326c-.075.128-.08.208-.08 1.396s.005 1.268.08 1.396c.161.273.478.396.845.327a.646.646 0 0 0 .475-.327c.073-.125.081-.222.094-1.176.015-1.21-.006-1.486-.127-1.666-.158-.235-.49-.344-.84-.276m5.842 4.145c-.236.061-.329.128-.435.315-.092.16-.093.173-.081 1.322.012 1.098.017 1.17.1 1.339.121.25.276.33.644.332.22.001.327-.017.428-.075.151-.087.315-.371.315-.544 0-.062.008-.112.018-.112.011 0 .132.072.27.16 1.03.655 2.485.694 3.672.098.961-.482 1.898-1.614 1.754-2.118-.052-.185-.161-.308-.395-.45-.257-.155-.507-.174-.707-.052-.07.043-.228.222-.351.397-.406.58-.888.923-1.525 1.086-.509.13-1.066.081-1.467-.129l-.169-.089.25-.029c.432-.05.602-.217.639-.627.038-.426-.12-.725-.424-.805-.214-.055-2.33-.071-2.536-.019" fill-rule="evenodd" fill="#000"/></svg>