<svg width="24" height="24" fill="none" xmlns="http://www.w3.org/2000/svg"><path d="M4.055 1.324c-.361.06-.879.274-1.245.516a3.482 3.482 0 0 0-1.375 1.79l-.135.39-.012 1.837c-.01 1.531-.002 1.887.049 2.141.139.686.436 1.224.959 1.742a3.278 3.278 0 0 0 2.065.978c.547.056 14.795.057 15.299.001a3.414 3.414 0 0 0 3.059-3.059c.053-.475.052-2.781-.001-3.299a3.278 3.278 0 0 0-.978-2.065c-.378-.383-.729-.619-1.179-.796-.591-.231-.154-.22-8.569-.215-4.253.002-7.824.02-7.937.039m15.793 1.51c.146.04.354.131.463.2.248.159.613.539.72.748.2.394.209.485.209 2.221 0 1.506-.006 1.648-.079 1.883a1.965 1.965 0 0 1-1.275 1.275c-.249.077-.414.079-7.887.079-7.363 0-7.64-.003-7.874-.075-.347-.108-.558-.245-.832-.538a1.782 1.782 0 0 1-.476-.837c-.072-.271-.082-3.189-.012-3.518.143-.671.747-1.294 1.415-1.456.153-.038 1.965-.05 7.781-.053 7.248-.003 7.592 0 7.847.071M5.787 4.278a.659.659 0 0 0-.447.326c-.075.128-.08.208-.08 1.396s.005 1.268.08 1.396c.161.273.478.396.845.327a.646.646 0 0 0 .475-.327c.073-.125.081-.222.094-1.176.015-1.21-.006-1.486-.127-1.666-.158-.235-.49-.344-.84-.276m4 0a.659.659 0 0 0-.447.326c-.075.128-.08.208-.08 1.396s.005 1.268.08 1.396c.161.273.478.396.845.327a.646.646 0 0 0 .475-.327c.073-.125.081-.222.094-1.176.015-1.21-.006-1.486-.127-1.666-.158-.235-.49-.344-.84-.276m4 1c-.342.068-.519.314-.519.722 0 .462.207.692.663.74.137.014 1.167.02 2.289.013 1.956-.012 2.046-.016 2.176-.093.273-.161.396-.478.327-.845a.646.646 0 0 0-.327-.475c-.131-.077-.214-.08-2.296-.086-1.188-.004-2.229.007-2.313.024m-9.732 8.046c-.361.06-.879.274-1.245.516a3.482 3.482 0 0 0-1.375 1.79l-.135.39-.012 1.837c-.01 1.531-.002 1.887.049 2.141.139.686.436 1.224.959 1.742a3.278 3.278 0 0 0 2.065.978c.547.056 14.795.057 15.299.001a3.414 3.414 0 0 0 3.059-3.059c.053-.475.052-2.781-.001-3.299a3.278 3.278 0 0 0-.978-2.065c-.378-.383-.729-.619-1.179-.796-.591-.231-.154-.22-8.569-.215-4.253.002-7.824.02-7.937.039m15.793 1.51c.146.04.354.131.463.2.248.159.613.539.72.748.2.394.209.485.209 2.221 0 1.506-.006 1.648-.079 1.883a1.965 1.965 0 0 1-1.275 1.275c-.249.077-.414.079-7.887.079-7.363 0-7.64-.003-7.874-.075-.347-.108-.558-.245-.832-.538a1.782 1.782 0 0 1-.476-.837c-.072-.271-.082-3.189-.012-3.518.143-.671.747-1.294 1.415-1.456.153-.038 1.965-.05 7.781-.053 7.248-.003 7.592 0 7.847.071M5.787 16.278a.659.659 0 0 0-.447.326c-.075.128-.08.208-.08 1.396s.005 1.268.08 1.396a.646.646 0 0 0 .475.327c.367.069.684-.054.845-.327.073-.125.081-.222.094-1.176.015-1.21-.006-1.486-.127-1.666-.158-.235-.49-.344-.84-.276m4 0a.659.659 0 0 0-.447.326c-.075.128-.08.208-.08 1.396s.005 1.268.08 1.396c.161.273.478.396.845.327a.646.646 0 0 0 .475-.327c.073-.125.081-.222.094-1.176.015-1.21-.006-1.486-.127-1.666-.158-.235-.49-.344-.84-.276m4 1c-.342.068-.519.314-.519.722 0 .462.207.692.663.74.137.014 1.167.02 2.289.013 1.956-.012 2.046-.016 2.176-.093a.646.646 0 0 0 .327-.475c.069-.367-.054-.684-.327-.845-.131-.077-.214-.08-2.296-.086-1.188-.004-2.229.007-2.313.024" fill-rule="evenodd" fill="#000"/></svg>