<svg width="24" height="24" fill="none" xmlns="http://www.w3.org/2000/svg"><path d="M8.98 1.28c-1.112.107-1.889.582-2.289 1.4-.219.447-.303.722-.485 1.583l-.151.717-.439.021c-.499.024-.658.088-.795.32-.117.2-.116.706.001.864.161.215.281.273.6.289.188.009.298.032.298.06 0 .025-.047.273-.105.55l-.106.503-.228.182c-.4.32-.697.894-.796 1.538C4.426 9.687 4 14.269 4 14.52c0 .928.744 1.837 1.684 2.059.344.081 2.108.084 2.442.004.452-.108.806-.374.997-.749a9.58 9.58 0 0 0 .279-.688c.106-.285.221-.547.257-.582.057-.057.31-.065 2.292-.074 1.739-.008 2.251.001 2.328.041.1.051.145.149.42.922.209.587.511.917 1.001 1.093.291.104 2.19.131 2.597.036.839-.194 1.544-.948 1.667-1.782.039-.267.019-.57-.181-2.74-.124-1.342-.261-2.629-.305-2.86-.115-.61-.311-.991-.692-1.347l-.294-.274-.106-.494a8.793 8.793 0 0 1-.106-.545c0-.036.091-.056.298-.066.319-.016.439-.074.6-.289.117-.158.118-.664.001-.864-.137-.232-.296-.296-.795-.32l-.439-.021-.151-.717c-.182-.861-.266-1.136-.485-1.583-.33-.673-.932-1.124-1.773-1.326-.345-.084-.445-.087-3.296-.096-1.617-.005-3.084.005-3.26.022m6.407 1.575c.382.139.562.348.738.861.042.12.221.913.398 1.762.177.848.331 1.573.342 1.612.019.066-.231.07-4.865.07s-4.884-.004-4.865-.07c.011-.039.165-.764.342-1.612.321-1.537.398-1.835.556-2.145a.983.983 0 0 1 .445-.422c.346-.141.454-.145 3.602-.138 2.923.007 3.112.011 3.307.082m1.901 5.869c.117.024.286.086.376.138.194.112.31.342.373.741.059.371.443 4.548.443 4.816 0 .242-.058.39-.207.529-.201.188-.336.212-1.202.211-.446 0-.835-.015-.864-.034-.029-.018-.142-.282-.25-.586-.279-.784-.504-1.097-.941-1.315-.432-.216-.524-.223-3.016-.223-2.491 0-2.581.007-3.004.221a1.716 1.716 0 0 0-.679.643 6.052 6.052 0 0 0-.303.724c-.098.28-.201.523-.227.54-.07.044-1.624.037-1.788-.009-.177-.049-.427-.3-.479-.48-.029-.101.017-.745.181-2.518.224-2.427.28-2.845.418-3.071.087-.143.326-.28.575-.329.265-.053 10.341-.051 10.594.002m-9.954 1.399c-.164.049-.363.278-.397.458-.045.239 0 .609.088.73.179.242.222.249 1.707.249 1.265 0 1.361-.005 1.505-.079.234-.119.339-.365.313-.728-.022-.314-.093-.443-.314-.573-.128-.075-.215-.08-1.456-.087-.73-.004-1.376.009-1.446.03m6.532.014c-.306.111-.426.316-.425.723.001.289.117.517.314.618.154.078.228.082 1.513.082 1.208 0 1.367-.008 1.489-.07.246-.125.303-.249.303-.65 0-.384-.041-.483-.275-.658-.106-.078-.167-.082-1.438-.091-1.054-.008-1.359.002-1.481.046m-2.079 6.141a.659.659 0 0 0-.447.326c-.072.123-.08.208-.08.896 0 .688.008.773.08.896a.85.85 0 0 0 .185.214c.226.168.724.168.95 0 .214-.16.258-.297.277-.872.031-.921-.04-1.216-.332-1.381-.148-.084-.429-.119-.633-.079M2.68 17.283a.64.64 0 0 0-.334.349c-.036.081-.301 1.093-.589 2.248-.554 2.226-.571 2.331-.409 2.555.125.173.434.303.719.304.299.001.431-.08.562-.341.048-.098.324-1.123.613-2.278.556-2.226.572-2.331.41-2.555-.163-.225-.723-.388-.972-.282m18.05.03a1.126 1.126 0 0 0-.296.151.688.688 0 0 0-.194.452c0 .199 1.031 4.291 1.129 4.481.135.263.267.343.564.342.285-.001.594-.131.719-.304.162-.224.145-.33-.408-2.555-.289-1.162-.563-2.179-.613-2.277a.858.858 0 0 0-.198-.256c-.151-.111-.447-.125-.703-.034m-8.943 2.965a.659.659 0 0 0-.447.326c-.072.123-.08.208-.08.896 0 .688.008.773.08.896a.646.646 0 0 0 .475.327c.227.042.518-.007.66-.113.214-.16.258-.297.277-.872.031-.921-.04-1.216-.332-1.381-.148-.084-.429-.119-.633-.079" fill-rule="evenodd" fill="#000"/></svg>