<svg width="24" height="24" fill="none" xmlns="http://www.w3.org/2000/svg"><path d="M8.08 1.282c-4.072.213-6.185 2.014-6.697 5.709-.113.812-.141 1.825-.141 5.009 0 4.504.06 5.273.518 6.65.772 2.313 2.446 3.576 5.267 3.972.759.106 1.875.137 4.973.137s4.214-.031 4.973-.137c2.47-.347 4.023-1.334 4.924-3.132.482-.96.741-2.121.823-3.683.051-.969.051-6.645 0-7.614-.063-1.195-.199-2.002-.478-2.837-.61-1.825-1.773-2.989-3.592-3.596-.862-.287-1.627-.416-2.844-.48-.854-.045-6.854-.043-7.726.002m8.72 1.572c2.773.46 3.901 1.588 4.344 4.346.053.333.071.793.085 2.23l.019 1.81H2.752l.019-1.81c.019-1.938.04-2.189.254-3.07.496-2.045 1.677-3.083 3.935-3.46.73-.123 1.088-.131 5.24-.123 3.763.007 4.222.014 4.6.077M5.601 5.588c-.201.104-.31.291-.342.583-.014.137-.02.717-.012 1.289.015 1.171.034 1.26.307 1.429.209.13.683.13.892 0 .284-.177.294-.23.294-1.649 0-1.188-.005-1.268-.08-1.396-.139-.236-.268-.302-.613-.316-.235-.009-.339.005-.446.06m4 0c-.201.104-.31.291-.342.583-.014.137-.02.717-.012 1.289.015 1.171.034 1.26.307 1.429.209.13.683.13.892 0 .284-.177.294-.23.294-1.649 0-1.188-.005-1.268-.08-1.396-.139-.236-.268-.302-.613-.316-.235-.009-.339.005-.446.06m4.04.976c-.254.103-.373.318-.373.677 0 .325.089.526.286.648l.146.091h4.6l.146-.091c.198-.123.286-.323.286-.654 0-.298-.074-.468-.265-.611-.111-.083-.143-.084-2.42-.092-1.467-.005-2.343.007-2.406.032m7.588 8.006c-.019 1.963-.039 2.194-.269 3.118-.456 1.831-1.44 2.816-3.272 3.272-1.066.266-.943.26-5.688.26-3.936 0-4.339-.006-4.76-.072-2.784-.434-3.944-1.583-4.384-4.348-.053-.332-.071-.801-.085-2.23l-.019-1.81h18.496l-.019 1.81m-15.442.708a.659.659 0 0 0-.447.326c-.075.128-.08.208-.08 1.396s.005 1.268.08 1.396a.646.646 0 0 0 .475.327c.367.069.684-.054.845-.327.073-.125.081-.222.094-1.176.015-1.21-.006-1.486-.127-1.666-.158-.235-.49-.344-.84-.276m4 0a.659.659 0 0 0-.447.326c-.075.128-.08.208-.08 1.396s.005 1.268.08 1.396c.161.273.478.396.845.327a.646.646 0 0 0 .475-.327c.073-.125.081-.222.094-1.176.015-1.21-.006-1.486-.127-1.666-.158-.235-.49-.344-.84-.276m4 1c-.342.068-.519.314-.519.722 0 .462.207.692.663.74.137.014 1.167.02 2.289.013 1.956-.012 2.046-.016 2.176-.093a.646.646 0 0 0 .327-.475c.069-.367-.054-.684-.327-.845-.131-.077-.214-.08-2.296-.086-1.188-.004-2.229.007-2.313.024" fill-rule="evenodd" fill="#000"/></svg>