<svg width="24" height="24" fill="none" xmlns="http://www.w3.org/2000/svg"><path d="M11.716 1.283c-.354.052-.628.209-1.285.735-1.689 1.355-3.096 2.767-4.286 4.301a22.076 22.076 0 0 0-1.506 2.279c-1.762 3.198-1.945 6.44-.523 9.273a8.9 8.9 0 0 0 5.807 4.623c.98.239 2.342.308 3.297.168 3.997-.586 7.037-3.658 7.558-7.637.109-.831.069-2.053-.097-2.905-.463-2.39-1.944-4.958-4.345-7.539-1.173-1.261-3.094-2.937-3.644-3.18-.152-.068-.648-.173-.732-.155l-.244.037m.938 1.922c2.475 1.998 4.537 4.415 5.63 6.599 1.117 2.235 1.36 4.261.75 6.256a7.219 7.219 0 0 1-1.833 3.021c-1.167 1.171-2.55 1.863-4.201 2.102-.636.092-1.763.063-2.378-.061a7.57 7.57 0 0 1-3.002-1.338 7.586 7.586 0 0 1-2.296-2.856c-1.619-3.554-.255-7.679 3.917-11.847 1.046-1.045 2.562-2.321 2.757-2.321.073 0 .269.133.656.445" fill-rule="evenodd" fill="#000"/></svg>