<svg width="24" height="24" fill="none" xmlns="http://www.w3.org/2000/svg"><path d="M17.92 1.057c-.938.208-1.579.625-2.82 1.834-1.975 1.923-7.621 7.628-7.769 7.849-.207.31-.345.586-.45.897-.109.324-.561 3.467-.561 3.902 0 .612.19 1.089.6 1.506.419.425.931.635 1.548.635.378 0 3.551-.448 3.834-.541a4.151 4.151 0 0 0 1.118-.6c.313-.248 7.4-7.309 8.143-8.112.743-.804 1.091-1.351 1.301-2.047.092-.307.109-.434.11-.86.001-.347-.019-.577-.066-.753-.218-.813-.653-1.515-1.407-2.268-.799-.8-1.578-1.27-2.379-1.439a3.467 3.467 0 0 0-1.202-.003m-9.84.224c-4.084.223-6.185 2.014-6.697 5.71-.113.812-.141 1.825-.141 5.009s.028 4.197.141 5.009c.384 2.775 1.665 4.461 3.973 5.233.835.279 1.642.415 2.837.478.969.051 6.645.051 7.614 0 1.195-.063 2.002-.199 2.837-.478 2.318-.775 3.575-2.437 3.977-5.256.089-.627.147-2.025.132-3.19-.012-.97-.02-1.067-.093-1.192-.161-.273-.478-.396-.845-.327a.646.646 0 0 0-.475.327c-.076.129-.081.233-.105 1.956-.028 1.968-.05 2.225-.275 3.128-.456 1.831-1.44 2.816-3.272 3.272-1.066.266-.943.26-5.688.26-3.936 0-4.339-.006-4.76-.072-2.79-.435-3.957-1.597-4.386-4.368-.069-.445-.074-.791-.074-4.78 0-3.989.005-4.335.074-4.78.38-2.459 1.356-3.645 3.434-4.176.88-.225 1.214-.254 3.172-.28 1.704-.023 1.807-.028 1.936-.104a.646.646 0 0 0 .327-.475c.069-.367-.054-.684-.327-.845-.128-.075-.213-.08-1.436-.085a45.11 45.11 0 0 0-1.88.026m10.971 1.32c.863.265 2.075 1.484 2.357 2.368.117.37.11.781-.021 1.122-.176.458-.438.808-1.117 1.496l-.64.648-.205-.08c-1.607-.629-3.036-2.071-3.606-3.641l-.052-.146.646-.638c1.159-1.145 1.756-1.4 2.638-1.129M15.263 6.65a7.941 7.941 0 0 0 2.849 2.542l.365.192-3.049 3.044c-3.059 3.055-3.137 3.127-3.554 3.274-.242.086-3.266.508-3.487.487a.615.615 0 0 1-.576-.576c-.011-.116.073-.835.209-1.793.202-1.418.242-1.632.351-1.88.119-.272.213-.371 3.184-3.348l3.061-3.069.209.398c.114.219.311.547.438.729" fill-rule="evenodd" fill="#000"/></svg>