<svg width="24" height="24" fill="none" xmlns="http://www.w3.org/2000/svg"><path d="M15.547 1.44c-.689.085-1.381.405-2.087.964-.264.209-1.795 1.756-2.49 2.516-.131.143-1.666 1.772-3.411 3.62-2.077 2.199-3.235 3.455-3.351 3.635a4.051 4.051 0 0 0-.505 1.149c-.094.414-.436 3.462-.434 3.876.003.666.192 1.165.611 1.613a2.19 2.19 0 0 0 1.045.612c.466.12.832.089 2.635-.222a62.809 62.809 0 0 0 1.9-.346c.295-.074.888-.359 1.171-.564.116-.084 1.724-1.755 3.574-3.713 1.849-1.958 3.442-3.623 3.54-3.7.098-.077.211-.194.25-.26.04-.066.361-.426.713-.8.997-1.056 1.317-1.467 1.623-2.08.26-.521.357-.9.379-1.484.018-.473.01-.563-.085-.93-.226-.879-.824-1.775-1.705-2.554-1.151-1.018-2.284-1.466-3.373-1.332m.869 1.541c.626.163 1.405.714 2.034 1.439.962 1.109 1.033 2.045.24 3.161-.191.269-.525.642-1.303 1.453l-.359.374-.244-.05c-.771-.159-1.715-.628-2.306-1.145a5.745 5.745 0 0 1-1.361-1.734c-.171-.347-.397-.988-.397-1.128 0-.136 1.342-1.54 1.801-1.885.65-.489 1.271-.648 1.895-.485M11.56 6.659c0 .088.419.898.622 1.201a7.334 7.334 0 0 0 2.001 1.991c.411.273 1.068.604 1.447.727.187.061.205.076.16.138-.027.038-1.385 1.481-3.017 3.207-3.063 3.239-3.108 3.283-3.573 3.451-.235.085-3.408.626-3.672.626-.247 0-.392-.051-.543-.193-.16-.149-.225-.324-.225-.607 0-.298.347-3.358.406-3.579.133-.502.147-.518 3.317-3.875 1.655-1.751 3.024-3.174 3.043-3.163.019.012.034.046.034.076M2.787 21.278c-.341.067-.519.314-.519.722 0 .462.207.693.663.739.137.014 4.317.02 9.289.013 8.957-.012 9.041-.013 9.176-.092.273-.161.396-.478.327-.845a.646.646 0 0 0-.327-.475c-.135-.079-.213-.08-9.296-.086-5.038-.003-9.229.008-9.313.024" fill-rule="evenodd" fill="#000"/></svg>