<svg width="24" height="24" fill="none" xmlns="http://www.w3.org/2000/svg"><path d="M9.295 1.277c-.229.038-.369.141-.457.336-.069.152-.076.276-.077 1.389L8.76 4.224l-.49.046c-.593.055-.899.153-1.292.416-.4.268-.735.644-.933 1.047-.284.58-.285.591-.284 3.755.001 3.343.019 3.57.363 4.428.534 1.334 1.654 2.308 3.07 2.668.377.096 1.162.176 1.734.176h.309l.011 2.75c.012 2.667.014 2.754.092 2.886.161.273.478.396.845.327a.646.646 0 0 0 .475-.327c.078-.132.08-.219.092-2.886l.011-2.75.329-.001c1.727-.005 2.827-.395 3.801-1.35.603-.59 1.001-1.326 1.238-2.289.081-.327.084-.455.098-3.404.016-3.452.02-3.395-.274-3.996-.134-.275-.232-.405-.511-.681-.531-.525-.998-.727-1.806-.783l-.398-.027V3.003c0-1.192-.002-1.231-.09-1.404-.128-.252-.288-.332-.653-.33-.365.002-.521.082-.647.33-.088.173-.09.212-.09 1.409V4.24h-3.52V3.008c0-1.197-.002-1.236-.09-1.409a.67.67 0 0 0-.21-.244c-.147-.081-.424-.115-.645-.078m6.765 4.577c.11.052.278.179.373.282.328.358.307.116.307 3.464 0 2.966 0 2.982-.09 3.316-.299 1.116-1.058 1.895-2.155 2.213-.311.09-.344.091-2.495.091-2.385 0-2.341.004-2.94-.248-.627-.264-1.25-.883-1.519-1.512-.282-.658-.309-1.032-.294-4.18l.013-2.62.092-.2c.14-.304.39-.54.683-.645.115-.041.951-.052 3.985-.053l3.84-.001.2.093" fill-rule="evenodd" fill="#000"/></svg>