<svg width="24" height="24" fill="none" xmlns="http://www.w3.org/2000/svg"><path d="M3.714 1.282c-1.022.091-1.783.536-2.129 1.244-.181.37-.258.667-.305 1.174-.049.529-.049 16.071 0 16.6.104 1.124.554 1.814 1.42 2.176.587.246.663.252 3.152.273 2.428.02 3.072-.007 3.587-.151.903-.252 1.467-.826 1.707-1.738.071-.268.074-.647.074-8.86s-.003-8.592-.074-8.86c-.193-.734-.585-1.24-1.186-1.533-.421-.206-.696-.277-1.26-.327-.509-.045-4.472-.044-4.986.002m11.503-.002c-1.04.09-1.803.532-2.152 1.246-.295.601-.285.477-.285 3.714 0 2.713.005 2.918.075 3.18.184.684.579 1.19 1.146 1.468.686.336.98.361 4.039.343l2.5-.015.39-.106c.947-.256 1.461-.762 1.719-1.69.087-.316.088-.352.09-3.14.001-2.787 0-2.824-.088-3.169-.258-1.013-.862-1.551-2.011-1.794-.262-.055-4.854-.087-5.423-.037M9.131 2.839c.262.096.46.299.539.554.066.213.07.726.07 8.607 0 7.881-.004 8.394-.07 8.607a.868.868 0 0 1-.539.554c-.205.075-5.182.109-5.55.038-.462-.09-.638-.238-.757-.636-.058-.197-.064-1.004-.064-8.563 0-7.559.006-8.366.064-8.563.114-.381.261-.517.676-.622.302-.076 5.418-.054 5.631.024m11.556.015a.813.813 0 0 1 .466.424c.06.128.068.417.078 2.877.01 2.369.003 2.764-.05 2.948-.092.318-.217.441-.554.547-.285.089-.302.09-2.867.09-2.563 0-2.582-.001-2.866-.09-.328-.103-.498-.261-.582-.539-.079-.259-.075-5.504.004-5.731.077-.222.188-.369.337-.448.308-.161.426-.167 3.187-.159 2.456.008 2.674.014 2.847.081m-5.667 9.95c-1.276.182-2.036.954-2.217 2.251-.058.42-.058 4.988 0 5.412.141 1.02.666 1.739 1.497 2.05.579.216.682.223 3.44.223 2.037 0 2.617-.011 2.84-.056 1.215-.244 1.798-.803 2.087-2.004.051-.214.065-.659.081-2.532.02-2.337-.006-3.055-.131-3.528-.215-.818-.765-1.411-1.557-1.68-.487-.165-.771-.18-3.34-.175-1.353.003-2.568.02-2.7.039m5.26 1.478c.334.053.636.201.748.367.21.311.216.414.204 3.218l-.012 2.593-.092.2c-.12.261-.212.354-.462.467l-.206.093-2.593.012c-2.26.01-2.624.003-2.84-.052-.331-.085-.49-.2-.607-.44-.171-.35-.185-.607-.171-3.183.012-2.177.021-2.438.084-2.628.128-.384.367-.566.848-.646.296-.05 4.787-.051 5.099-.001" fill-rule="evenodd" fill="#000"/></svg>