<svg width="24" height="24" fill="none" xmlns="http://www.w3.org/2000/svg"><path d="M3.7 1.284c-1.066.097-1.777.514-2.142 1.256-.286.581-.287.585-.307 3.347-.019 2.727.004 3.245.168 3.732.311.93 1.034 1.444 2.221 1.582.254.03 1.206.039 2.88.029 2.686-.017 2.737-.021 3.28-.237.694-.275 1.153-.812 1.349-1.577.065-.252.071-.532.071-3.176 0-2.643-.006-2.923-.07-3.16-.302-1.114-1.075-1.686-2.43-1.8-.549-.046-4.506-.043-5.02.004m11.54-.004c-1.211.115-1.979.681-2.312 1.703-.16.491-.175.83-.16 3.497.015 2.475.017 2.548.104 2.856.116.417.238.674.452.954.311.407.724.665 1.34.84.314.089.337.089 3.096.089 2.748 0 2.784-.001 3.092-.088.522-.148.816-.312 1.129-.627.473-.477.667-.966.744-1.872.027-.325.036-1.329.023-2.78-.02-2.411-.023-2.442-.227-3.03a2.2 2.2 0 0 0-1.344-1.344c-.596-.207-.598-.207-3.177-.219-1.331-.006-2.573.003-2.76.021M8.968 2.805c.416.088.598.235.716.575.079.225.083 5.472.005 5.728-.114.377-.376.544-.952.61-.463.054-4.486.054-4.957.001-.503-.057-.763-.189-.899-.458l-.101-.199V6.241c0-3.097-.01-2.96.24-3.21.1-.1.35-.205.58-.243.248-.042 5.165-.026 5.368.017m11.692.067c.261.12.354.212.467.462l.093.206.012 2.593c.01 2.26.003 2.624-.052 2.84-.085.331-.2.49-.44.607-.351.172-.608.186-3.185.171-2.717-.016-2.709-.015-3-.306-.292-.292-.291-.283-.306-3.002-.009-1.595.002-2.513.03-2.7.054-.354.199-.656.37-.771.304-.205.37-.209 3.191-.2l2.62.008.2.092M3.5 12.802c-.371.054-.881.233-1.132.398-.561.367-.864.85-1.036 1.646-.065.302-.072.579-.072 2.894 0 2.024.012 2.619.056 2.84.203 1.023.698 1.661 1.507 1.942.587.203.619.206 3.029.226 2.337.02 3.055-.006 3.528-.131.836-.22 1.423-.775 1.692-1.6.16-.491.175-.83.16-3.497-.015-2.437-.019-2.552-.1-2.84-.175-.624-.448-1.061-.852-1.366-.273-.205-.534-.328-.944-.442-.31-.087-.366-.089-2.956-.097-1.452-.004-2.748.008-2.88.027m13.676.999a.607.607 0 0 0-.375.394c-.023.083-.041.665-.041 1.353v1.208l-1.29.012c-1.43.013-1.451.017-1.615.287-.106.177-.106.713 0 .89.164.27.185.274 1.613.287l1.288.012.012 1.288c.013 1.428.017 1.449.287 1.613.177.106.713.106.89 0 .27-.164.274-.185.287-1.613l.012-1.288 1.288-.012c1.428-.013 1.449-.017 1.613-.287.106-.177.106-.713 0-.89-.164-.27-.185-.274-1.613-.287l-1.288-.012-.012-1.288c-.013-1.425-.018-1.452-.283-1.608-.141-.083-.586-.117-.773-.059m-8.097.535c.285.094.491.3.585.585.066.2.074.432.087 2.634.015 2.577.001 2.834-.171 3.185-.117.24-.276.355-.607.44-.216.055-.58.062-2.84.052L3.54 21.22l-.206-.093c-.25-.113-.342-.206-.462-.467l-.092-.2-.012-2.593c-.012-2.804-.006-2.907.204-3.218.106-.158.409-.314.708-.365.123-.02 1.317-.033 2.7-.029 2.275.008 2.498.014 2.699.081" fill-rule="evenodd" fill="#000"/></svg>