<svg width="24" height="24" fill="none" xmlns="http://www.w3.org/2000/svg"><path d="M3.74 1.282c-1.061.088-1.812.537-2.18 1.301-.251.52-.317 1.027-.317 2.417 0 1.431.066 1.909.342 2.474.359.736 1.099 1.152 2.215 1.246.601.051 4.333.051 4.9 0 1.362-.121 2.145-.716 2.446-1.86.066-.25.074-.452.074-1.86 0-1.408-.008-1.61-.074-1.86-.193-.734-.585-1.24-1.186-1.533-.421-.206-.696-.277-1.26-.327-.505-.045-4.42-.044-4.96.002m11.496 0c-1.044.093-1.805.543-2.163 1.279-.309.635-.293.368-.293 4.939 0 3.839.004 4.097.074 4.36.193.734.585 1.24 1.186 1.533.421.206.696.277 1.26.327.567.051 4.299.051 4.9 0 1.346-.113 2.141-.697 2.421-1.78.118-.456.136-1.054.136-4.44s-.018-3.984-.136-4.44c-.279-1.076-1.068-1.661-2.401-1.78-.508-.045-4.472-.044-4.984.002M9.131 2.839c.262.096.46.299.539.554.061.198.07.403.07 1.607 0 1.603-.019 1.731-.299 1.97-.295.252-.212.245-3.041.261-2.686.014-2.895.004-3.206-.154-.185-.094-.287-.237-.37-.514-.095-.321-.095-2.805 0-3.126.114-.381.261-.517.676-.622.302-.076 5.418-.054 5.631.024m11.317-.034c.44.093.612.242.728.632.057.193.064.643.064 4.063s-.007 3.87-.064 4.063c-.083.277-.185.42-.37.514-.311.158-.52.168-3.206.154-2.829-.016-2.746-.009-3.041-.261-.312-.267-.299-.078-.299-4.45 0-3.158.01-3.899.055-4.076.095-.367.357-.581.805-.656.248-.042 5.125-.026 5.328.017M3.74 10.28c-1.272.113-2.079.722-2.36 1.783-.119.448-.137 1.044-.137 4.437 0 3.386.018 3.984.136 4.44.28 1.083 1.075 1.667 2.421 1.78.601.051 4.333.051 4.9 0 1.362-.121 2.145-.716 2.446-1.86.07-.263.074-.521.074-4.36 0-3.844-.004-4.096-.074-4.36-.259-.979-.848-1.547-1.852-1.786-.337-.08-.471-.085-2.774-.095-1.331-.006-2.582.003-2.78.021m5.391 1.559c.262.096.46.299.539.554.065.21.07.519.07 4.107 0 4.395.013 4.203-.299 4.47-.295.252-.212.245-3.041.261-2.686.014-2.895.004-3.206-.154-.185-.094-.287-.237-.37-.514-.057-.193-.064-.643-.064-4.063s.007-3.87.064-4.063c.114-.381.261-.517.676-.622.302-.076 5.418-.054 5.631.024m6.105 3.443c-1.044.093-1.805.543-2.163 1.279-.283.581-.293.668-.293 2.439 0 1.408.008 1.61.074 1.86.193.734.585 1.24 1.186 1.533.421.206.696.277 1.26.327.567.051 4.299.051 4.9 0 1.116-.094 1.856-.51 2.215-1.246.276-.565.342-1.043.342-2.474 0-1.431-.066-1.909-.342-2.474-.356-.73-1.092-1.148-2.195-1.246-.508-.045-4.472-.044-4.984.002m5.212 1.523c.44.093.612.242.728.632.053.181.064.442.064 1.563s-.011 1.382-.064 1.563c-.083.277-.185.42-.37.514-.311.158-.52.168-3.206.154-2.829-.016-2.746-.009-3.041-.261-.279-.239-.299-.369-.299-1.95 0-1.537.02-1.691.248-1.943.129-.143.343-.244.612-.289.248-.042 5.125-.026 5.328.017" fill-rule="evenodd" fill="#000"/></svg>