<svg width="24" height="24" fill="none" xmlns="http://www.w3.org/2000/svg"><path d="M3.7 1.284c-1.066.097-1.777.514-2.142 1.256-.286.581-.287.585-.307 3.347-.019 2.727.004 3.245.168 3.732.311.93 1.034 1.444 2.221 1.582.254.03 1.206.039 2.88.029 2.686-.017 2.737-.021 3.28-.237.694-.275 1.153-.812 1.349-1.577.065-.252.071-.532.071-3.176 0-2.643-.006-2.923-.07-3.16-.302-1.114-1.075-1.686-2.43-1.8-.549-.046-4.506-.043-5.02.004m11.517-.004c-1.04.09-1.803.532-2.152 1.246-.295.601-.285.477-.285 3.714 0 2.713.005 2.918.075 3.18.184.684.579 1.19 1.146 1.468.686.336.98.361 4.039.343l2.5-.015.39-.106c.947-.256 1.461-.762 1.719-1.69.087-.316.088-.352.09-3.14.001-2.787 0-2.824-.088-3.169-.258-1.013-.862-1.551-2.011-1.794-.262-.055-4.854-.087-5.423-.037M8.968 2.805c.416.088.598.235.716.575.079.225.083 5.472.005 5.728-.114.377-.376.544-.952.61-.463.054-4.486.054-4.957.001-.503-.057-.763-.189-.899-.458l-.101-.199V6.241c0-3.097-.01-2.96.24-3.21.1-.1.35-.205.58-.243.248-.042 5.165-.026 5.368.017m11.719.049a.813.813 0 0 1 .466.424c.06.128.068.417.078 2.877.01 2.369.003 2.764-.05 2.948-.092.318-.217.441-.554.547-.285.089-.302.09-2.867.09-2.563 0-2.582-.001-2.866-.09-.328-.103-.498-.261-.582-.539-.079-.259-.075-5.504.004-5.731.077-.222.188-.369.337-.448.308-.161.426-.167 3.187-.159 2.456.008 2.674.014 2.847.081M3.5 12.802c-.371.054-.881.233-1.132.398-.561.367-.864.85-1.036 1.646-.065.302-.072.579-.072 2.894 0 2.024.012 2.619.056 2.84.203 1.023.698 1.661 1.507 1.942.587.203.619.206 3.029.226 2.337.02 3.055-.006 3.528-.131.836-.22 1.423-.775 1.692-1.6.16-.491.175-.83.16-3.497-.015-2.437-.019-2.552-.1-2.84-.175-.624-.448-1.061-.852-1.366-.273-.205-.534-.328-.944-.442-.31-.087-.366-.089-2.956-.097-1.452-.004-2.748.008-2.88.027m11.52.002c-1.276.182-2.036.954-2.217 2.251-.058.42-.058 4.988 0 5.412.141 1.02.666 1.739 1.497 2.05.579.216.682.223 3.44.223 2.037 0 2.617-.011 2.84-.056 1.215-.244 1.798-.803 2.087-2.004.051-.214.065-.659.081-2.532.02-2.337-.006-3.055-.131-3.528-.215-.818-.765-1.411-1.557-1.68-.487-.165-.771-.18-3.34-.175-1.353.003-2.568.02-2.7.039m-5.941 1.532c.285.094.491.3.585.585.066.2.074.432.087 2.634.015 2.577.001 2.834-.171 3.185-.117.24-.276.355-.607.44-.216.055-.58.062-2.84.052L3.54 21.22l-.206-.093c-.25-.113-.342-.206-.462-.467l-.092-.2-.012-2.593c-.012-2.804-.006-2.907.204-3.218.106-.158.409-.314.708-.365.123-.02 1.317-.033 2.7-.029 2.275.008 2.498.014 2.699.081m11.201-.054c.334.053.636.201.748.367.21.311.216.414.204 3.218l-.012 2.593-.092.2c-.12.261-.212.354-.462.467l-.206.093-2.593.012c-2.26.01-2.624.003-2.84-.052-.331-.085-.49-.2-.607-.44-.171-.35-.185-.607-.171-3.183.012-2.177.021-2.438.084-2.628.128-.384.367-.566.848-.646.296-.05 4.787-.051 5.099-.001" fill-rule="evenodd" fill="#000"/></svg>