<svg width="24" height="24" fill="none" xmlns="http://www.w3.org/2000/svg"><path d="M3.714 1.282c-1.022.091-1.783.536-2.129 1.244-.181.37-.258.667-.305 1.174-.049.529-.049 16.071 0 16.6.104 1.124.554 1.814 1.42 2.176.587.246.663.252 3.152.273 2.428.02 3.072-.007 3.587-.151.903-.252 1.467-.826 1.707-1.738.071-.268.074-.647.074-8.86s-.003-8.592-.074-8.86c-.193-.734-.585-1.24-1.186-1.533-.421-.206-.696-.277-1.26-.327-.509-.045-4.472-.044-4.986.002m11.522 0c-1.044.093-1.805.543-2.163 1.279-.309.635-.293.368-.293 4.939 0 3.839.004 4.097.074 4.36.193.734.585 1.24 1.186 1.533.421.206.696.277 1.26.327.567.051 4.299.051 4.9 0 1.346-.113 2.141-.697 2.421-1.78.118-.456.136-1.054.136-4.44s-.018-3.984-.136-4.44c-.279-1.076-1.068-1.661-2.401-1.78-.508-.045-4.472-.044-4.984.002M9.131 2.839c.262.096.46.299.539.554.066.213.07.726.07 8.607 0 7.881-.004 8.394-.07 8.607a.868.868 0 0 1-.539.554c-.205.075-5.182.109-5.55.038-.462-.09-.638-.238-.757-.636-.058-.197-.064-1.004-.064-8.563 0-7.559.006-8.366.064-8.563.114-.381.261-.517.676-.622.302-.076 5.418-.054 5.631.024m11.317-.034c.44.093.612.242.728.632.057.193.064.643.064 4.063s-.007 3.87-.064 4.063c-.083.277-.185.42-.37.514-.311.158-.52.168-3.206.154-2.829-.016-2.746-.009-3.041-.261-.312-.267-.299-.078-.299-4.45 0-3.158.01-3.899.055-4.076.095-.367.357-.581.805-.656.248-.042 5.125-.026 5.328.017m-5.212 12.477c-1.044.093-1.805.543-2.163 1.279-.283.581-.293.668-.293 2.439 0 1.408.008 1.61.074 1.86.193.734.585 1.24 1.186 1.533.421.206.696.277 1.26.327.567.051 4.299.051 4.9 0 1.116-.094 1.856-.51 2.215-1.246.276-.565.342-1.043.342-2.474 0-1.431-.066-1.909-.342-2.474-.356-.73-1.092-1.148-2.195-1.246-.508-.045-4.472-.044-4.984.002m5.212 1.523c.44.093.612.242.728.632.053.181.064.442.064 1.563s-.011 1.382-.064 1.563c-.083.277-.185.42-.37.514-.311.158-.52.168-3.206.154-2.829-.016-2.746-.009-3.041-.261-.279-.239-.299-.369-.299-1.95 0-1.537.02-1.691.248-1.943.129-.143.343-.244.612-.289.248-.042 5.125-.026 5.328.017" fill-rule="evenodd" fill="#000"/></svg>