<svg width="24" height="24" fill="none" xmlns="http://www.w3.org/2000/svg"><path d="M8.08 1.282c-4.072.213-6.185 2.014-6.697 5.709-.113.812-.141 1.825-.141 5.009 0 4.504.06 5.273.518 6.65.772 2.313 2.446 3.576 5.267 3.972.759.106 1.875.137 4.973.137s4.214-.031 4.973-.137c2.47-.347 4.023-1.334 4.924-3.132.482-.96.741-2.121.823-3.683.051-.969.051-6.645 0-7.614-.063-1.195-.199-2.002-.478-2.837-.61-1.825-1.773-2.989-3.592-3.596-.862-.287-1.627-.416-2.844-.48-.854-.045-6.854-.043-7.726.002m8.72 1.572c2.786.462 3.914 1.6 4.348 4.386.066.421.072.824.072 4.76s-.006 4.339-.072 4.76c-.436 2.798-1.59 3.952-4.388 4.388-.421.066-.824.072-4.76.072s-4.339-.006-4.76-.072c-2.79-.435-3.957-1.597-4.386-4.368-.069-.445-.074-.791-.074-4.78 0-4.753-.004-4.663.264-5.712C3.557 4.282 4.722 3.274 6.96 2.9c.73-.123 1.088-.131 5.24-.123 3.763.007 4.222.014 4.6.077M6.631 7.597a1.026 1.026 0 0 0-.415.594c-.081.406.727 1.127 1.559 1.391.631.2 1.458.201 2.086.001.72-.228 1.48-.837 1.557-1.246.042-.223-.138-.555-.393-.727-.344-.231-.599-.177-1.04.22a2.133 2.133 0 0 1-.42.264c-.251.119-.29.126-.745.126-.454 0-.494-.007-.742-.124a2.487 2.487 0 0 1-.471-.309c-.27-.24-.404-.307-.617-.307a.631.631 0 0 0-.359.117m6.36 0a1.026 1.026 0 0 0-.415.594c-.081.406.727 1.127 1.559 1.391.631.2 1.458.201 2.086.001.72-.228 1.48-.837 1.557-1.246.042-.223-.138-.555-.393-.727-.344-.231-.599-.177-1.04.22a2.133 2.133 0 0 1-.42.264c-.251.119-.29.126-.745.126-.454 0-.494-.007-.742-.124a2.487 2.487 0 0 1-.471-.309c-.27-.24-.404-.307-.617-.307a.631.631 0 0 0-.359.117M8.134 12.28c-.595.087-1.133.564-1.31 1.159-.079.266-.082.784-.007 1.241.197 1.195.69 2.152 1.538 2.986.954.94 2.255 1.461 3.645 1.461 1.911 0 3.579-.964 4.557-2.633.529-.903.815-2.292.623-3.027a1.642 1.642 0 0 0-1.35-1.189c-.299-.043-7.4-.041-7.696.002m7.607 1.565c.057.178-.067.928-.222 1.345-.466 1.255-1.598 2.201-2.879 2.407a5.077 5.077 0 0 1-1.28 0c-1.425-.229-2.67-1.393-2.997-2.802-.094-.404-.141-.835-.104-.95l.026-.085h7.43l.026.085" fill-rule="evenodd" fill="#000"/></svg>