<svg width="24" height="24" fill="none" xmlns="http://www.w3.org/2000/svg"><path d="M8.08 1.282c-4.072.213-6.185 2.014-6.697 5.709-.113.812-.141 1.825-.141 5.009 0 4.504.06 5.273.518 6.65.772 2.313 2.446 3.576 5.267 3.972.759.106 1.875.137 4.973.137s4.214-.031 4.973-.137c2.47-.347 4.023-1.334 4.924-3.132.482-.96.741-2.121.823-3.683.051-.969.051-6.645 0-7.614-.063-1.195-.199-2.002-.478-2.837-.61-1.825-1.773-2.989-3.592-3.596-.862-.287-1.627-.416-2.844-.48-.854-.045-6.854-.043-7.726.002m8.72 1.572c2.786.462 3.914 1.6 4.348 4.386.066.421.072.824.072 4.76s-.006 4.339-.072 4.76c-.436 2.798-1.59 3.952-4.388 4.388-.421.066-.824.072-4.76.072s-4.339-.006-4.76-.072c-2.79-.435-3.957-1.597-4.386-4.368-.069-.445-.074-.791-.074-4.78 0-4.753-.004-4.663.264-5.712C3.557 4.282 4.722 3.274 6.96 2.9c.73-.123 1.088-.131 5.24-.123 3.763.007 4.222.014 4.6.077M8 6.063c-.734.159-1.375.737-1.631 1.473-.079.227-.099.364-.1.684-.002.662.194 1.157.632 1.596.461.463.946.664 1.599.664s1.138-.201 1.599-.664c.427-.428.632-.934.631-1.555-.001-.679-.177-1.108-.65-1.584-.569-.572-1.291-.785-2.08-.614m7 0c-.734.159-1.375.737-1.631 1.473-.079.227-.099.364-.1.684-.002.662.194 1.157.632 1.596.461.463.946.664 1.599.664s1.138-.201 1.599-.664c.427-.428.632-.934.631-1.555-.001-.679-.177-1.108-.65-1.584-.569-.572-1.291-.785-2.08-.614M8.84 7.582c.536.273.531 1.071-.008 1.332-.624.302-1.285-.326-1.018-.966.067-.16.31-.379.457-.411.06-.013.127-.03.149-.037.065-.022.312.027.42.082m7 0c.536.273.531 1.071-.008 1.332-.624.302-1.285-.326-1.018-.966.067-.16.31-.379.457-.411.06-.013.127-.03.149-.037.065-.022.312.027.42.082m-7.88 5.035c-.285.08-.5.207-.718.425-.34.34-.481.708-.481 1.258-.001.708.201 1.519.559 2.24 1.407 2.84 4.971 3.769 7.636 1.99.441-.294 1.08-.933 1.374-1.374.567-.85.91-1.927.909-2.856 0-.55-.141-.918-.481-1.258a1.52 1.52 0 0 0-.738-.428c-.283-.075-7.788-.072-8.06.003m7.761 1.484c.058.07.032.474-.058.9-.296 1.405-1.442 2.546-2.882 2.87-.175.04-.471.064-.781.064-.562 0-.887-.06-1.389-.253-1.117-.431-2.026-1.503-2.274-2.681-.09-.426-.116-.83-.058-.9.045-.054.489-.061 3.721-.061s3.676.007 3.721.061" fill-rule="evenodd" fill="#000"/></svg>