<svg width="24" height="24" fill="none" xmlns="http://www.w3.org/2000/svg"><path d="M8.08 1.282c-4.072.213-6.185 2.014-6.697 5.709-.113.812-.141 1.825-.141 5.009 0 4.504.06 5.273.518 6.65.772 2.313 2.446 3.576 5.267 3.972.759.106 1.875.137 4.973.137s4.214-.031 4.973-.137c2.47-.347 4.023-1.334 4.924-3.132.482-.96.741-2.121.823-3.683.051-.969.051-6.645 0-7.614-.063-1.195-.199-2.002-.478-2.837-.61-1.825-1.773-2.989-3.592-3.596-.862-.287-1.627-.416-2.844-.48-.854-.045-6.854-.043-7.726.002m8.72 1.572c2.786.462 3.914 1.6 4.348 4.386.066.421.072.824.072 4.76s-.006 4.339-.072 4.76c-.436 2.798-1.59 3.952-4.388 4.388-.421.066-.824.072-4.76.072s-4.339-.006-4.76-.072c-2.79-.435-3.957-1.597-4.386-4.368-.069-.445-.074-.791-.074-4.78 0-4.753-.004-4.663.264-5.712C3.557 4.282 4.722 3.274 6.96 2.9c.73-.123 1.088-.131 5.24-.123 3.763.007 4.222.014 4.6.077M8.4 7.283c-1.053.112-2.294.979-2.184 1.526.075.378.444.711.786.711.2 0 .358-.085.653-.35.085-.076.274-.195.42-.264.251-.119.29-.126.745-.126s.494.007.745.126c.146.069.335.188.42.264.441.397.696.451 1.04.22.255-.172.435-.504.393-.727-.077-.409-.837-1.018-1.557-1.246-.235-.075-1.026-.194-1.135-.172-.014.003-.161.02-.326.038m6.36 0c-1.053.112-2.294.979-2.184 1.526.075.378.444.711.786.711.2 0 .358-.085.653-.35.085-.076.274-.195.42-.264.251-.119.29-.126.745-.126s.494.007.745.126c.146.069.335.188.42.264.441.397.696.451 1.04.22.255-.172.435-.504.393-.727-.077-.409-.837-1.018-1.557-1.246-.235-.075-1.026-.194-1.135-.172-.014.003-.161.02-.326.038m-3.58 4.339a5.37 5.37 0 0 0-2.779 1.365c-.828.779-1.392 1.859-1.582 3.032-.109.673-.066 1.177.135 1.569.11.215.443.548.658.658.382.196.324.193 4.388.193s4.006.003 4.388-.193c.215-.11.548-.443.658-.658.201-.392.244-.896.135-1.569-.186-1.148-.677-2.117-1.48-2.92-.803-.803-1.772-1.294-2.92-1.48a5.96 5.96 0 0 0-1.601.003m1.621 1.513c1.409.308 2.568 1.468 2.862 2.864.09.426.116.83.058.9-.045.054-.489.061-3.721.061s-3.676-.007-3.721-.061c-.036-.044-.042-.145-.022-.37.181-2.037 1.868-3.553 3.863-3.469.231.01.537.044.681.075" fill-rule="evenodd" fill="#000"/></svg>