<svg width="24" height="24" fill="none" xmlns="http://www.w3.org/2000/svg"><path d="M12.2 1.416c-.262.081-7.664 2.871-8.29 3.125-.356.144-.865.501-1.156.81A3.555 3.555 0 0 0 1.836 7.1c-.07.337-.075.612-.075 4.395L1.76 15.53l-.25.266C.436 16.94.007 18.681.419 20.227a4.936 4.936 0 0 0 1.148 2.036c1.599 1.692 4.256 1.967 6.121.635l.187-.134 5.213-.015c4.582-.013 5.246-.023 5.495-.079 1.786-.401 3.067-1.619 3.525-3.35.08-.302.105-.511.121-1.022l.021-.641.22-.139c.44-.277.746-.755.813-1.268.045-.35.045-2.15 0-2.5a1.79 1.79 0 0 0-.818-1.27l-.224-.14v-.605a6.664 6.664 0 0 0-.063-.96c-.348-1.996-1.923-3.497-3.918-3.732-.198-.024-.877-.043-1.51-.043H15.6V5.384c0-1.229-.014-1.688-.057-1.913a2.593 2.593 0 0 0-1.398-1.869c-.44-.219-.716-.282-1.223-.28-.322.002-.493.024-.722.094m1.143 1.451c.244.083.615.441.695.673.043.124.06.535.072 1.81L14.126 7h-4.013c-2.575 0-4.142.015-4.373.043a4.433 4.433 0 0 0-2.25.924l-.25.194v-.207c0-.788.396-1.536 1.006-1.903.16-.096 7.25-2.811 8.323-3.187.228-.08.533-.079.774.003m4.701 5.651a2.913 2.913 0 0 1 1.824.886c.314.325.372.4.545.717.231.421.311.772.336 1.465l.021.605-.935.019c-1.034.02-1.15.041-1.655.302-.408.211-.988.802-1.191 1.213a2.651 2.651 0 0 0-.299 1.394c.036.741.288 1.306.812 1.821.307.302.593.491.979.647.422.17.721.212 1.535.212l.756.001-.024.49c-.025.498-.069.718-.226 1.109-.243.604-.838 1.234-1.451 1.533-.662.324-.383.308-5.406.308H9.206l.134-.31c.794-1.833.411-3.892-.983-5.287a4.824 4.824 0 0 0-3.416-1.403c-.432.001-1.241.152-1.65.309-.052.02-.057-.202-.042-1.773.018-1.765.02-1.802.116-2.117.216-.708.777-1.414 1.413-1.778a3.439 3.439 0 0 1 1.122-.36c.396-.043 11.733-.045 12.144-.003m-11.257 2.76c-.342.068-.519.314-.519.722 0 .462.207.693.663.739.137.014 1.842.02 3.789.013 3.456-.012 3.543-.014 3.676-.092.273-.161.396-.478.327-.845a.646.646 0 0 0-.327-.475c-.133-.078-.214-.08-3.796-.086-2.013-.003-3.729.008-3.813.024m14.94 2.508c.067.061.073.153.073 1.214 0 1.074-.005 1.152-.076 1.216-.068.062-.191.067-1.31.056l-1.234-.012-.253-.137c-.512-.278-.753-.686-.718-1.218.034-.528.356-.947.866-1.13.106-.038.472-.052 1.362-.053 1.078-.002 1.225.006 1.29.064M5.82 15.852a3.326 3.326 0 0 1 2.327 2.328c.151.541.097 1.407-.121 1.965-.327.833-1.028 1.559-1.809 1.872-.591.236-1.365.293-1.961.144-1.713-.431-2.786-2.121-2.432-3.833.257-1.244 1.259-2.236 2.536-2.51.319-.068 1.168-.048 1.46.034M3.635 17.24c-.253.134-.475.462-.475.703 0 .186.126.378.466.709l.332.325-.357.364c-.38.388-.441.49-.441.744 0 .194.045.288.235.488.188.198.322.267.525.267.236 0 .418-.112.778-.476l.317-.321.368.356c.38.367.589.478.789.419.361-.108.668-.46.668-.767 0-.242-.082-.38-.445-.753l-.313-.322.302-.298c.456-.45.541-.674.377-.995-.099-.196-.373-.431-.568-.49-.237-.071-.465.039-.851.409l-.323.31-.309-.296a4.124 4.124 0 0 0-.439-.376c-.167-.102-.444-.101-.636 0" fill-rule="evenodd" fill="#000"/></svg>