<svg width="24" height="24" fill="none" xmlns="http://www.w3.org/2000/svg"><path d="M12.2 1.416c-.26.08-7.662 2.87-8.283 3.122-1.037.421-1.88 1.478-2.095 2.625-.057.304-.063.96-.053 6.059l.011 5.718.107.387c.427 1.546 1.516 2.712 2.979 3.188.72.234.421.225 7.134.225s6.414.009 7.134-.225c1.468-.478 2.568-1.66 2.974-3.195.08-.302.105-.511.121-1.022l.021-.641.22-.139c.44-.277.746-.755.813-1.268.045-.35.045-2.15 0-2.5a1.79 1.79 0 0 0-.818-1.27l-.224-.14v-.605a6.664 6.664 0 0 0-.063-.96c-.348-1.996-1.923-3.497-3.918-3.732-.198-.024-.877-.043-1.51-.043H15.6V5.384c0-1.229-.014-1.688-.057-1.913a2.593 2.593 0 0 0-1.398-1.869c-.44-.219-.716-.282-1.223-.28-.322.002-.493.024-.722.094m1.143 1.451c.244.083.615.441.695.673.043.124.06.535.072 1.81L14.126 7h-4.013c-2.575 0-4.142.015-4.373.043a4.433 4.433 0 0 0-2.25.924l-.25.194v-.207c0-.788.396-1.536 1.006-1.903.16-.096 7.25-2.811 8.323-3.187.228-.08.533-.079.774.003m4.701 5.651a2.913 2.913 0 0 1 1.824.886c.314.325.372.4.545.717.231.421.311.772.336 1.465l.021.605-.935.019c-1.034.02-1.15.041-1.655.302-.408.211-.988.802-1.191 1.213a2.651 2.651 0 0 0-.299 1.394c.036.741.288 1.306.812 1.821.307.302.593.491.979.647.422.17.721.212 1.535.212l.756.001-.024.49c-.025.498-.069.718-.226 1.109-.243.604-.838 1.234-1.451 1.533-.673.329-.185.308-7.071.308s-6.398.021-7.071-.308c-.622-.303-1.203-.923-1.459-1.555-.217-.535-.21-.386-.21-4.517v-3.84l.092-.322c.205-.715.78-1.448 1.426-1.817a3.439 3.439 0 0 1 1.122-.36c.396-.043 11.733-.045 12.144-.003m-11.257 2.76c-.342.068-.519.314-.519.722 0 .462.207.693.663.739.137.014 1.842.02 3.789.013 3.456-.012 3.543-.014 3.676-.092.273-.161.396-.478.327-.845a.646.646 0 0 0-.327-.475c-.133-.078-.214-.08-3.796-.086-2.013-.003-3.729.008-3.813.024m14.94 2.508c.067.061.073.153.073 1.214 0 1.074-.005 1.152-.076 1.216-.068.062-.191.067-1.31.056l-1.234-.012-.253-.137c-.512-.278-.753-.686-.718-1.218.034-.528.356-.947.866-1.13.106-.038.472-.052 1.362-.053 1.078-.002 1.225.006 1.29.064" fill-rule="evenodd" fill="#000"/></svg>