<svg width="24" height="24" fill="none" xmlns="http://www.w3.org/2000/svg"><path d="M12.361 1.369c-.15.033-7.715 2.873-8.454 3.173-.353.144-.863.501-1.153.809A3.555 3.555 0 0 0 1.836 7.1c-.07.337-.075.612-.075 4.395L1.76 15.53l-.25.266C.474 16.9.037 18.56.383 20.079c.393 1.728 1.81 3.146 3.536 3.538.843.192 1.851.142 2.641-.13a5.314 5.314 0 0 0 1.06-.542l.24-.165 5.22-.023c4.564-.021 5.256-.031 5.503-.087 1.785-.4 3.067-1.619 3.525-3.35.08-.302.105-.511.121-1.022l.021-.641.22-.139c.44-.277.746-.755.813-1.268.045-.35.045-2.15 0-2.5a1.79 1.79 0 0 0-.818-1.27l-.224-.14v-.605a6.664 6.664 0 0 0-.063-.96c-.348-1.996-1.923-3.497-3.918-3.732-.198-.024-.877-.043-1.51-.043H15.6V5.384c0-1.717-.021-1.972-.199-2.423a2.691 2.691 0 0 0-1.783-1.562c-.34-.087-.94-.101-1.257-.03m.982 1.498c.244.083.615.441.695.673.043.124.06.535.072 1.81L14.126 7h-4.013c-2.575 0-4.142.015-4.373.043a4.433 4.433 0 0 0-2.25.924l-.25.194v-.207c0-.788.396-1.536 1.006-1.903.16-.096 7.25-2.811 8.323-3.187.228-.08.533-.079.774.003m4.701 5.651a2.913 2.913 0 0 1 1.824.886c.314.325.372.4.545.717.231.421.311.772.336 1.465l.021.605-.935.019c-1.034.02-1.15.041-1.655.302-.408.211-.988.802-1.191 1.213a2.651 2.651 0 0 0-.299 1.394c.036.741.288 1.306.812 1.821.307.302.593.491.979.647.422.17.721.212 1.535.212l.756.001-.024.49c-.025.498-.069.718-.226 1.109-.243.604-.838 1.234-1.451 1.533-.662.324-.382.308-5.409.308-2.454 0-4.462-.01-4.462-.021 0-.012.025-.062.056-.11.031-.049.12-.26.197-.469a4.73 4.73 0 0 0-1.096-4.997 4.824 4.824 0 0 0-3.416-1.403c-.432.001-1.241.152-1.65.309-.052.02-.057-.202-.042-1.773.018-1.765.02-1.802.116-2.117.216-.708.777-1.414 1.413-1.778a3.439 3.439 0 0 1 1.122-.36c.396-.043 11.733-.045 12.144-.003m-11.257 2.76c-.342.068-.519.314-.519.722 0 .462.207.693.663.739.137.014 1.842.02 3.789.013 3.456-.012 3.543-.014 3.676-.092.273-.161.396-.478.327-.845a.646.646 0 0 0-.327-.475c-.133-.078-.214-.08-3.796-.086-2.013-.003-3.729.008-3.813.024m14.94 2.508c.067.061.073.153.073 1.214 0 1.074-.005 1.152-.076 1.216-.068.062-.191.067-1.31.056l-1.234-.012-.253-.137c-.512-.278-.753-.686-.718-1.218.034-.528.356-.947.866-1.13.106-.038.472-.052 1.362-.053 1.078-.002 1.225.006 1.29.064M5.82 15.852a3.336 3.336 0 0 1 2.344 2.388c.083.325.073 1.229-.018 1.56-.246.898-.912 1.718-1.723 2.118-.516.255-.748.302-1.463.3-.563-.003-.65-.013-.94-.11-.533-.179-.876-.396-1.304-.824-.431-.43-.649-.777-.821-1.304-.208-.639-.169-1.573.092-2.198a3.323 3.323 0 0 1 2.373-1.964c.319-.068 1.168-.048 1.46.034m-.875 1.187a.677.677 0 0 0-.215.129c-.182.167-.21.301-.21.985 0 .555-.009.642-.07.695-.038.033-.271.18-.516.326-.245.146-.502.33-.57.408-.227.258-.152.7.172 1.014a.573.573 0 0 0 .561.155c.188-.041 1.559-.857 1.709-1.018.179-.19.201-.351.187-1.353-.012-.84-.02-.932-.094-1.059a.721.721 0 0 0-.212-.214c-.149-.087-.564-.125-.742-.068" fill-rule="evenodd" fill="#000"/></svg>