<svg width="24" height="24" fill="none" xmlns="http://www.w3.org/2000/svg"><path d="M12.2 1.416c-.262.081-7.664 2.871-8.29 3.125-.356.144-.865.501-1.156.81A3.555 3.555 0 0 0 1.836 7.1c-.069.333-.075.588-.075 3.362l-.001 3.001.09.178c.126.248.282.328.647.33.344.002.514-.075.642-.292.075-.129.083-.23.107-1.419.024-1.191.032-1.302.121-1.601.292-.979 1.082-1.752 2.113-2.066l.3-.091 5.94-.011c3.383-.006 6.095.005 6.301.025a2.911 2.911 0 0 1 1.847.888c.314.325.372.4.545.717.231.421.311.772.336 1.465l.021.605-.935.019c-1.034.02-1.15.041-1.655.302-.408.211-.988.802-1.191 1.213a2.651 2.651 0 0 0-.299 1.394c.036.741.288 1.306.812 1.821.307.302.593.491.979.647.422.17.721.212 1.535.212l.756.001-.024.49c-.025.498-.069.718-.226 1.109-.233.581-.83 1.224-1.408 1.515-.629.318-.399.299-3.954.324-3.098.021-3.184.024-3.32.103-.424.245-.424 1.073 0 1.318.137.079.201.081 3.24.081 3.362 0 3.363 0 4.054-.225 1.468-.478 2.568-1.66 2.974-3.195.08-.302.105-.511.121-1.022l.021-.641.22-.139c.44-.277.746-.755.813-1.268.045-.35.045-2.15 0-2.5a1.79 1.79 0 0 0-.818-1.27l-.224-.14v-.605a6.664 6.664 0 0 0-.063-.96c-.348-1.996-1.923-3.497-3.918-3.732-.198-.024-.877-.043-1.51-.043H15.6V5.384c0-1.229-.014-1.688-.057-1.913a2.593 2.593 0 0 0-1.398-1.869c-.44-.219-.716-.282-1.223-.28-.322.002-.493.024-.722.094m1.143 1.451c.244.083.615.441.695.673.043.124.06.535.072 1.81L14.126 7h-4.013c-2.575 0-4.142.015-4.373.043a4.433 4.433 0 0 0-2.25.924l-.25.194v-.207c0-.788.396-1.536 1.006-1.903.16-.096 7.25-2.811 8.323-3.187.228-.08.533-.079.774.003m-6.556 8.411c-.342.068-.519.314-.519.722 0 .462.207.693.663.739.137.014 1.842.02 3.789.013 3.456-.012 3.543-.014 3.676-.092.273-.161.396-.478.327-.845a.646.646 0 0 0-.327-.475c-.133-.078-.214-.08-3.796-.086-2.013-.003-3.729.008-3.813.024m14.94 2.508c.067.061.073.153.073 1.214 0 1.074-.005 1.152-.076 1.216-.068.062-.191.067-1.31.056l-1.234-.012-.253-.137c-.512-.278-.753-.686-.718-1.218.034-.528.356-.947.866-1.13.106-.038.472-.052 1.362-.053 1.078-.002 1.225.006 1.29.064m-17.754.772c-.103.046-.441.341-.88.765-.568.549-.731.731-.802.893-.11.254-.11.314 0 .568.124.284 1.448 1.571 1.727 1.677.24.092.44.037.682-.185.315-.291.383-.631.183-.912l-.088-.124h1.784c1.919 0 1.994.007 2.108.207.038.066.059.343.073.953.017.75.03.876.095.985.127.209.282.275.645.275.363 0 .518-.066.645-.275.066-.111.076-.228.088-1.015.014-.981-.011-1.178-.194-1.565-.143-.304-.5-.673-.79-.821-.43-.217-.508-.224-2.56-.224H4.795l.083-.117c.186-.261.156-.548-.087-.824-.167-.189-.418-.337-.571-.337a.836.836 0 0 0-.247.076M2.599 18.69c-.304.154-.336.253-.353 1.097-.019.925.029 1.303.212 1.675.152.309.471.647.782.829.375.219.489.229 2.552.229h1.895l-.079.13c-.188.313-.142.58.15.872.234.233.438.304.689.236.136-.037.291-.167.856-.721.38-.373.708-.677.73-.677.073 0 .247-.41.247-.58 0-.17-.174-.58-.247-.58-.022 0-.35-.304-.73-.677-.565-.554-.72-.684-.856-.721-.251-.068-.455.003-.689.236-.292.292-.338.559-.149.873l.079.131-1.843-.011-1.843-.011-.111-.111-.111-.111-.021-.87c-.019-.773-.031-.887-.101-1.01-.11-.191-.373-.318-.658-.318a.86.86 0 0 0-.401.09" fill-rule="evenodd" fill="#000"/></svg>