<svg width="24" height="24" fill="none" xmlns="http://www.w3.org/2000/svg"><path d="M8.08 1.282c-4.072.213-6.185 2.014-6.697 5.709-.113.812-.141 1.825-.141 5.009 0 4.504.06 5.273.518 6.65.772 2.313 2.446 3.576 5.267 3.972.759.106 1.875.137 4.973.137s4.214-.031 4.973-.137c2.47-.347 4.023-1.334 4.924-3.132.482-.96.741-2.121.823-3.683.051-.969.051-6.645 0-7.614-.063-1.195-.199-2.002-.478-2.837-.61-1.825-1.773-2.989-3.592-3.596-.862-.287-1.627-.416-2.844-.48-.854-.045-6.854-.043-7.726.002m8.72 1.572c2.786.462 3.914 1.6 4.348 4.386.066.421.072.824.072 4.76s-.006 4.339-.072 4.76c-.436 2.798-1.59 3.952-4.388 4.388-.421.066-.824.072-4.76.072s-4.339-.006-4.76-.072c-2.79-.435-3.957-1.597-4.386-4.368-.069-.445-.074-.791-.074-4.78 0-4.753-.004-4.663.264-5.712C3.557 4.282 4.722 3.274 6.96 2.9c.73-.123 1.088-.131 5.24-.123 3.763.007 4.222.014 4.6.077m-3.329 2.947c-.309.052-.57.153-.838.325-.367.235-6.203 6.063-6.474 6.466a2.244 2.244 0 0 0-.388 1.152c-.03.443.042.81.236 1.216.158.328.206.383 1.348 1.534.652.657 1.284 1.261 1.405 1.342.407.276.834.404 1.34.404.507 0 .934-.129 1.34-.404.121-.082 1.608-1.541 3.303-3.243 2.856-2.865 3.095-3.114 3.232-3.383.314-.611.351-1.417.094-2.03-.161-.384-.389-.648-1.575-1.824C15.401 6.272 15.275 6.16 15 6.025a2.522 2.522 0 0 0-1.529-.224m.849 1.561c.077.039.637.572 1.245 1.185 1.07 1.078 1.106 1.12 1.155 1.328.04.172.04.261.001.44l-.049.225-1.545 1.55-1.546 1.551-1.59-1.59c-.875-.875-1.591-1.609-1.591-1.632 0-.023.68-.718 1.51-1.545 1.502-1.496 1.549-1.537 1.87-1.606.129-.028.389.018.54.094m-2.75 8.288c-.522.523-1.011.979-1.085 1.015a.909.909 0 0 1-.635.054c-.172-.047-.297-.158-1.303-1.155-.618-.613-1.151-1.175-1.198-1.264-.11-.207-.116-.581-.013-.78.04-.077.498-.568 1.018-1.09l.945-.951 1.61 1.61L12.52 14.7l-.95.95" fill-rule="evenodd" fill="#000"/></svg>