<svg width="24" height="24" fill="none" xmlns="http://www.w3.org/2000/svg"><path d="M14.979 1.319a3.928 3.928 0 0 0-1.879.815c-.491.399-10.894 10.836-11.115 11.152a3.607 3.607 0 0 0-.678 2.174c.001.925.255 1.648.831 2.363.365.454 3.91 3.968 4.222 4.186.431.301.861.493 1.361.608.567.131 1.491.147 7.559.135 5.897-.012 5.982-.013 6.116-.092a.646.646 0 0 0 .327-.475c.069-.367-.054-.684-.327-.845-.134-.079-.218-.08-4.975-.091l-4.838-.011 5.123-5.129c3.217-3.221 5.19-5.226 5.304-5.389.481-.693.682-1.334.683-2.18a3.6 3.6 0 0 0-.679-2.174c-.224-.319-3.735-3.861-4.191-4.228a3.708 3.708 0 0 0-1.547-.756c-.331-.076-.981-.108-1.297-.063m1.101 1.548c.534.146.565.173 2.723 2.33 2.161 2.162 2.177 2.18 2.337 2.736.089.308.089.906 0 1.214-.164.569-.103.5-3.287 3.693l-2.972 2.98-3.35-3.35L8.18 9.119l2.96-2.954c1.895-1.892 3.028-2.994 3.15-3.064a2.323 2.323 0 0 1 1.79-.234M7.83 10.89l.69.691-2.634 2.633-2.635 2.634-.08-.114a2.315 2.315 0 0 1-.311-.668c-.089-.306-.089-.905 0-1.213.159-.551.185-.582 2.276-2.683 1.078-1.083 1.971-1.97 1.983-1.97.012 0 .332.311.711.69m2.64 2.64c.467.467.85.868.85.89 0 .022-1.179 1.219-2.62 2.66L6.08 19.7l-.889-.89-.89-.889 2.619-2.62c1.44-1.442 2.637-2.621 2.659-2.621.022 0 .423.382.891.85m1.39 5.305c-1.213 1.209-2.033 1.996-2.15 2.063-.746.43-1.671.421-2.369-.021l-.194-.124 2.636-2.636 2.637-2.637.7.701.7.7-1.96 1.954" fill-rule="evenodd" fill="#000"/></svg>