<svg width="24" height="24" fill="none" xmlns="http://www.w3.org/2000/svg"><path d="M8.08 1.281c-4.084.223-6.185 2.014-6.697 5.71-.113.812-.141 1.825-.141 5.009s.028 4.197.141 5.009c.384 2.775 1.665 4.461 3.973 5.233.835.279 1.642.415 2.837.478.969.051 6.645.051 7.614 0 1.195-.063 2.002-.199 2.837-.478 2.318-.775 3.575-2.437 3.977-5.256.089-.627.147-2.025.132-3.19-.012-.97-.02-1.067-.093-1.192-.161-.273-.478-.396-.845-.327a.646.646 0 0 0-.475.327c-.076.129-.081.233-.105 1.956-.028 1.968-.05 2.225-.275 3.128-.456 1.831-1.44 2.816-3.272 3.272-1.066.266-.943.26-5.688.26-3.936 0-4.339-.006-4.76-.072-2.79-.435-3.957-1.597-4.386-4.368-.069-.445-.074-.791-.074-4.78 0-3.989.005-4.335.074-4.78.38-2.459 1.356-3.645 3.434-4.176.88-.225 1.214-.254 3.172-.28 1.704-.023 1.807-.028 1.936-.104a.646.646 0 0 0 .327-.475c.069-.367-.054-.684-.327-.845-.128-.075-.213-.08-1.436-.085a45.11 45.11 0 0 0-1.88.026m8.907-.002c-.341.066-.519.312-.519.721 0 .418.175.653.538.723.096.018.849.034 1.674.035l1.499.002-3.946 3.95c-4.337 4.34-4.095 4.071-3.992 4.455.06.221.373.534.594.594.384.103.115.345 4.453-3.989l3.947-3.944.013 1.617c.011 1.533.016 1.624.092 1.753a.646.646 0 0 0 .475.327c.367.069.684-.054.845-.327.078-.132.08-.208.08-2.796 0-2.588-.002-2.664-.08-2.796a.652.652 0 0 0-.466-.327c-.213-.041-4.993-.04-5.207.002" fill-rule="evenodd" fill="#000"/></svg>