<svg width="24" height="24" fill="none" xmlns="http://www.w3.org/2000/svg"><path d="M11.32 1.279c-2.081.127-4.071.864-5.79 2.145-.618.46-1.646 1.488-2.106 2.106-1.549 2.078-2.288 4.52-2.143 7.08.121 2.149.837 4.107 2.143 5.86.456.613 1.485 1.641 2.106 2.105 2.076 1.551 4.54 2.295 7.097 2.142 2.163-.129 4.097-.838 5.843-2.142.617-.46 1.645-1.488 2.105-2.105a10.836 10.836 0 0 0 2.042-4.813c.082-.532.146-1.634.106-1.845-.037-.2-.126-.346-.265-.437-.235-.154-.716-.147-.933.015-.216.161-.25.279-.286.987-.072 1.42-.382 2.6-1.006 3.832-.435.857-.89 1.486-1.611 2.225-.817.839-1.559 1.38-2.562 1.869a8.914 8.914 0 0 1-4.06.937 8.914 8.914 0 0 1-4.06-.937c-1.003-.489-1.745-1.03-2.562-1.869-.767-.786-1.208-1.41-1.68-2.374A8.895 8.895 0 0 1 2.76 12c0-1.462.3-2.761.936-4.06.492-1.006 1.033-1.746 1.87-2.562.739-.72 1.368-1.176 2.225-1.611 1.235-.626 2.407-.934 3.832-1.006.708-.036.826-.07.987-.286.106-.142.155-.433.113-.66-.092-.493-.37-.599-1.403-.536m5.627 0c-.36.069-.517.312-.499.768.014.345.08.474.316.613.129.076.22.081 1.773.092l1.637.013-3.944 3.947c-4.334 4.338-4.092 4.069-3.989 4.453.06.221.373.534.594.594.384.103.115.345 4.453-3.989l3.947-3.944.013 1.637c.011 1.553.016 1.644.092 1.773.148.251.262.304.66.304s.512-.053.66-.304c.078-.132.08-.208.08-2.816 0-2.608-.002-2.684-.08-2.816a.652.652 0 0 0-.466-.327c-.213-.041-5.033-.04-5.247.002" fill-rule="evenodd" fill="#000"/></svg>