<svg width="24" height="24" fill="none" xmlns="http://www.w3.org/2000/svg"><path d="M11.72 1.785c-.165.081-3.634 3.53-3.756 3.735-.215.361.009.875.465 1.066a.539.539 0 0 0 .485-.014c.084-.039.611-.528 1.235-1.146l1.089-1.079.011 5.457c.011 5.374.012 5.458.091 5.592.161.273.478.396.845.327a.646.646 0 0 0 .475-.327c.079-.134.08-.218.091-5.592l.011-5.457 1.089 1.079c.624.618 1.151 1.107 1.235 1.146a.539.539 0 0 0 .485.014c.439-.184.668-.675.484-1.038-.077-.153-3.35-3.451-3.629-3.657-.234-.174-.488-.211-.706-.106M6.98 8.217c-2.373.342-3.858 1.355-4.608 3.143-.374.89-.545 1.767-.614 3.135-.044.883-.002 1.923.107 2.662.357 2.412 1.521 3.932 3.535 4.617.487.165.96.275 1.603.372.404.061.941.07 4.617.084 4.337.017 4.875.002 5.76-.152 1.418-.248 2.384-.708 3.212-1.528.826-.818 1.318-1.935 1.556-3.53.104-.702.103-2.899-.002-3.64-.398-2.807-1.683-4.342-4.166-4.977a6.571 6.571 0 0 0-1.487-.218c-.465-.006-.565.039-.708.316-.112.214-.112.63-.002.82.121.207.278.275.783.341 2.347.304 3.442 1.149 3.931 3.032.198.761.24 1.197.24 2.466 0 1.014-.012 1.256-.086 1.72-.385 2.418-1.439 3.433-3.931 3.789-.454.064-.885.071-4.7.071-3.804 0-4.249-.007-4.721-.071-2.473-.338-3.529-1.32-3.944-3.669-.103-.581-.147-2.253-.08-2.989.257-2.792 1.389-3.999 4.065-4.334.445-.056.672-.15.781-.324.115-.185.101-.731-.023-.898-.214-.285-.445-.335-1.118-.238" fill-rule="evenodd" fill="#000"/></svg>