<svg width="24" height="24" fill="none" xmlns="http://www.w3.org/2000/svg"><path d="M11.6 3.225c-.077.038-.772.7-1.544 1.472C8.866 5.885 8.64 6.129 8.58 6.291c-.093.248-.04.446.184.689.272.294.539.369.83.231.08-.038.456-.373.835-.745l.689-.676.011 4.335c.011 4.268.012 4.337.092 4.475.245.424 1.073.424 1.318 0 .08-.138.081-.207.092-4.475l.011-4.334.689.675c.695.682.875.814 1.109.814.283 0 .669-.321.763-.635.1-.331.046-.402-1.399-1.858-.717-.723-1.391-1.378-1.498-1.457-.234-.172-.489-.21-.706-.105m-7.813 8.053a.659.659 0 0 0-.447.326c-.071.121-.079.198-.071.676.053 2.97 1.44 5.575 3.779 7.096 1.514.985 3.516 1.468 5.57 1.344 1.333-.08 2.363-.337 3.454-.862 1.419-.682 2.5-1.651 3.348-2.998.805-1.279 1.281-2.945 1.31-4.58.009-.479.001-.555-.07-.676a.646.646 0 0 0-.475-.327c-.227-.042-.518.007-.66.113-.211.158-.25.283-.286.94-.054.979-.142 1.465-.411 2.27-.591 1.771-1.827 3.184-3.448 3.941-1.019.477-2.094.699-3.38.699-1.841 0-3.365-.482-4.623-1.462-.405-.315-.993-.934-1.31-1.378-.766-1.075-1.301-2.75-1.309-4.097-.003-.572-.087-.804-.342-.949-.144-.081-.427-.115-.629-.076" fill-rule="evenodd" fill="#000"/></svg>