<svg width="24" height="24" fill="none" xmlns="http://www.w3.org/2000/svg"><path d="M8.458 1.283a5.814 5.814 0 0 0-2.272.613 4.674 4.674 0 0 0-1.327.963c-.966.966-1.466 2.134-1.578 3.686-.053.737-.053 10.173 0 10.91.068.951.246 1.633.615 2.359.278.547.529.894.963 1.327.966.966 2.134 1.466 3.686 1.578.722.052 7.188.052 7.91 0 .951-.068 1.633-.246 2.359-.615a4.674 4.674 0 0 0 1.327-.963c.966-.966 1.466-2.134 1.578-3.686.053-.737.053-10.173 0-10.91-.068-.951-.246-1.633-.615-2.359a4.674 4.674 0 0 0-.963-1.327c-.966-.966-2.134-1.466-3.686-1.578-.651-.047-7.341-.045-7.997.002M17.12 2.85c1.626.404 2.626 1.405 3.03 3.03.057.229.066.745.079 4.31l.014 4.05H4.757l.014-4.05c.016-4.419.003-4.175.25-4.87A3.813 3.813 0 0 1 8 2.841c.165-.026.327-.054.36-.061.033-.007 1.959-.008 4.28-.003 3.735.007 4.25.016 4.48.073M6.787 6.277a.66.66 0 0 0-.443.321c-.106.182-.105.624.002.808.18.308.459.378 1.392.346.575-.019.712-.063.872-.277.168-.226.168-.724 0-.95-.172-.231-.289-.263-1.01-.272-.363-.004-.729.006-.813.024M6.599 8.85c-.25.127-.332.288-.332.65 0 .362.082.523.332.65.165.083.23.09.901.09s.736-.007.901-.09c.25-.127.328-.281.328-.65s-.078-.523-.328-.65c-.165-.083-.23-.09-.901-.09s-.736.007-.901.09m.188 2.427a.66.66 0 0 0-.443.321c-.106.182-.105.624.002.808.18.308.459.378 1.392.346.575-.019.712-.063.872-.277.168-.226.168-.724 0-.95-.172-.231-.289-.263-1.01-.272-.363-.004-.729.006-.813.024m13.441 5.533c-.022 1.113-.046 1.3-.249 1.87-.461 1.295-1.542 2.203-2.959 2.484-.413.082-8.627.082-9.04 0-1.621-.321-2.743-1.414-3.127-3.044-.043-.183-.067-.571-.081-1.31l-.021-1.05h15.498l-.021 1.05m-3.992.47c-.501.087-.721.388-.721.985 0 .438.123.69.419.86.144.083.218.095.566.095.364 0 .417-.01.586-.109.268-.158.394-.423.394-.829 0-.37-.05-.561-.19-.727-.194-.23-.64-.347-1.054-.275" fill-rule="evenodd" fill="#000"/></svg>