<svg width="24" height="24" fill="none" xmlns="http://www.w3.org/2000/svg"><path d="M21.8 1.245c-.108.032-.567.467-1.985 1.882l-1.844 1.84-.196-.139c-1.011-.721-2.389-1.329-3.641-1.604-.82-.181-1.429-.235-2.374-.213-.915.022-1.45.092-2.215.292-2.753.719-5.254 2.633-7.103 5.437-.669 1.014-.905 1.755-.949 2.98-.047 1.294.157 2.216.698 3.155.465.808 1.388 1.976 2.183 2.765l.464.46-1.776 1.78c-1.562 1.566-1.781 1.8-1.82 1.95-.067.254.002.458.236.692.234.234.437.303.692.237.154-.04 1.143-1.017 10.302-10.172 5.572-5.57 10.17-10.189 10.217-10.264a.625.625 0 0 0-.032-.692c-.229-.325-.557-.473-.857-.386m-8.968 3.276a8.458 8.458 0 0 1 2.938.863c.43.216 1.11.614 1.11.651 0 .014-.539.564-1.197 1.222l-1.197 1.196-.287-.174a5.041 5.041 0 0 0-1.277-.505 5.562 5.562 0 0 0-.745-.082 4.285 4.285 0 0 0-4.485 4.485c.013.266.049.601.082.745.088.393.31.954.505 1.277l.174.288-1.278 1.277-1.277 1.278-.506-.511c-.752-.761-1.21-1.323-1.752-2.156-.504-.776-.658-1.331-.658-2.375.001-.67.033-.915.184-1.4.148-.475.312-.76.929-1.62.58-.807 1.618-1.897 2.35-2.468 1.463-1.139 3.099-1.824 4.795-2.004a11.813 11.813 0 0 1 1.592.013m6.943 2.709c-.343.193-.495.398-.495.665 0 .24.038.31.477.879 1.017 1.319 1.262 1.943 1.261 3.226-.001 1.114-.177 1.675-.816 2.597-.606.876-1.042 1.397-1.727 2.065-1.543 1.504-3.199 2.395-5.097 2.745-.634.116-2.019.127-2.638.02a10.428 10.428 0 0 1-1.788-.491c-.702-.262-.924-.222-1.161.207-.217.395-.164.761.14.967.33.223 1.589.615 2.474.771.936.164 2.339.153 3.335-.026 3.006-.541 5.807-2.546 7.818-5.595.45-.682.636-1.089.794-1.741.138-.569.181-1.072.156-1.795-.035-.968-.185-1.598-.554-2.335-.303-.604-1.278-1.947-1.546-2.13a.64.64 0 0 0-.633-.029m-7.05 2.029c.202.055.675.244.675.271 0 .006-.872.882-1.937 1.947l-1.938 1.937-.103-.233c-.181-.41-.237-.687-.238-1.181-.001-.735.189-1.267.644-1.809a2.883 2.883 0 0 1 1.792-1.005c.208-.034.871.01 1.105.073m2.373 2.776c-.169.103-.235.219-.334.586-.168.622-.368.978-.782 1.392a2.672 2.672 0 0 1-1.342.747c-.3.069-.496.175-.602.322-.192.27-.071.888.215 1.096.315.229 1.361-.047 2.137-.564.422-.28.921-.772 1.183-1.165.537-.807.815-1.807.602-2.167-.167-.282-.787-.424-1.077-.247" fill-rule="evenodd" fill="#000"/></svg>