<svg width="24" height="24" fill="none" xmlns="http://www.w3.org/2000/svg"><path d="M11.359 3.002c-1.717.104-3.407.686-4.96 1.71C4.857 5.728 3.671 6.918 2.562 8.56c-.791 1.173-1.023 1.857-1.07 3.164-.033.934.073 1.695.334 2.387.331.881 1.314 2.259 2.411 3.383 1.746 1.787 3.729 2.909 5.912 3.343 1.069.213 2.633.213 3.702 0 2.735-.544 5.209-2.204 7.176-4.817.325-.432.796-1.149.937-1.428.412-.816.585-1.724.544-2.868-.047-1.307-.279-1.991-1.07-3.164-1.107-1.639-2.298-2.834-3.837-3.848-1.596-1.052-3.216-1.6-5.06-1.712-.352-.022-.65-.037-.661-.034a18.07 18.07 0 0 1-.521.036m2.082 1.591c2.426.451 4.6 1.904 6.391 4.274.954 1.262 1.187 1.877 1.186 3.133-.001 1.114-.177 1.675-.816 2.597-.606.876-1.042 1.397-1.727 2.065-1.543 1.504-3.198 2.395-5.097 2.745-.692.127-2.064.127-2.756 0-1.519-.28-2.951-.945-4.222-1.959-.768-.613-1.728-1.625-2.305-2.428-.617-.86-.781-1.145-.929-1.62-.151-.485-.183-.73-.184-1.4 0-1.044.154-1.599.658-2.375 1.094-1.68 2.452-3.019 3.981-3.924 1.104-.654 2.107-.991 3.559-1.197.066-.009.507-.011.98-.003.633.01.971.035 1.281.092m-2.195 3.149a4.324 4.324 0 0 0-3.327 5.676c.583 1.724 2.239 2.902 4.081 2.902 1.839 0 3.499-1.18 4.081-2.902.862-2.552-.712-5.215-3.358-5.678a5.042 5.042 0 0 0-1.477.002m1.494 1.521c.947.252 1.742 1.052 2.004 2.017.096.353.097 1.085.001 1.44a2.936 2.936 0 0 1-2.025 2.025c-.355.096-1.087.095-1.44-.001a2.915 2.915 0 0 1-2.024-2.024c-.107-.393-.099-1.088.018-1.5.263-.929 1.07-1.723 1.986-1.954.132-.034.294-.07.36-.08.213-.034.873.011 1.12.077" fill-rule="evenodd" fill="#000"/></svg>