<svg width="24" height="24" fill="none" xmlns="http://www.w3.org/2000/svg"><path d="M3.66 1.28c-1.283.115-2.039.767-2.322 2-.059.259-.071.612-.087 2.574-.024 3.018.008 3.394.356 4.106.293.601.799.993 1.533 1.186.265.07.549.074 5.36.074s5.095-.004 5.36-.074c1.144-.301 1.739-1.084 1.86-2.446.051-.567.051-4.299 0-4.9-.094-1.116-.51-1.856-1.246-2.215-.37-.181-.667-.258-1.174-.305-.463-.043-9.16-.043-9.64 0m9.903 1.544c.277.083.42.185.514.37.158.311.168.52.154 3.206-.016 2.829-.009 2.746-.261 3.041-.271.316.046.299-5.47.299-5.44 0-5.176.013-5.449-.269-.276-.284-.269-.207-.283-3.071-.013-2.685-.003-2.896.155-3.206.092-.181.236-.287.498-.367.174-.054.818-.062 5.062-.064 4.361-.003 4.885.004 5.08.061M3.42 12.804c-1.146.169-1.823.822-2.087 2.016-.051.229-.066.697-.081 2.554-.021 2.43.006 3.07.15 3.585.19.682.584 1.193 1.124 1.456.37.181.667.258 1.174.305.529.049 16.071.049 16.6 0 .507-.047.804-.124 1.174-.305.736-.359 1.152-1.099 1.246-2.215.051-.601.051-4.333 0-4.9-.12-1.353-.7-2.123-1.84-2.446-.248-.07-.642-.073-8.74-.079-4.724-.003-8.586.01-8.72.029m17.208 1.527c.233.08.443.291.533.538.075.205.109 5.182.038 5.55-.09.462-.238.638-.636.757-.197.058-1.004.064-8.563.064-7.559 0-8.366-.006-8.563-.064-.277-.083-.42-.185-.514-.37-.158-.31-.168-.521-.155-3.206.012-2.363.019-2.595.084-2.76.133-.334.363-.494.828-.573.055-.009 3.844-.014 8.42-.012 7.849.005 8.332.009 8.528.076" fill-rule="evenodd" fill="#000"/></svg>