<svg width="24" height="24" fill="none" xmlns="http://www.w3.org/2000/svg"><path d="M8.08 1.282c-4.072.213-6.185 2.014-6.697 5.709-.113.812-.141 1.825-.141 5.009s.028 4.197.141 5.009c.384 2.775 1.665 4.461 3.973 5.233 1.294.433 2.428.532 5.844.511 1.976-.012 2.066-.016 2.196-.093.273-.161.396-.478.327-.845a.646.646 0 0 0-.327-.475c-.131-.077-.231-.081-2.956-.104-3.072-.026-3.139-.03-4.128-.276-2.089-.52-3.076-1.714-3.458-4.18-.069-.445-.074-.791-.074-4.78 0-3.989.005-4.335.074-4.78.428-2.764 1.602-3.938 4.366-4.366.445-.069.791-.074 4.78-.074 4.745 0 4.622-.006 5.688.26 1.832.456 2.816 1.441 3.272 3.272.246.989.25 1.056.276 4.128.023 2.725.027 2.825.104 2.956a.646.646 0 0 0 .475.327c.367.069.684-.054.845-.327.077-.13.081-.22.093-2.196.021-3.416-.078-4.55-.511-5.844-.61-1.825-1.773-2.989-3.592-3.596-.862-.287-1.627-.416-2.844-.48-.854-.045-6.854-.043-7.726.002m8.297 7.519c-.133.065-.372.351-1.316 1.57a74.818 74.818 0 0 1-1.275 1.619c-.213.228-.16.257-1.526-.825-.418-.331-.877-.661-1.02-.733-.247-.126-.282-.132-.7-.132-.551 0-.824.091-1.153.384-.22.196-2.506 3.117-2.717 3.472-.205.344-.128.675.215.923.342.248.66.25.903.007.062-.062.623-.777 1.248-1.589 1.265-1.645 1.342-1.737 1.469-1.737.055 0 .467.298 1.082.781 1.163.914 1.358 1.026 1.83 1.051.543.029.935-.094 1.286-.403.191-.169 2.48-3.085 2.644-3.369.228-.397.031-.826-.478-1.039-.194-.081-.297-.077-.492.02m1.891 5.487c-.292.037-.635.217-.886.464-.249.245-.368.422-.613.908-.262.521-.314.567-.731.64-.821.145-1.327.448-1.604.963-.375.698-.172 1.474.593 2.261.346.357.386.457.309.781-.088.372-.112.85-.059 1.156.162.928.898 1.431 1.824 1.247.226-.045.459-.135.799-.307.27-.137.532-.243.6-.243.067 0 .33.106.6.243.594.3.967.385 1.397.319.993-.154 1.442-1.076 1.167-2.398-.034-.163-.041-.302-.02-.376.019-.065.167-.255.329-.422.638-.657.883-1.289.729-1.887-.19-.742-.734-1.16-1.74-1.337-.417-.073-.469-.119-.731-.64-.245-.486-.364-.663-.613-.908a1.577 1.577 0 0 0-1.35-.464m.407 1.645c.065.095.206.351.311.57.348.716.855 1.115 1.577 1.239.436.074.677.164.677.252 0 .099-.095.225-.449.597-.368.387-.559.743-.633 1.181-.049.291-.045.349.084 1.068.021.121.029.263.017.315-.02.081-.04.091-.146.07-.068-.014-.282-.116-.475-.226-.464-.265-.694-.333-1.138-.333-.446 0-.674.067-1.145.337-.389.223-.601.27-.628.141-.008-.042.025-.292.075-.556.081-.428.086-.512.044-.784-.071-.458-.258-.815-.636-1.212-.355-.373-.45-.499-.45-.598 0-.088.241-.178.677-.252.733-.126 1.228-.52 1.591-1.267.191-.394.413-.715.494-.715.019 0 .088.078.153.173" fill-rule="evenodd" fill="#000"/></svg>