<svg width="24" height="24" fill="none" xmlns="http://www.w3.org/2000/svg"><path d="M4.871 1.281c-.575.098-1.018.337-1.472.795a2.733 2.733 0 0 0-.724 1.184c-.089.27-.093.336-.106 1.866-.016 1.797-.002 1.918.303 2.625.294.683.466.889 2.657 3.195 2.212 2.327 2.202 2.314 2.463 3.025l.106.289.024 3.12c.025 3.338.019 3.243.241 3.732.494 1.09 1.707 1.768 2.887 1.616.356-.046.751-.166.987-.3.495-.282 1.694-1.083 1.889-1.262.276-.253.545-.644.695-1.01l.108-.264.346.111c.712.229 1.63.294 2.439.174 2.242-.333 4.043-2.038 4.547-4.307.099-.444.123-1.447.046-1.931-.264-1.665-1.227-3.093-2.643-3.921-.145-.085-.264-.165-.264-.177 0-.013.217-.217.483-.455.556-.499.798-.806 1.075-1.366.221-.445.335-.764.423-1.184.085-.404.084-3.012-.001-3.415-.196-.924-.96-1.747-1.92-2.067l-.28-.094-7.06-.006c-3.883-.003-7.145.009-7.249.027m14.294 1.584c.274.127.512.363.641.635l.114.24-.001 1.38c0 1.471-.006 1.531-.211 2.031-.209.509-.428.772-1.236 1.483-.416.366-.769.665-.784.664a96.605 96.605 0 0 1-.448-.034c-1.779-.136-3.609.692-4.719 2.138a5.514 5.514 0 0 0-.82 5.198c.309.862.956 1.801 1.602 2.326.245.198.263.223.243.343-.036.224-.227.596-.379.74-.207.196-1.567 1.063-1.819 1.16-.26.099-.677.081-.957-.042a1.422 1.422 0 0 1-.633-.594l-.098-.193-.023-3.08c-.022-2.967-.026-3.092-.107-3.4-.154-.582-.466-1.259-.771-1.674-.065-.088-1.022-1.112-2.128-2.277-1.11-1.168-2.075-2.218-2.153-2.343a4.96 4.96 0 0 1-.26-.486L4.1 6.82V3.7l.095-.18c.206-.393.453-.611.797-.704.149-.041 1.604-.05 7.088-.044l6.9.008.185.085M17.65 10.84c1.539.297 2.692 1.392 3.117 2.961.133.491.132 1.382-.002 1.899-.291 1.126-1.08 2.116-2.085 2.619-.601.3-1.098.415-1.8.415-.914 0-1.577-.212-2.3-.736a3.982 3.982 0 0 1 .135-6.598c.411-.273 1.126-.542 1.625-.611.333-.047.924-.024 1.31.051m-2.204 1.885c-.193.057-.51.389-.565.59-.082.304-.01.441.501.964l.456.465-.384.378c-.47.464-.614.674-.614.898 0 .347.427.78.77.78.233 0 .369-.091.851-.565l.442-.434.398.403c.44.443.614.556.859.556.203 0 .337-.069.525-.267.191-.201.235-.294.235-.492 0-.246-.113-.42-.556-.859l-.401-.398.435-.445c.471-.483.557-.639.504-.921-.039-.21-.43-.601-.64-.64-.282-.053-.438.033-.921.504l-.445.435-.398-.4c-.219-.221-.452-.435-.518-.476a.69.69 0 0 0-.534-.076" fill-rule="evenodd" fill="#000"/></svg>