<svg width="24" height="24" fill="none" xmlns="http://www.w3.org/2000/svg"><path d="M5.08 1.266a2.685 2.685 0 0 0-1.763.884c-.398.432-.624.915-.721 1.536-.026.171-.036.823-.026 1.744.015 1.375.022 1.489.105 1.77.122.414.477 1.128.717 1.44.11.143.825.917 1.59 1.72 2.66 2.794 2.619 2.748 2.806 3.127.344.698.332.558.332 3.759 0 1.801.016 2.941.043 3.138.201 1.447 1.594 2.503 3.08 2.336.299-.034.697-.148.935-.268.299-.15 1.777-1.131 1.968-1.305.256-.233.528-.633.675-.991l.108-.264.346.111c.712.229 1.63.294 2.439.174 2.242-.333 4.043-2.038 4.547-4.307.099-.444.123-1.447.046-1.931-.264-1.665-1.227-3.093-2.643-3.921-.145-.085-.264-.165-.264-.177 0-.013.216-.216.479-.452.679-.608 1.076-1.21 1.36-2.061.182-.546.209-.885.192-2.434-.015-1.39-.015-1.395-.123-1.714a2.87 2.87 0 0 0-1.937-1.845c-.26-.072-.555-.075-7.211-.079-3.817-.002-7.003.002-7.08.01M19.202 2.87c.218.107.498.376.6.574.139.271.166.613.15 1.883-.015 1.204-.016 1.215-.126 1.533-.13.374-.339.772-.528 1.004-.137.168-1.563 1.437-1.611 1.434l-.447-.034c-1.779-.136-3.609.692-4.719 2.138a5.514 5.514 0 0 0-.82 5.198c.309.862.956 1.801 1.602 2.326.247.2.263.223.243.345a1.79 1.79 0 0 1-.358.722c-.163.168-1.622 1.114-1.837 1.19-.24.085-.628.072-.898-.029a1.467 1.467 0 0 1-.739-.686l-.094-.208-.022-3.12c-.024-3.516 0-3.24-.353-4.057-.263-.611-.492-.929-1.227-1.703L5.985 9.24c-.743-.781-1.421-1.528-1.508-1.66a3.848 3.848 0 0 1-.287-.56l-.128-.32-.014-1.216c-.019-1.668.024-1.934.381-2.328.144-.16.283-.253.511-.343.091-.036 1.815-.046 7.1-.04l6.98.007.182.09m-1.552 7.97c1.539.297 2.692 1.392 3.117 2.961.133.491.132 1.382-.002 1.899-.291 1.126-1.08 2.116-2.085 2.619-.601.3-1.098.415-1.8.415-.914 0-1.577-.212-2.3-.736a3.982 3.982 0 0 1 .135-6.598c.411-.273 1.126-.542 1.625-.611.333-.047.924-.024 1.31.051m-.983 1.438a.656.656 0 0 0-.446.325c-.067.114-.081.228-.094.763l-.016.629-.673.012c-.734.014-.781.028-.976.288-.117.158-.118.664-.001.864.154.26.278.299 1.004.314l.646.014.015.667c.013.575.026.686.095.802.147.251.261.304.659.304s.512-.053.659-.304c.069-.116.082-.227.095-.802l.015-.667.646-.014c.558-.011.663-.024.781-.093.221-.13.292-.259.314-.573.017-.235.006-.31-.069-.465-.146-.302-.269-.342-1.039-.342h-.642l-.002-.51c-.002-.769-.066-.979-.342-1.136-.144-.081-.427-.115-.629-.076" fill-rule="evenodd" fill="#000"/></svg>