<svg width="24" height="24" fill="none" xmlns="http://www.w3.org/2000/svg"><path d="M4.614 1.359C3.698 1.6 2.935 2.371 2.656 3.34c-.058.202-.071.471-.085 1.7-.019 1.619.002 1.885.196 2.435.297.84.419.993 2.716 3.411 1.109 1.167 2.069 2.196 2.132 2.288.156.227.334.628.427.964.074.265.078.432.078 3.108 0 1.801.016 2.941.043 3.138.256 1.838 2.363 2.91 4.039 2.055.268-.137 1.655-1.046 1.789-1.173.26-.246.26-.561 0-.939-.123-.179-.365-.324-.542-.326-.159-.002-.359.106-1.158.622-.428.277-.851.529-.94.56-.24.085-.628.072-.898-.029a1.467 1.467 0 0 1-.739-.686l-.094-.208-.021-3.12-.021-3.12-.111-.36c-.139-.449-.442-1.083-.672-1.405-.096-.135-1.084-1.201-2.195-2.37-2.051-2.158-2.223-2.362-2.403-2.842-.148-.397-.165-.613-.148-1.942.015-1.219.02-1.292.107-1.513.126-.32.431-.628.736-.741l.231-.087h13.754l.228.085c.258.097.534.331.676.573.156.266.188.631.17 1.935-.015 1.102-.023 1.207-.108 1.467a3.559 3.559 0 0 1-.624 1.141c-.276.319-.361.528-.303.745.085.315.481.654.764.654.531 0 1.335-1.13 1.649-2.317.087-.329.091-.406.091-1.943V3.5l-.109-.32c-.294-.868-1.072-1.6-1.933-1.821-.304-.077-.455-.079-7.394-.077-6.789.002-7.096.006-7.37.077m13.246 9.239c-.477.103-.88.35-1.435.881-.201.192-1.094 1.085-1.986 1.985-1.141 1.152-1.652 1.695-1.726 1.836-.148.278-.211.56-.331 1.46-.113.85-.105 1.044.062 1.387.114.237.469.55.738.65.293.11.516.105 1.488-.035 1.251-.18 1.075-.063 3.068-2.038.9-.893 1.794-1.79 1.986-1.994.611-.647.828-1.056.865-1.632.04-.611-.202-1.151-.769-1.718-.533-.533-.967-.759-1.527-.797a1.932 1.932 0 0 0-.433.015m.52 1.522c.148.056.529.427.649.631.074.127.094.204.076.295-.026.131-.23.431-.403.593l-.106.099-.187-.099c-.244-.129-.72-.608-.858-.864l-.108-.201.148-.143c.334-.321.544-.404.789-.311m-1.729 1.952c.16.2.536.548.751.695l.098.067-1.14 1.145c-.627.63-1.168 1.162-1.203 1.181-.073.041-1.309.222-1.335.195-.017-.016.114-1.016.162-1.235.013-.062.471-.551 1.189-1.271l1.167-1.172.071.092.24.303" fill-rule="evenodd" fill="#000"/></svg>