<svg width="24" height="24" fill="none" xmlns="http://www.w3.org/2000/svg"><path d="m7.78 1.36-2.92.021-.28.093c-.901.301-1.552.996-1.83 1.954-.087.3-.09.371-.09 1.872 0 1.498.004 1.574.091 1.9.108.403.459 1.129.698 1.446.094.124.963 1.059 1.931 2.077 2.34 2.463 2.274 2.388 2.464 2.785.325.68.316.576.317 3.828.001 2.219.014 2.939.054 3.124.211.971.907 1.723 1.898 2.052.26.087.383.103.807.105.526.003.874-.071 1.258-.266.196-.1 1.526-.952 1.814-1.162.395-.288.815-.972.97-1.577.073-.285.078-.459.079-2.688 0-2.565.006-2.653.214-3.167.055-.137.16-.337.233-.444.085-.126.944-.914 2.425-2.222 2.534-2.24 2.596-2.304 2.989-3.106.12-.245.266-.625.326-.845l.108-.4.002-1.5c.002-1.705-.007-1.783-.283-2.346a2.792 2.792 0 0 0-1.586-1.402l-.329-.11-1.58-.011a722.7 722.7 0 0 0-9.78-.011m1.768 1.53c-.011.027-.866 1.405-1.9 3.061l-1.88 3.012-.58-.618c-.606-.645-.792-.917-.947-1.379-.081-.244-.084-.316-.073-1.72.012-1.459.012-1.467.108-1.646.21-.395.456-.612.796-.704.272-.073 4.506-.079 4.476-.006m9.578.081c.27.133.487.361.621.653l.098.213-.013 1.452-.012 1.451-.13.324c-.287.711-.283.707-2.704 2.846a216.75 216.75 0 0 0-2.369 2.112c-.319.317-.682.94-.85 1.458-.182.562-.18.528-.204 3.2l-.023 2.58-.112.238a2.526 2.526 0 0 1-.208.366c-.095.123-1.373.975-1.743 1.161-.586.295-1.414.017-1.702-.571l-.115-.234-.021-3.08c-.021-3.018-.024-3.086-.109-3.38a5.175 5.175 0 0 0-.679-1.489c-.086-.126-.569-.665-1.073-1.198-.505-.533-.916-.988-.914-1.011.004-.04 4.25-6.867 4.424-7.113l.079-.111 3.766.011 3.767.011.226.111" fill-rule="evenodd" fill="#000"/></svg>