<svg width="24" height="24" fill="none" xmlns="http://www.w3.org/2000/svg"><path d="M8.08 1.282c-4.072.213-6.185 2.014-6.697 5.709-.113.812-.141 1.825-.141 5.009 0 4.504.06 5.273.518 6.65.772 2.313 2.446 3.576 5.267 3.972.759.106 1.875.137 4.973.137s4.214-.031 4.973-.137c2.47-.347 4.023-1.334 4.924-3.132.482-.96.741-2.121.823-3.683.051-.969.051-6.645 0-7.614-.063-1.195-.199-2.002-.478-2.837-.61-1.825-1.773-2.989-3.592-3.596-.862-.287-1.627-.416-2.844-.48-.854-.045-6.854-.043-7.726.002m8.72 1.572c2.786.462 3.914 1.6 4.348 4.386.066.421.072.824.072 4.76s-.006 4.339-.072 4.76c-.436 2.798-1.59 3.952-4.388 4.388-.421.066-.824.072-4.76.072s-4.339-.006-4.76-.072c-2.79-.435-3.957-1.597-4.386-4.368-.069-.445-.074-.791-.074-4.78 0-4.753-.004-4.663.264-5.712C3.557 4.282 4.722 3.274 6.96 2.9c.73-.123 1.088-.131 5.24-.123 3.763.007 4.222.014 4.6.077M7.579 5.991c-.486.17-.901.536-1.119.989-.187.388-.235.796-.209 1.779.023.876.053 1.02.32 1.535.168.326.294.468 1.984 2.246.441.464.681.75.756.9l.109.22.024 1.84c.016 1.308.038 1.886.073 2a1.99 1.99 0 0 0 1.32 1.316c.305.09.814.083 1.13-.015.23-.071 1.06-.556 1.423-.832.166-.126.452-.559.574-.869.092-.234.095-.279.115-1.82.02-1.498.025-1.589.105-1.762.092-.199.218-.318 1.857-1.764 1.029-.907 1.217-1.118 1.442-1.614.206-.455.236-.667.236-1.706.001-1.029-.03-1.227-.25-1.603-.156-.266-.553-.619-.858-.763l-.271-.128-4.28-.009c-3.982-.009-4.294-.004-4.481.06m8.525 1.545.136.136v1.597l-.14.28c-.134.267-.197.33-1.438 1.427-.715.632-1.369 1.228-1.456 1.326-.216.246-.433.675-.527 1.042-.071.279-.079.446-.079 1.722 0 1.734.026 1.633-.497 1.968-.482.309-.596.366-.731.366-.151 0-.365-.137-.39-.249-.011-.05-.027-.883-.035-1.851-.015-1.868-.013-1.851-.222-2.372-.164-.407-.394-.69-1.565-1.925-.739-.78-1.221-1.321-1.29-1.449l-.11-.203.001-.826c.002-.881.018-.967.203-1.069.078-.043.845-.053 4.05-.055l3.954-.001.136.136" fill-rule="evenodd" fill="#000"/></svg>