<svg width="24" height="24" fill="none" xmlns="http://www.w3.org/2000/svg"><path d="M4.614 1.359C3.698 1.6 2.935 2.371 2.656 3.34c-.058.202-.071.471-.085 1.7-.019 1.619.002 1.885.196 2.435.297.84.419.993 2.716 3.411 1.109 1.167 2.069 2.196 2.132 2.288.156.227.334.628.427.964.074.265.078.432.078 3.108 0 2.937.015 3.257.169 3.668.52 1.39 2.116 2.156 3.512 1.686.353-.119.395-.142 1.319-.734 1.125-.72 1.43-1.035 1.732-1.79a2.4 2.4 0 0 0 .198-.956c.007-.56-.199-.78-.73-.78-.24 0-.328.018-.44.088-.197.123-.243.219-.304.623-.059.399-.183.703-.373.919-.149.171-1.612 1.129-1.852 1.213-.24.085-.628.072-.898-.029a1.467 1.467 0 0 1-.739-.686l-.094-.208-.021-3.12-.021-3.12-.111-.36c-.139-.449-.442-1.083-.672-1.405-.096-.135-1.084-1.201-2.195-2.37-2.051-2.158-2.223-2.362-2.403-2.842-.148-.397-.165-.613-.148-1.942.015-1.219.02-1.292.107-1.513.126-.32.431-.628.736-.741l.231-.087h13.754l.228.085c.258.097.534.331.676.573.156.266.188.631.17 1.935-.015 1.102-.023 1.207-.108 1.467a3.559 3.559 0 0 1-.624 1.141c-.276.319-.361.528-.303.745.085.315.481.654.764.654.531 0 1.335-1.13 1.649-2.317.087-.329.091-.406.091-1.943V3.5l-.109-.32c-.294-.868-1.072-1.6-1.933-1.821-.304-.077-.455-.079-7.394-.077-6.789.002-7.096.006-7.37.077m11.045 8.042c-1.625.162-2.978 1.33-3.405 2.939-.091.345-.106.48-.106.98s.015.635.106.98a3.904 3.904 0 0 0 1.1 1.869 3.868 3.868 0 0 0 3.093 1.066 3.95 3.95 0 0 0 1.47-.438l.377-.198.624.616c.778.769.874.81 1.308.562.229-.132.414-.42.414-.646a.794.794 0 0 0-.065-.303c-.036-.07-.325-.391-.644-.713l-.578-.586.164-.298A3.866 3.866 0 0 0 20 13.32a3.93 3.93 0 0 0-4.341-3.919m.949 1.523c.117.024.363.115.548.204.817.39 1.364 1.268 1.364 2.192 0 .924-.547 1.802-1.364 2.192-.404.193-.648.248-1.102.248-.689 0-1.182-.209-1.699-.719-.517-.511-.728-1.01-.728-1.721 0-.711.211-1.21.728-1.72.367-.362.628-.521 1.059-.644.285-.082.877-.098 1.194-.032" fill-rule="evenodd" fill="#000"/></svg>