<svg width="24" height="24" fill="none" xmlns="http://www.w3.org/2000/svg"><path d="M5.08 1.266a2.685 2.685 0 0 0-1.763.884c-.398.432-.624.915-.721 1.536-.026.171-.036.823-.026 1.744.015 1.375.022 1.489.105 1.77.122.414.477 1.128.717 1.44.11.143.825.917 1.59 1.72 2.66 2.794 2.619 2.748 2.806 3.127.344.698.332.558.332 3.759 0 1.801.016 2.941.043 3.138.201 1.447 1.594 2.503 3.08 2.336.299-.034.697-.148.935-.268.299-.15 1.777-1.131 1.968-1.305.256-.233.528-.633.675-.991l.108-.264.286.09c1.222.388 2.626.329 3.783-.159a5.56 5.56 0 0 0 3.267-3.943c.06-.272.075-.504.074-1.16-.002-.719-.013-.867-.095-1.2a5.646 5.646 0 0 0-1.647-2.813c-.314-.292-.855-.685-1.087-.79-.061-.027-.11-.061-.11-.074 0-.014.216-.218.479-.454.679-.608 1.076-1.21 1.36-2.061.182-.546.209-.885.192-2.434-.015-1.39-.015-1.395-.123-1.714a2.87 2.87 0 0 0-1.937-1.845c-.26-.072-.555-.075-7.211-.079-3.817-.002-7.003.002-7.08.01M19.202 2.87c.218.107.498.376.6.574.139.271.166.613.15 1.883-.015 1.204-.016 1.215-.126 1.533-.13.374-.339.772-.528 1.004-.137.168-1.563 1.437-1.611 1.434a41.401 41.401 0 0 1-.42-.035 5.877 5.877 0 0 0-1.711.152 5.525 5.525 0 0 0-3.471 2.644c-.768 1.34-.913 3.06-.384 4.541.309.862.956 1.801 1.602 2.326.247.2.263.223.243.345a1.79 1.79 0 0 1-.358.722c-.163.168-1.622 1.114-1.837 1.19-.24.085-.628.072-.898-.029a1.467 1.467 0 0 1-.739-.686l-.094-.208-.022-3.12c-.024-3.516 0-3.24-.353-4.057-.263-.611-.492-.929-1.227-1.703L5.985 9.24c-.743-.781-1.421-1.528-1.508-1.66a3.848 3.848 0 0 1-.287-.56l-.128-.32-.014-1.216c-.019-1.668.024-1.934.381-2.328.144-.16.283-.253.511-.343.091-.036 1.815-.046 7.1-.04l6.98.007.182.09m-1.636 7.952c1.593.294 2.796 1.407 3.2 2.958.129.497.131 1.481.003 1.946-.311 1.136-1.073 2.082-2.089 2.594-1.107.558-2.416.572-3.492.038-2.837-1.41-3.096-5.216-.473-6.958.411-.273 1.126-.542 1.625-.611a5.158 5.158 0 0 1 1.226.033m.874 2.057c-.077.042-.607.508-1.178 1.036l-1.039.961-.425-.414c-.462-.45-.622-.536-.9-.484-.21.039-.601.43-.64.64-.059.312.016.426.777 1.195.388.392.764.749.836.793.184.114.442.11.643-.01.089-.053.766-.654 1.504-1.336 1.441-1.33 1.532-1.436 1.491-1.739-.028-.209-.234-.497-.444-.62a.615.615 0 0 0-.625-.022" fill-rule="evenodd" fill="#000"/></svg>