<svg width="24" height="24" fill="none" xmlns="http://www.w3.org/2000/svg"><path d="M11.32 1.281c-4.279.244-8.068 3.128-9.477 7.216a10.886 10.886 0 0 0-.279 6.053 10.76 10.76 0 0 0 7.886 7.886 10.96 10.96 0 0 0 5.1 0 10.76 10.76 0 0 0 7.886-7.886 10.96 10.96 0 0 0 0-5.1 10.758 10.758 0 0 0-8.694-8.052c-.408-.067-1.668-.169-1.862-.151l-.56.034m1.826 1.541a9.086 9.086 0 0 1 2.914.874c2.817 1.383 4.708 4.026 5.118 7.158.123.932.066 2.172-.144 3.144-.289 1.345-1.031 2.857-1.913 3.902a9.31 9.31 0 0 1-3.061 2.404 8.94 8.94 0 0 1-4.06.936 8.93 8.93 0 0 1-4.06-.936c-2.817-1.383-4.708-4.026-5.118-7.158-.123-.932-.066-2.172.144-3.144.211-.982.737-2.227 1.302-3.082a9.335 9.335 0 0 1 6.552-4.097c.56-.077 1.749-.077 2.326-.001M11.08 5.258c-1.253.223-2.241.735-3.123 1.618-.729.729-1.162 1.447-1.449 2.404-.225.747-.248 1.001-.248 2.72 0 1.719.023 1.974.248 2.72.287.957.72 1.675 1.449 2.403 1.108 1.108 2.464 1.674 4.013 1.676 1.628.003 3.05-.599 4.166-1.761.944-.984 1.552-2.356 1.561-3.525.003-.433-.044-.542-.3-.692-.199-.116-.706-.114-.864.003-.18.134-.254.305-.314.724-.156 1.091-.537 1.853-1.286 2.574-.39.376-.637.555-1.038.754a4.272 4.272 0 0 1-4.255-.271c-.278-.183-.796-.675-1.028-.975a4.486 4.486 0 0 1-.792-1.8c-.087-.46-.087-3.2 0-3.66a4.486 4.486 0 0 1 .792-1.8c.235-.304.751-.792 1.04-.984 1.459-.964 3.453-.927 4.824.091.366.272.877.807 1.1 1.152.346.536.499.949.624 1.684.12.709.279.875.803.837.299-.021.48-.105.613-.283.069-.093.084-.168.081-.42-.007-.806-.378-1.882-.944-2.734-.301-.454-1.042-1.205-1.484-1.507a6.215 6.215 0 0 0-2.11-.906c-.403-.091-1.662-.116-2.079-.042m.4 3.164c-.884.191-1.633.947-1.82 1.838-.084.403-.085 3.076 0 3.48.181.864.924 1.625 1.78 1.822a3.24 3.24 0 0 0 1.12 0c.854-.196 1.6-.96 1.78-1.822.085-.404.084-3.077 0-3.48a2.433 2.433 0 0 0-1.84-1.84 2.419 2.419 0 0 0-1.02.002m.9 1.528c.172.085.334.245.434.43.083.155.086.201.086 1.58 0 1.555-.007 1.611-.234 1.87a.908.908 0 0 1-1.332 0c-.227-.259-.234-.315-.234-1.87 0-1.309.006-1.431.075-1.56.252-.474.766-.666 1.205-.45" fill-rule="evenodd" fill="#000"/></svg>