<svg width="24" height="24" fill="none" xmlns="http://www.w3.org/2000/svg"><path d="M6.458 1.282c-.848.064-1.578.261-2.272.614a4.674 4.674 0 0 0-1.327.963c-.434.433-.685.78-.963 1.327-.525 1.033-.678 1.995-.65 4.077.013.911.021 1.009.094 1.133a.646.646 0 0 0 .475.327c.367.069.684-.054.845-.327.075-.127.082-.234.106-1.696.028-1.664.039-1.773.255-2.38A3.76 3.76 0 0 1 5.32 3.021c.607-.216.716-.227 2.38-.255 1.462-.024 1.569-.031 1.696-.106.273-.161.396-.478.327-.845a.646.646 0 0 0-.327-.475c-.127-.075-.214-.08-1.316-.086a29.187 29.187 0 0 0-1.622.028m8.335-.004c-.29.056-.459.234-.517.543-.068.361.057.679.328.839.127.075.234.082 1.696.106 1.664.028 1.773.039 2.38.255a3.76 3.76 0 0 1 2.299 2.299c.216.607.227.716.255 2.38.024 1.462.031 1.569.106 1.696.161.273.478.396.845.327a.646.646 0 0 0 .475-.327c.073-.124.081-.222.094-1.133.028-2.082-.125-3.044-.65-4.077a4.674 4.674 0 0 0-.963-1.327c-.966-.966-2.134-1.466-3.686-1.578-.622-.045-2.436-.047-2.662-.003m-3.713 3.98c-1.253.223-2.241.735-3.123 1.618-.729.729-1.162 1.447-1.449 2.404-.225.747-.248 1.001-.248 2.72 0 1.719.023 1.974.248 2.72.287.957.72 1.675 1.449 2.403 1.108 1.108 2.464 1.674 4.013 1.676 1.628.003 3.05-.599 4.166-1.761.944-.984 1.552-2.356 1.561-3.525.003-.433-.044-.542-.3-.692-.199-.116-.706-.114-.864.003-.18.134-.254.305-.314.724-.156 1.091-.537 1.853-1.286 2.574-.39.376-.637.555-1.038.754a4.272 4.272 0 0 1-4.255-.271c-.278-.183-.796-.675-1.028-.975a4.486 4.486 0 0 1-.792-1.8c-.087-.46-.087-3.2 0-3.66a4.486 4.486 0 0 1 .792-1.8c.235-.304.751-.792 1.04-.984 1.459-.964 3.453-.927 4.824.091.366.272.877.807 1.1 1.152.346.536.499.949.624 1.684.12.709.279.875.803.837.299-.021.48-.105.613-.283.069-.093.084-.168.081-.42-.007-.806-.378-1.882-.944-2.734-.301-.454-1.042-1.205-1.484-1.507a6.215 6.215 0 0 0-2.11-.906c-.403-.091-1.662-.116-2.079-.042m.4 3.164c-.884.191-1.633.947-1.82 1.838-.084.403-.085 3.076 0 3.48.181.864.924 1.625 1.78 1.822a3.24 3.24 0 0 0 1.12 0c.854-.196 1.6-.96 1.78-1.822.085-.404.084-3.077 0-3.48a2.433 2.433 0 0 0-1.84-1.84 2.419 2.419 0 0 0-1.02.002m.9 1.528c.172.085.334.245.434.43.083.155.086.201.086 1.58 0 1.555-.007 1.611-.234 1.87a.908.908 0 0 1-1.332 0c-.227-.259-.234-.315-.234-1.87 0-1.309.006-1.431.075-1.56.252-.474.766-.666 1.205-.45M1.787 14.278a.659.659 0 0 0-.447.326c-.073.124-.081.222-.094 1.133-.028 2.082.125 3.044.65 4.077.278.547.529.894.963 1.327.433.434.78.685 1.327.963 1.033.525 1.995.678 4.077.65.911-.013 1.009-.021 1.133-.094.273-.161.396-.478.327-.845a.646.646 0 0 0-.327-.475c-.127-.075-.234-.082-1.696-.106-1.664-.028-1.773-.039-2.38-.255a3.76 3.76 0 0 1-2.299-2.299c-.216-.607-.227-.716-.256-2.38-.027-1.614-.03-1.639-.2-1.834-.143-.164-.482-.246-.778-.188m20 0a.659.659 0 0 0-.447.326c-.075.127-.082.234-.106 1.696-.028 1.664-.039 1.773-.255 2.38a3.76 3.76 0 0 1-2.299 2.299c-.607.216-.716.227-2.38.255-1.462.024-1.569.031-1.696.106-.273.161-.396.478-.327.845a.646.646 0 0 0 .327.475c.124.073.222.081 1.133.094 2.082.028 3.044-.125 4.077-.65a4.674 4.674 0 0 0 1.327-.963c.966-.966 1.466-2.134 1.578-3.686.049-.669.051-2.406.004-2.649-.079-.408-.458-.621-.936-.528" fill-rule="evenodd" fill="#000"/></svg>