<svg width="24" height="24" fill="none" xmlns="http://www.w3.org/2000/svg"><path d="M4.636 3.281c-1.01.113-1.621.655-1.814 1.607-.089.441-.091 3.751-.003 4.218.153.807.625 1.325 1.404 1.542.307.086.38.089 2.257.09 2.174.002 2.233-.004 2.767-.284.492-.259.802-.705.931-1.342.089-.441.091-3.751.003-4.218-.157-.825-.648-1.347-1.468-1.559-.212-.055-.538-.067-2.013-.077-.968-.006-1.897.004-2.064.023m8.963.569c-.25.127-.332.288-.332.65 0 .362.082.523.332.65l.178.09h7.446l.178-.09c.25-.127.328-.281.328-.65s-.078-.523-.328-.65l-.178-.09h-7.446l-.178.09m-5.119.98c.263.132.26.106.26 2.17s.003 2.038-.26 2.17c-.127.063-.308.07-1.98.07-2.039 0-2.051-.002-2.18-.26-.09-.179-.09-3.781 0-3.96.129-.258.141-.26 2.18-.26 1.672 0 1.853.007 1.98.07m5.119 4.02c-.25.127-.332.288-.332.65 0 .362.082.523.332.65l.178.09h7.446l.178-.09c.25-.127.328-.281.328-.65s-.078-.523-.328-.65l-.178-.09h-7.446l-.178.09m-11 5c-.25.127-.332.288-.332.65 0 .362.082.523.332.65l.178.09h18.446l.178-.09c.25-.127.328-.281.328-.65s-.078-.523-.328-.65l-.178-.09H2.777l-.178.09m0 5c-.25.127-.332.288-.332.65 0 .362.082.523.332.65l.178.09h18.446l.178-.09c.25-.127.328-.281.328-.65s-.078-.523-.328-.65l-.178-.09H2.777l-.178.09" fill-rule="evenodd" fill="#000"/></svg>