<svg width="24" height="24" fill="none" xmlns="http://www.w3.org/2000/svg"><path d="M6.227 1.278a.607.607 0 0 0-.437.325c-.066.13-.07.692-.06 10.444l.01 10.307.084.113c.143.191.313.265.611.265.331 0 .531-.088.654-.286l.091-.146.014-2.3.014-2.3 1.646-.811c7.515-3.703 7.482-3.686 8.176-4.286.577-.498 1.041-1.204 1.187-1.806.08-.331.08-.899.001-1.236-.227-.963-1.073-1.861-2.357-2.501-.22-.11-2.258-1.001-4.528-1.98L7.207 3.3l-.014-.8c-.012-.749-.019-.809-.104-.946-.143-.23-.505-.346-.862-.276m5.133 5.441c1.947.842 3.666 1.593 3.82 1.67.714.356 1.292.855 1.496 1.29.157.334.147.695-.028 1.051-.168.342-.625.81-1.096 1.123-.3.2-3.958 2.038-7.302 3.669l-1.05.512V4.923l.31.133 3.85 1.663" fill-rule="evenodd" fill="#000"/></svg>