<svg width="24" height="24" fill="none" xmlns="http://www.w3.org/2000/svg"><path d="M4.949 1.278c-.222.044-.341.119-.44.279L4.42 1.7v20.6l.091.146c.123.198.323.286.654.286.298 0 .468-.074.611-.265.083-.112.084-.137.095-2.91l.011-2.797h5.189c5.16 0 5.976-.018 6.499-.139 1.036-.241 1.679-.742 1.91-1.489.16-.519.091-1.108-.199-1.7-.258-.525-.583-.929-1.525-1.89-.497-.507-.926-.964-.953-1.015-.136-.259-.118-.758.039-1.061.047-.092.44-.526.874-.966 1.075-1.091 1.326-1.404 1.629-2.036.455-.949.271-1.959-.462-2.521-.528-.406-1.116-.594-2.077-.663-.316-.023-2.728-.039-5.734-.04H5.885l-.013-.797c-.011-.738-.018-.806-.096-.91-.164-.219-.493-.321-.827-.255m12.154 3.524c.58.103.939.293.998.529.015.057-.002.202-.038.323-.113.39-.425.787-1.386 1.765-.498.506-.968 1.02-1.045 1.141-.406.639-.535 1.5-.329 2.201.156.53.299.724 1.258 1.699.497.506.98 1.018 1.075 1.138.338.431.503.882.407 1.114-.059.142-.309.306-.643.419l-.26.089-5.63.011-5.63.011V4.76h5.493c3.662 0 5.571.014 5.73.042" fill-rule="evenodd" fill="#000"/></svg>