<svg width="24" height="24" fill="none" xmlns="http://www.w3.org/2000/svg"><path d="M21.8 1.245c-.109.032-.807.707-3.188 3.085l-3.048 3.044-.014-2.277c-.015-2.498-.012-2.471-.269-2.997-.289-.594-.908-.931-1.511-.822-.345.062-.832.32-1.143.604-.244.224-7.563 8.501-8.059 9.115-.708.876-.764 1.841-.142 2.463.195.195.63.423.954.5.125.03.738.055 1.63.068l1.43.021v.45l-3.577 3.58c-3.2 3.204-3.582 3.599-3.621 3.751-.067.255.002.458.236.692.234.234.437.303.692.237.154-.04 1.143-1.017 10.302-10.172 5.572-5.57 10.17-10.189 10.217-10.264a.625.625 0 0 0-.032-.692c-.229-.325-.557-.473-.857-.386M14.071 5.94l.011 2.92-2.079 2.078c-1.144 1.143-2.085 2.07-2.091 2.06a2.652 2.652 0 0 1-.072-.134c-.082-.159-.238-.267-.446-.307-.096-.018-.946-.034-1.889-.035-2.146-.002-2.167-.007-1.91-.404.104-.161 7.394-8.467 7.839-8.933.102-.107.258-.248.346-.313l.16-.118.06.133c.051.114.062.559.071 3.053m2.676 4.056c-.362.077-.517.316-.499.771.014.345.08.474.316.613.12.07.221.081.876.091.796.012 1.08.056 1.08.166 0 .037-.052.147-.115.245-.121.186-7.477 8.559-7.889 8.98a2.625 2.625 0 0 1-.353.31l-.115.068-.052-.13c-.038-.095-.058-.563-.074-1.75-.021-1.536-.026-1.627-.103-1.759-.128-.217-.298-.294-.642-.292-.365.002-.521.082-.649.332l-.092.179.015 1.68c.012 1.435.024 1.715.082 1.92.213.748.638 1.191 1.249 1.304.551.102 1.226-.21 1.843-.85.287-.298 7.53-8.529 7.822-8.889.548-.676.705-1.453.413-2.049-.207-.423-.704-.776-1.26-.895-.266-.057-1.639-.09-1.853-.045" fill-rule="evenodd" fill="#000"/></svg>