<svg width="24" height="24" fill="none" xmlns="http://www.w3.org/2000/svg"><path d="M13.7 1.28c-.409.087-.866.376-1.307.827-.366.374-7.694 8.699-7.914 8.99-.355.47-.55 1.096-.482 1.544.075.486.413.917.896 1.138.466.214.573.227 2.116.249l1.428.021.013 3.565c.011 3.253.018 3.587.082 3.806.219.752.639 1.191 1.25 1.304.551.102 1.226-.21 1.843-.85.287-.298 7.53-8.529 7.822-8.889.413-.509.621-1.132.547-1.639-.068-.468-.405-.893-.887-1.122-.456-.217-.566-.23-2.115-.252l-1.429-.021-.013-3.545c-.013-3.544-.013-3.546-.102-3.84-.189-.616-.474-.998-.879-1.177-.257-.114-.628-.16-.869-.109m.379 5.787c.021 3.995.021 4.008.105 4.12a.88.88 0 0 0 .22.193c.129.076.23.081 2.036.102 1.045.013 1.941.037 1.99.055.12.043.113.131-.025.345-.121.186-7.477 8.559-7.889 8.98a2.625 2.625 0 0 1-.353.31l-.115.068-.054-.13c-.043-.105-.057-.912-.074-4.13-.02-3.932-.021-4.002-.101-4.139a.744.744 0 0 0-.22-.22c-.133-.078-.22-.082-2.059-.102-1.056-.011-1.951-.036-1.99-.054-.103-.049-.086-.153.061-.371.133-.198 7.637-8.743 7.929-9.029.088-.086.214-.19.28-.23l.119-.074.06.15c.051.127.062.737.08 4.156" fill-rule="evenodd" fill="#000"/></svg>