<svg width="24" height="24" fill="none" xmlns="http://www.w3.org/2000/svg"><path d="M11.52 1.265c-2.341.116-4.483.921-6.298 2.37-1.539 1.227-2.816 3.073-3.441 4.973A10.203 10.203 0 0 0 1.24 12c0 1.231.16 2.237.541 3.392 1.187 3.608 4.227 6.32 7.983 7.124.959.205 2.426.276 3.396.164 4.275-.491 7.853-3.466 9.093-7.56.318-1.049.444-1.934.444-3.12 0-1.186-.126-2.071-.444-3.12-1.044-3.445-3.746-6.129-7.229-7.179-1.057-.318-2.426-.489-3.504-.436m1.562 1.552a9.27 9.27 0 0 1 7.578 6.001c.364.983.548 2.04.55 3.162a8.875 8.875 0 0 1-.449 2.901 9.267 9.267 0 0 1-7.833 6.321c-.633.068-1.891.03-2.488-.076-2.035-.362-3.743-1.274-5.161-2.754-3.409-3.558-3.412-9.184-.007-12.737 1.18-1.232 2.561-2.073 4.157-2.532.43-.124 1.234-.279 1.631-.315.434-.039 1.607-.023 2.022.029M12.515 5.9a1.673 1.673 0 0 0-.371.19c-.106.075-1.123 1.195-2.385 2.63-2.502 2.842-2.46 2.785-2.457 3.359.001.291.019.376.117.579.204.425.583.707 1.049.784.128.02.452.038.72.038h.489l.011 1.83.012 1.83.11.225c.131.266.437.566.701.687.149.068.266.087.55.087.328.001.384-.011.631-.132.265-.131.318-.187 2.531-2.7 1.601-1.817 2.292-2.631 2.369-2.787.093-.19.108-.27.108-.581 0-.327-.012-.386-.132-.628-.206-.418-.557-.674-1.033-.752a6.022 6.022 0 0 0-.723-.039h-.489l-.011-1.85-.012-1.85-.111-.211a1.357 1.357 0 0 0-1.183-.755 1.522 1.522 0 0 0-.491.046m.436 5.826c.162.261.277.289 1.262.313l.874.021-1.954 2.219-1.953 2.22-.02-2.04c-.019-1.96-.023-2.044-.101-2.178-.162-.275-.252-.299-1.247-.321l-.889-.02 1.949-2.215 1.948-2.214.02 2.034c.02 2.028.02 2.035.111 2.181" fill-rule="evenodd" fill="#000"/></svg>