<svg width="24" height="24" fill="none" xmlns="http://www.w3.org/2000/svg"><path d="M16.72 1.631c-.453.034-.849.234-1.228.621-.209.214-5.402 6.097-7.544 8.548-.54.618-.668 1.437-.333 2.131.172.357.357.576.65.771.444.294.547.31 2.065.329l1.35.016v3.372c0 3.239.003 3.383.079 3.627.185.6.637 1.05 1.241 1.237.34.106.83.108 1.131.007.543-.183.403-.039 4.463-4.648a736.17 736.17 0 0 0 3.982-4.54 2.55 2.55 0 0 0 .291-.454 1.896 1.896 0 0 0-1.48-2.645c-.172-.024-.824-.043-1.448-.043h-1.136l-.011-3.39-.012-3.39-.093-.258c-.171-.473-.413-.772-.826-1.02a2.004 2.004 0 0 0-1.141-.271m.443 1.606.117.117.002 3.693c.001 2.031.017 3.771.035 3.867.041.21.145.359.327.466.129.076.228.081 1.905.1l1.769.02.1.1c.138.138.164.31.069.46-.085.134-7.514 8.588-7.672 8.73-.124.112-.311.116-.485.01a1.933 1.933 0 0 1-.139-.089c-.005-.006-.019-1.748-.03-3.871l-.021-3.86-.091-.146c-.182-.293-.175-.292-2.163-.314l-1.773-.02-.097-.112c-.146-.17-.132-.387.037-.578.074-.082 1.795-2.04 3.826-4.35 2.03-2.31 3.73-4.231 3.776-4.269.138-.113.371-.091.508.046m-15.868.039c-.229.039-.369.142-.457.337-.168.37-.051.877.242 1.046.138.08.199.081 3.92.081s3.782-.001 3.92-.081c.424-.245.424-1.073 0-1.318-.138-.08-.204-.081-3.8-.087-2.013-.003-3.734.007-3.825.022m0 8c-.229.039-.369.142-.457.337-.168.37-.051.877.242 1.046.135.078.206.081 1.92.081s1.785-.003 1.92-.081a.67.67 0 0 0 .23-.258c.186-.367.073-.885-.23-1.06-.134-.077-.213-.081-1.8-.087-.913-.004-1.734.006-1.825.022m0 8c-.229.039-.369.142-.457.337-.168.37-.051.877.242 1.046.137.08.2.081 3.42.081 3.22 0 3.283-.001 3.42-.081.424-.245.424-1.073 0-1.318-.137-.079-.206-.081-3.3-.087-1.738-.003-3.234.007-3.325.022" fill-rule="evenodd" fill="#000"/></svg>