<svg width="24" height="24" fill="none" xmlns="http://www.w3.org/2000/svg"><path d="M11.32 1.281c-4.279.244-8.068 3.128-9.477 7.216a10.886 10.886 0 0 0-.279 6.053 10.76 10.76 0 0 0 7.886 7.886 10.96 10.96 0 0 0 5.1 0 10.76 10.76 0 0 0 7.886-7.886 10.96 10.96 0 0 0 0-5.1 10.758 10.758 0 0 0-8.694-8.052c-.408-.067-1.668-.169-1.862-.151l-.56.034m1.826 1.541a9.086 9.086 0 0 1 2.914.874c2.817 1.383 4.708 4.026 5.118 7.158.123.932.066 2.172-.144 3.144-.289 1.345-1.031 2.857-1.913 3.902a9.31 9.31 0 0 1-3.061 2.404 8.94 8.94 0 0 1-4.06.936 8.93 8.93 0 0 1-4.06-.936c-2.817-1.383-4.708-4.026-5.118-7.158-.123-.932-.066-2.172.144-3.144.211-.982.737-2.227 1.302-3.082a9.335 9.335 0 0 1 6.552-4.097c.56-.077 1.749-.077 2.326-.001m.775 3.402c-.12.032-.3.106-.4.163-.418.241-5.595 3.849-5.771 4.023-.431.424-.548.981-.307 1.463.219.439.554.639 1.423.853.342.084.534.15.534.183 0 .028-.183.794-.406 1.701-.351 1.429-.406 1.695-.406 1.99-.001.391.089.649.304.873.394.411.913.474 1.518.186.285-.136 5.637-3.85 5.851-4.06.597-.586.57-1.44-.061-1.905-.228-.168-.477-.263-1.106-.42-.496-.124-.501-.127-.48-.23.012-.057.196-.806.409-1.664.346-1.393.387-1.601.391-1.94.005-.477-.089-.716-.383-.981-.314-.282-.661-.355-1.11-.235m-.563 3.656c-.47 1.887-.489 2.019-.33 2.232.145.194.273.249 1.046.445.425.109.781.205.791.214.009.009-1.029.742-2.307 1.627-1.277.886-2.331 1.602-2.342 1.592-.01-.011.181-.827.425-1.815.515-2.081.52-2.127.254-2.374-.146-.136-.213-.161-.936-.339a11.315 11.315 0 0 1-.806-.217c-.015-.014 1.02-.75 2.3-1.637 1.341-.928 2.332-1.589 2.338-1.56.006.029-.189.853-.433 1.832" fill-rule="evenodd" fill="#000"/></svg>