<svg width="24" height="24" fill="none" xmlns="http://www.w3.org/2000/svg"><path d="M6.642 1.321C4.354 1.507 3.253 2.39 2.903 4.32c-.123.677-.143 1.248-.143 4.082v2.862l-.163.158c-.209.203-.563.731-.718 1.074a4.185 4.185 0 0 0-.3 1.204c-.023.265.356 5.314.464 6.18.217 1.725.953 2.513 2.607 2.791.377.063.968.069 7.35.069s6.973-.006 7.35-.069c1.654-.278 2.391-1.067 2.606-2.791.09-.717.452-5.404.455-5.88a3.79 3.79 0 0 0-.062-.79 4.03 4.03 0 0 0-.914-1.748l-.195-.213v-1.035c0-2.206-.173-3.157-.734-4.045a3.339 3.339 0 0 0-.755-.755c-.654-.413-1.347-.607-2.485-.694-.289-.022-1.278-.04-2.197-.04-1.351 0-1.698-.011-1.807-.057-.107-.044-.324-.308-1.016-1.233-.97-1.295-1.241-1.584-1.694-1.807-.501-.247-.69-.271-2.172-.284a31.747 31.747 0 0 0-1.738.022M9.74 2.859c.11.038.27.134.355.215.085.08.521.635.969 1.232 1.061 1.413 1.194 1.548 1.716 1.739.231.085.316.089 2.32.117 1.144.016 2.242.05 2.44.075 1.058.135 1.595.429 1.859 1.016.228.507.304 1.015.346 2.303l.027.856-.115-.029c-.48-.121-.621-.123-7.657-.123-7.028 0-7.177.002-7.654.122l-.113.028.018-2.615c.018-2.615.033-2.901.174-3.471.316-1.278 1.114-1.58 4.095-1.546.838.01 1.056.024 1.22.081m9.514 8.964c.383.099.698.285 1.006.595.454.457.669.959.667 1.556-.002.341-.378 5.115-.45 5.706-.046.382-.137.766-.217.918-.083.158-.302.35-.5.437-.482.212-.288.207-7.921.195-6.683-.011-7.072-.016-7.298-.085-.314-.095-.453-.167-.614-.319-.346-.326-.361-.416-.647-3.986-.218-2.727-.233-3.113-.136-3.443.166-.557.628-1.138 1.096-1.379.53-.271-.055-.252 7.734-.255 6.295-.003 7.06.004 7.28.06M9.229 16.278c-.383.076-.529.275-.529.722 0 .358.095.548.331.666.141.07.302.074 2.969.074s2.828-.004 2.969-.074c.236-.118.331-.308.331-.666 0-.358-.095-.548-.331-.666-.14-.07-.306-.074-2.869-.08-1.496-.004-2.788.007-2.871.024" fill-rule="evenodd" fill="#000"/></svg>