<svg width="24" height="24" fill="none" xmlns="http://www.w3.org/2000/svg"><path d="M6.009 1.282c-1.405.079-2.306.315-3.038.797-.984.648-1.47 1.657-1.658 3.441-.077.727-.077 12.232 0 12.96.156 1.476.499 2.371 1.168 3.039.668.669 1.563 1.012 3.039 1.168.727.077 12.233.077 12.96 0 1.476-.156 2.371-.499 3.039-1.168.669-.668 1.012-1.563 1.168-3.039.076-.718.076-8.242 0-8.96-.184-1.746-.687-2.81-1.616-3.415l-.299-.195-.025-.765a10.548 10.548 0 0 0-.086-1.114c-.215-1.225-.932-2.116-2.022-2.514-.718-.262-.414-.25-6.519-.259-3.047-.004-5.797.007-6.111.024M9.44 2.86c.322.113.533.346 1.626 1.8 1.136 1.512 1.361 1.745 1.869 1.926.364.13.579.142 3.025.172 2.049.025 2.568.043 2.88.097.768.135 1.421.421 1.691.742.291.346.495.871.615 1.583.069.41.074.743.074 4.82 0 4.06-.005 4.412-.073 4.815-.136.804-.342 1.297-.689 1.643-.346.347-.839.553-1.643.689-.409.069-.817.073-6.815.073-6.023 0-6.405-.004-6.82-.074-.74-.125-1.276-.339-1.615-.647-.324-.294-.579-.896-.711-1.679-.07-.415-.074-.797-.074-6.82 0-6.023.004-6.405.074-6.82.137-.814.389-1.392.745-1.707.222-.197.647-.403 1.041-.506.259-.067.437-.096 1.14-.183a62.25 62.25 0 0 1 1.78-.008c1.526.006 1.678.013 1.88.084m8.333-.041c.779.165 1.244.628 1.407 1.401.032.154.059.484.059.734l.001.454-.19-.026c-.668-.091-1.102-.108-3.15-.126-1.887-.016-2.309-.03-2.446-.08-.135-.048-.225-.136-.484-.468a97.886 97.886 0 0 1-1.425-1.898c-.047-.079 5.851-.071 6.228.009" fill-rule="evenodd" fill="#000"/></svg>