<svg width="24" height="24" fill="none" xmlns="http://www.w3.org/2000/svg"><path d="M6.009 1.28c-1.417.084-2.308.318-3.038.799-.984.648-1.47 1.657-1.658 3.441-.077.727-.077 12.232 0 12.96.156 1.476.499 2.371 1.168 3.039.668.669 1.563 1.012 3.039 1.168.727.077 12.233.077 12.96 0 1.476-.156 2.371-.499 3.039-1.168.669-.668 1.012-1.563 1.168-3.039.04-.379.053-1.464.053-4.48 0-4.162-.011-4.489-.181-5.371-.306-1.59-1.116-2.568-2.491-3.005-.954-.303-1.457-.347-4.188-.369-1.873-.016-2.288-.029-2.426-.079-.187-.067-.274-.172-1.535-1.855a28.594 28.594 0 0 0-.896-1.155c-.376-.409-.87-.682-1.471-.812-.32-.069-.552-.082-1.672-.094a38.828 38.828 0 0 0-1.871.02M9.44 2.86c.322.113.533.346 1.626 1.8 1.136 1.512 1.361 1.745 1.869 1.926.364.13.579.142 3.025.172 2.699.033 2.893.048 3.59.268.355.111.716.308.911.496.307.296.558.902.685 1.658.069.41.074.743.074 4.82 0 4.06-.005 4.412-.073 4.815-.136.804-.342 1.297-.689 1.643-.346.347-.839.553-1.643.689-.409.069-.817.073-6.815.073-6.023 0-6.405-.004-6.82-.074-.74-.125-1.276-.339-1.615-.647-.324-.294-.579-.896-.711-1.679-.07-.415-.074-.797-.074-6.82 0-6.023.004-6.405.074-6.82.137-.814.389-1.392.745-1.707.222-.197.647-.403 1.041-.506.259-.067.437-.096 1.14-.183a62.25 62.25 0 0 1 1.78-.008c1.526.006 1.678.013 1.88.084m-.34 11c-.301.107-.449.405-.407.818.024.229.1.363.282.5.109.081.153.082 2.918.092 2.612.01 2.817.006 2.944-.06.246-.126.303-.249.303-.65 0-.384-.041-.483-.275-.658-.109-.081-.153-.082-2.858-.091-2.296-.007-2.773.001-2.907.049" fill-rule="evenodd" fill="#000"/></svg>