<svg width="24" height="24" fill="none" xmlns="http://www.w3.org/2000/svg"><path d="M6.009 1.28c-1.417.084-2.308.318-3.038.799-.984.648-1.47 1.657-1.658 3.441-.041.391-.053 1.805-.053 6.48 0 6.284.004 6.453.181 7.371.298 1.551 1.084 2.526 2.398 2.976.904.31 1.662.388 3.801.391 1.55.002 1.626-.001 1.756-.078.273-.161.396-.478.327-.845a.646.646 0 0 0-.327-.475c-.129-.076-.233-.081-1.996-.105-2.004-.027-2.29-.053-2.95-.261-.355-.111-.716-.308-.911-.496-.307-.296-.558-.902-.685-1.658-.07-.415-.074-.797-.074-6.82 0-6.023.004-6.405.074-6.82.215-1.279.611-1.824 1.557-2.141.68-.229 1.027-.259 2.989-.259 2.104 0 2.104 0 2.482.378.122.122.655.798 1.184 1.502 1.136 1.512 1.361 1.745 1.869 1.926.363.13.582.142 3.045.173 2.252.029 2.565.041 2.94.111.718.135 1.274.373 1.558.669.188.195.385.556.496.911.208.66.234.946.261 2.95.024 1.763.029 1.867.105 1.996a.646.646 0 0 0 .475.327c.367.069.684-.054.845-.327.077-.13.08-.206.078-1.756-.003-2.139-.081-2.897-.391-3.801-.38-1.11-1.146-1.855-2.279-2.215-.954-.303-1.457-.347-4.188-.369-1.873-.016-2.288-.029-2.426-.079-.187-.067-.274-.172-1.535-1.855a28.594 28.594 0 0 0-.896-1.155c-.376-.409-.87-.682-1.471-.812-.32-.069-.552-.082-1.672-.094a38.828 38.828 0 0 0-1.871.02M16.38 13.282c-1.573.129-2.926 1.152-3.41 2.578-.135.396-.183.815-.16 1.381l.021.519-.246.128a2.714 2.714 0 0 0-.569.452c-.357.357-.561.71-.682 1.18-.09.347-.09 1.016 0 1.357a2.531 2.531 0 0 0 1.97 1.862c.278.056.701.063 3.476.051 3.151-.012 3.161-.013 3.46-.103.925-.28 1.751-.945 2.14-1.724.541-1.083.448-2.451-.236-3.477-.377-.566-.969-1.053-1.518-1.25-.256-.092-.257-.093-.325-.314-.097-.314-.385-.906-.555-1.141-.76-1.047-2.021-1.609-3.366-1.499m.918 1.539c.388.101.754.319 1.032.615.308.329.479.669.626 1.243.166.647.234.722.766.846.176.041.409.12.517.174.293.149.603.475.771.81.185.373.245.667.219 1.081-.052.843-.735 1.56-1.609 1.691-.181.027-1.297.038-3.16.03l-2.88-.011-.24-.12c-.406-.203-.58-.511-.579-1.02.002-.597.383-1.005 1.012-1.084.672-.085.894-.451.676-1.116-.185-.566-.213-1.014-.093-1.485.259-1.012 1.209-1.705 2.346-1.713.203-.001.464.025.596.059" fill-rule="evenodd" fill="#000"/></svg>