<svg width="24" height="24" fill="none" xmlns="http://www.w3.org/2000/svg"><path d="M6.009 1.28c-1.417.084-2.308.318-3.038.799-.984.648-1.47 1.657-1.658 3.441-.077.727-.077 12.232 0 12.96.156 1.476.499 2.371 1.168 3.039.668.669 1.563 1.012 3.039 1.168.727.077 12.233.077 12.96 0 1.476-.156 2.371-.499 3.039-1.168.669-.668 1.012-1.563 1.168-3.039.04-.379.053-1.464.053-4.48 0-4.162-.011-4.489-.181-5.371-.306-1.59-1.116-2.568-2.491-3.005-.954-.303-1.457-.347-4.188-.369-1.873-.016-2.288-.029-2.426-.079-.187-.067-.274-.172-1.535-1.855a28.594 28.594 0 0 0-.896-1.155c-.376-.409-.87-.682-1.471-.812-.32-.069-.552-.082-1.672-.094a38.828 38.828 0 0 0-1.871.02M9.44 2.86c.322.113.533.346 1.626 1.8 1.136 1.512 1.361 1.745 1.869 1.926.364.13.579.142 3.025.172 2.699.033 2.893.048 3.59.268.355.111.716.308.911.496.307.296.558.902.685 1.658.069.41.074.743.074 4.82 0 4.06-.005 4.412-.073 4.815-.136.804-.342 1.297-.689 1.643-.346.347-.839.553-1.643.689-.409.069-.817.073-6.815.073-6.023 0-6.405-.004-6.82-.074-.74-.125-1.276-.339-1.615-.647-.324-.294-.579-.896-.711-1.679-.07-.415-.074-.797-.074-6.82 0-6.023.004-6.405.074-6.82.137-.814.389-1.392.745-1.707.222-.197.647-.403 1.041-.506.259-.067.437-.096 1.14-.183a62.25 62.25 0 0 1 1.78-.008c1.526.006 1.678.013 1.88.084m.47 8.301a2.45 2.45 0 0 0-1.976 1.888c-.148.696.072 1.523.553 2.079.226.263 2.906 2.567 3.072 2.642.249.113.651.111.886-.004.151-.074 2.371-1.982 2.93-2.519.475-.456.712-1.03.711-1.727 0-.496-.083-.809-.315-1.19-.225-.371-.413-.576-.718-.784a2.412 2.412 0 0 0-2.843.092l-.21.161-.294-.2c-.583-.395-1.181-.541-1.796-.438m4.237 1.581a.91.91 0 0 1 .377 1.158c-.091.194-.151.252-1.476 1.413l-1.052.922-1.168-1.025c-.642-.563-1.217-1.086-1.277-1.161-.198-.249-.206-.721-.018-1.006.169-.255.388-.378.707-.396.324-.019.381.007.964.433.535.392.568.409.796.409.233 0 .283-.026.78-.408.415-.319.525-.389.698-.445.161-.052.486 0 .669.106" fill-rule="evenodd" fill="#000"/></svg>