<svg width="24" height="24" fill="none" xmlns="http://www.w3.org/2000/svg"><path d="M7.74 1.281c-2.193.12-3.138.941-3.429 2.979-.074.52-.074 8.96 0 9.48.199 1.394.686 2.17 1.629 2.599.728.331 1.155.382 3.43.41l1.87.022v1.578l-.23.085c-.66.242-1.334.915-1.575 1.574l-.084.228-1.806.012c-1.721.011-1.811.016-1.941.092a.646.646 0 0 0-.327.475c-.069.367.054.684.327.845.13.076.22.081 1.944.092l1.807.012.047.148c.18.569.708 1.178 1.318 1.52.714.4 1.846.4 2.56 0 .61-.342 1.138-.951 1.318-1.52l.047-.148 1.807-.012c1.724-.011 1.814-.016 1.944-.092a.646.646 0 0 0 .327-.475c.069-.367-.054-.684-.327-.845-.13-.076-.22-.081-1.941-.092l-1.806-.012-.084-.228c-.241-.659-.915-1.332-1.575-1.574l-.23-.085v-1.578l1.85-.023c1.017-.013 1.994-.043 2.17-.067 1.836-.248 2.669-1.099 2.907-2.966.074-.582.076-6.084.002-6.635-.186-1.391-.683-2.189-1.629-2.619-.711-.323-1.168-.381-3.26-.408-1.095-.015-1.719-.038-1.753-.065a26.453 26.453 0 0 1-.765-.985c-.392-.519-.811-1.036-.931-1.149a2.088 2.088 0 0 0-.835-.479c-.422-.125-1.527-.163-2.776-.094m2.345 1.52c.196.054.372.251 1.164 1.303.691.916.838 1.077 1.122 1.222.377.193.469.202 2.409.234 1.497.025 1.896.043 2.14.098.36.081.701.229.846.368.146.139.294.487.381.894.067.312.073.595.073 3.48s-.006 3.168-.073 3.48c-.087.407-.235.755-.381.894-.152.146-.494.29-.886.373-.317.068-.648.073-4.88.073-4.239 0-4.563-.005-4.88-.073-.407-.087-.755-.235-.894-.381-.146-.152-.29-.494-.373-.886-.068-.317-.073-.648-.073-4.88s.005-4.563.073-4.88c.08-.377.225-.73.359-.874.183-.196.552-.336 1.128-.427.394-.063 2.534-.077 2.745-.018m2.369 17.04c.29.109.596.415.705.705.176.471.068.975-.285 1.328a1.182 1.182 0 0 1-.874.366c-.508 0-.986-.327-1.163-.795-.109-.288-.094-.741.033-.987.149-.289.479-.572.77-.661.198-.06.592-.039.814.044" fill-rule="evenodd" fill="#000"/></svg>