<svg width="24" height="24" fill="none" xmlns="http://www.w3.org/2000/svg"><path d="M4.593 1.837a3.872 3.872 0 0 0-1.213.503c-.308.201-.839.732-1.04 1.04-.809 1.237-.756 2.942.129 4.106l.202.266-.195.486C1.972 9.495 1.78 10.532 1.78 12s.192 2.505.696 3.762l.195.486-.195.258c-.892 1.178-.948 2.873-.136 4.114.201.308.732.839 1.04 1.04a3.655 3.655 0 0 0 3.49.241c.307-.145.605-.333.77-.485l.1-.092.492.197c1.135.456 2.162.666 3.448.706 1.526.048 2.89-.199 4.252-.77l.312-.131.259.197c1.181.893 2.875.95 4.117.137.308-.201.839-.732 1.04-1.04a3.626 3.626 0 0 0-.137-4.117l-.197-.259.131-.312a10.228 10.228 0 0 0 0-7.864l-.131-.312.197-.259c.893-1.181.95-2.875.137-4.117-.201-.308-.732-.839-1.04-1.04a3.626 3.626 0 0 0-4.117.137l-.259.197-.312-.131c-1.362-.571-2.726-.818-4.252-.77-1.283.04-2.313.25-3.442.703l-.486.195-.266-.202a3.899 3.899 0 0 0-1.235-.595c-.448-.121-1.197-.138-1.658-.037m1.456 1.538c.459.172.75.397 1.007.778.444.658.501 1.455.155 2.167-.139.287-.604.752-.891.891-.755.366-1.577.285-2.27-.223-.763-.561-1.018-1.69-.583-2.587.142-.293.642-.793.935-.935.506-.245 1.145-.281 1.647-.091m7.226-.036a8.659 8.659 0 0 1 1.551.383c.195.069.386.135.424.147.087.026.087.028-.011.315-.107.31-.199.844-.199 1.156 0 .333.098.879.221 1.232a3.639 3.639 0 0 0 2.167 2.167c.79.276 1.605.283 2.394.02.145-.048.269-.081.275-.073.068.078.379 1.08.476 1.534.227 1.054.227 2.46.002 3.54-.097.465-.407 1.472-.478 1.554-.006.008-.13-.025-.275-.073a3.61 3.61 0 0 0-3.931 1.094 3.55 3.55 0 0 0-.79 1.728 3.505 3.505 0 0 0 .14 1.759c.048.145.081.269.073.275-.082.071-1.089.381-1.554.478-1.08.225-2.486.225-3.54-.002-.454-.097-1.456-.408-1.534-.476-.008-.006.025-.13.073-.275a3.616 3.616 0 0 0-1.097-3.935 3.634 3.634 0 0 0-2.912-.789c-.17.03-.427.095-.572.143-.145.048-.269.081-.275.073-.068-.078-.379-1.08-.476-1.534-.226-1.051-.226-2.509 0-3.56.097-.454.408-1.456.476-1.534.006-.008.13.025.275.073 1.431.476 2.96.05 3.935-1.097a3.634 3.634 0 0 0 .789-2.912 4.927 4.927 0 0 0-.143-.572c-.048-.145-.081-.269-.073-.275.008-.007.167-.068.354-.135a7.873 7.873 0 0 1 1.84-.445c.209-.024.434-.051.5-.06.24-.034 1.49.016 1.895.076m5.812-.041c.43.091.698.241 1.036.579.342.342.488.605.584 1.057.314 1.478-1.098 2.822-2.569 2.445-.394-.101-.657-.254-.96-.557-.96-.96-.793-2.45.365-3.252.407-.283 1.001-.387 1.544-.272M5.862 16.621c.394.101.657.254.96.557.412.412.618.895.618 1.448a2.103 2.103 0 0 1-3.026 1.91c-.304-.142-.8-.633-.947-.937a2.114 2.114 0 0 1 1.393-2.981c.278-.071.718-.07 1.002.003m13.218-.019a2.113 2.113 0 0 1 1.456 2.984c-.148.316-.634.802-.95.95-.936.44-1.979.186-2.601-.632-.486-.64-.559-1.474-.196-2.224.139-.287.604-.752.891-.891.435-.211.97-.283 1.4-.187" fill-rule="evenodd" fill="#000"/></svg>