<svg width="24" height="24" fill="none" xmlns="http://www.w3.org/2000/svg"><path d="M4.14 1.282c-.412.045-.637.105-.963.255a3.325 3.325 0 0 0-1.638 1.637c-.193.418-.266.793-.266 1.366.001.875.279 1.555.905 2.216.238.251.687.578.936.681l.126.053v9.02l-.126.053c-.409.169-1.006.684-1.31 1.13a3.625 3.625 0 0 0-.465 1.064c-.089.372-.09 1.068-.002 1.476.249 1.154 1.275 2.179 2.43 2.431.178.038.482.063.773.063a2.972 2.972 0 0 0 1.84-.587c.419-.298.896-.864 1.058-1.256l.052-.124h9.02l.053.126c.229.554.876 1.21 1.505 1.528.419.212.866.312 1.392.313.573 0 .948-.073 1.366-.266.924-.427 1.634-1.287 1.837-2.228.094-.432.084-1.133-.021-1.533-.152-.581-.389-1.001-.82-1.456-.238-.251-.687-.578-.936-.681l-.126-.053V7.49l.126-.053c.249-.103.698-.43.936-.681.431-.455.668-.875.82-1.456.105-.4.115-1.101.021-1.533-.203-.941-.913-1.801-1.837-2.228-.418-.193-.793-.266-1.366-.266-.875.001-1.555.279-2.216.905-.251.238-.578.687-.681.936l-.053.126H7.49l-.053-.126C7.27 2.71 6.752 2.106 6.32 1.813a3.298 3.298 0 0 0-2.18-.531M5.247 2.93c.371.183.668.485.844.86.118.251.127.3.126.69-.001.341-.018.463-.092.65a1.842 1.842 0 0 1-.999.997c-.182.072-.308.09-.648.091-.408.002-.432-.003-.723-.147a1.828 1.828 0 0 1-.847-.861c-.12-.253-.128-.298-.128-.71s.008-.457.127-.709a1.843 1.843 0 0 1 1.072-.961c.153-.055.293-.069.585-.06.35.011.412.026.683.16m15 0c.371.183.668.485.845.86.12.253.128.298.128.71s-.008.457-.128.71a1.828 1.828 0 0 1-.847.861c-.291.144-.315.149-.723.147-.34-.001-.466-.019-.648-.091a1.842 1.842 0 0 1-.999-.997c-.074-.187-.091-.309-.092-.65-.001-.39.008-.439.125-.689a1.839 1.839 0 0 1 1.071-.961c.153-.055.293-.069.585-.06.35.011.412.026.683.16m-3.991 1.92.063.33c.233 1.205 1.296 2.268 2.501 2.501l.33.063.09.018v8.476l-.09.018-.33.063c-1.195.231-2.291 1.322-2.5 2.489l-.063.342-.019.09H7.762l-.018-.09-.063-.33c-.233-1.205-1.296-2.268-2.501-2.501l-.33-.063-.09-.018V7.762l.09-.018.33-.063c1.205-.233 2.268-1.296 2.501-2.501l.063-.33.018-.09h8.476l.018.09M5.13 17.879c.431.163.822.553.997.995.072.182.089.307.09.646.001.39-.008.439-.126.69a1.817 1.817 0 0 1-.846.861c-.293.145-.313.149-.745.149s-.452-.004-.745-.149a1.828 1.828 0 0 1-.847-.861c-.12-.253-.128-.298-.128-.71s.008-.457.128-.71c.227-.48.719-.892 1.181-.99.273-.058.782-.019 1.041.079m15.131.058c.356.175.656.484.831.853.12.253.128.298.128.71s-.008.457-.128.71a1.828 1.828 0 0 1-.847.861c-.293.145-.313.149-.745.149s-.452-.004-.745-.149c-.574-.283-.934-.802-.981-1.415-.042-.555.117-.994.503-1.379.387-.388.765-.528 1.341-.499.309.015.398.037.643.159" fill-rule="evenodd" fill="#000"/></svg>