<svg width="24" height="24" fill="none" xmlns="http://www.w3.org/2000/svg"><path d="M11.732 1.301c-.251.126-.432.321-.496.537-.072.24.018.423.527 1.064l.443.558-.573.026a9.242 9.242 0 0 0-1.713.218c-1.382.297-2.856 1.007-3.981 1.917A12.25 12.25 0 0 0 4.497 7.06c-.822 1.028-1.493 2.355-1.81 3.58-.703 2.719-.231 5.534 1.315 7.841.373.557.7.949 1.235 1.479a9.58 9.58 0 0 0 4.743 2.574c1.204.264 2.836.264 4.04 0a9.554 9.554 0 0 0 4.761-2.594c1.522-1.517 2.445-3.353 2.766-5.5.084-.565.093-1.832.017-2.44a9.54 9.54 0 0 0-.921-3.06c-.324-.66-.818-1.446-1.075-1.711-.26-.268-.576-.28-.916-.033-.247.179-.345.366-.324.616.015.182.061.273.367.728.416.619.848 1.476 1.043 2.07a8.191 8.191 0 0 1 .159 4.476A8.168 8.168 0 0 1 14 21a8.352 8.352 0 0 1-4 0c-2.861-.718-5.154-3-5.883-5.853-.438-1.713-.304-3.603.368-5.168.531-1.238 1.264-2.231 2.312-3.128 1.443-1.236 3.612-1.976 5.498-1.876.578.03 1.243.132 1.402.214.156.08.555.047.699-.059.057-.042.162-.162.234-.267.218-.322.17-.668-.139-.988a40.677 40.677 0 0 1-1.104-1.339c-.51-.634-.981-1.184-1.047-1.222-.22-.125-.379-.128-.608-.013m-1.159 8.822c-.277.082-.36.249-.827 1.66-.471 1.421-.489 1.521-.311 1.77a.882.882 0 0 0 .275.214c.185.091.225.094 1.57.113.975.014 1.405.034 1.465.068.136.079.323.314.375.473.107.325-.043.715-.347.904-.152.094-.165.095-1.573.115-1.259.018-1.435.028-1.55.091-.188.103-.29.33-.29.649 0 .352.103.558.332.662.155.07.278.076 1.568.077 1.508 0 1.694-.019 2.113-.217.486-.23.994-.798 1.164-1.302.094-.278.128-.945.064-1.254-.158-.761-.838-1.472-1.621-1.695-.128-.037-.496-.065-1.025-.079l-.826-.022.129-.385.129-.385 1.444-.02c1.38-.019 1.448-.024 1.556-.103.194-.142.259-.317.245-.664-.013-.33-.068-.447-.287-.611-.108-.08-.161-.082-1.878-.089-1.01-.004-1.821.009-1.894.03" fill-rule="evenodd" fill="#000"/></svg>