<svg width="24" height="24" fill="none" xmlns="http://www.w3.org/2000/svg"><path d="M14.369 1.282c-1.808.131-2.956.84-3.493 2.161-.221.543-.334 1.123-.38 1.941l-.027.484-.565.024c-2.601.11-3.902 1.413-4.012 4.018l-.024.57h-.204c-.691 0-1.692.178-2.217.393-.862.354-1.486.982-1.809 1.819-.345.893-.417 1.729-.387 4.444.026 2.347.087 2.783.508 3.644.344.705.756 1.117 1.461 1.461.861.421 1.297.482 3.644.508 2.718.031 3.55-.042 4.448-.388.829-.32 1.463-.951 1.815-1.808.215-.525.393-1.526.393-2.217v-.204l.536-.025c2.639-.127 3.924-1.412 4.051-4.051l.025-.536h.204c.691 0 1.692-.178 2.217-.393.857-.352 1.488-.986 1.808-1.815.346-.898.419-1.73.388-4.448-.026-2.347-.087-2.783-.508-3.644-.344-.705-.756-1.117-1.461-1.461-.445-.218-.805-.326-1.4-.423-.324-.053-.792-.067-2.46-.077-1.133-.007-2.281.004-2.551.023m4.731 1.52c1.359.194 1.904.739 2.098 2.098.023.159.041 1.238.041 2.5.001 1.759-.011 2.295-.058 2.58-.182 1.122-.64 1.658-1.625 1.903-.344.086-1.352.178-1.4.128-.016-.017-.037-.616-.047-1.331-.022-1.681-.103-2.126-.538-2.978-.15-.293-.255-.431-.548-.722-.868-.862-1.904-1.139-4.273-1.14-.434 0-.79-.013-.79-.03 0-.016.018-.266.04-.554.119-1.563.649-2.21 1.993-2.436.383-.065 4.676-.08 5.107-.018M14.15 7.4c.88.068 1.509.295 1.852.667.226.245.424.682.522 1.155.077.365.085.574.104 2.488.022 2.21-.003 2.757-.151 3.29-.285 1.031-.885 1.464-2.215 1.601-.324.034-1.083.042-2.552.027-2.348-.023-2.594-.048-3.175-.324-.72-.342-1.043-.957-1.135-2.16-.053-.692-.052-4.111.001-4.545.173-1.414.762-2.018 2.139-2.193.382-.049 4.002-.053 4.61-.006m-8.309 5.35c.001 1.511.106 2.38.375 3.096.192.51.361.771.768 1.18.327.33.41.389.82.588.832.404 1.199.468 2.856.493.726.011 1.334.033 1.351.049.05.048-.042 1.056-.128 1.4-.245.985-.781 1.443-1.903 1.625-.285.047-.821.059-2.58.058-1.262 0-2.341-.018-2.5-.041-1.327-.189-1.859-.694-2.079-1.973-.087-.509-.089-4.669-.002-5.205.182-1.121.639-1.656 1.627-1.906.268-.068.768-.127 1.264-.148l.13-.006.001.79" fill-rule="evenodd" fill="#000"/></svg>