<svg width="24" height="24" fill="none" xmlns="http://www.w3.org/2000/svg"><path d="M3.541 5.685a2.84 2.84 0 0 0-1.442.699 2.75 2.75 0 0 0-.765 1.322C1.265 8 1.26 8.275 1.26 12c0 3.725.005 4 .074 4.294.265 1.131 1.275 1.973 2.46 2.05.452.029.888-.057 1.306-.258.255-.122 3.013-1.696 5.5-3.137l.38-.221.027.666c.041.994.188 1.451.641 1.992.777.927 2.107 1.226 3.183.715.161-.076.675-.358 1.141-.626 3.536-2.03 5.401-3.111 5.596-3.242 1.002-.674 1.418-1.926 1.03-3.099a2.788 2.788 0 0 0-.902-1.257c-.207-.153-1.31-.796-5.176-3.018-.913-.525-1.771-.995-1.906-1.045a2.696 2.696 0 0 0-2.966.8c-.457.546-.603 1.003-.637 1.996-.012.369-.029.67-.036.67-.008 0-.586-.33-1.285-.734-3.51-2.027-4.611-2.649-4.833-2.731-.241-.088-.763-.18-.97-.17-.059.003-.214.02-.346.04m.619 1.479c.14.03.615.279 1.531.804a624.914 624.914 0 0 1 5.16 2.977l.15.097-.01.981-.011.982-1.32.762c-3.934 2.272-5.181 2.978-5.38 3.046-.296.101-.565.072-.882-.097a1.569 1.569 0 0 1-.379-.288c-.272-.317-.259-.103-.259-4.445l.001-3.923.095-.204c.161-.345.48-.605.853-.692.209-.05.221-.05.451 0m10.02.093c.11.051 1.136.631 2.28 1.29l3.154 1.815c.591.34 1.156.689 1.256.776.263.23.369.483.37.884 0 .268-.018.358-.104.531a1.24 1.24 0 0 1-.25.331c-.26.217-6.552 3.828-6.846 3.929-.296.101-.565.072-.882-.097a1.569 1.569 0 0 1-.379-.288c-.272-.317-.259-.103-.259-4.445l.001-3.923.095-.204c.287-.616.962-.874 1.564-.599" fill-rule="evenodd" fill="#000"/></svg>