<svg width="24" height="24" fill="none" xmlns="http://www.w3.org/2000/svg"><path d="M11.732 1.301c-.251.126-.432.321-.496.537-.072.24.018.423.527 1.064l.443.558-.573.026a9.242 9.242 0 0 0-1.713.218c-1.382.297-2.856 1.007-3.981 1.917A12.25 12.25 0 0 0 4.497 7.06c-.822 1.028-1.493 2.355-1.81 3.58-.703 2.719-.231 5.534 1.315 7.841.373.557.7.949 1.235 1.479a9.58 9.58 0 0 0 4.743 2.574c1.204.264 2.836.264 4.04 0a9.554 9.554 0 0 0 4.761-2.594c1.522-1.517 2.445-3.353 2.766-5.5.084-.565.093-1.832.017-2.44a9.54 9.54 0 0 0-.921-3.06c-.324-.66-.818-1.446-1.075-1.711-.26-.268-.576-.28-.916-.033-.247.179-.345.366-.324.616.015.182.061.273.367.728.416.619.848 1.476 1.043 2.07a8.191 8.191 0 0 1 .159 4.476A8.168 8.168 0 0 1 14 21a8.352 8.352 0 0 1-4 0c-2.861-.718-5.154-3-5.883-5.853-.438-1.713-.304-3.603.368-5.168.531-1.238 1.264-2.231 2.312-3.128 1.443-1.236 3.612-1.976 5.498-1.876.578.03 1.243.132 1.402.214.156.08.555.047.699-.059.057-.042.162-.162.234-.267.218-.322.17-.668-.139-.988a40.677 40.677 0 0 1-1.104-1.339c-.51-.634-.981-1.184-1.047-1.222-.22-.125-.379-.128-.608-.013M9.22 9.913c-.113.054-.391.334-.939.946-.891.995-.947 1.066-1.008 1.269-.064.213.039.463.276.671.366.323.643.316 1.011-.025l.24-.223v1.796c0 1.783.001 1.797.09 1.974.126.248.282.328.647.33.366.002.525-.078.654-.332l.091-.179-.011-2.94c-.01-2.799-.015-2.946-.086-3.065-.108-.177-.277-.262-.56-.282-.185-.012-.284.002-.405.06m4.167-.011a2.733 2.733 0 0 0-1.847 1.478c-.258.535-.28.683-.279 1.9 0 .88.012 1.104.07 1.32.273 1.017 1.108 1.813 2.117 2.018a2.769 2.769 0 0 0 3.221-2.018c.058-.216.07-.44.07-1.32.001-1.223-.021-1.369-.284-1.906-.322-.659-.916-1.182-1.586-1.397-.419-.134-1.069-.167-1.482-.075m1.159 1.56c.251.122.47.356.601.642.097.212.098.226.086 1.205-.015 1.119-.025 1.163-.359 1.497-.599.599-1.592.434-2.002-.334-.089-.167-.092-.205-.092-1.212 0-1.012.003-1.045.093-1.22.328-.631 1.053-.881 1.673-.578" fill-rule="evenodd" fill="#000"/></svg>