<svg width="24" height="24" fill="none" xmlns="http://www.w3.org/2000/svg"><path d="M11.732 1.301c-.251.126-.432.321-.496.537-.072.24.018.423.527 1.064l.443.558-.573.026a9.242 9.242 0 0 0-1.713.218c-1.382.297-2.856 1.007-3.981 1.917A12.25 12.25 0 0 0 4.497 7.06c-.822 1.028-1.493 2.355-1.81 3.58-.703 2.719-.231 5.534 1.315 7.841.373.557.7.949 1.235 1.479a9.58 9.58 0 0 0 4.743 2.574c1.204.264 2.836.264 4.04 0a9.554 9.554 0 0 0 4.761-2.594c1.522-1.517 2.445-3.353 2.766-5.5.084-.565.093-1.832.017-2.44a9.54 9.54 0 0 0-.921-3.06c-.324-.66-.818-1.446-1.075-1.711-.26-.268-.576-.28-.916-.033-.247.179-.345.366-.324.616.015.182.061.273.367.728.416.619.848 1.476 1.043 2.07a8.191 8.191 0 0 1 .159 4.476A8.168 8.168 0 0 1 14 21a8.352 8.352 0 0 1-4 0c-2.861-.718-5.154-3-5.883-5.853-.438-1.713-.304-3.603.368-5.168.531-1.238 1.264-2.231 2.312-3.128 1.443-1.236 3.612-1.976 5.498-1.876.578.03 1.243.132 1.402.214.156.08.555.047.699-.059.057-.042.162-.162.234-.267.218-.322.17-.668-.139-.988a40.677 40.677 0 0 1-1.104-1.339c-.51-.634-.981-1.184-1.047-1.222-.22-.125-.379-.128-.608-.013M9.21 10.167c-.237.13-1.826 1.908-1.916 2.143-.087.227-.028.433.19.67.188.203.373.3.574.3.19 0 .322-.072.542-.299l.18-.185.02 1.859c.019 1.812.022 1.862.104 1.972.147.197.324.273.636.273s.489-.076.636-.273c.084-.112.084-.125.084-3.127s0-3.015-.084-3.127c-.125-.167-.308-.258-.566-.28-.19-.016-.26-.004-.4.074m3.367-.012a.778.778 0 0 0-.247.182c-.125.159-.939 2.627-.942 2.858-.004.251.099.414.349.553l.203.112 1.383.02c1.381.02 1.383.02 1.524.116.41.282.474.829.138 1.198-.203.223-.214.224-1.745.246-1.3.018-1.431.026-1.545.095-.209.127-.275.282-.275.645 0 .363.066.518.275.645.117.07.227.075 1.685.075h1.56l.261-.102a2.334 2.334 0 0 0 1.403-1.478c.116-.363.117-.996 0-1.363-.209-.662-.817-1.27-1.481-1.482-.22-.07-.4-.087-1.093-.105-.457-.011-.83-.032-.83-.045 0-.014.055-.191.123-.393l.123-.369 1.434-.012c1.386-.011 1.438-.014 1.547-.095.191-.143.265-.313.265-.611 0-.331-.088-.531-.286-.654-.145-.091-.155-.091-1.906-.101-1.648-.009-1.77-.005-1.923.065" fill-rule="evenodd" fill="#000"/></svg>