<svg width="24" height="24" fill="none" xmlns="http://www.w3.org/2000/svg"><path d="M8.08 1.282c-4.072.213-6.185 2.014-6.697 5.709-.113.812-.141 1.825-.141 5.009s.028 4.197.141 5.009c.384 2.775 1.665 4.461 3.973 5.233 1.294.433 2.428.532 5.844.511 1.976-.012 2.066-.016 2.196-.093.273-.161.396-.478.327-.845a.646.646 0 0 0-.327-.475c-.131-.077-.231-.081-2.956-.104-3.072-.026-3.139-.03-4.128-.276-2.089-.52-3.076-1.714-3.458-4.18-.069-.445-.074-.791-.074-4.78 0-3.989.005-4.335.074-4.78.428-2.764 1.602-3.938 4.366-4.366.445-.069.791-.074 4.78-.074 4.745 0 4.622-.006 5.688.26 1.832.456 2.816 1.441 3.272 3.272.246.989.25 1.056.276 4.128.023 2.725.027 2.825.104 2.956a.646.646 0 0 0 .475.327c.367.069.684-.054.845-.327.077-.13.081-.22.093-2.196.021-3.416-.078-4.55-.511-5.844-.61-1.825-1.773-2.989-3.592-3.596-.862-.287-1.627-.416-2.844-.48-.854-.045-6.854-.043-7.726.002M6.599 9.85a.67.67 0 0 0-.258.23c-.078.135-.081.206-.081 1.92s.003 1.785.081 1.92c.245.424 1.073.424 1.318 0 .078-.135.081-.206.081-1.92s-.003-1.785-.081-1.92c-.111-.193-.373-.32-.659-.32a.86.86 0 0 0-.401.09m5 0a.67.67 0 0 0-.258.23c-.078.135-.081.206-.081 1.92s.003 1.785.081 1.92a.67.67 0 0 0 .258.23c.367.186.885.073 1.06-.23.078-.135.081-.206.081-1.92s-.003-1.785-.081-1.92c-.111-.193-.373-.32-.659-.32a.86.86 0 0 0-.401.09m5 0a.67.67 0 0 0-.258.23c-.078.135-.081.206-.081 1.92s.003 1.785.081 1.92a.67.67 0 0 0 .258.23c.367.186.885.073 1.06-.23.078-.135.081-.206.081-1.92s-.003-1.785-.081-1.92c-.111-.193-.373-.32-.659-.32a.86.86 0 0 0-.401.09m.37 6.657c-.192.094-.482.433-.513.6-.056.301.023.423.776 1.183l.703.71-.703.71c-.758.766-.833.881-.774 1.192.039.21.43.601.64.64.311.059.426-.016 1.192-.774l.71-.703.71.703c.766.758.881.833 1.192.774.21-.039.601-.43.64-.64.059-.311-.016-.426-.774-1.192l-.703-.71.703-.71c.758-.766.833-.881.774-1.192-.039-.21-.43-.601-.64-.64-.311-.059-.426.016-1.192.775l-.711.703-.69-.686c-.826-.821-.994-.914-1.34-.743" fill-rule="evenodd" fill="#000"/></svg>