<svg width="24" height="24" fill="none" xmlns="http://www.w3.org/2000/svg"><path d="M15.5 4.282c-1.061.088-1.812.537-2.18 1.301-.158.327-.236.638-.28 1.117-.021.223-.038 2.869-.039 5.97L13 18.24h-1.48l-.001-3.07c-.002-3.069-.021-3.659-.138-4.11-.22-.848-.787-1.414-1.662-1.658-.674-.188-2.494-.212-3.253-.043-.979.219-1.594.803-1.852 1.762-.064.235-.071.577-.084 3.686l-.013 3.427-1.388.013c-1.304.012-1.397.018-1.525.093a.646.646 0 0 0-.327.475c-.069.367.054.684.327.845.135.079.208.08 10.396.08s10.261-.001 10.396-.08c.273-.161.396-.478.327-.845a.646.646 0 0 0-.327-.475c-.126-.074-.222-.081-1.265-.093l-1.129-.013-.012-5.927c-.013-6.636.011-6.099-.303-6.746-.275-.566-.848-1.004-1.547-1.181-.501-.127-1.743-.174-2.64-.098m2.391 1.559a.905.905 0 0 1 .538.531c.066.195.072.581.082 6.038l.011 5.83H14.52v-5.793c0-5.211.006-5.814.064-6.01.114-.381.26-.516.676-.622.28-.072 2.415-.051 2.631.026m-8.683 4.964c.44.093.612.242.728.632.057.192.064.598.064 3.51v3.293H5.997l.012-3.33c.013-3.693.005-3.575.276-3.855.119-.123.349-.226.595-.267.234-.04 2.128-.025 2.328.017" fill-rule="evenodd" fill="#000"/></svg>