<svg width="24" height="24" fill="none" xmlns="http://www.w3.org/2000/svg"><path d="M14.66 2.798c-.198.089-.277.175-.368.403-.069.171-.071.589-.052 8.879.02 8.61.021 8.701.1 8.836.13.221.259.292.573.314.363.026.609-.079.728-.313.078-.151.079-.277.079-7.884v-7.73l1.93 1.924c1.062 1.058 1.988 1.953 2.058 1.988.363.184.854-.045 1.038-.484a.53.53 0 0 0-.009-.472c-.035-.072-1.179-1.245-2.542-2.606-1.364-1.36-2.515-2.53-2.559-2.6-.102-.164-.438-.334-.654-.33a.96.96 0 0 0-.322.075m-6.048.037a.504.504 0 0 0-.25.24c-.082.162-.082.167-.082 7.892v7.73l-1.93-1.924c-1.062-1.058-1.988-1.953-2.058-1.988-.363-.184-.854.045-1.038.484a.532.532 0 0 0 .009.473c.035.073 1.179 1.246 2.543 2.606 1.363 1.359 2.517 2.533 2.563 2.607.099.16.422.324.638.325.172 0 .464-.117.561-.226a1.07 1.07 0 0 0 .14-.255c.069-.171.071-.589.052-8.879-.02-8.61-.021-8.701-.1-8.836-.134-.227-.259-.294-.587-.311-.231-.013-.328 0-.461.062" fill-rule="evenodd" fill="#000"/></svg>