<svg width="24" height="24" fill="none" xmlns="http://www.w3.org/2000/svg"><path d="M8.08 1.281c-4.082.221-6.185 2.014-6.697 5.71-.113.812-.141 1.825-.141 5.009s.028 4.197.141 5.009c.467 3.373 2.239 5.135 5.644 5.613.759.106 1.875.137 4.973.137s4.214-.031 4.973-.137c2.47-.347 4.023-1.334 4.924-3.132.483-.964.74-2.115.825-3.703.048-.895.049-4.729.002-4.975-.06-.312-.228-.477-.545-.536-.361-.068-.68.057-.839.328-.069.119-.082.233-.1.888l-.02.751-.24-.205c-.655-.561-1.204-.771-2.02-.771-.654 0-1.096.126-1.62.462-.088.056-1.148.95-2.356 1.986s-2.272 1.921-2.366 1.966c-.366.177-.883.18-1.267.006a2.292 2.292 0 0 1-.431-.306c-.691-.609-1.231-.826-2.061-.831-.612-.003-1.046.106-1.519.383-.11.064-1.094.718-2.188 1.452a108.73 108.73 0 0 1-2.046 1.358c-.068.026-.137-.244-.254-.983-.066-.423-.072-.808-.072-4.76 0-3.989.005-4.335.074-4.78.38-2.459 1.356-3.645 3.434-4.176.934-.238 1.163-.256 3.672-.281 2.206-.022 2.306-.026 2.436-.103a.646.646 0 0 0 .327-.475c.069-.367-.054-.684-.327-.845-.13-.077-.213-.08-1.936-.085-.99-.003-2.061.009-2.38.026m9.333.357c-.815.127-1.456.6-1.831 1.352-.223.445-.31.829-.311 1.37-.001.976.42 1.906 1.224 2.702.715.708 1.835 1.298 2.463 1.298.375 0 1.1-.298 1.707-.702C22.014 6.76 22.8 5.25 22.6 3.941c-.185-1.218-.922-2.053-2.01-2.278-.521-.107-.941-.059-1.44.165l-.233.104-.169-.083a2.508 2.508 0 0 0-1.335-.211m3.11 1.564c.361.183.601.64.601 1.143a1.7 1.7 0 0 1-.209.871c-.322.65-1.008 1.267-1.74 1.564-.25.102-.317.092-.699-.101-1.003-.508-1.717-1.473-1.716-2.316.002-.712.411-1.243.96-1.243.268 0 .423.072.64.299.225.234.35.301.564.301.208 0 .434-.127.662-.372.252-.271.588-.323.937-.146M8.66 5.278c-.884.107-1.633.623-2.092 1.442-.4.714-.4 1.846 0 2.56.526.939 1.385 1.451 2.432 1.451s1.906-.512 2.432-1.451c.4-.714.4-1.846 0-2.56-.575-1.026-1.636-1.578-2.772-1.442m.794 1.563c.458.172.786.655.786 1.159s-.328.987-.786 1.159c-.644.241-1.379-.083-1.617-.714-.109-.288-.094-.741.033-.987.149-.289.479-.572.77-.661.198-.06.592-.039.814.044m10.099 6.024c.096.042.515.365.932.716l.758.639-.018 1.08c-.02 1.169-.066 1.588-.265 2.388-.456 1.831-1.44 2.816-3.272 3.272-1.066.266-.943.26-5.688.26-3.936 0-4.339-.006-4.76-.072-1.636-.255-2.652-.743-3.345-1.607-.202-.251-.245-.328-.205-.366.123-.116 4.389-2.956 4.55-3.029.274-.123.796-.138 1.08-.031.244.092.344.159.741.494.513.432 1.07.656 1.737.699a2.863 2.863 0 0 0 1.745-.436c.152-.1 1.186-.962 2.298-1.917 2.493-2.14 2.362-2.034 2.612-2.123.272-.097.845-.08 1.1.033" fill-rule="evenodd" fill="#000"/></svg>