<svg width="24" height="24" fill="none" xmlns="http://www.w3.org/2000/svg"><path d="M8.08 1.282c-4.072.213-6.185 2.014-6.697 5.709-.113.812-.141 1.825-.141 5.009s.028 4.197.141 5.009c.467 3.373 2.239 5.135 5.644 5.613.759.106 1.875.137 4.973.137s4.214-.031 4.973-.137c2.47-.347 4.023-1.334 4.924-3.132.481-.959.739-2.114.824-3.683.051-.949.05-6.625-.001-7.614-.063-1.194-.199-2.001-.478-2.837-.61-1.825-1.773-2.989-3.592-3.596-.862-.287-1.627-.416-2.844-.48-.854-.045-6.854-.043-7.726.002m8.72 1.572c2.774.46 3.895 1.582 4.345 4.346.057.351.071.801.085 2.738.016 2.24.014 2.315-.057 2.26-.04-.032-.172-.14-.293-.241-.59-.494-1.136-.69-1.92-.69-.654 0-1.096.126-1.62.462-.088.056-1.148.95-2.356 1.986s-2.272 1.921-2.365 1.966c-.367.177-.884.18-1.268.006a2.292 2.292 0 0 1-.431-.306c-.691-.609-1.231-.826-2.061-.831-.612-.003-1.046.106-1.519.383-.11.064-1.094.718-2.188 1.452a108.73 108.73 0 0 1-2.046 1.358c-.068.026-.137-.244-.254-.983-.066-.423-.072-.808-.072-4.76 0-4.753-.004-4.663.264-5.712C3.557 4.282 4.722 3.274 6.96 2.9c.73-.123 1.088-.131 5.24-.123 3.763.007 4.222.014 4.6.077M8.66 5.278c-.884.107-1.633.623-2.092 1.442-.4.714-.4 1.846 0 2.56.526.939 1.385 1.451 2.432 1.451s1.906-.512 2.432-1.451c.4-.714.4-1.846 0-2.56-.575-1.026-1.636-1.578-2.772-1.442m.794 1.563c.458.172.786.655.786 1.159s-.328.987-.786 1.159c-.644.241-1.379-.083-1.617-.714-.109-.288-.094-.741.033-.987.149-.289.479-.572.77-.661.198-.06.592-.039.814.044m10.099 6.024c.096.042.515.365.932.716l.758.639-.018 1.08c-.02 1.169-.066 1.588-.265 2.388-.456 1.831-1.44 2.816-3.272 3.272-1.066.266-.943.26-5.688.26-3.936 0-4.339-.006-4.76-.072-1.636-.255-2.652-.743-3.345-1.607-.202-.251-.245-.328-.205-.366.123-.116 4.389-2.956 4.55-3.029.274-.123.796-.138 1.08-.031.244.092.344.159.741.494.513.432 1.07.656 1.737.699a2.863 2.863 0 0 0 1.745-.436c.152-.1 1.186-.962 2.298-1.917 2.493-2.14 2.362-2.034 2.612-2.123.272-.097.845-.08 1.1.033" fill-rule="evenodd" fill="#000"/></svg>