<svg width="24" height="24" fill="none" xmlns="http://www.w3.org/2000/svg"><path d="M8.08 1.281C4 1.5 1.895 3.295 1.383 6.991c-.113.812-.141 1.825-.141 5.009s.028 4.197.141 5.009c.467 3.373 2.239 5.135 5.644 5.613.759.106 1.875.137 4.973.137s4.214-.031 4.973-.137c2.47-.347 4.023-1.334 4.924-3.132.483-.964.74-2.116.825-3.703.048-.895.049-5.728.002-5.975-.06-.312-.228-.477-.545-.536-.361-.068-.679.057-.839.328-.074.126-.081.228-.1 1.388l-.02 1.251-.24-.205c-.656-.561-1.204-.771-2.02-.771-.654 0-1.096.126-1.62.462-.088.056-1.148.95-2.356 1.986s-2.272 1.921-2.366 1.966c-.366.177-.883.18-1.267.006a2.292 2.292 0 0 1-.431-.306c-.691-.609-1.231-.826-2.061-.831-.612-.003-1.046.106-1.519.383-.11.064-1.095.718-2.189 1.453a126.71 126.71 0 0 1-2.046 1.358c-.067.025-.137-.249-.253-.984-.066-.423-.072-.808-.072-4.76 0-3.989.005-4.335.074-4.78.38-2.459 1.356-3.645 3.434-4.176.971-.248 1.11-.257 4.172-.282 2.707-.021 2.805-.025 2.936-.102.273-.161.396-.478.327-.845a.646.646 0 0 0-.327-.475c-.131-.077-.213-.08-2.436-.085a91.015 91.015 0 0 0-2.88.026m11.88.004c-.247.042-.63.209-.896.393-.258.177-.76.664-2.606 2.526-1.713 1.728-1.814 1.849-1.936 2.305-.024.093-.098.549-.164 1.014-.131.923-.124 1.152.048 1.489.114.223.404.498.642.608.335.155.592.159 1.52.023.88-.129 1.136-.198 1.445-.39.247-.154 4.059-3.954 4.291-4.278.668-.931.577-1.895-.262-2.787-.694-.737-1.358-1.025-2.082-.903m.552 1.551c.178.091.631.554.687.703.1.26.009.487-.325.81l-.175.169-.219-.125c-.278-.157-.746-.631-.89-.899l-.111-.206.211-.19c.394-.356.544-.404.822-.262m-1.748 2.041c.123.145.328.344.454.443l.307.24c.073.057.012.125-1.137 1.273l-1.214 1.212-.691.1c-.38.055-.697.094-.705.087-.007-.008.03-.311.083-.673.053-.362.097-.676.098-.697.001-.022.546-.585 1.211-1.253l1.21-1.214.08.11c.044.06.181.227.304.372M8.66 5.278c-.884.107-1.633.623-2.092 1.442-.4.714-.4 1.846 0 2.56.526.939 1.385 1.451 2.432 1.451s1.906-.512 2.432-1.451c.4-.714.4-1.846 0-2.56-.575-1.026-1.636-1.578-2.772-1.442m.794 1.563c.458.172.786.655.786 1.159s-.328.987-.786 1.159c-.644.241-1.379-.083-1.617-.714-.109-.288-.094-.741.033-.987.149-.289.479-.572.77-.661.198-.06.592-.039.814.044m10.099 6.024c.096.042.515.365.932.716l.758.639-.018 1.08c-.02 1.169-.066 1.588-.265 2.388-.456 1.831-1.44 2.816-3.272 3.272-1.066.266-.943.26-5.688.26-3.936 0-4.339-.006-4.76-.072-1.636-.255-2.652-.743-3.345-1.607-.202-.251-.245-.328-.205-.366.123-.116 4.389-2.956 4.55-3.029.274-.123.796-.138 1.08-.031.244.092.344.159.741.494.513.432 1.07.656 1.737.699a2.863 2.863 0 0 0 1.745-.436c.152-.1 1.186-.962 2.298-1.917 2.493-2.14 2.362-2.034 2.612-2.123.272-.097.845-.08 1.1.033" fill-rule="evenodd" fill="#000"/></svg>