<svg width="24" height="24" fill="none" xmlns="http://www.w3.org/2000/svg"><path d="M21.801 1.246c-.098.029-.334.235-.806.701l-.668.661-.248-.169c-.541-.367-1.399-.711-2.246-.9-1.141-.254-2.001-.297-5.913-.298-3.052 0-4.127.031-4.926.141-3.361.466-5.146 2.25-5.611 5.609-.113.812-.141 1.825-.142 5.009 0 3.902.041 4.701.298 5.84.191.844.544 1.721.904 2.249l.163.24-.659.666c-.545.551-.667.696-.705.836-.068.253.002.457.236.691.234.234.437.303.692.237.154-.04 1.143-1.017 10.302-10.172 5.572-5.57 10.17-10.189 10.217-10.264a.625.625 0 0 0-.032-.692c-.229-.325-.558-.473-.856-.385M16.8 2.854c.54.086 1.174.244 1.577.392.334.123.863.386.863.429 0 .04-15.555 15.584-15.575 15.563-.01-.01-.099-.18-.199-.378-.289-.575-.467-1.183-.613-2.1-.067-.425-.073-.785-.073-4.76 0-4.753-.004-4.663.264-5.712C3.557 4.282 4.722 3.274 6.96 2.9c.731-.123 1.09-.131 5.24-.122 3.689.008 4.229.017 4.6.076M7.66 5.278c-.884.107-1.633.623-2.092 1.442-.4.714-.4 1.846 0 2.56.526.939 1.385 1.451 2.432 1.451s1.906-.512 2.432-1.451c.4-.714.4-1.846 0-2.56-.575-1.026-1.636-1.578-2.772-1.442m.794 1.563c.458.172.786.655.786 1.159s-.328.987-.786 1.159c-.644.241-1.379-.083-1.617-.714-.109-.288-.094-.741.033-.987.149-.289.479-.572.77-.661.198-.06.592-.039.814.044m13.209.458a.927.927 0 0 0-.28.179l-.123.123-.011 1.804-.011 1.803-.31-.295c-.371-.355-.68-.549-1.108-.698-.288-.1-.374-.111-.86-.111s-.572.011-.86.111c-.617.214-.616.213-3.469 3.059l-2.669 2.662-.091-.083a.594.594 0 0 0-.426-.18c-.427-.006-.865.495-.789.902.038.199.36.54.65.687.215.108.268.118.654.118.712 0 .467.199 3.56-2.88 1.485-1.478 2.763-2.725 2.84-2.77.359-.21.881-.196 1.24.032.099.063.51.446.914.851l.735.736-.02 1.516c-.021 1.639-.049 1.94-.269 2.823-.456 1.831-1.441 2.816-3.272 3.272-1.051.261-.907.254-5.388.27-2.873.01-4.216.001-4.54-.031-.92-.092-1.087-.092-1.228-.003-.168.105-.28.332-.312.627-.032.305.082.553.311.669.209.106.754.181 1.669.227 1.009.052 6.635.052 7.607.001 1.195-.063 2.002-.199 2.837-.478 2.322-.776 3.581-2.445 3.978-5.269.108-.769.139-1.89.137-4.993-.003-3.461-.027-4.223-.145-4.427-.154-.269-.586-.384-.951-.254" fill-rule="evenodd" fill="#000"/></svg>