<svg width="24" height="24" fill="none" xmlns="http://www.w3.org/2000/svg"><path d="M7.4 1.282c-1.888.121-3.298.834-4.163 2.104-.584.859-.874 1.796-.957 3.088-.052.826-.052 10.226 0 11.052.083 1.29.375 2.233.961 3.093.602.884 1.502 1.516 2.62 1.84.958.278 1.398.299 6.139.299 3.92 0 4.791-.021 5.441-.135 2.262-.397 3.705-1.81 4.158-4.068.141-.705.161-1.493.161-6.555 0-5.074-.019-5.847-.163-6.566-.257-1.291-.882-2.371-1.752-3.028-.95-.718-1.875-1.031-3.325-1.126-.671-.044-8.434-.043-9.12.002m10.005 1.606c.792.196 1.314.47 1.775.932.468.468.741.992.933 1.795l.107.445v11.88l-.107.445c-.192.803-.465 1.327-.933 1.795-.468.468-.992.741-1.795.933l-.445.107H7.06l-.445-.107c-1.523-.365-2.349-1.185-2.727-2.708l-.105-.425-.014-5.72c-.009-3.805.001-5.842.028-6.083C4.024 4.206 5.14 3.06 7.08 2.803c.143-.019 2.429-.031 5.08-.027l4.82.007.425.105M7.4 4.281c-.897.109-1.709.79-2.028 1.699l-.112.32v3.4l.112.32c.261.75.856 1.344 1.608 1.608l.32.112h4.68c4.395 0 4.694-.004 4.913-.072a2.6 2.6 0 0 0 1.775-1.775c.064-.209.072-.407.072-1.893s-.008-1.684-.072-1.893c-.269-.871-.867-1.476-1.752-1.773-.203-.068-.491-.073-4.736-.079-2.486-.003-4.637.008-4.78.026m9.176 1.523c.21.058.562.41.62.62.059.212.059 2.94 0 3.152-.058.21-.41.562-.62.62-.219.061-8.933.061-9.152 0-.21-.058-.562-.41-.62-.62C6.776 9.477 6.76 8.898 6.76 8s.016-1.477.044-1.576c.054-.196.412-.564.601-.618.197-.057 8.967-.059 9.171-.002m-.34 8.556c-.557.096-.819.541-.712 1.209.052.318.156.484.389.621.17.1.223.11.587.11s.417-.01.587-.11c.233-.137.337-.303.389-.621.066-.412-.028-.796-.243-.997-.197-.185-.628-.276-.997-.212m-6.18.196c-.09.041-.333.237-.54.435l-.376.361-.384-.373c-.581-.563-.823-.598-1.239-.182-.416.416-.381.658.182 1.239l.372.384-.372.39c-.441.463-.539.657-.462.915.057.192.311.481.501.571.317.151.523.067 1.044-.426l.38-.36.413.402c.449.436.611.522.887.47.21-.039.601-.43.64-.64.052-.276-.034-.438-.47-.887l-.402-.413.36-.38c.471-.498.564-.702.452-.997-.061-.16-.327-.431-.502-.51-.201-.092-.279-.092-.484.001m4.054 1.978c-.424.119-.611.433-.603 1.006.006.341.094.578.277.738.18.159.41.214.8.194.59-.031.845-.28.885-.864.035-.519-.105-.837-.442-1.004-.234-.116-.643-.147-.917-.07" fill-rule="evenodd" fill="#000"/></svg>