<svg width="24" height="24" fill="none" xmlns="http://www.w3.org/2000/svg"><path d="M12.787 1.278a.793.793 0 0 0-.26.109c-.2.147-.234.275-.264 1.022-.024.567-.041.703-.096.759-.043.043-.179.082-.377.106-.9.111-1.55.838-1.55 1.734v.232h-.65c-.868.001-2.037.065-2.596.142-3.361.466-5.146 2.25-5.611 5.609-.19 1.371-.19 4.647 0 6.018.384 2.775 1.665 4.461 3.973 5.233.835.279 1.642.415 2.837.478.969.051 6.645.051 7.614 0 1.195-.063 2.002-.199 2.837-.478 2.322-.776 3.581-2.445 3.978-5.269.182-1.298.182-4.648 0-5.946a9.043 9.043 0 0 0-.38-1.671c-.61-1.825-1.773-2.989-3.592-3.596-1.242-.414-2.291-.519-5.18-.52-1.536 0-1.593-.003-1.67-.08-.095-.095-.102-.191-.02-.308.045-.065.118-.093.29-.111.805-.087 1.345-.501 1.593-1.221.065-.187.076-.34.076-1.02.001-.762-.003-.807-.09-.946-.143-.23-.505-.346-.862-.276M16.8 6.854c2.786.462 3.914 1.6 4.348 4.386.063.403.072.747.072 2.76s-.009 2.357-.072 2.76c-.436 2.798-1.59 3.952-4.388 4.388-.421.066-.824.072-4.76.072s-4.339-.006-4.76-.072c-2.79-.435-3.957-1.597-4.386-4.368-.066-.426-.074-.739-.074-2.78 0-2.53.015-2.737.264-3.712C3.557 8.282 4.722 7.274 6.96 6.9c.73-.123 1.088-.131 5.24-.123 3.763.007 4.222.014 4.6.077m-1.843 4.296a.59.59 0 0 0-.327.327c-.091.18-.11.269-.11.52.001.383.052.568.208.746.185.211.354.27.772.273.295.001.39-.014.525-.086.337-.177.454-.418.455-.933 0-.251-.019-.34-.11-.52a.59.59 0 0 0-.327-.327c-.184-.093-.267-.11-.543-.11s-.359.017-.543.11m-8.58.593c-.457.158-.724.64-.553 1 .04.084.315.402.611.706l.537.553-.58.589c-.734.745-.777.85-.526 1.282.202.347.633.502.946.341.07-.036.375-.309.677-.606l.549-.54.572.557c.584.569.764.695.99.695.283 0 .669-.321.763-.635.086-.287-.012-.453-.665-1.121l-.57-.584.57-.582c.604-.616.692-.756.648-1.028-.052-.322-.456-.69-.757-.69a.795.795 0 0 0-.284.06c-.069.033-.377.312-.684.619l-.558.559-.521-.512a9.23 9.23 0 0 0-.631-.583.608.608 0 0 0-.534-.08m6.773 1.311c-.408.115-.603.422-.603.946 0 .332.079.573.243.737.188.188.364.243.77.241.664-.003.96-.304.96-.978 0-.468-.129-.721-.45-.885-.205-.104-.66-.135-.92-.061m3.984-.016c-.422.101-.654.442-.654.962 0 .609.291.939.871.987.364.031.678-.059.867-.248.344-.344.345-1.134.001-1.478-.221-.22-.69-.317-1.085-.223m-1.954 1.957c-.312.083-.545.292-.618.556a2.197 2.197 0 0 0-.042.452c0 .251.019.34.11.52a.59.59 0 0 0 .327.327c.184.093.267.11.543.11s.359-.017.543-.11a.59.59 0 0 0 .327-.327c.091-.18.11-.269.11-.52-.001-.514-.12-.76-.45-.928-.176-.09-.646-.134-.85-.08" fill-rule="evenodd" fill="#000"/></svg>