<svg width="24" height="24" fill="none" xmlns="http://www.w3.org/2000/svg"><path d="M6.18 1.266c-1.668.117-2.867 1.068-3.294 2.611l-.106.383-.011 8.485-.01 8.484-.515.019c-.557.02-.696.065-.854.277-.168.226-.168.724 0 .95a.85.85 0 0 0 .214.185c.135.079.208.08 8.896.08s8.761-.001 8.896-.08a.85.85 0 0 0 .214-.185c.168-.226.168-.724 0-.95-.158-.212-.297-.257-.855-.277l-.515-.019v-4.465l2.01-.012c1.944-.012 2.015-.015 2.15-.094.206-.121.31-.301.339-.589.015-.137.02-1.608.014-3.269-.014-3.355.002-3.158-.283-3.375-.071-.054-.623-.343-1.225-.642-.978-.485-1.117-.543-1.3-.543a.59.59 0 0 0-.319.076c-.326.215-.492.782-.31 1.058.106.161.291.273 1.161.705l.763.379v4.772l-1.463.03c-.847.017-1.479.014-1.499-.006-.021-.021-.041-2.381-.047-5.515L18.22 4.26l-.106-.383c-.328-1.19-1.144-2.058-2.274-2.422-.599-.193-.458-.188-5.1-.195-2.398-.004-4.45-.001-4.56.006m9.216 1.61a1.993 1.993 0 0 1 1.232 1.254l.112.33.011 8.39.01 8.39H4.239l.011-8.39c.011-7.707.017-8.407.078-8.605.181-.58.527-1.01.999-1.24.519-.253.253-.242 5.253-.233l4.56.008.256.096M7.78 4.299c-.981.182-1.665.794-1.926 1.721-.088.312-.125 2.146-.054 2.637.148 1.023.808 1.753 1.82 2.011.255.066.512.072 2.86.072 2.354 0 2.607-.006 2.89-.073.945-.221 1.637-.925 1.811-1.841.084-.447.083-2.265-.002-2.673-.122-.583-.418-1.064-.859-1.396-.319-.24-.651-.378-1.105-.457-.468-.081-4.996-.082-5.435-.001m5.387 1.515c.23.088.378.229.489.466.077.164.085.264.097 1.131.01.774.001.991-.051 1.167a.855.855 0 0 1-.437.554c-.164.088-.174.088-2.661.099-2.755.013-2.783.01-3.061-.234-.248-.218-.283-.401-.283-1.497 0-1.065.023-1.21.231-1.446.15-.171.326-.254.629-.296.121-.016 1.264-.026 2.54-.022 2.118.007 2.336.013 2.507.078m-6.872 6.462c-.229.039-.369.142-.457.337-.168.37-.051.877.242 1.046.135.078.206.081 1.92.081s1.785-.003 1.92-.081a.67.67 0 0 0 .23-.258c.186-.367.073-.885-.23-1.06-.134-.077-.213-.081-1.8-.087-.913-.004-1.734.006-1.825.022" fill-rule="evenodd" fill="#000"/></svg>