<svg width="24" height="24" fill="none" xmlns="http://www.w3.org/2000/svg"><path d="M11.56 1.266a10.708 10.708 0 0 0-8.082 4.28 11.077 11.077 0 0 0-2.079 4.869c-.143.873-.165 1.8-.15 6.085.014 3.764.021 4.098.087 4.318.162.543.413.872.815 1.07.24.119.302.132.608.13.597-.003.907-.176 1.859-1.039.327-.295.628-.548.67-.562.042-.013.119.005.172.039.053.035.546.475 1.095.978.549.503 1.085.972 1.191 1.042.522.345 1.345.346 1.865.001.105-.069.653-.549 1.219-1.066.565-.517 1.068-.959 1.117-.982.068-.031.114-.025.19.025.055.036.549.477 1.098.98s1.085.972 1.191 1.042c.522.346 1.345.346 1.867.001.105-.07.64-.538 1.189-1.041a32.234 32.234 0 0 1 1.096-.978c.054-.036.132-.054.174-.041.042.014.344.269.672.568.923.842 1.25 1.026 1.837 1.032.286.003.35-.011.588-.129.402-.198.653-.527.815-1.07.066-.22.072-.554.086-4.358.018-5.144-.007-5.629-.351-7-1.096-4.369-4.852-7.677-9.239-8.135a13.81 13.81 0 0 0-1.6-.059m1.969 1.61a9.205 9.205 0 0 1 4.932 2.582c1.408 1.411 2.3 3.137 2.669 5.162.086.473.087.551.1 5.131.007 2.643-.002 4.678-.022 4.714-.041.073-.074.048-.768-.587-.915-.837-1.091-.932-1.74-.932-.321 0-.446.018-.634.091-.291.114-.456.248-1.635 1.331-.802.736-.968.872-1.071.872-.103 0-.269-.136-1.071-.872-1.179-1.083-1.344-1.217-1.635-1.331-.333-.129-.935-.129-1.268 0-.291.114-.456.248-1.635 1.331-.802.736-.968.872-1.071.872-.103 0-.269-.136-1.071-.872-1.179-1.083-1.344-1.217-1.635-1.33-.186-.073-.316-.091-.634-.093-.649-.002-.82.091-1.76.953-.604.554-.736.652-.783.579-.023-.034-.033-1.908-.026-4.717.012-4.592.013-4.667.099-5.14.486-2.669 1.926-4.887 4.126-6.357a9.175 9.175 0 0 1 3.477-1.382c.666-.112.693-.114 1.687-.101.706.009 1.001.03 1.369.096M11.66 6.278c-.884.107-1.633.623-2.092 1.442-.4.714-.4 1.846 0 2.56.526.939 1.385 1.451 2.432 1.451s1.906-.512 2.432-1.451c.4-.714.4-1.846 0-2.56-.575-1.026-1.636-1.578-2.772-1.442m.794 1.563c.29.109.596.415.705.705A1.246 1.246 0 0 1 12 10.24c-.508 0-.986-.327-1.163-.795-.109-.288-.094-.741.033-.987.149-.289.479-.572.77-.661.198-.06.592-.039.814.044m-4.668 5.416c-.188.069-.324.192-.446.403-.141.244-.158.389-.068.588.095.212.166.277.656.604.988.659 1.981 1.022 3.192 1.17a7.297 7.297 0 0 0 4.952-1.17c.49-.327.561-.392.656-.604.09-.2.073-.343-.071-.594-.196-.341-.517-.502-.804-.403a3.322 3.322 0 0 0-.513.296c-1.044.707-2.079 1.024-3.34 1.024-1.28 0-2.266-.307-3.393-1.056-.228-.151-.435-.275-.46-.276a.752.752 0 0 1-.127-.019.56.56 0 0 0-.234.037" fill-rule="evenodd" fill="#000"/></svg>