<svg width="24" height="24" fill="none" xmlns="http://www.w3.org/2000/svg"><path d="M7.994 1.282a2.038 2.038 0 0 0-.497.153c-.239.112-.375.232-1.158 1.016-.942.944-1.07 1.115-1.156 1.529l-.05.24-.596.031c-1.027.052-1.541.236-2.041.729a2.44 2.44 0 0 0-.646 1.14c-.104.384-.104 2.376 0 2.76.18.662.603 1.229 1.138 1.523l.248.137.015 4.34c.016 4.739.008 4.558.254 5.36.405 1.322 1.361 2.112 2.885 2.381.694.123 1.732.145 6.134.128 4.634-.018 4.697-.02 5.482-.224 1.347-.35 2.198-1.231 2.519-2.605.165-.708.165-.699.182-5.12l.017-4.26.265-.14c.592-.313 1.051-.975 1.189-1.714.086-.464.086-1.908 0-2.372-.146-.783-.604-1.416-1.262-1.746-.418-.209-.774-.284-1.502-.316l-.565-.024-.025-.189c-.056-.418-.215-.636-1.141-1.563-1.08-1.082-1.272-1.2-1.943-1.198-.382.001-.622.069-.908.255-.117.076-.788.717-1.492 1.423-.704.706-1.306 1.284-1.338 1.284-.032 0-.662-.6-1.4-1.333-.817-.811-1.413-1.372-1.523-1.433a1.812 1.812 0 0 0-1.085-.192M9.08 3.5l.739.74H6.661L7.4 3.5c.568-.569.763-.74.84-.74.077 0 .272.171.84.74m7.48 0 .739.74h-3.118l.739-.74c.471-.472.768-.74.82-.74.052 0 .349.268.82.74m3.6 2.364a.915.915 0 0 1 .507.546c.062.179.073.34.073 1.09s-.011.911-.073 1.09a.915.915 0 0 1-.507.546l-.18.084H12c-7.635 0-7.988-.003-8.17-.073a.916.916 0 0 1-.515-.579c-.078-.266-.077-1.923 0-2.148.066-.193.214-.398.352-.488.26-.17.1-.167 8.393-.16l7.92.008.18.084M8.209 13.17l.011 2.41.127.27c.234.494.692.87 1.209.99.31.073.788.032 1.052-.09.117-.054.454-.256.749-.449.296-.193.576-.351.622-.351.046 0 .344.171.662.381.696.458.856.52 1.339.522.429.002.692-.085 1.052-.35.256-.188.438-.434.577-.779.091-.223.091-.236.102-2.594l.012-2.37H19.246l-.018 4.05c-.015 3.412-.028 4.102-.079 4.377-.13.69-.28 1.057-.559 1.359-.201.219-.41.345-.777.47-.612.208-.508.204-5.873.204h-5l-.4-.089c-.51-.113-1.001-.35-1.202-.582-.293-.335-.493-.909-.575-1.644-.028-.244-.043-1.782-.043-4.263V10.76H8.197l.012 2.41m6.022-.171c-.01 2.023-.017 2.245-.077 2.305-.127.126-.261.078-.809-.294-.675-.456-.888-.541-1.365-.541s-.674.079-1.392.554c-.313.207-.603.376-.645.377-.043 0-.12-.039-.17-.087l-.093-.087V10.76h4.562l-.011 2.239" fill-rule="evenodd" fill="#000"/></svg>