<svg width="24" height="24" fill="none" xmlns="http://www.w3.org/2000/svg"><path d="M8.06 1.281a2.57 2.57 0 0 0-.894.242c-.81.368-1.486 1.155-1.732 2.017-.128.451-.129 1.186-.002 1.632.283.994 1.006 1.787 1.94 2.131.154.056.243.111.236.144-.02.09-2.131 4.879-2.253 5.113a2.67 2.67 0 0 0-.151.34c-.019.066-.372.885-.784 1.82-1.09 2.473-1.234 2.955-1.237 4.14-.001.58.012.73.089 1.019.411 1.551 1.625 2.48 3.648 2.79.36.055 1.016.067 4.6.08 4.365.017 5.175-.003 5.914-.146 1.997-.387 3.179-1.549 3.37-3.313.076-.698-.034-1.518-.322-2.399-.14-.43-.263-.716-2.457-5.731-1.575-3.6-1.649-3.782-1.569-3.815.767-.324 1.169-.603 1.558-1.08.636-.781.823-1.884.489-2.881a3.112 3.112 0 0 0-.763-1.207c-.528-.534-1.098-.81-1.85-.896-.406-.047-7.396-.047-7.83 0m7.957 1.54c.749.227 1.252 1.006 1.144 1.772-.048.341-.165.575-.421.843-.36.378-.835.564-1.439.564-.492 0-.75.238-.752.692-.001.238.048.359 1.245 3.096a185.063 185.063 0 0 1 1.246 2.884c0 .052-.639.338-1.132.506-.874.299-1.756.419-2.521.343-.492-.049-.679-.091-1.447-.322-1.338-.403-2.539-.626-4.068-.753l-.789-.066 1.209-2.74C9.412 7.099 9.5 6.884 9.5 6.673c0-.285-.086-.413-.379-.563A.877.877 0 0 0 8.638 6c-.584 0-.996-.153-1.341-.497-.857-.857-.486-2.316.683-2.687.124-.039 1.014-.051 4-.053 3.293-.002 3.868.006 4.037.058M8.26 13.979c1.175.126 2.158.328 3.4.696.838.249 1.25.325 1.921.353 1.177.051 2.472-.227 3.712-.795.193-.089.36-.153.37-.143.023.023 1.064 2.392 1.225 2.79.398.978.537 1.963.369 2.614-.186.722-.72 1.237-1.557 1.503-.722.229-.559.223-5.74.223-4.464 0-4.803-.005-5.12-.073-.431-.091-.563-.131-.86-.259-.524-.226-.861-.523-1.091-.96-.176-.336-.23-.605-.225-1.128.008-.828.144-1.259 1.035-3.28l.66-1.5.07-.16.615.027c.339.015.886.056 1.216.092" fill-rule="evenodd" fill="#000"/></svg>