<svg width="24" height="24" fill="none" xmlns="http://www.w3.org/2000/svg"><path d="M11.32 1.281c-4.279.244-8.068 3.128-9.477 7.216a10.886 10.886 0 0 0-.279 6.053 10.76 10.76 0 0 0 7.886 7.886 10.96 10.96 0 0 0 5.1 0 10.76 10.76 0 0 0 7.886-7.886 10.96 10.96 0 0 0 0-5.1 10.758 10.758 0 0 0-8.694-8.052c-.408-.067-1.668-.169-1.862-.151l-.56.034m1.681 1.52c.186.022.538.078.78.123l.442.081.227.748c.356 1.167.668 2.402.771 3.043l.028.176-.294-.027-.815-.075c-.682-.063-3.598-.063-4.28 0l-.815.075-.294.027.028-.176c.099-.616.454-2.027.759-3.016.096-.308.184-.608.197-.666.023-.099.049-.11.475-.19.247-.046.576-.1.73-.119.399-.05 1.661-.052 2.061-.004m3.429 1.08c1.503.803 2.887 2.189 3.693 3.697.114.212.2.392.192.4-.008.008-.276-.057-.595-.144a38.037 38.037 0 0 0-2.526-.574l-.386-.068-.068-.386c-.138-.784-.602-2.745-.728-3.072-.032-.085.016-.068.418.147m-8.643.584a32.034 32.034 0 0 0-.528 2.341l-.067.386-.386.068c-.578.101-1.87.395-2.526.574-.319.087-.587.152-.595.144-.026-.026.394-.78.636-1.14a9.923 9.923 0 0 1 2.525-2.522c.482-.324 1.034-.612 1.083-.563.023.023-.03.291-.142.712M13.34 8.32c1.037.055 2.07.159 2.126.214.066.066.167 1.157.222 2.396.037.83.037 1.31 0 2.14-.055 1.239-.156 2.33-.222 2.396-.066.066-1.157.167-2.396.222-.828.037-1.312.037-2.14 0-.949-.042-2.12-.135-2.353-.187-.076-.017-.088-.072-.151-.71a28.279 28.279 0 0 1-.115-3.841c.064-1.439.163-2.423.246-2.447.114-.034 1.373-.147 1.983-.179.89-.047 1.943-.049 2.8-.004m-6.396.73-.074.81c-.063.682-.063 3.598 0 4.28l.075.815.027.294-.176-.028c-.616-.099-2.027-.454-3.016-.759a17.03 17.03 0 0 0-.666-.197c-.099-.023-.11-.049-.189-.475A8.247 8.247 0 0 1 2.76 12c0-.71.034-1.084.164-1.781l.081-.442.748-.227c1.01-.308 1.376-.407 2.181-.589 1.148-.259 1.044-.268 1.01.089m11.122-.088c.803.181 1.168.279 2.181.588l.748.227.081.442c.13.697.164 1.071.164 1.781s-.034 1.084-.164 1.781l-.081.442-.748.227c-1.167.356-2.402.668-3.043.771l-.176.028.027-.294.075-.815c.063-.682.063-3.598 0-4.28l-.075-.815-.027-.294.176.028c.097.016.485.098.862.183M4.42 16.202c.664.18 1.791.434 2.386.538l.386.068.067.386c.104.598.33 1.598.528 2.341.112.421.165.689.142.712-.024.024-.166-.029-.379-.141-1.433-.749-2.906-2.222-3.655-3.653-.159-.303-.186-.414-.103-.413.016 0 .298.073.628.162m15.838-.125c.035.056-.306.685-.606 1.122A9.78 9.78 0 0 1 17.2 19.65c-.369.254-1.149.694-1.178.665-.008-.008.057-.276.144-.595.179-.656.473-1.948.574-2.526l.068-.386.386-.068a37.576 37.576 0 0 0 2.446-.555c.562-.156.586-.16.618-.108M9.86 17.13c.682.063 3.598.063 4.28 0l.815-.075.294-.027-.029.176c-.112.681-.412 1.87-.77 3.043l-.227.748-.442.081A8.186 8.186 0 0 1 12 21.24c-.71 0-1.084-.034-1.781-.164l-.442-.081-.227-.748c-.356-1.167-.668-2.402-.771-3.043l-.028-.176.294.027.815.075" fill-rule="evenodd" fill="#000"/></svg>