<svg width="24" height="24" fill="none" xmlns="http://www.w3.org/2000/svg"><path d="M11.32 1.281c-2.061.117-4.07.861-5.79 2.143-.618.46-1.646 1.488-2.106 2.106-1.549 2.078-2.288 4.52-2.143 7.08.121 2.149.837 4.107 2.143 5.86.456.613 1.485 1.641 2.106 2.105a10.833 10.833 0 0 0 4.813 2.042c.539.083 1.635.146 1.851.105.362-.068.538-.304.538-.722 0-.57-.256-.754-1.053-.758-.404-.002-.855-.053-1.46-.166l-.442-.081-.227-.748c-.356-1.167-.668-2.402-.771-3.043l-.028-.176.274.027c.703.069 2.052.144 2.597.144.545.001.618-.007.779-.089.25-.127.328-.281.328-.65 0-.347-.075-.512-.289-.637-.123-.072-.262-.086-1.299-.129-1.021-.043-2.323-.142-2.564-.194-.076-.017-.088-.071-.151-.709a28.279 28.279 0 0 1-.115-3.841c.025-.577.077-1.361.115-1.741.063-.638.075-.693.151-.71.233-.052 1.404-.145 2.353-.187a20.643 20.643 0 0 1 2.14 0c1.239.055 2.33.156 2.395.222.066.067.172 1.277.228 2.607.044 1.037.058 1.176.13 1.299.126.216.296.293.64.291.365-.002.521-.082.647-.33.082-.161.09-.234.089-.779 0-.545-.075-1.894-.144-2.597l-.027-.274.176.028c.641.103 1.876.415 3.043.771l.748.227.081.442c.113.605.164 1.056.166 1.46.004.797.188 1.053.758 1.053.418 0 .654-.176.722-.538.041-.216-.022-1.312-.105-1.851a10.836 10.836 0 0 0-2.042-4.813c-.46-.617-1.488-1.645-2.105-2.105a10.75 10.75 0 0 0-4.728-2.027c-.408-.067-1.668-.169-1.862-.151l-.56.034m1.681 1.52c.186.022.538.078.78.123l.442.081.227.748c.341 1.125.634 2.285.773 3.063l.028.157-.295-.028-.816-.075c-.682-.063-3.598-.063-4.28 0l-.815.075-.294.027.028-.176c.099-.616.454-2.027.759-3.016.096-.308.184-.608.197-.666.023-.099.049-.11.475-.19.247-.046.576-.1.73-.119.399-.05 1.661-.052 2.061-.004m3.436 1.084c1.241.663 2.451 1.78 3.313 3.058.183.272.587 1.013.565 1.035-.008.008-.276-.057-.595-.144a37.919 37.919 0 0 0-2.527-.574l-.386-.068-.088-.486c-.136-.753-.594-2.677-.706-2.969-.033-.088.012-.072.424.148m-8.65.58a32.034 32.034 0 0 0-.528 2.341l-.067.386-.386.068c-.578.101-1.87.395-2.526.574-.319.087-.587.152-.595.144-.022-.022.382-.763.565-1.035.504-.747 1.29-1.614 1.93-2.129.682-.549 1.665-1.145 1.749-1.061.023.023-.03.291-.142.712M6.944 9.05l-.074.81c-.063.682-.063 3.598 0 4.28l.075.816.028.295-.157-.028c-.744-.133-2.119-.477-3.036-.761a19.148 19.148 0 0 0-.666-.197c-.099-.023-.11-.049-.189-.475A8.247 8.247 0 0 1 2.76 12c0-.71.034-1.084.164-1.781l.081-.442.748-.227c1.01-.308 1.376-.407 2.181-.589 1.148-.259 1.044-.268 1.01.089m10.836 5.234a3.91 3.91 0 0 0-2.362 1.134c-1.341 1.341-1.534 3.387-.472 5.012.193.296.728.831 1.024 1.024 1.308.855 2.965.907 4.242.133l.193-.117.629.621c.699.691.807.755 1.131.668.221-.06.534-.373.594-.594.087-.324.023-.432-.668-1.131l-.621-.629.117-.193c.545-.899.692-2.075.391-3.115a3.78 3.78 0 0 0-.996-1.679c-.665-.664-1.461-1.037-2.425-1.136a6.737 6.737 0 0 0-.431-.037c-.014.003-.17.021-.346.039m1.016 1.537c.409.097.785.316 1.126.657.496.497.717 1.026.717 1.722s-.221 1.225-.717 1.722c-.497.496-1.026.717-1.722.717s-1.225-.221-1.722-.717c-.496-.497-.717-1.026-.717-1.722s.221-1.225.717-1.722c.334-.334.717-.56 1.108-.655a3.303 3.303 0 0 1 1.21-.002m-14.38.378c.788.207 1.684.41 2.29.52l.486.088.067.386c.104.599.33 1.599.528 2.342.112.421.165.689.142.712-.044.044-.595-.233-.978-.492-.755-.509-1.62-1.292-2.137-1.935-.65-.807-1.21-1.78-1.025-1.78.013 0 .295.071.627.159" fill-rule="evenodd" fill="#000"/></svg>