<svg width="24" height="24" fill="none" xmlns="http://www.w3.org/2000/svg"><path d="M11.32 1.281c-2.061.117-4.07.861-5.79 2.143-.618.46-1.646 1.488-2.106 2.106-1.549 2.078-2.288 4.52-2.143 7.08.121 2.149.837 4.107 2.143 5.86.456.613 1.485 1.641 2.106 2.105a10.833 10.833 0 0 0 4.813 2.042c.539.083 1.635.146 1.851.105.362-.068.538-.304.538-.722 0-.57-.256-.754-1.053-.758-.404-.002-.855-.053-1.46-.166l-.442-.081-.227-.748c-.356-1.167-.668-2.402-.771-3.043l-.028-.176.274.027c.703.069 2.052.144 2.597.144.545.001.618-.007.779-.089.25-.127.328-.281.328-.65 0-.347-.075-.512-.289-.637-.123-.072-.262-.086-1.299-.129-1.021-.043-2.323-.142-2.564-.194-.076-.017-.088-.071-.151-.709a28.279 28.279 0 0 1-.115-3.841c.025-.577.077-1.361.115-1.741.063-.638.075-.693.151-.71.233-.052 1.404-.145 2.353-.187a20.643 20.643 0 0 1 2.14 0c1.239.055 2.33.156 2.395.222.066.067.172 1.277.228 2.607.044 1.037.058 1.176.13 1.299.126.216.296.293.64.291.365-.002.521-.082.647-.33.082-.161.09-.234.089-.779 0-.545-.075-1.894-.144-2.597l-.027-.274.176.028c.641.103 1.876.415 3.043.771l.748.227.081.442c.113.605.164 1.056.166 1.46.004.797.188 1.053.758 1.053.418 0 .654-.176.722-.538.041-.216-.022-1.312-.105-1.851a10.836 10.836 0 0 0-2.042-4.813c-.46-.617-1.488-1.645-2.105-2.105a10.75 10.75 0 0 0-4.728-2.027c-.408-.067-1.668-.169-1.862-.151l-.56.034m1.681 1.52c.186.022.538.078.78.123l.442.081.227.748c.341 1.125.634 2.285.773 3.063l.028.157-.295-.028-.816-.075c-.682-.063-3.598-.063-4.28 0l-.815.075-.294.027.028-.176c.099-.616.454-2.027.759-3.016.096-.308.184-.608.197-.666.023-.099.049-.11.475-.19.247-.046.576-.1.73-.119.399-.05 1.661-.052 2.061-.004m3.436 1.084c1.241.663 2.451 1.78 3.313 3.058.183.272.587 1.013.565 1.035-.008.008-.276-.057-.595-.144a37.919 37.919 0 0 0-2.527-.574l-.386-.068-.088-.486c-.136-.753-.594-2.677-.706-2.969-.033-.088.012-.072.424.148m-8.65.58a32.034 32.034 0 0 0-.528 2.341l-.067.386-.386.068c-.578.101-1.87.395-2.526.574-.319.087-.587.152-.595.144-.022-.022.382-.763.565-1.035.504-.747 1.29-1.614 1.93-2.129.682-.549 1.665-1.145 1.749-1.061.023.023-.03.291-.142.712M6.944 9.05l-.074.81c-.063.682-.063 3.598 0 4.28l.075.816.028.295-.157-.028c-.744-.133-2.119-.477-3.036-.761a19.148 19.148 0 0 0-.666-.197c-.099-.023-.11-.049-.189-.475A8.247 8.247 0 0 1 2.76 12c0-.71.034-1.084.164-1.781l.081-.442.748-.227c1.01-.308 1.376-.407 2.181-.589 1.148-.259 1.044-.268 1.01.089m12.766 5.484a2.766 2.766 0 0 0-.545.28c-.356.243-4.138 4.026-4.295 4.297-.162.277-.218.497-.334 1.325-.164 1.163-.107 1.51.311 1.91.41.393.725.439 1.886.276.797-.111 1.017-.167 1.307-.331.103-.058.851-.763 1.74-1.639l1.631-1.605c.282-.268.853-.921.987-1.129a1.953 1.953 0 0 0-.002-2.159c-.361-.559-.994-1.081-1.502-1.238a2.04 2.04 0 0 0-1.184.013m.842 1.462c.171.087.528.45.623.634a.592.592 0 0 1 .065.22c0 .12-.185.407-.387.6l-.157.15-.198-.124a2.885 2.885 0 0 1-.784-.774l-.156-.237.191-.196c.209-.214.421-.344.563-.347a.66.66 0 0 1 .24.074m-16.136.203c.788.207 1.684.41 2.29.52l.486.088.067.386c.104.599.33 1.599.528 2.342.112.421.165.689.142.712-.044.044-.595-.233-.978-.492-.755-.509-1.62-1.292-2.137-1.935-.65-.807-1.21-1.78-1.025-1.78.013 0 .295.071.627.159m14.16 1.485c.11.186.567.657.799.824l.223.161c.025.019-2.237 2.285-2.334 2.338-.075.041-1.292.232-1.317.206-.008-.007.029-.305.08-.663l.094-.65 1.169-1.17a47.103 47.103 0 0 1 1.191-1.17c.012 0 .055.056.095.124" fill-rule="evenodd" fill="#000"/></svg>