<svg width="24" height="24" fill="none" xmlns="http://www.w3.org/2000/svg"><path d="M21.8 1.245c-.108.032-.635.535-2.327 2.224l-2.186 2.182-.354-.257c-.872-.636-1.678-1.036-2.652-1.316-.405-.117-1.229-.278-1.421-.278h-.093l-.014-1.03c-.012-.944-.02-1.041-.093-1.166a.646.646 0 0 0-.475-.327c-.367-.069-.684.054-.845.327-.073.125-.081.222-.093 1.161l-.014 1.025-.246.027c-1.747.192-3.639 1.131-4.891 2.43-1.246 1.29-2.094 3.056-2.279 4.74l-.027.246-1.025.014c-.939.012-1.036.02-1.161.093a.646.646 0 0 0-.327.475c-.069.367.054.684.327.845.125.073.222.081 1.16.093l1.023.014.05.379c.101.775.355 1.626.705 2.365.264.559.428.835.81 1.363l.299.414-2.182 2.186c-1.933 1.936-2.188 2.205-2.227 2.356-.067.254.002.458.236.692.234.234.437.303.692.237.154-.04 1.143-1.017 10.302-10.172 5.572-5.57 10.17-10.189 10.217-10.264a.625.625 0 0 0-.032-.692c-.229-.325-.557-.473-.857-.386m-8.74 4.092c1.091.166 2.359.72 3.138 1.371.01.008-.465.498-1.055 1.089L14.07 8.871l-.285-.153a3.642 3.642 0 0 0-2.15-.435 3.21 3.21 0 0 0-1.255.356c-.84.407-1.381.958-1.78 1.813a3.654 3.654 0 0 0-.317 1.915c.058.562.168.921.435 1.418l.153.285-1.074 1.073c-.591.59-1.081 1.065-1.089 1.055-.666-.797-1.211-2.064-1.392-3.238-.072-.461-.062-1.563.017-2.031a6.695 6.695 0 0 1 1.905-3.691c1.176-1.177 2.558-1.811 4.302-1.975.273-.026 1.142.017 1.52.074m5.568 2.964c-.211.078-.379.205-.449.34-.097.189-.071.424.099.877.334.891.453 1.525.456 2.442.003.904-.116 1.591-.416 2.406-.658 1.785-2.169 3.294-3.959 3.954-.814.3-1.497.418-2.399.414-.916-.004-1.527-.118-2.45-.456-.684-.251-.928-.2-1.155.242-.203.394-.136.761.173.952.381.236 1.594.597 2.319.691l.386.05.014 1.023c.012.938.02 1.035.093 1.16a.646.646 0 0 0 .475.327c.367.069.684-.054.845-.327.073-.125.081-.222.093-1.161l.014-1.025.246-.027c1.745-.191 3.64-1.133 4.891-2.43 1.244-1.289 2.095-3.058 2.279-4.74l.027-.246 1.025-.014c.939-.012 1.036-.02 1.161-.093.273-.161.396-.478.327-.845a.646.646 0 0 0-.327-.475c-.125-.073-.222-.081-1.16-.093l-1.023-.014-.05-.386c-.097-.753-.452-1.93-.7-2.323a.744.744 0 0 0-.221-.223c-.144-.075-.41-.074-.614 0M12.575 9.82c.471.123.57-.026-1.097 1.642-.821.821-1.506 1.485-1.522 1.476-.141-.088-.244-1.012-.159-1.423.161-.775.837-1.484 1.614-1.693.28-.076.877-.076 1.164-.002" fill-rule="evenodd" fill="#000"/></svg>