<svg width="24" height="24" fill="none" xmlns="http://www.w3.org/2000/svg"><path d="M11.787 1.278a.659.659 0 0 0-.447.326c-.073.125-.081.222-.093 1.16l-.014 1.023-.386.05c-1.4.183-2.928.849-4.053 1.767-1.591 1.299-2.698 3.262-2.957 5.243l-.05.386-1.023.014c-.938.012-1.035.02-1.16.093-.273.161-.396.478-.327.845a.646.646 0 0 0 .327.475c.125.073.222.081 1.16.093l1.023.014.05.386c.259 1.981 1.366 3.944 2.957 5.243 1.125.918 2.653 1.584 4.053 1.767l.386.05.014 1.023c.012.938.02 1.035.093 1.16.161.273.478.396.845.327a.646.646 0 0 0 .475-.327c.073-.125.081-.222.093-1.161l.014-1.025.246-.027c1.672-.183 3.448-1.033 4.722-2.259 1.313-1.264 2.255-3.155 2.448-4.911l.027-.246 1.025-.014c.939-.012 1.036-.02 1.161-.093a.646.646 0 0 0 .327-.475c.069-.367-.054-.684-.327-.845-.125-.073-.222-.081-1.161-.093l-1.025-.014-.027-.246c-.193-1.756-1.135-3.647-2.448-4.911-1.251-1.204-2.928-2.023-4.585-2.239l-.39-.051-.002-.903c-.002-.974-.026-1.194-.148-1.357-.158-.213-.491-.313-.823-.248m1.307 4.062c2.125.344 3.979 1.724 4.964 3.694a7.07 7.07 0 0 1 .626 2.026 9.087 9.087 0 0 1 0 1.88c-.307 2.192-1.7 4.11-3.718 5.118a7.126 7.126 0 0 1-2.026.627 9.087 9.087 0 0 1-1.88 0c-2.197-.312-4.11-1.701-5.118-3.719a7.023 7.023 0 0 1-.609-1.895c-.079-.468-.089-1.57-.017-2.031a6.696 6.696 0 0 1 1.922-3.802c1.176-1.176 2.56-1.812 4.302-1.975.282-.026 1.194.019 1.554.077M11.74 8.266c-1.325.119-2.413.819-3.021 1.946A3.483 3.483 0 0 0 8.271 12c0 .682.129 1.197.45 1.792a3.518 3.518 0 0 0 1.491 1.489 3.483 3.483 0 0 0 1.788.448c.68 0 1.197-.129 1.788-.448a3.518 3.518 0 0 0 1.491-1.489c.321-.595.45-1.11.45-1.792 0-.68-.129-1.197-.448-1.788a3.674 3.674 0 0 0-2.066-1.749c-.422-.147-1.066-.233-1.475-.197m.838 1.555c.371.097.696.291 1.003.598.46.46.659.937.659 1.581 0 .644-.199 1.121-.659 1.581-.46.46-.937.659-1.581.659-.644 0-1.121-.199-1.581-.659-.46-.46-.659-.937-.659-1.581 0-.644.199-1.121.659-1.581.3-.301.631-.5.985-.596.288-.077.881-.078 1.174-.002" fill-rule="evenodd" fill="#000"/></svg>