<svg width="24" height="24" fill="none" xmlns="http://www.w3.org/2000/svg"><path d="M13.545 1.941c-.958.182-1.613.741-1.968 1.683-.268.708-.336 1.422-.336 3.516 0 2.259.074 2.903.431 3.72.425.972 1.23 1.582 2.381 1.804.257.05.724.068 2.167.084 2.59.029 3.375-.033 4.175-.331.342-.127.802-.419 1.011-.642.753-.801.899-2.038.455-3.845-.412-1.677-1.285-3.066-2.641-4.203-1.098-.92-2.314-1.469-3.88-1.749-.514-.093-1.403-.111-1.795-.037M9.16 3.268c-.683.125-1.667.461-2.38.812a9.833 9.833 0 0 0-5.243 6.5 9.79 9.79 0 0 0 .77 6.751c1.241 2.441 3.406 4.247 5.998 5.004.931.273 1.745.384 2.803.385 1.134 0 2.007-.137 3.052-.479a9.833 9.833 0 0 0 6.459-6.916c.154-.61.164-.791.054-1.003-.12-.229-.322-.335-.677-.355-.481-.028-.606.103-.778.809a8.45 8.45 0 0 1-3.638 5.154c-.778.509-1.89.961-2.82 1.145a8.39 8.39 0 0 1-4.3-.256 8.13 8.13 0 0 1-3.219-1.979c-.707-.701-1.168-1.326-1.585-2.146-.625-1.23-.896-2.38-.896-3.802 0-2.293.907-4.41 2.57-5.995 1.079-1.028 2.285-1.696 3.751-2.076.591-.153.736-.221.841-.393.176-.289.041-.916-.231-1.074a.947.947 0 0 0-.531-.086m5.785.151c1.188.193 2.175.59 3.015 1.212.385.285 1.124 1.024 1.409 1.409.506.683.85 1.432 1.066 2.32.234.966.262 1.66.082 2.079-.109.254-.371.491-.663.6-.491.184-.763.201-3.133.201-2.089 0-2.248-.005-2.538-.079-.737-.189-1.077-.544-1.315-1.376-.077-.268-.083-.416-.097-2.493-.017-2.364-.001-2.636.189-3.142.148-.397.461-.671.854-.748.268-.053.739-.046 1.131.017" fill-rule="evenodd" fill="#000"/></svg>