<svg width="24" height="24" fill="none" xmlns="http://www.w3.org/2000/svg"><path d="M7.92 1.284c-1.056.083-1.811.223-2.579.48-2.294.765-3.574 2.455-3.958 5.227-.113.812-.141 1.825-.141 5.009 0 4.504.06 5.273.518 6.65.965 2.892 3.395 4.184 7.722 4.104.849-.015.95-.04 1.128-.279.168-.226.168-.724 0-.95-.158-.212-.297-.257-.856-.277l-.515-.019.011-2.484.01-2.485 1.52-.02c1.437-.019 1.528-.024 1.659-.101.215-.127.29-.291.29-.639 0-.348-.075-.512-.29-.639-.131-.077-.222-.082-1.659-.101l-1.52-.02V9.26l2.748-.01 2.748-.011.012 1.538c.012 1.481.015 1.541.094 1.648.164.219.281.274.611.287.347.014.522-.051.664-.245.08-.108.084-.175.103-1.66l.02-1.547 2.486-.01 2.487-.011.013 1.011c.013.924.021 1.022.094 1.146.161.273.478.396.845.327a.646.646 0 0 0 .475-.327c.075-.127.081-.222.094-1.416.023-2.176-.118-3.444-.512-4.624-.61-1.825-1.773-2.989-3.592-3.596-.786-.261-1.503-.391-2.648-.479-.637-.049-7.455-.046-8.082.003m6.84 3.976v2.501l-2.75-.011-2.75-.01-.01-2.49-.011-2.49h5.521v2.5m-7 .02v2.48H2.791l.027-.23c.311-2.661 1.34-3.969 3.542-4.506.41-.099 1.069-.212 1.29-.22l.11-.004v2.48m9.035-2.418c2.422.352 3.646 1.367 4.165 3.45.103.414.24 1.204.24 1.383 0 .06-.21.065-2.47.055l-2.47-.01-.01-2.47c-.01-2.26-.005-2.47.055-2.47.035 0 .256.028.49.062M7.76 12v2.76h-5V9.24h5V12m10.989.279a1.93 1.93 0 0 0-.809.302c-.248.159-5.148 5.066-5.331 5.338-.394.588-.434 1.414-.101 2.113.088.186.304.424 1.17 1.293.899.901 1.1 1.083 1.313 1.187.343.167.631.22 1.086.199.423-.02.696-.105 1.027-.319.26-.168 5.012-4.901 5.244-5.223.319-.444.435-.92.369-1.516a1.706 1.706 0 0 0-.2-.648c-.153-.309-.236-.406-1.071-1.255-.499-.507-1.031-1.009-1.183-1.116a2.143 2.143 0 0 0-1.514-.355m.675 1.595c.238.174 1.733 1.713 1.777 1.829a.639.639 0 0 1-.077.601c-.064.086-.608.646-1.21 1.246l-1.095 1.09-1.219-1.22-1.219-1.22 1.179-1.183c.649-.651 1.216-1.199 1.26-1.218a.91.91 0 0 1 .264-.036.479.479 0 0 1 .34.111M7.76 18.72c0 2.26-.006 2.48-.065 2.48-.179 0-.969-.137-1.383-.24-2.169-.54-3.184-1.844-3.494-4.49l-.027-.23H7.76v2.48m9.25 1.692c-.391.393-.759.739-.818.771a.566.566 0 0 1-.483.001c-.071-.03-.528-.458-1.015-.95-1.223-1.234-1.216-1.124-.142-2.205l.746-.75 1.211 1.21 1.211 1.21-.71.713" fill-rule="evenodd" fill="#000"/></svg>