<svg width="24" height="24" fill="none" xmlns="http://www.w3.org/2000/svg"><path d="M7.92 1.284c-1.056.083-1.811.223-2.579.48-2.294.765-3.574 2.455-3.958 5.227-.113.812-.141 1.825-.141 5.009 0 4.504.06 5.273.518 6.65.965 2.892 3.395 4.184 7.722 4.104.849-.015.95-.04 1.128-.279.168-.226.168-.724 0-.95-.158-.212-.297-.257-.856-.277l-.515-.019.011-2.484.01-2.485 1.52-.02c1.437-.019 1.528-.024 1.659-.101.215-.127.29-.291.29-.639 0-.348-.075-.512-.29-.639-.131-.077-.222-.082-1.659-.101l-1.52-.02V9.26l2.748-.01 2.748-.011.012 1.538c.012 1.481.015 1.541.094 1.648.164.219.281.274.611.287.347.014.522-.051.664-.245.08-.108.084-.175.103-1.66l.02-1.547 2.486-.01 2.487-.011.013 1.011c.013.924.021 1.022.094 1.146.161.273.478.396.845.327a.646.646 0 0 0 .475-.327c.075-.127.081-.222.094-1.416.023-2.176-.118-3.444-.512-4.624-.61-1.825-1.773-2.989-3.592-3.596-.786-.261-1.503-.391-2.648-.479-.637-.049-7.455-.046-8.082.003m6.84 3.976v2.501l-2.75-.011-2.75-.01-.01-2.49-.011-2.49h5.521v2.5m-7 .02v2.48H2.791l.027-.23c.311-2.661 1.34-3.969 3.542-4.506.41-.099 1.069-.212 1.29-.22l.11-.004v2.48m9.035-2.418c2.422.352 3.646 1.367 4.165 3.45.103.414.24 1.204.24 1.383 0 .06-.21.065-2.47.055l-2.47-.01-.01-2.47c-.01-2.26-.005-2.47.055-2.47.035 0 .256.028.49.062M7.76 12v2.76h-5V9.24h5V12m9.74 1.283c-.755.07-1.352.307-1.784.708-.539.498-.789 1.132-.858 2.177l-.025.388-.147.048c-.536.173-.928.504-1.148.967-.233.49-.271.778-.271 2.029s.038 1.539.271 2.029c.258.543.736.888 1.443 1.04.284.061.618.069 3.019.069 3.014 0 3.055-.003 3.629-.276.545-.258.892-.742 1.038-1.443.095-.46.095-2.378 0-2.838-.17-.816-.618-1.339-1.354-1.577l-.146-.048-.023-.348c-.09-1.387-.553-2.207-1.491-2.639-.529-.244-1.382-.357-2.153-.286m1.374 1.574c.474.152.715.537.755 1.213l.023.37h-3.304l.023-.37c.029-.485.136-.771.367-.984.161-.148.279-.2.682-.301.19-.047 1.243.005 1.454.072M7.76 18.72c0 2.26-.006 2.48-.065 2.48-.179 0-.969-.137-1.383-.24-2.169-.54-3.184-1.844-3.494-4.49l-.027-.23H7.76v2.48m13.171-.671c.275.124.289.2.289 1.551s-.014 1.427-.289 1.551c-.138.063-.391.069-2.931.069s-2.793-.006-2.931-.069c-.266-.12-.286-.216-.301-1.42-.014-1.093.015-1.412.146-1.574.151-.186.283-.193 3.166-.185 2.454.007 2.714.014 2.851.077" fill-rule="evenodd" fill="#000"/></svg>