<svg width="24" height="24" fill="none" xmlns="http://www.w3.org/2000/svg"><path d="M8.08 1.282c-4.072.213-6.185 2.014-6.697 5.709-.113.812-.141 1.825-.141 5.009 0 4.504.06 5.273.518 6.65.772 2.313 2.446 3.576 5.267 3.972.759.106 1.875.137 4.973.137s4.214-.031 4.973-.137c2.47-.347 4.023-1.334 4.924-3.132.482-.96.741-2.121.823-3.683.051-.969.051-6.645 0-7.614-.063-1.195-.199-2.002-.478-2.837-.61-1.825-1.773-2.989-3.592-3.596-.862-.287-1.627-.416-2.844-.48-.854-.045-6.854-.043-7.726.002m.16 10.72v9.243l-.29-.025c-2.933-.25-4.328-1.247-4.906-3.508-.268-1.049-.264-.959-.264-5.712 0-3.989.005-4.335.074-4.78.331-2.139 1.098-3.282 2.626-3.912.685-.283 1.729-.497 2.65-.543l.11-.005v9.242m8.56-9.147c2.783.458 3.914 1.599 4.348 4.385.066.421.072.824.072 4.76 0 4.745.006 4.622-.26 5.688-.456 1.832-1.441 2.816-3.272 3.272-1.027.255-.993.253-4.618.27l-3.31.015V2.755l3.31.015c2.902.013 3.362.024 3.73.085" fill-rule="evenodd" fill="#000"/></svg>