<svg width="24" height="24" fill="none" xmlns="http://www.w3.org/2000/svg"><path d="M8.08 1.282c-4.072.213-6.185 2.014-6.697 5.709-.113.812-.141 1.825-.141 5.009 0 4.504.06 5.273.518 6.65.772 2.313 2.446 3.576 5.267 3.972.759.106 1.875.137 4.973.137s4.214-.031 4.973-.137c2.47-.347 4.023-1.334 4.924-3.132.482-.96.741-2.121.823-3.683.051-.969.051-6.645 0-7.614-.063-1.195-.199-2.002-.478-2.837-.61-1.825-1.773-2.989-3.592-3.596-.862-.287-1.627-.416-2.844-.48-.854-.045-6.854-.043-7.726.002m1.16 10.724v9.246l-.81-.024c-.892-.027-1.411-.092-2.118-.268-2.089-.52-3.076-1.714-3.458-4.18-.069-.445-.074-.791-.074-4.78 0-3.989.005-4.335.074-4.78.331-2.139 1.098-3.282 2.626-3.912.854-.353 1.891-.531 3.15-.543l.61-.005v9.246m7.56-9.151c2.767.453 3.901 1.588 4.344 4.345.053.333.071.793.085 2.23l.019 1.81H10.76V2.755l2.81.015c2.417.014 2.869.026 3.23.085m4.429 11.715c-.019 1.963-.039 2.194-.269 3.118-.456 1.831-1.441 2.816-3.272 3.272-1.004.249-1.049.252-4.118.27l-2.81.015V12.76h10.488l-.019 1.81" fill-rule="evenodd" fill="#000"/></svg>