<svg width="24" height="24" fill="none" xmlns="http://www.w3.org/2000/svg"><path d="M8.08 1.282c-4.072.213-6.185 2.014-6.697 5.709-.113.812-.141 1.825-.141 5.009 0 4.504.06 5.273.518 6.65.772 2.313 2.446 3.576 5.267 3.972.759.106 1.875.137 4.973.137s4.214-.031 4.973-.137c2.47-.347 4.023-1.334 4.924-3.132.482-.96.741-2.121.823-3.683.051-.969.051-6.645 0-7.614-.063-1.195-.199-2.002-.478-2.837-.61-1.825-1.773-2.989-3.592-3.596-.862-.287-1.627-.416-2.844-.48-.854-.045-6.854-.043-7.726.002m3.16 4.478v3H2.748l.025-.557c.06-1.329.353-2.513.816-3.303.631-1.078 1.72-1.724 3.371-2 .66-.111 1.02-.129 2.67-.135l1.61-.005v3m5.56-2.904c2.757.443 3.89 1.576 4.345 4.344.06.365.071.821.085 3.49l.015 3.07H12.76V2.752l1.81.019c1.437.014 1.897.032 2.23.085m-5.56 12.888v5.504l-1.81-.019c-1.437-.014-1.897-.032-2.23-.085-2.757-.443-3.895-1.581-4.346-4.344-.059-.364-.07-.831-.084-3.49l-.015-3.07h8.485v5.504m9.987.056a9.27 9.27 0 0 1-.267 1.888c-.456 1.831-1.441 2.816-3.272 3.272-.924.23-1.155.25-3.118.269l-1.81.019V15.24h8.492l-.025.56" fill-rule="evenodd" fill="#000"/></svg>