<svg width="24" height="24" fill="none" xmlns="http://www.w3.org/2000/svg"><path d="M8.08 1.282c-4.072.213-6.185 2.014-6.697 5.709-.113.812-.141 1.825-.141 5.009 0 4.504.06 5.273.518 6.65.772 2.313 2.446 3.576 5.267 3.972.759.106 1.875.137 4.973.137s4.214-.031 4.973-.137c2.47-.347 4.023-1.334 4.924-3.132.482-.96.741-2.121.823-3.683.051-.969.051-6.645 0-7.614-.063-1.195-.199-2.002-.478-2.837-.61-1.825-1.773-2.989-3.592-3.596-.862-.287-1.627-.416-2.844-.48-.854-.045-6.854-.043-7.726.002m8.72 1.572c2.485.412 3.641 1.374 4.16 3.458.176.707.241 1.226.268 2.118l.024.81H2.748l.023-.79c.07-2.497.754-4.058 2.129-4.862.676-.395 1.672-.676 2.78-.786.187-.018 2.221-.03 4.52-.025 3.763.007 4.222.014 4.6.077m-5.56 13.15v5.244l-1.81-.019c-1.437-.014-1.897-.032-2.23-.085-2.757-.443-3.896-1.582-4.346-4.344-.058-.36-.07-.823-.084-3.23l-.015-2.81h8.485v5.244m9.99-2.434c-.018 3.069-.021 3.114-.27 4.118-.456 1.831-1.441 2.816-3.272 3.272-.924.23-1.155.25-3.118.269l-1.81.019V10.76h8.485l-.015 2.81" fill-rule="evenodd" fill="#000"/></svg>