<svg width="24" height="24" fill="none" xmlns="http://www.w3.org/2000/svg"><path d="M8.08 1.282c-4.072.213-6.185 2.014-6.697 5.709-.113.812-.141 1.825-.141 5.009 0 4.504.06 5.273.518 6.65.772 2.313 2.446 3.576 5.267 3.972.759.106 1.875.137 4.973.137s4.214-.031 4.973-.137c2.47-.347 4.023-1.334 4.924-3.132.452-.902.705-1.978.823-3.506.052-.674.052-7.294 0-7.968-.088-1.142-.225-1.902-.476-2.654-.612-1.832-1.773-2.994-3.594-3.602-.862-.287-1.627-.416-2.844-.48-.854-.045-6.854-.043-7.726.002m1.16 10.724v9.246l-.81-.024c-.892-.027-1.411-.092-2.118-.268-2.089-.52-3.076-1.714-3.458-4.18-.069-.445-.074-.791-.074-4.78 0-3.989.005-4.335.074-4.78.331-2.139 1.098-3.282 2.626-3.912.854-.353 1.891-.531 3.15-.543l.61-.005v9.246m7.56-9.151c2.477.406 3.641 1.373 4.16 3.457.103.414.24 1.204.24 1.383 0 .06-.433.065-5.22.065h-5.22V2.755l2.81.015c2.417.014 2.869.026 3.23.085M21.24 12v2.76H10.76V9.24h10.48V12m-.04 4.305c0 .179-.137.969-.24 1.383-.456 1.831-1.441 2.816-3.272 3.272-1.004.249-1.049.252-4.118.27l-2.81.015V16.24h5.22c4.787 0 5.22.005 5.22.065" fill-rule="evenodd" fill="#000"/></svg>