<svg width="24" height="24" fill="none" xmlns="http://www.w3.org/2000/svg"><path d="M8.08 1.282c-4.072.213-6.185 2.014-6.697 5.709-.113.812-.141 1.825-.141 5.009 0 4.504.06 5.273.518 6.65.772 2.313 2.446 3.576 5.267 3.972.759.106 1.875.137 4.973.137s4.214-.031 4.973-.137c2.47-.347 4.023-1.334 4.924-3.132.482-.96.741-2.121.823-3.683.051-.969.051-6.645 0-7.614-.063-1.195-.199-2.002-.478-2.837-.61-1.825-1.773-2.989-3.592-3.596-.862-.287-1.627-.416-2.844-.48-.854-.045-6.854-.043-7.726.002M11.24 7v4.24H2.752l.019-1.81c.014-1.429.032-1.898.085-2.23.385-2.418 1.338-3.596 3.344-4.135.924-.248 1.436-.293 3.43-.3l1.61-.005V7m5.56-4.144c2.756.443 3.901 1.588 4.344 4.344.053.333.071.793.085 2.23l.019 1.81H12.76V2.752l1.81.019c1.437.014 1.897.032 2.23.085m-5.56 14.148v4.244l-1.81-.019c-1.963-.019-2.194-.039-3.118-.269-2.083-.518-3.064-1.699-3.456-4.16-.053-.332-.071-.801-.085-2.23l-.019-1.81h8.488v4.244m9.989-2.434c-.019 1.963-.039 2.194-.269 3.118-.456 1.831-1.441 2.816-3.272 3.272-.924.23-1.155.25-3.118.269l-1.81.019V12.76h8.488l-.019 1.81" fill-rule="evenodd" fill="#000"/></svg>