<svg width="24" height="24" fill="none" xmlns="http://www.w3.org/2000/svg"><path d="M7.92 1.284c-1.056.083-1.811.223-2.579.48-2.294.765-3.574 2.455-3.958 5.227-.113.812-.141 1.825-.141 5.009s.028 4.197.141 5.009c.385 2.778 1.664 4.461 3.979 5.235.752.251 1.512.388 2.654.476.674.052 7.294.052 7.968 0 2.172-.168 3.535-.63 4.657-1.577.895-.757 1.567-2.005 1.858-3.454.234-1.168.261-1.752.261-5.689 0-3.937-.027-4.521-.261-5.689-.471-2.344-1.743-3.848-3.849-4.551-.786-.261-1.503-.391-2.648-.479-.637-.049-7.455-.046-8.082.003m6.84 3.976v2.501l-2.75-.011-2.75-.01-.01-2.49-.011-2.49h5.521v2.5m-7 .02v2.48H2.791l.027-.23c.311-2.661 1.34-3.969 3.542-4.506.41-.099 1.069-.212 1.29-.22l.11-.004v2.48m9.035-2.418c2.422.352 3.646 1.367 4.165 3.45.103.414.24 1.204.24 1.383 0 .06-.21.065-2.47.055l-2.47-.01-.01-2.47c-.01-2.26-.005-2.47.055-2.47.035 0 .256.028.49.062M7.76 12v2.76h-5V9.24h5V12m7 0v2.761l-2.75-.011-2.75-.01-.01-2.7c-.006-1.485-.002-2.722.008-2.75.015-.039.605-.05 2.761-.05h2.741V12m6.48 0v2.761l-2.49-.011-2.49-.01-.01-2.7c-.006-1.485-.002-2.722.008-2.75.015-.039.553-.05 2.501-.05h2.481V12M7.76 18.72c0 2.26-.006 2.48-.065 2.48-.179 0-.969-.137-1.383-.24-2.169-.54-3.184-1.844-3.494-4.49l-.027-.23H7.76v2.48m7 .02v2.5H9.24v-2.473c0-1.361.012-2.486.027-2.5.014-.015 1.256-.027 2.76-.027h2.733v2.5m6.44-2.435c0 .179-.137.969-.24 1.383-.456 1.831-1.441 2.816-3.272 3.272-.414.103-1.204.24-1.383.24-.059 0-.065-.217-.065-2.453 0-1.35.012-2.466.027-2.48.014-.015 1.13-.027 2.48-.027 2.236 0 2.453.006 2.453.065" fill-rule="evenodd" fill="#000"/></svg>