<svg width="24" height="24" fill="none" xmlns="http://www.w3.org/2000/svg"><path d="M7.86 1.282c-.132.017-.438.052-.68.079-1.256.139-2.465.542-3.3 1.1-1.382.923-2.204 2.414-2.497 4.53-.113.812-.141 1.825-.141 5.009s.028 4.197.141 5.009c.384 2.775 1.665 4.461 3.973 5.233.834.279 1.64.415 2.837.478.941.051 7.476.051 7.907.001.176-.021.5-.058.72-.082 1.863-.211 3.4-.918 4.309-1.983.99-1.16 1.475-2.638 1.591-4.849.051-.969.051-6.645 0-7.614-.063-1.195-.199-2.002-.478-2.837-.61-1.825-1.773-2.989-3.592-3.596-.861-.286-1.625-.416-2.844-.48-.855-.046-7.584-.044-7.946.002M15 7v4.24H9V2.76h6V7m-7.48.04v4.2H2.752l.019-1.81c.014-1.429.032-1.898.085-2.23.34-2.134 1.103-3.266 2.624-3.892.545-.224 1.481-.454 1.89-.464l.15-.004v4.2m9.849-4.076c2.035.421 3.113 1.427 3.591 3.348.23.924.25 1.155.269 3.118l.019 1.81H16.48V2.829l.239.025c.131.013.423.063.65.11M7.52 16.966v4.205l-.239-.025a8.171 8.171 0 0 1-.65-.11c-2.045-.423-3.134-1.449-3.606-3.396-.214-.881-.235-1.132-.254-3.07l-.019-1.81H7.52v4.206M15 17v4.24H9v-8.48h6V17m6.229-2.43c-.019 1.963-.039 2.194-.269 3.118-.478 1.921-1.556 2.927-3.591 3.348a8.171 8.171 0 0 1-.65.11l-.239.025V12.76h4.768l-.019 1.81" fill-rule="evenodd" fill="#000"/></svg>