<svg width="24" height="24" fill="none" xmlns="http://www.w3.org/2000/svg"><path d="M7.92 1.284c-1.056.083-1.811.223-2.579.48-2.294.765-3.574 2.455-3.958 5.227-.113.812-.141 1.825-.141 5.009 0 4.504.06 5.273.518 6.65.965 2.892 3.395 4.184 7.722 4.104.849-.015.95-.04 1.128-.279.168-.226.168-.724 0-.95-.158-.212-.297-.257-.856-.277l-.515-.019.011-2.484.01-2.485 1.52-.02c1.437-.019 1.528-.024 1.659-.101.215-.127.29-.291.29-.639 0-.348-.075-.512-.29-.639-.131-.077-.222-.082-1.659-.101l-1.52-.02V9.26l2.748-.01 2.748-.011.012 1.538c.012 1.481.015 1.541.094 1.648.164.219.281.274.611.287.347.014.522-.051.664-.245.08-.108.084-.175.103-1.66l.02-1.547 2.486-.01 2.487-.011.013 1.011c.013.924.021 1.022.094 1.146.161.273.478.396.845.327a.646.646 0 0 0 .475-.327c.075-.127.081-.222.094-1.416.023-2.176-.118-3.444-.512-4.624-.61-1.825-1.773-2.989-3.592-3.596-.786-.261-1.503-.391-2.648-.479-.637-.049-7.455-.046-8.082.003m6.84 3.976v2.501l-2.75-.011-2.75-.01-.01-2.49-.011-2.49h5.521v2.5m-7 .02v2.48H2.791l.027-.23c.311-2.661 1.34-3.969 3.542-4.506.41-.099 1.069-.212 1.29-.22l.11-.004v2.48m9.035-2.418c2.422.352 3.646 1.367 4.165 3.45.103.414.24 1.204.24 1.383 0 .06-.21.065-2.47.055l-2.47-.01-.01-2.47c-.01-2.26-.005-2.47.055-2.47.035 0 .256.028.49.062M7.76 12v2.76h-5V9.24h5V12m11.93 1.283a2.532 2.532 0 0 0-.935.4c-.321.218-.658.544-2.997 2.901-2.02 2.036-2.066 2.089-2.212 2.616-.034.121-.12.631-.191 1.132-.144 1.007-.138 1.231.045 1.609.114.235.398.517.651.644.367.187.591.195 1.553.056.471-.068.955-.143 1.076-.167.282-.056.66-.24.906-.442.272-.222 3.825-3.764 4.276-4.261.617-.681.818-1.087.849-1.721.024-.478-.096-.89-.388-1.334-.241-.366-.813-.92-1.166-1.127-.457-.268-1.016-.385-1.467-.306m.646 1.559c.096.045.303.215.46.376.287.296.442.556.443.744.002.177-.187.488-.457.756l-.261.259-.17-.084c-.457-.222-.998-.758-1.233-1.219l-.115-.227.278-.262c.455-.43.7-.509 1.055-.343M7.76 18.72c0 2.26-.006 2.48-.065 2.48-.179 0-.969-.137-1.383-.24-2.169-.54-3.184-1.844-3.494-4.49l-.027-.23H7.76v2.48m10.678-1.436c.135.151.407.395.605.543l.361.269-1.432 1.432c-.929.929-1.474 1.446-1.552 1.47-.119.038-1.486.242-1.618.242-.063 0-.06-.057.04-.751.059-.414.121-.814.137-.89.024-.114.293-.404 1.473-1.588l1.444-1.448.148.224c.082.123.259.347.394.497" fill-rule="evenodd" fill="#000"/></svg>