<svg width="24" height="24" fill="none" xmlns="http://www.w3.org/2000/svg"><path d="M8.76 1.28a4.27 4.27 0 0 0-2.269 1.042c-.193.169-1.243 1.206-2.334 2.303C1.935 6.861 1.829 6.99 1.505 7.851c-.25.664-.245.577-.245 4.149s-.005 3.485.245 4.149c.324.861.43.99 2.652 3.226 1.091 1.097 2.141 2.134 2.334 2.303a4.396 4.396 0 0 0 1.869.975c.336.086.379.087 3.64.087s3.304-.001 3.64-.087a4.396 4.396 0 0 0 1.869-.975c.193-.169 1.243-1.206 2.334-2.303 2.222-2.236 2.328-2.365 2.652-3.226.25-.664.245-.577.245-4.149s.005-3.485-.245-4.149c-.324-.861-.43-.99-2.652-3.226-1.091-1.097-2.141-2.134-2.334-2.303a4.433 4.433 0 0 0-1.849-.972c-.312-.083-.4-.085-3.48-.093-1.738-.005-3.277.006-3.42.023m6.74 1.574c.598.22.678.28 1.611 1.203l.891.881-6.531 6.532-6.531 6.531-.882-.89c-.749-.756-.901-.931-1.007-1.151-.289-.604-.271-.34-.271-3.96 0-3.619-.018-3.354.27-3.96.112-.235.335-.472 2.347-2.494 1.223-1.229 2.316-2.296 2.43-2.37.218-.142.512-.271.813-.358.142-.041.871-.05 3.42-.045 3.04.007 3.252.012 3.44.081m4.464 4.056c.726.734.88.911.985 1.13.289.604.271.34.271 3.96 0 3.619.018 3.353-.27 3.96-.112.237-.33.466-2.427 2.563s-2.326 2.315-2.563 2.427c-.607.288-.341.27-3.96.27-3.62 0-3.356.018-3.96-.271-.22-.105-.395-.258-1.14-.996l-.88-.871 6.52-6.521c3.586-3.587 6.53-6.521 6.542-6.521.012 0 .409.391.882.87" fill-rule="evenodd" fill="#000"/></svg>