<svg width="24" height="24" fill="none" xmlns="http://www.w3.org/2000/svg"><path d="M8.089 1.227c-.192.094-.482.433-.513.6-.052.278.037.432.556.962l.484.493-3.141 3.149C3.748 8.163 2.252 9.679 2.152 9.8c-.407.491-.684 1.004-.814 1.504-.093.364-.094.983-.001 1.356.092.368.368.931.628 1.28.114.154 1.253 1.326 2.531 2.604 2.137 2.137 2.359 2.347 2.755 2.607.716.469 1.359.64 2.102.561.714-.076 1.372-.429 2.167-1.16.795-.732 6.145-6.123 6.259-6.308a1.755 1.755 0 0 0 .001-1.848c-.165-.267-8.964-9.06-9.163-9.157-.196-.095-.353-.099-.528-.012m4.688 6.25 3.076 3.076-.177.022c-.157.019-12.321.549-12.547.546-.082-.001-.087-.011-.046-.091.044-.087 6.554-6.63 6.597-6.63.011 0 1.405 1.384 3.097 3.077m.163 7.518c-2.857 2.852-2.927 2.918-3.238 3.07-.298.145-.34.155-.682.155-.339 0-.385-.01-.664-.148a3.545 3.545 0 0 1-.598-.405c-.164-.142-1.253-1.218-2.421-2.392-1.944-1.956-2.482-2.543-2.401-2.624.025-.025 11.82-.558 12.524-.566l.4-.004-2.92 2.914m5.673-.718c-.541.246-1.881 2.158-2.212 3.156-.177.534-.179 1.159-.004 1.66.267.768.947 1.413 1.743 1.652.367.11 1.07.101 1.46-.019.887-.274 1.594-1.033 1.78-1.91.226-1.067-.254-2.229-1.603-3.876-.401-.489-.514-.598-.706-.678-.19-.079-.254-.077-.458.015m.515 2.266c.3.416.573.878.703 1.187.332.792-.153 1.593-.968 1.597a1.078 1.078 0 0 1-1.008-.627c-.235-.498-.047-1.072.698-2.131.143-.204.28-.365.304-.357.024.007.146.156.271.331M2.787 21.278c-.342.067-.519.314-.519.722 0 .462.207.693.663.739.137.014 3.192.02 6.789.013 6.457-.012 6.542-.013 6.676-.092.273-.161.396-.478.327-.845a.646.646 0 0 0-.327-.475c-.134-.079-.213-.08-6.796-.086-3.663-.003-6.729.008-6.813.024" fill-rule="evenodd" fill="#000"/></svg>