<svg width="24" height="24" fill="none" xmlns="http://www.w3.org/2000/svg"><path d="M11.32 1.281c-4.279.244-8.068 3.128-9.477 7.216a10.886 10.886 0 0 0-.279 6.053 10.76 10.76 0 0 0 7.886 7.886 10.96 10.96 0 0 0 5.1 0 10.76 10.76 0 0 0 7.886-7.886 10.96 10.96 0 0 0 0-5.1 10.758 10.758 0 0 0-8.694-8.052c-.408-.067-1.668-.169-1.862-.151l-.56.034m1.826 1.541a9.086 9.086 0 0 1 2.914.874c2.817 1.383 4.708 4.026 5.118 7.158.123.932.066 2.172-.144 3.144-.289 1.345-1.031 2.857-1.913 3.902a9.31 9.31 0 0 1-3.061 2.404 8.94 8.94 0 0 1-4.06.936 8.93 8.93 0 0 1-4.06-.936c-2.817-1.383-4.708-4.026-5.118-7.158-.123-.932-.066-2.172.144-3.144.211-.982.737-2.227 1.302-3.082a9.335 9.335 0 0 1 6.552-4.097c.56-.077 1.749-.077 2.326-.001m-4.635 4.4c-.34.083-.619.24-.895.505a1.939 1.939 0 0 0 0 2.826c.282.271.554.422.913.507a1.93 1.93 0 0 0 1.864-.556c.271-.282.422-.554.507-.913.157-.667-.023-1.311-.507-1.815a1.947 1.947 0 0 0-1.882-.554m6.309.804c-.176.091-6.851 6.766-6.943 6.942-.091.175-.1.432-.02.584.065.125.323.378.45.443.134.069.4.054.565-.032.184-.097 6.856-6.774 6.944-6.951.079-.159.083-.421.007-.564a1.557 1.557 0 0 0-.45-.443c-.124-.064-.412-.053-.553.021m-5.58.728a.686.686 0 0 1 .173.218c.061.122.066.171.029.282a.557.557 0 0 1-.353.349c-.105.037-.153.031-.276-.029-.406-.202-.411-.658-.01-.865.151-.078.281-.065.437.045m5.86 4.173c-.551.105-1.089.534-1.36 1.083-.137.28-.154.348-.171.705-.032.664.133 1.11.57 1.545.77.765 1.993.765 2.761 0 .406-.404.579-.823.579-1.4s-.173-.996-.579-1.4c-.475-.474-1.116-.663-1.8-.533m.672 1.521c.107.055.228.275.228.416a.52.52 0 0 1-.331.445.46.46 0 0 1-.538-.185c-.283-.421.182-.912.641-.676" fill-rule="evenodd" fill="#000"/></svg>