<svg width="24" height="24" fill="none" xmlns="http://www.w3.org/2000/svg"><path d="M5.66 1.278c-1.084.13-2 .917-2.308 1.982l-.092.32v4.36c0 4.617-.004 4.497.188 5.1.246.769.808 1.514 1.46 1.935.15.096.965.566 1.812 1.044.847.477 1.599.925 1.672.994.072.069.18.225.24.347l.108.22.024 1.46c.02 1.216.036 1.5.093 1.698a2.86 2.86 0 0 0 1.983 1.931c.384.102 1.986.1 2.359-.004a2.878 2.878 0 0 0 1.944-1.865c.06-.187.074-.44.095-1.7.024-1.425.028-1.488.116-1.684.163-.365.357-.505 1.946-1.399.814-.458 1.6-.909 1.747-1.002.774-.494 1.384-1.351 1.623-2.282.065-.252.07-.611.07-4.713V3.58l-.092-.32a2.835 2.835 0 0 0-1.888-1.907l-.3-.091-6.28-.006c-3.454-.004-6.388.007-6.52.022m12.794 1.563c.29.109.596.415.705.705.077.207.081.306.081 2.116V7.56H4.76V5.662c0-1.81.004-1.909.081-2.116.106-.282.415-.596.694-.703.201-.077.331-.079 6.453-.081 6.184-.002 6.251-.001 6.466.079m.825 7.729c0 1.674-.018 1.832-.259 2.311a2.5 2.5 0 0 1-.72.839c-.088.06-.848.498-1.689.972-.841.475-1.607.916-1.702.982-.322.222-.656.622-.847 1.017-.098.203-.2.45-.225.549-.029.111-.057.738-.072 1.64l-.025 1.46-.107.2c-.128.241-.35.46-.593.587-.172.089-.217.093-1.04.093-.82 0-.868-.004-1.032-.092a1.479 1.479 0 0 1-.602-.642l-.105-.226-.024-1.46c-.026-1.609-.03-1.643-.301-2.16a2.645 2.645 0 0 0-.727-.887c-.132-.099-.922-.565-1.755-1.034a61.131 61.131 0 0 1-1.74-1.004 2.23 2.23 0 0 1-.893-1.293c-.049-.194-.061-.533-.061-1.79V9.08h14.52l-.001 1.49" fill-rule="evenodd" fill="#000"/></svg>