<svg width="24" height="24" fill="none" xmlns="http://www.w3.org/2000/svg"><path d="M18.731 3.303c-.189.097-.438.385-.494.572-.08.265.019.453.509.964l.418.436-1.692.014-1.692.013-.34.112a3.55 3.55 0 0 0-1.555 1.003c-.119.134-1.706 2.477-3.527 5.207-3.499 5.246-3.443 5.168-3.902 5.393-.431.211-.552.223-2.176.223-1.479 0-1.506.001-1.681.09-.25.127-.332.288-.332.65 0 .362.082.523.332.65.176.089.198.09 1.767.09 1.701 0 1.858-.014 2.408-.214a3.689 3.689 0 0 0 1.184-.746c.292-.284.664-.829 4.712-6.904 1.45-2.176 2.313-3.434 2.444-3.562.214-.212.539-.392.866-.481.161-.044.7-.053 2.741-.048 2.226.006 2.555-.001 2.66-.055.181-.095.285-.228.362-.464.065-.202.065-.227.002-.427-.062-.196-.149-.294-1.096-1.233-.566-.562-1.115-1.088-1.22-1.169-.228-.178-.489-.22-.698-.114M3.453 5.278c-.739.02-.817.029-.92.106-.191.143-.265.313-.265.611 0 .331.088.531.286.654.144.09.166.091 1.846.111 1.644.02 1.707.024 1.91.11.5.212.718.43 1.43 1.43.708.995.815 1.1 1.12 1.1.364 0 .82-.411.82-.74 0-.187-.112-.376-.727-1.232-.836-1.162-1.168-1.496-1.813-1.819-.711-.356-1.192-.399-3.687-.331m9.284 9.377c-.166.075-.408.292-.479.429-.095.184-.073.436.055.638.191.301 1.375 1.804 1.595 2.024.543.543 1.289.889 2.103.974.264.027.898.033 1.789.015l1.38-.028-.426.446c-.498.52-.597.706-.517.972.027.09.12.24.207.335.271.294.538.369.83.231.18-.085 2.316-2.173 2.423-2.37.148-.269.069-.719-.163-.928-.175-.158-.231-.162-2.874-.155-2.7.007-2.774.003-3.16-.18-.379-.179-.556-.358-1.313-1.33-.411-.527-.796-.991-.856-1.03-.141-.093-.438-.114-.594-.043" fill-rule="evenodd" fill="#000"/></svg>