<svg width="24" height="24" fill="none" xmlns="http://www.w3.org/2000/svg"><path d="M11.34 1.482a3.899 3.899 0 0 0-1.554.624c-.443.319-7.182 5.737-7.389 5.941-.496.491-.917 1.322-1.08 2.133-.122.607-.093.847.6 4.98.765 4.559.76 4.53.921 4.95.418 1.084 1.499 2.027 2.682 2.34l.34.09h12.28l.34-.09c1.175-.313 2.269-1.27 2.684-2.348.158-.409.153-.378.917-4.942.766-4.573.761-4.512.459-5.48-.226-.724-.583-1.307-1.08-1.764-.266-.245-6.971-5.604-7.288-5.826a3.745 3.745 0 0 0-1.179-.532c-.385-.094-1.273-.136-1.653-.076m1.334 1.543c.121.032.326.115.457.184.251.134 7.163 5.639 7.447 5.932.343.352.618 1.029.649 1.599.018.33-.037.702-.664 4.45-.398 2.377-.717 4.178-.763 4.302-.169.451-.52.878-.957 1.163-.361.236-.626.339-.992.388-.204.026-2.292.037-6.071.029l-5.76-.012-.26-.093c-.719-.258-1.315-.821-1.558-1.471-.048-.129-.359-1.877-.765-4.306-.636-3.802-.683-4.117-.665-4.47.032-.628.291-1.223.708-1.627.143-.139 1.823-1.503 3.732-3.031 2.462-1.969 3.545-2.812 3.72-2.895.51-.241 1.159-.294 1.742-.142m-1.269 6.78c-.615.102-1.189.412-1.689.911-.651.652-.955 1.379-.955 2.284 0 .905.304 1.632.955 2.284.652.651 1.379.955 2.284.955.905 0 1.632-.304 2.284-.955.651-.652.955-1.379.955-2.284 0-.905-.304-1.632-.955-2.284-.665-.664-1.395-.963-2.324-.951-.187.002-.437.02-.555.04m.888 1.474c.341.056.638.208.909.466a1.717 1.717 0 0 1 0 2.51 1.709 1.709 0 0 1-2.404 0 1.713 1.713 0 0 1-.053-2.457 1.677 1.677 0 0 1 1.548-.519" fill-rule="evenodd" fill="#000"/></svg>