<svg width="24" height="24" fill="none" xmlns="http://www.w3.org/2000/svg"><path d="M11.52 1.265c-2.341.116-4.483.921-6.298 2.37-1.539 1.227-2.816 3.073-3.441 4.973A10.203 10.203 0 0 0 1.24 12c0 1.231.16 2.237.541 3.392 1.187 3.608 4.227 6.32 7.983 7.124.959.205 2.426.276 3.396.164 4.275-.491 7.853-3.466 9.093-7.56.318-1.049.444-1.934.444-3.12 0-1.186-.126-2.071-.444-3.12-1.044-3.445-3.746-6.129-7.229-7.179-1.057-.318-2.426-.489-3.504-.436m1.562 1.552a9.27 9.27 0 0 1 7.578 6.001c.364.983.548 2.04.55 3.162a8.875 8.875 0 0 1-.449 2.901 9.267 9.267 0 0 1-7.833 6.321c-.633.068-1.891.03-2.488-.076-2.035-.362-3.743-1.274-5.161-2.754-3.409-3.558-3.412-9.184-.007-12.737 1.18-1.232 2.561-2.073 4.157-2.532.43-.124 1.234-.279 1.631-.315.434-.039 1.607-.023 2.022.029M7.086 15.239c-.175.043-.442.236-.56.406-.077.111-.09.174-.078.357.014.19.047.267.234.54.12.175.416.516.658.758a6.515 6.515 0 0 0 4.672 1.939c1.391-.002 2.7-.429 3.874-1.263.428-.303 1.107-.983 1.412-1.412.211-.297.239-.36.252-.559.018-.276-.061-.42-.332-.606-.231-.159-.429-.209-.626-.156-.15.04-.258.146-.762.757-.581.703-1.62 1.35-2.543 1.584-1.421.361-2.866.122-4.067-.671a4.81 4.81 0 0 1-1.202-1.095c-.27-.345-.507-.578-.589-.579a.816.816 0 0 1-.129-.016.619.619 0 0 0-.214.016" fill-rule="evenodd" fill="#000"/></svg>