<svg width="24" height="24" fill="none" xmlns="http://www.w3.org/2000/svg"><path d="M9.705 2.281a.637.637 0 0 0-.371.35c-.043.1-.654 5.293-.654 5.554 0 .041-.552.054-2.73.063-2.656.012-2.734.014-2.87.093-.424.245-.424 1.073 0 1.318.136.079.214.081 2.77.093l2.63.012v.092c0 .09-.415 3.885-.461 4.212l-.023.169-2.888.011c-2.815.012-2.892.014-3.028.093-.424.245-.424 1.073 0 1.318.136.079.213.081 2.951.093l2.812.012-.022.128c-.011.07-.147 1.271-.3 2.668-.215 1.951-.271 2.577-.242 2.7.053.229.254.4.538.459.409.085.722-.043.849-.348.043-.102.654-5.299.654-5.558 0-.043.416-.053 2.262-.053h2.262l-.022.13c-.012.071-.148 1.273-.301 2.67-.215 1.951-.271 2.577-.242 2.7.053.229.254.4.538.459.409.085.722-.043.849-.348.043-.101.654-5.299.654-5.557 0-.041.545-.053 2.73-.062 2.656-.012 2.734-.014 2.87-.093a.67.67 0 0 0 .23-.258c.186-.367.073-.885-.23-1.06-.136-.079-.214-.081-2.77-.093l-2.63-.011v-.092c0-.091.415-3.885.461-4.214l.023-.168 2.888-.012c2.815-.011 2.892-.013 3.028-.092a.67.67 0 0 0 .23-.258c.186-.367.073-.885-.23-1.06-.136-.079-.213-.081-2.952-.093l-2.811-.011.021-.129c.012-.07.148-1.271.301-2.668.215-1.951.271-2.577.242-2.7-.053-.229-.254-.4-.538-.459-.409-.085-.722.043-.849.348-.043.102-.654 5.299-.654 5.558 0 .043-.416.053-2.262.053h-2.262l.022-.13c.012-.071.148-1.273.301-2.67.215-1.951.271-2.577.242-2.7-.083-.358-.589-.586-1.016-.459m4.775 7.573c0 .092-.415 3.884-.461 4.216l-.024.17H9.52v-.094c0-.092.415-3.884.461-4.216l.024-.17h4.475v.094" fill-rule="evenodd" fill="#000"/></svg>