<svg width="24" height="24" fill="none" xmlns="http://www.w3.org/2000/svg"><path d="M8.08 1.282c-4.072.213-6.185 2.014-6.697 5.709-.113.812-.141 1.825-.141 5.009 0 4.504.06 5.273.518 6.65.771 2.31 2.438 3.57 5.254 3.971.778.111 2.086.144 5.186.131 2.976-.012 3.064-.014 3.196-.092.273-.161.396-.478.327-.845a.646.646 0 0 0-.327-.475c-.133-.078-.23-.081-3.956-.103-4.183-.025-4.095-.02-5.128-.277-2.089-.52-3.076-1.714-3.458-4.18-.069-.445-.074-.791-.074-4.78 0-3.989.005-4.335.074-4.78.428-2.764 1.602-3.938 4.366-4.366.445-.069.791-.074 4.78-.074 4.745 0 4.622-.006 5.688.26 1.832.456 2.816 1.441 3.272 3.272.246.989.25 1.056.276 4.128.023 2.725.027 2.825.104 2.956a.646.646 0 0 0 .475.327c.367.069.684-.054.845-.327.077-.13.081-.22.093-2.196.021-3.416-.078-4.55-.511-5.844-.61-1.825-1.773-2.989-3.592-3.596-.862-.287-1.627-.416-2.844-.48-.854-.045-6.854-.043-7.726.002M9.6 5.563c-.171.072-.28.205-.339.415-.031.111-.112.724-.18 1.362-.068.638-.133 1.2-.143 1.25l-.02.09-1.309.001c-1.2.001-1.323.007-1.477.077-.229.104-.332.31-.332.662 0 .351.097.542.331.656.166.08.236.084 1.402.084H8.76l-.003.09c-.002.05-.043.423-.09.83l-.087.74-1.44.02c-1.356.019-1.448.025-1.579.101-.215.127-.294.299-.294.639 0 .362.082.523.332.65.174.088.209.09 1.489.09 1.264 0 1.312.003 1.312.076 0 .042-.056.569-.124 1.17-.067.602-.115 1.189-.106 1.306.029.358.249.551.683.596.387.04.656-.126.744-.46.021-.081.094-.652.162-1.268.067-.616.132-1.187.145-1.27l.023-.15h.817c.776 0 .816.004.816.076 0 .042-.056.569-.124 1.17-.067.602-.115 1.189-.106 1.306.029.358.249.551.683.596.387.04.656-.126.744-.46.021-.081.094-.652.162-1.268.067-.616.132-1.187.145-1.27l.023-.15h1.304c1.244 0 1.312-.004 1.478-.084.234-.114.331-.305.331-.656 0-.351-.097-.542-.331-.656-.166-.08-.235-.084-1.405-.084h-1.231l.023-.15c.012-.083.051-.42.085-.75.034-.33.071-.64.082-.69l.019-.09h1.39c1.363 0 1.395-.002 1.569-.09.25-.127.328-.281.328-.65s-.078-.523-.328-.65c-.174-.088-.209-.09-1.489-.09-.773 0-1.312-.015-1.312-.037 0-.02.054-.517.12-1.103s.12-1.178.12-1.314c0-.484-.226-.686-.767-.686-.247 0-.329.016-.42.083-.22.16-.252.294-.415 1.71-.083.73-.153 1.332-.155 1.337-.009.031-1.643.004-1.643-.027 0-.02.054-.517.12-1.103s.12-1.178.12-1.314c0-.31-.092-.493-.304-.603-.178-.093-.617-.127-.776-.06m2.317 4.687c-.002.05-.043.423-.09.83l-.087.74-.834.011-.833.011.023-.151c.012-.083.051-.421.085-.751.034-.33.071-.64.082-.69.018-.09.02-.09.838-.09h.819l-.003.09m6.883 4.995c-.106.031-.429.33-1.327 1.228-1.307 1.308-1.328 1.336-1.232 1.692.06.221.373.534.594.594.302.081.442.009.95-.487l.451-.441.012 2.214c.012 2.132.015 2.22.092 2.351.161.273.478.396.845.327a.646.646 0 0 0 .475-.327c.077-.131.08-.219.092-2.351l.012-2.214.451.441c.508.496.648.568.95.487.221-.06.534-.373.594-.594.094-.349.066-.388-1.173-1.643-.619-.628-1.18-1.172-1.247-1.209a.743.743 0 0 0-.539-.068" fill-rule="evenodd" fill="#000"/></svg>