<svg width="24" height="24" fill="none" xmlns="http://www.w3.org/2000/svg"><path d="M3.805 1.881c-.746.104-1.476.5-2.056 1.116-.469.497-.523.772-.5 2.563.017 1.389.026 1.445.309 1.89.266.42 1.22 1.018 1.902 1.193.411.106 1.082.116 1.48.021.383-.091.957-.382 1.228-.624l.225-.2H7.76v3.516l-.29.151A2.363 2.363 0 0 0 6.334 12.9c-.068.221-.074.423-.074 2.6s.006 2.379.074 2.6a2.363 2.363 0 0 0 1.136 1.393l.29.151v1.29c0 1.258.002 1.293.09 1.467.126.248.282.328.647.33.365.002.525-.078.653-.33.088-.174.09-.209.09-1.467v-1.29l.29-.151a2.363 2.363 0 0 0 1.136-1.393c.068-.221.074-.423.074-2.6s-.006-2.379-.074-2.6a2.363 2.363 0 0 0-1.136-1.393l-.29-.151V7.685l.25-.131c.367-.192.897-.733 1.081-1.104.381-.769.35-1.731-.08-2.441A2.755 2.755 0 0 0 9.08 2.871c-.239-.079-.359-.088-1.46-.102l-1.2-.015-.18-.149c-.715-.592-1.568-.846-2.435-.724m15.615-.019c-.044.011-.179.038-.3.062-.459.091-.954.338-1.359.679l-.181.151-1.2.015c-1.101.014-1.221.023-1.46.102a2.755 2.755 0 0 0-1.411 1.138c-.431.712-.462 1.669-.08 2.441.184.371.714.912 1.081 1.104l.25.131v14.538l.09.178c.126.248.282.328.647.33.365.002.525-.078.653-.33l.09-.178V7.84h1.367l.225.2c.271.242.845.533 1.228.624.398.095 1.069.085 1.48-.021.724-.186 1.658-.787 1.931-1.243.26-.433.269-.505.269-2.08V3.9l-.114-.309c-.091-.248-.165-.365-.372-.589-.468-.505-1.133-.91-1.734-1.057-.264-.064-.954-.116-1.1-.083M4.784 3.446c.409.151.725.488.876.934.089.259.126 1.138.065 1.526-.024.157-.08.37-.124.472-.11.256-.446.599-.717.731-.2.097-.268.109-.644.109-.505 0-.726-.074-1.169-.391l-.291-.209-.011-1.257-.01-1.257.17-.174c.519-.529 1.23-.714 1.855-.484m15.533 0c.275.094.536.262.754.484l.17.174-.01 1.257-.011 1.257-.291.209c-.443.317-.664.391-1.169.391-.377 0-.443-.011-.647-.111a1.698 1.698 0 0 1-.748-.811c-.073-.188-.096-.345-.113-.776a5.963 5.963 0 0 1 .021-.834c.144-1.017 1.065-1.575 2.044-1.24M8.745 4.35c.388.204.589.526.592.95.002.318-.06.47-.291.713-.277.292-.381.323-1.146.34l-.68.015V4.232l.68.015c.604.014.698.025.845.103m8.035.953v1.063l-.68-.013c-.765-.015-.866-.045-1.146-.34-.229-.242-.292-.395-.292-.713 0-.315.084-.52.301-.737.271-.271.434-.314 1.217-.319l.6-.004v1.063m-7.836 7.6c.31.25.296.129.296 2.597 0 2.47.014 2.346-.298 2.599-.136.11-.176.121-.442.121s-.306-.011-.442-.121c-.315-.255-.301-.122-.289-2.645l.011-2.247.121-.149c.187-.231.354-.305.648-.289.203.012.274.036.395.134" fill-rule="evenodd" fill="#000"/></svg>