<svg width="24" height="24" fill="none" xmlns="http://www.w3.org/2000/svg"><path d="M10.651 1.383a10.615 10.615 0 0 0-8.188 5.661c-.681 1.305-1.068 2.688-1.181 4.216-.055.737-.055 6.897-.001 7.48.088.947.419 1.722 1.052 2.467.439.516 1.219 1.039 1.889 1.266.693.234 1.718.272 2.398.087 1.431-.387 2.551-1.419 3.025-2.788.215-.621.235-.857.234-2.767 0-1.958-.014-2.094-.265-2.605-.186-.378-.709-.916-1.081-1.112A2.703 2.703 0 0 0 7.321 13c-.486 0-.768.06-1.161.248-.457.218-.949.704-1.172 1.157-.26.529-.273.658-.26 2.657.012 1.73.014 1.775.096 1.885.147.197.324.273.636.273s.489-.076.636-.273c.082-.11.085-.162.104-1.88.022-1.973.017-1.935.312-2.24.244-.253.419-.326.788-.326.381 0 .555.076.81.353.291.315.298.373.281 2.335-.014 1.656-.017 1.72-.106 1.991-.393 1.199-1.508 2.022-2.733 2.019-1.303-.003-2.536-1.031-2.754-2.296-.028-.162-.037-1.532-.028-4.123.013-3.368.023-3.925.079-4.224.401-2.129 1.215-3.706 2.642-5.122 1.794-1.779 4.2-2.711 6.769-2.621 1.441.05 2.684.37 3.954 1.017 2.317 1.18 4.101 3.42 4.745 5.959.261 1.031.252.864.269 5.037.017 4.275.029 4.068-.277 4.694-.137.279-.235.408-.549.722-.314.314-.443.412-.722.549a2.545 2.545 0 0 1-1.244.288c-1.23.002-2.306-.784-2.706-1.979l-.107-.32-.014-1.711c-.017-2.019-.016-2.027.328-2.371a1.08 1.08 0 0 1 .763-.338c.383 0 .811.273.987.63.092.189.093.203.113 2.017.019 1.779.022 1.83.104 1.94.147.197.324.273.636.273s.489-.076.636-.273c.083-.111.084-.143.084-2.06V14.94l-.097-.295c-.243-.743-.863-1.364-1.63-1.633-.279-.098-.37-.11-.833-.111-.443-.001-.563.013-.815.096-.743.243-1.362.861-1.634 1.63l-.111.313-.012 1.831c-.013 2 .006 2.246.218 2.866a4.417 4.417 0 0 0 2.354 2.572c2.393 1.05 5.144-.252 5.877-2.782.175-.603.192-1.083.172-4.787-.02-3.63-.024-3.714-.228-4.72-.577-2.854-2.338-5.396-4.821-6.962a10.845 10.845 0 0 0-4.637-1.595c-.586-.058-1.858-.047-2.412.02" fill-rule="evenodd" fill="#000"/></svg>