<svg width="24" height="24" fill="none" xmlns="http://www.w3.org/2000/svg"><path d="M8.34 1.267c-2.4.095-4.038.656-5.203 1.781-1.092 1.054-1.662 2.469-1.855 4.601-.059.645-.06 8.049-.002 8.691.195 2.145.763 3.556 1.857 4.612.842.813 1.901 1.317 3.34 1.59.903.171 1.256.186 4.882.206 4.537.025 5.433-.021 6.716-.344 2.41-.606 3.863-2.155 4.387-4.676.234-1.128.238-1.219.238-5.728 0-4.509-.004-4.6-.238-5.728-.327-1.572-1.056-2.832-2.088-3.606-1.137-.854-2.512-1.272-4.554-1.385-.62-.034-6.686-.046-7.48-.014m8.42 1.587c2.335.387 3.481 1.247 4.056 3.046.355 1.112.434 2.111.416 5.28l-.012 2.08H17.7l-.26-.128c-.417-.205-.533-.358-1.142-1.512-.72-1.364-.786-1.456-1.193-1.671-.226-.119-.652-.121-.905-.004-.232.108-.483.366-.61.628-.056.114-.556 1.363-1.112 2.777-.556 1.413-1.022 2.57-1.035 2.57-.013 0-.212-.482-.443-1.07-.481-1.227-.613-1.512-.827-1.789-.349-.449-1.096-.932-1.653-1.067-.176-.043-.777-.051-3.01-.039l-2.79.014v-1.834c0-2.24.051-2.891.302-3.884.27-1.07.825-1.952 1.555-2.469.754-.535 1.805-.858 3.243-.995.088-.009 2.041-.013 4.34-.009 3.766.006 4.222.013 4.6.076M15.178 12.7c.173.33.382.699.465.82.283.416.68.736 1.227.989.496.229.701.248 2.64.25l1.73.001-.001.17a20.971 20.971 0 0 1-.14 1.915c-.405 2.699-1.596 3.87-4.379 4.303-.421.066-.824.072-4.74.072-3.932 0-4.319-.006-4.759-.073-2.716-.411-3.93-1.567-4.355-4.147-.109-.662-.146-1.268-.146-2.431v-1.131l2.77.011 2.77.011.2.098c.11.054.299.198.42.32.218.22.225.234.777 1.642.709 1.806.784 1.967 1.039 2.22.234.232.44.312.797.307.423-.005.777-.267 1.018-.754.064-.128.581-1.416 1.149-2.862l1.034-2.63.085.15c.047.082.226.419.399.749" fill-rule="evenodd" fill="#000"/></svg>