<svg width="24" height="24" fill="none" xmlns="http://www.w3.org/2000/svg"><path d="M11.32 1.281c-4.279.244-8.068 3.128-9.477 7.216a10.886 10.886 0 0 0-.279 6.053 10.76 10.76 0 0 0 7.886 7.886 10.96 10.96 0 0 0 5.1 0 10.76 10.76 0 0 0 7.886-7.886 10.96 10.96 0 0 0 0-5.1 10.758 10.758 0 0 0-8.694-8.052c-.408-.067-1.668-.169-1.862-.151l-.56.034m1.826 1.541a9.086 9.086 0 0 1 2.914.874c2.817 1.383 4.708 4.026 5.118 7.158.123.932.066 2.172-.144 3.144-.289 1.345-1.031 2.857-1.913 3.902a9.31 9.31 0 0 1-3.061 2.404 8.94 8.94 0 0 1-4.06.936 8.93 8.93 0 0 1-4.06-.936c-2.817-1.383-4.708-4.026-5.118-7.158-.123-.932-.066-2.172.144-3.144.211-.982.737-2.227 1.302-3.082a9.335 9.335 0 0 1 6.552-4.097c.56-.077 1.749-.077 2.326-.001M8.924 7.203a4.012 4.012 0 0 0-1.61.725C6.061 8.915 5.616 10.392 6 12.283c.282 1.386.949 2.553 2.137 3.738a9.204 9.204 0 0 0 2.496 1.796c.701.349.881.401 1.367.399.479-.002.709-.071 1.415-.424a9.144 9.144 0 0 0 2.447-1.772c.973-.969 1.56-1.869 1.931-2.96.354-1.043.438-2.327.206-3.172a3.725 3.725 0 0 0-2.367-2.528c-.461-.161-.845-.213-1.411-.189-.743.03-1.25.195-1.887.614-.18.118-.334.215-.343.215-.009 0-.112-.071-.228-.158a4.11 4.11 0 0 0-1.183-.564c-.363-.101-1.276-.142-1.656-.075M10.11 8.7c.475.112.925.401 1.258.806.289.352.545.445.863.312.082-.034.304-.22.494-.413.565-.573 1.098-.794 1.815-.753a2.202 2.202 0 0 1 1.643.879c.335.443.457.829.457 1.447-.001.964-.3 1.949-.855 2.814-.687 1.069-1.971 2.177-3.167 2.731-.542.251-.615.264-.886.156-1.344-.534-2.775-1.716-3.545-2.929-.782-1.232-1.053-2.866-.631-3.807.123-.275.435-.65.716-.861.246-.184.671-.374.928-.415.236-.038.678-.021.91.033" fill-rule="evenodd" fill="#000"/></svg>