<svg width="24" height="24" fill="none" xmlns="http://www.w3.org/2000/svg"><path d="M6.96 2.383c-.055.009-.235.037-.4.061-1.757.253-3.397 1.358-4.385 2.956-.38.615-.711 1.508-.836 2.26-.104.617-.083 1.912.043 2.755.276 1.844.992 3.601 2.138 5.247 1.682 2.414 4.529 4.656 7.263 5.719.514.2.792.259 1.217.259.425 0 .703-.059 1.217-.259 2.716-1.056 5.547-3.279 7.224-5.674.826-1.179 1.297-2.106 1.72-3.384.429-1.293.642-2.839.558-4.049-.038-.547-.056-.661-.183-1.164a6.279 6.279 0 0 0-4.443-4.525c-.617-.171-.91-.205-1.713-.202-.623.002-.833.018-1.166.09A6.576 6.576 0 0 0 12.3 3.918a3.171 3.171 0 0 1-.3.241 2.771 2.771 0 0 1-.3-.242 6.536 6.536 0 0 0-2.894-1.439c-.371-.079-1.582-.141-1.846-.095m1.521 1.559c1.074.204 2.048.796 2.803 1.704.134.162.31.334.39.384.306.188.631.079.989-.333.644-.742 1.207-1.168 1.956-1.478a4.746 4.746 0 0 1 5.2 1.042A4.79 4.79 0 0 1 21.183 7.9c.134.791.028 2.232-.244 3.305-.33 1.301-1.074 2.818-1.942 3.959-1.54 2.026-3.969 3.889-6.257 4.8-.382.152-.48.175-.74.176-.261 0-.357-.023-.74-.176-2.157-.861-4.49-2.601-6.009-4.484-1.045-1.295-1.876-2.946-2.225-4.42-.167-.706-.228-1.189-.253-2-.02-.614-.011-.838.044-1.16.352-2.083 1.996-3.701 4.063-4.002a5.685 5.685 0 0 1 1.601.044" fill-rule="evenodd" fill="#000"/></svg>