<svg width="24" height="24" fill="none" xmlns="http://www.w3.org/2000/svg"><path d="M6.96 2.383c-.055.009-.235.037-.4.061-1.757.253-3.397 1.358-4.385 2.956-.38.615-.713 1.516-.836 2.259-.105.641-.086 1.895.043 2.756a12.083 12.083 0 0 0 1.237 3.765c.842 1.607 2.018 3.057 3.541 4.364 1.394 1.197 3.256 2.337 4.689 2.871.523.195.733.235 1.151.219.283-.011.377-.031.467-.098.191-.143.265-.313.265-.611 0-.518-.187-.71-.742-.764-.807-.078-2.546-.978-4.01-2.075-1.85-1.387-3.259-3.029-4.14-4.826-.718-1.464-1.021-2.662-1.067-4.22-.018-.626-.009-.855.044-1.16a4.822 4.822 0 0 1 1.364-2.619A4.736 4.736 0 0 1 9.4 4.23c.771.329 1.276.712 1.937 1.469.358.41.683.519.989.331.08-.05.256-.222.39-.384.754-.907 1.733-1.502 2.8-1.702 1.603-.301 3.163.176 4.303 1.317a4.805 4.805 0 0 1 1.358 2.599c.117.671.066 1.86-.12 2.8-.034.176-.126.553-.204.839-.154.567-.158.738-.017.936.178.249.739.402.995.27.211-.109.315-.294.463-.825a11.225 11.225 0 0 0 .389-4.06c-.367-2.533-2.142-4.557-4.59-5.235-.617-.171-.91-.205-1.713-.202-.622.002-.834.018-1.164.089A6.583 6.583 0 0 0 12.3 3.916a2.855 2.855 0 0 1-.3.243c-.011 0-.146-.109-.3-.241a6.585 6.585 0 0 0-2.894-1.44c-.371-.079-1.582-.141-1.846-.095m10.371 11.5c-1.63.156-2.974 1.324-3.42 2.972-.127.469-.127 1.421 0 1.89.319 1.176 1.059 2.087 2.109 2.597.443.215.848.328 1.342.374a3.901 3.901 0 0 0 2.179-.416l.409-.207.597.587c.682.671.847.77 1.138.683.196-.058.482-.312.576-.51.1-.211.061-.445-.112-.681a8.96 8.96 0 0 0-.639-.679l-.497-.488.11-.177c.157-.252.344-.705.446-1.083.127-.469.127-1.421 0-1.89-.245-.905-.732-1.643-1.446-2.193a3.96 3.96 0 0 0-2.792-.779m1.218 1.595c.948.336 1.65 1.323 1.65 2.322 0 1.009-.708 1.995-1.671 2.328-.227.078-.348.092-.788.092-.44 0-.561-.014-.788-.092-.789-.273-1.441-1.012-1.612-1.828-.265-1.264.52-2.533 1.78-2.879.328-.09 1.1-.059 1.429.057" fill-rule="evenodd" fill="#000"/></svg>