<svg width="24" height="24" fill="none" xmlns="http://www.w3.org/2000/svg"><path d="M6.96 2.383c-.055.009-.235.037-.4.061-1.757.253-3.397 1.358-4.385 2.956-.38.615-.711 1.508-.836 2.26-.104.617-.083 1.912.043 2.755.276 1.844.992 3.601 2.138 5.247 1.318 1.892 3.314 3.658 5.54 4.901.895.5 1.935.948 2.401 1.034.543.1 1.143.033 1.699-.19l.3-.12.12.111c.357.33 1.08.766 1.597.964a5.557 5.557 0 0 0 6.858-2.459c.78-1.368.915-3.12.357-4.643a5.97 5.97 0 0 0-.619-1.191l-.18-.271.189-.449c.559-1.327.858-2.607.932-3.989.033-.612.011-1.318-.053-1.7-.368-2.203-1.92-4.113-3.968-4.884-.794-.299-1.369-.397-2.313-.393-.623.002-.833.018-1.166.09a6.504 6.504 0 0 0-2.884 1.418l-.33.278-.33-.278a6.486 6.486 0 0 0-2.864-1.413c-.371-.079-1.582-.141-1.846-.095m1.432 1.541a5.256 5.256 0 0 1 1.82.732c.306.204.817.671 1.107 1.015.288.34.382.409.597.438.245.032.483-.104.769-.444.287-.338.798-.806 1.103-1.009a4.862 4.862 0 0 1 3.272-.762 4.703 4.703 0 0 1 2.759 1.367A4.79 4.79 0 0 1 21.183 7.9c.055.321.064.549.045 1.16a9.054 9.054 0 0 1-.304 2.182c-.123.476-.416 1.346-.472 1.402-.018.017-.131-.032-.252-.111a7.959 7.959 0 0 0-1.265-.607 7.558 7.558 0 0 0-.66-.17c-.59-.125-1.561-.125-2.15 0-2.254.477-3.892 2.115-4.369 4.369-.124.586-.125 1.561-.002 2.143.11.517.286 1.019.509 1.451.115.224.162.352.135.379-.021.021-.187.04-.369.041-.297.001-.372-.016-.769-.175-2.157-.861-4.49-2.601-6.009-4.484-1.045-1.295-1.876-2.946-2.225-4.42-.167-.706-.228-1.189-.253-2-.02-.614-.011-.838.044-1.16.352-2.083 1.996-3.701 4.063-4.002a5.892 5.892 0 0 1 1.512.026m9.788 9.356a4.004 4.004 0 0 1 1.834 1.036c.394.381.618.692.844 1.17.295.625.362.942.361 1.714-.001.773-.068 1.094-.361 1.714a3.962 3.962 0 0 1-1.944 1.944c-.623.295-.942.362-1.714.362-.565 0-.709-.013-1-.093-2.466-.671-3.72-3.328-2.66-5.635a4.154 4.154 0 0 1 1.747-1.85c.34-.182.814-.349 1.213-.426.411-.079 1.271-.047 1.68.064m-1.263 1.516c-.377.123-.448.287-.47 1.094l-.017.63-.625.001c-.528.001-.651.013-.793.077-.229.104-.332.31-.332.662 0 .352.103.558.332.662.142.064.265.076.793.077l.626.001.015.69c.013.601.025.708.095.83.243.422 1.074.424 1.316.003.068-.118.081-.234.096-.83L17.97 18h.622c.551 0 .643-.01.797-.084.234-.114.331-.305.331-.656 0-.351-.097-.542-.331-.656-.154-.074-.246-.084-.797-.084h-.622l-.017-.63c-.02-.715-.065-.869-.3-1.014-.152-.094-.558-.138-.736-.08" fill-rule="evenodd" fill="#000"/></svg>