<svg width="24" height="24" fill="none" xmlns="http://www.w3.org/2000/svg"><path d="M6.96 2.383c-.055.009-.235.037-.4.061-1.757.253-3.397 1.358-4.385 2.956-.38.615-.711 1.508-.836 2.26-.104.617-.083 1.912.043 2.755.276 1.844.992 3.601 2.138 5.247 1.318 1.892 3.314 3.658 5.54 4.901.895.5 1.935.948 2.401 1.034.541.1 1.141.034 1.698-.188l.299-.119.201.17a5.623 5.623 0 0 0 2.581 1.202c.583.103 1.496.087 2.08-.035 1.659-.347 3.048-1.424 3.842-2.977a5.34 5.34 0 0 0 .555-2.885 5.494 5.494 0 0 0-.944-2.696l-.18-.271.189-.449c.559-1.327.858-2.607.932-3.989.033-.612.011-1.318-.053-1.7-.368-2.203-1.92-4.113-3.968-4.884-.794-.299-1.369-.397-2.313-.393-.623.002-.833.018-1.166.09a6.504 6.504 0 0 0-2.884 1.418l-.33.278-.33-.278a6.486 6.486 0 0 0-2.864-1.413c-.371-.079-1.582-.141-1.846-.095m1.432 1.541a5.256 5.256 0 0 1 1.82.732c.306.204.817.671 1.107 1.015.288.34.382.409.597.438.245.032.483-.104.769-.444.287-.338.798-.806 1.103-1.009a4.862 4.862 0 0 1 3.272-.762 4.703 4.703 0 0 1 2.759 1.367A4.79 4.79 0 0 1 21.183 7.9c.055.321.064.549.045 1.16a9.054 9.054 0 0 1-.304 2.182c-.123.476-.416 1.346-.472 1.402-.018.017-.131-.032-.252-.111a7.959 7.959 0 0 0-1.265-.607 7.558 7.558 0 0 0-.66-.17c-.59-.125-1.561-.125-2.15 0-2.548.539-4.311 2.584-4.467 5.184a5.49 5.49 0 0 0 .622 2.81c.115.213.151.315.121.345-.023.023-.19.043-.372.044-.297.001-.372-.016-.769-.175-2.157-.861-4.49-2.601-6.009-4.484-1.045-1.295-1.876-2.946-2.225-4.42-.167-.706-.228-1.189-.253-2-.02-.614-.011-.838.044-1.16.352-2.083 1.996-3.701 4.063-4.002a5.892 5.892 0 0 1 1.512.026m9.788 9.356a4.004 4.004 0 0 1 1.834 1.036c.394.381.618.692.844 1.17.297.631.361.94.359 1.734-.003.766-.058 1.047-.313 1.6-.686 1.485-2.114 2.42-3.697 2.42-1.502 0-2.8-.774-3.562-2.125-.397-.703-.573-1.703-.443-2.515a3.967 3.967 0 0 1 1.058-2.155 4.02 4.02 0 0 1 2.24-1.229c.411-.079 1.271-.047 1.68.064m.636 2.015c-.115.052-.322.236-1.676 1.484a23.19 23.19 0 0 1-.551.498c-.063.049-.114.012-.501-.365-.571-.558-.712-.604-1.121-.366-.39.227-.517.674-.29 1.017.176.265 1.408 1.467 1.577 1.537a.587.587 0 0 0 .538-.017c.211-.11 2.892-2.597 2.984-2.769.285-.533-.408-1.269-.96-1.019" fill-rule="evenodd" fill="#000"/></svg>