<svg width="24" height="24" fill="none" xmlns="http://www.w3.org/2000/svg"><path d="M6.96 2.383c-.055.009-.235.037-.4.061-1.757.253-3.397 1.358-4.385 2.956-.38.615-.711 1.508-.836 2.26-.104.617-.083 1.912.043 2.755.276 1.844.992 3.601 2.138 5.247 1.318 1.892 3.314 3.658 5.54 4.901.895.5 1.935.948 2.401 1.034.542.1 1.142.033 1.699-.189l.3-.12.2.169c1.49 1.258 3.596 1.618 5.474.936a5.617 5.617 0 0 0 2.232-1.54c1.635-1.852 1.826-4.642.457-6.686a2.996 2.996 0 0 1-.223-.361c0-.015.084-.226.186-.467.552-1.307.854-2.6.928-3.979.033-.612.011-1.318-.053-1.7-.368-2.203-1.92-4.113-3.968-4.884-.794-.299-1.369-.397-2.313-.393-.623.002-.833.018-1.166.09a6.504 6.504 0 0 0-2.884 1.418l-.33.278-.33-.278a6.486 6.486 0 0 0-2.864-1.413c-.371-.079-1.582-.141-1.846-.095m1.432 1.541a5.256 5.256 0 0 1 1.82.732c.306.204.817.671 1.107 1.015.288.34.382.409.597.438.245.032.483-.104.769-.444.287-.338.798-.806 1.103-1.009a4.862 4.862 0 0 1 3.272-.762 4.703 4.703 0 0 1 2.759 1.367A4.79 4.79 0 0 1 21.183 7.9c.055.321.064.549.045 1.16a9.054 9.054 0 0 1-.304 2.182c-.123.476-.416 1.346-.472 1.402-.018.017-.131-.032-.252-.111a7.959 7.959 0 0 0-1.265-.607c-.545-.183-1.039-.257-1.735-.258-.729 0-1.199.074-1.815.288-3.19 1.108-4.669 4.814-3.109 7.79.108.207.149.325.123.351-.022.022-.188.041-.37.042-.297.001-.372-.016-.769-.175-2.157-.861-4.49-2.601-6.009-4.484-1.045-1.295-1.876-2.946-2.225-4.42-.167-.706-.228-1.189-.253-2-.02-.614-.011-.838.044-1.16.352-2.083 1.996-3.701 4.063-4.002a5.892 5.892 0 0 1 1.512.026m9.474 9.293a3.925 3.925 0 0 1 2.119 1.073 4.043 4.043 0 0 1 1.119 1.81c.101.331.11.416.113 1.06.002.613-.009.742-.09 1.04a4.09 4.09 0 0 1-2.213 2.658c-.62.293-.941.36-1.714.361-.782.001-1.095-.066-1.74-.375a4.09 4.09 0 0 1-2.16-2.584 4.383 4.383 0 0 1-.103-1.618 4.073 4.073 0 0 1 3.303-3.423 4.5 4.5 0 0 1 1.366-.002m-2.129 2.04c-.299.13-.577.488-.577.743 0 .205.134.4.576.838l.421.418-.451.462c-.52.531-.632.732-.553.995.094.314.489.647.767.647.205 0 .358-.107.841-.585l.461-.456.423.433c.552.565.763.663 1.097.504.19-.09.444-.379.501-.571.081-.268-.019-.454-.523-.977l-.432-.448.432-.443c.469-.481.555-.638.502-.919-.039-.21-.43-.601-.64-.64-.282-.053-.438.033-.921.504l-.445.435-.398-.399c-.388-.39-.696-.6-.876-.596a.65.65 0 0 0-.205.055" fill-rule="evenodd" fill="#000"/></svg>