<svg width="24" height="24" fill="none" xmlns="http://www.w3.org/2000/svg"><path d="M6.96 2.383c-.055.009-.235.037-.4.061-1.757.253-3.397 1.358-4.385 2.956-.38.615-.713 1.516-.836 2.259-.105.641-.086 1.895.043 2.756a12.083 12.083 0 0 0 1.237 3.765c.842 1.607 2.018 3.057 3.541 4.364 1.394 1.197 3.256 2.337 4.689 2.871.523.195.733.235 1.151.219.283-.011.377-.031.467-.098.191-.143.265-.313.265-.611 0-.518-.187-.71-.742-.764-.807-.078-2.546-.978-4.01-2.075-1.85-1.387-3.259-3.029-4.14-4.826-.718-1.464-1.021-2.662-1.067-4.22-.018-.626-.009-.855.044-1.16a4.822 4.822 0 0 1 1.364-2.619A4.736 4.736 0 0 1 9.4 4.23c.771.329 1.276.712 1.937 1.469.358.41.683.519.989.331.08-.05.256-.222.39-.384.754-.907 1.733-1.502 2.8-1.702 1.603-.301 3.163.176 4.303 1.317a4.805 4.805 0 0 1 1.358 2.599c.117.671.066 1.86-.12 2.8-.034.176-.126.553-.204.839-.154.567-.158.738-.017.936.178.249.739.402.995.27.211-.109.315-.294.463-.825a11.225 11.225 0 0 0 .389-4.06c-.367-2.533-2.142-4.557-4.59-5.235-.617-.171-.91-.205-1.713-.202-.622.002-.834.018-1.164.089A6.583 6.583 0 0 0 12.3 3.916a2.855 2.855 0 0 1-.3.243c-.011 0-.146-.109-.3-.241a6.585 6.585 0 0 0-2.894-1.44c-.371-.079-1.582-.141-1.846-.095m12.75 12.151a2.766 2.766 0 0 0-.545.28c-.356.243-4.138 4.026-4.295 4.297-.162.277-.218.497-.334 1.325-.164 1.163-.107 1.51.311 1.91.41.393.725.439 1.886.276.797-.111 1.017-.167 1.307-.331.103-.058.851-.763 1.74-1.639l1.631-1.605c.282-.268.853-.921.987-1.129a1.953 1.953 0 0 0-.002-2.159c-.361-.559-.994-1.081-1.502-1.238a2.04 2.04 0 0 0-1.184.013m.842 1.462c.171.087.528.45.623.634a.592.592 0 0 1 .065.22c0 .12-.185.407-.387.6l-.157.15-.198-.124a2.885 2.885 0 0 1-.784-.774l-.156-.237.191-.196c.209-.214.421-.344.563-.347a.66.66 0 0 1 .24.074m-1.976 1.688c.11.186.567.657.799.824l.223.161c.025.019-2.237 2.285-2.334 2.338-.075.041-1.292.232-1.317.206-.008-.007.029-.305.08-.663l.094-.65 1.169-1.17a47.103 47.103 0 0 1 1.191-1.17c.012 0 .055.056.095.124" fill-rule="evenodd" fill="#000"/></svg>