<svg width="24" height="24" fill="none" xmlns="http://www.w3.org/2000/svg"><path d="M21.8 1.246c-.104.03-.395.295-1.122 1.018l-.982.977-.418-.212a6.07 6.07 0 0 0-1.495-.541c-.403-.095-.52-.104-1.303-.106-.972-.002-1.268.04-2.019.288A6.51 6.51 0 0 0 12.31 3.9l-.31.266-.31-.267a6.289 6.289 0 0 0-5.884-1.296c-2.065.593-3.695 2.234-4.303 4.331-.348 1.201-.309 2.924.104 4.586.518 2.087 1.681 4.141 3.312 5.85l.315.33-1.973 1.98c-1.743 1.748-1.98 2-2.019 2.15-.067.254.002.458.236.692.234.234.437.303.692.237.154-.04 1.143-1.017 10.302-10.172 5.572-5.57 10.17-10.189 10.217-10.264a.625.625 0 0 0-.032-.692c-.229-.325-.558-.473-.857-.385M8.18 3.881a4.92 4.92 0 0 1 2.009.759c.356.236.725.574 1.231 1.129.228.25.308.312.434.334.272.048.457-.04.746-.356.493-.539.861-.876 1.211-1.107a4.758 4.758 0 0 1 3.945-.615c.356.103.804.287.804.331 0 .013-2.759 2.783-6.131 6.155l-6.13 6.13-.243-.25c-1.737-1.79-2.839-3.92-3.198-6.18-.099-.626-.121-1.871-.041-2.329a4.853 4.853 0 0 1 3.252-3.801 4.87 4.87 0 0 1 2.111-.2m13.373 2.398c-.201.061-.42.208-.493.332-.101.171-.091.375.044.889.112.426.116.469.113 1.36-.002.988-.063 1.494-.278 2.344-.36 1.42-1.183 3.027-2.189 4.276-1.534 1.902-4.009 3.74-6.088 4.521-.559.21-.763.212-1.294.014a12.287 12.287 0 0 1-1.668-.8c-.593-.332-.805-.372-1.06-.195-.189.131-.4.52-.4.736 0 .176.108.362.287.493.391.29 1.723.954 2.433 1.215.42.154.421.154 1.04.154l.62.001.46-.174c2.202-.834 4.726-2.604 6.337-4.445 1.35-1.543 2.168-2.936 2.745-4.68.33-.994.491-1.867.555-2.998.084-1.477-.187-2.815-.612-3.017a.84.84 0 0 0-.552-.026" fill-rule="evenodd" fill="#000"/></svg>