<svg width="24" height="24" fill="none" xmlns="http://www.w3.org/2000/svg"><path d="M4.851 1.283a3.976 3.976 0 0 0-2.817 1.61 3.992 3.992 0 0 0-.751 2.732c.049.525.16.916.397 1.395.494 1.002 1.387 1.746 2.49 2.077.066.019.07.203.07 3.123 0 2.448-.011 3.106-.05 3.117-1.206.35-1.954.918-2.471 1.875A3.483 3.483 0 0 0 1.271 19c0 .682.129 1.197.45 1.792a3.518 3.518 0 0 0 1.491 1.489A3.483 3.483 0 0 0 5 22.729c.68 0 1.197-.129 1.788-.448a3.518 3.518 0 0 0 1.491-1.489c.321-.595.45-1.11.45-1.792 0-.68-.129-1.197-.448-1.788-.517-.957-1.265-1.525-2.471-1.875-.039-.011-.05-.434-.05-1.939v-1.925l.189.166c.444.391 1.201.801 1.771.959.619.171.737.178 3.1.183 2.512.004 2.592.011 3.347.263 1.2.402 2.312 1.311 2.89 2.362.079.143.143.27.143.282 0 .011-.116.096-.259.188a3.785 3.785 0 0 0-1.622 2.444 4.995 4.995 0 0 0 0 1.36 3.729 3.729 0 0 0 1.893 2.601 3.483 3.483 0 0 0 1.788.448c.68 0 1.197-.129 1.788-.448a3.518 3.518 0 0 0 1.491-1.489c.321-.595.45-1.11.45-1.792 0-.68-.129-1.197-.448-1.788a3.518 3.518 0 0 0-1.489-1.491 3.576 3.576 0 0 0-1.74-.455l-.375-.007-.204-.38a6.765 6.765 0 0 0-4.267-3.382c-.72-.187-1.202-.217-3.486-.217-1.952-.001-2.123-.006-2.429-.079a3.308 3.308 0 0 1-1.807-1.141C6.278 9.807 6 9.333 6 9.237c.001-.037.116-.089.33-.148a3.985 3.985 0 0 0 2.828-4.621 3.974 3.974 0 0 0-4.307-3.185M5.862 2.82a2.56 2.56 0 0 1 1.612 1.3c.218.443.301.835.271 1.283-.044.647-.263 1.128-.731 1.602-.783.793-1.878.97-2.894.469a2.56 2.56 0 0 1-1.3-1.612c-.076-.303-.076-.888 0-1.212.198-.84.976-1.625 1.812-1.828.31-.075.936-.076 1.23-.002m-.284 14.001c.371.097.696.291 1.003.598.46.46.659.937.659 1.581 0 .644-.199 1.121-.659 1.581-.46.46-.937.659-1.581.659-.644 0-1.121-.199-1.581-.659-.46-.46-.659-.937-.659-1.581 0-.644.199-1.121.659-1.581.3-.301.631-.5.985-.596.288-.077.881-.078 1.174-.002m14 0c.371.097.696.291 1.003.598.46.46.659.937.659 1.581 0 .644-.199 1.121-.659 1.581-.46.46-.937.659-1.581.659-.644 0-1.121-.199-1.581-.659-.46-.46-.659-.937-.659-1.581 0-.644.199-1.121.659-1.581.3-.301.631-.5.985-.596.288-.077.881-.078 1.174-.002" fill-rule="evenodd" fill="#000"/></svg>