<svg width="24" height="24" fill="none" xmlns="http://www.w3.org/2000/svg"><path d="M4.74 1.266c-1.325.119-2.413.819-3.021 1.946A3.483 3.483 0 0 0 1.271 5c0 .68.129 1.197.448 1.788.517.957 1.265 1.525 2.471 1.875.073.021.073 6.653 0 6.674-1.206.35-1.954.918-2.471 1.875A3.483 3.483 0 0 0 1.271 19c0 .682.129 1.197.45 1.792a3.518 3.518 0 0 0 1.491 1.489A3.483 3.483 0 0 0 5 22.729c.68 0 1.197-.129 1.788-.448a3.518 3.518 0 0 0 1.491-1.489c.321-.595.45-1.11.45-1.792 0-.68-.129-1.197-.448-1.788-.517-.957-1.265-1.525-2.471-1.875-.039-.011-.05-.405-.05-1.795v-1.781l.302.203c.363.243.682.392 1.138.531.784.237.788.237 4.612.255 2.649.012 3.516.027 3.526.063.338 1.187.919 1.953 1.874 2.468a3.483 3.483 0 0 0 1.788.448c.68 0 1.197-.129 1.788-.448a3.729 3.729 0 0 0 1.893-2.601 4.995 4.995 0 0 0 0-1.36 3.729 3.729 0 0 0-1.893-2.601A3.483 3.483 0 0 0 19 8.271c-.68 0-1.197.129-1.788.448-.958.517-1.52 1.257-1.876 2.472-.012.042-.706.049-3.605.04-3.571-.012-3.593-.013-3.911-.102-1.055-.293-1.682-.923-1.94-1.945-.097-.386-.103-.544-.019-.544.116 0 .632-.2.927-.359a3.518 3.518 0 0 0 1.491-1.489c.321-.595.45-1.11.45-1.792 0-.68-.129-1.197-.448-1.788a3.674 3.674 0 0 0-2.066-1.749c-.422-.147-1.066-.233-1.475-.197m.838 1.555c.371.097.696.291 1.003.598.46.46.659.937.659 1.581 0 .644-.199 1.121-.659 1.581-.46.46-.937.659-1.581.659-.644 0-1.121-.199-1.581-.659-.46-.46-.659-.937-.659-1.581 0-.644.199-1.121.659-1.581.3-.301.631-.5.985-.596.288-.077.881-.078 1.174-.002m14 7c.371.097.696.291 1.003.598.46.46.659.937.659 1.581 0 .644-.199 1.121-.659 1.581-.46.46-.937.659-1.581.659-.644 0-1.121-.199-1.581-.659-.46-.46-.659-.937-.659-1.581 0-.644.199-1.121.659-1.581.3-.301.631-.5.985-.596.288-.077.881-.078 1.174-.002m-14 7c.371.097.696.291 1.003.598.46.46.659.937.659 1.581 0 .644-.199 1.121-.659 1.581-.46.46-.937.659-1.581.659-.644 0-1.121-.199-1.581-.659-.46-.46-.659-.937-.659-1.581 0-.644.199-1.121.659-1.581.3-.301.631-.5.985-.596.288-.077.881-.078 1.174-.002" fill-rule="evenodd" fill="#000"/></svg>