<svg width="24" height="24" fill="none" xmlns="http://www.w3.org/2000/svg"><path d="M8.08 1.282c-4.072.213-6.185 2.014-6.697 5.709-.113.812-.141 1.825-.141 5.009 0 4.504.06 5.273.518 6.65.772 2.313 2.446 3.576 5.267 3.972.759.106 1.875.137 4.973.137s4.214-.031 4.973-.137c2.47-.347 4.023-1.334 4.924-3.132.482-.96.741-2.121.823-3.683.051-.969.051-6.645 0-7.614-.063-1.195-.199-2.002-.478-2.837-.61-1.825-1.773-2.989-3.592-3.596-.862-.287-1.627-.416-2.844-.48-.854-.045-6.854-.043-7.726.002m8.72 1.572c2.786.462 3.914 1.6 4.348 4.386.066.421.072.824.072 4.76s-.006 4.339-.072 4.76c-.436 2.798-1.59 3.952-4.388 4.388-.421.066-.824.072-4.76.072s-4.339-.006-4.76-.072c-2.79-.435-3.957-1.597-4.386-4.368-.069-.445-.074-.791-.074-4.78 0-4.753-.004-4.663.264-5.712C3.557 4.282 4.722 3.274 6.96 2.9c.73-.123 1.088-.131 5.24-.123 3.763.007 4.222.014 4.6.077M7.59 5.281c-.613.074-1.067.307-1.551.795-.545.551-.768 1.09-.77 1.864-.002.49.053.745.253 1.16.28.583.702 1.013 1.248 1.272l.269.128-.009 1.634-.01 1.634-.184.07c-.632.24-1.241.899-1.461 1.582-.086.268-.103.395-.103.78s.017.512.103.78a2.627 2.627 0 0 0 1.645 1.645 2.796 2.796 0 0 0 1.56 0 2.676 2.676 0 0 0 1.368-1.06c.518-.78.518-1.95 0-2.73-.285-.429-.775-.842-1.184-.997l-.184-.07-.011-.724c-.006-.398-.003-.724.006-.724.009 0 .122.052.251.116a5 5 0 0 0 .514.207c.266.086.362.092 1.88.117 1.679.028 1.769.038 2.221.232.424.182.946.608 1.183.968l.105.158-.134.111a2.646 2.646 0 0 0-.82 1.191 2.796 2.796 0 0 0 0 1.56 2.627 2.627 0 0 0 1.645 1.645 2.796 2.796 0 0 0 1.56 0 2.627 2.627 0 0 0 1.645-1.645 2.796 2.796 0 0 0 0-1.56 2.558 2.558 0 0 0-2.124-1.742c-.177-.02-.326-.053-.333-.073-.051-.153-.557-.837-.788-1.065-.533-.526-1.298-.968-1.982-1.145-.31-.08-.471-.089-1.938-.113-1.528-.025-1.61-.03-1.82-.114-.27-.109-.556-.316-.702-.507-.06-.079-.102-.147-.094-.152l.336-.167c.46-.228.943-.714 1.174-1.182A2.672 2.672 0 0 0 9.1 5.522a2.633 2.633 0 0 0-1.51-.241m.886 1.603c.274.137.52.406.609.665.084.242.066.639-.039.875a1.332 1.332 0 0 1-.626.623 1.38 1.38 0 0 1-.871.038c-.266-.092-.53-.336-.671-.623-.119-.242-.127-.283-.11-.571.021-.358.088-.515.326-.764.265-.277.459-.358.87-.364a.899.899 0 0 1 .512.121m-.207 8.37c.164.085.388.308.48.477.096.176.099.757.005.929a1.579 1.579 0 0 1-.486.49c-.18.098-.757.097-.937-.001a1.402 1.402 0 0 1-.472-.472c-.081-.155-.117-.459-.082-.689.048-.324.363-.685.688-.789.172-.055.656-.022.804.055m8.4 0c.164.085.388.308.48.477.096.176.099.757.005.929a1.579 1.579 0 0 1-.486.49c-.18.098-.757.097-.937-.001a1.402 1.402 0 0 1-.472-.472c-.081-.155-.117-.459-.082-.689.048-.324.363-.685.688-.789.172-.055.656-.022.804.055" fill-rule="evenodd" fill="#000"/></svg>