<svg width="24" height="24" fill="none" xmlns="http://www.w3.org/2000/svg"><path d="M8.08 1.282c-4.072.213-6.185 2.014-6.697 5.709-.113.812-.141 1.825-.141 5.009 0 4.504.06 5.273.518 6.65.772 2.313 2.446 3.576 5.267 3.972.759.106 1.875.137 4.973.137s4.214-.031 4.973-.137c2.47-.347 4.023-1.334 4.924-3.132.482-.96.741-2.121.823-3.683.051-.969.051-6.645 0-7.614-.063-1.195-.199-2.002-.478-2.837-.61-1.825-1.773-2.989-3.592-3.596-.862-.287-1.627-.416-2.844-.48-.854-.045-6.854-.043-7.726.002m8.72 1.572c2.786.462 3.914 1.6 4.348 4.386.066.421.072.824.072 4.76s-.006 4.339-.072 4.76c-.436 2.798-1.59 3.952-4.388 4.388-.421.066-.824.072-4.76.072s-4.339-.006-4.76-.072c-2.79-.435-3.957-1.597-4.386-4.368-.069-.445-.074-.791-.074-4.78 0-4.753-.004-4.663.264-5.712C3.557 4.282 4.722 3.274 6.96 2.9c.73-.123 1.088-.131 5.24-.123 3.763.007 4.222.014 4.6.077M7.44 5.281c-.922.112-1.771.827-2.065 1.739a2.796 2.796 0 0 0 0 1.56c.219.679.832 1.343 1.461 1.582l.184.07.01 1.634.009 1.634-.269.128c-.546.259-.968.689-1.248 1.272-.2.415-.255.67-.253 1.16.002.774.225 1.313.77 1.864.564.57 1.118.805 1.901.808.49.001.745-.054 1.16-.254.975-.469 1.542-1.372 1.539-2.452a2.63 2.63 0 0 0-.285-1.186c-.231-.468-.714-.954-1.174-1.182a45.024 45.024 0 0 1-.336-.167c-.008-.005.034-.073.094-.152.146-.191.432-.398.702-.507.21-.084.292-.089 1.82-.114 1.467-.024 1.628-.033 1.938-.113.684-.177 1.449-.619 1.982-1.145.231-.228.737-.912.788-1.065.007-.02.156-.053.333-.073a2.558 2.558 0 0 0 2.124-1.742 2.796 2.796 0 0 0 0-1.56 2.627 2.627 0 0 0-1.645-1.645 2.796 2.796 0 0 0-1.56 0 2.627 2.627 0 0 0-1.645 1.645 2.796 2.796 0 0 0 0 1.56c.143.444.442.879.82 1.191l.134.111-.105.158c-.237.36-.759.786-1.183.968-.452.194-.542.204-2.221.231l-1.6.026-.34.111a3.445 3.445 0 0 0-.507.208 1.145 1.145 0 0 1-.191.096c-.013 0-.019-.326-.013-.724l.011-.724.184-.07c.409-.155.899-.568 1.184-.997.518-.78.518-1.95 0-2.73A2.57 2.57 0 0 0 7.44 5.281m.829 1.573c.164.085.388.308.48.477.096.176.099.757.005.929a1.579 1.579 0 0 1-.486.49c-.18.098-.757.097-.937-.001a1.402 1.402 0 0 1-.472-.472c-.081-.155-.117-.459-.082-.689.048-.324.363-.685.688-.789.172-.055.656-.022.804.055m8.4 0c.164.085.388.308.48.477.096.176.099.757.005.929a1.579 1.579 0 0 1-.486.49c-.18.098-.757.097-.937-.001a1.402 1.402 0 0 1-.472-.472c-.081-.155-.117-.459-.082-.689.048-.324.363-.685.688-.789.172-.055.656-.022.804.055m-8.242 8.105c.254.112.506.364.619.617.105.236.123.633.039.875-.092.266-.336.53-.623.671-.242.119-.283.127-.571.11-.208-.013-.364-.046-.471-.102a1.64 1.64 0 0 1-.562-.57c-.104-.205-.125-.677-.041-.897.258-.676.969-.987 1.61-.704" fill-rule="evenodd" fill="#000"/></svg>