<svg width="24" height="24" fill="none" xmlns="http://www.w3.org/2000/svg"><path d="M8.08 1.282c-4.072.213-6.185 2.014-6.697 5.709-.113.812-.141 1.825-.141 5.009 0 4.504.06 5.273.518 6.65.772 2.313 2.446 3.576 5.267 3.972.759.106 1.875.137 4.973.137s4.214-.031 4.973-.137c2.47-.347 4.023-1.334 4.924-3.132.482-.96.741-2.121.823-3.683.051-.969.051-6.645 0-7.614-.063-1.195-.199-2.002-.478-2.837-.61-1.825-1.773-2.989-3.592-3.596-.862-.287-1.627-.416-2.844-.48-.854-.045-6.854-.043-7.726.002m8.72 1.572c2.786.462 3.914 1.6 4.348 4.386.066.421.072.824.072 4.76s-.006 4.339-.072 4.76c-.436 2.798-1.59 3.952-4.388 4.388-.421.066-.824.072-4.76.072s-4.339-.006-4.76-.072c-2.79-.435-3.957-1.597-4.386-4.368-.069-.445-.074-.791-.074-4.78 0-4.753-.004-4.663.264-5.712C3.557 4.282 4.722 3.274 6.96 2.9c.73-.123 1.088-.131 5.24-.123 3.763.007 4.222.014 4.6.077m-2.93 2.403c-.083.03-.317.189-.52.355-.967.788-1.696 1.421-1.779 1.544-.121.181-.121.449.001.664.057.101.335.366.749.714 1.539 1.294 1.606 1.335 1.944 1.206.208-.079.476-.368.54-.582.077-.256.017-.422-.245-.684l-.234-.234h.593c.523 0 .603.009.687.076l.094.077.011 2.676.011 2.676-.231.094c-.73.299-1.376 1.058-1.527 1.793a3.862 3.862 0 0 0 0 1.136c.175.851.971 1.671 1.841 1.897.404.106 1.016.087 1.424-.043a2.614 2.614 0 0 0 1.662-1.682c.123-.396.123-1.084 0-1.48a2.652 2.652 0 0 0-1.439-1.605l-.249-.106-.012-2.804c-.014-3.121 0-2.964-.293-3.405a1.931 1.931 0 0 0-.818-.668c-.192-.077-.316-.09-.983-.103l-.763-.016.23-.23c.257-.258.318-.427.242-.679-.06-.201-.307-.479-.504-.569-.192-.087-.234-.089-.432-.018m-6.52.025c-1.388.162-2.434 1.435-2.336 2.844.067.951.634 1.812 1.463 2.218l.318.156.002 1.624.003 1.624-.25.107a2.65 2.65 0 0 0-1.441 1.605c-.123.396-.123 1.084 0 1.48a2.614 2.614 0 0 0 1.662 1.682c.411.131 1.02.148 1.429.04.682-.18 1.332-.716 1.633-1.346.193-.406.247-.648.247-1.116 0-.468-.054-.71-.247-1.116-.127-.265-.229-.404-.487-.665-.273-.276-.386-.358-.695-.504l-.369-.175.009-1.575.009-1.574.226-.07c.775-.24 1.488-.951 1.733-1.727A2.693 2.693 0 0 0 7.35 5.282m.879 1.592c.409.21.658.621.658 1.084 0 .672-.509 1.177-1.187 1.177-.673 0-1.186-.504-1.189-1.169a1.197 1.197 0 0 1 .797-1.151c.222-.082.706-.052.921.059m-.344 8.327c.08.022.231.116.336.208.565.497.491 1.286-.161 1.702-.121.078-.228.107-.449.121-.254.016-.315.005-.508-.089a1.022 1.022 0 0 1-.591-.943c0-.714.663-1.197 1.373-.999m9.026.062c.618.308.77 1.105.313 1.645-.059.07-.206.176-.327.235-.193.094-.254.105-.508.089-.221-.014-.328-.043-.449-.121-.652-.417-.726-1.204-.16-1.703.222-.195.346-.239.682-.244a.836.836 0 0 1 .449.099" fill-rule="evenodd" fill="#000"/></svg>