<svg width="24" height="24" fill="none" xmlns="http://www.w3.org/2000/svg"><path d="M4.74 1.266c-1.325.119-2.413.819-3.021 1.946A3.483 3.483 0 0 0 1.271 5c0 .68.129 1.197.448 1.788.517.957 1.265 1.525 2.471 1.875.039.011.05.669.05 3.117 0 2.92-.004 3.104-.07 3.123-1.103.331-1.996 1.075-2.49 2.077-.235.476-.348.87-.396 1.382a3.977 3.977 0 0 0 2.857 4.217c1.721.499 3.533-.201 4.512-1.744.214-.336.412-.848.505-1.303a3.985 3.985 0 0 0-2.828-4.621c-.214-.059-.329-.111-.33-.148 0-.097.279-.571.491-.832a3.293 3.293 0 0 1 1.8-1.132c.305-.073.477-.078 2.395-.079 2.573 0 3.013-.038 3.95-.345 1.62-.529 3.006-1.705 3.838-3.256l.203-.378.375-.007a3.735 3.735 0 0 0 2.542-1.031c.522-.49.952-1.291 1.087-2.023a4.995 4.995 0 0 0 0-1.36 3.92 3.92 0 0 0-.978-1.914c-.49-.522-1.291-.952-2.023-1.087a4.995 4.995 0 0 0-1.36 0 3.92 3.92 0 0 0-1.914.978c-.522.49-.952 1.291-1.087 2.023a4.995 4.995 0 0 0 0 1.36 3.785 3.785 0 0 0 1.622 2.444c.143.092.259.177.259.188 0 .012-.064.139-.143.282-.578 1.052-1.69 1.96-2.892 2.362-.757.254-.895.265-3.045.254-2.136-.012-2.752.02-3.32.172-.634.17-1.381.564-1.851.979l-.189.166v-1.925c0-1.505.011-1.928.05-1.939 1.206-.35 1.954-.918 2.471-1.875A3.483 3.483 0 0 0 8.729 5c0-.68-.129-1.197-.448-1.788a3.674 3.674 0 0 0-2.066-1.749c-.422-.147-1.066-.233-1.475-.197m.838 1.555c.371.097.696.291 1.003.598.46.46.659.937.659 1.581 0 .644-.199 1.121-.659 1.581-.46.46-.937.659-1.581.659-.644 0-1.121-.199-1.581-.659-.46-.46-.659-.937-.659-1.581 0-.644.199-1.121.659-1.581.3-.301.631-.5.985-.596.288-.077.881-.078 1.174-.002m14 0c.371.097.696.291 1.003.598.46.46.659.937.659 1.581 0 .644-.199 1.121-.659 1.581-.46.46-.937.659-1.581.659-.644 0-1.121-.199-1.581-.659-.46-.46-.659-.937-.659-1.581 0-.644.199-1.121.659-1.581.3-.301.631-.5.985-.596.288-.077.881-.078 1.174-.002M6 16.357c.729.226 1.416.911 1.642 1.64.276.89.03 1.862-.64 2.523a2.493 2.493 0 0 1-1.14.66c-.303.076-.888.076-1.212 0-.85-.201-1.629-.98-1.83-1.83-.076-.324-.076-.909 0-1.212.225-.889.996-1.635 1.9-1.839.34-.076.934-.05 1.28.058" fill-rule="evenodd" fill="#000"/></svg>