<svg width="24" height="24" fill="none" xmlns="http://www.w3.org/2000/svg"><path d="M10.94 1.305c-.897.135-1.544.375-2.165.801-.603.414-5.691 4.41-5.976 4.694-.385.384-.632.737-.947 1.355a5.8 5.8 0 0 0-.54 1.545c-.04.217-.052 1.215-.052 4.42 0 3.8.006 4.171.071 4.517.348 1.841 1.682 3.343 3.447 3.881.682.207.486.202 7.222.202 6.736 0 6.54.005 7.222-.202a5.025 5.025 0 0 0 3.159-2.893c.372-.922.388-1.171.369-5.845-.017-4.152-.004-3.913-.257-4.7-.128-.4-.438-1.025-.715-1.443a6.002 6.002 0 0 0-.598-.699c-.363-.364-.702-.613-3.68-2.694-1.804-1.262-3.415-2.363-3.58-2.448a5.126 5.126 0 0 0-1.18-.417c-.274-.062-1.538-.114-1.8-.074m1.64 1.574c.176.045.455.15.62.233.428.215 6.508 4.483 6.863 4.818.541.51.997 1.349 1.136 2.09.032.171.041 1.411.032 4.32-.015 4.585.01 4.207-.327 4.92-.417.881-1.195 1.545-2.164 1.848l-.36.112H5.62l-.36-.112c-.969-.303-1.729-.951-2.159-1.842-.342-.711-.317-.322-.331-5.026-.014-4.627-.025-4.407.246-5.067.196-.475.486-.94.783-1.254.227-.24 5.351-4.272 5.896-4.64.33-.222.882-.411 1.445-.495.283-.042 1.128.014 1.44.095m-.863 11.397a.62.62 0 0 0-.384.316c-.067.137-.073.281-.073 1.908 0 1.688.003 1.766.08 1.896.148.251.262.304.66.304s.512-.053.66-.304c.077-.13.08-.208.08-1.896 0-1.634-.005-1.771-.074-1.909-.104-.21-.297-.318-.598-.335a1.274 1.274 0 0 0-.351.02" fill-rule="evenodd" fill="#000"/></svg>