<svg width="24" height="24" fill="none" xmlns="http://www.w3.org/2000/svg"><path d="M10.94 1.305c-.897.135-1.544.375-2.165.801-.603.414-5.691 4.41-5.976 4.694-.385.384-.632.737-.947 1.355a5.8 5.8 0 0 0-.54 1.545c-.04.217-.052 1.215-.052 4.42 0 3.8.006 4.171.071 4.517.348 1.841 1.682 3.343 3.447 3.881.682.207.486.202 7.222.202 5.336 0 6.32-.009 6.607-.059 1.953-.34 3.539-1.815 3.994-3.713.148-.619.165-1.204.149-5.168-.017-4.152-.004-3.913-.257-4.7-.127-.398-.436-1.021-.714-1.443a5.736 5.736 0 0 0-.598-.698c-.362-.363-.717-.622-3.681-2.695-1.804-1.261-3.415-2.363-3.58-2.448a5.126 5.126 0 0 0-1.18-.417c-.274-.062-1.538-.114-1.8-.074m1.64 1.574c.176.045.455.15.62.233.428.215 6.508 4.483 6.863 4.818.541.51.997 1.349 1.136 2.09.032.171.041 1.411.032 4.32-.015 4.585.01 4.207-.327 4.92-.417.881-1.195 1.545-2.164 1.848l-.36.112H5.62l-.36-.112c-.969-.303-1.729-.951-2.159-1.842-.342-.711-.317-.322-.331-5.026-.014-4.627-.025-4.407.246-5.067.196-.475.486-.94.783-1.254.236-.249 5.52-4.404 5.939-4.67.324-.206.868-.386 1.402-.465.283-.042 1.128.014 1.44.095m-5.433 7.96c-.361.23-.516.627-.363.933.036.07.823.89 1.75 1.822 1.76 1.769 1.896 1.885 2.218 1.886.305.001.4-.1 1.125-1.194l.538-.811 1.133 1.133 1.133 1.132-.258.026c-.487.05-.643.228-.643.734 0 .363.066.518.275.645.113.068.248.078 1.365.1l1.24.026.208-.098c.177-.082.223-.128.305-.305l.098-.208-.026-1.24c-.022-1.117-.032-1.252-.1-1.365-.127-.209-.282-.275-.645-.275-.508 0-.692.163-.731.648l-.021.259-1.524-1.519c-.838-.836-1.582-1.548-1.652-1.584-.199-.1-.409-.081-.623.054-.156.099-.283.264-.775 1.002l-.589.883-1.343-1.337c-.738-.736-1.4-1.366-1.47-1.402-.199-.1-.409-.081-.625.055" fill-rule="evenodd" fill="#000"/></svg>