<svg width="24" height="24" fill="none" xmlns="http://www.w3.org/2000/svg"><path d="M10.94 1.305c-.897.135-1.544.375-2.165.801-.603.414-5.691 4.41-5.976 4.694-.385.384-.632.737-.947 1.355a5.8 5.8 0 0 0-.54 1.545c-.04.217-.052 1.215-.052 4.42 0 3.8.006 4.171.071 4.517.348 1.841 1.682 3.343 3.447 3.881.682.207.486.202 7.222.202 5.336 0 6.32-.009 6.607-.059 1.953-.34 3.539-1.815 3.994-3.713.148-.619.165-1.204.149-5.168-.017-4.152-.004-3.913-.257-4.7-.127-.398-.436-1.021-.714-1.443a5.736 5.736 0 0 0-.598-.698c-.362-.363-.717-.622-3.681-2.695-1.804-1.261-3.415-2.363-3.58-2.448a5.126 5.126 0 0 0-1.18-.417c-.274-.062-1.538-.114-1.8-.074m1.64 1.574c.176.045.455.15.62.233.428.215 6.508 4.483 6.863 4.818.541.51.997 1.349 1.136 2.09.032.171.041 1.411.032 4.32-.015 4.585.01 4.207-.327 4.92-.417.881-1.195 1.545-2.164 1.848l-.36.112H5.62l-.36-.112c-.969-.303-1.729-.951-2.159-1.842-.342-.711-.317-.322-.331-5.026-.014-4.627-.025-4.407.246-5.067.196-.475.486-.94.783-1.254.236-.249 5.52-4.404 5.939-4.67.324-.206.868-.386 1.402-.465.283-.042 1.128.014 1.44.095m-2.473 5.403a4.77 4.77 0 0 0-.606.115c-1.353.371-2.414 1.528-2.678 2.917-.093.492-.093 3.88 0 4.372.187.986.786 1.88 1.633 2.438a3.68 3.68 0 0 0 1.305.543c.301.065.549.073 2.239.073s1.938-.008 2.239-.073a3.693 3.693 0 0 0 1.306-.543 3.897 3.897 0 0 0 1.587-2.196c.085-.299.087-.368.087-2.428s-.002-2.129-.087-2.428c-.396-1.394-1.462-2.415-2.852-2.734-.255-.058-.57-.07-2.08-.08-.979-.006-1.921.005-2.093.024m1.133 2.978v1.5h-3l.001-.47c.001-.892.171-1.349.695-1.873.514-.514.879-.65 1.754-.654l.55-.003v1.5m2.815-1.44c.424.111.666.254 1.009.597.524.524.694.981.695 1.873l.001.47h-3v-3h.532c.344 0 .613.021.763.06m-2.815 5.92v1.5h-.532c-.871 0-1.258-.143-1.772-.657-.524-.524-.694-.981-.695-1.873l-.001-.47h3v1.5m4.519-1.03c-.001.892-.171 1.349-.695 1.873-.514.514-.901.657-1.772.657h-.532v-3h3l-.001.47" fill-rule="evenodd" fill="#000"/></svg>