<svg width="24" height="24" fill="none" xmlns="http://www.w3.org/2000/svg"><path d="M11.34 1.482a3.899 3.899 0 0 0-1.554.624c-.443.319-7.182 5.737-7.389 5.941-.496.491-.917 1.322-1.08 2.133-.121.606-.092.848.6 4.979.763 4.55.759 4.53.921 4.951.418 1.084 1.499 2.027 2.682 2.34l.34.09h12.28l.34-.09c1.173-.313 2.269-1.271 2.684-2.348.158-.409.153-.378.917-4.942.766-4.573.761-4.512.459-5.48-.223-.714-.585-1.311-1.063-1.749a369.21 369.21 0 0 0-3.76-3.03C14.492 2.32 14.101 2.019 13.74 1.84c-.532-.264-.94-.36-1.62-.38a5.72 5.72 0 0 0-.78.022m1.334 1.543c.121.032.326.115.457.184.251.134 7.163 5.639 7.447 5.932.343.352.618 1.029.649 1.599.018.33-.037.702-.664 4.45-.398 2.377-.717 4.178-.763 4.302-.169.451-.52.878-.957 1.163-.361.236-.626.339-.992.388-.204.026-2.292.037-6.071.029l-5.76-.012-.26-.093c-.719-.258-1.315-.821-1.558-1.471-.048-.129-.359-1.877-.765-4.306-.636-3.802-.683-4.117-.665-4.47.032-.628.291-1.223.708-1.627.143-.139 1.822-1.503 3.732-3.031 2.464-1.972 3.544-2.812 3.72-2.895.51-.241 1.159-.294 1.742-.142m-.887 11.253a.659.659 0 0 0-.447.326c-.077.13-.08.208-.08 1.896s.003 1.766.08 1.896a.646.646 0 0 0 .475.327c.367.069.684-.054.845-.327.076-.129.081-.221.093-1.676.015-1.729 0-1.979-.126-2.166-.158-.235-.49-.344-.84-.276" fill-rule="evenodd" fill="#000"/></svg>