<svg width="24" height="24" fill="none" xmlns="http://www.w3.org/2000/svg"><path d="M6.458 1.282c-1.381.093-2.503.611-3.205 1.479-.587.726-.888 1.576-.972 2.747-.025.337-.04 3.502-.041 8.137v7.585l-.277.027c-.488.048-.695.269-.695.743 0 .418.175.653.538.723.228.044 20.16.044 20.388 0 .363-.07.538-.305.538-.723 0-.474-.207-.695-.695-.743l-.277-.027v-7.585c-.001-4.635-.016-7.8-.041-8.137-.064-.894-.256-1.605-.593-2.192-.72-1.256-1.906-1.916-3.657-2.036-.659-.045-10.34-.044-11.011.002m11.329 1.521c.367.05.909.223 1.193.381.11.061.319.23.464.374.301.3.539.737.686 1.262l.09.32.011 8.05.01 8.05H15.72v-2.81c-.001-3.11.007-3.005-.262-3.411a1.614 1.614 0 0 0-1.158-.737c-.364-.052-4.233-.053-4.6-.001a1.683 1.683 0 0 0-1.42 1.357c-.024.13-.04 1.265-.04 2.907v2.695H3.759l.01-8.05.011-8.05.09-.32c.147-.525.385-.962.686-1.262.145-.144.354-.313.464-.374.268-.149.82-.331 1.14-.377.381-.054 11.232-.058 11.627-.004m-6 2.475a.659.659 0 0 0-.447.326c-.073.124-.081.222-.094 1.144l-.013 1.007-1.027.013c-1.137.013-1.192.025-1.351.287-.106.177-.106.713 0 .89.159.262.214.274 1.351.287l1.027.013.013 1.007c.013.922.021 1.02.094 1.144a.646.646 0 0 0 .475.327c.367.069.684-.054.845-.327.073-.124.081-.222.094-1.144l.013-1.007 1.027-.013c1.137-.013 1.192-.025 1.351-.287.106-.177.106-.713 0-.89-.159-.262-.214-.274-1.355-.287l-1.03-.013-.002-.887c-.002-.959-.026-1.179-.148-1.342-.158-.213-.491-.313-.823-.248m2.405 10.53c.036.036.048.7.048 2.74v2.692H9.72v-2.651c0-2.335.007-2.662.062-2.74l.063-.089h2.149c1.619 0 2.162.012 2.198.048" fill-rule="evenodd" fill="#000"/></svg>