<svg width="24" height="24" fill="none" xmlns="http://www.w3.org/2000/svg"><path d="M11.289 1.881c-.161.042-.413.14-.56.218-.263.139-7.285 5.573-7.644 5.914-.42.401-.734 1.048-.804 1.659-.024.205-.04 1.755-.041 3.768 0 1.881-.012 4.404-.027 5.606l-.026 2.186-.252.027c-.461.049-.667.278-.667.741 0 .418.175.653.538.723.228.044 20.16.044 20.388 0 .363-.07.538-.305.538-.723 0-.473-.207-.695-.693-.743l-.276-.027-.013-5.845c-.013-6.471.007-5.981-.268-6.572a2.4 2.4 0 0 0-.512-.747c-.285-.294-7.365-5.782-7.683-5.956-.56-.306-1.358-.397-1.998-.229m1.242 1.522c.264.134 7.195 5.527 7.408 5.765.325.36.301-.134.301 6.319v5.753H17.763l-.012-4.57c-.012-4.3-.017-4.583-.086-4.79-.253-.762-.813-1.316-1.565-1.546-.226-.07-.467-.074-4.1-.074-3.633 0-3.874.004-4.1.074a2.352 2.352 0 0 0-1.566 1.546c-.069.207-.074.485-.085 4.79l-.012 4.57h-2.54l.012-1.51c.006-.831.018-3.418.026-5.75.017-4.72 0-4.436.291-4.776.111-.129 6.75-5.341 7.274-5.71.334-.235.869-.275 1.231-.091m-2.355 3.399c-.288.086-.442.392-.405.805.024.267.112.433.284.538.118.071.233.075 1.945.075s1.827-.004 1.945-.075c.209-.127.275-.282.275-.645 0-.363-.066-.518-.275-.645-.117-.07-.239-.075-1.885-.082-.98-.004-1.815.009-1.884.029m5.766 5.099c.082.067.183.183.224.259.071.133.074.331.074 4.609v4.471H7.759l.01-4.516.011-4.517.121-.149c.067-.082.184-.183.26-.224.133-.072.293-.075 3.885-.064l3.747.01.149.121m-6.341 3.687c-.327.169-.377.401-.355 1.638.012.707.023.809.094.93.148.251.262.304.66.304s.512-.053.66-.304c.074-.126.08-.208.08-1.156s-.006-1.03-.08-1.156c-.139-.236-.268-.302-.613-.316-.235-.009-.339.005-.446.06" fill-rule="evenodd" fill="#000"/></svg>