<svg width="24" height="24" fill="none" xmlns="http://www.w3.org/2000/svg"><path d="M11.289 1.881c-.161.042-.413.14-.56.218-.263.139-7.285 5.573-7.644 5.914-.42.401-.734 1.048-.804 1.659-.024.205-.04 1.755-.041 3.768 0 1.881-.012 4.404-.027 5.606l-.026 2.186-.252.027c-.461.049-.667.278-.667.741 0 .418.175.653.538.723.228.044 20.16.044 20.388 0 .363-.07.538-.305.538-.723 0-.473-.207-.695-.693-.743l-.276-.027-.013-5.845c-.013-6.471.007-5.981-.268-6.572-.235-.505-.459-.752-1.209-1.337-.368-.286-.514-.425-.517-.488-.003-.048-.016-.808-.03-1.688-.026-1.571-.028-1.603-.117-1.746-.186-.3-.122-.293-2.589-.306l-2.2-.012-.677-.521c-.747-.575-1.004-.723-1.454-.838a3.195 3.195 0 0 0-1.4.004m1.231 1.514c.193.093 1.118.8 1.44 1.101.108.101.214.184.236.184.074 0 5.464 4.204 5.689 4.437.387.403.355-.179.355 6.37v5.753h-5l-.001-1.51c0-1.638-.018-1.811-.223-2.221a2.36 2.36 0 0 0-1.354-1.16c-.268-.085-.349-.089-1.662-.089s-1.394.004-1.662.089a2.373 2.373 0 0 0-1.317 1.094c-.244.465-.26.602-.26 2.287l-.001 1.51H3.697l.012-1.51c.006-.831.018-3.418.026-5.75.017-4.72 0-4.436.291-4.776.111-.129 6.75-5.341 7.274-5.71.325-.229.859-.273 1.22-.099m5.72 1.93c0 .446-.011.557-.05.526l-.69-.53c-.352-.27-.657-.507-.678-.526-.022-.02.277-.035.69-.035h.728v.565M6.96 9.593c-.318.119-.496.234-.706.456-.437.462-.493.685-.493 1.951 0 .691.016 1.039.053 1.18a1.79 1.79 0 0 0 1.169 1.235c.284.097 2.75.097 3.034 0a1.79 1.79 0 0 0 1.169-1.235c.037-.141.053-.489.053-1.18s-.016-1.039-.053-1.18a1.79 1.79 0 0 0-1.169-1.235c-.287-.098-2.79-.091-3.057.008m7 0c-.318.119-.496.234-.706.456-.228.241-.36.472-.44.771-.074.28-.074 2.08 0 2.36a1.79 1.79 0 0 0 1.169 1.235c.284.097 2.75.097 3.034 0a1.79 1.79 0 0 0 1.169-1.235c.037-.141.053-.489.053-1.18s-.016-1.039-.053-1.18a1.79 1.79 0 0 0-1.169-1.235c-.287-.098-2.79-.091-3.057.008m-4.282 1.495c.077.082.082.137.082.912s-.005.83-.082.912c-.08.086-.101.088-1.178.088s-1.098-.002-1.178-.088c-.077-.082-.082-.137-.082-.912s.005-.83.082-.912c.08-.086.101-.088 1.178-.088s1.098.002 1.178.088m7 0c.077.082.082.137.082.912s-.005.83-.082.912c-.08.086-.101.088-1.178.088s-1.098-.002-1.178-.088c-.077-.082-.082-.137-.082-.912s.005-.83.082-.912c.08-.086.101-.088 1.178-.088s1.098.002 1.178.088m-3.273 6.787c.077.053.183.161.237.24l.098.145.012 1.49.012 1.49H10.24v-1.41c0-.804.017-1.471.04-1.552.046-.164.246-.386.42-.463.093-.042.393-.052 1.343-.044 1.216.009 1.224.01 1.362.104" fill-rule="evenodd" fill="#000"/></svg>