<svg width="24" height="24" fill="none" xmlns="http://www.w3.org/2000/svg"><path d="M6.531 1.284c-1.214.13-2.361.941-2.911 2.056-.297.603-.359.89-.359 1.66 0 .566.013.706.091.98.425 1.495 1.724 2.593 3.236 2.735 1.186.112 2.304-.303 3.097-1.148a3.732 3.732 0 0 0 0-5.134 3.778 3.778 0 0 0-3.154-1.149M7.532 2.82c.394.102.705.288 1.032.615.465.466.645.904.645 1.565 0 .661-.18 1.099-.645 1.565-.474.474-.948.675-1.597.675-.632 0-1.12-.199-1.567-.64-.484-.478-.659-.903-.659-1.6 0-.697.175-1.122.66-1.6.45-.444.906-.632 1.541-.637.201-.002.463.023.59.057m8.588 4.181c-.319.038-.724.188-1.053.388-.341.208-.929.803-1.197 1.211-.122.187-.677 1.159-1.232 2.16a81.188 81.188 0 0 1-1.118 1.98c-.15.219-.472.513-.684.626-.149.079-.234.094-.556.094-.355 0-.396-.009-.627-.134-.259-.14-.579-.453-1.062-1.035-.445-.535-1.146-1.002-1.728-1.15a2.684 2.684 0 0 0-2.177.368c-.723.489-.887.736-2.104 3.168-.556 1.113-1.058 2.16-1.116 2.326a4.363 4.363 0 0 0 .189 3.217c.607 1.281 1.678 2.132 3.085 2.451.248.057 1.025.066 6.84.079 6.801.015 7.271.006 7.875-.149 2.039-.522 3.447-2.53 3.235-4.613a5.467 5.467 0 0 0-.149-.804c-.115-.394-3.192-7.614-3.512-8.239-.701-1.372-1.763-2.082-2.909-1.944m.66 1.573c.257.12.67.563.867.931.234.437 3.389 7.843 3.482 8.175.154.545.097 1.295-.139 1.836-.34.781-1.108 1.434-1.935 1.645-.3.077-.475.079-7.075.079-6.634 0-6.773-.002-7.084-.08-1.018-.257-1.793-1.032-2.08-2.08-.114-.414-.097-1.093.037-1.5.058-.176.546-1.206 1.085-2.288.927-1.862.994-1.983 1.238-2.241.391-.416.774-.567 1.223-.484.427.079.74.309 1.254.923.582.694.886.951 1.431 1.208.413.195.75.272 1.196.275.998.004 1.903-.525 2.526-1.477.099-.152.618-1.068 1.153-2.036 1.104-1.999 1.229-2.199 1.581-2.537.446-.428.835-.538 1.24-.349" fill-rule="evenodd" fill="#000"/></svg>