<svg width="24" height="24" fill="none" xmlns="http://www.w3.org/2000/svg"><path d="M11.667 3.278a.659.659 0 0 0-.447.326c-.078.133-.08.218-.091 4.473l-.011 4.336-.729-.722c-.808-.801-.902-.859-1.234-.77-.221.06-.534.373-.594.594-.098.363-.102.358 1.512 1.972 1.286 1.286 1.488 1.472 1.637 1.511.37.098.36.105 1.977-1.511 1.614-1.614 1.61-1.609 1.512-1.972-.06-.221-.373-.534-.594-.594-.332-.089-.425-.031-1.235.771l-.73.723-.002-4.217c-.001-2.32-.017-4.296-.035-4.392-.079-.408-.458-.621-.936-.528M3.599 11.53c-.298.151-.341.271-.33.924.05 2.912 1.418 5.535 3.671 7.033.435.29 1.349.744 1.835.911 2.018.698 4.432.698 6.45 0 .485-.167 1.399-.621 1.835-.91 2.257-1.499 3.626-4.134 3.671-7.068.008-.458-.001-.537-.072-.66-.241-.418-1.074-.424-1.312-.01-.059.104-.082.264-.11.78-.035.664-.071.955-.18 1.45-.465 2.119-1.767 3.819-3.603 4.705-1.759.848-4.099.986-6.023.354-2.5-.821-4.145-2.828-4.591-5.599a12.558 12.558 0 0 1-.079-.913c-.029-.509-.053-.681-.11-.78-.103-.179-.374-.307-.651-.307a.86.86 0 0 0-.401.09" fill-rule="evenodd" fill="#000"/></svg>