<svg width="24" height="24" fill="none" xmlns="http://www.w3.org/2000/svg"><path d="M21.8 1.245c-.11.032-.987.887-4.088 3.985l-3.947 3.944-.013-1.637c-.011-1.553-.016-1.644-.092-1.773-.148-.251-.262-.304-.66-.304s-.512.053-.66.304c-.077.131-.08.22-.093 2.596-.007 1.353-.001 2.572.013 2.709.03.288.134.468.34.589.137.081.189.082 2.82.082 2.608 0 2.684-.002 2.816-.08.251-.148.304-.262.304-.66s-.053-.512-.304-.66c-.129-.076-.22-.081-1.773-.092l-1.637-.013 3.944-3.947c3.54-3.544 3.948-3.965 3.989-4.119.134-.512-.447-1.072-.959-.924m-13.72.036c-4.084.223-6.185 2.014-6.697 5.71-.113.812-.141 1.825-.141 5.009s.028 4.197.141 5.009c.384 2.775 1.665 4.461 3.973 5.233.835.279 1.642.415 2.837.478.969.051 6.645.051 7.614 0 1.195-.063 2.002-.199 2.837-.478 2.318-.775 3.575-2.437 3.977-5.256.089-.627.147-2.025.132-3.19-.012-.97-.02-1.067-.093-1.192-.161-.273-.478-.396-.845-.327a.646.646 0 0 0-.475.327c-.076.129-.081.233-.105 1.956-.028 1.968-.05 2.225-.275 3.128-.456 1.831-1.44 2.816-3.272 3.272-1.066.266-.943.26-5.688.26-3.936 0-4.339-.006-4.76-.072-2.79-.435-3.957-1.597-4.386-4.368-.069-.445-.074-.791-.074-4.78 0-3.989.005-4.335.074-4.78.38-2.459 1.356-3.645 3.434-4.176.88-.225 1.214-.254 3.172-.28 1.704-.023 1.807-.028 1.936-.104a.646.646 0 0 0 .327-.475c.069-.367-.054-.684-.327-.845-.128-.075-.213-.08-1.436-.085a45.11 45.11 0 0 0-1.88.026" fill-rule="evenodd" fill="#000"/></svg>