<svg width="24" height="24" fill="none" xmlns="http://www.w3.org/2000/svg"><path d="M11.28 1.355c-.479.129-.77.322-1.76 1.165-.699.594-.997.823-1.16.889-.205.082-.302.09-1.46.112-1.222.023-1.245.025-1.56.134a2.73 2.73 0 0 0-1.592 1.408c-.21.418-.239.625-.264 1.917-.024 1.185-.025 1.203-.128 1.42-.065.138-.388.554-.871 1.12-1.043 1.223-1.205 1.553-1.205 2.46s.162 1.237 1.205 2.46c.483.566.806.982.871 1.12.103.217.104.235.129 1.44.02.94.04 1.275.091 1.46.221.816.909 1.562 1.705 1.85.294.106.321.108 1.559.132.693.014 1.315.044 1.381.066.285.097.492.246 1.303.94.471.402.952.793 1.069.868.585.374 1.391.485 2.147.297.463-.115.787-.33 1.771-1.169.712-.606.986-.816 1.16-.886.216-.087.3-.094 1.469-.118 1.119-.023 1.265-.034 1.5-.112.776-.256 1.446-.928 1.725-1.728.084-.241.093-.35.115-1.5.022-1.159.029-1.255.113-1.466.069-.173.275-.443.888-1.16.865-1.013 1.056-1.308 1.18-1.822.098-.408.067-1.164-.062-1.546-.142-.42-.316-.67-1.124-1.617-.719-.843-.837-1.005-.927-1.267-.023-.067-.052-.671-.066-1.342l-.025-1.22-.121-.342a2.723 2.723 0 0 0-1.676-1.666c-.309-.103-.362-.107-1.54-.133-.671-.014-1.275-.044-1.341-.067-.278-.095-.478-.238-1.219-.874-1.167-1.002-1.285-1.081-1.83-1.22-.395-.102-1.08-.103-1.45-.003m1.26 1.515c.088.045.503.377.922.736 1.148.986 1.252 1.057 1.838 1.259.315.109.338.111 1.56.133 1.192.021 1.247.026 1.428.115.239.118.481.36.599.599.089.181.094.235.115 1.428l.021 1.24.124.35c.179.508.309.699 1.144 1.677.413.485.79.956.836 1.047.12.235.143.636.052.924-.061.194-.183.357-.865 1.154-.834.975-1.015 1.247-1.197 1.808-.084.258-.093.375-.115 1.5-.021 1.133-.029 1.233-.109 1.406a1.455 1.455 0 0 1-.581.602c-.165.088-.22.092-1.412.114-1.208.023-1.248.026-1.56.131-.525.175-.828.379-1.794 1.203-1.042.89-1.108.926-1.621.895-.204-.012-.358-.046-.465-.102-.088-.046-.529-.403-.98-.792-.896-.773-1.149-.956-1.532-1.109-.482-.193-.775-.228-1.919-.228-1.215 0-1.306-.017-1.631-.309-.374-.337-.373-.331-.401-1.751l-.025-1.24-.125-.381a3.674 3.674 0 0 0-.276-.628c-.083-.136-.494-.652-.914-1.147-.826-.973-.897-1.094-.897-1.524 0-.43.071-.551.897-1.524.844-.996 1.011-1.24 1.16-1.69.151-.455.181-.765.182-1.85L5 5.933l.124-.249c.138-.276.415-.528.668-.608.09-.029.63-.058 1.388-.075 1.363-.031 1.419-.04 1.96-.31.314-.157.374-.203 1.3-.992.901-.768.965-.816 1.165-.881.249-.081.73-.054.935.052m-.939 4.598c-.201.104-.31.291-.341.583-.014.137-.02 1.356-.013 2.709.013 2.376.016 2.465.093 2.596.161.273.478.396.845.327a.646.646 0 0 0 .475-.327c.078-.132.08-.208.08-2.816 0-2.608-.002-2.684-.08-2.816-.139-.236-.268-.302-.613-.316-.235-.009-.339.005-.446.06m-.031 7.605c-.373.133-.531.366-.561.827-.043.662.253 1.033.867 1.089.453.041.849-.131 1.012-.439.075-.141.09-.235.091-.553.001-.357-.007-.397-.119-.578-.163-.263-.402-.386-.791-.406a1.17 1.17 0 0 0-.499.06" fill-rule="evenodd" fill="#000"/></svg>