<svg width="24" height="24" fill="none" xmlns="http://www.w3.org/2000/svg"><path d="M8.08 1.282c-4.072.213-6.185 2.014-6.697 5.709-.113.812-.141 1.825-.141 5.009 0 4.504.06 5.273.518 6.65.772 2.313 2.446 3.576 5.267 3.972.759.106 1.875.137 4.973.137s4.214-.031 4.973-.137c2.47-.347 4.023-1.334 4.924-3.132.482-.96.741-2.121.823-3.683.051-.969.051-6.645 0-7.614-.063-1.195-.199-2.002-.478-2.837-.61-1.825-1.773-2.989-3.592-3.596-.862-.287-1.627-.416-2.844-.48-.854-.045-6.854-.043-7.726.002m8.72 1.572c2.786.462 3.914 1.6 4.348 4.386.066.421.072.824.072 4.76s-.006 4.339-.072 4.76c-.436 2.798-1.59 3.952-4.388 4.388-.421.066-.824.072-4.76.072s-4.339-.006-4.76-.072c-2.79-.435-3.957-1.597-4.386-4.368-.069-.445-.074-.791-.074-4.78 0-4.753-.004-4.663.264-5.712C3.557 4.282 4.722 3.274 6.96 2.9c.73-.123 1.088-.131 5.24-.123 3.763.007 4.222.014 4.6.077m.454 3.203c-.237.075-.402.204-.504.396-.073.138-.088.233-.088.547 0 .448.084.658.329.818.449.294 1.23.202 1.479-.174.274-.413.203-1.175-.134-1.44-.236-.186-.74-.254-1.082-.147m-6.085 1.784c-1.622.351-2.856 1.518-3.277 3.099-.096.357-.107.472-.107 1.06 0 .591.011.702.107 1.059a4.291 4.291 0 0 0 3.049 3.048c.356.096.47.107 1.059.107s.703-.011 1.059-.107a4.287 4.287 0 0 0 3.048-3.048c.096-.356.107-.47.107-1.059s-.011-.703-.107-1.059a4.282 4.282 0 0 0-3.048-3.046c-.558-.146-1.358-.169-1.89-.054m1.551 1.497c.742.201 1.416.769 1.758 1.482.205.427.261.678.261 1.18 0 .502-.056.753-.261 1.18a2.749 2.749 0 0 1-1.298 1.298c-.427.205-.678.261-1.18.261-.502 0-.753-.056-1.18-.261a2.749 2.749 0 0 1-1.298-1.298c-.205-.427-.261-.678-.261-1.18 0-.502.056-.753.261-1.18.357-.744 1.099-1.348 1.838-1.495.121-.024.256-.053.3-.063.147-.034.837.016 1.06.076" fill-rule="evenodd" fill="#000"/></svg>