<svg width="24" height="24" fill="none" xmlns="http://www.w3.org/2000/svg"><path d="M12.3 1.697a2.692 2.692 0 0 0-.955.44c-.135.097-1.921 1.857-3.969 3.91C4.559 8.87 3.617 9.839 3.509 10.02a3.736 3.736 0 0 0-.254.56c-.099.288-.11.374-.11.86-.001.479.011.576.107.863.059.178.181.439.271.58.115.181.85.944 2.471 2.569 1.268 1.272 2.389 2.374 2.49 2.45.478.354.973.511 1.616.512.767.001 1.278-.198 1.885-.733.195-.172.967-.926 1.714-1.676l1.36-1.364 2.26 2.255c1.244 1.24 2.319 2.284 2.389 2.319.364.184.854-.045 1.038-.484a.542.542 0 0 0-.013-.485c-.042-.091-.915-.997-2.328-2.416l-2.261-2.269 1.58-1.591c.905-.91 1.644-1.688 1.73-1.82.696-1.064.606-2.385-.227-3.351-.485-.562-4.557-4.578-4.805-4.74a3.302 3.302 0 0 0-.58-.274c-.293-.102-.411-.121-.822-.131a3.261 3.261 0 0 0-.72.043m1.166 1.543c.151.071.691.587 2.462 2.356 2.552 2.547 2.486 2.466 2.485 3.022-.001.528.083.427-2.484 2.993L13.62 13.92l-3-3-3-3 2.26-2.262c1.243-1.244 2.32-2.299 2.393-2.345.34-.213.831-.243 1.193-.073M9.57 11.99l2.99 2.99-.89.886c-.489.488-.953.919-1.03.96-.202.106-.836.105-1.06-.002-.195-.093-4.656-4.521-4.803-4.768-.205-.344-.208-.874-.007-1.216C4.846 10.712 6.51 9 6.559 9c.012 0 1.367 1.346 3.011 2.99m-7.783 8.288c-.342.068-.519.314-.519.722 0 .462.207.693.663.739.137.015 1.617.02 3.289.014 2.956-.013 3.044-.015 3.176-.093a.646.646 0 0 0 .327-.475c.069-.367-.054-.684-.327-.845-.133-.078-.214-.08-3.296-.086-1.738-.003-3.229.007-3.313.024" fill-rule="evenodd" fill="#000"/></svg>