<svg width="24" height="24" fill="none" xmlns="http://www.w3.org/2000/svg"><path d="M3.714 1.282c-1.022.091-1.783.536-2.129 1.244-.181.37-.258.667-.305 1.174-.049.529-.049 16.071 0 16.6.104 1.124.554 1.814 1.42 2.176.587.246.663.252 3.152.273 2.428.02 3.072-.007 3.587-.151.903-.252 1.467-.826 1.707-1.738.071-.268.074-.647.074-8.86s-.003-8.592-.074-8.86c-.193-.734-.585-1.24-1.186-1.533-.421-.206-.696-.277-1.26-.327-.509-.045-4.472-.044-4.986.002m11.522 0c-1.044.093-1.805.543-2.163 1.279-.313.643-.293.245-.293 5.939 0 4.811.004 5.095.074 5.36.193.734.585 1.24 1.186 1.533.421.206.696.277 1.26.327.567.051 4.299.051 4.9 0 1.346-.113 2.141-.697 2.421-1.78.121-.467.136-1.086.136-5.44s-.015-4.973-.136-5.44c-.279-1.076-1.068-1.661-2.401-1.78-.508-.045-4.472-.044-4.984.002M9.131 2.839c.262.096.46.299.539.554.066.213.07.726.07 8.607 0 7.881-.004 8.394-.07 8.607a.868.868 0 0 1-.539.554c-.205.075-5.182.109-5.55.038-.462-.09-.638-.238-.757-.636-.058-.197-.064-1.004-.064-8.563 0-7.559.006-8.366.064-8.563.114-.381.261-.517.676-.622.302-.076 5.418-.054 5.631.024m11.317-.034c.44.093.612.242.728.632.057.195.064.723.064 5.063s-.007 4.868-.064 5.063c-.083.277-.185.42-.37.514-.311.158-.52.168-3.206.154-2.829-.016-2.746-.009-3.041-.261-.316-.271-.299.044-.299-5.45 0-4.01.01-4.898.055-5.076.095-.367.357-.581.805-.656.248-.042 5.125-.026 5.328.017" fill-rule="evenodd" fill="#000"/></svg>