<svg width="24" height="24" fill="none" xmlns="http://www.w3.org/2000/svg"><path d="M8.08 1.282c-4.072.213-6.185 2.014-6.697 5.709-.113.812-.141 1.825-.141 5.009 0 4.504.06 5.273.518 6.65.772 2.313 2.446 3.576 5.267 3.972.759.106 1.875.137 4.973.137s4.214-.031 4.973-.137c2.47-.347 4.023-1.334 4.924-3.132.482-.96.741-2.121.823-3.683.051-.969.051-6.645 0-7.614-.063-1.195-.199-2.002-.478-2.837-.61-1.825-1.773-2.989-3.592-3.596-.862-.287-1.627-.416-2.844-.48-.854-.045-6.854-.043-7.726.002m8.72 1.572c2.786.462 3.914 1.6 4.348 4.386.066.421.072.824.072 4.76s-.006 4.339-.072 4.76c-.436 2.798-1.59 3.952-4.388 4.388-.421.066-.824.072-4.76.072s-4.339-.006-4.76-.072c-2.79-.435-3.957-1.597-4.386-4.368-.069-.445-.074-.791-.074-4.78 0-4.753-.004-4.663.264-5.712C3.557 4.282 4.722 3.274 6.96 2.9c.73-.123 1.088-.131 5.24-.123 3.763.007 4.222.014 4.6.077m-3.82 2.932c-1.583.128-2.984.969-3.808 2.286a5.26 5.26 0 0 0-.597 1.423c-.125.502-.17 1.365-.097 1.866l.048.33-1.236 1.245c-1.115 1.122-1.247 1.269-1.347 1.499-.203.462-.214.658-.09 1.575.124.916.208 1.161.513 1.492.381.413.601.503 1.557.636.831.116 1.016.123 1.297.048.49-.131.535-.167 1.844-1.472l1.246-1.242.283.044a6.207 6.207 0 0 0 1.587-.019c2.09-.362 3.678-2.004 4.002-4.137a4.755 4.755 0 0 0-.44-2.822c-.758-1.557-2.204-2.563-3.936-2.736-.403-.041-.492-.043-.826-.016m1.28 1.592c.877.241 1.749.973 2.146 1.802.234.488.321.874.326 1.44.005.548-.068.942-.261 1.395-.398.938-1.258 1.675-2.284 1.956-.475.129-1.219.126-1.753-.008-.384-.096-.387-.096-.58-.023-.15.058-.329.207-.803.673l-.609.598-.28-.263c-.425-.401-.693-.415-1.062-.056-.394.385-.383.661.046 1.141l.225.253-.195.2c-.108.11-.226.216-.262.236-.043.024-.297.007-.7-.046-.528-.07-.648-.098-.72-.17-.072-.071-.1-.19-.167-.701-.044-.338-.07-.644-.058-.68.012-.036.638-.686 1.391-1.445 1.593-1.606 1.524-1.502 1.379-2.112-.11-.463-.141-.994-.082-1.368.232-1.444 1.242-2.539 2.643-2.865.306-.071 1.341-.044 1.66.043m-1.315 2.401c-.45.16-.661.737-.485 1.329.072.24.295.465.527.529.197.055.629.055.826 0 .357-.099.587-.466.587-.937 0-.471-.23-.838-.587-.937-.213-.059-.682-.05-.868.016" fill-rule="evenodd" fill="#000"/></svg>