<svg width="24" height="24" fill="none" xmlns="http://www.w3.org/2000/svg"><path d="M13.24 1.345A8.558 8.558 0 0 0 9.2 3.109a10.75 10.75 0 0 0-.741.697c-.687.708-1.105 1.305-1.522 2.174a8.358 8.358 0 0 0-.658 5.22l.074.38-2.267 2.28c-1.631 1.641-2.304 2.344-2.4 2.509a3.118 3.118 0 0 0-.394 1.065c-.052.302-.051.393.008.862.158 1.256.309 2.212.381 2.416a2.748 2.748 0 0 0 1.327 1.482c.405.193.433.199 1.952.407 1.362.187 1.542.186 2.125-.017.558-.194.613-.242 3.038-2.655l2.303-2.291.268.062c1.148.266 2.573.235 3.824-.084a8.101 8.101 0 0 0 3.353-1.754c2.84-2.431 3.68-6.534 2.031-9.922a7.864 7.864 0 0 0-1.626-2.269 8.292 8.292 0 0 0-4.724-2.331c-.526-.075-1.797-.072-2.312.005m2.089 1.477a6.82 6.82 0 0 1 5.239 3.789c.675 1.379.852 3.023.493 4.569a7.067 7.067 0 0 1-1.136 2.44c-.966 1.285-2.295 2.182-3.785 2.553-.68.169-.971.205-1.7.206-.752.001-1.006-.031-1.792-.228-.441-.11-.509-.117-.66-.073-.142.041-.37.25-1.478 1.355l-1.311 1.306-.949-.946c-.523-.52-1.012-.976-1.087-1.014a.65.65 0 0 0-.55-.005 1.547 1.547 0 0 0-.448.453c-.065.126-.055.396.019.545.035.07.49.557 1.01 1.081l.946.953-.64.618c-.352.34-.712.658-.8.707-.139.077-.215.088-.58.084-.495-.006-2.297-.26-2.466-.348-.161-.083-.438-.373-.519-.543-.071-.149-.313-1.713-.36-2.327-.05-.659-.232-.429 2.565-3.237 1.348-1.353 2.478-2.514 2.511-2.58.116-.233.114-.346-.011-.84-.38-1.51-.291-2.889.282-4.36.487-1.249 1.516-2.452 2.753-3.219a6.843 6.843 0 0 1 4.454-.939M14.18 7.281a2.21 2.21 0 0 0-1.91 2.199c-.003.649.2 1.15.65 1.6.443.443.948.651 1.58.651.632 0 1.137-.208 1.58-.651.443-.443.651-.948.651-1.58 0-.632-.208-1.137-.651-1.58a2.227 2.227 0 0 0-1.9-.639m.764 1.622c.229.185.303.352.287.646-.012.203-.036.274-.134.395-.185.229-.352.303-.646.287-.203-.012-.274-.036-.395-.134-.229-.185-.303-.352-.287-.646.012-.203.036-.274.134-.395.185-.229.352-.303.646-.287.203.012.274.036.395.134" fill-rule="evenodd" fill="#000"/></svg>