<svg width="24" height="24" fill="none" xmlns="http://www.w3.org/2000/svg"><path d="M6.56 3.282c-1.717.094-2.75.428-3.505 1.131-.695.648-1.043 1.475-1.222 2.907-.076.607-.076 8.753 0 9.36.179 1.432.527 2.259 1.222 2.907.774.721 1.761 1.031 3.605 1.134.885.049 9.795.049 10.68 0 1.824-.102 2.826-.413 3.583-1.113.712-.657 1.064-1.486 1.244-2.928.076-.607.076-8.753 0-9.36-.108-.865-.271-1.474-.528-1.976a2.96 2.96 0 0 0-.716-.952c-.757-.7-1.759-1.011-3.583-1.113-.788-.043-9.977-.041-10.78.003M18.28 4.85c.509.094.692.14.974.246.678.256 1.059.713 1.266 1.524.215.842.22.957.22 5.38 0 3.674-.007 4.15-.069 4.58-.137.95-.323 1.464-.658 1.824-.39.419-.859.609-1.873.762-.53.08-11.75.08-12.28 0-1.009-.152-1.483-.344-1.866-.755-.302-.323-.456-.686-.591-1.386-.149-.776-.17-1.531-.153-5.465.018-4 .025-4.136.23-4.941.24-.938.736-1.425 1.68-1.651.294-.07.48-.099 1.18-.183.066-.008 2.703-.011 5.86-.006 5.011.008 5.783.017 6.08.071M6.78 9.036c-.318.089-.488.229-.598.493-.09.215-.082.763.014.975.158.348.392.47.904.47.418 0 .586-.059.772-.271.151-.172.208-.363.208-.703 0-.143-.019-.328-.042-.411a.86.86 0 0 0-.434-.494c-.169-.072-.653-.106-.824-.059m3 0c-.22.062-.319.115-.428.23-.172.182-.232.375-.231.743.001.487.139.746.479.901.193.088.808.087 1.004-.001a.881.881 0 0 0 .434-.498 2.106 2.106 0 0 0 0-.822.86.86 0 0 0-.434-.494c-.169-.072-.653-.106-.824-.059m3.515.24c-.229.039-.369.142-.457.337-.168.37-.051.877.242 1.046.135.078.205.081 2.16.081 1.948 0 2.025-.003 2.156-.08a.646.646 0 0 0 .327-.475c.069-.367-.054-.684-.327-.845-.13-.077-.214-.08-2.036-.086-1.045-.003-1.974.007-2.065.022M6.599 14.85c-.25.127-.332.288-.332.65 0 .362.082.523.332.65l.178.09h10.446l.178-.09c.25-.127.328-.281.328-.65s-.078-.523-.328-.65l-.178-.09H6.777l-.178.09" fill-rule="evenodd" fill="#000"/></svg>