<svg width="24" height="24" fill="none" xmlns="http://www.w3.org/2000/svg"><path d="M6.28 1.281c-1.369.071-2.371.308-3.095.733-.38.222-.966.805-1.175 1.166-.43.746-.636 1.574-.728 2.92-.053.787-.053 7.853 0 8.64.123 1.812.464 2.78 1.255 3.56.707.698 1.477 1.009 2.983 1.206.435.057 1.191.068 5.82.083 5.58.018 6.624-.003 7.54-.147.82-.129 1.298-.275 1.797-.548 1.207-.66 1.802-1.776 2.011-3.774.075-.718.075-8.682 0-9.4-.16-1.533-.515-2.462-1.208-3.164-.807-.817-1.876-1.173-3.836-1.277-.802-.042-10.541-.041-11.364.002m12 1.541c1.103.126 1.69.341 2.123.774.404.405.588.864.746 1.859.065.406.071.84.071 4.965s-.006 4.559-.071 4.965c-.157.992-.341 1.449-.748 1.856-.313.314-.623.475-1.182.615-.9.226-.976.228-7.479.214-5.426-.013-5.996-.02-6.36-.083-1.832-.316-2.355-.92-2.588-2.987-.075-.661-.075-8.499 0-9.16.235-2.079.807-2.729 2.622-2.978.245-.034.509-.068.586-.075.077-.008 2.75-.017 5.94-.021 5.005-.005 5.874.003 6.34.056M6.745 7.379c-.45.16-.661.737-.485 1.329.072.24.295.465.527.529.197.055.629.055.826 0 .357-.099.587-.466.587-.937 0-.471-.23-.838-.587-.937-.213-.059-.682-.05-.868.016m3.297-.007c-.194.062-.429.31-.482.509-.025.092-.045.28-.045.419 0 .36.065.56.238.733.179.179.385.247.747.247.359 0 .568-.068.74-.24.172-.172.24-.381.24-.74a1.89 1.89 0 0 0-.049-.434.831.831 0 0 0-.497-.497c-.198-.059-.702-.057-.892.003m3.333.224c-.229.039-.369.142-.457.337-.168.37-.051.877.242 1.046.136.079.205.081 2.26.081 2.055 0 2.124-.002 2.26-.081a.67.67 0 0 0 .23-.258c.186-.367.073-.885-.23-1.06-.135-.078-.211-.081-2.14-.087-1.1-.004-2.074.006-2.165.022m-6.949 5.822c-.305.11-.426.315-.425.722.001.289.117.517.314.618.161.082.188.082 5.693.082 5.188 0 5.541-.004 5.669-.07.246-.125.303-.249.303-.65 0-.384-.041-.483-.275-.658-.111-.082-.125-.082-5.618-.091-4.594-.007-5.533.001-5.661.047m.361 7.86c-.342.067-.519.314-.519.722 0 .462.207.693.663.739.137.014 2.517.02 5.289.013 4.957-.012 5.042-.013 5.176-.092.273-.161.396-.478.327-.845a.646.646 0 0 0-.327-.475c-.134-.079-.213-.08-5.296-.086-2.838-.003-5.229.008-5.313.024" fill-rule="evenodd" fill="#000"/></svg>