<svg width="24" height="24" fill="none" xmlns="http://www.w3.org/2000/svg"><path d="M7.66 1.278c-1.056.128-2.143.958-2.5 1.91-.072.194-2.197 7.933-2.364 8.612-.08.324-.069 1.157.019 1.48.276 1.013 1.028 1.751 2.089 2.049.311.087.359.089 3.326.102l3.01.013v5.791l-1.75.013c-1.666.011-1.757.016-1.886.092a.646.646 0 0 0-.327.475c-.069.367.054.684.327.845.134.079.208.08 4.396.08s4.262-.001 4.396-.08c.273-.161.396-.478.327-.845a.646.646 0 0 0-.327-.475c-.129-.076-.22-.081-1.886-.092l-1.75-.013v-5.791l3.01-.013c2.97-.013 3.014-.015 3.328-.103 1.049-.294 1.828-1.052 2.084-2.028.091-.351.118-.923.06-1.288-.078-.487-2.31-8.635-2.445-8.928-.372-.803-1.141-1.456-2.043-1.732l-.294-.089-4.28-.007c-2.354-.004-4.388.006-4.52.022m8.978 1.636c.296.155.671.513.781.746.041.088.588 2.032 1.214 4.32 1.082 3.952 1.139 4.178 1.143 4.52.004.315-.01.39-.108.6-.217.464-.607.737-1.171.818-.377.055-12.617.055-12.994 0-.564-.081-.956-.355-1.17-.818-.095-.205-.111-.29-.109-.58.001-.319.074-.605 1.15-4.536.76-2.779 1.184-4.263 1.255-4.394.175-.321.624-.673 1.011-.793.055-.017 2.044-.028 4.42-.024l4.32.007.258.134" fill-rule="evenodd" fill="#000"/></svg>