<svg width="24" height="24" fill="none" xmlns="http://www.w3.org/2000/svg"><path d="M11.48 1.263c-1.209.102-2.239.378-3.26.873A8.66 8.66 0 0 0 3.543 8.16a8.177 8.177 0 0 0 .157 3.98c.534 1.828 1.84 3.665 3.456 4.862l.403.298v.663c.001.743.043.958.242 1.232.161.222.421.382.751.463.239.058.622.064 3.528.053 3.255-.011 3.26-.011 3.475-.099.316-.13.507-.277.658-.507.214-.326.237-.429.257-1.169l.019-.684.116-.069c.354-.209 1.092-.861 1.587-1.403 1.705-1.865 2.615-4.413 2.41-6.751-.265-3.028-2.002-5.552-4.742-6.89a8.207 8.207 0 0 0-2.586-.797c-.426-.062-1.455-.107-1.794-.079m1.828 1.594a7.147 7.147 0 0 1 3.5 1.682c.908.787 1.619 1.88 2.005 3.081.248.773.287 1.052.287 2.06 0 .789-.011.954-.093 1.34-.442 2.095-1.673 3.884-3.53 5.13-.463.31-.453.286-.477 1.25l-.02.82-2.97.01-2.97.011v-.758c0-.44-.018-.805-.043-.87-.063-.169-.176-.274-.619-.576-1.486-1.014-2.671-2.557-3.193-4.157-.997-3.063.396-6.541 3.282-8.193 1.429-.817 3.189-1.119 4.841-.83M11.22 20.783l-.6.058c-.824.078-2.331.398-2.591.552-.291.171-.363.594-.169.99.192.393.405.443 1.12.263a11.422 11.422 0 0 1 3.02-.377c1.09 0 1.933.104 3.008.374.257.064.527.117.6.117.351 0 .632-.36.632-.808 0-.275-.077-.439-.26-.552-.235-.145-1.665-.46-2.54-.56-.395-.045-1.941-.084-2.22-.057" fill-rule="evenodd" fill="#000"/></svg>