<svg width="24" height="24" fill="none" xmlns="http://www.w3.org/2000/svg"><path d="M11.56 1.264c-1.201.102-2.231.39-3.18.89C6.316 3.241 4.762 5.223 4.14 7.56c-.252.944-.36 2.241-.263 3.14.129 1.186.589 2.624.938 2.93.127.111.178.13.359.13.26 0 .585-.151.728-.339.157-.206.14-.43-.077-1.011-.669-1.787-.661-3.495.026-5.272.803-2.078 2.562-3.678 4.612-4.193a6.679 6.679 0 0 1 3.425.072c.94.274 1.969.881 2.611 1.54l.199.204-6.607 6.61c-3.766 3.767-6.625 6.657-6.649 6.722a.911.911 0 0 0-.042.263c0 .294.372.698.69.75.306.05.378-.006 1.658-1.278l1.209-1.201.131.107.392.31.26.202.021.747c.02.692.029.763.124.967.18.39.503.627.976.718.171.033 1.11.043 3.279.034l3.04-.012.264-.125c.638-.302.832-.734.835-1.862l.001-.468.13-.09c.304-.212.85-.704 1.185-1.066a9.671 9.671 0 0 0 2.452-4.92c.08-.441.091-.639.09-1.489-.002-1.052-.045-1.406-.278-2.275-.164-.614-.277-.782-.57-.847-.188-.043-.557.039-.729.162-.277.197-.31.432-.147 1.046a7.344 7.344 0 0 1-.138 4.332c-.506 1.516-1.537 2.954-2.767 3.861-.77.568-.723.472-.741 1.491l-.014.79H9.28l-.002-.67c-.002-.743-.031-.968-.147-1.124-.043-.057-.241-.222-.439-.365a13.35 13.35 0 0 1-.515-.391l-.156-.131 6.326-6.329c3.479-3.482 6.354-6.388 6.389-6.458a.813.813 0 0 0 .064-.303c0-.315-.327-.681-.688-.77-.248-.061-.372.032-1.38 1.033l-.969.961-.296-.281a7.814 7.814 0 0 0-5.168-2.146 9.978 9.978 0 0 0-.739-.002m-.34 19.519-.6.058c-.824.078-2.331.398-2.591.552-.291.171-.363.594-.169.99.192.393.405.443 1.12.263a11.422 11.422 0 0 1 3.02-.377c1.09 0 1.933.104 3.008.374.257.064.527.117.6.117.351 0 .632-.36.632-.808 0-.275-.077-.439-.26-.552-.235-.145-1.665-.46-2.54-.56-.395-.045-1.941-.084-2.22-.057" fill-rule="evenodd" fill="#000"/></svg>