<svg width="24" height="24" fill="none" xmlns="http://www.w3.org/2000/svg"><path d="M11.787 1.278a.659.659 0 0 0-.447.326c-.074.127-.081.221-.093 1.363l-.013 1.228-.107.02a5.104 5.104 0 0 1-.367.047c-.981.098-2.132.456-3.166.983-2.814 1.434-4.762 4.302-5.073 7.469-.024.239-.041 1.619-.04 3.26.001 2.709.004 2.854.077 3.013.147.325.029.31 2.738.333l2.397.02.114.339c.673 2.003 2.536 3.228 4.618 3.035 1.75-.162 3.196-1.33 3.773-3.049l.109-.325 2.397-.02c2.708-.023 2.574-.006 2.734-.336l.087-.179-.015-3.072c-.013-2.687-.024-3.126-.085-3.493a9.578 9.578 0 0 0-.885-2.78 9.433 9.433 0 0 0-7.3-5.198 6.134 6.134 0 0 1-.37-.047l-.11-.021-.002-1.107c-.002-1.176-.022-1.393-.148-1.561-.158-.213-.491-.313-.823-.248M12.9 5.721a7.908 7.908 0 0 1 4.775 2.283 7.475 7.475 0 0 1 1.524 2.105c.422.842.711 1.866.8 2.831.023.242.041 1.443.041 2.67v2.23H3.96v-2.256c0-1.246.018-2.441.041-2.67.296-2.988 2.18-5.524 4.939-6.648a8.08 8.08 0 0 1 2.1-.541 12.032 12.032 0 0 1 1.86-.004m1.819 13.669c-.002.075-.276.551-.434.753-.384.491-1.057.918-1.638 1.037a3.775 3.775 0 0 1-1.307 0c-.568-.119-1.245-.551-1.625-1.037-.158-.202-.432-.678-.434-.753-.001-.017 1.223-.03 2.719-.03 1.496 0 2.72.013 2.719.03" fill-rule="evenodd" fill="#000"/></svg>