<svg width="24" height="24" fill="none" xmlns="http://www.w3.org/2000/svg"><path d="M8.08 1.282c-4.072.213-6.185 2.014-6.697 5.709-.113.812-.141 1.825-.141 5.009 0 4.504.06 5.273.518 6.65.772 2.313 2.446 3.576 5.267 3.972.759.106 1.875.137 4.973.137s4.214-.031 4.973-.137c2.47-.347 4.023-1.334 4.924-3.132.482-.96.741-2.121.823-3.683.051-.969.051-6.645 0-7.614-.063-1.195-.199-2.002-.478-2.837-.61-1.825-1.773-2.989-3.592-3.596-.862-.287-1.627-.416-2.844-.48-.854-.045-6.854-.043-7.726.002m8.72 1.572c2.786.462 3.914 1.6 4.348 4.386.066.421.072.824.072 4.76s-.006 4.339-.072 4.76c-.436 2.798-1.59 3.952-4.388 4.388-.421.066-.824.072-4.76.072s-4.339-.006-4.76-.072c-2.79-.435-3.957-1.597-4.386-4.368-.069-.445-.074-.791-.074-4.78 0-4.753-.004-4.663.264-5.712C3.557 4.282 4.722 3.274 6.96 2.9c.73-.123 1.088-.131 5.24-.123 3.763.007 4.222.014 4.6.077m-5.013 3.704a.65.65 0 0 0-.445.324c-.065.111-.081.23-.095.724l-.017.59-2.245.012c-2.162.012-2.25.015-2.381.092-.251.148-.304.262-.304.66s.053.512.304.66c.133.078.219.08 3.628.091 3.28.011 3.491.016 3.473.08a3.09 3.09 0 0 0-.045.289c-.108.917-.668 2.274-1.278 3.099a8.187 8.187 0 0 1-1.362 1.397 6.105 6.105 0 0 1-1.68.953c-.698.268-1.218.376-2.071.43-.592.038-.726.081-.879.286-.168.226-.168.724 0 .95.168.225.303.266.84.256 1.738-.033 3.459-.675 4.873-1.817l.322-.26.346.33c1.064 1.014 2.389 1.624 3.769 1.733.667.053.92-.007 1.085-.259.154-.235.147-.716-.015-.933-.145-.194-.285-.243-.815-.284-1.202-.093-2.151-.531-3.059-1.412l-.285-.276.332-.496c.724-1.084 1.232-2.429 1.38-3.653l.049-.397 1.024-.014c.938-.012 1.035-.02 1.16-.093.251-.148.304-.262.304-.66s-.053-.512-.304-.66c-.131-.077-.219-.08-2.386-.092l-2.25-.012-.002-.468c-.002-.724-.07-.939-.342-1.094-.144-.081-.427-.115-.629-.076" fill-rule="evenodd" fill="#000"/></svg>