<svg width="24" height="24" fill="none" xmlns="http://www.w3.org/2000/svg"><path d="M11.32 1.281c-4.279.244-8.068 3.128-9.477 7.216a10.886 10.886 0 0 0-.279 6.053 10.76 10.76 0 0 0 7.886 7.886 10.96 10.96 0 0 0 5.1 0 10.76 10.76 0 0 0 7.886-7.886 10.96 10.96 0 0 0 0-5.1 10.758 10.758 0 0 0-8.694-8.052c-.408-.067-1.668-.169-1.862-.151l-.56.034m1.826 1.541a9.086 9.086 0 0 1 2.914.874c2.817 1.383 4.708 4.026 5.118 7.158.123.932.066 2.172-.144 3.144-.289 1.345-1.031 2.857-1.913 3.902a9.31 9.31 0 0 1-3.061 2.404 8.94 8.94 0 0 1-4.06.936 8.93 8.93 0 0 1-4.06-.936c-2.817-1.383-4.708-4.026-5.118-7.158-.123-.932-.066-2.172.144-3.144.211-.982.737-2.227 1.302-3.082a9.335 9.335 0 0 1 6.552-4.097c.56-.077 1.749-.077 2.326-.001m-1.359 3.736a.65.65 0 0 0-.445.324c-.065.111-.081.23-.095.724l-.017.59-2.245.012c-2.162.012-2.25.015-2.381.092-.251.148-.304.262-.304.66s.053.512.304.66c.133.078.219.08 3.628.091 3.28.011 3.491.016 3.473.08a3.09 3.09 0 0 0-.045.289c-.108.917-.668 2.274-1.278 3.099a8.187 8.187 0 0 1-1.362 1.397 6.105 6.105 0 0 1-1.68.953c-.698.268-1.218.376-2.071.43-.592.038-.726.081-.879.286-.168.226-.168.724 0 .95.168.225.303.266.84.256 1.738-.033 3.459-.675 4.873-1.817l.322-.26.346.33c1.064 1.014 2.389 1.624 3.769 1.733.667.053.92-.007 1.085-.259.154-.235.147-.716-.015-.933-.145-.194-.285-.243-.815-.284-1.202-.093-2.151-.531-3.059-1.412l-.285-.276.332-.496c.724-1.084 1.232-2.429 1.38-3.653l.049-.397 1.024-.014c.938-.012 1.035-.02 1.16-.093.251-.148.304-.262.304-.66s-.053-.512-.304-.66c-.131-.077-.219-.08-2.386-.092l-2.25-.012-.002-.468c-.002-.724-.07-.939-.342-1.094-.144-.081-.427-.115-.629-.076" fill-rule="evenodd" fill="#000"/></svg>