<svg width="24" height="24" fill="none" xmlns="http://www.w3.org/2000/svg"><path d="M11.014 2.017a4.601 4.601 0 0 0-.44.104c-.176.057-6.129 2.694-6.458 2.861-1.261.638-1.761 1.698-1.271 2.695.172.348.63.804 1.043 1.036.335.189 6.169 2.797 6.592 2.948.404.143.734.191 1.32.19.606 0 1.002-.068 1.456-.251.156-.062 1.634-.714 3.284-1.449 3.065-1.364 3.387-1.526 3.774-1.907.607-.596.77-1.358.438-2.048a2.638 2.638 0 0 0-.35-.525c-.404-.447-.654-.576-4.029-2.075-1.734-.771-3.306-1.447-3.493-1.503-.286-.086-.439-.104-.96-.116-.413-.01-.715.003-.906.04m1.316 1.482c.182.038 1.249.491 3.26 1.384 1.645.73 3.111 1.39 3.259 1.466.261.136.591.437.591.54 0 .118-.176.323-.4.468-.279.18-6.384 2.901-6.645 2.961-.279.064-1.029.051-1.274-.021-.245-.073-6.268-2.74-6.481-2.87-.251-.152-.48-.39-.48-.496 0-.142.129-.302.37-.463.297-.196 6.396-2.903 6.69-2.968a2.918 2.918 0 0 1 1.11-.001m-9.537 6.778a.645.645 0 0 0-.418.265c-.237.362-.082 1.278.338 1.997.255.438.81.993 1.187 1.189.461.238 7.107 3.18 7.363 3.259.332.101 1.142.101 1.474 0 .256-.079 6.902-3.021 7.363-3.259.377-.196.932-.751 1.187-1.189.42-.719.575-1.635.338-1.997-.143-.219-.475-.328-.81-.265-.366.068-.509.26-.568.758a1.786 1.786 0 0 1-.579 1.15c-.25.233-.29.252-3.81 1.815L12.3 15.58h-.6L8.142 14c-3.52-1.563-3.56-1.582-3.81-1.815a1.794 1.794 0 0 1-.574-1.109c-.049-.397-.062-.445-.161-.57-.154-.197-.486-.291-.804-.229m0 5c-.43.085-.578.391-.51 1.053a3.089 3.089 0 0 0 1.659 2.421c.49.247 7.093 3.165 7.321 3.236.343.106 1.183.098 1.517-.013.379-.126 7.194-3.167 7.464-3.331a3.071 3.071 0 0 0 1.473-2.313c.054-.527-.019-.798-.259-.955-.235-.154-.716-.147-.933.015-.171.128-.237.288-.28.683-.027.238-.077.45-.14.588-.117.255-.406.578-.639.712-.091.053-1.741.796-3.666 1.652l-3.5 1.555h-.6l-3.5-1.555c-1.925-.856-3.575-1.599-3.666-1.652-.233-.134-.522-.457-.639-.712a2.08 2.08 0 0 1-.14-.587c-.042-.375-.073-.474-.19-.608-.142-.163-.482-.246-.772-.189" fill-rule="evenodd" fill="#000"/></svg>