<svg width="24" height="24" fill="none" xmlns="http://www.w3.org/2000/svg"><path d="M11.52 1.265c-2.341.116-4.483.921-6.298 2.37-1.539 1.227-2.816 3.073-3.441 4.973A10.203 10.203 0 0 0 1.24 12c0 1.231.16 2.237.541 3.392 1.187 3.608 4.227 6.32 7.983 7.124.959.205 2.426.276 3.396.164 4.275-.491 7.853-3.466 9.093-7.56.318-1.049.444-1.934.444-3.12 0-1.186-.126-2.071-.444-3.12-1.044-3.445-3.746-6.129-7.229-7.179-1.057-.318-2.426-.489-3.504-.436m1.562 1.552c1.764.22 3.31.878 4.748 2.02l.13.103-1.41 1.41c-.775.775-1.421 1.41-1.436 1.41a1.62 1.62 0 0 1-.24-.146c-.535-.364-1.353-.675-2.093-.795-1.193-.194-2.599.105-3.603.765l-.291.19c-.038.024-.46-.372-1.47-1.379C6.638 5.619 6 4.971 6 4.955c0-.097 1.035-.809 1.64-1.128 1.044-.551 2.323-.939 3.42-1.039.434-.039 1.607-.023 2.022.029M6.35 7.45c.775.775 1.41 1.421 1.41 1.436 0 .014-.066.122-.146.24-.672.987-.99 2.451-.795 3.655.12.74.431 1.558.795 2.093.08.118.146.226.146.24 0 .059-2.834 2.855-2.87 2.832-.083-.051-.609-.784-.851-1.186-1.844-3.06-1.746-6.91.253-9.92.228-.344.582-.8.621-.8.015 0 .661.634 1.437 1.41m12.888-1.18a9.552 9.552 0 0 1 1.684 3.397c.722 2.802.093 5.813-1.684 8.063-.098.124-.196.227-.218.228-.022.001-.668-.626-1.436-1.394l-1.396-1.396.187-.281c1.144-1.72 1.144-4.054 0-5.774l-.187-.281 1.396-1.396c.768-.768 1.414-1.395 1.436-1.394.022.001.12.104.218.228m-6.432 2.066c1.401.306 2.549 1.459 2.863 2.874.086.389.087 1.198.001 1.576a3.77 3.77 0 0 1-1.028 1.856c-.521.521-1.15.87-1.856 1.028-.381.086-1.191.086-1.572 0a3.823 3.823 0 0 1-2.883-2.88c-.087-.385-.087-1.193-.001-1.576a3.798 3.798 0 0 1 3.063-2.917c.362-.064 1.024-.046 1.413.039m-3.684 8.045c1.037.69 2.443.997 3.659.8.74-.12 1.558-.431 2.093-.795a1.62 1.62 0 0 1 .24-.146c.015 0 .661.635 1.436 1.41l1.41 1.41-.13.103c-1.473 1.17-3.089 1.842-4.902 2.039-.633.068-1.891.03-2.488-.076-1.51-.269-2.845-.843-4.029-1.732a4.018 4.018 0 0 1-.395-.321C5.995 19.039 8.78 16.2 8.834 16.2c.009 0 .138.082.288.181" fill-rule="evenodd" fill="#000"/></svg>