<svg width="24" height="24" fill="none" xmlns="http://www.w3.org/2000/svg"><path d="M13.02 1.91c-.648.038-1.407.385-1.808.826-.106.116-.542.731-.969 1.367L8.727 6.355 7.989 7.45l-.134-.288a2.164 2.164 0 0 0-.949-.96c-.513-.244-.888-.29-2.186-.272-1.038.015-1.167.024-1.44.106-.654.196-1.083.533-1.336 1.051-.304.624-.282.151-.296 6.153-.009 3.858.001 5.471.033 5.7.15 1.056.682 1.666 1.699 1.947.297.082.406.089 1.5.089 1.094 0 1.203-.007 1.5-.089.635-.175 1.037-.445 1.323-.887.097-.151.177-.295.177-.32 0-.026.017-.041.037-.033.02.007.569.427 1.22.933.652.506 1.287.979 1.414 1.05.295.168.862.35 1.269.409.222.032 1.051.041 2.72.031 2.677-.016 2.553-.004 3.209-.31.8-.374 1.455-.981 1.812-1.68.13-.255 2.696-8.083 2.758-8.415a3.094 3.094 0 0 0-.075-1.266c-.217-.693-.782-1.286-1.503-1.574-.518-.207-.761-.225-3.106-.225-2.102 0-2.157-.002-2.235-.08a.3.3 0 0 1-.08-.181c0-.056.119-.853.265-1.77.168-1.06.265-1.793.267-2.009.003-.572-.173-1.067-.572-1.608-.502-.683-1.394-1.094-2.26-1.042m.699 1.633c.215.118.418.332.54.573.138.27.122.497-.16 2.284-.319 2.027-.327 2.244-.1 2.704.175.355.463.643.82.819l.279.137 2.421.021c2.396.02 2.423.021 2.646.111.258.103.477.299.604.54.07.132.089.232.086.468-.002.283-.075.521-1.283 4.181-.705 2.135-1.327 3.971-1.383 4.08-.111.218-.494.618-.736.768a2.67 2.67 0 0 1-.77.327c-.137.029-.926.044-2.327.044-2.273 0-2.47-.014-2.941-.213-.126-.053-.804-.552-1.75-1.286l-1.545-1.2V9.935l2.041-3.036c1.122-1.67 2.09-3.088 2.15-3.151.334-.352.968-.444 1.408-.205M6.17 7.496a.656.656 0 0 1 .264.178c.192.273.186.081.186 5.786 0 5.771.009 5.525-.207 5.781-.184.219-.421.259-1.533.259-1.296 0-1.475-.052-1.668-.481-.068-.15-.073-.455-.083-5.415-.007-3.367.004-5.334.029-5.472.124-.669.289-.735 1.802-.718.862.009 1.049.022 1.21.082" fill-rule="evenodd" fill="#000"/></svg>