<svg width="24" height="24" fill="none" xmlns="http://www.w3.org/2000/svg"><path d="M5.353 1.321A3.758 3.758 0 0 0 2.547 3.56c-.301.73-.281.288-.297 6.58-.014 5.707-.004 6.179.133 6.712.162.633.673 1.439 1.172 1.85.796.654 1.529.896 2.725.898.727.002 1.069.054 1.431.22.314.144.463.273 1.569 1.362.954.939 1.16 1.116 1.507 1.292.694.352 1.825.334 2.49-.04.356-.199.484-.313 1.583-1.393.879-.865 1.083-1.046 1.32-1.168.154-.08.352-.167.44-.193.088-.027.574-.062 1.08-.079 1.079-.037 1.337-.089 1.96-.398a3.718 3.718 0 0 0 2.009-2.575c.066-.305.071-.733.071-6.188 0-5.529-.004-5.879-.073-6.2-.297-1.376-1.271-2.416-2.67-2.847l-.297-.092-6.58-.006c-3.619-.004-6.664.008-6.767.026m13.422 1.566c.698.271 1.225.849 1.405 1.541.092.35.09 11.68-.001 12.03-.183.702-.768 1.304-1.519 1.563-.154.053-.418.076-1.14.1-.774.026-.992.047-1.235.117-.889.257-1.199.475-2.519 1.777-.975.961-1.088 1.06-1.306 1.142-.313.118-.749.103-1.02-.036-.113-.058-.558-.465-1.2-1.098-1.086-1.07-1.348-1.285-1.883-1.541-.567-.271-.85-.325-1.897-.363-.506-.018-.992-.054-1.08-.08-.725-.213-1.374-.871-1.559-1.581-.091-.35-.093-11.68-.001-12.03a2.277 2.277 0 0 1 1.72-1.627c.088-.018 3.04-.03 6.56-.027l6.4.006.275.107M9.611 6.281c-1.264.133-2.375 1.079-2.733 2.326-.224.781-.111 2.005.279 3.016.487 1.262 1.694 2.61 3.089 3.447.777.467 1.274.657 1.734.663.379.005.578-.054 1.2-.355 1.309-.632 2.492-1.695 3.227-2.898.719-1.177 1.017-2.797.712-3.88-.282-1.004-1.151-1.898-2.137-2.198-.926-.281-2.108-.104-2.809.422-.159.119-.187.119-.346 0-.185-.139-.597-.337-.884-.426-.201-.062-.939-.172-1.023-.152-.011.003-.15.019-.309.035m1.129 1.632c.219.103.35.205.6.465.245.256.358.344.482.378.292.078.554-.049.889-.432a1.47 1.47 0 0 1 .514-.391c.27-.133.345-.151.67-.166.583-.025.969.128 1.373.543.381.392.535.935.457 1.619-.157 1.379-.94 2.593-2.305 3.572-.432.31-1.256.739-1.42.739-.163 0-.987-.429-1.42-.739-1.413-1.012-2.194-2.259-2.32-3.701-.066-.752.227-1.393.815-1.782.299-.197.541-.258.985-.246.357.009.43.024.68.141" fill-rule="evenodd" fill="#000"/></svg>