<svg width="24" height="24" fill="none" xmlns="http://www.w3.org/2000/svg"><path d="M5.353 1.321A3.758 3.758 0 0 0 2.547 3.56c-.301.73-.281.288-.297 6.58-.014 5.707-.004 6.179.133 6.712.162.633.673 1.439 1.172 1.85.796.654 1.529.896 2.725.898.727.002 1.069.054 1.431.22.314.144.463.273 1.569 1.362.954.939 1.16 1.116 1.507 1.292.694.352 1.825.334 2.49-.04.356-.199.484-.313 1.583-1.393.879-.865 1.083-1.046 1.32-1.168.154-.08.352-.167.44-.193.088-.027.574-.062 1.08-.079 1.079-.037 1.337-.089 1.96-.398a3.718 3.718 0 0 0 2.009-2.575c.066-.305.071-.733.071-6.188 0-5.529-.004-5.879-.073-6.2-.297-1.376-1.271-2.416-2.67-2.847l-.297-.092-6.58-.006c-3.619-.004-6.664.008-6.767.026m13.422 1.566c.698.271 1.225.849 1.405 1.541.092.35.09 11.68-.001 12.03-.183.702-.768 1.304-1.519 1.563-.154.053-.418.076-1.14.1-.774.026-.992.047-1.235.117-.889.257-1.199.475-2.519 1.777-.975.961-1.088 1.06-1.306 1.142-.313.118-.749.103-1.02-.036-.113-.058-.558-.465-1.2-1.098-1.086-1.07-1.348-1.285-1.883-1.541-.567-.271-.85-.325-1.897-.363-.506-.018-.992-.054-1.08-.08-.725-.213-1.374-.871-1.559-1.581-.091-.35-.093-11.68-.001-12.03a2.277 2.277 0 0 1 1.72-1.627c.088-.018 3.04-.03 6.56-.027l6.4.006.275.107m-6.739 2.129a1.684 1.684 0 0 0-.768.514c-.076.094-.403.57-.728 1.058l-.591.889-.164-.135c-.248-.203-.541-.301-1.049-.351-.546-.053-1.207.003-1.542.131-.511.195-.834.646-.915 1.278-.029.226-.039 1.263-.03 3.08.013 2.707.014 2.743.102 3.004.155.462.473.78.943.944.173.06.339.072 1.026.071.763 0 .836-.006 1.05-.092.127-.051.318-.162.424-.246l.195-.154.476.371c.894.696.985.72 2.735.721 1.362.001 1.515-.014 1.919-.19.26-.113.645-.396.842-.618a2.37 2.37 0 0 0 .302-.471c.073-.154.434-1.198.802-2.32l.671-2.04v-.38c0-.289-.02-.429-.082-.584a1.74 1.74 0 0 0-.964-.982c-.217-.087-.298-.094-1.39-.113l-1.16-.021.012-.12c.007-.066.056-.401.11-.745.113-.718.122-1.053.037-1.332a1.77 1.77 0 0 0-2.263-1.167m.746 1.482c.054.054.098.122.098.15-.001.029-.063.448-.14.932-.076.484-.139.953-.139 1.043-.002.404.26.865.605 1.066.285.166.515.191 1.739.191.662 0 1.171.016 1.213.039.04.021.084.068.098.104.013.036-.276.981-.655 2.132-.614 1.868-.692 2.079-.81 2.192-.267.253-.269.253-1.579.251-.821-.002-1.231-.017-1.318-.05-.07-.027-.442-.291-.828-.588l-.702-.54-.002-1.943-.002-1.944 1.004-1.496c.552-.823 1.04-1.528 1.085-1.567.11-.097.217-.088.333.028M8.83 11.25l-.01 2.77H7.78l-.01-2.77-.011-2.77h1.082l-.011 2.77" fill-rule="evenodd" fill="#000"/></svg>