<svg width="24" height="24" fill="none" xmlns="http://www.w3.org/2000/svg"><path d="M13.472 1.339c-.68.187-1.344.72-1.595 1.281-.156.348-1.561 4.696-1.596 4.94-.108.743.273 1.493.927 1.824.386.195.561.216 1.84.216h1.192v.098c0 .054-.044.374-.099.71-.17 1.054-.18 1.157-.141 1.431.069.492.426 1.056.829 1.313.691.44 1.654.363 2.256-.181.089-.081.506-.657.927-1.28.72-1.065.769-1.129.827-1.057.117.146.416.327.678.411.327.104 1.308.149 1.752.08.745-.117 1.176-.464 1.395-1.125.068-.203.074-.447.087-3.238.008-1.84-.002-3.144-.026-3.342-.062-.499-.176-.758-.461-1.044-.404-.403-.859-.52-1.884-.485-.456.015-.663.04-.863.104-.268.085-.552.26-.697.429l-.08.093-.56-.439c-1.002-.784-1.061-.799-3.073-.794-1.052.002-1.498.017-1.635.055m3.08 1.463c.13.03.377.198 1.01.688l.838.649V8.436l-1.138 1.695c-.625.933-1.164 1.717-1.196 1.744a.525.525 0 0 1-.201.072c-.12.019-.159.005-.263-.099-.083-.082-.122-.161-.122-.244 0-.067.064-.523.142-1.013.179-1.119.184-1.378.036-1.691A1.383 1.383 0 0 0 15 8.244l-.22-.104-1.426-.02c-1.33-.019-1.431-.025-1.51-.096a.283.283 0 0 1-.084-.198c0-.151 1.418-4.478 1.523-4.65.087-.141.331-.324.502-.375.161-.048 2.558-.048 2.767.001m4.641.614c.035.021.047.811.047 3.108 0 2.894-.004 3.08-.07 3.107-.13.054-1.161.034-1.218-.023-.042-.041-.054-.644-.063-2.991-.006-1.616.004-2.996.023-3.068.025-.098.062-.136.151-.157.146-.034 1.067-.015 1.13.024M7.64 10.635c-.309.1-.537.224-.726.395-.09.081-.507.657-.928 1.28-.717 1.063-.768 1.127-.825 1.056-.117-.146-.416-.327-.678-.411-.327-.104-1.308-.149-1.752-.08-.745.117-1.176.464-1.395 1.125-.068.203-.074.447-.087 3.238-.008 1.84.002 3.144.026 3.342.062.499.176.758.461 1.044.404.403.859.52 1.884.485.456-.015.663-.04.863-.104.268-.085.552-.26.697-.429l.08-.093.56.439c.998.782 1.062.798 3.053.798 1.561-.001 1.648-.011 2.113-.24.512-.252.943-.67 1.137-1.1.152-.34 1.565-4.716 1.599-4.951.103-.734-.281-1.484-.93-1.813-.386-.195-.561-.216-1.84-.216H9.76v-.098c0-.054.044-.374.099-.71.17-1.054.18-1.157.141-1.431-.069-.492-.426-1.056-.829-1.313-.441-.281-1.055-.366-1.531-.213m.763 1.522c.078.078.117.157.117.239 0 .067-.064.523-.142 1.013-.179 1.119-.184 1.378-.036 1.691.135.286.37.52.658.656l.22.104 1.426.02c1.33.019 1.431.025 1.51.096.05.046.084.125.084.197 0 .15-1.418 4.48-1.523 4.652-.086.138-.306.297-.513.368-.171.059-2.505.063-2.756.005-.13-.03-.377-.198-1.01-.688l-.838-.649.003-2.16.003-2.161 1.147-1.699c.715-1.059 1.185-1.719 1.247-1.75.159-.079.277-.06.403.066M4.05 14.394c.075.075.073 6.099-.002 6.174-.057.057-1.088.077-1.218.023-.067-.027-.07-.204-.06-3.12l.01-3.091.14-.027c.235-.045 1.074-.015 1.13.041" fill-rule="evenodd" fill="#000"/></svg>