<svg width="24" height="24" fill="none" xmlns="http://www.w3.org/2000/svg"><path d="M11.46 1.305a3.306 3.306 0 0 0-.828.32c-.125.076-.642.494-1.149.929-1.186 1.018-1.021.956-2.583.979-.904.014-1.213.032-1.4.083-.824.223-1.561.904-1.852 1.712-.103.285-.106.322-.129 1.532-.022 1.173-.028 1.253-.116 1.475-.09.229-.141.294-1.36 1.74-.361.428-.536.713-.647 1.052-.085.259-.096.364-.095.913.002.569.01.642.105.89.165.428.315.64 1.133 1.603.587.691.791.96.862 1.136.088.218.095.299.119 1.471.023 1.119.034 1.265.112 1.5.129.39.355.747.671 1.06a2.57 2.57 0 0 0 1.024.651c.287.104.32.106 1.553.129 1.106.02 1.282.032 1.44.097.238.099.318.161 1.209.929.417.361.838.71.936.777.495.341 1.1.504 1.715.462.832-.056 1.1-.2 2.319-1.246.733-.629 1.004-.838 1.177-.907.209-.082.307-.09 1.444-.112l1.22-.023.342-.121a2.688 2.688 0 0 0 1.654-1.654l.121-.342.025-1.22c.015-.728.043-1.274.07-1.354.081-.241.199-.4.923-1.239.393-.456.789-.944.88-1.085.421-.651.517-1.633.234-2.402-.13-.354-.371-.689-1.127-1.56-.503-.581-.747-.896-.836-1.08l-.126-.26-.023-1.24c-.02-1.104-.032-1.267-.105-1.487a2.854 2.854 0 0 0-1.083-1.427c-.592-.392-.796-.433-2.269-.462-1.194-.024-1.201-.025-1.42-.13-.138-.067-.549-.391-1.099-.867-.954-.826-1.143-.959-1.588-1.117-.252-.09-.369-.106-.833-.115a5.792 5.792 0 0 0-.62.01m1.086 1.567c.092.047.561.425 1.044.84.938.807 1.188.981 1.634 1.141.419.149.794.187 1.852.187 1.082 0 1.202.023 1.5.284.1.089.229.26.292.387l.112.229.021 1.22c.021 1.206.023 1.224.133 1.54.188.538.325.741 1.153 1.706.44.512.823.977.853 1.033.155.301.148.836-.015 1.147-.045.085-.408.532-.808.994-.778.898-.933 1.109-1.089 1.482-.191.457-.198.513-.224 1.798-.023 1.189-.028 1.248-.117 1.428a1.43 1.43 0 0 1-.599.599c-.18.089-.239.094-1.408.117-1.349.026-1.461.043-1.972.299-.372.187-.355.174-1.328 1.017-.954.825-1.127.931-1.536.933-.477.003-.566-.049-1.621-.952-.994-.85-1.236-1.013-1.763-1.184-.258-.084-.375-.093-1.52-.115-1.056-.021-1.263-.035-1.397-.094a1.348 1.348 0 0 1-.604-.553l-.119-.215-.023-1.24c-.022-1.208-.025-1.248-.13-1.56-.173-.519-.38-.83-1.166-1.753-.408-.481-.783-.949-.831-1.04-.129-.243-.129-.81 0-1.067.05-.099.433-.583.851-1.076.418-.494.813-.989.877-1.101.065-.113.176-.375.248-.584l.131-.379.022-1.22c.024-1.37.025-1.375.326-1.701.327-.354.325-.354 1.735-.384 1.337-.028 1.471-.047 1.999-.29.323-.147.497-.278 1.332-.999.938-.809 1.006-.86 1.218-.93.247-.08.727-.052.937.056m-.43 3.906a1.902 1.902 0 0 0-.75.426c-.08.081-.389.509-.686.951-.297.441-.555.803-.574.804a.51.51 0 0 1-.151-.082c-.328-.234-1.194-.345-1.875-.241-.591.09-1.014.398-1.209.878l-.091.226v5.6l.125.264c.145.307.342.518.606.651.318.16.571.195 1.29.177.731-.019.948-.073 1.246-.313l.153-.123.37.295c.795.633.932.669 2.521.669 1.282 0 1.454-.023 1.886-.253a2.39 2.39 0 0 0 .803-.727c.154-.242.196-.361.882-2.46.373-1.144.549-1.741.565-1.92.076-.858-.543-1.61-1.417-1.723a12.726 12.726 0 0 0-1.045-.036l-.776-.001.021-.15.11-.746c.076-.514.082-.628.04-.838a1.695 1.695 0 0 0-.732-1.11 1.608 1.608 0 0 0-1.312-.218m.516 1.47c.07.07.061.189-.074 1.064-.082.522-.114.849-.097.968.059.413.315.763.693.949l.226.111 1.148.014c.847.01 1.159.026 1.189.063.058.069-1.122 3.68-1.247 3.816-.207.225-.323.245-1.39.244-.656-.001-1.024-.017-1.112-.049-.073-.027-.41-.263-.75-.525l-.618-.476v-3.486l.886-1.321c.487-.726.913-1.343.947-1.37.078-.063.138-.063.199-.002M9.07 10.113c.04.025.048.538.04 2.43L9.1 14.94l-.43.011-.43.012v-2.418c0-1.897.011-2.423.05-2.439.082-.033.726-.027.78.007" fill-rule="evenodd" fill="#000"/></svg>