<svg width="24" height="24" fill="none" xmlns="http://www.w3.org/2000/svg"><path d="M11.32 1.281c-4.279.244-8.068 3.128-9.477 7.216a10.886 10.886 0 0 0-.279 6.053 10.76 10.76 0 0 0 7.886 7.886 10.96 10.96 0 0 0 5.1 0 10.76 10.76 0 0 0 7.886-7.886 10.96 10.96 0 0 0 0-5.1 10.758 10.758 0 0 0-8.694-8.052c-.408-.067-1.668-.169-1.862-.151l-.56.034m1.826 1.541a9.086 9.086 0 0 1 2.914.874c2.817 1.383 4.708 4.026 5.118 7.158.123.932.066 2.172-.144 3.144-.289 1.345-1.031 2.857-1.913 3.902a9.31 9.31 0 0 1-3.061 2.404 8.94 8.94 0 0 1-4.06.936 8.93 8.93 0 0 1-4.06-.936c-2.817-1.383-4.708-4.026-5.118-7.158-.123-.932-.066-2.172.144-3.144.211-.982.737-2.227 1.302-3.082a9.335 9.335 0 0 1 6.552-4.097c.56-.077 1.749-.077 2.326-.001M10.88 6.345a4.417 4.417 0 0 0-1.04.331c-.283.141-2.259 1.348-2.78 1.697-1.225.82-1.907 2.272-1.741 3.707.064.55.138.805.38 1.3.337.688.779 1.181 1.381 1.541.311.186.756.359.922.359.357 0 .63-.302.697-.768a.496.496 0 0 0-.067-.352c-.083-.163-.13-.198-.491-.374-.873-.426-1.361-1.193-1.352-2.126a2.414 2.414 0 0 1 .708-1.717c.235-.231.525-.429 1.569-1.072.705-.435 1.369-.829 1.477-.877.475-.21.854-.243 1.347-.117.426.109.69.255.974.54.431.431.668 1.018.663 1.641-.003.438-.077.738-.285 1.163-.181.371-.481.681-1.055 1.09-.509.363-.597.593-.385 1.012.101.199.366.427.533.459.204.038.396-.04.825-.335.503-.345 1.046-.899 1.293-1.32.826-1.405.747-3.112-.205-4.391a3.594 3.594 0 0 0-1.948-1.3c-.312-.084-1.168-.138-1.42-.091m4.921 2.38c-.253.101-.44.441-.441.804 0 .307.114.433.617.684.604.302.98.746 1.206 1.427.097.291.098.921.001 1.277a2.503 2.503 0 0 1-.981 1.4c-.391.264-2.415 1.509-2.626 1.615a2.078 2.078 0 0 1-2.81-.978c-.189-.395-.247-.648-.246-1.066.001-.866.394-1.573 1.172-2.112.575-.399.704-.575.649-.889-.04-.225-.281-.549-.478-.645-.297-.144-.427-.104-1.017.305-.881.61-1.431 1.367-1.694 2.333-.081.297-.093.428-.091 1.04.002.643.011.729.11 1.051.421 1.369 1.433 2.318 2.767 2.593a3.662 3.662 0 0 0 2.129-.213c.33-.143 2.684-1.582 3.142-1.92 1.083-.798 1.7-2.29 1.511-3.652-.192-1.384-1.045-2.515-2.244-2.978-.324-.125-.504-.145-.676-.076" fill-rule="evenodd" fill="#000"/></svg>