<svg width="24" height="24" fill="none" xmlns="http://www.w3.org/2000/svg"><path d="M8.08 1.282c-4.072.213-6.185 2.014-6.697 5.709-.113.812-.141 1.825-.141 5.009 0 4.504.06 5.273.518 6.65.772 2.313 2.446 3.576 5.267 3.972.759.106 1.875.137 4.973.137s4.214-.031 4.973-.137c2.47-.347 4.023-1.334 4.924-3.132.482-.96.741-2.121.823-3.683.051-.969.051-6.645 0-7.614-.063-1.195-.199-2.002-.478-2.837-.61-1.825-1.773-2.989-3.592-3.596-.862-.287-1.627-.416-2.844-.48-.854-.045-6.854-.043-7.726.002m8.72 1.572c2.786.462 3.914 1.6 4.348 4.386.066.421.072.824.072 4.76s-.006 4.339-.072 4.76c-.436 2.798-1.59 3.952-4.388 4.388-.421.066-.824.072-4.76.072s-4.339-.006-4.76-.072c-2.79-.435-3.957-1.597-4.386-4.368-.069-.445-.074-.791-.074-4.78 0-4.753-.004-4.663.264-5.712C3.557 4.282 4.722 3.274 6.96 2.9c.73-.123 1.088-.131 5.24-.123 3.763.007 4.222.014 4.6.077M10.011 5.9a4.436 4.436 0 0 0-1.811.8c-.311.239-2.701 2.741-2.983 3.122-1.135 1.535-1.141 3.709-.015 5.258.275.378.843.9 1.233 1.135.575.347 1.555.609 1.976.53.324-.062.509-.35.509-.794 0-.407-.206-.592-.771-.691-.665-.116-1.063-.331-1.535-.83-.468-.494-.714-1.08-.758-1.81a2.964 2.964 0 0 1 .43-1.725c.148-.247 2.617-2.864 2.888-3.061.471-.344.934-.489 1.546-.485.336.002.484.023.74.106a2.723 2.723 0 0 1 1.578 1.379c.393.783.393 1.867 0 2.652-.164.327-.286.477-1.024 1.258-.334.354-.645.705-.691.78-.184.302-.053.716.302.951.457.303.591.238 1.505-.73.387-.411.785-.86.884-.999a4.773 4.773 0 0 0 .75-1.788c.065-.333.065-1.263 0-1.596-.253-1.293-.961-2.321-2.037-2.96-.774-.461-1.836-.657-2.716-.502m5.449 1.396c-.255.114-.38.358-.38.744 0 .417.202.6.771.7.665.116 1.063.331 1.535.83.468.494.714 1.08.758 1.81a2.962 2.962 0 0 1-.43 1.725c-.148.246-2.619 2.865-2.888 3.061-.467.341-.936.488-1.546.484-.337-.001-.483-.022-.74-.105a2.723 2.723 0 0 1-1.578-1.379c-.393-.783-.393-1.867 0-2.652.164-.327.286-.477 1.024-1.258.334-.354.645-.705.691-.78.188-.309.037-.759-.327-.972-.456-.267-.576-.207-1.48.751-.771.817-.983 1.089-1.223 1.568-.292.582-.487 1.39-.487 2.017 0 1.249.576 2.526 1.492 3.313a4.06 4.06 0 0 0 5.148.147c.309-.238 2.7-2.74 2.98-3.118a4.594 4.594 0 0 0 .765-1.682c.105-.45.105-1.47 0-1.92a4.56 4.56 0 0 0-.762-1.677c-.29-.391-.827-.885-1.216-1.118-.683-.41-1.736-.653-2.107-.489" fill-rule="evenodd" fill="#000"/></svg>