<svg width="24" height="24" fill="none" xmlns="http://www.w3.org/2000/svg"><path d="M7.2 2.264c-2.726.162-4.985 1.976-5.719 4.593-.307 1.093-.282 2.404.067 3.523.297.949 1.06 2.162 1.477 2.346.217.096.385.071.637-.096.262-.173.378-.361.378-.614 0-.221.002-.216-.419-.796a4.995 4.995 0 0 1-.656-1.302c-.17-.568-.185-.688-.182-1.438.002-.664.013-.779.105-1.12.502-1.855 1.977-3.222 3.819-3.54.318-.055.781-.062 3.46-.051l3.093.013.38.105a4.802 4.802 0 0 1 2.202 1.271 4.785 4.785 0 0 1 1.27 2.202c.094.346.103.448.103 1.14s-.009.794-.103 1.14c-.412 1.521-1.492 2.743-2.902 3.287-.718.276-.776.283-2.71.309-1.664.023-1.767.028-1.896.104-.273.161-.396.478-.327.845a.646.646 0 0 0 .327.475c.13.077.208.08 1.776.08 1.741-.001 1.989-.02 2.685-.203a6.253 6.253 0 0 0 4.599-5.066c.079-.478.08-1.459.002-1.931a6.286 6.286 0 0 0-4.522-5.059c-.742-.208-.806-.212-3.864-.221a199.262 199.262 0 0 0-3.08.004m4 7.001c-2.975.172-5.384 2.334-5.864 5.264-.08.483-.08 1.459 0 1.942a6.284 6.284 0 0 0 2.075 3.731 6.359 6.359 0 0 0 3.229 1.484c.491.078 6.229.078 6.72 0 2.515-.395 4.481-2.127 5.159-4.543.306-1.089.281-2.408-.067-3.523-.297-.949-1.06-2.162-1.477-2.346-.217-.096-.385-.071-.637.096-.262.173-.378.361-.378.614 0 .221-.002.216.419.796.26.357.539.912.656 1.302.17.568.185.688.182 1.438-.002.664-.013.779-.105 1.12-.502 1.855-1.977 3.222-3.819 3.54-.318.055-.781.062-3.46.051l-3.093-.013-.38-.105a4.802 4.802 0 0 1-2.202-1.271 4.785 4.785 0 0 1-1.27-2.202c-.094-.346-.103-.448-.103-1.14s.009-.794.103-1.14c.412-1.521 1.492-2.743 2.902-3.287.718-.276.776-.283 2.71-.309 1.664-.023 1.767-.028 1.896-.104.273-.161.396-.478.327-.845a.646.646 0 0 0-.327-.475c-.129-.076-.212-.08-1.556-.084a64.566 64.566 0 0 0-1.64.009" fill-rule="evenodd" fill="#000"/></svg>