<svg width="24" height="24" fill="none" xmlns="http://www.w3.org/2000/svg"><path d="M15.48 5.283c-3.316.241-5.961 2.91-6.198 6.254-.048.68.01.924.26 1.088.235.154.716.147.933-.015.199-.149.246-.287.284-.837.019-.282.064-.657.101-.833.324-1.567 1.382-2.926 2.84-3.65.768-.382 1.345-.51 2.3-.51.526 0 .785.018 1.04.073a5.259 5.259 0 0 1 2.661 1.446 5.271 5.271 0 0 1 1.446 2.662c.103.477.103 1.601 0 2.078a5.329 5.329 0 0 1-2.827 3.662c-.646.323-1.272.485-2.093.54-.55.038-.688.085-.837.284-.162.217-.169.698-.015.933.164.25.408.308 1.088.26a6.723 6.723 0 0 0 6.254-7.191 6.645 6.645 0 0 0-1.955-4.289 6.7 6.7 0 0 0-5.282-1.955m-8.7.297a6.557 6.557 0 0 0-3.595 1.81C1.934 8.624 1.274 10.215 1.274 12c0 1.785.66 3.376 1.911 4.61a6.4 6.4 0 0 0 4.565 1.869c3.277.004 5.999-2.381 6.432-5.638.161-1.204-.002-1.576-.685-1.572-.553.003-.707.195-.752.934a5.072 5.072 0 0 1-.267 1.406c-.549 1.651-1.972 2.911-3.718 3.29-.466.102-1.302.122-1.78.043a5.04 5.04 0 0 1-3.914-3.19c-.226-.6-.284-.959-.284-1.752s.058-1.152.284-1.752a5.043 5.043 0 0 1 3.021-2.962c.484-.169.89-.247 1.486-.283.551-.034.629-.063.805-.298.068-.093.082-.17.082-.465 0-.401-.057-.525-.303-.65-.167-.085-.874-.09-1.377-.01" fill-rule="evenodd" fill="#000"/></svg>