<svg width="24" height="24" fill="none" xmlns="http://www.w3.org/2000/svg"><path d="M14.52 2.428a6.726 6.726 0 0 0-5.561 3.44 6.713 6.713 0 0 0-.839 3.808 6.64 6.64 0 0 0 .945 2.975c.446.744 1.117 1.479 1.398 1.532.416.078.897-.346.897-.791 0-.208-.066-.321-.417-.71a5.308 5.308 0 0 1-1.281-2.617c-.071-.408-.081-1.28-.02-1.665.26-1.62 1.178-2.969 2.578-3.79.725-.425 1.507-.646 2.401-.679 1.196-.043 2.178.236 3.177.903.554.37 1.226 1.078 1.542 1.626.487.843.692 1.554.727 2.52.024.699-.035 1.155-.232 1.769-.25.784-.6 1.377-1.202 2.042-.285.314-.383.549-.32.762.059.195.294.469.49.568.318.163.57.07.957-.349a6.777 6.777 0 0 0 1.74-3.592c.077-.477.087-1.462.019-1.943a6.782 6.782 0 0 0-3.839-5.186 7.086 7.086 0 0 0-3.16-.623m-9.872 7.799c-.243.12-.875.865-1.215 1.433-.624 1.042-.912 2.095-.912 3.34 0 1.752.615 3.269 1.837 4.535.842.872 1.881 1.466 3.122 1.787.625.162 1.76.207 2.47.099a6.538 6.538 0 0 0 4.767-3.347c.848-1.574 1.001-3.54.406-5.209-.308-.862-.69-1.5-1.34-2.239-.424-.481-.715-.575-1.076-.347-.242.154-.427.439-.427.659 0 .2.084.341.447.752 1.2 1.362 1.578 3.197 1.009 4.903a5.115 5.115 0 0 1-2.196 2.711 5.034 5.034 0 0 1-4.14.432c-.747-.249-1.274-.574-1.869-1.151A4.919 4.919 0 0 1 4 15c0-1.269.446-2.403 1.337-3.398.166-.186.322-.399.347-.474.095-.289-.063-.627-.396-.848a.615.615 0 0 0-.64-.053" fill-rule="evenodd" fill="#000"/></svg>