<svg width="24" height="24" fill="none" xmlns="http://www.w3.org/2000/svg"><path d="M11.58 1.267c-2.496.107-4.791 1.105-6.41 2.788C3.763 5.518 2.955 7.31 2.695 9.546c-.077.662-.056 1.957.042 2.606.383 2.544 1.624 5.015 3.76 7.488.587.679 1.533 1.606 1.962 1.923A6.29 6.29 0 0 0 10.8 22.62c.452.101 1.6.126 2.103.047 1.374-.219 2.423-.789 3.577-1.946 2.498-2.504 4.094-5.203 4.656-7.872a9.743 9.743 0 0 0 .211-2.449 12.93 12.93 0 0 0-.086-1.24 13.592 13.592 0 0 0-.468-1.914c-.994-2.822-3.299-4.903-6.273-5.665a10.56 10.56 0 0 0-2.94-.314m1.8 1.589c1.812.332 3.231 1.06 4.382 2.249 1.208 1.247 1.884 2.808 2.076 4.792.235 2.429-.672 5.138-2.56 7.643-.806 1.07-2.02 2.364-2.695 2.873a5.349 5.349 0 0 1-.643.371 4.45 4.45 0 0 1-4.534-.37c-.322-.227-1.313-1.215-1.88-1.874-1.784-2.073-2.912-4.266-3.261-6.34-.154-.914-.178-1.588-.086-2.44C4.429 7.45 5.344 5.714 7 4.411c1.068-.841 2.465-1.405 3.98-1.608.437-.059 1.976-.024 2.4.053m1.14 5.405c-.085.038-.848.769-1.949 1.869l-1.809 1.806-.551-.542c-.303-.298-.612-.574-.688-.612-.192-.1-.476-.067-.664.076-.39.298-.494.694-.264 1.006.063.086.5.537.97 1.002.736.728.88.852 1.031.893.362.097.332.122 2.616-2.154 1.14-1.136 2.125-2.145 2.19-2.242a.578.578 0 0 0 .118-.362c0-.48-.595-.919-1-.74" fill-rule="evenodd" fill="#000"/></svg>