<svg width="24" height="24" fill="none" xmlns="http://www.w3.org/2000/svg"><path d="M21.8 1.246c-.106.031-.476.375-1.529 1.425l-1.388 1.384-.091-.078c-.05-.042-.234-.209-.408-.369A8.717 8.717 0 0 0 16.3 2.219a10.06 10.06 0 0 0-8.252-.153C5.487 3.17 3.662 5.336 2.964 8.1c-.23.909-.302 1.525-.302 2.58 0 1.089.067 1.628.34 2.722.33 1.324 1.028 2.84 1.938 4.21l.154.232-1.904 1.908c-1.679 1.683-1.909 1.928-1.948 2.078-.067.254.002.458.236.692.234.234.437.303.692.237.154-.04 1.143-1.017 10.302-10.172 5.572-5.57 10.17-10.189 10.217-10.264a.625.625 0 0 0-.032-.692c-.229-.325-.558-.473-.857-.385m-8.672 1.577c.887.109 1.694.354 2.572.779.767.371 1.142.628 1.823 1.25l.295.269-1.392 1.393-1.392 1.392-.267-.277a3.949 3.949 0 0 0-2.027-1.111c-.435-.085-1.212-.069-1.62.032-.916.228-1.738.777-2.264 1.51-.622.868-.853 2.05-.614 3.14.142.643.557 1.374 1.059 1.864l.291.284-1.71 1.71-1.71 1.709-.207-.323c-1.808-2.818-2.289-5.803-1.381-8.562 1.151-3.499 4.607-5.545 8.544-5.059m6.935 4.996a.883.883 0 0 0-.276.176c-.164.163-.182.419-.072 1.032.208 1.16.213 2.028.02 3.173-.331 1.965-1.382 4.08-2.994 6.02-.697.84-1.658 1.816-2.158 2.193-.317.239-1.04.578-1.483.695-.36.096-.47.106-1.1.106-.628 0-.74-.01-1.085-.103a4.495 4.495 0 0 1-1.821-.951c-.373-.318-.519-.4-.718-.4-.317 0-.719.379-.765.721-.03.219.099.457.378.702A6.243 6.243 0 0 0 10.8 22.62c.452.101 1.6.126 2.103.047 1.374-.219 2.423-.789 3.577-1.946 2.248-2.254 3.766-4.664 4.46-7.081a10.67 10.67 0 0 0 .259-4.82c-.112-.633-.15-.74-.319-.909-.143-.144-.163-.151-.405-.149a1.59 1.59 0 0 0-.412.057m-7.448.205c.13.031.346.115.48.187.231.122.749.568.825.709.028.052-.298.398-1.618 1.718l-1.653 1.653-.296-.296c-.489-.486-.711-1.02-.712-1.709a2.205 2.205 0 0 1 .51-1.452c.639-.763 1.498-1.045 2.464-.81" fill-rule="evenodd" fill="#000"/></svg>