<svg width="24" height="24" fill="none" xmlns="http://www.w3.org/2000/svg"><path d="M11.58 1.267c-2.496.107-4.791 1.105-6.41 2.788C3.763 5.518 2.955 7.31 2.695 9.546c-.077.662-.056 1.957.042 2.606.383 2.544 1.624 5.015 3.76 7.488.587.679 1.533 1.606 1.962 1.923A6.29 6.29 0 0 0 10.8 22.62c.452.101 1.6.126 2.103.047 1.374-.219 2.423-.789 3.577-1.946 2.498-2.504 4.094-5.203 4.656-7.872a9.743 9.743 0 0 0 .211-2.449 12.93 12.93 0 0 0-.086-1.24 13.592 13.592 0 0 0-.468-1.914c-.994-2.822-3.299-4.903-6.273-5.665a10.56 10.56 0 0 0-2.94-.314m1.8 1.589c1.812.332 3.231 1.06 4.382 2.249 1.208 1.247 1.884 2.808 2.076 4.792.235 2.429-.672 5.138-2.56 7.643-.806 1.07-2.02 2.364-2.695 2.873a5.349 5.349 0 0 1-.643.371 4.45 4.45 0 0 1-4.534-.37c-.322-.227-1.313-1.215-1.88-1.874-1.784-2.073-2.912-4.266-3.261-6.34-.154-.914-.178-1.588-.086-2.44C4.429 7.45 5.344 5.714 7 4.411c1.068-.841 2.465-1.405 3.98-1.608.437-.059 1.976-.024 2.4.053m-1.777 4.732a.612.612 0 0 0-.326.458c-.018.096-.034.627-.035 1.181l-.002 1.006-1.13.014c-1.044.012-1.14.019-1.266.093-.251.148-.304.262-.304.66s.053.512.304.66c.126.074.222.081 1.263.093l1.127.013.013 1.127c.012 1.041.019 1.137.093 1.263.148.251.262.304.66.304s.512-.053.66-.304c.074-.126.081-.222.093-1.263l.013-1.127 1.127-.013c1.041-.012 1.137-.019 1.263-.093.251-.148.304-.262.304-.66s-.053-.512-.304-.66c-.126-.074-.222-.081-1.263-.093l-1.127-.013-.013-1.127c-.012-1.041-.019-1.137-.093-1.263-.139-.236-.268-.302-.613-.316-.236-.009-.339.005-.444.06" fill-rule="evenodd" fill="#000"/></svg>