<svg width="24" height="24" fill="none" xmlns="http://www.w3.org/2000/svg"><path d="M11.169 1.281c-3.049.198-4.877 1.492-5.585 3.952-.22.764-.295 1.442-.33 2.968l-.026 1.14-.444.073c-.971.158-1.76.523-2.303 1.067-.672.671-1.013 1.559-1.168 3.039-.072.69-.072 4.269 0 4.96.154 1.473.499 2.371 1.168 3.039.668.669 1.563 1.012 3.039 1.168.391.041 1.808.053 6.48.053 4.672 0 6.089-.012 6.48-.053 1.476-.156 2.371-.499 3.039-1.168.669-.668 1.014-1.566 1.168-3.039.072-.69.072-4.27 0-4.96-.154-1.473-.499-2.371-1.168-3.039-.543-.544-1.332-.909-2.303-1.067l-.444-.073-.026-1.14c-.036-1.533-.111-2.205-.33-2.968-.526-1.826-1.618-2.964-3.411-3.553-1.037-.34-2.456-.488-3.836-.399m2.472 1.592c2.021.363 3.048 1.316 3.433 3.187.126.616.166 1.142.166 2.204v.976H6.76v-.976c0-1.427.097-2.178.383-2.982.488-1.366 1.566-2.156 3.298-2.417.648-.098.638-.097 1.719-.086.821.009 1.11.027 1.481.094m5.279 7.994c1.231.241 1.73.618 2.041 1.544.241.715.259.968.259 3.589 0 2.121-.008 2.427-.073 2.815-.136.804-.342 1.297-.689 1.643-.346.347-.839.553-1.643.689-.409.069-.817.073-6.815.073-6.023 0-6.405-.004-6.82-.074-.783-.132-1.385-.387-1.679-.711-.308-.339-.522-.875-.647-1.615-.066-.394-.074-.689-.074-2.82 0-2.621.018-2.874.259-3.589.214-.639.498-.981 1.02-1.231.426-.204.756-.28 1.721-.395.066-.008 2.955-.011 6.42-.007 6.176.007 6.308.009 6.72.089m-7.515 1.938c-.615.102-1.189.412-1.689.911-.651.652-.955 1.379-.955 2.284 0 .905.304 1.632.955 2.284.652.651 1.379.955 2.284.955.905 0 1.632-.304 2.284-.955.651-.652.955-1.379.955-2.284 0-.905-.304-1.632-.955-2.284-.665-.664-1.395-.963-2.324-.951-.187.002-.437.02-.555.04m.888 1.474c.341.056.638.208.909.466a1.717 1.717 0 0 1 0 2.51 1.709 1.709 0 0 1-2.404 0 1.713 1.713 0 0 1-.053-2.457 1.677 1.677 0 0 1 1.548-.519" fill-rule="evenodd" fill="#000"/></svg>