<svg width="24" height="24" fill="none" xmlns="http://www.w3.org/2000/svg"><path d="M11.32 1.281c-4.279.244-8.068 3.128-9.477 7.216a10.886 10.886 0 0 0-.279 6.053 10.76 10.76 0 0 0 7.886 7.886 10.96 10.96 0 0 0 5.1 0 10.76 10.76 0 0 0 7.886-7.886 10.96 10.96 0 0 0 0-5.1 10.758 10.758 0 0 0-8.694-8.052c-.408-.067-1.668-.169-1.862-.151l-.56.034m1.826 1.541a9.086 9.086 0 0 1 2.914.874c2.817 1.383 4.708 4.026 5.118 7.158.123.932.066 2.172-.144 3.144-.289 1.345-1.031 2.857-1.913 3.902a9.31 9.31 0 0 1-3.061 2.404 8.94 8.94 0 0 1-4.06.936 8.93 8.93 0 0 1-4.06-.936c-2.817-1.383-4.708-4.026-5.118-7.158-.123-.932-.066-2.172.144-3.144.211-.982.737-2.227 1.302-3.082a9.335 9.335 0 0 1 6.552-4.097c.56-.077 1.749-.077 2.326-.001m-1.689 3.46c-1.031.08-1.82.419-2.371 1.021-.52.568-.768 1.321-.829 2.522l-.027.525-.245.067c-.839.233-1.364.778-1.586 1.648-.207.807-.208 3.06-.002 3.864.258 1.006.85 1.528 1.975 1.741.331.063.696.07 3.628.07 2.932 0 3.297-.007 3.628-.07 1.219-.23 1.818-.83 2.04-2.042.098-.533.098-2.723 0-3.256-.19-1.039-.677-1.643-1.546-1.918l-.354-.112-.027-.521c-.061-1.209-.312-1.963-.847-2.54-.397-.43-.932-.726-1.592-.883-.285-.067-1.19-.167-1.382-.151l-.463.035m1.375 1.541c.744.151 1.13.489 1.315 1.15.032.114.068.445.081.737l.023.53H9.749l.023-.53c.033-.755.14-1.097.446-1.424.21-.224.504-.371.922-.46.385-.082 1.297-.084 1.692-.003m2.805 4.031c.281.095.42.239.51.53.065.209.073.394.073 1.616 0 1.528-.027 1.733-.257 1.963a.994.994 0 0 1-.347.184c-.22.068-.46.073-3.616.073s-3.396-.005-3.616-.073c-.292-.09-.436-.23-.527-.51-.059-.182-.073-.413-.087-1.445-.018-1.324.011-1.687.161-1.992.104-.21.318-.336.669-.395.125-.021 1.65-.034 3.52-.03 3.072.006 3.315.012 3.517.079m-3.863.829c-.418.055-.809.362-1.004.787-.08.176-.101.284-.101.536 0 .272.017.349.126.57.147.298.369.513.671.652a1.42 1.42 0 0 0 1.068 0c.301-.138.524-.354.669-.648.107-.217.123-.293.123-.575 0-.259-.019-.367-.098-.539a1.32 1.32 0 0 0-.642-.662 1.316 1.316 0 0 0-.812-.121m.325 1.222c.078.078.066.17-.029.231-.139.087-.295-.11-.188-.238.063-.076.137-.073.217.007" fill-rule="evenodd" fill="#000"/></svg>