<svg width="24" height="24" fill="none" xmlns="http://www.w3.org/2000/svg"><path d="M21.8 1.246c-.107.031-.522.421-1.762 1.658l-1.622 1.617-.127-.312c-.703-1.718-2.263-2.641-4.889-2.891-.621-.06-2.163-.06-2.68-.001-2.819.323-4.463 1.576-5.136 3.916-.22.764-.295 1.442-.33 2.968l-.026 1.14-.444.073c-1.904.31-2.984 1.342-3.339 3.191-.159.829-.185 1.323-.183 3.455.001 1.678.014 2.14.07 2.602.108.876.322 1.658.574 2.091l.101.172-.361.373c-.269.278-.372.414-.405.537-.067.249.004.454.237.687.234.234.437.303.692.237.153-.04.765-.64 6.154-6.026l5.984-5.98 2.076.018c1.88.018 2.118.027 2.516.102 1.316.247 1.84.675 2.118 1.732.189.719.202.94.202 3.435 0 2.083-.008 2.388-.073 2.775-.257 1.527-.773 2.048-2.307 2.332-.349.064-.902.072-6.787.092-6.394.021-6.407.021-6.52.104-.27.197-.366.764-.181 1.065.144.232.301.281 1.028.321.951.052 11.706.013 12.18-.044 1.452-.177 2.31-.515 2.96-1.166.668-.669 1.012-1.564 1.167-3.039.085-.803.07-4.411-.02-5.153-.256-2.083-1.043-3.201-2.607-3.702a5.648 5.648 0 0 0-1.087-.243c-.488-.073-1.711-.142-2.532-.142h-.62l3.446-3.45c3.088-3.09 3.451-3.468 3.492-3.621.134-.512-.448-1.072-.959-.923m-8.02 1.61c1.252.197 1.992.506 2.547 1.066.247.248.343.383.488.684.169.351.345.906.345 1.091 0 .055-.571.654-1.73 1.813L13.7 9.24H6.76v-.976c0-1.062.04-1.588.166-2.204.24-1.165.739-1.979 1.531-2.496.625-.408 1.382-.64 2.543-.779.348-.042 2.395.01 2.78.071M7.66 15.28c-2.486 2.486-4.531 4.52-4.544 4.52-.043 0-.194-.568-.266-1-.06-.366-.069-.724-.07-2.8 0-2.621.018-2.873.259-3.589.214-.639.498-.981 1.02-1.231.424-.203.801-.289 1.721-.394.066-.008 1.533-.017 3.26-.02l3.14-.006-4.52 4.52m6.22-1.563c-.194.06-.347.159-.491.318-.253.28-.241.518.046.962.491.758.398 1.656-.233 2.258a1.706 1.706 0 0 1-1.949.32c-.154-.072-.349-.224-.573-.443-.374-.366-.535-.445-.779-.377a1.14 1.14 0 0 0-.575.443c-.175.311-.089.585.32 1.023a3.312 3.312 0 0 0 2.342 1.019c.919-.001 1.641-.302 2.296-.956.697-.698.999-1.484.943-2.464-.036-.651-.185-1.106-.531-1.627-.259-.388-.55-.558-.816-.476" fill-rule="evenodd" fill="#000"/></svg>