<svg width="24" height="24" fill="none" xmlns="http://www.w3.org/2000/svg"><path d="M11.787 3.279c-.341.066-.519.313-.519.721 0 .566.257.754 1.035.758 1.023.006 2.291.324 3.277.824a6.16 6.16 0 0 1 1.554 1.1c1.405 1.33 2.106 3.1 2.106 5.318 0 2.218-.701 3.988-2.106 5.318a6.639 6.639 0 0 1-2.534 1.51c-.805.269-1.291.357-2.27.411-.657.036-.782.075-.94.286-.168.226-.168.724 0 .95.171.229.298.266.89.255 1.635-.029 3.301-.505 4.58-1.31a7.676 7.676 0 0 0 1.375-1.078c1.763-1.709 2.652-4.195 2.485-6.952-.08-1.338-.338-2.373-.862-3.462a7.504 7.504 0 0 0-1.665-2.308c-1.518-1.457-3.491-2.255-5.813-2.352a3.648 3.648 0 0 0-.593.011m-.376 5.506c-.187.093-.438.382-.494.57-.09.3.004.448.795 1.253l.7.712H3.777l-.178.09c-.25.127-.332.288-.332.65 0 .362.082.523.332.65l.178.09h8.635l-.7.712c-.791.805-.885.953-.795 1.253.027.09.12.24.207.335.329.356.641.39 1.006.108.115-.09.788-.744 1.494-1.455 1.073-1.081 1.295-1.324 1.356-1.484.095-.253.043-.43-.217-.739-.364-.433-2.66-2.674-2.809-2.743a.623.623 0 0 0-.543-.002" fill-rule="evenodd" fill="#000"/></svg>