<svg width="24" height="24" fill="none" xmlns="http://www.w3.org/2000/svg"><path d="M14 1.784c-1.806.208-2.792.527-3.702 1.197-.768.566-1.382 1.434-1.713 2.422-.244.729-.393 1.508-.4 2.097-.004.354.005.414.084.525.13.182.342.27.653.271.502.001.65-.171.74-.862.123-.948.297-1.571.6-2.145.587-1.113 1.536-1.684 3.238-1.95.546-.085 2.108-.121 2.74-.063 2.542.233 3.728 1.088 4.24 3.054.25.959.252.992.27 5.25.012 2.712.003 4.073-.03 4.52-.209 2.878-1.213 4.119-3.674 4.542-.913.157-2.556.176-3.506.041-1.727-.246-2.718-.847-3.3-2.002-.286-.568-.426-1.062-.554-1.948-.085-.59-.161-.764-.383-.869-.184-.087-.561-.081-.766.012-.332.151-.416.396-.34.991.388 3.018 1.817 4.643 4.563 5.19.774.154 1.332.2 2.46.2 1.117.001 1.625-.042 2.42-.201 2.437-.489 3.896-1.939 4.379-4.354.2-.998.201-1.035.201-5.722 0-4.9 0-4.895-.278-6-.473-1.88-1.574-3.135-3.275-3.735-1-.353-1.693-.451-3.287-.465a33.799 33.799 0 0 0-1.38.004m-1.38 6.079-.152.035c-.131.029-.449.309-.531.468-.08.154-.071.41.02.586.043.081.556.625 1.141 1.208l1.063 1.06-6.211.02c-6.12.02-6.212.021-6.346.1-.273.161-.396.478-.327.845a.646.646 0 0 0 .327.475c.134.079.226.08 6.346.1l6.211.02-1.063 1.06c-.585.583-1.098 1.127-1.141 1.208-.091.175-.1.432-.02.584.065.125.323.378.45.443.134.069.4.054.565-.032.081-.042.961-.893 1.955-1.89 1.989-1.996 1.95-1.948 1.851-2.323-.039-.15-.261-.387-1.851-1.983-.994-.997-1.86-1.841-1.925-1.875-.139-.073-.306-.124-.362-.109" fill-rule="evenodd" fill="#000"/></svg>