<svg width="24" height="24" fill="none" xmlns="http://www.w3.org/2000/svg"><path d="M14 1.784c-1.806.208-2.792.527-3.702 1.197-.768.566-1.382 1.434-1.713 2.422-.244.729-.393 1.508-.4 2.097-.004.354.005.414.084.525.13.182.342.27.653.271.502.001.65-.171.74-.862.123-.948.297-1.571.6-2.145.587-1.113 1.536-1.684 3.238-1.95.546-.085 2.108-.121 2.74-.063 2.542.233 3.728 1.088 4.24 3.054.25.959.252.992.27 5.25.012 2.712.003 4.073-.03 4.52-.209 2.878-1.213 4.119-3.674 4.542-.913.157-2.556.176-3.506.041-1.727-.246-2.718-.847-3.3-2.002-.286-.568-.426-1.062-.554-1.948-.085-.59-.161-.764-.383-.869-.184-.087-.561-.081-.766.012-.332.151-.416.396-.34.991.388 3.018 1.817 4.643 4.563 5.19.774.154 1.332.2 2.46.2 1.117.001 1.625-.042 2.42-.201 2.437-.489 3.896-1.939 4.379-4.354.2-.998.201-1.035.201-5.722 0-4.9 0-4.895-.278-6-.473-1.88-1.574-3.135-3.275-3.735-1-.353-1.693-.451-3.287-.465a33.799 33.799 0 0 0-1.38.004M5.74 7.88a1.08 1.08 0 0 0-.22.078c-.137.072-3.45 3.374-3.633 3.621-.128.174-.147.228-.147.423 0 .203.016.246.168.441.244.316 3.489 3.535 3.64 3.612.363.184.854-.045 1.038-.484a.539.539 0 0 0-.014-.485c-.039-.084-.528-.611-1.146-1.235l-1.079-1.089 5.457-.011c5.374-.011 5.458-.012 5.592-.091a.646.646 0 0 0 .327-.475c.069-.367-.054-.684-.327-.845-.134-.079-.218-.08-5.592-.091l-5.457-.011 1.079-1.089C6.479 9.086 6.64 8.888 6.64 8.663c0-.416-.518-.866-.9-.783" fill-rule="evenodd" fill="#000"/></svg>