<svg width="24" height="24" fill="none" xmlns="http://www.w3.org/2000/svg"><path d="M11.08 3.279c-2.861.197-5.246 1.54-6.696 3.769-.985 1.514-1.468 3.516-1.344 5.57.08 1.333.337 2.363.862 3.454.682 1.419 1.651 2.5 2.998 3.348 1.279.805 2.945 1.281 4.58 1.31.592.011.719-.026.89-.255.168-.226.168-.724 0-.95-.158-.211-.283-.25-.94-.286-.979-.054-1.465-.142-2.27-.411-1.771-.591-3.184-1.827-3.941-3.448-.477-1.019-.699-2.094-.699-3.38 0-1.841.482-3.365 1.461-4.622.321-.413.975-1.035 1.393-1.325a7.945 7.945 0 0 1 1.786-.881c.805-.269 1.291-.357 2.27-.411.657-.036.782-.075.94-.286.106-.142.155-.433.113-.66-.092-.491-.391-.605-1.403-.536m6.091 5.506c-.187.093-.438.382-.494.57-.09.3.004.448.795 1.253l.7.712H9.537l-.178.09c-.25.127-.332.288-.332.65 0 .362.082.523.332.65l.178.09h8.635l-.7.712c-.791.805-.885.953-.795 1.253.027.09.12.24.207.335.329.356.641.39 1.006.108.115-.09.788-.744 1.494-1.455 1.073-1.081 1.295-1.324 1.356-1.484.095-.253.043-.429-.217-.739-.36-.428-2.659-2.673-2.809-2.742a.62.62 0 0 0-.543-.003" fill-rule="evenodd" fill="#000"/></svg>