<svg width="24" height="24" fill="none" xmlns="http://www.w3.org/2000/svg"><path d="M6.115 2.419C4.394 2.7 2.952 3.671 2.073 5.14c-.638 1.066-.875 2.142-.789 3.579.104 1.75.592 3.323 1.509 4.871 1.311 2.213 3.629 4.298 6.147 5.529 1.03.503 1.629.67 2.224.62l.305-.026.423.313c.855.634 1.935 1.235 2.649 1.474a2.455 2.455 0 0 0 1.499.021c.775-.257 2.196-1.08 3.08-1.785.459-.365 1.397-1.314 1.738-1.756 1.152-1.496 1.746-2.998 1.86-4.7.091-1.349-.183-2.338-.915-3.3a4.541 4.541 0 0 0-.932-.901l-.272-.191-.013-.774c-.009-.611-.03-.86-.1-1.184-.704-3.288-3.967-5.261-7.186-4.347-.689.196-1.622.706-2.141 1.171l-.219.196-.3-.25a5.849 5.849 0 0 0-2.58-1.241c-.44-.092-1.494-.114-1.945-.04m1.711 1.523c.905.184 1.738.691 2.384 1.452.571.67.835.656 1.516-.083.206-.223.51-.506.675-.629a4.193 4.193 0 0 1 5.004.002c.503.372.963.92 1.241 1.481.287.578.415 1.068.46 1.757l.027.409-.137-.024c-1.157-.206-2.451.126-3.448.884l-.231.176-.213-.16c-.974-.736-2.112-1.061-3.244-.928-2.01.236-3.597 1.744-3.919 3.724-.269 1.662.299 3.814 1.445 5.469.096.138.174.26.174.27 0 .057-.962-.49-1.54-.875-1.603-1.07-3.116-2.616-3.96-4.047a9.292 9.292 0 0 1-1.262-3.771c-.067-.62-.03-1.618.075-1.989.232-.825.567-1.41 1.13-1.974a4.16 4.16 0 0 1 3.823-1.144m5.394 5.955c.543.182.865.393 1.358.889.477.481.576.534.892.475.122-.023.232-.111.591-.474.762-.773 1.44-1.062 2.379-1.014.792.041 1.344.29 1.922.866.314.313.412.442.549.721.246.499.329.871.329 1.467 0 1.453-.499 2.84-1.495 4.153-.368.486-1.3 1.396-1.854 1.81-.804.602-1.873 1.192-2.421 1.337-.23.06-.411.008-1.066-.309a10.053 10.053 0 0 1-2.571-1.81c-.812-.787-1.291-1.424-1.71-2.268-.489-.985-.675-1.698-.709-2.72-.027-.79.025-1.08.292-1.62.159-.324.244-.437.571-.765.332-.331.436-.409.764-.567.505-.244.82-.31 1.399-.293.367.012.524.036.78.122" fill-rule="evenodd" fill="#000"/></svg>