<svg width="24" height="24" fill="none" xmlns="http://www.w3.org/2000/svg"><path d="m9.24 1.703-.74.218-.686-.201c-.377-.11-.755-.2-.84-.2-.211 0-.395.121-.453.297-.043.131-.027.214.176.915l.224.771-.2.678c-.11.374-.2.751-.2.839-.001.216.118.4.296.459.131.043.214.027.915-.176l.771-.224.678.2c.374.11.751.2.839.2.216.001.4-.118.459-.296.043-.131.027-.214-.176-.915l-.224-.771.2-.678c.221-.752.24-.927.12-1.121-.073-.117-.255-.222-.375-.216a19.78 19.78 0 0 0-.784.221M8.1 2.84c.351.1.444.1.811-.003.163-.046.305-.074.316-.064.01.011-.018.153-.064.316-.103.369-.103.453 0 .822.046.163.074.305.064.316-.011.01-.153-.018-.316-.064-.369-.103-.453-.103-.822 0-.163.046-.305.074-.316.064-.01-.011.018-.153.064-.316.103-.367.103-.46.003-.811-.089-.311-.093-.34-.05-.34.017 0 .156.036.31.08m9.5.32a2.856 2.856 0 0 0-1.06.367c-.243.141-1.185 1.067-7.065 6.948-7.327 7.326-6.982 6.962-7.195 7.601a3.162 3.162 0 0 0 0 1.848c.263.79 1.001 1.531 1.783 1.791a3.184 3.184 0 0 0 1.874 0c.622-.206.291.107 7.495-7.09 3.681-3.677 6.773-6.79 6.87-6.918.38-.502.548-1.025.548-1.707 0-.709-.192-1.271-.611-1.79A2.885 2.885 0 0 0 17.6 3.16m.903 1.565c.309.115.657.463.772.772.115.305.114.703-.001 1.011-.074.197-.17.315-.67.823l-.584.592-.972-.973-.972-.974.594-.582c.489-.48.632-.597.812-.666.299-.115.72-.116 1.021-.003M15.98 8.04l.96.961-5.6 5.595c-5.375 5.37-5.609 5.598-5.832 5.679a1.357 1.357 0 0 1-1.468-.315 1.357 1.357 0 0 1-.315-1.468c.081-.223.309-.457 5.669-5.822C12.466 9.595 14.988 7.08 15 7.08c.011 0 .452.432.98.96M5.24 7.703l-.74.218-.686-.201c-.377-.11-.755-.2-.84-.2-.211 0-.395.121-.453.297-.043.131-.027.214.176.915l.224.771-.2.678c-.11.374-.2.751-.2.839-.001.216.118.4.296.459.131.043.214.027.915-.176l.771-.224.678.2c.374.11.751.2.839.2.216.001.4-.118.459-.296.043-.131.027-.214-.176-.915l-.224-.771.2-.678c.221-.752.24-.927.12-1.121-.073-.117-.255-.222-.375-.216a19.78 19.78 0 0 0-.784.221M4.1 8.84c.351.1.444.1.811-.003.163-.046.305-.074.316-.064.01.011-.018.153-.064.316-.103.369-.103.453 0 .822.046.163.074.305.064.316-.011.01-.153-.018-.316-.064-.369-.103-.453-.103-.822 0-.163.046-.305.074-.316.064-.01-.011.018-.153.064-.316.103-.367.103-.46.003-.811-.089-.311-.093-.34-.05-.34.017 0 .156.036.31.08m16.14 3.863-.74.218-.686-.201c-.377-.11-.755-.2-.84-.2-.211 0-.395.121-.453.297-.043.131-.027.214.176.915l.224.771-.2.678c-.11.374-.2.751-.2.839-.001.216.118.4.296.459.131.043.214.027.915-.176l.771-.224.678.2c.374.11.751.2.839.2.216.001.4-.118.459-.296.043-.131.027-.214-.176-.915l-.224-.771.2-.678c.221-.752.24-.927.12-1.121-.073-.117-.255-.222-.375-.216a19.78 19.78 0 0 0-.784.221M19.1 13.84c.351.1.444.1.811-.003.163-.046.305-.074.316-.064.01.011-.018.153-.064.316-.103.369-.103.453 0 .822.046.163.074.305.064.316-.011.01-.153-.018-.316-.064-.369-.103-.453-.103-.822 0-.163.046-.305.074-.316.064-.01-.011.018-.153.064-.316.103-.367.103-.46.003-.811-.089-.311-.093-.34-.05-.34.017 0 .156.036.31.08" fill-rule="evenodd" fill="#000"/></svg>