<svg width="24" height="24" fill="none" xmlns="http://www.w3.org/2000/svg"><path d="M15.555 1.283c-.345.038-.864.22-1.215.425-.154.09-1.009.69-1.9 1.333s-1.696 1.203-1.789 1.245a1.609 1.609 0 0 1-.42.1c-.241.021-.317.001-1.922-.523-.919-.299-1.801-.572-1.96-.607-.379-.081-1.059-.081-1.369.002A2.079 2.079 0 0 0 3.454 4.8c-.085.332-.084.997.002 1.403.035.167.309 1.085.608 2.04.516 1.647.543 1.75.525 1.997-.01.143-.051.339-.091.436-.046.115-.467.638-1.19 1.48-1.19 1.387-1.429 1.705-1.673 2.224-.793 1.693.182 3.067 2.245 3.166.263.012 1.128-.014 2.022-.062 2.096-.113 2.127-.112 2.432.033.135.065.303.178.372.25.069.073.506.752.972 1.508 1.091 1.772 1.271 2.036 1.638 2.406.478.482.922.726 1.457.801.707.098 1.407-.236 1.87-.892.428-.608.517-.851 1.062-2.926.231-.878.453-1.661.493-1.741.089-.174.436-.507.591-.567.061-.023.885-.285 1.831-.581 1.814-.568 2.256-.745 2.68-1.072.778-.6 1.088-1.487.826-2.363-.123-.412-.5-.965-.9-1.321-.135-.121-.858-.683-1.606-1.249l-1.359-1.03-.141-.276-.14-.277.02-1.603c.033-2.678.023-3.153-.076-3.524-.232-.868-.736-1.468-1.424-1.692a2.19 2.19 0 0 0-.945-.085m.542 1.523c.139.063.285.29.364.567.083.29.087.538.047 2.927-.031 1.842-.029 1.932.047 2.225.131.504.462 1.087.778 1.368.07.062.74.578 1.488 1.147.749.568 1.448 1.125 1.553 1.237.463.495.459.915-.01 1.26-.281.206-.419.257-2.303.845-.946.296-1.849.601-2.006.677-.551.271-1.145.945-1.331 1.511-.045.138-.26.934-.479 1.77-.427 1.632-.503 1.871-.71 2.224-.337.574-.693.578-1.217.012-.243-.263-.297-.344-1.279-1.936-.468-.759-.92-1.482-1.003-1.606-.375-.554-1.166-1.023-1.875-1.112-.171-.021-.899.001-2.121.065-1.895.099-2.251.097-2.64-.012-.592-.166-.681-.41-.379-1.035.166-.342.305-.518 1.515-1.92.526-.609 1.034-1.223 1.128-1.365.308-.458.482-1.237.411-1.831-.016-.135-.255-.965-.529-1.845-.653-2.089-.666-2.137-.666-2.51 0-.61.23-.815.876-.78.31.017.517.076 2.084.594l1.74.574.52.002c.577.001.871-.058 1.267-.256.125-.063.99-.663 1.92-1.333 1.623-1.169 1.873-1.335 2.191-1.452.179-.066.487-.072.619-.012m2.414 15.511a1.09 1.09 0 0 0-.409.551.633.633 0 0 0 .019.26c.041.152.24.366 1.692 1.824.906.909 1.701 1.686 1.767 1.727.218.135.377.139.616.014.454-.237.61-.684.369-1.055-.151-.232-3.226-3.29-3.393-3.374a.666.666 0 0 0-.661.053" fill-rule="evenodd" fill="#000"/></svg>