<svg width="24" height="24" fill="none" xmlns="http://www.w3.org/2000/svg"><path d="M11.54 1.284a4.542 4.542 0 0 0-1.379.38c-.739.348-.753.361-4.387 3.992C3.497 7.932 2.29 9.167 2.132 9.384a4.54 4.54 0 0 0-.814 1.973c-.067.458-.029 1.291.078 1.696.131.499.339.962.619 1.379.228.341.678.806 3.692 3.818 2.208 2.206 3.54 3.507 3.733 3.647a4.448 4.448 0 0 0 1.916.785c.453.066 1.334.027 1.704-.075.643-.177 1.069-.381 1.58-.756.184-.136 1.614-1.536 3.702-3.626 3.626-3.629 3.65-3.655 3.994-4.386.423-.899.516-2.064.241-3.034a5.177 5.177 0 0 0-.699-1.425c-.269-.361-6.891-6.985-7.25-7.252a4.473 4.473 0 0 0-3.088-.844m1.12 1.536c.393.082.869.329 1.221.633.164.143.866.828 1.559 1.523L16.7 6.24l-2.35 2.35L12 10.94 9.659 8.6l-2.34-2.34 1.53-1.525c1.509-1.503 1.536-1.528 1.878-1.692.19-.092.46-.191.6-.222.337-.073.986-.074 1.333-.001M8.6 14.34l-2.34 2.34-1.432-1.43c-1.484-1.482-1.686-1.72-1.881-2.213-.299-.756-.226-1.749.182-2.477.088-.157.552-.651 1.626-1.731l1.504-1.51 2.34 2.34L10.94 12 8.6 14.34m10.605-5.59c.782.787 1.48 1.516 1.551 1.621.333.492.483.998.483 1.629 0 .496-.079.851-.283 1.275-.163.34-.19.369-1.691 1.876l-1.525 1.53-2.34-2.34L13.06 12l2.34-2.34c1.287-1.287 2.35-2.34 2.362-2.34.012 0 .661.644 1.443 1.43m-4.854 6.661 2.33 2.33-1.51 1.504c-1.236 1.23-1.558 1.53-1.771 1.646a2.917 2.917 0 0 1-2.68.043l-.38-.185-1.511-1.503-1.511-1.504 2.331-2.331A196.433 196.433 0 0 1 12 13.08c.011 0 1.069 1.049 2.351 2.331" fill-rule="evenodd" fill="#000"/></svg>