<svg width="24" height="24" fill="none" xmlns="http://www.w3.org/2000/svg"><path d="M18.02 1.759c-3.248.021-3.323.023-3.459.102-.215.127-.294.299-.294.639 0 .362.082.523.332.65l.178.09H19.7l-1.997 1.997-1.996 1.996-.303-.234c-2.049-1.58-4.787-2.122-7.35-1.457-1.622.422-3.214 1.434-4.296 2.73a8.516 8.516 0 0 0-.282 10.608c.28.374.967 1.088 1.367 1.423 1.471 1.227 3.454 1.937 5.405 1.937 4.238 0 7.782-3.076 8.413-7.3.08-.533.091-1.678.022-2.22-.193-1.506-.787-2.962-1.682-4.124l-.234-.303 1.996-1.996L20.76 4.3v4.923l.09.178c.126.248.282.328.647.33.368.002.526-.078.652-.332l.088-.179.006-3.487.005-3.487-.091-.163a.78.78 0 0 0-.655-.354c-.089.006-1.656.019-3.482.03m-6.765 5.063a7.136 7.136 0 0 1 3.025 1.209c.491.345 1.344 1.198 1.689 1.689a7.015 7.015 0 0 1 .863 6.4 7.078 7.078 0 0 1-3.47 3.899c-.596.3-1.465.57-2.142.666-.464.065-1.504.064-1.94-.002a7.075 7.075 0 0 1-3.34-1.424c-.366-.287-1-.926-1.267-1.279-.69-.913-1.139-1.97-1.341-3.16-.084-.492-.083-1.634.002-2.16A7.038 7.038 0 0 1 8.55 6.962c.805-.204 1.917-.261 2.705-.14" fill-rule="evenodd" fill="#000"/></svg>