<svg width="24" height="24" fill="none" xmlns="http://www.w3.org/2000/svg"><path d="M7.96 2.665a3.034 3.034 0 0 0-.54.189c-.343.163-4.354 2.46-4.66 2.668-.553.377-1.031 1.113-1.16 1.786-.031.165-.04 1.778-.031 5.592.015 5.976-.009 5.478.293 6.132.285.618.784 1.067 1.398 1.258.215.067.378.087.7.086.776-.002 1.022-.101 2.905-1.17 1.134-.644 1.305-.728 1.526-.759.494-.067.454-.084 3.473 1.424 3.196 1.597 3.078 1.551 3.929 1.519.365-.014.581-.043.77-.104.248-.08 4.405-2.415 4.908-2.757.56-.381 1.003-1.02 1.198-1.729.066-.243.071-.596.071-5.5 0-5.608.004-5.483-.201-6.072-.261-.747-.812-1.299-1.515-1.518-.417-.13-1.036-.119-1.516.025-.439.132-.578.202-2.008 1.017a42.43 42.43 0 0 1-1.331.737c-.126.056-.265.076-.52.077l-.349.001-2.86-1.423c-3.158-1.571-3.101-1.548-3.848-1.54a3.74 3.74 0 0 0-.632.061m3.999 2.914c1.431.714 2.7 1.328 2.821 1.363l.22.064V19.76l-2.59-1.295c-1.424-.712-2.703-1.335-2.84-1.385l-.25-.091v-6.354c0-3.495.009-6.355.019-6.355s1.189.585 2.62 1.299M7.8 10.701c0 6.005-.004 6.343-.07 6.363-.189.057-.614.283-1.745.925-1.441.817-1.622.9-1.987.904-.472.006-.756-.247-.897-.797-.055-.214-.061-.849-.052-5.419L3.06 7.5l.133-.244c.073-.135.199-.309.28-.387.124-.12 4.208-2.503 4.297-2.507.017-.001.03 2.852.03 6.339m12.938-5.488a.953.953 0 0 1 .269.247c.243.349.235.145.223 5.843l-.01 5.197-.112.229c-.205.417-.308.489-2.45 1.708a300.073 300.073 0 0 0-2.088 1.195l-.09.057V6.971l.19-.071c.104-.039.804-.419 1.554-.844a47.99 47.99 0 0 1 1.48-.82c.416-.168.755-.175 1.034-.023" fill-rule="evenodd" fill="#000"/></svg>