<svg width="24" height="24" fill="none" xmlns="http://www.w3.org/2000/svg"><path d="M8.08 1.281c-4.055.224-6.148 1.982-6.682 5.612-.139.947-.167 2.013-.147 5.671.02 3.526.032 3.835.191 4.776.441 2.609 1.738 4.197 4.038 4.941.508.164 1.32.322 2.08.403.593.064 7.03.096 8.129.041 1.522-.076 2.474-.259 3.45-.664 1.368-.566 2.356-1.554 2.922-2.922.405-.976.588-1.928.664-3.45.055-1.102.023-7.537-.041-8.129-.224-2.083-.79-3.471-1.831-4.492-1.003-.985-2.381-1.532-4.413-1.752-.504-.055-7.478-.084-8.36-.035m8.325 1.538c1.594.169 2.61.56 3.368 1.296.459.445.804.997 1.033 1.655l.094.27-7.42 7.422c-7.019 7.021-7.426 7.421-7.536 7.4-.179-.034-.772-.298-1.08-.479-.315-.186-.846-.668-1.062-.963-.47-.641-.766-1.466-.948-2.64-.069-.446-.074-.787-.074-4.78 0-3.989.005-4.335.074-4.78.375-2.423 1.334-3.614 3.346-4.155 1.052-.282 1.262-.293 5.74-.299 3.17-.004 4.024.006 4.465.053M8.394 5.103c-1.419.256-2.505 1.256-2.851 2.622-.252.997-.138 1.935.357 2.935.308.623.677 1.123 1.257 1.703.545.545.828.73 1.309.854.322.083.986.083 1.308 0 .488-.126.762-.307 1.328-.874 1.462-1.467 2.008-3.096 1.575-4.703-.422-1.565-1.871-2.612-3.592-2.596a4.908 4.908 0 0 0-.691.059M9.72 6.605c.512.113 1.121.562 1.334.983.262.518.338 1.163.204 1.732-.087.37-.404 1.006-.687 1.38-.348.461-.91.99-1.116 1.051-.492.146-.802.021-1.343-.544-.796-.83-1.138-1.507-1.181-2.336-.038-.734.15-1.275.594-1.713.538-.53 1.363-.738 2.195-.553M8.642 7.772c-.194.062-.429.31-.482.509a1.975 1.975 0 0 0 0 .838c.056.21.291.448.506.512.21.063.658.063.868 0a.831.831 0 0 0 .497-.497c.063-.21.063-.658 0-.868a.831.831 0 0 0-.497-.497c-.198-.059-.702-.057-.892.003m12.588 4.481c-.013 3.679-.022 4.173-.084 4.547-.098.598-.252 1.203-.411 1.617-.134.349-.373.823-.414.823-.012 0-1.2-1.179-2.641-2.62L15.06 14l3.06-3.06c3.042-3.042 3.06-3.06 3.092-2.937.017.067.025 1.98.018 4.25m-4.592 5.445c1.44 1.441 2.61 2.626 2.6 2.635-.01.01-.117.072-.238.14-.498.278-1.311.527-2.2.673-.374.062-.868.071-4.5.084-2.244.008-4.159.003-4.256-.011l-.177-.026 3.056-3.056A321.821 321.821 0 0 1 14 15.08c.011 0 1.198 1.178 2.638 2.618" fill-rule="evenodd" fill="#000"/></svg>