<svg width="24" height="24" fill="none" xmlns="http://www.w3.org/2000/svg"><path d="M11.3 1.281c-4.277.256-8.05 3.136-9.457 7.216a10.886 10.886 0 0 0-.279 6.053 10.76 10.76 0 0 0 7.886 7.886 10.96 10.96 0 0 0 5.1 0 10.76 10.76 0 0 0 7.886-7.886 10.96 10.96 0 0 0 0-5.1 10.76 10.76 0 0 0-7.886-7.886c-.66-.16-1.203-.24-1.926-.285-.655-.04-.624-.04-1.324.002m-.06 3.251v1.771l-.367.07A5.81 5.81 0 0 0 8.22 7.679a5.759 5.759 0 0 0-1.638 6.216c.655 1.895 2.344 3.364 4.291 3.732l.367.07v3.528l-.31-.035c-1.694-.19-3.502-.959-4.79-2.037-1.868-1.563-3.006-3.622-3.318-6.007-.123-.932-.066-2.172.144-3.144.211-.982.737-2.227 1.302-3.082a9.335 9.335 0 0 1 6.552-4.097c.22-.03.405-.057.41-.059.006-.002.01.793.01 1.768m2.631-1.589c1.4.279 2.908 1 3.989 1.904 1.868 1.563 3.006 3.622 3.318 6.007.123.932.066 2.172-.144 3.144-.289 1.345-1.031 2.857-1.913 3.902a12.83 12.83 0 0 1-1.334 1.317c-1.277 1.04-3.067 1.788-4.717 1.973l-.31.035v-3.528l.367-.07a5.81 5.81 0 0 0 2.653-1.306 5.759 5.759 0 0 0 1.638-6.216c-.655-1.895-2.344-3.364-4.291-3.732l-.367-.07V2.775l.31.035a12 12 0 0 1 .801.133m-2.631 9.053v4.196l-.27-.072a4.078 4.078 0 0 1-1.32-.588c-.632-.416-1.242-1.136-1.519-1.792-.314-.741-.349-.914-.349-1.74 0-.544.016-.758.071-.96.223-.824.595-1.483 1.149-2.038.569-.568 1.204-.922 2.078-1.157l.15-.041c.006-.002.01 1.884.01 4.192m2.22-3.984c1.071.404 1.993 1.265 2.409 2.248.314.741.349.914.349 1.74s-.035.999-.349 1.74c-.277.656-.887 1.376-1.519 1.792a4.078 4.078 0 0 1-1.32.588l-.27.072V7.808l.27.072c.148.039.342.099.43.132" fill-rule="evenodd" fill="#000"/></svg>