<svg width="24" height="24" fill="none" xmlns="http://www.w3.org/2000/svg"><path d="M11.07 1.321a10.703 10.703 0 0 0-6.731 3.205C3.5 5.389 2.905 6.228 2.401 7.26 1.619 8.858 1.303 10.223 1.303 12c0 1.777.316 3.142 1.098 4.74a10.73 10.73 0 0 0 5.211 5.032 10.673 10.673 0 0 0 11.351-1.646c1.865-1.607 3.103-3.727 3.553-6.086.145-.759.181-1.169.181-2.04s-.036-1.281-.181-2.04c-.538-2.817-2.202-5.289-4.654-6.914A10.462 10.462 0 0 0 13.42 1.38c-.575-.077-1.809-.108-2.35-.059m2.17 1.544c2.035.261 3.956 1.249 5.43 2.79a9.137 9.137 0 0 1 2.528 6.918c-.085 1.266-.343 2.259-.875 3.367-.464.965-.94 1.659-1.653 2.405-1.909 1.996-4.514 3.026-7.225 2.855-1.862-.117-3.543-.745-5.064-1.892-.414-.312-1.377-1.276-1.689-1.69-1.374-1.822-2.031-3.966-1.892-6.173.082-1.3.385-2.424.968-3.585.465-.926.936-1.57 1.729-2.363.793-.793 1.437-1.264 2.363-1.729 1.691-.849 3.474-1.148 5.38-.903M9.906 5.141c-.782.148-1.883.75-2.73 1.492-.989.866-1.855 2.298-2.17 3.587-.167.684-.186.867-.186 1.78s.019 1.096.186 1.78c.247 1.008.788 2.039 1.545 2.94.919 1.093 2.47 2.034 3.554 2.153 1.231.136 2.174-.488 2.505-1.657l.089-.316.013-4.66c.014-4.94.006-5.18-.171-5.669-.397-1.095-1.433-1.657-2.635-1.43m.695 1.463c.27.058.453.221.546.488.069.196.073.471.073 4.908 0 4.4-.005 4.713-.071 4.904-.123.353-.34.496-.751.496-.687 0-1.997-.803-2.732-1.676a5.836 5.836 0 0 1-1.291-2.644c-.103-.481-.103-1.679 0-2.16.332-1.538 1.197-2.843 2.427-3.662.377-.25 1.031-.569 1.304-.635.298-.072.257-.07.495-.019" fill-rule="evenodd" fill="#000"/></svg>