<svg width="24" height="24" fill="none" xmlns="http://www.w3.org/2000/svg"><path d="M11.32 1.281c-2.061.117-4.07.861-5.79 2.143-.618.46-1.646 1.488-2.106 2.106-1.301 1.746-2.012 3.682-2.143 5.84-.244 4.006 1.759 7.779 5.239 9.869a10.548 10.548 0 0 0 4.845 1.478c.65.039 2.023-.009 2.275-.079.077-.021.329-.076.56-.123 1.503-.301 2.968-.967 4.277-1.945.609-.455 1.641-1.487 2.098-2.1 1.948-2.608 2.622-5.879 1.861-9.02-1.01-4.164-4.456-7.356-8.694-8.052-.408-.067-1.668-.169-1.862-.151l-.56.034m1.826 1.541c1.679.22 3.306.9 4.584 1.916.127.101.23.196.23.213 0 .067-12.993 13.018-13.035 12.992-.066-.04-.482-.595-.724-.964-.498-.758-1.039-2.064-1.236-2.981a9.746 9.746 0 0 1 .001-3.996c.283-1.314.97-2.737 1.847-3.822.335-.415 1.159-1.218 1.568-1.527a9.388 9.388 0 0 1 4.439-1.83c.56-.077 1.749-.077 2.326-.001m6.116 3.448c.811 1.021 1.504 2.478 1.773 3.732.195.908.264 2.171.164 2.999-.056.463-.202 1.239-.233 1.239-.014 0-1.164-1.138-2.556-2.53l-2.53-2.53 1.57-1.57c.863-.863 1.583-1.57 1.599-1.57.017 0 .112.104.213.23m.94 10a8.915 8.915 0 0 1-1.559 2.149l-.284.28L15.36 15.7l-3-3 1.23-1.23 1.23-1.23 2.8 2.8 2.8 2.801-.218.429m-3.042 3.381c0 .06-.508.361-1.1.651-.643.315-1.463.608-2.031.724l-.351.072-2.429-2.429L8.82 16.24 10.06 15l1.24-1.24 2.93 2.93c1.611 1.611 2.93 2.944 2.93 2.961m-7.42-.371 1.96 1.96h-.188c-.263 0-1.057-.108-1.51-.205-.917-.197-2.223-.738-2.981-1.236-.369-.242-.924-.658-.964-.724-.023-.038 1.642-1.755 1.703-1.755.011 0 .902.882 1.98 1.96" fill-rule="evenodd" fill="#000"/></svg>