<svg width="24" height="24" fill="none" xmlns="http://www.w3.org/2000/svg"><path d="M17.867 1.278a.607.607 0 0 0-.437.325c-.063.124-.07.291-.07 1.705v1.567l-1.61.013c-1.531.011-1.617.016-1.75.093a.67.67 0 0 0-.23.258c-.186.367-.073.885.23 1.06.133.077.219.082 1.75.094l1.61.013v1.567c0 1.413.007 1.58.07 1.704.112.219.254.298.568.316.324.018.511-.034.65-.184.183-.197.192-.288.192-1.892V6.406l1.57-.013c1.49-.012 1.577-.017 1.71-.094.424-.245.424-1.073 0-1.318-.133-.077-.219-.082-1.708-.094l-1.569-.012-.011-1.588c-.012-1.57-.013-1.589-.103-1.733-.143-.23-.505-.346-.862-.276M2.073 4.917a.556.556 0 0 0-.435.336c-.168.37-.051.877.242 1.046.138.08.198.081 4.06.081 3.862 0 3.922-.001 4.06-.081a.67.67 0 0 0 .23-.258c.186-.367.073-.885-.23-1.06-.138-.08-.204-.081-3.96-.087-2.101-.003-3.886.007-3.967.023m-.143 9.16c-.363.263-.501.628-.35.926.038.076.797.868 1.687 1.761l1.619 1.624-1.543 1.516c-.849.834-1.599 1.594-1.668 1.69-.157.217-.192.457-.096.659.094.198.38.452.576.51.338.101.375.072 2.165-1.707l1.62-1.611 1.62 1.611c1.79 1.781 1.825 1.809 2.165 1.707.192-.057.481-.311.571-.501a.592.592 0 0 0 .003-.518c-.033-.07-.789-.855-1.679-1.745l-1.619-1.617 1.615-1.621c.888-.892 1.646-1.682 1.684-1.758.098-.193.064-.477-.078-.664-.298-.391-.695-.495-1.006-.263-.086.064-.849.811-1.696 1.66-.847.849-1.558 1.544-1.58 1.544-.022 0-.733-.695-1.58-1.544-.847-.849-1.61-1.596-1.696-1.66a.608.608 0 0 0-.734.001m12.064.604c-.224.118-.33.37-.304.726.022.314.093.443.314.573.134.079.208.08 4.056.08s3.922-.001 4.056-.08c.22-.13.292-.259.314-.57.027-.372-.073-.609-.305-.727-.16-.082-.199-.083-4.073-.081-3.783.001-3.917.004-4.058.079m.112 6.017c-.304.109-.425.314-.426.719 0 .29.13.533.336.627.156.071.345.074 4.056.075 3.85.001 3.893 0 4.053-.081.197-.101.313-.329.314-.618.001-.415-.146-.651-.459-.736-.11-.03-1.337-.043-3.94-.042-3.097.001-3.808.011-3.934.056" fill-rule="evenodd" fill="#000"/></svg>