<svg width="24" height="24" fill="none" xmlns="http://www.w3.org/2000/svg"><path d="M8.08 1.282c-4.039.211-6.148 1.982-6.682 5.611-.097.661-.173 2.07-.151 2.81.014.466.031.586.096.7.241.42 1.073.419 1.315-.002.073-.127.081-.242.106-1.44.03-1.414.079-1.885.28-2.673.531-2.078 1.717-3.054 4.176-3.434.445-.069.791-.074 4.78-.074 3.936 0 4.339.006 4.76.072 2.798.436 3.952 1.59 4.388 4.388.066.421.072.824.072 4.76 0 4.745.006 4.622-.26 5.688-.456 1.832-1.441 2.816-3.272 3.272-.818.203-1.241.247-2.648.275-1.199.024-1.311.032-1.436.105a.646.646 0 0 0-.327.475c-.068.365.054.685.324.842.177.104.917.128 2.099.067 1.313-.067 2.079-.193 2.944-.482 2.322-.776 3.581-2.445 3.978-5.269.106-.759.137-1.875.137-4.973s-.031-4.214-.137-4.973c-.263-1.87-.936-3.286-1.981-4.17-1.164-.983-2.63-1.461-4.835-1.577-.854-.045-6.854-.043-7.726.002m5.521 4.047c-.252.128-.334.289-.334.651 0 .362.082.523.332.65.173.087.212.09 1.399.09h1.22l-1.966 1.97c-2.16 2.165-2.11 2.104-2.011 2.475.06.221.373.534.594.594.371.099.31.149 2.475-2.011l1.97-1.966v1.239c0 1.101.008 1.254.07 1.376.125.246.249.303.65.303.384 0 .483-.041.658-.275.08-.108.083-.169.104-2.338l.023-2.227-.103-.218c-.192-.41.004-.38-2.615-.393l-2.287-.011-.179.091M4.8 12.264c-1.223.078-1.99.362-2.582.954-.495.494-.764 1.093-.903 2.002-.078.512-.078 4.048 0 4.56.139.909.408 1.508.903 2.002.494.495 1.093.764 2.002.903.512.078 4.048.078 4.56 0 .909-.139 1.508-.408 2.002-.903.495-.494.764-1.093.903-2.002.078-.512.078-4.048 0-4.56-.224-1.472-.922-2.363-2.143-2.737-.614-.188-.898-.211-2.762-.222a76.708 76.708 0 0 0-1.98.003m3.926 1.552c.498.096.748.212.997.461.252.252.37.509.46 1.003.078.429.078 4.011 0 4.44-.09.494-.208.751-.46 1.003-.252.252-.509.37-1.003.46-.429.078-4.011.078-4.44 0-.494-.09-.751-.208-1.003-.46-.249-.249-.365-.499-.461-.997-.081-.424-.081-4.028 0-4.452.096-.498.212-.748.461-.997.243-.244.494-.362.963-.457.39-.079 4.081-.082 4.486-.004" fill-rule="evenodd" fill="#000"/></svg>