<svg width="24" height="24" fill="none" xmlns="http://www.w3.org/2000/svg"><path d="M8.08 1.282c-4.072.213-6.185 2.014-6.697 5.709-.113.812-.141 1.825-.141 5.009 0 4.504.06 5.273.518 6.65.772 2.313 2.446 3.576 5.267 3.972.759.106 1.875.137 4.973.137s4.214-.031 4.973-.137c2.47-.347 4.023-1.334 4.924-3.132.482-.96.741-2.121.823-3.683.051-.969.051-6.645 0-7.614-.063-1.195-.199-2.002-.478-2.837-.61-1.825-1.773-2.989-3.592-3.596-.862-.287-1.627-.416-2.844-.48-.854-.045-6.854-.043-7.726.002m8.72 1.572c2.786.462 3.914 1.6 4.348 4.386.066.421.072.824.072 4.76s-.006 4.339-.072 4.76c-.436 2.798-1.59 3.952-4.388 4.388-.421.066-.824.072-4.76.072s-4.339-.006-4.76-.072c-2.79-.435-3.957-1.597-4.386-4.368-.069-.445-.074-.791-.074-4.78 0-4.753-.004-4.663.264-5.712C3.557 4.282 4.722 3.274 6.96 2.9c.73-.123 1.088-.131 5.24-.123 3.763.007 4.222.014 4.6.077M5.764 5.268a.729.729 0 0 0-.437.366l-.093.167.005 2.109c.003 1.161.021 2.188.039 2.284.068.362.304.538.722.538s.653-.175.723-.538c.018-.096.034-.669.035-1.274l.002-1.1 2.09 2.09L10.94 12l-2.08 2.08-2.08 2.081-.02-1.211c-.018-1.117-.026-1.22-.1-1.346a.646.646 0 0 0-.475-.327c-.367-.069-.684.054-.845.327-.077.13-.081.227-.1 2.296-.011 1.188-.006 2.216.01 2.285a.81.81 0 0 0 .382.488l.169.093 2.109-.005c1.161-.003 2.188-.021 2.284-.039.362-.068.538-.304.538-.722s-.175-.653-.538-.723c-.096-.018-.669-.034-1.274-.035l-1.1-.002 2.09-2.09L12 13.06l2.09 2.09 2.09 2.09-1.1.002c-.605.001-1.178.017-1.274.035-.363.07-.538.305-.538.723s.176.654.538.722c.096.018 1.123.036 2.284.039l2.109.005.169-.093a.81.81 0 0 0 .382-.488c.016-.069.021-1.097.01-2.285-.019-2.069-.023-2.166-.1-2.296a.646.646 0 0 0-.475-.327c-.367-.069-.684.054-.845.327-.074.126-.082.229-.1 1.346l-.02 1.211-2.08-2.081L13.06 12l2.09-2.09 2.09-2.09.002 1.1c.001.605.017 1.178.035 1.274.07.363.305.538.723.538s.654-.176.722-.538c.018-.096.036-1.123.039-2.284l.005-2.109-.093-.169a.81.81 0 0 0-.488-.382c-.069-.016-1.097-.021-2.285-.01-2.069.019-2.166.023-2.296.1-.273.161-.396.478-.327.845a.646.646 0 0 0 .327.475c.126.074.229.082 1.346.1l1.211.02-2.081 2.08L12 10.94 9.91 8.85 7.82 6.76l1.1-.002c.605-.001 1.178-.017 1.274-.035.363-.07.538-.305.538-.723 0-.463-.208-.694-.663-.738a66.136 66.136 0 0 0-2.207-.033c-1.439-.007-1.996.004-2.098.039" fill-rule="evenodd" fill="#000"/></svg>