<svg width="24" height="24" fill="none" xmlns="http://www.w3.org/2000/svg"><path d="M6.02 1.283c-1.933.166-3.668 1.454-4.382 3.254-.332.835-.412 1.543-.391 3.463.012 1.175.018 1.269.093 1.396.161.273.478.396.845.327a.646.646 0 0 0 .475-.327c.076-.129.081-.23.103-1.856l.022-1.72.108-.352c.392-1.279 1.296-2.183 2.575-2.575l.352-.108 1.72-.022c1.626-.022 1.727-.027 1.856-.103.273-.161.396-.478.327-.845a.646.646 0 0 0-.327-.475c-.129-.076-.214-.08-1.556-.086-.781-.003-1.6.01-1.82.029m8.773-.005c-.29.056-.459.234-.517.543-.068.361.057.679.328.839.129.076.23.081 1.856.103l1.72.022.352.108c1.269.389 2.186 1.306 2.575 2.575l.108.352.022 1.72c.022 1.626.027 1.727.103 1.856.161.273.478.396.845.327a.646.646 0 0 0 .475-.327c.075-.127.081-.221.093-1.396.016-1.451-.032-2.227-.169-2.768a5.182 5.182 0 0 0-1.844-2.851c-.841-.656-1.762-1.012-2.847-1.1-.561-.046-2.87-.048-3.1-.003m-5.006 4a.655.655 0 0 0-.443.32c-.105.18-.105.624 0 .804.177.303.359.354 1.266.356l.63.002v4.48H6.769l-.015-.75c-.013-.662-.024-.766-.094-.886-.161-.273-.478-.396-.845-.327a.646.646 0 0 0-.475.327c-.077.132-.08.208-.08 2.396 0 2.188.003 2.264.08 2.396a.646.646 0 0 0 .475.327c.367.069.684-.054.845-.327.07-.12.081-.224.094-.886l.015-.75h4.471v4.471l-.75.015c-.662.013-.766.024-.886.094-.273.161-.396.478-.327.845a.646.646 0 0 0 .327.475c.132.077.208.08 2.396.08 2.188 0 2.264-.003 2.396-.08a.646.646 0 0 0 .327-.475c.069-.367-.054-.684-.327-.845-.12-.07-.224-.081-.886-.094l-.75-.015V12.76h4.471l.015.75c.013.662.024.766.094.886.161.273.478.396.845.327a.646.646 0 0 0 .475-.327c.077-.132.08-.208.08-2.396 0-2.188-.003-2.264-.08-2.396a.646.646 0 0 0-.475-.327c-.367-.069-.684.054-.845.327-.07.12-.081.224-.094.886l-.015.75H12.76V6.769l.75-.015c.662-.013.766-.024.886-.094.273-.161.396-.478.327-.845a.646.646 0 0 0-.327-.475c-.131-.077-.214-.08-2.296-.086-1.188-.004-2.229.007-2.313.024m-8 9a.659.659 0 0 0-.447.326c-.075.127-.081.221-.093 1.396-.016 1.451.032 2.227.169 2.768a5.21 5.21 0 0 0 3.816 3.816c.541.137 1.317.185 2.768.169 1.175-.012 1.269-.018 1.396-.093.273-.161.396-.478.327-.845a.646.646 0 0 0-.327-.475c-.129-.076-.23-.081-1.856-.103l-1.72-.022-.352-.108c-1.272-.39-2.185-1.303-2.575-2.575l-.108-.352-.022-1.72c-.024-1.788-.025-1.796-.198-1.994-.143-.164-.482-.246-.778-.188m20 1a.659.659 0 0 0-.447.326c-.074.125-.082.232-.104 1.356-.023 1.178-.027 1.233-.132 1.58a3.791 3.791 0 0 1-2.572 2.566c-.338.102-.4.107-1.572.13-1.124.022-1.231.03-1.356.104a.646.646 0 0 0-.327.475c-.069.367.054.684.327.845.12.07.224.081.886.094 1.697.033 2.659-.154 3.61-.702 1.528-.879 2.475-2.383 2.619-4.159.049-.602.051-1.842.004-2.087-.079-.408-.458-.621-.936-.528" fill-rule="evenodd" fill="#000"/></svg>