<svg width="24" height="24" fill="none" xmlns="http://www.w3.org/2000/svg"><path d="M8.08 1.282c-4.072.213-6.185 2.014-6.697 5.709-.113.812-.141 1.825-.141 5.009 0 4.504.06 5.273.518 6.65.772 2.313 2.446 3.576 5.267 3.972.759.106 1.875.137 4.973.137s4.214-.031 4.973-.137c2.47-.347 4.023-1.334 4.924-3.132.482-.96.741-2.121.823-3.683.051-.969.051-6.645 0-7.614-.063-1.195-.199-2.002-.478-2.837-.61-1.825-1.773-2.989-3.592-3.596-.862-.287-1.627-.416-2.844-.48-.854-.045-6.854-.043-7.726.002m8.72 1.572c2.786.462 3.914 1.6 4.348 4.386.066.421.072.824.072 4.76s-.006 4.339-.072 4.76c-.436 2.798-1.59 3.952-4.388 4.388-.421.066-.824.072-4.76.072s-4.339-.006-4.76-.072c-2.79-.435-3.957-1.597-4.386-4.368-.069-.445-.074-.791-.074-4.78 0-4.753-.004-4.663.264-5.712C3.557 4.282 4.722 3.274 6.96 2.9c.73-.123 1.088-.131 5.24-.123 3.763.007 4.222.014 4.6.077m-.96 2.384c-2.006.021-2.106.026-2.236.102-.273.161-.396.478-.327.845a.646.646 0 0 0 .327.475c.126.074.229.082 1.346.1l1.21.02-4.697 4.697-4.697 4.697-.013-1.217c-.012-1.132-.019-1.227-.093-1.353a.646.646 0 0 0-.475-.327c-.367-.069-.684.054-.845.327-.077.13-.081.227-.1 2.296-.011 1.188-.006 2.216.01 2.285a.81.81 0 0 0 .382.488l.169.093 2.109-.005c1.161-.003 2.188-.021 2.284-.039.362-.068.538-.304.538-.722s-.175-.653-.538-.723c-.096-.018-.669-.034-1.274-.035l-1.1-.002 4.7-4.7 4.7-4.7.02 1.21c.018 1.117.026 1.22.1 1.346.161.273.478.396.845.327a.646.646 0 0 0 .475-.327c.077-.13.081-.227.1-2.296.011-1.188.006-2.216-.01-2.285a.815.815 0 0 0-.67-.584 78.08 78.08 0 0 0-2.24.007" fill-rule="evenodd" fill="#000"/></svg>