<svg width="24" height="24" fill="none" xmlns="http://www.w3.org/2000/svg"><path d="M11.32 1.281c-2.061.117-4.07.861-5.79 2.143-.618.46-1.646 1.488-2.106 2.106-1.306 1.752-2.022 3.71-2.143 5.863-.065 1.132.091 2.687.304 3.051.133.227.268.296.568.293.423-.006.731-.207.79-.516.013-.073-.015-.363-.063-.646-.11-.651-.152-1.931-.083-2.536A9.41 9.41 0 0 1 4.813 6.18c.335-.415 1.159-1.218 1.568-1.527 1.065-.806 2.386-1.421 3.621-1.687a9.729 9.729 0 0 1 3.696-.062c.461.081.663.053.835-.12.153-.153.227-.371.227-.669 0-.437-.208-.585-1-.713-.425-.069-1.691-.174-1.88-.155l-.56.034m7.52.957c-2.006.021-2.106.026-2.236.102-.273.161-.396.478-.327.845a.646.646 0 0 0 .327.475c.126.074.221.081 1.352.093l1.216.013-2.443 2.447c-2.169 2.173-2.448 2.466-2.487 2.617-.067.254.002.458.236.692.234.234.438.303.692.236.151-.039.444-.318 2.617-2.487l2.447-2.443.013 1.216c.012 1.131.019 1.226.093 1.352a.646.646 0 0 0 .475.327c.367.069.684-.054.845-.327.077-.13.081-.227.1-2.296.011-1.188.006-2.216-.01-2.285a.815.815 0 0 0-.67-.584 78.08 78.08 0 0 0-2.24.007m2.78 7.037c-.31.081-.518.268-.563.504-.013.073.015.363.063.646.11.651.152 1.931.083 2.536a9.414 9.414 0 0 1-1.856 4.658c-.309.409-1.112 1.233-1.527 1.568-1.079.872-2.518 1.568-3.822 1.848a9.75 9.75 0 0 1-3.696.061c-.461-.081-.663-.053-.835.12-.153.153-.227.371-.227.669 0 .437.208.585 1 .713a10.772 10.772 0 0 0 8.23-2.023c.617-.46 1.645-1.488 2.105-2.105 1.543-2.067 2.295-4.543 2.144-7.062-.033-.558-.118-1.243-.195-1.577a.871.871 0 0 0-.291-.482c-.118-.088-.419-.124-.613-.074M8.8 14.245c-.109.032-.688.588-2.59 2.487l-2.45 2.446-.002-1.099c-.001-.604-.017-1.177-.035-1.273-.07-.363-.305-.538-.723-.538s-.654.176-.722.538c-.018.096-.036 1.123-.039 2.284l-.005 2.109.093.169a.81.81 0 0 0 .488.382c.069.016 1.097.021 2.285.01 2.069-.019 2.166-.023 2.296-.1a.646.646 0 0 0 .327-.475c.069-.367-.054-.684-.327-.845-.126-.074-.221-.081-1.352-.093l-1.216-.013 2.443-2.447c2.173-2.177 2.447-2.466 2.487-2.618.135-.511-.446-1.072-.958-.924" fill-rule="evenodd" fill="#000"/></svg>