<svg width="24" height="24" fill="none" xmlns="http://www.w3.org/2000/svg"><path d="M11.377 1.282c-3.09.239-5.766 2.378-6.594 5.27a7.26 7.26 0 0 0 0 3.896c.305 1.065.847 2.012 1.667 2.912l.309.34.001 3.72c.001 3.04.012 3.768.058 3.985.215 1.016 1.127 1.552 2.122 1.246.11-.033.823-.356 1.584-.716.762-.36 1.429-.655 1.482-.655.053 0 .708.289 1.454.643 1.603.758 1.721.802 2.156.802.776 0 1.364-.463 1.564-1.232.051-.196.06-.784.06-4.012v-3.782l.291-.319c.981-1.077 1.566-2.207 1.837-3.55.124-.611.133-1.954.017-2.57-.295-1.572-1.139-3.064-2.314-4.089-1.295-1.131-2.796-1.759-4.519-1.89-.577-.044-.582-.044-1.175.001M12.9 2.817c1.346.207 2.495.782 3.418 1.71.907.912 1.438 1.954 1.624 3.19.251 1.667-.328 3.437-1.52 4.643-.598.606-1.002.909-1.635 1.226a5.974 5.974 0 0 1-2.787.653c-1.671 0-3.173-.615-4.318-1.766C6.587 11.372 6 9.986 6 8.5c0-1.485.591-2.88 1.683-3.976.911-.913 2.062-1.494 3.377-1.704.434-.069 1.4-.071 1.84-.003m2.819 18.345c-.023.043-.077.078-.12.078s-.713-.299-1.489-.665c-1.574-.742-1.601-.753-1.913-.791-.45-.056-.627.004-2.174.739-.92.437-1.493.688-1.582.691-.123.005-.142-.007-.165-.114-.036-.165-.041-2.529-.01-4.585l.027-1.705.423.199c2.083.979 4.589.971 6.604-.022l.42-.207.01 3.152c.007 2.127-.003 3.178-.031 3.23" fill-rule="evenodd" fill="#000"/></svg>