<svg width="24" height="24" fill="none" xmlns="http://www.w3.org/2000/svg"><path d="M11.393 1.281c-3.086.23-5.786 2.35-6.75 5.301-.619 1.898-.477 4.069.381 5.791.097.194.176.374.176.4 0 .026-.811.857-1.802 1.847-1.182 1.181-1.841 1.869-1.916 2a1.734 1.734 0 0 0 .309 2.148c.303.284.534.377 1.462.596 1.084.255 1.09.257 1.141.388.023.059.125.459.225.888.209.891.313 1.136.602 1.426a1.752 1.752 0 0 0 1.8.431c.448-.151.516-.22 2.779-2.824 1.192-1.371 2.182-2.493 2.2-2.493.019 0 .972 1.08 2.119 2.4 1.147 1.32 2.161 2.469 2.253 2.554.654.598 1.755.576 2.379-.049.344-.344.424-.554.769-2.032.047-.202.108-.386.135-.409.028-.023.472-.142.988-.263.515-.122 1.029-.267 1.142-.322.873-.425 1.221-1.492.777-2.379-.062-.125-.652-.743-1.926-2.021-1.01-1.012-1.836-1.861-1.836-1.887 0-.026.079-.205.176-.399.433-.869.67-1.778.741-2.836a7.731 7.731 0 0 0-3.44-6.995c-1.406-.938-3.156-1.39-4.884-1.261M12.9 2.817c2.804.43 4.93 2.6 5.302 5.414.069.518.027 1.596-.081 2.069a6.204 6.204 0 0 1-1.67 3.073c-.928.941-2.035 1.519-3.391 1.771-.552.103-1.568.103-2.12 0-2.573-.479-4.485-2.308-5.061-4.844-.108-.473-.15-1.551-.081-2.069A6.278 6.278 0 0 1 7.042 5.2 7.759 7.759 0 0 1 8.24 4.008a6.355 6.355 0 0 1 2.82-1.188c.434-.069 1.4-.071 1.84-.003m-1.272 1.998a1.577 1.577 0 0 0-.594.423c-.065.078-.278.458-.473.844l-.355.703-.633.107c-.887.152-1.215.324-1.482.781-.082.138-.109.247-.123.493-.031.531.1.774.814 1.513l.445.461-.135.56c-.116.482-.133.616-.122.96.011.354.026.425.13.614.238.435.61.633 1.115.594.446-.034.515-.064 1.626-.718l.18-.107.48.284c.837.495.936.533 1.399.533.307 0 .43-.016.529-.071.22-.12.411-.313.521-.525.089-.172.108-.267.119-.604.012-.346-.004-.476-.121-.96l-.134-.56.485-.505c.613-.639.749-.874.773-1.341.015-.284.005-.354-.082-.543-.227-.497-.579-.695-1.53-.86l-.64-.111-.344-.676c-.383-.753-.589-1.022-.917-1.201-.257-.14-.684-.18-.931-.088m.692 2.306c.421.839.694 1.051 1.52 1.179.231.036.444.073.474.083.034.011-.094.173-.347.438-.658.689-.752 1.011-.551 1.894.057.251.104.461.104.468 0 .007-.185-.097-.41-.232-.551-.329-.725-.391-1.09-.391-.365 0-.539.062-1.09.391-.225.135-.41.232-.409.217 0-.015.045-.217.099-.448.119-.507.124-.754.024-1.078-.091-.291-.19-.43-.638-.891-.224-.231-.319-.355-.282-.367.031-.011.245-.048.476-.084.815-.126 1.108-.359 1.538-1.216.144-.288.271-.524.282-.524.011 0 .146.252.3.561m-5.349 7.784a7.848 7.848 0 0 0 3.078 1.596l.429.111-.109.124-1.937 2.229c-1.006 1.158-1.862 2.113-1.902 2.124a.262.262 0 0 1-.29-.138c-.022-.05-.122-.442-.222-.871s-.23-.879-.288-1c-.185-.386-.603-.758-.99-.882a29.242 29.242 0 0 0-1.031-.259c-.897-.214-.985-.252-.988-.438-.001-.051.586-.666 1.687-1.769l1.689-1.69.253.277c.139.152.419.416.621.586m14.309 2.582a.316.316 0 0 1-.072.153c-.058.072-.246.13-.99.305-1.036.244-1.318.359-1.616.657-.292.292-.414.585-.639 1.537-.208.88-.237.941-.444.941-.089 0-.342-.272-1.646-1.77l-1.944-2.234-.405-.465.428-.11a8.553 8.553 0 0 0 1.671-.643c.756-.409 1.548-1.01 2.028-1.542l.249-.275 1.69 1.69c.929.93 1.69 1.72 1.69 1.756" fill-rule="evenodd" fill="#000"/></svg>