<svg width="24" height="24" fill="none" xmlns="http://www.w3.org/2000/svg"><path d="M6.02 2.666a3.253 3.253 0 0 0-2.479 1.859c-.343.721-.367 1.709-.061 2.525.262.702 1.028 1.476 1.749 1.769.72.292 1.742.292 2.462 0 .721-.293 1.487-1.067 1.749-1.769.217-.578.273-1.33.145-1.929-.121-.564-.485-1.189-.935-1.605-.614-.569-1.239-.827-2.07-.855a4.805 4.805 0 0 0-.56.005m11.08 0a3.253 3.253 0 0 0-2.479 1.859c-.343.721-.367 1.709-.061 2.525.262.702 1.028 1.476 1.749 1.769.72.292 1.742.292 2.462 0 .721-.293 1.487-1.067 1.749-1.769.217-.578.273-1.33.145-1.929-.121-.564-.485-1.189-.935-1.605-.614-.569-1.239-.827-2.07-.855a4.805 4.805 0 0 0-.56.005M6.976 4.224c.425.12.825.479 1.036.928.229.49.192 1.134-.091 1.58-.598.944-1.854 1.107-2.641.343-.381-.369-.538-.773-.512-1.316.013-.276.039-.391.14-.607.378-.807 1.197-1.174 2.068-.928m11.08 0c.425.12.825.479 1.036.928.229.49.192 1.134-.091 1.58-.598.944-1.854 1.107-2.641.343-.381-.369-.538-.773-.512-1.316.013-.276.039-.391.14-.607.378-.807 1.197-1.174 2.068-.928M5.742 15.026c-.784.168-1.516.684-1.982 1.397-.343.526-.488 1.036-.488 1.717-.001.537.08.937.269 1.335.432.911 1.16 1.519 2.139 1.789.361.1 1.199.1 1.56 0 .979-.27 1.707-.878 2.139-1.789.343-.721.367-1.709.061-2.525-.262-.702-1.028-1.476-1.749-1.769-.532-.216-1.358-.282-1.949-.155m11.08 0c-.784.168-1.516.684-1.982 1.397-.343.526-.488 1.036-.488 1.717-.001.537.08.937.269 1.335.432.911 1.16 1.519 2.139 1.789.361.1 1.199.1 1.56 0 .979-.27 1.707-.878 2.139-1.789.343-.721.367-1.709.061-2.525-.262-.702-1.028-1.476-1.749-1.769-.532-.216-1.358-.282-1.949-.155M6.895 16.5a1.754 1.754 0 0 1 1.208 1.176c.046.157.061.326.049.565-.071 1.506-1.925 2.169-2.952 1.054-.471-.511-.576-1.295-.258-1.935.11-.222.43-.552.672-.694a1.73 1.73 0 0 1 1.281-.166m11.08 0a1.754 1.754 0 0 1 1.208 1.176c.046.157.061.326.049.565-.071 1.506-1.925 2.169-2.952 1.054-.471-.511-.576-1.295-.258-1.935.11-.222.43-.552.672-.694a1.73 1.73 0 0 1 1.281-.166" fill-rule="evenodd" fill="#000"/></svg>