<svg width="24" height="24" fill="none" xmlns="http://www.w3.org/2000/svg"><path d="M17.081 1.308a.61.61 0 0 0-.403.348c-.039.09-.139.475-.221.854l-.15.69h-5.096l.137-.55c.201-.807.158-1.03-.239-1.228-.238-.119-.602-.139-.787-.043-.216.112-.283.299-.622 1.731l-.022.09H8.569c-.61.001-1.267.019-1.459.041a2.985 2.985 0 0 0-2.411 1.828C4.598 5.319.443 18.637.345 19.025a2.942 2.942 0 0 0 .418 2.373c.527.788 1.262 1.225 2.224 1.323.304.031 3.076.04 9.333.031l8.9-.012.314-.09a3.065 3.065 0 0 0 1.946-1.665c.171-.38.24-.723.24-1.188 0-.229-.224-3.495-.498-7.257-.438-6.027-.508-6.873-.584-7.12-.341-1.1-1.104-1.839-2.198-2.128-.157-.041-.559-.064-1.41-.08-.655-.012-1.19-.029-1.19-.038 0-.01.048-.228.108-.485.135-.588.144-.919.03-1.076-.152-.209-.607-.363-.897-.305M9.301 4.77c-.074.223-.381 1.602-.381 1.712 0 .359.356.638.815.638.307 0 .465-.089.576-.326.045-.096.184-.602.309-1.124l.228-.95h2.556c1.707 0 2.556.014 2.556.041 0 .022-.072.373-.16.779-.177.816-.196 1.087-.09 1.266.101.171.442.326.723.329.283.003.452-.09.569-.313.047-.089.178-.592.292-1.122l.206-.96h2.64l.227.106c.318.149.569.395.723.708.12.244.13.294.128.645-.002.365-.073.662-1.71 7.216-.975 3.905-1.746 6.912-1.797 7.015-.146.292-.37.515-.662.659l-.267.131H2.82l-.225-.11c-.56-.276-.934-.973-.836-1.558.03-.178 4.187-13.583 4.319-13.929.13-.338.559-.728.926-.843.244-.076 2.322-.085 2.297-.01m12.642 10.69c.174 2.389.295 4.28.284 4.441-.027.385-.171.678-.47.956-.391.361-.489.383-1.723.383-.819 0-1.038-.011-1.021-.05.013-.027.069-.162.126-.298.056-.137.625-2.351 1.264-4.92.639-2.57 1.174-4.708 1.188-4.752l.026-.08.012.08c.006.044.148 1.952.314 4.24M7.495 11.276c-.229.039-.369.142-.457.337-.168.37-.051.877.242 1.046.138.08.197.081 4.42.081s4.282-.001 4.42-.081c.424-.245.424-1.073 0-1.318-.138-.08-.202-.081-4.3-.087-2.288-.003-4.234.007-4.325.022m-1 4c-.229.039-.369.142-.457.337-.168.37-.051.877.242 1.046.138.08.197.081 4.42.081s4.282-.001 4.42-.081c.424-.245.424-1.073 0-1.318-.138-.08-.202-.081-4.3-.087-2.288-.003-4.234.007-4.325.022" fill-rule="evenodd" fill="#000"/></svg>