<svg width="24" height="24" fill="none" xmlns="http://www.w3.org/2000/svg"><path d="M2.787 6.278c-.341.067-.519.314-.519.722 0 .462.207.693.663.739.137.014 4.317.02 9.289.013 8.957-.012 9.041-.013 9.176-.092.273-.161.396-.478.327-.845a.646.646 0 0 0-.327-.475c-.135-.079-.213-.08-9.296-.086-5.038-.003-9.229.008-9.313.024m0 5c-.341.067-.519.314-.519.722 0 .462.207.693.663.739.137.014 4.317.02 9.289.013 8.957-.012 9.041-.013 9.176-.092.273-.161.396-.478.327-.845a.646.646 0 0 0-.327-.475c-.135-.079-.213-.08-9.296-.086-5.038-.003-9.229.008-9.313.024m0 5c-.341.067-.519.314-.519.722 0 .462.207.693.663.739.137.014 4.317.02 9.289.013 8.957-.012 9.041-.013 9.176-.092.273-.161.396-.478.327-.845a.646.646 0 0 0-.327-.475c-.135-.079-.213-.08-9.296-.086-5.038-.003-9.229.008-9.313.024" fill-rule="evenodd" fill="#000"/></svg>