<svg width="24" height="24" fill="none" xmlns="http://www.w3.org/2000/svg"><path d="M12.7 1.267C9.05 1.43 5.794 3.559 4.361 6.72a8.518 8.518 0 0 0-.76 3.447l-.001.466-.255.203c-.904.719-1.627 1.868-1.923 3.053-.478 1.918.09 3.903 1.528 5.348l.455.457-.107.82c-.118.903-.113 1.098.036 1.424a1.374 1.374 0 0 0 1.726.718c.044-.017.667-.378 1.385-.803 1.272-.753 1.311-.773 1.526-.773.343 0 1.087-.141 1.56-.296.842-.276 1.707-.775 2.307-1.33l.295-.273.401.014.402.013 2.002 1.191A147 147 0 0 0 17.1 21.67c.366.186.87.231 1.273.114.696-.203 1.226-.909 1.228-1.638 0-.135-.076-.856-.168-1.603l-.169-1.356.218-.181c.12-.099.435-.398.7-.663.746-.748 1.193-1.374 1.676-2.349a8.356 8.356 0 0 0 .824-2.734c.07-.548.059-1.64-.021-2.2-.573-3.98-3.842-7.102-8.061-7.697a12.281 12.281 0 0 0-1.9-.096m1.98 1.61c2.14.403 3.942 1.497 5.15 3.127 1.483 2 1.827 4.586.912 6.846-.467 1.154-1.332 2.31-2.271 3.034-.498.384-.698.598-.728.781-.016.096.051.779.176 1.787.11.897.201 1.657.201 1.69 0 .085-.147.218-.242.218-.045 0-1.054-.577-2.241-1.283-1.276-.757-2.216-1.292-2.298-1.305-.077-.012-.139-.036-.139-.053s.071-.208.158-.425c.66-1.644.47-3.588-.497-5.094-.972-1.513-2.603-2.537-4.461-2.8-.53-.075-1.5-.058-2.041.036a7.63 7.63 0 0 0-1.193.315c-.05.019-.055-.023-.033-.283.103-1.216.709-2.656 1.561-3.708 1.346-1.661 3.28-2.691 5.586-2.975a18.83 18.83 0 0 1 1.04-.006c.72.009.992.029 1.36.098m-6.52 8.021c2.081.281 3.686 1.741 4.021 3.657.342 1.954-.818 3.888-2.821 4.702-.47.191-1.168.341-1.6.343-.425.002-.496.034-1.768.788-.683.405-1.247.73-1.254.724-.006-.007.032-.354.085-.772.127-.995.132-1.208.034-1.375-.042-.071-.212-.235-.378-.363-1.494-1.157-2.075-2.956-1.513-4.682.475-1.454 1.894-2.649 3.534-2.974a4.715 4.715 0 0 1 1.66-.048" fill-rule="evenodd" fill="#000"/></svg>