<svg width="24" height="24" fill="none" xmlns="http://www.w3.org/2000/svg"><path d="M11.32 1.281c-4.279.244-8.068 3.128-9.477 7.216a10.886 10.886 0 0 0-.279 6.053 10.76 10.76 0 0 0 7.886 7.886 10.96 10.96 0 0 0 5.1 0 10.76 10.76 0 0 0 7.886-7.886 10.96 10.96 0 0 0 0-5.1 10.758 10.758 0 0 0-8.694-8.052c-.408-.067-1.668-.169-1.862-.151l-.56.034m1.826 1.541a9.086 9.086 0 0 1 2.914.874c2.817 1.383 4.708 4.026 5.118 7.158.123.932.066 2.172-.144 3.144-.289 1.345-1.031 2.857-1.913 3.902a9.31 9.31 0 0 1-3.061 2.404 8.94 8.94 0 0 1-4.06.936 8.93 8.93 0 0 1-4.06-.936c-2.817-1.383-4.708-4.026-5.118-7.158-.123-.932-.066-2.172.144-3.144.211-.982.737-2.227 1.302-3.082a9.335 9.335 0 0 1 6.552-4.097c.56-.077 1.749-.077 2.326-.001M9.08 6.339c-.474.071-.811.166-1.154.324-.966.446-1.552 1.218-1.816 2.393-.087.391-.09.47-.09 2.464 0 1.84.008 2.103.075 2.46.218 1.173.683 1.889 1.49 2.294.513.258.999.363 1.828.394l.634.024.41.544c.662.878.924 1.057 1.543 1.057.619 0 .881-.179 1.543-1.057l.411-.545.493-.021c1.533-.065 2.606-.706 3.154-1.885.352-.757.412-1.321.388-3.625-.016-1.564-.026-1.776-.099-2.1-.354-1.567-1.352-2.479-2.975-2.717-.354-.052-.852-.062-2.96-.059-1.821.004-2.631.019-2.875.055m5.926 1.53c.812.227 1.232.664 1.419 1.475.084.363.126 3.101.058 3.796-.093.959-.37 1.469-.966 1.778-.339.176-.672.245-1.355.282-.638.033-.813.07-1.022.215-.152.106-.176.133-.687.795-.234.302-.438.55-.454.55-.015 0-.195-.22-.4-.49-.752-.992-.802-1.02-1.899-1.072-1.342-.065-1.752-.26-2.009-.958-.174-.473-.191-.715-.189-2.74.002-1.831.006-1.934.086-2.223.178-.635.452-1.008.899-1.223.577-.277.712-.287 3.673-.278 2.463.007 2.549.01 2.846.093" fill-rule="evenodd" fill="#000"/></svg>