<svg width="24" height="24" fill="none" xmlns="http://www.w3.org/2000/svg"><path d="M8.08 1.282c-4.072.213-6.185 2.014-6.697 5.709-.113.812-.141 1.825-.141 5.009 0 4.504.06 5.273.518 6.65.772 2.313 2.446 3.576 5.267 3.972.759.106 1.875.137 4.973.137s4.214-.031 4.973-.137c2.47-.347 4.023-1.334 4.924-3.132.482-.96.741-2.121.823-3.683.051-.969.051-6.645 0-7.614-.063-1.195-.199-2.002-.478-2.837-.61-1.825-1.773-2.989-3.592-3.596-.862-.287-1.627-.416-2.844-.48-.854-.045-6.854-.043-7.726.002m8.72 1.572c2.786.462 3.914 1.6 4.348 4.386.066.421.072.824.072 4.76s-.006 4.339-.072 4.76c-.436 2.798-1.59 3.952-4.388 4.388-.421.066-.824.072-4.76.072s-4.339-.006-4.76-.072c-2.79-.435-3.957-1.597-4.386-4.368-.069-.445-.074-.791-.074-4.78 0-4.753-.004-4.663.264-5.712C3.557 4.282 4.722 3.274 6.96 2.9c.73-.123 1.088-.131 5.24-.123 3.763.007 4.222.014 4.6.077M8.515 5.342c-1.955.304-3.049 1.36-3.423 3.304-.064.334-.072.628-.072 2.754 0 2.55.013 2.759.224 3.529.106.386.388.956.613 1.24.645.811 1.798 1.231 3.38 1.231h.512l.483.65c.548.739.778.98 1.081 1.131.558.278 1.298.175 1.769-.246.095-.085.404-.465.687-.845l.514-.69h.39c.836 0 1.587-.162 2.238-.482 1.168-.575 1.814-1.546 2.059-3.098.036-.23.05-.939.049-2.52-.002-2.352-.017-2.581-.222-3.27-.455-1.531-1.607-2.467-3.332-2.707-.483-.067-6.503-.051-6.95.019m7.105 1.514c1.106.281 1.699.973 1.859 2.167.034.253.043.99.032 2.537-.014 2.097-.018 2.192-.103 2.5-.356 1.295-1.235 1.856-2.914 1.859-.512.001-.857.087-1.106.277-.083.064-.404.452-.712.862-.308.41-.586.756-.619.769-.089.034-.149-.032-.722-.794-.784-1.041-.837-1.071-2.015-1.118-.933-.038-1.411-.12-1.811-.311-.605-.288-.907-.941-.99-2.137-.048-.702-.048-3.568.001-4.147.113-1.348.66-2.106 1.731-2.4.17-.047.421-.1.559-.118.137-.019 1.663-.03 3.39-.025 2.861.007 3.165.014 3.42.079" fill-rule="evenodd" fill="#000"/></svg>