<svg width="24" height="24" fill="none" xmlns="http://www.w3.org/2000/svg"><path d="M6.72 1.301a7.505 7.505 0 0 0-1.497.319c-1.861.603-3.096 1.882-3.638 3.77-.307 1.07-.359 1.97-.334 5.783.019 3.053.038 3.395.233 4.346.403 1.965 1.422 3.204 3.093 3.76.819.272 1.664.391 3.043.427.683.017.943.038 1.009.079.049.031.467.557.928 1.169.846 1.126 1.036 1.33 1.443 1.559a2.138 2.138 0 0 0 2 0c.406-.228.597-.434 1.437-1.549.458-.607.866-1.133.907-1.169.062-.052.219-.069.836-.09 1.072-.035 1.685-.118 2.4-.324 1-.288 1.777-.734 2.441-1.399.936-.939 1.457-2.145 1.667-3.862.074-.602.074-6.683 0-7.28-.22-1.779-.719-2.938-1.674-3.893-.935-.936-2.22-1.484-3.902-1.665-.61-.066-9.852-.048-10.392.019m10.767 1.53c1.99.38 3.105 1.383 3.548 3.189.186.762.185.734.185 4.46 0 3.504-.001 3.545-.09 4.007-.407 2.116-1.517 3.227-3.61 3.61-.367.068-1.405.143-1.971.143-.546 0-.969.174-1.315.54a34.56 34.56 0 0 0-.954 1.231c-.868 1.152-.985 1.268-1.28 1.268-.296 0-.411-.115-1.288-1.279-.881-1.17-1.037-1.351-1.295-1.504-.326-.191-.597-.256-1.073-.256-.756-.001-1.93-.079-2.412-.161-1.075-.184-1.82-.566-2.27-1.165-.483-.642-.75-1.483-.862-2.714-.063-.687-.033-7.285.035-7.6a27.6 27.6 0 0 1 .133-.58c.428-1.793 1.608-2.851 3.546-3.179.256-.043.547-.085.646-.094.099-.008 2.358-.012 5.02-.01 4.832.005 4.841.005 5.307.094M12.64 7.69c-.073.05-.167.137-.21.194-.042.057-.546 1.191-1.119 2.52-1.144 2.654-1.169 2.729-.994 3.012.112.18.506.384.743.384.196 0 .395-.118.524-.309.047-.071.556-1.225 1.131-2.566.88-2.053 1.045-2.468 1.045-2.629 0-.262-.119-.428-.416-.577-.292-.147-.517-.156-.704-.029m-4.92.299c-.147.07-1.91 1.784-2.243 2.181-.261.31-.312.486-.216.739.059.157.256.376 1.096 1.225.563.568 1.11 1.097 1.215 1.175.236.173.47.212.681.112.198-.094.452-.38.51-.576.092-.307.002-.444-.887-1.345l-.789-.8.789-.8c.889-.901.979-1.038.887-1.345-.057-.192-.311-.481-.501-.571a.618.618 0 0 0-.542.005m8.011-.004c-.187.093-.438.382-.494.57-.092.307-.002.444.887 1.345l.789.8-.789.8c-.889.901-.979 1.038-.887 1.345.027.09.12.24.207.335.329.357.64.39 1.007.107.116-.089.662-.618 1.213-1.175.821-.829 1.016-1.047 1.075-1.203.146-.384.058-.508-1.364-1.911-.537-.531-1.019-.972-1.101-1.01a.62.62 0 0 0-.543-.003" fill-rule="evenodd" fill="#000"/></svg>