<svg width="24" height="24" fill="none" xmlns="http://www.w3.org/2000/svg"><path d="M6.3 1.725a6.018 6.018 0 0 0-2.709.942 6.17 6.17 0 0 0-.68.568c-.978.943-1.525 2.198-1.632 3.745-.05.716-.048 6.316.002 6.97l.04.531-.22.322c-.563.821-.833 1.709-.832 2.737.002 1.812 1.042 3.447 2.698 4.239a4.521 4.521 0 0 0 2.273.447c1.102-.054 1.95-.387 2.794-1.097.559-.47.967-1 1.273-1.654l.148-.315h1.287l2.247 1.498c1.539 1.026 2.309 1.516 2.444 1.556.699.208 1.294.064 1.79-.431.445-.445.535-.772.536-1.948l.001-.706.23-.027c1.147-.136 2.34-.712 3.15-1.522.942-.941 1.47-2.174 1.579-3.688.052-.718.052-6.187 0-6.906-.066-.92-.257-1.666-.602-2.353-.85-1.691-2.45-2.727-4.497-2.913-.537-.049-10.795-.045-11.32.005m11.66 1.529c.926.185 1.587.534 2.184 1.152.515.532.79 1.057 1.005 1.914.057.229.067.701.08 3.9.01 2.484.001 3.745-.029 3.971-.139 1.058-.645 1.983-1.425 2.609-.683.547-1.445.808-2.558.876-.604.037-.755.097-.883.355-.066.134-.075.277-.087 1.389-.015 1.378-.019 1.402-.266 1.372-.076-.01-.948-.568-2.361-1.511-1.232-.823-2.303-1.519-2.38-1.547-.091-.033-.373-.051-.804-.052l-.665-.002-.027-.41c-.085-1.248-.544-2.272-1.403-3.131-.61-.61-1.303-1.008-2.173-1.247-.355-.098-.452-.107-1.148-.109-.661-.001-.807.01-1.12.089a7.305 7.305 0 0 0-1.092.395c-.042.019-.049-.599-.037-3.332.013-2.933.023-3.388.08-3.615.214-.856.49-1.381 1.005-1.914.71-.736 1.539-1.109 2.682-1.206.199-.017 2.774-.027 5.722-.022 4.855.008 5.392.015 5.7.076M8.176 9.803c-.288.084-.442.39-.405.804.024.267.112.433.284.538.12.072.273.075 3.945.075 3.672 0 3.825-.003 3.945-.075.209-.127.275-.282.275-.645 0-.363-.066-.518-.275-.645-.12-.072-.278-.075-3.885-.082-2.166-.004-3.813.009-3.884.03m-2.837 4.479c.922.105 1.627.497 2.228 1.238.898 1.106.885 2.831-.028 3.994-1.067 1.357-2.967 1.629-4.419.632-.463-.318-.936-.936-1.157-1.513-.165-.43-.218-.791-.193-1.319.026-.521.115-.854.355-1.318.494-.955 1.521-1.633 2.615-1.729.088-.007.178-.016.2-.02.022-.003.201.012.399.035m1.083 1.466c-.157.042-.379.224-1.16.947l-.798.739-.309-.291c-.447-.421-.673-.504-.977-.359-.19.09-.444.379-.501.571-.089.296.01.459.7 1.15.783.785.973.883 1.335.685.21-.115 2.423-2.16 2.537-2.345a.62.62 0 0 0 .086-.324c0-.422-.535-.875-.913-.773" fill-rule="evenodd" fill="#000"/></svg>