<svg width="24" height="24" fill="none" xmlns="http://www.w3.org/2000/svg"><path d="M6.72 1.301a7.505 7.505 0 0 0-1.497.319c-1.861.603-3.096 1.882-3.638 3.77-.307 1.07-.359 1.97-.334 5.783.019 3.053.038 3.395.233 4.346.403 1.965 1.422 3.204 3.093 3.76.819.272 1.664.391 3.043.427.683.017.943.038 1.009.079.049.031.467.557.928 1.169.473.63.921 1.184 1.03 1.275.436.363.883.531 1.413.531.591 0 1.1-.218 1.544-.662.265-.265.393-.472.434-.7.061-.332-.348-.756-.76-.79-.257-.021-.414.061-.637.334-.17.207-.399.338-.589.337-.287-.001-.409-.123-1.272-1.268-.451-.598-.883-1.153-.96-1.232-.368-.378-.796-.539-1.434-.539-.74-.001-1.917-.08-2.394-.161-1.075-.184-1.82-.566-2.27-1.165-.483-.642-.75-1.483-.862-2.714-.063-.687-.033-7.285.035-7.6.125-.585.23-.968.346-1.265.54-1.377 1.62-2.184 3.353-2.505l.486-.09h9.96l.486.09c1.972.365 3.11 1.366 3.555 3.129.194.768.192.729.216 4.081.022 2.992.027 3.189.097 3.329.118.236.308.331.666.331.358 0 .548-.095.666-.331.07-.141.074-.306.074-3.129 0-3.045-.01-3.3-.165-4.16-.228-1.263-.761-2.333-1.561-3.133-.935-.936-2.22-1.484-3.902-1.665-.61-.066-9.852-.048-10.392.019m.85 8.772c-.373.133-.531.366-.561.827-.043.662.253 1.033.867 1.089.453.041.849-.131 1.012-.439.075-.141.09-.235.091-.553.001-.357-.007-.397-.119-.578-.163-.263-.402-.386-.791-.406a1.17 1.17 0 0 0-.499.06m4 .002c-.414.143-.548.369-.548.925 0 .421.076.634.282.796.331.261 1.012.263 1.374.005.221-.157.3-.368.3-.801 0-.314-.015-.409-.088-.547-.208-.393-.791-.561-1.32-.378m4.044-.018c-.237.075-.402.204-.504.396-.127.242-.127.852 0 1.094.202.382.748.55 1.277.393.255-.075.392-.183.503-.394.073-.137.088-.232.088-.546 0-.421-.076-.634-.282-.796-.236-.186-.74-.254-1.082-.147m2.166 4.227a3.91 3.91 0 0 0-2.362 1.134c-1.341 1.341-1.534 3.387-.472 5.012.193.296.728.831 1.024 1.024 1.308.855 2.965.907 4.242.133l.193-.117.629.621c.699.691.807.755 1.131.668.221-.06.534-.373.594-.594.087-.324.023-.432-.668-1.131l-.621-.629.117-.193c.545-.899.692-2.075.391-3.115a3.78 3.78 0 0 0-.996-1.679c-.665-.664-1.461-1.037-2.425-1.136a6.737 6.737 0 0 0-.431-.037c-.014.003-.17.021-.346.039m1.016 1.537c.409.097.785.316 1.126.657.496.497.717 1.026.717 1.722s-.221 1.225-.717 1.722c-.497.496-1.026.717-1.722.717s-1.225-.221-1.722-.717c-.496-.497-.717-1.026-.717-1.722s.221-1.225.717-1.722c.334-.334.717-.56 1.108-.655a3.303 3.303 0 0 1 1.21-.002" fill-rule="evenodd" fill="#000"/></svg>