<svg width="24" height="24" fill="none" xmlns="http://www.w3.org/2000/svg"><path d="M9.06 1.267c-2.332.114-4.57 1.199-6.012 2.913C1.345 6.204.821 8.868 1.641 11.331c.447 1.343 1.298 2.563 2.457 3.522l.318.263.622 1.373c.342.755.67 1.454.729 1.553.131.222.446.522.666.634.666.34 1.457.236 2.011-.264l.154-.14.271.237c1.346 1.178 2.964 1.871 4.796 2.053l.484.048.706.847c.759.91.961 1.087 1.377 1.208.291.085.734.086 1.015.002.301-.09.697-.361.879-.603.083-.11.442-.844.816-1.669.625-1.376.679-1.478.825-1.575.227-.15 1.003-.911 1.28-1.255.871-1.083 1.413-2.296 1.618-3.625.082-.532.08-1.593-.004-2.138-.443-2.899-2.488-5.248-5.429-6.239l-.429-.145-.2-.33c-.858-1.411-2.289-2.591-3.943-3.248-.397-.158-1.2-.38-1.656-.459-.325-.056-1.45-.148-1.624-.133-.044.004-.188.012-.32.019m1.9 1.626c1.777.387 3.281 1.364 4.216 2.741.436.641.788 1.461.949 2.208.118.547.13 1.621.024 2.187-.36 1.927-1.669 3.595-3.524 4.49-.919.443-1.72.644-2.849.716-.395.026-.556.052-.651.108-.069.041-.486.511-.925 1.043-.44.533-.838.981-.884.995-.186.059-.265-.073-.954-1.583a94.5 94.5 0 0 0-.731-1.581c-.036-.068-.207-.228-.379-.356-.41-.305-1.093-1.001-1.387-1.414a7.14 7.14 0 0 1-.821-1.62c-.2-.625-.249-.927-.272-1.647-.024-.777.048-1.307.269-1.984C3.72 5.12 5.54 3.496 7.8 2.953c.656-.158.982-.189 1.86-.174.711.012.91.03 1.3.114m6.882 4.548c1.296.654 2.439 1.895 2.986 3.242.272.67.374 1.172.4 1.977.025.79-.052 1.368-.27 2.02-.168.504-.55 1.248-.849 1.653a8.038 8.038 0 0 1-1.209 1.258c-.533.427-.483.346-1.244 2.018-.752 1.651-.777 1.693-.995 1.608-.053-.02-.456-.471-.896-1.002-.879-1.059-.923-1.095-1.342-1.095-.638 0-1.647-.179-2.3-.407-.819-.287-1.719-.817-2.273-1.339l-.291-.274.151-.172.15-.173.44-.039c3.574-.323 6.543-2.82 7.274-6.119.201-.905.23-1.859.085-2.757a6.991 6.991 0 0 0-.083-.45c-.028-.093-.013-.09.266.051m-11.055.837c-.342.068-.519.314-.519.722 0 .462.207.692.663.74.137.014 1.392.02 2.789.013 2.456-.013 2.544-.016 2.676-.093.273-.161.396-.478.327-.845a.646.646 0 0 0-.327-.475c-.132-.078-.214-.08-2.796-.086-1.463-.004-2.729.007-2.813.024" fill-rule="evenodd" fill="#000"/></svg>