<svg width="24" height="24" fill="none" xmlns="http://www.w3.org/2000/svg"><path d="M7.312 1.283C3.948 1.479 1.926 3.182 1.4 6.261c-.125.73-.159 1.659-.159 4.359 0 2.538.033 3.572.138 4.316.359 2.557 1.521 3.977 3.701 4.52.654.162 1.172.222 2.34.268.594.024 1.118.05 1.164.059.055.01.389.422.965 1.187.642.855.939 1.217 1.096 1.337.862.658 1.848.659 2.71 0 .156-.119.456-.486 1.105-1.348l.89-1.183.975-.048c1.028-.051 1.622-.134 2.235-.31 1.985-.571 3.287-1.873 3.858-3.857.269-.937.355-2.052.335-4.341-.012-1.395-.018-1.488-.093-1.616a.646.646 0 0 0-.475-.327c-.367-.069-.684.054-.845.327-.077.13-.081.231-.104 2.316-.025 2.31-.035 2.435-.243 3.195-.347 1.267-1.125 2.187-2.245 2.656-.752.315-1.356.423-2.608.468-1.077.038-1.221.067-1.611.318-.217.14-.34.285-1.085 1.277-.462.616-.903 1.182-.98 1.259-.246.246-.522.281-.811.103-.085-.053-.473-.532-1.03-1.273-.965-1.282-1.019-1.336-1.555-1.555-.237-.097-.298-.103-1.388-.133-1.72-.047-2.396-.174-3.24-.611-.315-.163-.863-.731-1.047-1.084-.317-.611-.506-1.344-.593-2.3-.032-.344-.041-1.564-.031-3.92.016-3.637.015-3.623.216-4.36.437-1.603 1.372-2.538 2.975-2.975.733-.2.709-.199 4.62-.223 3.587-.021 3.683-.024 3.816-.102.273-.161.396-.478.327-.845a.646.646 0 0 0-.327-.475c-.133-.078-.212-.08-3.336-.085-1.76-.002-3.447.01-3.748.028M19.14 1.28c-.735.078-1.318.351-1.875.878-.454.43-.807 1.039-.927 1.602-.083.387-.083 1.092-.001 1.473.249 1.154 1.276 2.181 2.43 2.43.379.082 1.087.082 1.466 0 1.154-.249 2.181-1.276 2.43-2.43.082-.379.082-1.087 0-1.466-.159-.74-.689-1.508-1.353-1.961-.606-.414-1.403-.607-2.17-.526m1.107 1.65c.371.183.668.485.845.86.12.253.128.298.128.71s-.008.457-.128.71a1.828 1.828 0 0 1-.847.861c-.293.145-.313.149-.745.149s-.452-.004-.745-.149a1.828 1.828 0 0 1-.847-.861c-.12-.253-.128-.298-.128-.71s.008-.457.127-.709a1.843 1.843 0 0 1 1.072-.961c.153-.055.293-.069.585-.06.35.011.412.026.683.16M7.57 10.073c-.373.133-.531.366-.561.827-.043.662.253 1.033.867 1.089.453.041.849-.131 1.012-.439.075-.141.09-.235.091-.553.001-.357-.007-.397-.119-.578-.163-.263-.402-.386-.791-.406a1.17 1.17 0 0 0-.499.06m4 .002c-.414.143-.548.369-.548.925 0 .421.076.634.282.796.331.261 1.012.263 1.374.005.221-.157.3-.368.3-.801 0-.314-.015-.409-.088-.547-.208-.393-.791-.561-1.32-.378m4.044-.018c-.237.075-.402.204-.504.396-.127.242-.127.852 0 1.094.202.382.748.55 1.277.393.255-.075.392-.183.503-.394.073-.137.088-.232.088-.546 0-.421-.076-.634-.282-.796-.236-.186-.74-.254-1.082-.147" fill-rule="evenodd" fill="#000"/></svg>