<svg width="24" height="24" fill="none" xmlns="http://www.w3.org/2000/svg"><path d="M6.3 1.725a6.018 6.018 0 0 0-2.709.942 6.17 6.17 0 0 0-.68.568c-.978.943-1.525 2.198-1.632 3.745-.049.71-.048 6.227.002 6.913.021.304.068.691.103.86.5 2.429 2.245 4.033 4.749 4.365.183.025 1.206.042 2.469.042h2.156l2.171 1.447c1.194.795 2.261 1.487 2.371 1.538 1.035.472 2.255-.2 2.419-1.332.022-.15.04-.59.04-.978l.001-.706.23-.028a5.547 5.547 0 0 0 3.152-1.525c.943-.941 1.468-2.168 1.577-3.684.052-.718.052-6.187 0-6.906-.066-.92-.257-1.666-.602-2.353-.85-1.691-2.45-2.727-4.497-2.913-.537-.049-10.795-.045-11.32.005m11.66 1.529c.926.185 1.587.534 2.184 1.152.515.532.79 1.057 1.005 1.914.057.229.067.701.08 3.9.01 2.484.001 3.745-.029 3.971-.173 1.313-.917 2.424-2 2.985-.605.314-1.139.448-1.983.5-.604.037-.755.097-.883.355-.066.134-.075.277-.087 1.389-.015 1.378-.019 1.402-.266 1.372-.076-.01-.948-.568-2.361-1.511-1.232-.823-2.303-1.519-2.38-1.547-.106-.038-.678-.051-2.387-.052-2.808-.002-3.068-.033-3.953-.464-1.162-.566-1.92-1.659-2.1-3.027-.03-.226-.039-1.487-.029-3.971.013-3.199.023-3.671.08-3.9.215-.857.49-1.382 1.005-1.914.71-.736 1.539-1.109 2.682-1.206.199-.017 2.774-.027 5.722-.022 4.855.008 5.392.015 5.7.076M8.176 9.803c-.288.084-.442.39-.405.804.024.267.112.433.284.538.12.072.273.075 3.945.075 3.672 0 3.825-.003 3.945-.075.209-.127.275-.282.275-.645 0-.363-.066-.518-.275-.645-.12-.072-.278-.075-3.885-.082-2.166-.004-3.813.009-3.884.03" fill-rule="evenodd" fill="#000"/></svg>