<svg width="24" height="24" fill="none" xmlns="http://www.w3.org/2000/svg"><path d="M6.3 1.725a6.018 6.018 0 0 0-2.709.942 6.17 6.17 0 0 0-.68.568c-.978.943-1.525 2.198-1.632 3.745-.049.71-.048 6.227.002 6.913a5.87 5.87 0 0 0 .287 1.547 5.18 5.18 0 0 0 3.066 3.298c.402.16 1.006.32 1.376.364l.23.027.001.706c0 .388.018.828.04.978.164 1.132 1.384 1.804 2.419 1.332.11-.051 1.177-.743 2.371-1.538l2.171-1.447 2.169-.001c1.673 0 2.261-.014 2.569-.058 1.287-.185 2.338-.696 3.185-1.548.923-.927 1.446-2.159 1.554-3.661.052-.718.052-6.187 0-6.906-.066-.92-.257-1.666-.602-2.353-.85-1.691-2.45-2.727-4.497-2.913-.537-.049-10.795-.045-11.32.005m11.66 1.529c.926.185 1.587.534 2.184 1.152.515.532.79 1.057 1.005 1.914.057.229.067.701.08 3.9.016 3.862.01 4.018-.173 4.65-.441 1.521-1.677 2.542-3.349 2.768-.186.025-1.22.043-2.56.044-1.709.001-2.281.014-2.387.052-.077.028-1.148.724-2.38 1.547-1.413.943-2.285 1.501-2.361 1.511-.247.03-.251.006-.266-1.372-.012-1.112-.021-1.255-.087-1.389-.128-.258-.279-.318-.883-.355-.844-.052-1.378-.186-1.983-.5-1.083-.561-1.827-1.672-2-2.985-.03-.226-.039-1.487-.029-3.971.013-3.199.023-3.671.08-3.9.215-.857.49-1.382 1.005-1.914.71-.736 1.539-1.109 2.682-1.206.199-.017 2.774-.027 5.722-.022 4.855.008 5.392.015 5.7.076m-6.586 2.943c-.351.095-.524.181-.843.421a2.8 2.8 0 0 0-.697.834c-.23.45-.3 1.162-.144 1.469.126.248.282.328.647.33.5.003.685-.175.746-.72.044-.385.178-.619.455-.79a.903.903 0 0 1 1.222.286c.226.356.195.686-.089.958-.094.09-.27.237-.391.325-.699.513-1.009 1.095-1.016 1.908-.004.441.049.594.261.752.226.168.724.168.95 0 .178-.133.245-.295.271-.655.031-.426.104-.559.446-.815.446-.333.855-.768.996-1.06.324-.671.265-1.556-.147-2.193-.309-.478-.783-.854-1.278-1.012-.383-.123-1.013-.14-1.389-.038m.296 6.858c-.305.113-.405.282-.407.686-.001.314.073.488.27.635.095.071.169.084.467.084.298 0 .372-.013.467-.084.196-.146.271-.321.271-.636 0-.327-.102-.538-.31-.646-.171-.088-.571-.109-.758-.039" fill-rule="evenodd" fill="#000"/></svg>