<svg width="24" height="24" fill="none" xmlns="http://www.w3.org/2000/svg"><path d="M10.18 1.283c-2.568.165-4.184 1.427-4.717 3.681a4.142 4.142 0 0 1-.109.412 5.189 5.189 0 0 1-.354.08c-1.692.351-2.925 1.472-3.437 3.124-.273.881-.322 1.527-.322 4.28-.001 2.109.036 3.06.14 3.68.271 1.597.918 2.605 2.042 3.175.787.399 1.543.55 2.997.599l.8.026.64.849c.777 1.03.949 1.21 1.336 1.402.266.132.333.148.684.162.286.012.452-.002.625-.052.527-.152.731-.341 1.561-1.444l.705-.937h.476c2.349 0 4.052-.89 4.86-2.54a6.24 6.24 0 0 0 .454-1.348l.044-.227.227-.045c2.001-.397 3.29-1.672 3.722-3.68.158-.733.173-1.129.155-3.98-.016-2.571-.021-2.744-.102-3.16-.221-1.142-.626-1.971-1.296-2.65-.847-.86-1.981-1.307-3.578-1.41-.693-.045-6.849-.043-7.553.003m8.3 1.572c.784.185 1.35.469 1.761.883.365.367.559.695.738 1.244.237.726.241.785.241 3.838 0 2.764-.001 2.805-.091 3.21-.258 1.168-.73 1.872-1.534 2.29-.312.163-.716.32-.821.32-.045 0-.054-.397-.055-2.27-.001-2.411-.021-2.757-.202-3.485-.47-1.883-1.755-3.088-3.714-3.484-.696-.141-1.26-.16-4.611-.161H6.924l.062-.21c.096-.326.305-.746.502-1.011.35-.472.885-.83 1.552-1.038.679-.213.731-.215 5.1-.205 3.706.008 4.065.014 4.34.079m-4.46 3.949a4.847 4.847 0 0 1 1.492.419c.636.309 1.135.879 1.409 1.607.279.743.332 1.509.307 4.414-.023 2.727-.06 3.038-.464 3.856-.568 1.151-1.623 1.677-3.464 1.726-.829.023-1.123.087-1.429.314-.127.093-.428.456-.91 1.098-.396.527-.755.977-.798 1a.337.337 0 0 1-.381-.044c-.06-.047-.402-.474-.759-.95-.357-.475-.719-.925-.804-1a2.194 2.194 0 0 0-.417-.259c-.259-.121-.271-.123-1.142-.151-1.346-.044-1.909-.138-2.493-.414-.568-.269-1.007-.851-1.191-1.58-.189-.747-.188-.718-.205-3.73-.018-3.178-.006-3.394.227-4.113.441-1.365 1.405-2.047 3.122-2.211.401-.038 7.573-.022 7.9.018M6.236 12.28c-.238.041-.401.127-.53.28-.136.162-.186.355-.186.722 0 .406.126.671.394.829.169.099.222.109.586.109s.417-.01.586-.109c.268-.158.394-.423.394-.829 0-.37-.05-.561-.19-.727-.194-.23-.64-.347-1.054-.275m3.524 0a1.81 1.81 0 0 0-.283.073c-.552.215-.648 1.323-.147 1.701.333.251 1.007.251 1.34 0 .404-.305.443-1.184.068-1.548-.199-.193-.619-.29-.978-.226m3.476 0c-.238.041-.401.127-.53.28-.136.162-.186.355-.186.722 0 .406.126.671.394.829.169.099.222.109.586.109s.417-.01.586-.109c.268-.158.394-.423.394-.829 0-.37-.05-.561-.19-.727-.194-.23-.64-.347-1.054-.275" fill-rule="evenodd" fill="#000"/></svg>