<svg width="24" height="24" fill="none" xmlns="http://www.w3.org/2000/svg"><path d="M7.312 1.283c-3.359.193-5.386 1.9-5.912 4.978-.125.73-.159 1.659-.159 4.359 0 2.538.033 3.572.138 4.316.359 2.557 1.521 3.977 3.701 4.52.654.162 1.172.222 2.34.268.594.024 1.118.05 1.164.059.055.01.389.422.965 1.187.642.855.939 1.217 1.096 1.337.862.658 1.848.659 2.71 0 .156-.119.456-.486 1.105-1.348l.89-1.183.975-.048c1.028-.051 1.622-.134 2.235-.31 1.985-.571 3.287-1.873 3.858-3.857.155-.54.256-1.204.301-1.972.052-.893.052-5.285 0-6.178-.115-1.989-.648-3.377-1.701-4.429-1.052-1.053-2.44-1.586-4.429-1.701-.802-.046-8.46-.045-9.277.002M17.46 2.854c1.176.232 1.886.57 2.509 1.192.602.602.956 1.359 1.178 2.514.067.35.073.661.073 3.94 0 3.862.004 3.772-.227 4.615-.347 1.267-1.125 2.187-2.245 2.656-.752.315-1.356.423-2.608.468-1.077.038-1.221.067-1.611.318-.217.14-.34.285-1.085 1.277-.462.616-.903 1.182-.98 1.259-.246.246-.522.281-.811.103-.085-.053-.473-.532-1.03-1.273-.965-1.282-1.019-1.336-1.555-1.555-.237-.097-.298-.103-1.388-.133-1.72-.047-2.396-.174-3.24-.611-.315-.163-.863-.731-1.047-1.084-.317-.611-.506-1.344-.593-2.3-.032-.344-.041-1.564-.031-3.92.013-3.064.022-3.457.085-3.78.229-1.166.57-1.887 1.185-2.501.717-.717 1.591-1.075 3.061-1.254.066-.008 2.343-.012 5.06-.008 4.557.005 4.968.011 5.3.077M6.787 7.278c-.342.067-.519.314-.519.722 0 .462.207.693.663.739.137.014 2.517.02 5.289.013 4.957-.012 5.042-.013 5.176-.092a.646.646 0 0 0 .327-.475c.069-.367-.054-.684-.327-.845-.134-.079-.213-.08-5.296-.086-2.838-.003-5.229.008-5.313.024m0 5c-.342.068-.519.314-.519.722 0 .462.207.693.663.739.137.015 1.617.02 3.289.014 2.956-.013 3.044-.015 3.176-.093a.646.646 0 0 0 .327-.475c.069-.367-.054-.684-.327-.845-.133-.078-.214-.08-3.296-.086-1.738-.003-3.229.007-3.313.024" fill-rule="evenodd" fill="#000"/></svg>