<svg width="24" height="24" fill="none" xmlns="http://www.w3.org/2000/svg"><path d="M8.694 1.284c-2.09.165-3.745 1.522-4.251 3.484-.151.584-.203 1.25-.203 2.594v1.022l-.29.093A3.843 3.843 0 0 0 1.403 11.2c-.144.573-.172 1.243-.151 3.633.02 2.365.03 2.507.23 3.117a3.86 3.86 0 0 0 2.726 2.517l.421.104.021.525c.027.66.106.895.404 1.198.239.244.484.374.804.426.267.043.603-.008.838-.128.087-.044.803-.511 1.591-1.036l1.432-.956h1.471c1.591 0 1.934-.03 2.481-.217.82-.279 1.536-.818 1.968-1.481.095-.146.183-.26.197-.253l.342.171c.308.155.33.16.72.16.369 0 .424-.011.67-.127.341-.162.603-.424.765-.765.126-.265.127-.277.147-1.023l.02-.756.44-.092a4.43 4.43 0 0 0 1.26-.43 4.532 4.532 0 0 0 1.987-1.989c.326-.652.474-1.226.538-2.093.055-.731.02-6.02-.041-6.385-.363-2.149-1.842-3.629-4.004-4.005-.322-.056-9.315-.084-9.986-.031M18.82 2.87c1.182.33 2.002 1.157 2.311 2.33.089.339.089.353.089 3.62v3.28l-.091.32c-.196.688-.425 1.075-.907 1.531-.587.556-1.241.819-2.209.888-.611.044-.767.098-.902.315-.088.141-.091.184-.103 1.238-.01.875-.024 1.096-.067 1.113-.03.012-.177-.061-.326-.161l-.271-.182.01-2.331c.011-2.552-.016-3.115-.178-3.711-.383-1.406-1.478-2.435-2.951-2.772-.353-.081-.484-.084-3.918-.098l-3.553-.014.015-1.388c.016-1.379.017-1.39.126-1.746.381-1.245 1.245-2.023 2.53-2.28.226-.046 1.154-.054 5.175-.049l4.9.007.32.09m-5.8 6.981c1.013.296 1.64 1.033 1.783 2.097.027.199.037 1.173.027 2.692-.014 2.338-.016 2.385-.105 2.679-.263.868-.785 1.41-1.625 1.685-.27.088-.345.092-2.06.114l-1.78.022-.2.117c-.11.064-.803.519-1.54 1.01l-1.34.893-.022-.77c-.017-.631-.034-.797-.094-.919-.119-.245-.279-.315-.806-.354a5.343 5.343 0 0 1-.708-.099A2.34 2.34 0 0 1 3.046 17.8c-.284-.576-.285-.588-.285-3.384-.001-2.355.003-2.5.079-2.8.246-.969.929-1.615 1.9-1.797.221-.042 1.101-.051 4.16-.045 3.562.007 3.9.013 4.12.077" fill-rule="evenodd" fill="#000"/></svg>