<svg width="24" height="24" fill="none" xmlns="http://www.w3.org/2000/svg"><path d="M7.312 1.283c-3.361.193-5.386 1.899-5.913 4.983-.148.866-.164 1.762-.15 8.554.012 5.929.019 6.537.079 6.706.138.389.396.716.744.942.451.292-.138.268 7.108.283 6.794.014 7.687-.002 8.554-.15 2.218-.379 3.717-1.527 4.48-3.431.278-.694.445-1.546.505-2.581.052-.896.052-8.282 0-9.178-.115-1.989-.648-3.377-1.701-4.429-1.052-1.053-2.44-1.586-4.429-1.701-.802-.046-8.46-.045-9.277.002M17.46 2.854c1.176.232 1.886.57 2.509 1.192.602.602.956 1.359 1.178 2.514.068.355.073.709.073 5.44 0 5.52.01 5.252-.227 6.115-.408 1.49-1.388 2.47-2.878 2.878-.872.239-.35.224-8.111.237-6.633.011-7.1.007-7.171-.056-.073-.066-.075-.263-.063-7.171.011-6.632.017-7.127.083-7.463.234-1.174.571-1.887 1.186-2.501.717-.717 1.591-1.075 3.061-1.254.066-.008 2.343-.012 5.06-.008 4.557.005 4.968.011 5.3.077M11.599 7.85c-.34.173-.337.157-.352 1.877l-.012 1.507-1.508.013c-1.72.015-1.704.012-1.877.352-.186.367-.073.885.23 1.06.133.077.22.082 1.647.094l1.508.013.012 1.507c.012 1.427.017 1.514.094 1.647.245.424 1.073.424 1.318 0 .077-.133.082-.22.094-1.647l.013-1.508 1.507-.012c1.427-.012 1.514-.017 1.647-.094.424-.245.424-1.073 0-1.318-.133-.077-.22-.082-1.647-.094l-1.507-.012-.013-1.508c-.012-1.427-.017-1.514-.094-1.647-.111-.193-.373-.32-.659-.32a.86.86 0 0 0-.401.09" fill-rule="evenodd" fill="#000"/></svg>