<svg width="24" height="24" fill="none" xmlns="http://www.w3.org/2000/svg"><path d="M7.312 1.283c-3.361.193-5.386 1.899-5.913 4.983-.148.866-.164 1.762-.15 8.554.012 5.929.019 6.537.079 6.706.138.389.396.716.744.942.451.292-.138.268 7.108.283 6.794.014 7.687-.002 8.554-.15 2.218-.379 3.717-1.527 4.48-3.431.278-.694.445-1.546.505-2.581.052-.896.052-8.282 0-9.178-.115-1.989-.648-3.377-1.701-4.429-1.052-1.053-2.44-1.586-4.429-1.701-.802-.046-8.46-.045-9.277.002M17.46 2.854c1.176.232 1.886.57 2.509 1.192.602.602.956 1.359 1.178 2.514.068.355.073.709.073 5.44 0 5.52.01 5.252-.227 6.115-.408 1.49-1.388 2.47-2.878 2.878-.872.239-.35.224-8.111.237-6.633.011-7.1.007-7.171-.056-.073-.066-.075-.263-.063-7.171.011-6.632.017-7.127.083-7.463.234-1.174.571-1.887 1.186-2.501.717-.717 1.591-1.075 3.061-1.254.066-.008 2.343-.012 5.06-.008 4.557.005 4.968.011 5.3.077M6.599 8.85c-.25.127-.332.288-.332.65 0 .362.082.523.332.65l.178.09h10.446l.178-.09c.25-.127.328-.281.328-.65s-.078-.523-.328-.65l-.178-.09H6.777l-.178.09m0 5c-.25.127-.332.288-.332.65 0 .362.082.523.332.65l.178.09h7.446l.178-.09c.25-.127.328-.281.328-.65s-.078-.523-.328-.65l-.178-.09H6.777l-.178.09" fill-rule="evenodd" fill="#000"/></svg>