<svg width="24" height="24" fill="none" xmlns="http://www.w3.org/2000/svg"><path d="M7.312 1.283c-3.361.193-5.386 1.899-5.913 4.983-.148.866-.164 1.762-.15 8.554.012 5.929.019 6.537.079 6.706.138.389.396.716.744.942.451.292-.138.268 7.108.283 6.794.014 7.687-.002 8.554-.15 2.218-.379 3.717-1.527 4.48-3.431.278-.694.445-1.546.505-2.581.052-.896.052-8.282 0-9.178-.115-1.989-.648-3.377-1.701-4.429-1.052-1.053-2.44-1.586-4.429-1.701-.802-.046-8.46-.045-9.277.002M17.46 2.854c1.176.232 1.886.57 2.509 1.192.602.602.956 1.359 1.178 2.514.068.355.073.709.073 5.44 0 5.52.01 5.252-.227 6.115-.408 1.49-1.388 2.47-2.878 2.878-.872.239-.35.224-8.111.237-6.633.011-7.1.007-7.171-.056-.073-.066-.075-.263-.063-7.171.011-6.632.017-7.127.083-7.463.234-1.174.571-1.887 1.186-2.501.717-.717 1.591-1.075 3.061-1.254.066-.008 2.343-.012 5.06-.008 4.557.005 4.968.011 5.3.077M14.215 6.28c-.45.066-.858.249-1.335.602-.358.263-5.782 5.702-5.965 5.981-.23.349-.334.739-.498 1.857-.177 1.208-.19 1.635-.062 1.966.17.438.528.795.959.956.38.142.645.139 1.766-.02 1.34-.189 1.396-.202 1.84-.411l.38-.178 2.864-2.867c2.405-2.407 2.899-2.92 3.085-3.206.509-.783.619-1.449.37-2.234-.282-.888-1.288-1.93-2.22-2.298-.207-.082-.859-.207-.958-.183-.012.003-.113.018-.226.035m.786 1.607c.353.176.939.761 1.112 1.109.216.437.16.816-.183 1.242-.249.308-.66.722-.718.722-.084 0-.442-.191-.752-.401-.513-.349-1.085-1.013-1.339-1.556l-.099-.211.399-.388c.67-.652 1.057-.779 1.58-.517m-2.84 2.433c.331.508 1.046 1.219 1.549 1.54.203.13.37.246.37.259 0 .013-.841.862-1.87 1.888-1.803 1.798-1.878 1.867-2.09 1.929-.121.036-.667.127-1.213.204-1.117.157-1.147.154-1.147-.095 0-.279.285-2.139.347-2.263.051-.102 3.773-3.876 3.798-3.85.004.004.12.179.256.388" fill-rule="evenodd" fill="#000"/></svg>