<svg width="24" height="24" fill="none" xmlns="http://www.w3.org/2000/svg"><path d="M6.3 1.725a6.018 6.018 0 0 0-2.709.942 6.17 6.17 0 0 0-.68.568c-.978.943-1.525 2.198-1.632 3.745-.05.716-.048 6.316.002 6.97l.04.531-.22.322a4.936 4.936 0 0 0-.785 1.951c-.066.401-.056 1.213.019 1.609.262 1.38 1.117 2.561 2.378 3.282 1.291.738 2.95.79 4.32.134 1.001-.479 1.742-1.221 2.233-2.236l.185-.383h1.291l2.247 1.498c1.539 1.026 2.309 1.516 2.444 1.556.699.208 1.294.064 1.79-.431.445-.445.535-.772.536-1.948l.001-.706.23-.027c1.147-.136 2.34-.712 3.15-1.522.942-.941 1.47-2.174 1.579-3.688.052-.718.052-6.187 0-6.906-.066-.92-.257-1.666-.602-2.353-.85-1.691-2.45-2.727-4.497-2.913-.537-.049-10.795-.045-11.32.005m11.66 1.529c.926.185 1.587.534 2.184 1.152.515.532.79 1.057 1.005 1.914.057.229.067.701.08 3.9.01 2.484.001 3.745-.029 3.971-.139 1.058-.645 1.983-1.425 2.609-.683.547-1.445.808-2.558.876-.604.037-.755.097-.883.355-.066.134-.075.277-.087 1.389-.015 1.378-.019 1.402-.266 1.372-.076-.01-.948-.568-2.361-1.511-1.232-.823-2.303-1.519-2.38-1.547-.091-.033-.373-.051-.804-.052l-.664-.002-.026-.404c-.081-1.234-.551-2.284-1.405-3.137-.61-.61-1.303-1.008-2.173-1.247-.355-.098-.452-.107-1.148-.109-.656-.002-.808.01-1.107.086-.28.071-.756.242-1.105.398-.042.019-.049-.599-.037-3.332.013-2.933.023-3.388.08-3.615.214-.856.49-1.381 1.005-1.914.71-.736 1.539-1.109 2.682-1.206.199-.017 2.774-.027 5.722-.022 4.855.008 5.392.015 5.7.076M8.176 9.803c-.288.084-.442.39-.405.804.024.267.112.433.284.538.12.072.273.075 3.945.075 3.672 0 3.825-.003 3.945-.075.209-.127.275-.282.275-.645 0-.363-.066-.518-.275-.645-.12-.072-.278-.075-3.885-.082-2.166-.004-3.813.009-3.884.03M5.72 14.345c.178.036.47.143.717.262.369.178.461.245.804.587.422.421.664.785.82 1.234.323.931.193 2.01-.341 2.828-.571.874-1.466 1.401-2.527 1.486-1.586.128-3.105-1.076-3.393-2.689-.063-.352-.032-1.094.061-1.433.28-1.028 1.148-1.899 2.21-2.22.524-.159 1.045-.176 1.649-.055M4.599 15.37c-.274.139-.328.27-.351.849l-.018.491-.485.018c-.563.022-.735.082-.874.306-.074.118-.091.204-.091.446 0 .242.017.328.091.446.139.224.311.284.874.306l.485.018.018.505c.021.584.079.753.306.894.209.13.683.13.892 0 .227-.141.285-.31.306-.894l.018-.505.485-.018c.563-.022.735-.082.874-.306.074-.118.091-.204.091-.446 0-.242-.017-.328-.091-.446-.139-.224-.311-.284-.873-.306l-.485-.018-.021-.494c-.017-.382-.039-.524-.097-.625-.105-.183-.373-.311-.653-.311a.86.86 0 0 0-.401.09" fill-rule="evenodd" fill="#000"/></svg>