<svg width="24" height="24" fill="none" xmlns="http://www.w3.org/2000/svg"><path d="M7.312 1.282c-3.365.199-5.386 1.9-5.912 4.979-.125.73-.159 1.659-.159 4.359 0 2.538.033 3.572.138 4.316.359 2.557 1.521 3.977 3.701 4.52.654.162 1.172.222 2.34.268.594.024 1.118.05 1.164.059.055.01.389.422.965 1.187.642.855.939 1.217 1.096 1.337.862.658 1.848.659 2.71 0 .156-.119.456-.486 1.105-1.348l.89-1.183.975-.048c1.028-.051 1.622-.134 2.235-.31 1.985-.571 3.287-1.873 3.858-3.857.292-1.018.352-1.962.335-5.341-.013-2.396-.016-2.485-.093-2.616a.646.646 0 0 0-.475-.327c-.367-.069-.684.054-.845.327-.078.132-.081.23-.103 3.316-.024 3.414-.023 3.388-.244 4.195-.347 1.267-1.125 2.187-2.245 2.656-.752.315-1.356.423-2.608.468-1.077.038-1.221.067-1.611.318-.217.14-.34.285-1.085 1.277-.462.616-.903 1.182-.98 1.259-.246.246-.522.281-.811.103-.085-.053-.473-.532-1.03-1.273-.965-1.282-1.019-1.336-1.555-1.555-.237-.097-.298-.103-1.388-.133-1.72-.047-2.396-.174-3.24-.611-.315-.163-.863-.731-1.047-1.084-.317-.611-.506-1.344-.593-2.3-.032-.344-.041-1.564-.031-3.92.016-3.637.015-3.623.216-4.36.437-1.603 1.372-2.538 2.975-2.975.7-.191.807-.197 3.62-.222 2.586-.022 2.685-.026 2.816-.103.273-.161.396-.478.327-.845a.646.646 0 0 0-.327-.475c-.131-.077-.213-.08-2.336-.085-1.21-.003-2.447.01-2.748.027m9.188 0c-.814.106-1.482.59-1.856 1.344-.516 1.04-.359 2.26.427 3.318.723.973 2.054 1.783 2.929 1.783.689 0 1.685-.505 2.454-1.245 1.167-1.124 1.517-2.617.902-3.856-.578-1.167-1.89-1.668-3.093-1.182l-.298.12-.163-.083c-.332-.169-.882-.253-1.302-.199m.607 1.521c.061.023.221.148.356.276.39.375.668.371 1.086-.014.3-.276.36-.305.638-.305.594.001 1.006.531.965 1.24-.045.781-.717 1.597-1.711 2.077-.185.09-.384.163-.441.163-.139 0-.718-.283-1.02-.499a3.116 3.116 0 0 1-.943-1.078c-.146-.294-.173-.388-.189-.66-.03-.52.154-.911.53-1.126a.905.905 0 0 1 .729-.074m-9.537 7.27c-.373.133-.531.366-.561.827-.043.662.253 1.033.867 1.089.453.041.849-.131 1.012-.439.075-.141.09-.235.091-.553.001-.357-.007-.397-.119-.578-.163-.263-.402-.386-.791-.406a1.17 1.17 0 0 0-.499.06m4 .002c-.414.143-.548.369-.548.925 0 .421.076.634.282.796.331.261 1.012.263 1.374.005.221-.157.3-.368.3-.801 0-.314-.015-.409-.088-.547-.208-.393-.791-.561-1.32-.378m4.044-.018c-.237.075-.402.204-.504.396-.127.242-.127.852 0 1.094.202.382.748.55 1.277.393.255-.075.392-.183.503-.394.073-.137.088-.232.088-.546 0-.421-.076-.634-.282-.796-.236-.186-.74-.254-1.082-.147" fill-rule="evenodd" fill="#000"/></svg>