<svg width="24" height="24" fill="none" xmlns="http://www.w3.org/2000/svg"><path d="M6.3 1.725a6.018 6.018 0 0 0-2.709.942 6.17 6.17 0 0 0-.68.568c-.978.943-1.525 2.198-1.632 3.745-.05.716-.048 6.316.002 6.97l.04.531-.22.322a4.744 4.744 0 0 0 1.913 6.999 4.802 4.802 0 0 0 3.538.182 4.81 4.81 0 0 0 2.396-1.864c.148-.222.386-.669.445-.836l.043-.124h1.306l2.247 1.498c1.539 1.026 2.309 1.516 2.444 1.556.699.208 1.294.064 1.79-.431.445-.445.535-.772.536-1.948l.001-.706.23-.027c1.147-.136 2.34-.712 3.15-1.522.942-.941 1.47-2.174 1.579-3.688.052-.718.052-6.187 0-6.906-.066-.92-.257-1.666-.602-2.353-.85-1.691-2.45-2.727-4.497-2.913-.537-.049-10.795-.045-11.32.005m11.66 1.529c.926.185 1.587.534 2.184 1.152.515.532.79 1.057 1.005 1.914.057.229.067.701.08 3.9.01 2.484.001 3.745-.029 3.971-.139 1.058-.645 1.983-1.425 2.609-.683.547-1.445.808-2.558.876-.604.037-.755.097-.883.355-.066.134-.075.277-.087 1.389-.015 1.378-.019 1.402-.266 1.372-.076-.01-.948-.568-2.361-1.511-1.232-.823-2.303-1.519-2.38-1.547-.091-.033-.373-.051-.804-.052l-.665-.002-.027-.41c-.085-1.248-.544-2.272-1.403-3.131-.61-.61-1.303-1.008-2.173-1.247-.355-.098-.452-.107-1.148-.109-.661-.001-.807.01-1.12.089a7.305 7.305 0 0 0-1.092.395c-.042.019-.049-.599-.037-3.332.013-2.933.023-3.388.08-3.615.214-.856.49-1.381 1.005-1.914.71-.736 1.539-1.109 2.682-1.206.199-.017 2.774-.027 5.722-.022 4.855.008 5.392.015 5.7.076M8.176 9.803c-.288.084-.442.39-.405.804.024.267.112.433.284.538.12.072.273.075 3.945.075 3.672 0 3.825-.003 3.945-.075.209-.127.275-.282.275-.645 0-.363-.066-.518-.275-.645-.12-.072-.278-.075-3.885-.082-2.166-.004-3.813.009-3.884.03m-2.837 4.479c.589.067.943.192 1.421.499 1.127.726 1.677 2.048 1.404 3.379-.248 1.213-1.121 2.139-2.344 2.486-.41.117-1.17.126-1.6.02-1.097-.27-2.063-1.211-2.366-2.306-.054-.196-.072-.408-.073-.86-.001-.686.061-.958.344-1.504.495-.955 1.521-1.633 2.615-1.729.088-.007.178-.016.2-.02.022-.003.201.012.399.035m-.496 1.306c-.281.147-.302.214-.316 1.014l-.012.717-.485.29c-.266.159-.542.344-.613.411-.236.223-.25.519-.041.876.154.263.316.364.586.364.213 0 .257-.02 1.008-.47.432-.259.822-.518.867-.576.147-.186.169-.378.156-1.355-.014-1.025-.016-1.033-.288-1.236-.156-.117-.667-.137-.862-.035" fill-rule="evenodd" fill="#000"/></svg>