<svg width="24" height="24" fill="none" xmlns="http://www.w3.org/2000/svg"><path d="M11.48 1.283c-2.965.214-5.486 2.434-6.079 5.353a8.87 8.87 0 0 0-.122.92c-.048.655-.048 5.233 0 5.888.085 1.155.438 2.25 1.014 3.146.103.16.187.304.187.32 0 .015-1.042 1.073-2.316 2.349-1.273 1.277-2.346 2.382-2.384 2.458-.151.298-.013.663.35.926a.518.518 0 0 0 .367.117.624.624 0 0 0 .304-.065c.054-.036.657-.621 1.339-1.299l1.24-1.232.36.301a9.777 9.777 0 0 0 4.871 2.179c.7.106 1.96.114 2.649.018 2.207-.308 4.073-1.231 5.622-2.78 1.549-1.549 2.462-3.395 2.782-5.622.055-.383.07-.788.072-2 .004-1.452 0-1.526-.076-1.656a.646.646 0 0 0-.475-.327c-.367-.069-.684.054-.845.327-.075.128-.081.232-.104 1.776-.027 1.799-.054 2.05-.315 2.931a8.289 8.289 0 0 1-6.96 5.887c-.436.054-1.487.054-1.922 0a8.434 8.434 0 0 1-4.248-1.807c-.169-.138-.309-.269-.31-.291 0-.022 3.535-3.577 7.857-7.9 4.492-4.493 7.876-7.908 7.9-7.973a.911.911 0 0 0 .042-.263c0-.294-.372-.698-.69-.75-.313-.051-.36-.013-1.935 1.555L18.17 5.247l-.188-.353a6.902 6.902 0 0 0-3.502-3.176c-.861-.345-1.986-.508-3-.435m1.77 1.616c1.675.416 3.09 1.671 3.67 3.255l.093.253-4.718 4.718-4.717 4.717-.132-.218c-.299-.494-.567-1.269-.646-1.873-.03-.223-.039-1.346-.03-3.431.013-2.799.021-3.129.085-3.4.15-.634.417-1.268.74-1.76l.145-.22.02 1.44c.018 1.319.026 1.45.095 1.565.127.209.282.275.645.275.363 0 .518-.066.645-.275.071-.118.076-.25.086-2.272l.012-2.146.349-.181a4.998 4.998 0 0 1 1.013-.407l.191-.051.012 1.446c.011 1.362.017 1.454.092 1.582.13.221.259.292.573.314.363.026.609-.079.728-.313.074-.145.079-.241.079-1.66V2.751l.3.028a5.4 5.4 0 0 1 .67.12m4.349 6.431a.67.67 0 0 0-.258.23c-.077.134-.082.228-.105 2.18-.025 2.215-.029 2.252-.274 2.96a5.338 5.338 0 0 1-2.642 3.001c-.702.351-1.306.499-2.16.527-.693.023-1.081-.026-1.7-.214a3.428 3.428 0 0 0-.591-.125c-.203-.014-.249-.003-.371.09-.177.135-.299.374-.326.64-.043.409.154.612.78.807a6.766 6.766 0 0 0 8.441-4.286c.306-.902.379-1.693.36-3.905-.012-1.455-.017-1.542-.094-1.675-.111-.193-.373-.32-.659-.32a.86.86 0 0 0-.401.09" fill-rule="evenodd" fill="#000"/></svg>