<svg width="24" height="24" fill="none" xmlns="http://www.w3.org/2000/svg"><path d="M17.867 1.28a2.907 2.907 0 0 0-.395.107c-.217.078-6 3.925-6.222 4.139-.176.17-.238.383-.174.598.027.09.044.169.037.175L9 7.708c-1.156.77-2.158 1.465-2.228 1.545a.726.726 0 0 0-.153.276c-.023.121-.158.22-1.769 1.291-.959.638-1.831 1.245-1.938 1.349-.498.482-.644 1.341-.335 1.967.055.112.394.635.752 1.162.707 1.04.873 1.217 1.297 1.387.325.13 1.019.133 1.299.006.102-.046.975-.611 1.94-1.256l1.755-1.172.206.011a.924.924 0 0 0 .354-.052c.107-.044.143-.048.128-.012-.011.028-.735 1.607-1.609 3.51a868.184 868.184 0 0 0-1.743 3.812c-.228.515-.207.808.075 1.015.421.31.91.276 1.119-.079.042-.072.929-1.99 1.971-4.262 1.756-3.832 1.897-4.125 1.944-4.036.028.054.837 1.833 1.797 3.954 2.113 4.666 1.994 4.417 2.174 4.539.233.159.624.112.926-.111.167-.122.238-.269.238-.489 0-.215.143.113-2.359-5.403l-1.906-4.203c-.01-.024.34-.281.777-.572l.796-.529.192.102c.22.117.326.126.522.044.148-.062 5.832-3.853 6.103-4.07.337-.272.591-.789.653-1.332a2.041 2.041 0 0 0-.179-.982c-.159-.311-2.005-3.048-2.188-3.243-.342-.366-.764-.565-1.291-.608a2.135 2.135 0 0 0-.453.013m.588 1.563c.058.046.538.724 1.065 1.508 1.024 1.519 1.04 1.55.913 1.829-.033.072-.824.624-2.58 1.802-1.393.934-2.553 1.703-2.577 1.708-.024.006-.571-.778-1.215-1.741l-1.173-1.751.486-.333a367.08 367.08 0 0 1 2.565-1.719c1.895-1.264 2.093-1.386 2.244-1.386.108 0 .204.029.272.083m-5.62 5.995c.465.691.832 1.269.815 1.284-.088.08-3.448 2.318-3.476 2.316-.039-.002-1.701-2.477-1.704-2.537-.002-.052 3.464-2.381 3.495-2.348.013.015.405.593.87 1.285m-4.797 3.163c.427.636.683 1.053.66 1.074-.13.121-3.346 2.245-3.398 2.245a.384.384 0 0 1-.145-.042c-.086-.047-1.275-1.81-1.275-1.892a.25.25 0 0 1 .05-.117c.046-.061 3.344-2.304 3.39-2.305.011-.001.334.466.718 1.037" fill-rule="evenodd" fill="#000"/></svg>