<svg width="24" height="24" fill="none" xmlns="http://www.w3.org/2000/svg"><path d="M11.579 1.28c-2.077.182-3.761 1.679-4.226 3.756-.083.37-.086.493-.102 3.324-.011 1.908-.002 3.123.026 3.46.089 1.066.406 1.869 1.064 2.69.861 1.074 2.247 1.73 3.659 1.73s2.798-.656 3.659-1.73c.654-.816.976-1.629 1.064-2.69.028-.337.037-1.552.026-3.46-.016-2.831-.019-2.954-.102-3.324-.534-2.382-2.671-3.967-5.068-3.756m1.401 1.614c.528.174.874.392 1.304.822.426.426.642.766.826 1.304l.11.32v3.38c0 3.149-.005 3.398-.073 3.64a3.36 3.36 0 0 1-1.727 2.062c-.502.244-.813.313-1.42.313s-.918-.069-1.42-.313a3.36 3.36 0 0 1-1.727-2.062c-.068-.242-.073-.491-.073-3.64V5.34l.11-.32c.185-.539.4-.878.826-1.304.717-.717 1.35-.966 2.384-.941.472.012.61.031.88.119M11.197 5.5c-.771.146-1.227.368-1.318.642-.103.313.082.816.356.97.206.116.306.111.805-.039.381-.114.47-.126.96-.126s.579.012.96.126c.499.15.599.155.805.039.324-.182.494-.825.291-1.099-.117-.158-.448-.316-.916-.438-.503-.13-1.457-.168-1.943-.075m.463 2.224c-.389.03-.805.132-.94.231-.161.117-.28.323-.28.484 0 .254.117.569.263.707.175.164.36.194.73.116a2.771 2.771 0 0 1 1.147.002c.169.035.367.052.44.039.292-.055.497-.353.531-.769.035-.435-.169-.629-.791-.75a3.812 3.812 0 0 0-1.1-.06M3.98 8.976a.63.63 0 0 0-.341.387c-.051.179-.05 2.175.002 2.737.183 1.988 1.015 3.759 2.437 5.184 1.249 1.252 2.912 2.103 4.602 2.354l.427.065.127.02.013 1.268c.012 1.184.018 1.278.093 1.405.161.273.478.396.845.327a.646.646 0 0 0 .475-.327c.075-.127.081-.221.093-1.405l.013-1.268.127-.02.427-.065c3.13-.465 5.85-2.86 6.737-5.931.276-.954.354-1.721.336-3.274-.012-1.045-.018-1.114-.095-1.218-.164-.219-.281-.274-.611-.287-.347-.014-.522.051-.664.245-.079.107-.084.183-.11 1.46-.033 1.684-.113 2.235-.449 3.117a6.844 6.844 0 0 1-1.922 2.778c-1.88 1.666-4.524 2.161-6.914 1.296-2.09-.756-3.759-2.595-4.307-4.744-.168-.657-.207-1.067-.234-2.447-.026-1.277-.031-1.353-.11-1.46-.128-.175-.32-.253-.617-.251-.143 0-.314.025-.38.054" fill-rule="evenodd" fill="#000"/></svg>