<svg width="24" height="24" fill="none" xmlns="http://www.w3.org/2000/svg"><path d="M11.579 1.28a4.752 4.752 0 0 0-4.071 3.2c-.246.721-.248.747-.248 3.9 0 2.808.002 2.883.08 3.016a.646.646 0 0 0 .475.327c.367.069.684-.054.845-.327.078-.132.081-.228.101-3.096l.02-2.96.109-.32c.188-.551.397-.876.852-1.33.227-.225.43-.41.452-.41.027 0 .045.52.053 1.49.012 1.405.018 1.498.093 1.626a.646.646 0 0 0 .475.327c.367.069.684-.054.845-.327.077-.13.08-.208.08-1.891V2.75l.46.021c.846.038 1.451.312 2.084.945.669.669.901 1.214.956 2.244l.033.62-5.992 6c-3.297 3.3-6.022 6.058-6.057 6.128-.074.149-.084.419-.019.545.065.127.318.385.443.45.143.076.405.072.564-.007.07-.035.587-.52 1.148-1.078l1.02-1.014.3.244c1.144.929 2.606 1.583 4 1.79l.427.065.127.02.013 1.268c.012 1.184.018 1.278.093 1.405a.646.646 0 0 0 .475.327c.367.069.684-.054.845-.327.075-.127.081-.221.093-1.405l.013-1.268.127-.02.427-.065c3.13-.465 5.85-2.86 6.737-5.931.276-.954.354-1.721.336-3.274-.012-1.045-.018-1.114-.095-1.218-.164-.219-.281-.274-.611-.287-.347-.014-.522.051-.664.245-.079.107-.084.183-.11 1.46-.033 1.684-.113 2.235-.449 3.117a6.849 6.849 0 0 1-1.924 2.78c-2.212 1.96-5.455 2.269-8.045.766a9.035 9.035 0 0 1-.904-.633l-.148-.123.723-.725.723-.724.285.215c1.99 1.5 4.934 1.139 6.485-.796.666-.831.978-1.632 1.066-2.734.07-.872.004-1.224-.264-1.399-.238-.156-.718-.149-.936.013-.222.165-.253.279-.288 1.043-.02.431-.058.801-.098.947-.16.589-.577 1.217-1.088 1.642a3.735 3.735 0 0 1-1.271.644c-.408.101-1.181.092-1.588-.018-.368-.1-.826-.309-1.067-.487l-.176-.129 5.382-5.386c2.959-2.962 5.41-5.444 5.445-5.514a.813.813 0 0 0 .064-.303c0-.307-.307-.659-.668-.767a.633.633 0 0 0-.26.019c-.151.041-.355.229-1.7 1.57-.976.973-1.536 1.503-1.547 1.466a5.166 5.166 0 0 1-.068-.277 4.537 4.537 0 0 0-.146-.48 4.758 4.758 0 0 0-4.872-3.08M3.98 8.974a.639.639 0 0 0-.341.389c-.052.182-.05 2.178.003 2.757.055.593.165 1.145.343 1.72.303.975.5 1.249.899 1.246.254-.002.598-.16.719-.33.157-.221.146-.374-.076-1.023-.36-1.051-.443-1.686-.446-3.413-.001-1.033-.019-1.125-.254-1.297-.142-.105-.661-.134-.847-.049" fill-rule="evenodd" fill="#000"/></svg>