<svg width="24" height="24" fill="none" xmlns="http://www.w3.org/2000/svg"><path d="M11.48 1.283c-2.968.216-5.486 2.433-6.079 5.353-.134.657-.159 1.261-.159 3.864 0 2.603.025 3.207.159 3.864.53 2.612 2.624 4.705 5.236 5.236a6.739 6.739 0 0 0 6.125-1.838c1.17-1.171 1.836-2.637 1.959-4.318.048-.655.048-5.233 0-5.888-.123-1.681-.789-3.147-1.959-4.318a6.7 6.7 0 0 0-5.282-1.955m1.6 1.576a5.302 5.302 0 0 1 2.621 1.44 5.271 5.271 0 0 1 1.446 2.662c.067.312.073.592.073 3.539s-.006 3.227-.073 3.539a5.271 5.271 0 0 1-1.446 2.662 5.271 5.271 0 0 1-2.662 1.446c-.476.103-1.601.103-2.079 0a5.259 5.259 0 0 1-2.661-1.446 5.259 5.259 0 0 1-1.446-2.661c-.067-.313-.073-.597-.073-3.54s.006-3.227.073-3.54a5.259 5.259 0 0 1 1.446-2.661c.738-.739 1.681-1.251 2.641-1.435.176-.033.356-.069.4-.08.186-.044 1.449.01 1.74.075m-1.72 3.405a9.135 9.135 0 0 0-2.141.401c-.512.159-.67.245-.779.425-.177.289-.029.858.276 1.06.188.125.378.115.901-.048a7.312 7.312 0 0 1 4.486 0c.243.076.515.138.604.138.226 0 .41-.134.543-.397.198-.391.126-.777-.179-.963-.278-.169-1.4-.467-2.091-.556a13.157 13.157 0 0 0-1.62-.06m-.1 3.242c-.782.093-1.392.219-1.62.335-.237.121-.331.253-.351.495-.025.292.076.585.254.742.228.199.313.201 1.121.025a6.043 6.043 0 0 1 2.479.019c.814.177.986.142 1.187-.241.204-.391.133-.837-.163-1.011-.411-.242-2.126-.457-2.907-.364m-8.473.772a.659.659 0 0 0-.447.326c-.076.13-.08.204-.076 1.656.003 1.626.034 2.008.235 2.9.816 3.629 3.708 6.526 7.325 7.338 1.378.309 2.916.316 4.276.018a9.65 9.65 0 0 0 4.782-2.634c1.549-1.549 2.462-3.395 2.782-5.622.055-.383.07-.788.072-2 .004-1.452 0-1.526-.076-1.656a.646.646 0 0 0-.475-.327c-.367-.069-.684.054-.845.327-.075.128-.081.232-.104 1.776-.021 1.44-.035 1.694-.109 2.081-.504 2.621-2.125 4.766-4.485 5.934-1.177.582-2.31.845-3.642.845a7.671 7.671 0 0 1-2.584-.406c-3.018-.986-5.22-3.681-5.614-6.873-.023-.186-.043-.933-.044-1.66-.002-1.388-.019-1.603-.148-1.775-.158-.213-.491-.313-.823-.248" fill-rule="evenodd" fill="#000"/></svg>