<svg width="24" height="24" fill="none" xmlns="http://www.w3.org/2000/svg"><path d="M9.18 1.281A2.268 2.268 0 0 0 7.555 2.38a2.116 2.116 0 0 0-.284 1.1c-.005.665.198 1.151.679 1.629l.29.288v1.3L7.046 7.899c-.842.848-1.237 1.274-1.342 1.451a3.427 3.427 0 0 0-.424 1.215c-.031.233-.04 1.643-.03 4.635.016 4.645.008 4.477.229 5.066a3.79 3.79 0 0 0 2.865 2.422c.4.076 6.912.076 7.312 0a3.83 3.83 0 0 0 2.862-2.413c.224-.6.216-.421.232-5.075.01-2.992.001-4.402-.03-4.635a3.427 3.427 0 0 0-.424-1.215c-.105-.177-.5-.603-1.342-1.451L15.76 6.697v-1.3l.29-.288c.474-.471.681-.961.681-1.609 0-1.007-.619-1.839-1.611-2.165-.202-.066-.44-.072-2.96-.079-1.507-.005-2.848.007-2.98.025m5.652 1.555a.718.718 0 0 1 .408.664.718.718 0 0 1-.408.664c-.142.072-.278.076-2.832.076s-2.69-.004-2.832-.076a.682.682 0 0 1-.343-.352c-.128-.253-.049-.673.161-.857.226-.198.127-.192 3.006-.193 2.564-.002 2.698.002 2.84.074m-.591 3.314c.002.574.055.894.196 1.196.111.238.255.397 1.342 1.492 1.033 1.039 1.235 1.261 1.329 1.464l.112.238.011 1.85.011 1.85h-1.731c-2.175 0-2.208-.005-3.307-.477-.651-.279-1.141-.418-1.695-.48-.214-.024-1.135-.043-2.069-.043H6.757l.011-1.35.012-1.35.112-.238c.094-.203.296-.425 1.329-1.464 1.087-1.095 1.231-1.254 1.342-1.492.141-.302.194-.622.196-1.196l.001-.39h4.48l.001.39m-3.801 8.653c.427.062.665.137 1.279.4 1.179.507 1.511.555 3.811.556l1.71.001v1.784c0 1.969-.008 2.051-.253 2.516-.163.309-.618.764-.927.927-.493.26-.388.253-4.06.253-3.672 0-3.567.007-4.06-.253-.31-.163-.764-.618-.929-.93-.251-.475-.251-.479-.251-3.015V14.74l1.69.01c.956.005 1.82.028 1.99.053" fill-rule="evenodd" fill="#000"/></svg>