<svg width="24" height="24" fill="none" xmlns="http://www.w3.org/2000/svg"><path d="M8.08 1.282c-4.072.213-6.185 2.014-6.697 5.709-.113.812-.141 1.825-.141 5.009 0 4.504.06 5.273.518 6.65.771 2.31 2.438 3.57 5.254 3.971.627.089 2.025.147 3.19.132.97-.012 1.067-.02 1.192-.093a.646.646 0 0 0 .327-.475c.069-.367-.054-.684-.327-.845-.129-.076-.233-.081-1.956-.105-1.968-.028-2.225-.05-3.128-.275-2.089-.52-3.076-1.714-3.458-4.18-.069-.445-.074-.791-.074-4.78 0-3.989.005-4.335.074-4.78.428-2.764 1.602-3.938 4.366-4.366.445-.069.791-.074 4.78-.074 4.745 0 4.622-.006 5.688.26 1.832.456 2.816 1.441 3.272 3.272.203.818.247 1.241.275 2.648.024 1.199.032 1.311.105 1.436a.646.646 0 0 0 .475.327c.365.068.685-.054.842-.324.104-.177.128-.917.067-2.099-.067-1.313-.193-2.079-.482-2.944-.61-1.825-1.773-2.989-3.592-3.596-.862-.287-1.627-.416-2.844-.48-.854-.045-6.854-.043-7.726.002m12.64 10.72c-.273.031-3.173.809-3.57.958a1.984 1.984 0 0 0-.993.915c-.191.403-.196.464-.197 2.599 0 1.853-.005 2.013-.066 1.989-.176-.067-.627-.099-.906-.064a2.1 2.1 0 0 0-1.351.715c-.888.992-.673 2.545.454 3.284.626.411 1.498.452 2.188.102.367-.185.762-.59.965-.988.191-.374.2-.49.197-2.56l-.004-1.948.172-.046c.544-.145 3.539-.963 3.581-.978.039-.014.05.156.05.764 0 .471-.015.772-.037.758-.097-.06-.663-.097-.942-.062a2.18 2.18 0 0 0-1.861 1.861c-.102.804.226 1.59.854 2.045.49.355 1.01.49 1.605.414.94-.119 1.715-.881 1.862-1.831.03-.188.039-1.278.028-3.354-.012-2.569-.024-3.111-.074-3.296-.247-.911-.977-1.388-1.955-1.277m.481 1.581c.021.056.039.269.039.473v.37l-1.871.507c-1.029.279-1.884.507-1.9.507-.05 0-.031-.774.022-.876a.577.577 0 0 1 .149-.169c.139-.1 3.091-.909 3.331-.913.169-.002.195.01.23.101m-.231 5.467c.198.151.283.352.261.617a.636.636 0 0 1-.286.511c-.158.117-.612.117-.77 0-.242-.182-.337-.439-.278-.754a.705.705 0 0 1 .361-.45c.194-.088.546-.051.712.076m-5.347.929a.728.728 0 0 1 .337.581.728.728 0 0 1-.337.581.673.673 0 0 1-1.032-.581c0-.541.561-.856 1.032-.581" fill-rule="evenodd" fill="#000"/></svg>