<svg width="24" height="24" fill="none" xmlns="http://www.w3.org/2000/svg"><path d="M11.48 1.266a10.763 10.763 0 0 0-9.105 5.833 10.627 10.627 0 0 0-1.138 3.741c-.06.54-.06 1.78 0 2.32a10.792 10.792 0 0 0 5.782 8.385c1.582.815 3.103 1.183 4.901 1.183.822 0 1.515-.067 2.196-.212a10.796 10.796 0 0 0 7.349-5.615c.815-1.582 1.183-3.103 1.183-4.901 0-1.137-.121-1.99-.431-3.05-1.003-3.428-3.819-6.244-7.247-7.247-1.11-.325-2.406-.487-3.49-.437m1.588 1.556c2.079.272 3.88 1.162 5.374 2.656a8.988 8.988 0 0 1 1.909 2.736A8.898 8.898 0 0 1 21.16 12c0 1.36-.258 2.567-.809 3.786a8.988 8.988 0 0 1-1.909 2.736 8.988 8.988 0 0 1-2.736 1.909 8.898 8.898 0 0 1-3.786.809 8.898 8.898 0 0 1-3.786-.809 8.988 8.988 0 0 1-2.736-1.909C3.615 16.739 2.68 14.495 2.68 12s.935-4.739 2.718-6.522c1.482-1.482 3.278-2.374 5.343-2.656.559-.076 1.748-.076 2.327 0m-5.361 8.456c-.342.068-.519.314-.519.722 0 .462.207.693.663.739.137.014 2.067.02 4.289.013 3.957-.012 4.043-.014 4.176-.092.273-.161.396-.478.327-.845a.646.646 0 0 0-.327-.475c-.133-.079-.213-.08-4.296-.086-2.288-.003-4.229.008-4.313.024" fill-rule="evenodd" fill="#000"/></svg>