<svg width="24" height="24" fill="none" xmlns="http://www.w3.org/2000/svg"><path d="M11.36 1.281c-2.366.159-4.621 1.334-6.144 3.2-.983 1.203-1.637 2.701-1.878 4.299-.09.597-.09 1.843 0 2.44a8.93 8.93 0 0 0 2.011 4.46c1.334 1.586 3.292 2.661 5.431 2.981.596.09 1.844.09 2.44 0 2.228-.333 4.232-1.472 5.591-3.177a8.877 8.877 0 0 0 1.85-4.264c.078-.525.09-1.747.021-2.28-.28-2.183-1.376-4.224-3.002-5.591a8.805 8.805 0 0 0-6.32-2.068m2.02 1.597a7.246 7.246 0 0 1 3.738 2.004 7.257 7.257 0 0 1 2.01 3.765c.08.393.092.573.092 1.353s-.012.96-.092 1.353a7.257 7.257 0 0 1-2.01 3.765 7.257 7.257 0 0 1-3.765 2.01c-.393.08-.573.092-1.353.092-.784 0-.959-.012-1.36-.093a7.251 7.251 0 0 1-3.758-2.009 7.251 7.251 0 0 1-2.009-3.758c-.081-.401-.093-.576-.093-1.36 0-.784.012-.959.093-1.36a7.251 7.251 0 0 1 2.009-3.758c1.171-1.171 2.545-1.841 4.298-2.097.066-.01.489-.013.94-.007.657.009.907.028 1.26.1m-7.593 18.4c-.342.067-.519.314-.519.722 0 .462.207.693.663.739.137.014 2.967.02 6.289.013 5.957-.012 6.042-.013 6.176-.092a.646.646 0 0 0 .327-.475c.069-.367-.054-.684-.327-.845-.134-.079-.213-.08-6.296-.086-3.388-.003-6.229.008-6.313.024" fill-rule="evenodd" fill="#000"/></svg>