<svg width="24" height="24" fill="none" xmlns="http://www.w3.org/2000/svg"><path d="M6.458 2.283a5.814 5.814 0 0 0-2.272.613 4.674 4.674 0 0 0-1.327.963c-.434.433-.685.78-.963 1.327-.382.752-.548 1.409-.62 2.454-.061.886-.034 1.587.068 1.761.156.267.477.39.841.322a.644.644 0 0 0 .474-.326c.071-.121.081-.24.105-1.176.018-.709.046-1.131.089-1.322.361-1.627 1.498-2.74 3.127-3.063.415-.083 11.625-.083 12.04 0 1.654.328 2.816 1.49 3.144 3.144.083.414.083 9.626 0 10.04-.281 1.417-1.189 2.498-2.483 2.959-.553.196-.798.229-1.902.257-.936.024-1.055.034-1.176.105a.644.644 0 0 0-.326.474c-.068.364.055.685.322.841.174.102.875.129 1.761.068 1.045-.072 1.702-.238 2.454-.62a4.674 4.674 0 0 0 1.327-.963c.966-.966 1.466-2.134 1.578-3.686.053-.728.053-8.182 0-8.91-.068-.951-.246-1.633-.615-2.359a4.674 4.674 0 0 0-.963-1.327c-.966-.966-2.134-1.466-3.686-1.578-.658-.048-10.336-.045-10.997.002M3.34 11.014c-.271.126-.38.339-.38.739 0 .49.167.625.92.747 2.359.38 4.368 1.53 5.763 3.3.981 1.246 1.557 2.574 1.863 4.298.054.309.13.616.168.682a.689.689 0 0 0 .247.213c.15.078.218.089.414.07.3-.029.544-.161.635-.343.091-.183.088-.442-.011-1.003-.795-4.459-4.017-7.761-8.409-8.617-.679-.133-1.053-.159-1.21-.086m-1.08 3.362a.666.666 0 0 0-.194.136c-.179.201-.242.697-.122.951.097.203.277.291.772.376 1.461.251 2.557.783 3.537 1.719 1 .954 1.618 2.128 1.888 3.59.115.625.177.78.358.891.191.118.628.113.86-.01.342-.181.39-.458.223-1.284-.348-1.714-1.014-2.983-2.179-4.148a7.335 7.335 0 0 0-2.174-1.536 7.513 7.513 0 0 0-2.199-.679c-.468-.075-.612-.076-.77-.006m-.7 3.83c-.2.135-.32.394-.32.692 0 .438.178.607.752.721 1.317.26 2.139 1.079 2.385 2.378.074.391.153.546.345.677.121.082.173.092.424.076.329-.02.507-.106.648-.312.087-.127.093-.166.072-.478-.068-1.025-.652-2.132-1.506-2.853-.644-.544-1.546-.922-2.32-.973-.312-.021-.352-.015-.48.072" fill-rule="evenodd" fill="#000"/></svg>