<svg width="24" height="24" fill="none" xmlns="http://www.w3.org/2000/svg"><path d="M7.4 1.282c-1.888.121-3.298.834-4.163 2.104-.584.859-.874 1.796-.957 3.088-.052.826-.052 10.226 0 11.052.083 1.29.375 2.233.961 3.093.602.884 1.502 1.516 2.62 1.84.92.267 1.623.309 4.879.293 2.436-.012 2.525-.015 2.656-.092a.646.646 0 0 0 .327-.475c.069-.367-.054-.684-.327-.845-.132-.078-.23-.081-3.256-.103l-3.12-.023-.425-.104c-.788-.192-1.313-.467-1.775-.93-.468-.468-.741-.992-.933-1.795l-.107-.445V6.06l.107-.445c.192-.803.465-1.327.933-1.795.659-.659 1.553-.996 2.784-1.047l.584-.025.023.576c.015.358.049.659.09.796A2.327 2.327 0 0 0 9.86 5.666c.218.067.409.074 2.12.074 1.83 0 1.888-.002 2.162-.089.727-.228 1.345-.889 1.518-1.621a3.99 3.99 0 0 0 .059-.766l.001-.516.63.024c2.109.081 3.308.982 3.761 2.823l.104.425.023 4.12c.021 4.027.024 4.123.102 4.256a.646.646 0 0 0 .475.327c.367.069.684-.054.845-.327.078-.133.08-.22.092-3.636.013-3.71-.013-4.614-.154-5.322-.258-1.295-.881-2.374-1.753-3.032-.95-.718-1.875-1.031-3.325-1.126-.671-.044-8.434-.043-9.12.002m6.839 1.908c-.001.333-.017.466-.075.59-.086.186-.257.357-.417.417-.073.028-.702.043-1.791.043-1.569 0-1.689-.005-1.828-.076-.311-.159-.393-.337-.43-.935l-.029-.469h4.571l-.001.43M16.8 16.245c-.106.031-.429.33-1.327 1.228-1.31 1.31-1.327 1.334-1.231 1.697.039.148.2.326 1.231 1.357 1.308 1.307 1.336 1.328 1.692 1.232.221-.06.534-.373.594-.594.091-.339.04-.417-.871-1.335l-.824-.83.824-.83c.698-.703.831-.856.87-1.001.137-.51-.446-1.072-.958-.924m3.006 0c-.193.057-.51.389-.565.59-.091.339-.04.417.871 1.335l.824.83-.824.83c-.911.918-.962.996-.871 1.335.06.221.373.534.594.594.356.096.384.075 1.692-1.232 1.031-1.031 1.192-1.209 1.231-1.357.095-.359.071-.392-1.172-1.642-.619-.623-1.18-1.166-1.246-1.207a.69.69 0 0 0-.534-.076" fill-rule="evenodd" fill="#000"/></svg>