<svg width="18" height="22" fill="none" xmlns="http://www.w3.org/2000/svg"><path d="M5.25.272c-1.507.055-2.503.297-3.277.796-.418.269-.873.79-1.124 1.284C.622 2.8.438 3.498.339 4.29c-.051.407-.054.834-.054 6.705s.003 6.298.054 6.705c.099.792.283 1.49.51 1.938.51 1.005 1.408 1.635 2.71 1.899.885.18 1.688.212 5.441.212s4.556-.032 5.441-.212c1.741-.353 2.728-1.326 3.091-3.048.191-.906.183-.593.183-7.494s.008-6.588-.183-7.494c-.321-1.523-1.131-2.459-2.506-2.896C14.397.404 13.729.311 12.63.27 11.749.237 6.166.239 5.25.272m7.665 1.499c.857.052 1.423.152 1.868.33.979.392 1.351 1.194 1.447 3.119.038.77.038 10.78 0 11.55-.066 1.321-.266 2.093-.67 2.585-.427.522-1.226.781-2.663.864-.684.04-7.11.04-7.794 0-1.404-.081-2.211-.336-2.644-.833-.286-.329-.514-.958-.613-1.686-.093-.687-.105-1.505-.105-6.705s.012-6.018.105-6.705c.099-.728.327-1.357.613-1.686.42-.482 1.25-.752 2.557-.831.604-.037 7.3-.038 7.899-.002M6.69 3.796c-.288.09-.419.309-.419.704 0 .288.054.443.198.573.185.167.112.162 2.546.162 2.246 0 2.25 0 2.37-.065.257-.138.345-.311.344-.677-.001-.395-.134-.61-.432-.699-.214-.064-4.401-.062-4.607.002M8.505 14.3c-.459.097-.834.317-1.194.7a2.261 2.261 0 0 0-.548 1.018c-.1.48-.039 1.078.152 1.496.229.499.712.95 1.25 1.168.637.257 1.404.19 2.028-.176.231-.136.656-.567.795-.806.19-.327.269-.617.285-1.052.018-.483-.035-.754-.219-1.126-.231-.466-.709-.917-1.176-1.106a2.531 2.531 0 0 0-1.373-.116m.77 1.492c.537.192.692.917.282 1.315-.174.169-.299.218-.557.218-.258 0-.383-.049-.557-.218a.782.782 0 0 1-.154-.913.754.754 0 0 1 .711-.441c.091 0 .215.017.275.039" fill-rule="evenodd" fill="#000"/></svg>