<svg width="24" height="24" fill="none" xmlns="http://www.w3.org/2000/svg"><path d="M6.372 3.283c-1.765.112-3.163.792-4.032 1.96-.555.745-.876 1.598-1.025 2.717-.032.243-.051.908-.053 1.84-.002 1.39.002 1.466.078 1.596a.646.646 0 0 0 .475.327c.367.069.684-.054.845-.327.075-.128.082-.233.105-1.756.024-1.551.03-1.638.127-2.045.187-.782.463-1.311.928-1.775.468-.468.992-.741 1.795-.933l.445-.107h11.88l.445.107c.803.192 1.327.465 1.795.933.468.468.741.992.933 1.795l.107.445v7.88l-.107.445c-.365 1.524-1.19 2.355-2.708 2.725l-.425.104-3.12.023c-3.026.022-3.124.025-3.256.103a.646.646 0 0 0-.327.475c-.069.367.054.684.327.845.131.077.22.08 2.636.093 2.691.013 3.651-.021 4.322-.155 1.295-.258 2.374-.881 3.032-1.753a4.851 4.851 0 0 0 .865-1.706c.281-.968.313-1.605.288-5.699-.02-3.397-.025-3.496-.204-4.26-.297-1.273-.956-2.28-1.924-2.939-.86-.586-1.803-.878-3.093-.961-.733-.047-10.416-.044-11.154.003m5.033 5.522c-.615.102-1.189.412-1.689.911-.651.652-.955 1.379-.955 2.284 0 .905.304 1.632.955 2.284.652.651 1.379.955 2.284.955.905 0 1.632-.304 2.284-.955.651-.652.955-1.379.955-2.284 0-.905-.304-1.632-.955-2.284-.665-.664-1.395-.963-2.324-.951-.187.002-.437.02-.555.04m6.771-.004a.604.604 0 0 0-.377.403c-.027.099-.037 1.102-.03 2.884.01 2.595.015 2.738.086 2.857.127.209.282.275.645.275.363 0 .518-.066.645-.275.072-.119.075-.253.075-2.945 0-2.692-.003-2.826-.075-2.945a.687.687 0 0 0-.196-.195c-.141-.083-.586-.117-.773-.059m-5.883 1.478c.341.056.638.208.909.466a1.717 1.717 0 0 1 0 2.51 1.709 1.709 0 0 1-2.404 0 1.713 1.713 0 0 1-.053-2.457 1.677 1.677 0 0 1 1.548-.519m-9.32 3.279c-.103.046-.441.341-.88.765-.568.549-.731.731-.802.893-.11.254-.11.314 0 .568.124.284 1.448 1.571 1.727 1.677.24.092.44.037.682-.185.315-.291.383-.631.183-.912l-.088-.124h1.784c1.919 0 1.994.007 2.108.207.038.066.059.343.073.953.017.75.03.876.095.985.127.209.282.275.645.275.363 0 .518-.066.645-.275.066-.111.076-.228.088-1.015.014-.981-.011-1.178-.194-1.565-.143-.304-.5-.673-.79-.821-.43-.217-.508-.224-2.56-.224H3.795l.083-.117c.186-.261.156-.548-.087-.824-.167-.189-.418-.337-.571-.337a.836.836 0 0 0-.247.076M1.599 17.69c-.304.154-.336.253-.353 1.097-.019.925.029 1.303.212 1.675.152.309.471.647.782.829.375.219.489.229 2.552.229h1.895l-.079.13c-.188.313-.142.58.15.872.234.233.438.304.689.236.136-.037.291-.167.856-.721.38-.373.708-.677.73-.677.073 0 .247-.41.247-.58 0-.17-.174-.58-.247-.58-.022 0-.35-.304-.73-.677-.565-.554-.72-.684-.856-.721-.251-.068-.455.003-.689.236-.292.292-.338.559-.149.873l.079.131-1.843-.011-1.843-.011-.111-.111-.111-.111-.021-.87c-.019-.773-.031-.887-.101-1.01-.11-.191-.373-.318-.658-.318a.86.86 0 0 0-.401.09" fill-rule="evenodd" fill="#000"/></svg>