<svg width="24" height="24" fill="none" xmlns="http://www.w3.org/2000/svg"><path d="M5.928 2.822c-1.288.165-2.289.606-3.081 1.355-.755.713-1.25 1.681-1.466 2.863-.114.627-.139 1.52-.139 4.96s.025 4.333.139 4.96c.216 1.184.711 2.15 1.467 2.865.804.76 1.797 1.191 3.127 1.355.719.089 11.331.089 12.05 0 1.981-.245 3.368-1.161 4.115-2.719.35-.73.514-1.417.58-2.441.05-.78.05-7.26 0-8.04-.066-1.024-.23-1.711-.58-2.441-.747-1.558-2.134-2.474-4.115-2.719-.671-.083-11.449-.081-12.097.002m11.784 1.46c2.039.221 3.179 1.276 3.465 3.207.094.63.094 8.392 0 9.022-.288 1.94-1.442 3.001-3.491 3.207-.566.057-10.806.057-11.372 0-2.049-.206-3.203-1.267-3.491-3.207-.094-.63-.094-8.392 0-9.022.282-1.903 1.425-2.98 3.397-3.202.468-.053 11.009-.057 11.492-.005m-11.101.997A3.248 3.248 0 0 0 4.075 7.1c-.272.57-.287.667-.304 1.96-.015 1.147-.014 1.162.077 1.339.128.25.284.33.649.332.365.002.525-.078.653-.33.085-.169.09-.225.09-1.059 0-.485.018-.987.039-1.115.047-.292.195-.617.384-.848.165-.201.549-.473.77-.545.091-.029.568-.056 1.247-.071 1.26-.026 1.305-.038 1.47-.362.186-.367.073-.885-.23-1.06-.129-.074-.216-.082-1.08-.087-.517-.004-1.07.008-1.229.025m8.684-.005c-.23.042-.369.145-.457.339-.168.37-.051.877.242 1.046.128.074.234.083 1.24.104.674.015 1.157.042 1.247.072.221.071.605.343.77.544.189.231.337.556.384.848.021.128.039.63.039 1.115 0 .834.005.89.09 1.059.126.248.282.328.647.33.365.002.525-.078.655-.332.091-.177.092-.192.077-1.339-.017-1.293-.032-1.39-.304-1.96a3.306 3.306 0 0 0-2.105-1.744c-.276-.072-.461-.086-1.34-.098-.561-.007-1.094 0-1.185.016M11.74 8.266c-1.325.119-2.413.819-3.021 1.946A3.483 3.483 0 0 0 8.271 12c0 .682.129 1.197.45 1.792a3.518 3.518 0 0 0 1.491 1.489 3.483 3.483 0 0 0 1.788.448c.68 0 1.197-.129 1.788-.448a3.518 3.518 0 0 0 1.491-1.489c.321-.595.45-1.11.45-1.792 0-.68-.129-1.197-.448-1.788a3.674 3.674 0 0 0-2.066-1.749c-.422-.147-1.066-.233-1.475-.197m.838 1.555c.371.097.696.291 1.003.598.46.46.659.937.659 1.581 0 .644-.199 1.121-.659 1.581-.46.46-.937.659-1.581.659-.644 0-1.121-.199-1.581-.659-.46-.46-.659-.937-.659-1.581 0-.644.199-1.121.659-1.581.3-.301.631-.5.985-.596.288-.077.881-.078 1.174-.002m-8.283 3.456c-.233.038-.37.142-.462.349-.075.169-.078.25-.063 1.327.018 1.278.034 1.38.305 1.947a3.31 3.31 0 0 0 2.105 1.746c.29.078.426.087 1.46.09 1.075.004 1.148-.001 1.28-.077.424-.245.424-1.073 0-1.318-.128-.074-.233-.083-1.24-.104-.679-.015-1.156-.042-1.247-.071-.221-.072-.605-.344-.77-.545a1.898 1.898 0 0 1-.384-.848c-.021-.128-.039-.63-.039-1.115 0-.834-.005-.89-.09-1.059a.67.67 0 0 0-.21-.244c-.147-.081-.424-.115-.645-.078m15 0c-.229.038-.369.141-.457.336-.067.147-.076.27-.077 1.047-.001.484-.019.985-.04 1.113a1.898 1.898 0 0 1-.384.848c-.165.201-.549.473-.77.544-.09.03-.573.057-1.247.072-1.006.021-1.112.03-1.24.104-.424.245-.424 1.073 0 1.318.132.076.205.081 1.28.077 1.035-.003 1.169-.011 1.46-.09a3.323 3.323 0 0 0 2.306-2.253c.08-.266.089-.4.103-1.453.015-1.147.014-1.162-.077-1.339a.683.683 0 0 0-.212-.246c-.147-.081-.424-.115-.645-.078" fill-rule="evenodd" fill="#000"/></svg>