<svg width="24" height="24" fill="none" xmlns="http://www.w3.org/2000/svg"><path d="M6.372 3.283c-2.577.164-4.306 1.51-4.895 3.808-.202.789-.207.906-.226 4.569l-.018 3.439-.172.261a4.624 4.624 0 0 0-.781 2.259 4.721 4.721 0 0 0 1.287 3.644c1.583 1.674 4.147 1.956 6.086.669.326-.217.833-.686 1.054-.976l.149-.196h4.022c2.231 0 4.301-.018 4.648-.04 1.29-.083 2.233-.375 3.093-.961.884-.602 1.516-1.502 1.84-2.62.281-.968.313-1.605.288-5.699-.02-3.397-.025-3.496-.204-4.26-.297-1.273-.956-2.28-1.924-2.939-.86-.586-1.803-.878-3.093-.961-.733-.047-10.416-.044-11.154.003m12.033 1.605c.793.197 1.314.47 1.775.932.468.468.741.992.933 1.795l.107.445v7.88l-.107.445c-.365 1.524-1.186 2.35-2.708 2.726l-.425.105-4.19.014c-2.304.007-4.19-.001-4.19-.018 0-.018.029-.167.064-.332.095-.448.086-1.314-.02-1.824a4.754 4.754 0 0 0-3.02-3.513c-1.12-.421-2.636-.347-3.666.178a1.24 1.24 0 0 1-.176.079c-.041 0-.023-5.335.019-5.671.244-1.944 1.357-3.072 3.279-3.326.143-.019 2.879-.031 6.08-.027l5.82.007.425.105m-7 3.917c-.615.102-1.189.412-1.689.911-.651.652-.955 1.379-.955 2.284 0 .905.304 1.632.955 2.284.652.651 1.379.955 2.284.955.905 0 1.632-.304 2.284-.955.651-.652.955-1.379.955-2.284 0-.905-.304-1.632-.955-2.284-.665-.664-1.395-.963-2.324-.951-.187.002-.437.02-.555.04m6.771-.004a.604.604 0 0 0-.377.403c-.027.099-.037 1.102-.03 2.884.01 2.595.015 2.738.086 2.857.127.209.282.275.645.275.363 0 .518-.066.645-.275.072-.119.075-.253.075-2.945 0-2.692-.003-2.826-.075-2.945a.687.687 0 0 0-.196-.195c-.141-.083-.586-.117-.773-.059m-5.883 1.478c.341.056.638.208.909.466a1.717 1.717 0 0 1 0 2.51 1.709 1.709 0 0 1-2.404 0 1.713 1.713 0 0 1-.053-2.457 1.677 1.677 0 0 1 1.548-.519M5.94 14.88c.305.097.74.303.74.35 0 .035-4.409 4.45-4.444 4.45-.052 0-.319-.641-.399-.96-.072-.288-.082-.419-.066-.86.033-.904.292-1.492.945-2.144.498-.498.949-.753 1.584-.899.375-.086 1.283-.052 1.64.063m1.975 1.67c.217.431.293.746.314 1.31.016.441.006.572-.066.86-.241.965-.853 1.745-1.698 2.161-.223.11-.547.236-.721.28a3.442 3.442 0 0 1-1.488-.002c-.3-.077-.936-.345-.936-.395 0-.035 4.415-4.444 4.449-4.444.017 0 .082.104.146.23" fill-rule="evenodd" fill="#000"/></svg>