<svg width="24" height="24" fill="none" xmlns="http://www.w3.org/2000/svg"><path d="M6.372 3.283c-2.577.164-4.306 1.51-4.895 3.808-.202.789-.207.906-.226 4.569l-.018 3.439-.172.261C.52 16.179.273 17.008.273 18c0 1.344.503 2.522 1.471 3.441.898.852 1.996 1.286 3.256 1.286 1.001 0 1.817-.246 2.66-.801.314-.206.913-.765 1.081-1.007l.11-.159h4.024c2.233 0 4.304-.018 4.651-.04 1.29-.083 2.233-.375 3.093-.961.884-.602 1.516-1.502 1.84-2.62.281-.968.313-1.605.288-5.699-.02-3.397-.025-3.496-.204-4.26-.297-1.273-.956-2.28-1.924-2.939-.86-.586-1.803-.878-3.093-.961-.733-.047-10.416-.044-11.154.003m12.033 1.605c.793.197 1.314.47 1.775.932.468.468.741.992.933 1.795l.107.445v7.88l-.107.445c-.365 1.524-1.186 2.35-2.708 2.726l-.425.105-4.19.014c-2.304.007-4.19-.001-4.19-.018 0-.018.028-.176.063-.352.093-.475.085-1.301-.019-1.804a4.755 4.755 0 0 0-3.02-3.513c-1.12-.421-2.636-.347-3.666.178a1.24 1.24 0 0 1-.176.079c-.041 0-.023-5.335.019-5.671.244-1.944 1.357-3.072 3.279-3.326.143-.019 2.879-.031 6.08-.027l5.82.007.425.105m-7 3.917c-.615.102-1.189.412-1.689.911-.651.652-.955 1.379-.955 2.284 0 .905.304 1.632.955 2.284.652.651 1.379.955 2.284.955.905 0 1.632-.304 2.284-.955.651-.652.955-1.379.955-2.284 0-.905-.304-1.632-.955-2.284-.665-.664-1.395-.963-2.324-.951-.187.002-.437.02-.555.04m6.771-.004a.604.604 0 0 0-.377.403c-.027.099-.037 1.102-.03 2.884.01 2.595.015 2.738.086 2.857.127.209.282.275.645.275.363 0 .518-.066.645-.275.072-.119.075-.253.075-2.945 0-2.692-.003-2.826-.075-2.945a.687.687 0 0 0-.196-.195c-.141-.083-.586-.117-.773-.059m-5.883 1.478c.341.056.638.208.909.466a1.717 1.717 0 0 1 0 2.51 1.709 1.709 0 0 1-2.404 0 1.713 1.713 0 0 1-.053-2.457 1.677 1.677 0 0 1 1.548-.519M5.98 14.894c.528.174.874.392 1.304.822.428.428.644.77.824 1.304.099.293.108.374.11.96.002.563-.009.676-.092.94-.166.532-.416.936-.843 1.364-.426.428-.767.644-1.303.824-.296.101-.369.109-.98.109s-.684-.008-.98-.109c-.535-.18-.877-.396-1.304-.824-.428-.427-.644-.769-.824-1.304-.101-.296-.109-.369-.109-.98s.008-.684.109-.98c.18-.535.396-.877.824-1.304.717-.717 1.35-.966 2.384-.941.472.012.61.031.88.119m-1.035 1.145a.677.677 0 0 0-.215.129c-.178.163-.21.305-.211.921 0 .314-.011.611-.024.66-.016.06-.185.188-.516.391-.668.41-.767.531-.741.9.021.278.329.666.568.717.224.047.425-.027.977-.359.596-.359.844-.585 1.015-.926.175-.351.21-.594.195-1.344-.015-.747-.052-.873-.306-1.021-.149-.087-.564-.125-.742-.068" fill-rule="evenodd" fill="#000"/></svg>