<svg width="24" height="24" fill="none" xmlns="http://www.w3.org/2000/svg"><path d="M6.372 3.283c-2.577.164-4.306 1.51-4.895 3.808-.202.789-.207.906-.226 4.569l-.018 3.439-.172.261a4.624 4.624 0 0 0-.781 2.259 4.721 4.721 0 0 0 1.287 3.644c1.583 1.674 4.147 1.956 6.086.669.326-.217.833-.686 1.054-.976l.149-.196h4.022c2.231 0 4.301-.018 4.648-.04 1.29-.083 2.233-.375 3.093-.961.884-.602 1.516-1.502 1.84-2.62.281-.968.313-1.605.288-5.699-.02-3.397-.025-3.496-.204-4.26-.297-1.273-.956-2.28-1.924-2.939-.86-.586-1.803-.878-3.093-.961-.733-.047-10.416-.044-11.154.003m12.033 1.605c.793.197 1.314.47 1.775.932.468.468.741.992.933 1.795l.107.445v7.88l-.107.445c-.365 1.524-1.186 2.35-2.708 2.726l-.425.105-4.19.014c-2.304.007-4.19-.001-4.19-.018 0-.018.029-.167.064-.332.095-.448.086-1.314-.02-1.824a4.754 4.754 0 0 0-3.02-3.513c-1.12-.421-2.636-.347-3.666.178a1.24 1.24 0 0 1-.176.079c-.041 0-.023-5.335.019-5.671.244-1.944 1.357-3.072 3.279-3.326.143-.019 2.879-.031 6.08-.027l5.82.007.425.105m-7 3.917c-.615.102-1.189.412-1.689.911-.651.652-.955 1.379-.955 2.284 0 .905.304 1.632.955 2.284.652.651 1.379.955 2.284.955.905 0 1.632-.304 2.284-.955.651-.652.955-1.379.955-2.284 0-.905-.304-1.632-.955-2.284-.665-.664-1.395-.963-2.324-.951-.187.002-.437.02-.555.04m6.771-.004a.604.604 0 0 0-.377.403c-.027.099-.037 1.102-.03 2.884.01 2.595.015 2.738.086 2.857.127.209.282.275.645.275.363 0 .518-.066.645-.275.072-.119.075-.253.075-2.945 0-2.692-.003-2.826-.075-2.945a.687.687 0 0 0-.196-.195c-.141-.083-.586-.117-.773-.059m-5.883 1.478c.341.056.638.208.909.466a1.717 1.717 0 0 1 0 2.51 1.709 1.709 0 0 1-2.404 0 1.713 1.713 0 0 1-.053-2.457 1.677 1.677 0 0 1 1.548-.519M5.98 14.894c.528.174.874.392 1.304.822.653.652.912 1.24.945 2.144.016.44.006.572-.066.86-.241.965-.853 1.745-1.698 2.161-.537.265-.921.359-1.465.359s-.928-.094-1.465-.359c-.845-.416-1.457-1.196-1.698-2.161-.072-.288-.082-.42-.066-.86.033-.904.292-1.492.945-2.144.717-.717 1.35-.966 2.384-.941.472.012.61.031.88.119m-2.394 1.39a1.096 1.096 0 0 0-.404.544c-.059.2.052.409.419.789l.356.368-.321.317c-.365.36-.476.542-.476.779 0 .198.044.291.235.492.188.198.322.267.525.267.236 0 .418-.112.778-.476l.317-.321.368.356c.498.481.649.523 1.05.293.236-.135.407-.409.407-.652 0-.232-.13-.442-.494-.797l-.263-.258.336-.348c.246-.256.347-.392.38-.513.067-.247-.005-.453-.237-.686-.233-.232-.439-.304-.686-.237-.121.033-.257.134-.513.38l-.348.336-.258-.263c-.511-.523-.801-.615-1.171-.37" fill-rule="evenodd" fill="#000"/></svg>