<svg width="24" height="24" fill="none" xmlns="http://www.w3.org/2000/svg"><path d="M5.928 2.822c-1.288.165-2.289.606-3.081 1.355-.755.713-1.25 1.681-1.466 2.863-.114.627-.139 1.52-.139 4.96s.025 4.333.139 4.96c.216 1.184.711 2.15 1.467 2.865.804.76 1.797 1.191 3.127 1.355.719.089 11.331.089 12.05 0 1.981-.245 3.368-1.161 4.115-2.719.35-.73.514-1.417.58-2.441.05-.78.05-7.26 0-8.04-.066-1.024-.23-1.711-.58-2.441-.747-1.558-2.134-2.474-4.115-2.719-.671-.083-11.449-.081-12.097.002m11.784 1.46c2.039.221 3.179 1.276 3.465 3.207.094.63.094 8.392 0 9.022-.288 1.94-1.442 3.001-3.491 3.207-.566.057-10.806.057-11.372 0-2.049-.206-3.203-1.267-3.491-3.207-.094-.63-.094-8.392 0-9.022.282-1.903 1.425-2.98 3.397-3.202.468-.053 11.009-.057 11.492-.005m-1.925 1.996c-.342.069-.519.314-.519.722 0 .461.207.692.663.74.137.014.942.02 1.789.013 1.455-.012 1.547-.017 1.676-.093a.646.646 0 0 0 .327-.475c.069-.367-.054-.684-.327-.845-.13-.076-.214-.08-1.796-.087-.913-.003-1.729.008-1.813.025M11.74 8.266c-1.325.119-2.413.819-3.021 1.946A3.483 3.483 0 0 0 8.271 12c0 .682.129 1.197.45 1.792a3.518 3.518 0 0 0 1.491 1.489 3.483 3.483 0 0 0 1.788.448c.68 0 1.197-.129 1.788-.448a3.518 3.518 0 0 0 1.491-1.489c.321-.595.45-1.11.45-1.792 0-.68-.129-1.197-.448-1.788a3.674 3.674 0 0 0-2.066-1.749c-.422-.147-1.066-.233-1.475-.197m.838 1.555c.371.097.696.291 1.003.598.46.46.659.937.659 1.581 0 .644-.199 1.121-.659 1.581-.46.46-.937.659-1.581.659-.644 0-1.121-.199-1.581-.659-.46-.46-.659-.937-.659-1.581 0-.644.199-1.121.659-1.581.3-.301.631-.5.985-.596.288-.077.881-.078 1.174-.002m-7.791 6.457c-.342.069-.519.314-.519.722 0 .461.207.692.663.74.137.014.942.02 1.789.013 1.455-.012 1.547-.017 1.676-.093a.646.646 0 0 0 .327-.475c.069-.367-.054-.684-.327-.845-.13-.076-.214-.08-1.796-.087-.913-.003-1.729.008-1.813.025" fill-rule="evenodd" fill="#000"/></svg>