<svg width="24" height="24" fill="none" xmlns="http://www.w3.org/2000/svg"><path d="M5.54 2.801C3.143 2.972 1.608 4.222 1.121 6.4.973 7.058.953 7.643.97 10.84c.016 3.318.017 3.326.25 4.141.238.827.768 1.653 1.378 2.147.348.281 1.167.727 1.425.775.164.031.18.052.295.377.543 1.534 1.693 2.463 3.502 2.827.337.068.702.073 5.7.073h5.34l.428-.09c1.032-.218 1.78-.599 2.411-1.226.544-.54.931-1.246 1.141-2.08.196-.778.207-1.051.192-4.564-.014-3.176-.016-3.248-.104-3.648-.129-.591-.234-.906-.431-1.306a4.147 4.147 0 0 0-2.385-2.126l-.309-.109-.066-.206a5.16 5.16 0 0 0-.647-1.248c-.686-.923-1.699-1.493-3.057-1.722-.375-.063-.861-.071-5.233-.078-2.651-.004-5.018.007-5.26.024m10.297 1.54c1.478.24 2.341 1.065 2.614 2.499.074.388.081.633.098 3.24.023 3.633-.015 4.142-.365 4.9-.423.915-1.106 1.415-2.252 1.648-.328.067-.704.072-5.432.072H5.42l-.489-.106c-1.543-.334-2.314-1.307-2.456-3.099-.025-.326-.035-1.603-.025-3.36.014-2.421.026-2.889.083-3.204.232-1.281.902-2.085 2.045-2.453.583-.188.628-.19 5.902-.194 4.288-.003 5.032.005 5.357.057M9.844 7.182c-.721.156-1.221.426-1.728.934-.617.617-.939 1.331-.984 2.186-.053 1.015.272 1.871.984 2.582.707.707 1.572 1.039 2.562.983.648-.036 1.189-.213 1.689-.551a3.421 3.421 0 0 0 1.403-1.95c.126-.439.126-1.293 0-1.732a3.459 3.459 0 0 0-1.454-1.987c-.678-.445-1.69-.635-2.472-.465m-5.388.419a.604.604 0 0 0-.377.403c-.027.1-.037 1.003-.03 2.585.01 2.3.015 2.438.086 2.556.127.209.282.275.645.275.363 0 .518-.066.645-.275.071-.119.075-.247.075-2.645s-.004-2.526-.075-2.645a.687.687 0 0 0-.196-.195c-.141-.083-.586-.117-.773-.059m11.438 0c-.182.057-.364.281-.393.487-.014.095-.02 1.246-.013 2.559.012 2.339.014 2.389.094 2.498.153.204.273.264.571.285.375.027.604-.076.725-.325.08-.166.082-.228.082-2.605 0-2.344-.003-2.441-.079-2.598a.659.659 0 0 0-.206-.239c-.147-.086-.587-.121-.781-.062m4.446.34c.673.504 1.06 1.277 1.18 2.359.031.272.04 1.377.031 3.46-.016 3.289-.016 3.281-.233 3.925-.388 1.154-1.28 1.822-2.658 1.991-.463.056-9.863.059-10.3.003-.793-.103-1.428-.369-1.881-.788-.242-.224-.519-.558-.519-.626 0-.011 2.183-.028 4.85-.037 4.268-.015 4.896-.025 5.23-.083 1.667-.288 2.826-1.092 3.461-2.402.192-.396.304-.73.431-1.283.079-.344.084-.498.098-3.53.007-1.743.027-3.17.042-3.17.015.001.136.082.268.181m-9.196.783c.834.31 1.359 1.185 1.225 2.047-.152.98-1.075 1.71-2.041 1.612-.494-.05-.883-.251-1.239-.641-.517-.566-.63-1.347-.298-2.062.129-.278.596-.75.869-.88a1.986 1.986 0 0 1 1.484-.076" fill-rule="evenodd" fill="#000"/></svg>