<svg width="24" height="24" fill="none" xmlns="http://www.w3.org/2000/svg"><path d="M5.928 2.822c-1.288.165-2.289.606-3.081 1.355-.755.713-1.25 1.681-1.466 2.863-.114.627-.139 1.52-.139 4.96s.025 4.333.139 4.96c.216 1.184.711 2.15 1.467 2.865.804.76 1.797 1.191 3.127 1.355.719.089 11.331.089 12.05 0 1.981-.245 3.368-1.161 4.115-2.719.35-.73.514-1.417.58-2.441.05-.78.05-7.26 0-8.04-.066-1.024-.23-1.711-.58-2.441-.747-1.558-2.134-2.474-4.115-2.719-.671-.083-11.449-.081-12.097.002M16.24 4.61c.001.6.074 1.629.142 1.993.329 1.763 1.25 2.684 3.018 3.015.276.052 1.353.139 1.75.141l.09.001v4.48l-.09.001c-.395.002-1.474.089-1.75.14-1.768.33-2.689 1.251-3.019 3.019-.066.354-.139 1.406-.14 2.01l-.001.35H7.76l-.001-.37c-.002-.606-.071-1.585-.139-1.97-.31-1.762-1.248-2.706-3.02-3.038-.276-.052-1.353-.139-1.75-.141l-.09-.001V9.76l.09-.001c.395-.002 1.474-.089 1.75-.14 1.764-.33 2.716-1.287 3.021-3.039.067-.387.136-1.368.138-1.97l.001-.37h8.48v.37m-10 .375c0 1.037-.145 1.851-.409 2.295-.12.201-.345.429-.535.54-.428.251-1.261.42-2.071.42H2.76v-.165c0-.284.121-.993.227-1.331.3-.956.92-1.689 1.748-2.064.383-.174 1.107-.371 1.455-.396.038-.003.05.162.05.701m12.188-.582c1.575.36 2.499 1.396 2.749 3.086.035.232.063.495.063.586v.165h-.465c-.815 0-1.643-.169-2.077-.423-.652-.382-.938-1.25-.938-2.846v-.692l.17.024c.093.014.318.058.498.1M11.74 8.266c-1.325.119-2.413.819-3.021 1.946A3.483 3.483 0 0 0 8.271 12c0 .682.129 1.197.45 1.792a3.518 3.518 0 0 0 1.491 1.489 3.483 3.483 0 0 0 1.788.448c.68 0 1.197-.129 1.788-.448a3.518 3.518 0 0 0 1.491-1.489c.321-.595.45-1.11.45-1.792 0-.68-.129-1.197-.448-1.788a3.674 3.674 0 0 0-2.066-1.749c-.422-.147-1.066-.233-1.475-.197m.838 1.555c.371.097.696.291 1.003.598.46.46.659.937.659 1.581 0 .644-.199 1.121-.659 1.581-.46.46-.937.659-1.581.659-.644 0-1.121-.199-1.581-.659-.46-.46-.659-.937-.659-1.581 0-.644.199-1.121.659-1.581.3-.301.631-.5.985-.596.288-.077.881-.078 1.174-.002m-8.59 5.98c.945.118 1.545.412 1.829.897.281.48.423 1.257.423 2.318v.705l-.17-.024c-1.89-.271-2.972-1.333-3.247-3.186a5.676 5.676 0 0 1-.063-.586v-.165h.451c.248 0 .598.018.777.041m17.252.124c0 .284-.121.993-.227 1.331-.321 1.026-1.007 1.784-1.936 2.143a6.196 6.196 0 0 1-1.147.298l-.17.024v-.692c0-1.712.316-2.556 1.094-2.924.472-.224 1.07-.332 1.876-.34l.51-.005v.165" fill-rule="evenodd" fill="#000"/></svg>