<svg width="24" height="24" fill="none" xmlns="http://www.w3.org/2000/svg"><path d="M5.5 1.281c-2.599.163-3.752 1.075-4.118 3.259-.112.667-.141 1.706-.141 5.06 0 3.486.028 4.416.157 5.169.318 1.857 1.296 2.784 3.27 3.096.372.058.859.07 3.502.084l3.07.016v3.27l-2.01.013c-1.933.012-2.015.015-2.15.093a.67.67 0 0 0-.23.258c-.186.367-.073.885.23 1.06.138.08.195.081 4.92.081s4.782-.001 4.92-.081c.424-.245.424-1.073 0-1.318-.135-.078-.217-.081-2.15-.093l-2.01-.012v-3.271l3.07-.016c2.643-.014 3.13-.026 3.502-.084 1.709-.27 2.646-.983 3.085-2.345.175-.544.255-1.061.308-2.011.061-1.074.035-1.854-.067-2.028-.146-.248-.261-.301-.658-.301-.298 0-.372.013-.467.084-.183.137-.253.298-.28.651l-.025.325H2.76V8.898c0-2.067.016-3.489.042-3.73.141-1.298.502-1.88 1.346-2.164.542-.183.87-.214 2.532-.239 1.483-.023 1.588-.03 1.716-.105.273-.161.396-.478.327-.845a.646.646 0 0 0-.327-.475c-.127-.074-.214-.08-1.256-.086a33.166 33.166 0 0 0-1.64.027m7.021.082c-.586.153-1.221.625-1.581 1.175-.085.131-.21.392-.278.58l-.122.342v2.3c0 2.531-.002 2.505.25 3.04.186.393.632.85 1.01 1.033.563.272.453.263 3.499.277 2.404.012 2.8.005 3.08-.05a2.555 2.555 0 0 0 1.797-1.384l.133-.265.234.154c.314.206.578.29.917.291.66.001 1.153-.47 1.259-1.203.052-.358.051-3.552-.001-3.912-.16-1.11-1.198-1.558-2.164-.934-.134.086-.246.152-.251.145a34.066 34.066 0 0 1-.145-.292c-.178-.361-.67-.868-1.042-1.074a2.975 2.975 0 0 0-.576-.226c-.298-.076-.441-.08-3.016-.078-2.55.002-2.721.007-3.003.081m5.821 1.504c.089.047.236.167.328.267.294.318.295.333.282 2.652-.012 2.009-.013 2.036-.1 2.199-.142.265-.281.404-.524.523l-.228.112h-2.64c-2.905 0-2.866.003-3.14-.245-.303-.273-.3-.251-.3-2.595V3.7l.098-.2c.133-.271.433-.556.692-.656.204-.079.28-.081 2.79-.073 2.561.009 2.581.01 2.742.096m2.889 3.585-.011.778-.39-.277-.39-.277V4.695l.39-.269.39-.268.011.758c.006.417.006 1.109 0 1.536m-.035 7.598c-.168 1.737-.721 2.234-2.656 2.39-.678.055-12.407.052-13.102-.002-1.887-.149-2.452-.654-2.628-2.348l-.034-.33h18.448l-.028.29" fill-rule="evenodd" fill="#000"/></svg>