<svg width="24" height="24" fill="none" xmlns="http://www.w3.org/2000/svg"><path d="M5.04 1.826c-.512.054-.852.11-1.173.193-1.194.311-1.915.97-2.291 2.097-.296.888-.335 1.548-.335 5.624s.039 4.736.335 5.624c.375 1.125 1.097 1.787 2.286 2.095.695.181.862.192 3.168.21l2.21.017v3.03l-1.39.012c-1.306.011-1.398.017-1.526.092-.22.13-.292.259-.314.57-.026.369.073.609.301.725.151.078.24.081 2.056.088 2.09.007 2.031.013 2.246-.242a.678.678 0 0 0 .127-.291c.013-.094.019-1.259.012-2.59-.012-2.345-.015-2.424-.093-2.56a.67.67 0 0 0-.258-.23l-.178-.09H7.902c-1.299 0-2.525-.019-2.782-.042-1.151-.105-1.741-.392-2.021-.984-.14-.296-.254-.761-.285-1.161l-.026-.332 3.783-.01c3.775-.011 3.783-.011 3.896-.095.191-.143.265-.313.265-.611 0-.331-.088-.531-.286-.654l-.146-.091-3.77-.011-3.77-.011v-3.14c0-3.211.016-3.648.159-4.225.254-1.03.79-1.389 2.261-1.514.361-.031 2.393-.039 6.66-.028 5.397.014 6.18.023 6.47.079.627.121.975.267 1.243.524.412.394.582 1.032.64 2.399.027.617.044.755.109.866.128.218.258.289.571.311.37.027.609-.079.734-.323.08-.157.083-.207.062-.986-.052-1.928-.486-3.012-1.467-3.658-.446-.294-.875-.454-1.602-.596-.412-.081-.538-.082-6.92-.089-3.575-.003-6.563 0-6.64.008m9.92 7.282c-2.003.093-2.917.868-3.12 2.644-.031.267-.04 1.564-.03 4.148.013 3.637.017 3.772.097 4.12.278 1.205.915 1.827 2.133 2.085.304.065.624.074 3 .086 1.783.009 2.788-.001 3.048-.031 1.317-.151 2.084-.706 2.43-1.76.203-.617.213-.795.232-4.218.022-4.117-.018-4.805-.318-5.515-.42-.993-1.228-1.449-2.739-1.547-.529-.034-4.069-.044-4.733-.012m5.02 1.533c.861.123 1.099.359 1.217 1.212.059.428.059 7.184 0 7.611-.051.366-.166.693-.299.851-.136.161-.434.277-.888.346-.569.086-4.933.085-5.503-.001-.411-.062-.706-.167-.853-.306-.138-.129-.251-.44-.315-.864-.087-.58-.086-7.085.001-7.666.123-.817.366-1.064 1.161-1.179.339-.05 5.135-.053 5.479-.004m-2.984 6.64c-.512.086-.725.367-.73.96-.003.286.013.373.095.54.17.343.484.483 1.003.448.347-.023.492-.086.668-.286.163-.185.221-.414.199-.783-.032-.541-.251-.798-.751-.878a3.1 3.1 0 0 0-.28-.037l-.204.036" fill-rule="evenodd" fill="#000"/></svg>