<svg width="24" height="24" fill="none" xmlns="http://www.w3.org/2000/svg"><path d="M5.5 1.282c-2.596.16-3.752 1.074-4.118 3.258-.112.667-.141 1.706-.141 5.06 0 4.373.045 5.094.375 6.017.477 1.336 1.39 1.993 3.123 2.25.369.054.939.068 3.471.082l3.03.017v3.269l-2.01.013c-1.933.012-2.015.015-2.15.093a.67.67 0 0 0-.23.258c-.186.367-.073.885.23 1.06.138.08.195.081 4.92.081s4.782-.001 4.92-.081c.424-.245.424-1.073 0-1.318-.135-.078-.217-.081-2.15-.093l-2.01-.012v-3.269l3.03-.017c2.847-.016 3.061-.022 3.55-.102.692-.112 1.047-.215 1.482-.429.828-.408 1.354-1.062 1.637-2.039.144-.498.215-.976.261-1.765.051-.882.05-7.111-.001-8.015-.066-1.155-.196-1.76-.525-2.438-.178-.367-.249-.464-.57-.786-.321-.32-.42-.392-.787-.571-.477-.234-.995-.378-1.697-.473-.424-.058-1.215-.066-6.8-.074-3.476-.004-6.554.006-6.84.024m13.332 1.52c1.41.151 1.997.581 2.246 1.646.148.631.162 1.024.162 4.45v3.342H2.76V8.898c0-3.431.014-3.818.163-4.455.245-1.046.828-1.485 2.177-1.636.465-.053 13.246-.057 13.732-.005m2.361 11.268c-.046.455-.179 1-.312 1.281-.328.694-1.033.998-2.526 1.088-.832.051-11.731.052-12.655.002-2.127-.116-2.707-.587-2.89-2.351l-.034-.33H21.225l-.032.31" fill-rule="evenodd" fill="#000"/></svg>