<svg width="24" height="24" fill="none" xmlns="http://www.w3.org/2000/svg"><path d="M8.9 1.269c-.443.061-1.142.344-1.92.778-2.779 1.55-4.746 4.155-5.444 7.209a11.95 11.95 0 0 0-.217 3.564c.473 4.549 3.88 8.433 8.405 9.58 1.853.471 3.967.449 5.747-.059 1.071-.305 1.953-.68 2.809-1.194.861-.516 1.422-.96 2.181-1.723.937-.943 1.479-1.719 1.6-2.294.078-.364.073-.515-.022-.824-.162-.523-.608-.858-1.274-.955-.282-.041-.402-.035-.993.045-.37.051-.942.101-1.272.113-2.91.1-5.729-1.384-7.404-3.897-.931-1.398-1.438-3.211-1.361-4.86.047-.99.225-1.797.627-2.838.243-.629.286-.811.287-1.214.001-.751-.455-1.301-1.175-1.418a1.532 1.532 0 0 0-.574-.013m.26 1.552c0 .034-.088.29-.196.57-.487 1.266-.668 2.116-.711 3.349-.084 2.362.691 4.651 2.213 6.538 1.625 2.015 4.086 3.366 6.679 3.667.741.085 2.004.058 2.812-.062.369-.054.591-.071.615-.047.154.154-1.303 1.783-2.176 2.434a9.915 9.915 0 0 1-4.896 1.929c-.53.059-1.668.05-2.208-.019a9.858 9.858 0 0 1-6.979-4.34c-.62-.93-1.155-2.214-1.371-3.29-.422-2.112-.113-4.328.864-6.19A9.743 9.743 0 0 1 8.38 3.013c.534-.246.533-.246.67-.25.073-.002.11.017.11.058" fill-rule="evenodd" fill="#000"/></svg>