<svg width="24" height="24" fill="none" xmlns="http://www.w3.org/2000/svg"><path d="M11.609 4.284a3 3 0 0 0-1.082.363c-.291.171-.869.749-1.04 1.04-.509.867-.509 2.079 0 2.946.171.291.749.869 1.04 1.04.867.509 2.079.509 2.946 0 .291-.171.869-.749 1.04-1.04.509-.867.509-2.094 0-2.941-.29-.481-.844-.977-1.333-1.194-.442-.195-1.043-.277-1.571-.214m.899 1.562c.168.063.299.154.476.33.301.302.416.574.416.984 0 .41-.115.682-.416.984-.302.301-.574.416-.984.416-.41 0-.682-.115-.984-.416-.301-.302-.416-.574-.416-.984 0-.41.115-.682.416-.984.304-.303.557-.411.972-.414.202-.001.359.024.52.084m-6.081 8.115a2.87 2.87 0 0 0-2.245 1.619c-.229.473-.281.706-.281 1.26 0 .533.051.777.257 1.22a2.93 2.93 0 0 0 1.876 1.585c.36.094 1.024.113 1.376.038.87-.184 1.635-.806 2.03-1.651.322-.688.322-1.696 0-2.384-.551-1.179-1.734-1.84-3.013-1.687m10.397.001c-.941.111-1.785.724-2.227 1.618-.195.393-.276.763-.276 1.26s.081.867.276 1.26c.559 1.131 1.7 1.759 2.939 1.618.605-.068 1.066-.263 1.515-.637.444-.372.751-.825.935-1.381.091-.273.107-.393.11-.82.005-.595-.042-.812-.278-1.3-.549-1.134-1.721-1.767-2.994-1.618m-9.457 1.592c.297.143.536.381.682.677.117.239.131.304.131.609s-.014.37-.131.609a1.488 1.488 0 0 1-.683.679c-.154.076-.25.092-.566.092-.326 0-.411-.015-.6-.104a1.493 1.493 0 0 1-.689-.705 1.381 1.381 0 0 1-.015-1.114c.173-.378.407-.608.776-.764.302-.127.809-.118 1.095.021m10.433.011c1.073.502 1.073 2.038 0 2.55-.19.091-.272.105-.6.105-.316 0-.412-.016-.566-.092-.661-.325-.996-1.095-.756-1.734.16-.426.496-.766.882-.893.282-.093.769-.063 1.04.064" fill-rule="evenodd" fill="#000"/></svg>