<svg width="24" height="24" fill="none" xmlns="http://www.w3.org/2000/svg"><path d="M4.66 9.278c-.871.105-1.629.623-2.08 1.422-.418.741-.418 1.858 0 2.6.263.466.653.856 1.12 1.12.741.418 1.858.418 2.6 0 .664-.375 1.152-.985 1.343-1.68.18-.658.09-1.485-.223-2.04-.568-1.007-1.636-1.557-2.76-1.422m7 0c-.871.105-1.629.623-2.08 1.422-.418.741-.418 1.858 0 2.6.517.917 1.385 1.431 2.42 1.431s1.901-.512 2.42-1.431c.418-.741.418-1.859 0-2.6-.568-1.007-1.636-1.557-2.76-1.422m7 0c-.871.105-1.629.623-2.08 1.422-.418.741-.418 1.858 0 2.6.263.466.653.856 1.12 1.12.741.418 1.858.418 2.6 0 .664-.375 1.152-.985 1.343-1.68.18-.658.09-1.485-.223-2.04-.568-1.007-1.636-1.557-2.76-1.422M5.454 10.841c.29.109.596.415.705.705.176.471.068.975-.285 1.328-.781.781-2.114.23-2.114-.874 0-.342.12-.629.366-.874a1.236 1.236 0 0 1 1.328-.285m7 0c.29.109.596.415.705.705.176.471.068.975-.285 1.328-.781.781-2.114.23-2.114-.874 0-.342.12-.629.366-.874a1.236 1.236 0 0 1 1.328-.285m7 0c.29.109.596.415.705.705.176.471.068.975-.285 1.328-.781.781-2.114.23-2.114-.874 0-.342.12-.629.366-.874a1.236 1.236 0 0 1 1.328-.285" fill-rule="evenodd" fill="#000"/></svg>