<svg width="24" height="24" fill="none" xmlns="http://www.w3.org/2000/svg"><path d="M11.56 1.266a10.763 10.763 0 0 0-9.105 5.833c-.811 1.574-1.181 3.1-1.183 4.881-.001 1.143.123 2.029.43 3.07 1.014 3.438 3.82 6.244 7.248 7.247 1.693.495 3.576.574 5.246.219a10.796 10.796 0 0 0 7.349-5.615c.815-1.582 1.183-3.103 1.183-4.901 0-1.137-.121-1.99-.431-3.05-1.003-3.428-3.819-6.244-7.247-7.247-1.11-.325-2.406-.487-3.49-.437m1.588 1.556c2.079.272 3.88 1.162 5.374 2.656a8.988 8.988 0 0 1 1.909 2.736A8.898 8.898 0 0 1 21.24 12c0 1.36-.258 2.567-.809 3.786a8.988 8.988 0 0 1-1.909 2.736 8.988 8.988 0 0 1-2.736 1.909A8.898 8.898 0 0 1 12 21.24a8.898 8.898 0 0 1-3.786-.809 8.988 8.988 0 0 1-2.736-1.909C3.695 16.739 2.76 14.495 2.76 12s.935-4.739 2.718-6.522c1.482-1.482 3.278-2.374 5.343-2.656.559-.076 1.748-.076 2.327 0M7.57 11.073c-.373.133-.531.366-.561.827-.043.662.253 1.033.867 1.089.453.041.849-.131 1.012-.439.075-.141.09-.235.091-.553.001-.357-.007-.397-.119-.578-.163-.263-.402-.386-.791-.406a1.17 1.17 0 0 0-.499.06m4 .002c-.414.143-.548.369-.548.925 0 .421.076.634.282.796.331.261 1.012.263 1.374.005.221-.157.3-.368.3-.801 0-.314-.015-.409-.088-.547-.208-.393-.791-.561-1.32-.378m4.044-.018c-.237.075-.402.204-.504.396-.127.242-.127.852 0 1.094.202.382.748.55 1.277.393.255-.075.392-.183.503-.394.073-.137.088-.232.088-.546 0-.421-.076-.634-.282-.796-.236-.186-.74-.254-1.082-.147" fill-rule="evenodd" fill="#000"/></svg>