<svg width="24" height="24" fill="none" xmlns="http://www.w3.org/2000/svg"><path d="M8.08 1.282c-4.072.213-6.185 2.014-6.697 5.709-.113.812-.141 1.825-.141 5.009 0 4.504.06 5.273.518 6.65.772 2.313 2.446 3.576 5.267 3.972.759.106 1.875.137 4.973.137s4.214-.031 4.973-.137c2.47-.347 4.023-1.334 4.924-3.132.482-.96.741-2.121.823-3.683.051-.969.051-6.645 0-7.614-.063-1.195-.199-2.002-.478-2.837-.61-1.825-1.773-2.989-3.592-3.596-.862-.287-1.627-.416-2.844-.48-.854-.045-6.854-.043-7.726.002m8.72 1.572c2.786.462 3.914 1.6 4.348 4.386.066.421.072.824.072 4.76s-.006 4.339-.072 4.76c-.436 2.798-1.59 3.952-4.388 4.388-.421.066-.824.072-4.76.072s-4.339-.006-4.76-.072c-2.79-.435-3.957-1.597-4.386-4.368-.069-.445-.074-.791-.074-4.78 0-4.753-.004-4.663.264-5.712C3.557 4.282 4.722 3.274 6.96 2.9c.73-.123 1.088-.131 5.24-.123 3.763.007 4.222.014 4.6.077m-9.23 8.219c-.373.133-.531.366-.561.827-.043.662.253 1.033.867 1.089.453.041.849-.131 1.012-.439.075-.141.09-.235.091-.553.001-.357-.007-.397-.119-.578-.163-.263-.402-.386-.791-.406a1.17 1.17 0 0 0-.499.06m4 .002c-.414.143-.548.369-.548.925 0 .421.076.634.282.796.331.261 1.012.263 1.374.005.221-.157.3-.368.3-.801 0-.314-.015-.409-.088-.547-.208-.393-.791-.561-1.32-.378m4.044-.018c-.237.075-.402.204-.504.396-.127.242-.127.852 0 1.094.202.382.748.55 1.277.393.255-.075.392-.183.503-.394.073-.137.088-.232.088-.546 0-.421-.076-.634-.282-.796-.236-.186-.74-.254-1.082-.147" fill-rule="evenodd" fill="#000"/></svg>