<svg width="24" height="24" fill="none" xmlns="http://www.w3.org/2000/svg"><path d="M11.32 1.281c-2.061.117-4.07.861-5.79 2.143-.618.46-1.646 1.488-2.106 2.106-1.549 2.078-2.288 4.52-2.143 7.08.121 2.149.837 4.107 2.143 5.86.456.613 1.485 1.641 2.106 2.105a10.833 10.833 0 0 0 4.813 2.042c.532.082 1.634.146 1.845.106.2-.037.346-.126.437-.265.154-.235.147-.716-.015-.933-.161-.216-.279-.25-.987-.286-1.425-.072-2.599-.382-3.843-1.012-.901-.457-1.63-1.001-2.402-1.793-.767-.786-1.208-1.41-1.68-2.374A8.895 8.895 0 0 1 2.76 12c0-1.462.3-2.761.936-4.06.492-1.006 1.033-1.746 1.87-2.562.785-.766 1.407-1.206 2.374-1.681A8.912 8.912 0 0 1 12 2.76c2.056 0 3.97.645 5.619 1.893.409.309 1.233 1.112 1.568 1.527 1.257 1.556 1.947 3.387 2.052 5.443.036.708.07.826.286.987.217.162.698.169.933.015.139-.091.228-.237.265-.437.04-.211-.024-1.313-.106-1.845a10.836 10.836 0 0 0-2.042-4.813c-.46-.617-1.488-1.645-2.105-2.105a10.75 10.75 0 0 0-4.728-2.027c-.408-.067-1.668-.169-1.862-.151l-.56.034m2.648 11.061c-.52.14-.974.458-1.284.901-.305.433-.385.709-.381 1.317l.002.5.968 3.1c.605 1.939 1.022 3.209 1.113 3.391.25.498.714.902 1.259 1.095.209.074.341.091.735.092.567.002.834-.075 1.269-.364.536-.356.714-.659 1.148-1.946.175-.523.357-1.004.404-1.07.117-.164.21-.206 1.205-.541.48-.161.968-.341 1.086-.398a2.343 2.343 0 0 0 1.105-1.211c.11-.279.16-.758.116-1.118a2.173 2.173 0 0 0-1.207-1.709c-.246-.119-5.737-1.854-6.452-2.038-.3-.077-.801-.078-1.086-.001m3.492 2.299c1.562.484 2.976.926 3.143.981.462.152.638.371.636.791 0 .233-.113.47-.281.595-.057.042-.566.235-1.131.429-1.104.378-1.326.491-1.669.849-.274.286-.403.559-.762 1.621-.19.562-.364 1.008-.425 1.088-.281.369-.903.367-1.186-.005-.134-.175-2.025-6.235-2.025-6.487 0-.346.395-.743.739-.743.067 0 1.399.396 2.961.881" fill-rule="evenodd" fill="#000"/></svg>