<svg width="24" height="24" fill="none" xmlns="http://www.w3.org/2000/svg"><path d="M11.36 1.282c-2.468.173-4.807 1.55-6.222 3.662a8.39 8.39 0 0 0-1.336 3.704c-.057.522-.057 6.182 0 6.704.107.979.374 1.904.798 2.759 1.507 3.041 4.606 4.833 7.964 4.607a8.239 8.239 0 0 0 6.292-3.654c.498-.744.91-1.66 1.119-2.485.244-.961.239-.888.256-4.299.01-2.172 0-3.279-.031-3.591a8.259 8.259 0 0 0-3.643-6.051c-1.499-1.008-3.335-1.487-5.197-1.356M11.24 4.1c0 1.049-.01 1.3-.053 1.3-.106 0-.556.307-.786.536a2.255 2.255 0 0 0-.58 1.028c-.086.366-.087 2.702-.001 3.067a2.302 2.302 0 0 0 1.497 1.613c.197.063.369.084.683.084.501 0 .824-.088 1.183-.321.306-.198.668-.591.819-.89.215-.428.237-.609.237-2.017 0-1.415-.021-1.588-.244-2.03-.172-.342-.653-.818-.983-.973l-.248-.117-.002-1.29c-.002-1.041.008-1.29.051-1.29.227 0 1.028.196 1.507.368.888.32 1.62.784 2.355 1.491 1.093 1.052 1.775 2.374 2.012 3.901.076.49.076 6.39 0 6.88-.237 1.527-.919 2.849-2.012 3.901-.424.408-.733.653-1.125.893A6.67 6.67 0 0 1 12 21.24a6.67 6.67 0 0 1-3.55-1.006c-.392-.24-.701-.485-1.125-.893-1.093-1.052-1.775-2.374-2.012-3.901-.076-.49-.076-6.39 0-6.88.347-2.237 1.708-4.11 3.717-5.114.61-.305 1.644-.618 2.12-.642l.09-.004v1.3m1.148 2.765c.059.044.162.148.23.231l.122.151v2.506l-.122.151c-.216.266-.313.316-.614.316-.31 0-.478-.087-.646-.335-.098-.144-.098-.151-.11-1.292-.008-.708.003-1.207.029-1.302.047-.174.243-.395.423-.477.171-.078.553-.05.688.051" fill-rule="evenodd" fill="#000"/></svg>