<svg width="24" height="24" fill="none" xmlns="http://www.w3.org/2000/svg"><path d="M8.08 1.282c-4.072.213-6.185 2.014-6.697 5.709-.113.812-.141 1.825-.141 5.009s.028 4.197.141 5.009c.384 2.775 1.665 4.461 3.973 5.233 1.243.415 2.489.535 5.344.511 1.475-.012 1.567-.017 1.696-.093a.646.646 0 0 0 .327-.475c.069-.367-.054-.684-.327-.845-.13-.077-.232-.081-2.456-.104-2.519-.027-2.674-.039-3.628-.276-2.089-.52-3.076-1.714-3.458-4.18-.069-.445-.074-.791-.074-4.78 0-3.989.005-4.335.074-4.78.428-2.764 1.602-3.938 4.366-4.366.445-.069.791-.074 4.78-.074 4.745 0 4.622-.006 5.688.26 1.832.456 2.816 1.441 3.272 3.272.237.954.249 1.109.276 3.628.023 2.224.027 2.326.104 2.456a.646.646 0 0 0 .475.327c.367.069.684-.054.845-.327.076-.129.081-.221.093-1.696.024-2.855-.096-4.101-.511-5.344-.61-1.825-1.773-2.989-3.592-3.596-.862-.287-1.627-.416-2.844-.48-.854-.045-6.854-.043-7.726.002m5.888 11.06c-.52.14-.974.458-1.284.901-.305.433-.385.709-.381 1.317l.002.5.968 3.1c.605 1.939 1.022 3.209 1.113 3.391.25.498.714.902 1.259 1.095.209.074.341.091.735.092.567.002.834-.075 1.269-.364.536-.356.714-.659 1.148-1.946.175-.523.357-1.004.404-1.07.117-.164.21-.206 1.205-.541.48-.161.968-.341 1.086-.398a2.343 2.343 0 0 0 1.105-1.211c.11-.279.16-.758.116-1.118a2.173 2.173 0 0 0-1.207-1.709c-.246-.119-5.737-1.854-6.452-2.038-.3-.077-.801-.078-1.086-.001m3.492 2.299c1.562.484 2.976.926 3.143.981.462.152.638.371.636.791 0 .233-.113.47-.281.595-.057.042-.566.235-1.131.429-1.104.378-1.326.491-1.669.849-.274.286-.403.559-.762 1.621-.19.562-.364 1.008-.425 1.088-.281.369-.903.367-1.186-.005-.134-.175-2.025-6.235-2.025-6.487 0-.346.395-.743.739-.743.067 0 1.399.396 2.961.881" fill-rule="evenodd" fill="#000"/></svg>