<svg width="24" height="24" fill="none" xmlns="http://www.w3.org/2000/svg"><path d="M11.32 1.281c-4.279.244-8.068 3.128-9.477 7.216a10.886 10.886 0 0 0-.279 6.053 10.76 10.76 0 0 0 7.886 7.886 10.96 10.96 0 0 0 5.1 0 10.76 10.76 0 0 0 7.886-7.886 10.96 10.96 0 0 0 0-5.1 10.758 10.758 0 0 0-8.694-8.052c-.408-.067-1.668-.169-1.862-.151l-.56.034m1.826 1.541a9.086 9.086 0 0 1 2.914.874c2.817 1.383 4.708 4.026 5.118 7.158.123.932.066 2.172-.144 3.144-.289 1.345-1.031 2.857-1.913 3.902a9.31 9.31 0 0 1-3.061 2.404 8.94 8.94 0 0 1-4.06.936 8.93 8.93 0 0 1-4.06-.936c-2.817-1.383-4.708-4.026-5.118-7.158-.123-.932-.066-2.172.144-3.144.211-.982.737-2.227 1.302-3.082a9.335 9.335 0 0 1 6.552-4.097c.56-.077 1.749-.077 2.326-.001M8.774 7.079c-.344.09-.516.175-.834.41-.651.48-1.024 1.38-.901 2.174.062.397 2.017 6.692 2.192 7.057.26.54.815 1.001 1.429 1.185.359.108 1.036.097 1.38-.022a2.353 2.353 0 0 0 1.399-1.263c.06-.132.249-.663.421-1.18.416-1.253.327-1.164 1.58-1.58a20.653 20.653 0 0 0 1.18-.421c1.082-.487 1.614-1.697 1.257-2.859a2.308 2.308 0 0 0-1.135-1.34c-.228-.114-1.265-.453-3.542-1.158-1.771-.547-3.327-1.015-3.457-1.039a2.156 2.156 0 0 0-.969.036m3.834 2.382c1.745.539 3.247 1.008 3.339 1.042a.915.915 0 0 1 .525.601c.08.378-.085.781-.382.93-.083.041-.607.232-1.165.423-1.729.591-1.878.741-2.467 2.466-.443 1.297-.463 1.338-.738 1.476-.489.246-1.022.034-1.214-.483-.036-.097-.499-1.571-1.028-3.276-1.057-3.404-1.051-3.375-.859-3.703.157-.266.437-.446.709-.454.06-.002 1.536.438 3.28.978" fill-rule="evenodd" fill="#000"/></svg>