<svg width="24" height="24" fill="none" xmlns="http://www.w3.org/2000/svg"><path d="M8.08 1.282c-4.072.213-6.185 2.014-6.697 5.709-.113.812-.141 1.825-.141 5.009 0 4.504.06 5.273.518 6.65.772 2.313 2.446 3.576 5.267 3.972.759.106 1.875.137 4.973.137s4.214-.031 4.973-.137c2.47-.347 4.023-1.334 4.924-3.132.482-.96.741-2.121.823-3.683.051-.969.051-6.645 0-7.614-.063-1.195-.199-2.002-.478-2.837-.61-1.825-1.773-2.989-3.592-3.596-.862-.287-1.627-.416-2.844-.48-.854-.045-6.854-.043-7.726.002m8.72 1.572c2.786.462 3.914 1.6 4.348 4.386.066.421.072.824.072 4.76 0 4.745.006 4.622-.26 5.688-.456 1.832-1.441 2.816-3.272 3.272-1.05.261-.91.254-5.368.271-2.233.008-4.172.003-4.31-.011l-.25-.026V2.805l.13-.017a289.66 289.66 0 0 1 4.31-.01c3.766.006 4.222.013 4.6.076M6.23 16.475l-.01 4.476-.359-.117c-1.77-.577-2.653-1.767-3.007-4.054-.069-.445-.074-.791-.074-4.78 0-3.989.005-4.335.074-4.78.354-2.288 1.235-3.476 3.007-4.054l.359-.117.01 4.476c.006 2.461.006 6.489 0 8.95m10.87-9.99c-.267.03-3.203.806-3.58.946-.712.264-1.181.844-1.279 1.582-.023.179-.041 1.142-.041 2.249v1.936l-.11-.043a2.51 2.51 0 0 0-.49-.063c-.698-.038-1.209.157-1.7.648-.491.491-.686 1.001-.648 1.7.04.752.388 1.343 1.038 1.763.352.228.689.323 1.15.325.45.002.688-.048 1.04-.22.356-.174.816-.636.992-.996.231-.473.248-.664.248-2.793 0-1.788.005-1.915.07-1.934.039-.012.844-.23 1.79-.486.946-.255 1.806-.489 1.91-.519l.19-.056v1.665l-.25-.059c-.345-.081-.931-.047-1.25.072a2.31 2.31 0 0 0-1.384 1.435c-.096.305-.115.903-.039 1.223.177.742.881 1.446 1.623 1.623.32.076.918.057 1.223-.039.616-.194 1.196-.739 1.41-1.324.143-.391.149-.544.151-3.797.001-2.779-.008-3.266-.061-3.496-.129-.556-.413-.936-.868-1.164-.245-.123-.353-.151-.755-.198a2.615 2.615 0 0 0-.38.02m.522 1.614c.037.087.058.276.058.51v.372l-1.95.53c-1.072.292-1.963.53-1.98.53-.017-.001-.03-.2-.03-.443 0-.477.046-.635.21-.724.176-.096 3.249-.91 3.442-.912.182-.002.195.005.25.137m-.4 5.536c.428.195.582.727.315 1.089-.284.385-.829.428-1.144.091-.542-.579.11-1.506.829-1.18m-5.343 1.064a.744.744 0 0 1 .128 1.116c-.415.444-1.173.204-1.27-.403-.098-.614.629-1.068 1.142-.713" fill-rule="evenodd" fill="#000"/></svg>