<svg width="24" height="24" fill="none" xmlns="http://www.w3.org/2000/svg"><path d="M18.44 1.188a6.861 6.861 0 0 0-.48.056c-.369.055-6.92 1.836-7.28 1.98-.946.376-1.639 1.165-1.928 2.196l-.09.32-.021 5.028-.021 5.028-.18-.123a4.575 4.575 0 0 0-.501-.276 3.872 3.872 0 0 0-4.479.848c-1.764 1.888-1.198 4.973 1.12 6.097 2.178 1.056 4.792-.114 5.417-2.426.155-.571.163-.851.163-5.402 0-4.183.004-4.43.07-4.449.703-.207 9.819-2.67 9.832-2.656.01.01.014 1.433.008 3.163l-.01 3.144-.18-.123a4.575 4.575 0 0 0-.501-.276 3.872 3.872 0 0 0-4.479.848 3.87 3.87 0 0 0 .185 5.455c1.888 1.764 4.973 1.198 6.097-1.12.211-.437.319-.817.378-1.332.032-.275.04-2.264.029-6.808-.016-6.977-.006-6.661-.234-7.33-.231-.676-.721-1.251-1.318-1.546-.451-.222-1.039-.331-1.597-.296m.758 1.555c.271.081.562.346.681.623.161.376.2.68.2 1.602l.001.869-.17.045-4.923 1.342c-2.614.713-4.77 1.296-4.79 1.296-.063 0-.046-2.502.019-2.746.126-.473.497-.924.921-1.118.198-.091 6.765-1.905 7.044-1.946.294-.044.816-.027 1.017.033m-.95 11.741c.41.085.784.299 1.136.652.49.491.696.983.696 1.664 0 .681-.206 1.173-.696 1.664-.491.49-.983.696-1.664.696-.681 0-1.173-.206-1.664-.696-.495-.494-.696-.975-.696-1.664 0-.174.02-.411.044-.528.166-.801.923-1.58 1.727-1.775.264-.063.84-.07 1.117-.013M6.862 16.581c.433.111.732.286 1.082.635.49.491.696.983.696 1.664 0 .681-.206 1.173-.696 1.664-.491.49-.983.696-1.664.696-.681 0-1.173-.206-1.664-.696-.353-.352-.567-.726-.652-1.136a3.34 3.34 0 0 1 0-1.056c.166-.801.923-1.58 1.727-1.775.293-.071.886-.069 1.171.004" fill-rule="evenodd" fill="#000"/></svg>