<svg width="24" height="24" fill="none" xmlns="http://www.w3.org/2000/svg"><path d="M7.76 1.282c-3.164.174-5.05 1.329-5.942 3.637-.29.752-.471 1.733-.537 2.921-.051.908-.051 6.412 0 7.32.046.819.15 1.572.299 2.16.55 2.171 1.929 3.55 4.1 4.1 1.167.296 2.055.344 6.18.337l3.24-.005.279.188a4.684 4.684 0 0 0 3.053.779c2.252-.196 4.087-2.029 4.286-4.279.097-1.096-.154-2.092-.768-3.052l-.2-.311.006-3.249c.006-3.394-.021-4.303-.155-5.221-.358-2.453-1.502-4.009-3.519-4.788-.753-.291-1.733-.472-2.922-.538-.799-.045-6.583-.044-7.4.001m8.32 1.572c2.594.433 3.636 1.475 4.065 4.066.061.369.072.814.085 3.646l.014 3.227-.352-.151a4.748 4.748 0 0 0-5.249 1.001 4.74 4.74 0 0 0-.991 5.269l.144.332-3.228-.014c-2.834-.013-3.279-.024-3.648-.085-2.603-.431-3.66-1.498-4.068-4.105-.066-.421-.072-.809-.072-4.54s.006-4.119.072-4.54c.289-1.85.913-2.896 2.093-3.51.663-.345 1.417-.536 2.615-.664.077-.008 1.931-.012 4.12-.008 3.585.006 4.022.013 4.4.076m-4.18 1.57c-1.049.264-3.208.882-3.413.977-.309.144-.711.533-.845.819-.201.429-.203.465-.205 2.634-.001 1.883-.006 2.031-.068 2.007-.167-.064-.667-.097-.943-.062-1.267.161-2.117 1.378-1.848 2.646.148.7.692 1.32 1.402 1.597.206.08.311.093.74.093s.534-.013.74-.093c.515-.201.988-.622 1.224-1.091.222-.438.235-.585.235-2.66l.001-1.889.21-.059c.115-.033.939-.259 1.83-.503.891-.244 1.652-.452 1.69-.464.065-.02.07.034.07.755v.775l-.25-.052c-1.059-.222-2.105.364-2.512 1.406-.08.206-.093.311-.093.74s.013.534.093.74c.136.349.315.609.599.871 1.169 1.08 3.056.587 3.564-.931.087-.259.087-.274.084-3.489-.003-3.557-.001-3.527-.251-3.997a1.566 1.566 0 0 0-.743-.684c-.232-.109-.314-.125-.668-.135a2.545 2.545 0 0 0-.643.049m.745 1.482c.039.047.055.189.055.489v.422l-1.86.51c-1.023.28-1.874.51-1.89.511-.016.001-.03-.196-.03-.437 0-.665-.125-.587 1.82-1.12.88-.24 1.656-.438 1.725-.439.07-.001.15.027.18.064m-.285 5.476a.67.67 0 0 1 .36.618c0 .697-.882.952-1.281.371a.71.71 0 0 1-.001-.74.72.72 0 0 1 .922-.249m-5.249 1.004a.656.656 0 0 1 .289.562c0 .254-.064.394-.257.564a.647.647 0 0 1-.572.149c-.196-.037-.468-.307-.525-.522a.707.707 0 0 1 .394-.816c.159-.067.544-.03.671.063m11.521 2.437c1.264.26 2.289 1.265 2.549 2.501a3.703 3.703 0 0 1-.022 1.416c-.237.946-.857 1.729-1.694 2.141-.531.262-.922.359-1.449.359-.931 0-1.625-.29-2.298-.959a3.24 3.24 0 0 1-.511-3.94c.215-.364.77-.919 1.134-1.134.314-.185.752-.35 1.069-.403a4.032 4.032 0 0 1 1.222.019m-1.997 1.417c-.253.134-.475.462-.475.703 0 .185.122.371.465.707l.335.328-.336.341c-.378.384-.464.525-.464.762 0 .198.044.291.235.492.188.198.322.267.525.267.236 0 .418-.112.778-.476l.317-.321.368.356c.38.367.589.478.789.419.361-.108.668-.46.668-.767 0-.242-.082-.38-.445-.753l-.313-.322.302-.298c.456-.45.541-.674.377-.995-.099-.196-.373-.431-.568-.49-.237-.071-.465.039-.851.409l-.323.31-.309-.296a4.124 4.124 0 0 0-.439-.376c-.167-.102-.444-.101-.636 0" fill-rule="evenodd" fill="#000"/></svg>