<svg width="24" height="24" fill="none" xmlns="http://www.w3.org/2000/svg"><path d="M8.08 1.282c-4.072.213-6.185 2.014-6.697 5.709-.113.812-.141 1.825-.141 5.009 0 4.504.06 5.273.518 6.65.772 2.313 2.446 3.576 5.267 3.972.759.106 1.875.137 4.973.137s4.214-.031 4.973-.137c2.47-.347 4.023-1.334 4.924-3.132.482-.96.741-2.121.823-3.683.051-.969.051-6.645 0-7.614-.063-1.195-.199-2.002-.478-2.837-.61-1.825-1.773-2.989-3.592-3.596-.862-.287-1.627-.416-2.844-.48-.854-.045-6.854-.043-7.726.002m8.72 1.572c2.786.462 3.914 1.6 4.348 4.386.066.421.072.824.072 4.76s-.006 4.339-.072 4.76c-.436 2.798-1.59 3.952-4.388 4.388-.421.066-.824.072-4.76.072s-4.339-.006-4.76-.072c-2.79-.435-3.957-1.597-4.386-4.368-.069-.445-.074-.791-.074-4.78 0-4.753-.004-4.663.264-5.712C3.557 4.282 4.722 3.274 6.96 2.9c.73-.123 1.088-.131 5.24-.123 3.763.007 4.222.014 4.6.077m-2.42 3.431c-.249.028-3.374.858-3.812 1.012-.488.172-.982.655-1.168 1.141-.139.364-.157.689-.159 2.855l-.001 2.072-.09-.028c-.226-.073-.396-.095-.732-.096-.673-.002-1.141.193-1.623.674-.481.482-.675.948-.675 1.625 0 .678.195 1.146.675 1.621.493.487.952.679 1.625.679.674 0 1.133-.192 1.624-.679.223-.221.342-.381.45-.601.251-.513.266-.674.266-2.942v-2.015l.17-.045c.554-.148 3.979-1.083 4.02-1.098.039-.014.05.186.05.915v.933l-.21-.057c-.46-.126-1.225-.058-1.621.144a2.889 2.889 0 0 0-.801.654 2.201 2.201 0 0 0-.488 1.444c0 .663.196 1.141.66 1.61.336.339.625.511 1.042.618.577.147 1.246.067 1.732-.207.3-.17.755-.636.913-.934.267-.507.26-.391.258-4.184-.002-3.725-.004-3.76-.225-4.196a1.705 1.705 0 0 0-.746-.738c-.244-.122-.352-.15-.754-.197a2.615 2.615 0 0 0-.38.02m.524 1.559c.064.071.078.161.09.57l.013.486-2.033.552c-1.119.304-2.074.563-2.124.575-.09.022-.09.021-.09-.48 0-.561.031-.67.22-.787.174-.108 3.434-.995 3.664-.998.138-.001.203.019.26.082m-.34 5.929a.808.808 0 0 1 .156 1.322.775.775 0 0 1-1.08 0 .808.808 0 0 1 .54-1.415c.14 0 .265.03.384.093m-5.853 1.009c.56.234.698.939.264 1.346-.416.39-1.056.258-1.299-.268-.296-.638.387-1.349 1.035-1.078" fill-rule="evenodd" fill="#000"/></svg>