<svg width="24" height="24" fill="none" xmlns="http://www.w3.org/2000/svg"><path d="M8.787 1.278c-.342.068-.519.314-.519.722 0 .462.207.693.663.739.137.015 1.617.02 3.289.014 2.956-.013 3.044-.015 3.176-.093.273-.161.396-.478.327-.845a.646.646 0 0 0-.327-.475c-.133-.078-.214-.08-3.296-.086-1.738-.003-3.229.007-3.313.024M5.599 3.85c-.25.127-.332.288-.332.65 0 .362.082.523.332.65l.178.09h12.446l.178-.09c.25-.127.328-.281.328-.65s-.078-.523-.328-.65l-.178-.09H5.777l-.178.09m.773 2.433c-2.577.164-4.306 1.51-4.895 3.808-.194.758-.206.969-.226 3.89-.024 3.52.015 4.209.29 5.158.324 1.118.956 2.018 1.84 2.62.86.586 1.803.878 3.093.961.826.052 10.226.052 11.052 0 1.29-.083 2.233-.375 3.093-.961.884-.602 1.516-1.502 1.84-2.62.275-.949.314-1.655.288-5.199-.022-2.856-.03-3.018-.204-3.76-.297-1.273-.956-2.28-1.924-2.939-.86-.586-1.803-.878-3.093-.961-.733-.047-10.416-.044-11.154.003m12.033 1.605c.793.197 1.314.47 1.775.932.468.468.741.992.933 1.795l.107.445v6.88l-.107.445c-.192.803-.465 1.327-.933 1.795-.468.468-.992.741-1.795.933l-.445.107H6.06l-.445-.107c-1.524-.365-2.352-1.188-2.726-2.708l-.105-.425-.014-3.22c-.016-3.4-.007-3.648.166-4.328.38-1.499 1.467-2.408 3.144-2.629.143-.019 2.879-.031 6.08-.027l5.82.007.425.105m-4.565 1.73c-.625.133-3.082.835-3.312.947a1.88 1.88 0 0 0-.953 1.169c-.044.162-.056.61-.056 2.092l-.001 1.885-.149-.035c-.245-.056-.816-.042-1.052.028a2.164 2.164 0 0 0-1.439 1.376c-.066.198-.087.356-.087.66 0 .468.09.793.317 1.137a2.06 2.06 0 0 0 1.771.963c.395 0 .727-.075 1.018-.231.277-.149.738-.619.872-.889.223-.452.231-.538.231-2.506v-1.808l.21-.06c.115-.033.885-.244 1.71-.468.825-.225 1.523-.417 1.55-.428.039-.014.05.136.05.67 0 .64-.005.687-.07.66-.138-.056-.751-.07-.981-.022-.36.075-.77.302-1.046.578a2.048 2.048 0 0 0-.621 1.502c.005.619.218 1.103.675 1.531a2.103 2.103 0 0 0 3.32-.585c.246-.485.249-.53.235-3.782-.012-2.741-.018-2.961-.089-3.218-.09-.33-.336-.711-.572-.89-.375-.283-.982-.393-1.531-.276m.64 1.502c.024.045.038.233.032.429l-.012.349-1.64.449c-.902.247-1.689.46-1.75.474l-.11.025v-.345c0-.396.056-.545.235-.619.2-.083 2.978-.836 3.094-.839.069-.002.124.026.151.077m-.245 5.189c.508.377.295 1.13-.319 1.131a.608.608 0 0 1-.616-.616c0-.244.125-.446.347-.559a.634.634 0 0 1 .588.044m-5.004.918c.192.143.258.27.264.506.005.24-.061.368-.27.525-.159.118-.519.114-.69-.007-.364-.26-.323-.865.074-1.067.167-.085.478-.064.622.043" fill-rule="evenodd" fill="#000"/></svg>