<svg width="24" height="24" fill="none" xmlns="http://www.w3.org/2000/svg"><path d="M11.58 1.267c-.748.03-1.595.158-2.366.358-.7.181-.876.333-.87.751.004.34.166.645.396.749.217.099.268.095.873-.061.94-.243 1.291-.284 2.407-.283.767.001 1.096.017 1.411.071 2.454.418 4.512 1.672 6.008 3.66.351.466.531.609.766.607.308-.002.716-.307.793-.591.065-.241 0-.411-.332-.868a10.758 10.758 0 0 0-7.013-4.277c-.343-.054-1.71-.157-1.773-.135a3.735 3.735 0 0 1-.3.019M5.468 3.516c-.366.187-1.408 1.194-1.92 1.858A10.554 10.554 0 0 0 2.01 8.08c-.272.693-.25.947.101 1.178.204.134.476.201.67.164.244-.045.41-.253.599-.745.214-.561.587-1.291.909-1.777.454-.688.907-1.19 1.877-2.08.422-.387.45-.689.1-1.086-.257-.293-.514-.363-.798-.218M14.76 6.15c-.299.022-.675.112-2.22.535-1.992.546-2.025.558-2.414.871-.177.143-.451.51-.531.712-.152.385-.156.459-.157 2.782 0 1.248-.007 2.27-.017 2.27a4.22 4.22 0 0 1-.247-.06 2.9 2.9 0 0 0-.587-.06c-.674 0-1.143.195-1.632.679-.482.477-.687.966-.687 1.641s.205 1.164.687 1.641c.527.521.995.7 1.745.669.53-.023.843-.125 1.232-.403.32-.228.544-.485.727-.831.256-.486.26-.529.26-3.019l.001-2.244 2.09-.573 2.16-.591c.065-.017.07.052.07 1.042v1.061l-.19-.058a2.583 2.583 0 0 0-1.13-.038c-.774.163-1.466.779-1.727 1.536-.133.386-.133 1.11 0 1.496a2.55 2.55 0 0 0 1.175 1.346c1.28.647 2.872-.055 3.299-1.454.068-.225.073-.464.073-3.76 0-3.906.007-3.793-.266-4.305-.311-.584-.994-.937-1.714-.885m.384 1.574c.064.071.076.147.076.485v.402l-2.1.573a98.9 98.9 0 0 1-2.15.575c-.037.001-.05-.107-.05-.409 0-.48.065-.635.31-.737.082-.034.887-.265 1.789-.514 1.751-.483 1.989-.525 2.125-.375m6.444 1.811c-.232.065-.414.23-.474.43-.035.116-.029.245.026.601.091.588.124 1.858.062 2.4a9.419 9.419 0 0 1-2.015 4.854c-.142.176-.481.537-.753.802-.786.767-1.41 1.208-2.374 1.68a8.907 8.907 0 0 1-4.033.938c-.91 0-1.619-.092-2.487-.323-.513-.136-.585-.14-.8-.042-.23.104-.392.409-.396.749-.006.418.17.57.87.751a10.14 10.14 0 0 0 2.206.343c2.531.145 4.984-.6 7.05-2.143.617-.46 1.645-1.488 2.105-2.105 1.548-2.074 2.295-4.542 2.143-7.082-.046-.762-.165-1.484-.267-1.622-.193-.258-.487-.336-.863-.231M1.793 11.277c-.287.057-.459.235-.517.535-.076.395.087 1.935.287 2.722.241.941.43 1.379.646 1.491.185.095.574.056.809-.082.356-.208.393-.471.17-1.183-.258-.82-.426-1.777-.43-2.438-.003-.592-.084-.821-.342-.968-.142-.08-.426-.115-.623-.077M14.8 13.722c.578.291.59 1.169.02 1.469a.857.857 0 0 1-1.184-.411c-.14-.301-.075-.621.179-.89a.81.81 0 0 1 .985-.168m-5.839 1.05c.095.05.228.16.296.243.117.144.123.171.123.505 0 .334-.006.361-.123.505-.346.427-.933.444-1.29.037-.166-.189-.207-.297-.207-.542 0-.245.041-.353.207-.542.26-.296.665-.38.994-.206m-4.938 3.074c-.393.26-.512.655-.296.981.259.393 1.455 1.516 1.742 1.638a.671.671 0 0 0 .613-.041 1.15 1.15 0 0 0 .399-.547c.077-.268.018-.39-.355-.737-.189-.176-.574-.55-.857-.832-.282-.281-.558-.529-.614-.55a.69.69 0 0 0-.632.088" fill-rule="evenodd" fill="#000"/></svg>