<svg width="24" height="24" fill="none" xmlns="http://www.w3.org/2000/svg"><path d="M13.26 1.281a2.557 2.557 0 0 0-1.247.682c-.401.424-.586.78-.716 1.381-.063.291-.067.753-.059 5.746.006 3.271-.005 5.43-.027 5.43-.021 0-.081-.047-.134-.104-.153-.164-.825-.588-1.188-.751-.869-.388-1.958-.5-2.921-.302a5.18 5.18 0 0 0-1.203.44c-1.205.649-2.034 1.699-2.397 3.037-.094.347-.103.447-.103 1.16 0 .713.009.813.103 1.16.363 1.338 1.192 2.388 2.397 3.037.766.413 1.705.597 2.635.517 1.99-.17 3.72-1.651 4.173-3.574.139-.587.147-.931.147-6.014V8.07l.09.064c.361.257.704.389 3.09 1.184 2.813.937 2.965.974 3.588.883 1.059-.154 1.829-.839 2.134-1.901.101-.348.131-2.152.044-2.611-.145-.77-.669-1.662-1.28-2.177-.5-.421-.676-.495-3.239-1.349-1.327-.442-2.537-.831-2.69-.863-.294-.062-.931-.073-1.197-.019m3.18 2.218c1.243.411 2.387.809 2.543.883.482.229.931.746 1.147 1.321.083.22.089.303.09 1.177 0 .794-.011.971-.07 1.141-.158.451-.537.711-1.032.706-.255-.002-.502-.076-2.649-.789-1.402-.466-2.47-.842-2.615-.922-.494-.272-.994-.981-1.098-1.556-.026-.142-.038-.573-.029-1.06.014-.739.024-.839.103-1.012.221-.486.529-.677 1.05-.652.262.012.589.11 2.56.763M8.9 14.879a3.36 3.36 0 0 1 2.154 2.071c.123.341.126.367.126 1.05s-.003.709-.126 1.05A3.355 3.355 0 0 1 8.9 21.12c-.384.121-1.118.153-1.567.067-.621-.117-1.083-.358-1.578-.82a3.287 3.287 0 0 1-.959-1.607c-.075-.293-.075-1.227 0-1.52a3.287 3.287 0 0 1 .959-1.607c.464-.433.919-.681 1.493-.812.388-.089 1.29-.057 1.652.058" fill-rule="evenodd" fill="#000"/></svg>