<svg width="24" height="24" fill="none" xmlns="http://www.w3.org/2000/svg"><path d="M1.787 2.278c-.341.067-.519.314-.519.722 0 .462.207.693.663.739.137.014 4.767.02 10.289.013 9.957-.012 10.041-.013 10.176-.092.273-.161.396-.478.327-.845a.646.646 0 0 0-.327-.475c-.135-.079-.213-.08-10.296-.086-5.588-.003-10.229.008-10.313.024m18.226 5.005c-.323.05-4.886 1.298-5.18 1.417a2.536 2.536 0 0 0-1.338 1.28c-.213.464-.215.501-.215 4.01-.001 1.787-.01 3.25-.022 3.25-.012 0-.094-.037-.183-.082-.49-.251-1.394-.323-2.009-.162-.948.249-1.794 1.089-2.049 2.034-.098.363-.117.974-.043 1.37.195 1.037 1.068 1.975 2.089 2.243a3.543 3.543 0 0 0 1.554 0c.778-.204 1.463-.777 1.845-1.543.3-.601.298-.574.298-3.964 0-1.637.009-2.976.02-2.976.021 0 6.26-1.702 6.388-1.743.068-.021.072.063.072 1.678v1.701l-.21-.096c-.673-.308-1.566-.331-2.282-.06-.727.274-1.456 1.039-1.704 1.786-.174.523-.183 1.254-.022 1.808.214.736.819 1.432 1.552 1.784.731.352 1.758.353 2.485.004a3.025 3.025 0 0 0 1.592-1.89l.088-.312.012-4.42c.009-2.907-.002-4.583-.03-4.895-.044-.492-.169-.955-.331-1.225a2.085 2.085 0 0 0-1.179-.92c-.301-.093-.86-.129-1.198-.077m-18.226.995c-.342.068-.519.314-.519.722 0 .462.207.693.663.739.137.014 2.292.02 4.789.013 4.457-.012 4.542-.013 4.676-.092a.646.646 0 0 0 .327-.475c.069-.367-.054-.684-.327-.845-.134-.079-.213-.08-4.796-.086-2.563-.003-4.729.008-4.813.024m19.164.586a.716.716 0 0 1 .183.249c.079.171.086.253.086.966v.779l-3.1.85a311.52 311.52 0 0 1-3.23.875l-.13.026v-.858c0-1.145.068-1.362.505-1.599.221-.12 4.771-1.379 5.058-1.399.232-.017.508.032.628.111M1.787 14.278c-.342.068-.519.314-.519.722 0 .462.207.693.663.739.137.015 1.617.02 3.289.014 2.956-.013 3.044-.015 3.176-.093.273-.161.396-.478.327-.845a.646.646 0 0 0-.327-.475c-.133-.078-.214-.08-3.296-.086-1.738-.003-3.229.007-3.313.024m18.563 2.77c.28.104.616.415.758.704.099.201.112.273.112.608 0 .329-.015.411-.107.609a1.611 1.611 0 0 1-.713.708c-.186.087-.276.103-.58.103-.436 0-.692-.102-.993-.395-.272-.264-.402-.563-.42-.965-.018-.418.081-.695.358-.998.416-.455.994-.591 1.585-.374m-7.91 1.477c.261.124.551.405.676.656.188.376.187.904-.003 1.284a1.63 1.63 0 0 1-.673.65c-.189.09-.273.105-.6.105-.327 0-.411-.015-.6-.105a1.713 1.713 0 0 1-.403-.29c-.728-.738-.485-1.928.475-2.331.318-.134.808-.12 1.128.031M1.787 20.278c-.342.068-.519.314-.519.722 0 .462.207.692.663.74.137.014 1.167.02 2.289.013 1.956-.012 2.046-.016 2.176-.093.273-.161.396-.478.327-.845a.646.646 0 0 0-.327-.475c-.131-.077-.214-.08-2.296-.086-1.188-.004-2.229.007-2.313.024" fill-rule="evenodd" fill="#000"/></svg>