<svg width="24" height="24" fill="none" xmlns="http://www.w3.org/2000/svg"><path d="M7.76 1.282c-3.164.174-5.05 1.329-5.942 3.637-.29.752-.471 1.733-.537 2.921-.051.908-.051 6.412 0 7.32.046.819.15 1.572.299 2.16.55 2.171 1.929 3.55 4.1 4.1 1.082.274 2.227.351 5 .333 1.856-.012 1.946-.016 2.076-.093.251-.148.304-.262.304-.66s-.053-.512-.304-.66c-.131-.077-.231-.081-2.776-.104-2.219-.02-2.707-.034-3.06-.092-2.595-.422-3.66-1.497-4.068-4.104-.066-.421-.072-.809-.072-4.54s.006-4.119.072-4.54c.41-2.62 1.488-3.698 4.108-4.108.421-.066.809-.072 4.54-.072s4.119.006 4.54.072c2.607.408 3.682 1.473 4.104 4.068.058.353.072.841.092 3.06.023 2.545.027 2.645.104 2.776.148.251.262.304.66.304s.512-.053.66-.304c.077-.13.081-.22.093-2.076.018-2.874-.063-4.008-.369-5.124-.51-1.858-1.583-3.074-3.302-3.737-.753-.291-1.733-.472-2.922-.538-.799-.045-6.583-.044-7.4.001m4.18 3.136c-.74.171-3.336.917-3.499 1.005a1.91 1.91 0 0 0-.928 1.168c-.069.247-.075.433-.076 2.283 0 1.869-.005 2.012-.067 1.988-.168-.065-.668-.098-.944-.063-1.267.161-2.117 1.378-1.848 2.646.148.7.692 1.32 1.402 1.597.206.08.311.093.74.093s.534-.013.74-.093c.699-.273 1.236-.876 1.4-1.572.047-.202.059-.617.059-2.157l.001-1.907.13-.041c.071-.023.904-.251 1.85-.508.946-.257 1.743-.476 1.77-.487.039-.014.05.153.05.759v.777l-.25-.052c-1.059-.222-2.105.364-2.512 1.406-.08.206-.093.311-.093.74s.013.534.093.74c.136.349.315.609.599.871 1.17 1.081 3.024.598 3.57-.931l.093-.26V9.16c0-3.04-.005-3.278-.073-3.52-.154-.543-.451-.903-.934-1.129-.227-.107-.317-.125-.649-.136a2.827 2.827 0 0 0-.624.043m.721 1.517c.048.074.059.185.051.489l-.012.394-1.86.509c-1.023.281-1.874.511-1.89.512-.016 0-.03-.171-.03-.38 0-.424.058-.622.207-.704.138-.075 3.191-.909 3.342-.912.094-.002.146.023.192.092m-.301 5.447a.67.67 0 0 1 .36.618c0 .697-.882.952-1.281.371a.71.71 0 0 1-.001-.74.72.72 0 0 1 .922-.249m-5.249 1.004a.656.656 0 0 1 .289.562c0 .254-.064.394-.257.564a.647.647 0 0 1-.572.149c-.196-.037-.468-.307-.525-.522a.707.707 0 0 1 .394-.816c.159-.067.544-.03.671.063m10.42 1.777c-1.63.156-2.974 1.324-3.42 2.972-.127.469-.127 1.421 0 1.89.319 1.176 1.059 2.087 2.109 2.597.443.215.848.328 1.342.374a3.902 3.902 0 0 0 2.181-.417l.41-.208.594.587c.679.673.845.773 1.138.685.196-.058.482-.312.576-.51.1-.211.061-.445-.112-.681a8.96 8.96 0 0 0-.639-.679l-.497-.488.105-.172c.166-.271.35-.715.449-1.079.129-.478.13-1.426.002-1.899-.246-.906-.729-1.641-1.439-2.188a3.96 3.96 0 0 0-2.799-.784m1.218 1.595c.948.336 1.65 1.323 1.65 2.322 0 1.009-.708 1.995-1.671 2.328-.227.078-.348.092-.788.092-.44 0-.561-.014-.788-.092-.789-.273-1.441-1.012-1.612-1.828-.265-1.264.52-2.533 1.78-2.879.328-.09 1.1-.059 1.429.057" fill-rule="evenodd" fill="#000"/></svg>