<svg width="24" height="24" fill="none" xmlns="http://www.w3.org/2000/svg"><path d="M7.76 1.282c-3.164.174-5.05 1.329-5.942 3.637-.29.752-.471 1.733-.537 2.921-.051.908-.051 6.412 0 7.32.046.819.15 1.572.299 2.16.55 2.171 1.929 3.55 4.1 4.1 1.168.296 2.057.345 6.167.337l3.228-.007.279.186a4.74 4.74 0 0 0 4.708.326c1.77-.863 2.827-2.709 2.658-4.643a4.62 4.62 0 0 0-.79-2.272l-.18-.272.006-3.248c.006-3.393-.021-4.302-.155-5.22-.358-2.453-1.502-4.009-3.519-4.788-.753-.291-1.733-.472-2.922-.538-.799-.045-6.583-.044-7.4.001m8.32 1.572c2.594.433 3.636 1.475 4.065 4.066.061.369.072.814.085 3.647l.014 3.226-.312-.134c-1.838-.792-3.896-.408-5.289.984a4.74 4.74 0 0 0-.991 5.269l.144.332-3.228-.014c-2.834-.013-3.279-.024-3.648-.085-2.603-.431-3.66-1.498-4.068-4.105-.066-.421-.072-.809-.072-4.54s.006-4.119.072-4.54c.289-1.85.913-2.896 2.093-3.51.663-.345 1.417-.536 2.615-.664.077-.008 1.931-.012 4.12-.008 3.585.006 4.022.013 4.4.076m-4.14 1.564c-.74.171-3.336.917-3.499 1.005a1.91 1.91 0 0 0-.928 1.168c-.069.247-.075.433-.076 2.283 0 1.869-.005 2.012-.067 1.988-.168-.065-.668-.098-.944-.063-1.267.161-2.117 1.378-1.848 2.646.148.7.692 1.32 1.402 1.597.206.08.311.093.74.093s.534-.013.74-.093c.699-.273 1.236-.876 1.4-1.572.047-.202.059-.617.059-2.157l.001-1.907.13-.041c.071-.023.904-.251 1.85-.508.946-.257 1.743-.476 1.77-.487.039-.014.05.153.05.759v.777l-.25-.052c-1.059-.222-2.105.364-2.512 1.406-.08.206-.093.311-.093.74s.013.534.093.74c.136.349.315.609.599.871 1.17 1.081 3.024.598 3.57-.931l.093-.26V9.16c0-3.04-.005-3.278-.073-3.52-.154-.543-.451-.903-.934-1.129-.227-.107-.317-.125-.649-.136a2.827 2.827 0 0 0-.624.043m.721 1.517c.048.074.059.185.051.489l-.012.394-1.86.509c-1.023.281-1.874.511-1.89.512-.016 0-.03-.171-.03-.38 0-.424.058-.622.207-.704.138-.075 3.191-.909 3.342-.912.094-.002.146.023.192.092m-.301 5.447a.67.67 0 0 1 .36.618c0 .697-.882.952-1.281.371a.71.71 0 0 1-.001-.74.72.72 0 0 1 .922-.249m-5.249 1.004a.656.656 0 0 1 .289.562c0 .254-.064.394-.257.564a.647.647 0 0 1-.572.149c-.196-.037-.468-.307-.525-.522a.707.707 0 0 1 .394-.816c.159-.067.544-.03.671.063m11.432 2.416a3.312 3.312 0 0 1 2.562 2.218c.153.465.178 1.22.058 1.7-.241.965-.853 1.745-1.698 2.161-.537.265-.921.359-1.465.359-2.493 0-4.06-2.749-2.793-4.899.215-.364.77-.919 1.134-1.134.314-.185.752-.35 1.069-.403.301-.05.856-.051 1.133-.002m-.756.996a.65.65 0 0 0-.443.321c-.06.102-.081.234-.096.622l-.019.491-.531.014c-.466.012-.546.025-.645.098-.197.147-.273.324-.273.636s.076.489.273.636c.099.073.179.086.645.098l.532.014.018.53c.019.579.063.712.285.878.095.071.169.084.467.084.298 0 .372-.013.467-.084.222-.166.266-.299.285-.878l.018-.53.532-.014c.466-.012.546-.025.645-.098.197-.147.273-.324.273-.636s-.076-.489-.273-.636c-.099-.074-.179-.086-.65-.098l-.537-.014-.002-.366c-.003-.617-.081-.844-.342-.992-.144-.081-.427-.115-.629-.076" fill-rule="evenodd" fill="#000"/></svg>