<svg width="24" height="24" fill="none" xmlns="http://www.w3.org/2000/svg"><path d="M9.18 1.28c-.847.115-1.587.759-1.838 1.6-.04.133-.075.445-.09.786l-.024.566-.344.026c-.843.066-1.496.392-2.003 1.002-.438.528-.592.992-.629 1.893l-.025.612-.303.154c-1.432.722-2.301 2.026-2.588 3.882-.083.538-.127 4.569-.061 5.619.097 1.549.395 2.452 1.131 3.425.657.87 1.737 1.495 3.028 1.752.719.144 1.492.163 6.566.163s5.847-.019 6.566-.163c1.291-.257 2.371-.882 3.028-1.752.74-.979 1.037-1.883 1.131-3.445.065-1.066.022-5.063-.059-5.589-.291-1.876-1.157-3.171-2.61-3.903l-.283-.143-.025-.612c-.037-.901-.191-1.365-.629-1.893-.507-.61-1.16-.936-2.003-1.002l-.344-.026-.024-.566c-.015-.341-.05-.653-.09-.786-.215-.721-.792-1.3-1.538-1.545-.202-.066-.44-.072-2.96-.079-1.507-.005-2.848.007-2.98.024m5.685 1.581a.834.834 0 0 1 .274.274c.092.157.101.212.101.639v.466H8.76v-.462c0-.594.078-.771.42-.951.106-.056.434-.064 2.816-.065l2.697-.002.172.101m2.589 2.98c.29.109.596.415.705.705.053.142.081.314.081.497v.28l-.37-.032c-.483-.041-11.257-.041-11.74 0l-.37.032v-.28c0-.388.108-.66.366-.917.125-.126.282-.234.409-.283.2-.077.326-.079 5.453-.081 5.179-.002 5.252-.001 5.466.079m.335 2.962c1.671.186 2.731.968 3.196 2.356.249.742.261.947.245 4.045l-.015 2.776-.104.425c-.194.789-.468 1.313-.931 1.775-.468.468-.992.741-1.795.933l-.445.107H6.06l-.445-.107c-1.524-.365-2.353-1.189-2.726-2.708l-.104-.425-.015-2.776c-.012-2.387-.006-2.837.049-3.211.225-1.532 1-2.528 2.297-2.952A6.27 6.27 0 0 1 6.3 8.788c.427-.039 11.132-.025 11.489.015m-3.929 1.456c-.647.141-2.99.803-3.207.905a1.776 1.776 0 0 0-.908 1.056c-.076.224-.082.359-.096 2.06l-.015 1.82-.547.001c-.475.001-.575.013-.762.091-1.152.484-1.637 1.759-1.095 2.881.145.299.598.752.897.897.937.453 1.981.206 2.601-.614.4-.531.432-.735.432-2.771 0-1.627.002-1.66.08-1.685.387-.123 3.244-.883 3.26-.867.011.011.02.285.02.608v.588l-.455-.02c-.386-.017-.497-.007-.73.064-.658.2-1.182.723-1.381 1.379-.07.23-.081.345-.065.702.022.47.097.715.321 1.041.602.877 1.696 1.162 2.663.695.299-.145.752-.598.897-.897.234-.485.234-.483.221-3.686-.011-2.905-.012-2.929-.101-3.189-.289-.854-1.081-1.267-2.03-1.059m.607 1.531c.015.061.029.236.03.39l.003.28-1.64.448c-.902.247-1.653.449-1.67.45-.017.001-.03-.16-.03-.358 0-.416.04-.485.328-.562l1.392-.378c1.416-.385 1.354-.369 1.469-.375.066-.004.097.024.118.105m-.284 4.954c.191.091.297.28.297.529 0 .171-.02.227-.124.345-.446.509-1.267-.072-.916-.648a.565.565 0 0 1 .743-.226m-4.833.896a.562.562 0 0 1-.301 1.05.544.544 0 0 1-.542-.543c0-.448.474-.733.843-.507" fill-rule="evenodd" fill="#000"/></svg>