<svg width="24" height="24" fill="none" xmlns="http://www.w3.org/2000/svg"><path d="M10.8 1.365a10.777 10.777 0 0 0-4.886 1.803c-2.622 1.8-4.273 4.614-4.593 7.826-.025.251-.041 1.862-.041 4.085 0 4.062-.003 4.015.258 4.743a4.374 4.374 0 0 0 2.95 2.721c.703.195 1.721.174 2.387-.049 1.396-.467 2.461-1.563 2.862-2.948.142-.49.183-1.078.182-2.626-.002-1.465-.028-1.826-.164-2.236-.186-.558-.729-1.162-1.292-1.437-.408-.199-.725-.258-1.263-.236-.571.023-.888.119-1.292.389-.482.322-.858.796-1.025 1.291-.141.417-.17.874-.156 2.509.015 1.728.018 1.749.307 1.929.209.13.683.13.892 0 .292-.182.292-.176.314-2.149l.02-1.76.11-.187a1.09 1.09 0 0 1 1.93.063l.104.214-.012 1.835-.012 1.835-.111.3c-.165.447-.332.702-.709 1.083-.284.287-.403.375-.72.531-.493.244-.855.32-1.38.293-.762-.039-1.274-.273-1.843-.843-.398-.399-.553-.639-.724-1.124l-.113-.32v-3.86c0-4.254-.003-4.197.259-5.268a9.165 9.165 0 0 1 6.654-6.691 9.521 9.521 0 0 1 4.134-.097c4.055.818 7.085 4.252 7.412 8.399.033.415.044 1.636.034 3.997l-.013 3.4-.109.32c-.406 1.197-1.479 1.981-2.707 1.979-.483 0-.812-.077-1.244-.288-.472-.232-1.026-.781-1.267-1.257-.287-.565-.298-.67-.285-2.674.013-1.96 0-1.866.299-2.164a1.099 1.099 0 0 1 1.546 0c.298.298.285.199.307 2.224.018 1.669.026 1.832.094 1.969.118.236.308.331.666.331.358 0 .548-.095.666-.331.068-.136.075-.285.087-1.729.013-1.671-.017-2.185-.151-2.573-.246-.715-.913-1.362-1.642-1.591a3.191 3.191 0 0 0-1.255-.08c-.978.17-1.764.886-2.047 1.864-.058.203-.072.473-.087 1.754-.021 1.725.016 2.355.169 2.883.736 2.54 3.482 3.844 5.88 2.792a4.413 4.413 0 0 0 2.353-2.571c.225-.655.227-.702.227-4.533 0-2.069-.017-3.707-.041-3.965a10.694 10.694 0 0 0-3.137-6.681 10.56 10.56 0 0 0-6.363-3.078c-.562-.066-1.844-.074-2.419-.016m-.321 5.054c-.334.107-.464.265-.935 1.131l-.436.8-.47.019c-.558.023-.69.079-.828.35-.186.367-.073.885.23 1.06.124.072.21.081.76.081.715 0 .919-.049 1.231-.298.185-.148.274-.278.6-.879l.162-.298.742 1.485c.408.816.801 1.551.873 1.633.388.441 1.166.445 1.534.007.058-.068.273-.46.479-.871l.374-.748.493-.019c.571-.022.741-.081.881-.306.13-.209.13-.683 0-.892-.16-.257-.293-.294-1.07-.294h-.681l-.265.13c-.339.167-.504.353-.753.849-.11.221-.209.401-.22.401-.01 0-.344-.649-.742-1.443-.748-1.493-.876-1.693-1.172-1.844a1.177 1.177 0 0 0-.787-.054" fill-rule="evenodd" fill="#000"/></svg>