<svg width="24" height="24" fill="none" xmlns="http://www.w3.org/2000/svg"><path d="M5.734 3.979c-.39.071-.539.123-.934.325-.84.431-1.423 1.161-1.69 2.116l-.09.32v5.22c0 5.519-.004 5.399.183 5.911.394 1.083 1.193 1.808 2.337 2.121.343.094 1.23.092 1.58-.003.5-.136.393-.077 6.6-3.661a139.14 139.14 0 0 0 2.74-1.609c1.216-.819 1.731-2.327 1.281-3.748-.194-.61-.706-1.302-1.221-1.65-.302-.204-8.366-4.863-8.747-5.053a3.307 3.307 0 0 0-2.039-.289M19.839 5.17a.67.67 0 0 0-.258.23c-.08.139-.081.188-.081 6.6s.001 6.461.081 6.6c.245.424 1.073.424 1.318 0 .08-.139.081-.188.081-6.6s-.001-6.461-.081-6.6c-.111-.193-.373-.32-.659-.32a.86.86 0 0 0-.401.09m-12.953.345c.194.067 1.608.873 6.931 3.947 2.026 1.17 2.168 1.274 2.411 1.767.132.267.15.341.165.673.028.639-.199 1.154-.664 1.506-.172.13-1.836 1.099-6.789 3.953-.968.558-1.865 1.057-1.992 1.109-.846.345-1.874-.079-2.281-.94l-.127-.27-.011-5.16c-.01-5.042-.009-5.166.068-5.421a1.796 1.796 0 0 1 2.289-1.164" fill-rule="evenodd" fill="#000"/></svg>