<svg width="24" height="24" fill="none" xmlns="http://www.w3.org/2000/svg"><path d="M7.787 1.278a.652.652 0 0 0-.444.322c-.062.107-.081.233-.095.661l-.018.53-.245.026c-2.173.229-3.77 1.461-4.401 3.395-.156.476-.259 1.084-.304 1.778-.052.822-.052 8.715 0 9.536.083 1.29.375 2.233.961 3.093.602.884 1.502 1.516 2.62 1.84.958.278 1.398.299 6.139.299 3.92 0 4.791-.021 5.441-.135 1.456-.256 2.597-.945 3.318-2.004.583-.857.879-1.808.961-3.093.051-.804.051-8.751 0-9.546-.105-1.623-.535-2.729-1.422-3.657-.796-.833-1.959-1.366-3.283-1.506l-.245-.026-.018-.53c-.019-.574-.063-.711-.277-.871-.226-.168-.724-.168-.95 0-.212.158-.257.297-.277.855l-.019.515H8.76l-.002-.39c-.003-.642-.078-.866-.342-1.016-.144-.081-.427-.115-.629-.076m7.461 3.477c.015.412.034.541.095.646.106.18.254.281.472.322.227.042.518-.007.66-.113.209-.156.256-.298.277-.834l.019-.495.164.023c1.889.269 2.972 1.338 3.244 3.202.056.382.062 1.032.051 5.454l-.013 5.02-.105.425c-.196.792-.47 1.314-.932 1.775-.468.468-.992.741-1.795.933l-.445.107H7.06l-.445-.107c-1.523-.365-2.35-1.185-2.727-2.708l-.105-.425-.013-5.02c-.011-4.422-.005-5.072.051-5.454.249-1.703 1.17-2.742 2.751-3.103.18-.042.402-.086.493-.099l.164-.023.019.495c.021.536.068.678.277.834.226.168.724.168.95 0 .212-.158.257-.297.277-.855l.019-.515h6.458l.019.515m-7.461 5.523c-.342.068-.519.314-.519.722 0 .462.207.693.663.739.137.014 2.067.02 4.289.013 3.957-.012 4.043-.014 4.176-.092.273-.161.396-.478.327-.845a.646.646 0 0 0-.327-.475c-.133-.079-.213-.08-4.296-.086-2.288-.003-4.229.008-4.313.024m0 5c-.342.068-.519.314-.519.722 0 .462.207.692.663.74.137.014 1.167.02 2.289.013 1.956-.012 2.046-.016 2.176-.093a.646.646 0 0 0 .327-.475c.069-.367-.054-.684-.327-.845-.131-.077-.214-.08-2.296-.086-1.188-.004-2.229.007-2.313.024" fill-rule="evenodd" fill="#000"/></svg>