<svg width="24" height="24" fill="none" xmlns="http://www.w3.org/2000/svg"><path d="M12.46 1.786c-1.688.203-2.797.874-3.694 2.234a42 42 0 0 0-.269.411 3.054 3.054 0 0 1-.301.092c-.528.144-2.724.879-3.176 1.063C1.931 6.843.782 8.922 1.42 12.1c.13.646.192.855 1.022 3.42.835 2.582.913 2.8 1.262 3.52.746 1.543 1.735 2.517 2.984 2.943.571.194.882.237 1.712.235 1.176-.002 1.823-.14 3.932-.84 1.344-.447 2.061-.732 2.587-1.03l.312-.177.735-.022c.771-.023 1.111-.074 1.674-.251 1.801-.565 3.024-2.169 3.699-4.854.168-.669.991-4.181 1.121-4.784.319-1.478.332-2.827.039-3.84-.388-1.339-1.248-2.337-2.619-3.038-.853-.436-1.467-.641-3.08-1.024-1.371-.326-2.078-.465-2.722-.537-.486-.054-1.307-.072-1.618-.035m1.78 1.557c.821.119 3.198.68 3.88.917.488.169 1.198.501 1.535.718.313.201.827.696 1.012.975.18.271.351.681.444 1.064.055.227.068.458.066 1.163-.004 1.061-.008 1.081-.678 3.945-.777 3.32-.857 3.597-1.277 4.435-.267.533-.47.817-.859 1.2-.266.263-.423.38-.684.511-.974.49-2.252.526-4.059.113-2.908-.665-3.791-.989-4.712-1.731-1.127-.909-1.428-2.393-.952-4.693.092-.445.912-3.96 1.087-4.66.653-2.615 1.67-3.791 3.476-4.022.341-.043 1.192-.011 1.721.065M7.744 6.305c-.106.275-1.277 5.314-1.38 5.935-.382 2.306-.011 3.955 1.165 5.187.694.725 1.579 1.252 2.811 1.672.242.083.854.253 1.36.379l.92.229-1.04.344c-1.827.605-2.703.767-3.629.671-.813-.084-1.377-.346-1.914-.887a5.26 5.26 0 0 1-.535-.65c-.266-.4-.68-1.252-.876-1.805a197.54 197.54 0 0 1-1.525-4.72c-.418-1.447-.459-2.697-.113-3.518.372-.884 1.24-1.607 2.614-2.178.334-.138 2.026-.716 2.112-.721.034-.002.045.021.03.062m4.626 1.481c-.32.069-.583.682-.447 1.041a.69.69 0 0 0 .433.39c.377.122 4.952 1.269 5.147 1.29a.56.56 0 0 0 .526-.194c.185-.199.272-.691.16-.909-.137-.268-.173-.28-2.86-.963-2.471-.627-2.774-.695-2.959-.655m-1.091 3.927c-.202.105-.359.428-.359.738 0 .274.078.436.265.552.182.113 3.199.877 3.462.877.275 0 .436-.098.55-.334.206-.426.138-.824-.172-1.005-.185-.107-3.24-.901-3.469-.901-.075 0-.2.033-.277.073" fill-rule="evenodd" fill="#000"/></svg>