<svg width="24" height="24" fill="none" xmlns="http://www.w3.org/2000/svg"><path d="M9.787 1.277c-.342.07-.519.315-.519.723 0 .418.175.653.538.723.096.018 1.587.034 3.314.035 1.902.001 3.282.019 3.5.044.819.094 1.486.293 1.995.592.826.488 1.279 1.333 1.533 2.866.059.351.069.922.081 4.685l.015 4.285-1.432.02c-1.571.023-1.871.056-2.456.269a3.034 3.034 0 0 0-1.839 1.842c-.211.58-.244.883-.267 2.451l-.02 1.433-3.305-.016c-2.889-.013-3.355-.024-3.705-.084-2.174-.372-3.025-1.197-3.366-3.265-.061-.373-.072-.904-.092-4.78-.022-4.267-.024-4.363-.102-4.496C3.512 8.353 3.398 8.3 3 8.3s-.512.053-.66.304c-.079.134-.08.208-.08 4.256 0 4.319.01 4.627.183 5.589.358 1.987 1.411 3.261 3.177 3.844 1.237.408 2.004.463 6.435.468 2.618.003 3.159-.006 3.248-.052.059-.031 1.518-1.468 3.243-3.192 2.658-2.659 3.143-3.16 3.178-3.291.059-.221.023-9.229-.04-9.746-.168-1.385-.473-2.352-.988-3.126-.609-.917-1.528-1.52-2.789-1.832-1.008-.25-1.085-.254-4.687-.265-1.804-.006-3.349.004-3.433.02m-6.567.146-.152.035c-.131.029-.449.309-.531.468-.076.146-.072.407.007.566.035.07.39.456.789.858l.725.729-.744.751c-.41.412-.774.808-.809.878a.794.794 0 0 0-.065.303c0 .307.307.659.668.767a.636.636 0 0 0 .26-.02c.146-.039.293-.166.962-.83l.79-.784.77.764c.853.845.94.901 1.275.811.221-.06.534-.373.594-.594.09-.335.034-.422-.811-1.275l-.763-.77.743-.75c.913-.921.945-.989.684-1.443-.198-.346-.629-.502-.944-.342-.07.035-.448.381-.839.769l-.71.704-.73-.725c-.401-.398-.772-.746-.825-.773-.122-.062-.293-.111-.344-.097m3.567 7.855c-.342.068-.519.314-.519.722 0 .462.207.693.663.739.137.014 2.067.02 4.289.013 3.957-.012 4.043-.014 4.176-.092.273-.161.396-.478.327-.845a.646.646 0 0 0-.327-.475c-.133-.079-.213-.08-4.296-.086-2.288-.003-4.229.008-4.313.024m0 4c-.342.068-.519.314-.519.722 0 .462.207.692.663.74.137.014 1.392.02 2.789.013 2.456-.013 2.544-.016 2.676-.093a.646.646 0 0 0 .327-.475c.069-.367-.054-.684-.327-.845-.132-.078-.214-.08-2.796-.086-1.463-.004-2.729.007-2.813.024M17.48 18.46l-1.7 1.7-.011-.818c-.012-.898.029-1.216.207-1.604.136-.297.425-.594.72-.739.391-.192.665-.232 1.624-.236l.86-.003-1.7 1.7" fill-rule="evenodd" fill="#000"/></svg>