<svg width="24" height="24" fill="none" xmlns="http://www.w3.org/2000/svg"><path d="M7.787 1.278a.652.652 0 0 0-.445.323c-.064.11-.081.231-.095.705l-.017.572-.145.024c-1.034.167-1.602.329-2.201.625-.878.434-1.49 1.034-1.931 1.894-.5.974-.703 1.98-.739 3.659-.023 1.093.124 7.566.188 8.26.23 2.494 1.051 3.959 2.675 4.778.807.407 1.893.627 3.303.668.927.027 6.95-.089 7.72-.149 3.225-.251 4.908-1.47 5.48-3.968.146-.639.188-1.098.208-2.289.023-1.334-.086-6.964-.151-7.84-.101-1.364-.347-2.405-.765-3.237a4.111 4.111 0 0 0-.789-1.117c-.723-.748-1.596-1.165-2.868-1.373l-.445-.072-.018-.505c-.02-.548-.066-.689-.277-.846-.226-.168-.724-.168-.95 0-.206.154-.255.298-.276.814-.011.262-.022.476-.024.477-.038.008-5.485.117-5.895.118l-.57.001-.002-.41c-.003-.663-.076-.885-.342-1.036-.144-.081-.427-.115-.629-.076m7.46 3.436c.015.453.032.577.096.685a.642.642 0 0 0 .472.324c.227.042.518-.007.66-.113.212-.158.257-.297.277-.858.018-.503.021-.517.103-.498.047.012.198.041.336.065.784.14 1.532.536 1.947 1.032.572.684.921 1.879 1.02 3.489.064 1.027.175 6.802.149 7.74-.033 1.221-.173 1.987-.483 2.64-.594 1.252-1.878 1.842-4.264 1.959-1.004.049-6.851.148-7.32.123-3.022-.158-4.091-1.182-4.358-4.173-.022-.249-.079-2.103-.126-4.12-.094-3.977-.083-4.633.086-5.509.32-1.662.975-2.471 2.333-2.883.29-.088.886-.217 1.004-.217.035 0 .056.126.07.438.023.473.076.623.276.772.226.168.724.168.95 0 .206-.154.255-.298.276-.814.011-.262.022-.478.024-.48.003-.002 1.427-.036 3.165-.074 1.738-.039 3.189-.073 3.225-.076.056-.005.067.068.082.548m-5.9 7.564a.659.659 0 0 0-.447.326c-.073.124-.081.222-.094 1.146l-.013 1.01H7.785c-.966 0-1.015.004-1.186.09-.25.127-.332.288-.332.65 0 .362.082.523.332.65.171.086.22.09 1.186.09h1.008l.013 1.01c.013.924.021 1.022.094 1.146.161.273.478.396.845.327a.646.646 0 0 0 .475-.327c.073-.124.081-.222.094-1.146l.013-1.01h.948c.904 0 .956-.004 1.126-.09.25-.127.328-.281.328-.65s-.078-.523-.328-.65c-.17-.086-.222-.09-1.129-.09h-.952l-.002-.89c-.002-.961-.026-1.181-.148-1.344-.158-.213-.491-.313-.823-.248" fill-rule="evenodd" fill="#000"/></svg>