<svg width="24" height="24" fill="none" xmlns="http://www.w3.org/2000/svg"><path d="M7.787 1.278a.65.65 0 0 0-.443.321c-.061.103-.081.241-.1.675l-.024.545-.32.047c-.793.117-1.358.287-1.949.587-1.708.868-2.513 2.471-2.671 5.317-.05.904-.05 6.989 0 7.984.089 1.758.383 2.891.987 3.799.881 1.323 2.346 1.999 4.693 2.165.76.054 7.32.054 8.08 0 3.075-.217 4.705-1.334 5.362-3.672.303-1.078.357-2.043.357-6.306-.001-4.151-.041-4.911-.324-6.059-.367-1.491-1.053-2.474-2.186-3.134-.52-.303-1.349-.569-2.113-.678l-.356-.05-.024-.545c-.025-.59-.069-.726-.281-.884-.226-.168-.724-.168-.95 0-.212.158-.257.297-.277.855l-.019.515H8.76l-.002-.39c-.003-.642-.078-.866-.342-1.016-.144-.081-.427-.115-.629-.076m7.461 3.477c.015.412.034.541.095.646.106.18.254.281.472.322.227.042.518-.007.66-.113.206-.154.255-.298.276-.815l.02-.478.185.026c.332.048.904.206 1.219.337.964.402 1.568 1.228 1.848 2.526.193.899.19.812.207 5.234.017 4.368.003 4.889-.153 5.705a4.746 4.746 0 0 1-.375 1.195c-.555 1.193-1.741 1.77-3.902 1.9-.857.051-6.696.051-7.587-.001-2.734-.158-3.887-.989-4.289-3.09-.159-.833-.172-1.296-.154-5.689.017-4.444.014-4.354.207-5.254.364-1.69 1.203-2.507 2.897-2.824.184-.034.339-.062.345-.062.005 0 .019.214.03.476.021.516.07.66.276.814.226.168.724.168.95 0 .212-.158.257-.297.277-.855l.019-.515h6.458l.019.515m-8.461 7.523c-.342.068-.519.314-.519.722 0 .462.207.693.663.739.137.014 2.067.02 4.289.013 3.957-.012 4.043-.014 4.176-.092.273-.161.396-.478.327-.845a.646.646 0 0 0-.327-.475c-.133-.079-.213-.08-4.296-.086-2.288-.003-4.229.008-4.313.024m0 4c-.342.068-.519.314-.519.722 0 .462.207.692.663.74.137.014 1.392.02 2.789.013 2.456-.013 2.544-.016 2.676-.093a.646.646 0 0 0 .327-.475c.069-.367-.054-.684-.327-.845-.132-.078-.214-.08-2.796-.086-1.463-.004-2.729.007-2.813.024" fill-rule="evenodd" fill="#000"/></svg>