<svg width="24" height="24" fill="none" xmlns="http://www.w3.org/2000/svg"><path d="M9.872 1.28a2.903 2.903 0 0 0-1.687.798c-.349.325-.744.966-.809 1.311-.02.107-.046.132-.15.147-.882.127-1.395.266-1.875.508-1.103.556-1.756 1.539-2.017 3.039-.058.333-.067.983-.082 5.517-.018 5.361-.001 6.144.145 6.8.389 1.736 1.476 2.821 3.211 3.203.613.135 1.347.156 5.412.155 3.961 0 4.724-.021 5.309-.14 1.749-.357 2.888-1.475 3.273-3.214.147-.663.164-1.442.146-6.804-.018-5.545-.013-5.405-.232-6.197a5.323 5.323 0 0 0-.56-1.23c-.413-.605-1.033-1.062-1.825-1.347-.323-.116-1.023-.266-1.245-.267-.191 0-.22-.025-.282-.239-.263-.901-1.108-1.702-2.078-1.97-.291-.08-.407-.085-2.346-.094-1.122-.005-2.16.006-2.308.024m4.497 1.608a1.7 1.7 0 0 1 .743.743c.094.198.108.28.108.61 0 .35-.011.403-.131.647a1.498 1.498 0 0 1-1.137.834c-.33.048-3.577.047-3.907 0-1.081-.157-1.639-1.392-1.039-2.299.16-.242.417-.448.703-.567l.231-.095 2.1.009 2.1.01.229.108M7.397 5.21c.069.235.295.642.51.914.336.429.854.794 1.393.983l.32.113h4.76l.32-.113c.34-.119.712-.333 1.002-.575.365-.305.784-.921.902-1.327l.051-.174.223.025c1.114.129 1.832.661 2.147 1.591.215.634.215.615.215 6.44 0 3.605-.014 5.491-.043 5.7-.05.367-.223.909-.381 1.193-.061.11-.23.319-.374.464-.308.309-.751.546-1.282.686l-.34.09H7.18l-.34-.09c-.531-.14-.974-.377-1.282-.686a2.756 2.756 0 0 1-.374-.464c-.158-.284-.331-.826-.381-1.193-.029-.209-.043-2.095-.043-5.7 0-5.82 0-5.807.214-6.436.244-.722.709-1.194 1.406-1.431.239-.08.671-.171.844-.176.112-.004.128.012.173.166m.39 7.068c-.342.068-.519.314-.519.722 0 .462.207.692.663.74.137.014 1.167.02 2.289.013 1.956-.012 2.046-.016 2.176-.093a.646.646 0 0 0 .327-.475c.069-.367-.054-.684-.327-.845-.131-.077-.214-.08-2.296-.086-1.188-.004-2.229.007-2.313.024m0 4c-.342.068-.519.314-.519.722 0 .462.207.693.663.739.137.014 2.067.02 4.289.013 3.957-.012 4.043-.014 4.176-.092.273-.161.396-.478.327-.845a.646.646 0 0 0-.327-.475c-.133-.079-.213-.08-4.296-.086-2.288-.003-4.229.008-4.313.024" fill-rule="evenodd" fill="#000"/></svg>