<svg width="24" height="24" fill="none" xmlns="http://www.w3.org/2000/svg"><path d="M7.787 1.278a.652.652 0 0 0-.444.322c-.062.107-.081.233-.095.661l-.018.53-.245.026c-2.173.229-3.77 1.461-4.401 3.395-.156.476-.259 1.084-.304 1.778-.052.822-.052 8.715 0 9.536.083 1.29.375 2.233.961 3.093.602.884 1.502 1.516 2.62 1.84.934.271 1.445.299 5.408.3l3.209.001.211.135c1.406.897 3.377 1.093 5.053.502.684-.241 1.288-.596 1.921-1.127.956-.803 1.701-2.058 1.958-3.3.149-.72.15-1.734.003-2.432a6.176 6.176 0 0 0-1.563-2.947l-.301-.309-.001-2.351c-.001-3.007-.04-3.628-.284-4.518-.554-2.025-2.208-3.358-4.46-3.596l-.245-.026-.018-.53c-.019-.574-.063-.711-.277-.871-.226-.168-.724-.168-.95 0-.212.158-.257.297-.277.855l-.019.515H8.76l-.002-.39c-.003-.642-.078-.866-.342-1.016-.144-.081-.427-.115-.629-.076m7.461 3.477c.015.412.034.541.095.646.106.18.254.281.472.322.227.042.518-.007.66-.113.209-.156.256-.298.277-.834l.019-.495.164.023c1.883.268 2.968 1.334 3.242 3.185.051.342.063.831.063 2.603v2.182l-.25-.101a6.151 6.151 0 0 0-1.07-.32c-.489-.104-1.836-.104-2.32.001-2.52.549-4.384 2.478-4.779 4.946a7.532 7.532 0 0 0-.061.946c0 1.188.306 2.249.919 3.188l.202.31-2.93-.014-2.931-.015-.425-.104c-1.511-.371-2.332-1.192-2.707-2.706l-.105-.425-.013-5.02c-.011-4.422-.005-5.072.051-5.454.249-1.703 1.17-2.742 2.751-3.103.18-.042.402-.086.493-.099l.164-.023.019.495c.021.536.068.678.277.834.226.168.724.168.95 0 .212-.158.257-.297.277-.855l.019-.515h6.458l.019.515m-8.461 5.523c-.342.068-.519.314-.519.722 0 .462.207.693.663.739.137.015 1.617.02 3.289.014 2.956-.013 3.044-.015 3.176-.093.273-.161.396-.478.327-.845a.646.646 0 0 0-.327-.475c-.133-.078-.214-.08-3.296-.086-1.738-.003-3.229.007-3.313.024M18.14 13.28c.796.07 1.431.293 2.092.733a4.521 4.521 0 0 1 1.951 2.967c.074.417.073 1.168-.003 1.57a4.545 4.545 0 0 1-1.512 2.605c-.854.72-1.626 1.027-2.691 1.072-.905.039-1.511-.088-2.257-.47-1.088-.558-1.95-1.613-2.298-2.814-.169-.583-.203-1.442-.081-2.063.379-1.924 2.035-3.422 3.979-3.598.187-.017.349-.033.36-.036.011-.003.218.012.46.034m-.76 1.296c-.254.113-.38.347-.38.705 0 .556-.337 1.141-.839 1.459-.252.159-.459.22-.878.26-.399.037-.502.084-.66.295-.117.156-.137.667-.035.862.119.226.239.286.697.344.228.03.472.071.541.092.197.061.538.297.728.504.287.313.384.584.467 1.304.047.407.267.577.746.578.249.001.328-.015.418-.081.211-.158.258-.264.318-.719.072-.552.202-.843.518-1.158.315-.316.606-.446 1.158-.518.455-.06.561-.107.719-.318.066-.09.082-.169.081-.418-.001-.479-.171-.699-.578-.746-.729-.084-.998-.182-1.318-.482-.222-.207-.425-.501-.488-.705a5.105 5.105 0 0 1-.095-.55c-.059-.46-.119-.58-.343-.694-.166-.084-.6-.092-.777-.014m-10.593.701c-.343.07-.519.315-.519.723 0 .461.207.692.663.74.137.015.861.021 1.609.013 1.554-.015 1.56-.016 1.73-.352.186-.367.073-.885-.23-1.06-.133-.077-.214-.081-1.62-.088-.814-.003-1.549.007-1.633.024m11.168 2.677-.209.209-.208-.205-.207-.204.205-.21.204-.21.212.205.212.206-.209.209" fill-rule="evenodd" fill="#000"/></svg>