<svg width="24" height="24" fill="none" xmlns="http://www.w3.org/2000/svg"><path d="M12.46 1.786c-1.688.203-2.797.874-3.694 2.234-.145.22-.265.404-.267.409a5.126 5.126 0 0 1-.361.112c-.649.186-2.67.864-3.118 1.046-1.858.754-3.043 1.852-3.523 3.263-.367 1.077-.322 2.543.123 4.09.16.553 1.522 4.751 1.681 5.18.407 1.095 1.032 2.137 1.657 2.761.987.985 2.092 1.395 3.622 1.346 1.064-.034 1.794-.199 3.752-.849 1.344-.447 2.061-.732 2.587-1.03l.312-.177.735-.022c.407-.012.868-.049 1.034-.083 2.227-.453 3.585-2.026 4.34-5.026.167-.665.99-4.178 1.12-4.78.727-3.37-.117-5.618-2.58-6.878-.864-.442-1.508-.653-3.224-1.056-1.443-.339-1.914-.431-2.596-.507-.471-.053-1.293-.069-1.6-.033m1.78 1.557c.821.119 3.198.68 3.88.917.488.169 1.198.501 1.535.718.313.201.827.696 1.013.976.217.327.394.806.473 1.281.099.592.066 1.622-.076 2.37-.102.538-.9 3.986-1.164 5.035-.433 1.711-1.045 2.825-1.883 3.423-.758.54-1.804.72-3.158.542-.674-.089-1.159-.191-2.6-.545-1.745-.43-2.568-.775-3.352-1.407-1.127-.909-1.428-2.393-.952-4.693.092-.445.912-3.96 1.087-4.66.653-2.615 1.67-3.791 3.476-4.022.341-.043 1.192-.011 1.721.065M7.744 6.305c-.104.27-1.274 5.296-1.381 5.93-.498 2.96.297 4.96 2.464 6.197.758.433 1.509.706 2.873 1.046l.92.23-1.04.344c-1.829.604-2.703.765-3.629.67-.813-.084-1.377-.346-1.914-.887a5.26 5.26 0 0 1-.535-.65c-.267-.401-.679-1.252-.879-1.811a201.258 201.258 0 0 1-1.522-4.714c-.418-1.446-.459-2.697-.113-3.518.372-.884 1.24-1.607 2.614-2.178.334-.138 2.026-.716 2.112-.721.034-.002.045.021.03.062" fill-rule="evenodd" fill="#000"/></svg>