<svg width="24" height="24" fill="none" xmlns="http://www.w3.org/2000/svg"><path d="M8.08 1.282c-4.072.213-6.185 2.014-6.697 5.709-.113.812-.141 1.825-.141 5.009 0 4.504.06 5.273.518 6.65.771 2.31 2.438 3.57 5.254 3.971.627.089 2.025.147 3.19.132.97-.012 1.067-.02 1.192-.093a.646.646 0 0 0 .327-.475c.069-.367-.054-.684-.327-.845-.129-.076-.233-.081-1.956-.105-1.968-.028-2.225-.05-3.128-.275-2.089-.52-3.076-1.714-3.458-4.18-.069-.445-.074-.791-.074-4.78 0-3.989.005-4.335.074-4.78.428-2.764 1.602-3.938 4.366-4.366.445-.069.791-.074 4.78-.074 4.745 0 4.622-.006 5.688.26 1.832.456 2.816 1.441 3.272 3.272.203.818.247 1.241.275 2.648.024 1.199.032 1.311.105 1.436a.646.646 0 0 0 .475.327c.365.068.685-.054.842-.324.104-.177.128-.917.067-2.099-.067-1.313-.193-2.079-.482-2.944-.61-1.825-1.773-2.989-3.592-3.596-.862-.287-1.627-.416-2.844-.48-.854-.045-6.854-.043-7.726.002m10 10.013a1.637 1.637 0 0 0-1.276 1.322c-.029.155-.044 1.055-.044 2.575 0 2.209-.004 2.335-.07 2.31-.538-.208-1.005-.277-1.497-.221-.959.109-1.731.661-2.155 1.539a2.687 2.687 0 0 0 0 2.36 2.712 2.712 0 0 0 2.8 1.54c.662-.075 1.2-.352 1.677-.863.318-.341.535-.729.649-1.165.079-.299.082-.411.077-2.667-.004-1.921.004-2.352.047-2.335l1.224.406c1.348.445 1.604.49 2.032.354.687-.219 1.088-.719 1.182-1.476.052-.424.02-1.07-.068-1.374a2.359 2.359 0 0 0-1.318-1.468c-.418-.173-2.412-.81-2.66-.85-.308-.049-.318-.049-.6.013m1.618 1.853c1.521.511 1.542.529 1.542 1.325 0 .497-.039.588-.233.541-.25-.06-2.351-.788-2.436-.844a.83.83 0 0 1-.193-.229c-.089-.153-.098-.21-.098-.648 0-.264.012-.492.027-.506.065-.066.306-.004 1.391.361m-3.764 5.676c.24.082.577.388.707.641.082.163.099.252.099.535 0 .419-.096.635-.409.921-.274.25-.522.335-.909.31-1.342-.086-1.585-1.96-.314-2.413.208-.074.599-.071.826.006" fill-rule="evenodd" fill="#000"/></svg>