<svg width="24" height="24" fill="none" xmlns="http://www.w3.org/2000/svg"><path d="M11.32 1.281c-2.061.117-4.07.861-5.79 2.143-.618.46-1.646 1.488-2.106 2.106-1.549 2.078-2.288 4.52-2.143 7.08.121 2.149.837 4.107 2.143 5.86.456.613 1.485 1.641 2.106 2.105 2.076 1.551 4.54 2.295 7.097 2.142 2.163-.129 4.097-.838 5.843-2.142.617-.46 1.645-1.488 2.105-2.105a10.761 10.761 0 0 0 2.046-8.079c-.118-.796-.265-1.069-.602-1.123-.299-.049-.701.08-.852.272-.128.163-.138.358-.045.9.108.635.149 1.92.081 2.521a9.35 9.35 0 0 1-.901 3.099c-.472.964-.913 1.588-1.68 2.374-.817.839-1.559 1.38-2.562 1.869a8.914 8.914 0 0 1-4.06.937 8.914 8.914 0 0 1-4.06-.937c-1.003-.489-1.745-1.03-2.562-1.869-.767-.786-1.208-1.41-1.68-2.374A8.895 8.895 0 0 1 2.76 12c0-2.14.713-4.162 2.053-5.82.335-.415 1.159-1.218 1.568-1.527 1.065-.806 2.386-1.421 3.621-1.687a9.875 9.875 0 0 1 3.714-.06c.44.08.646.049.817-.122.153-.153.227-.371.227-.669 0-.437-.208-.585-1-.713-.425-.069-1.691-.174-1.88-.155l-.56.034m7.42-.015c-1.325.119-2.413.819-3.021 1.946A3.483 3.483 0 0 0 15.271 5c0 .682.129 1.197.45 1.792a3.518 3.518 0 0 0 1.491 1.489A3.483 3.483 0 0 0 19 8.729c.68 0 1.197-.129 1.788-.448a3.518 3.518 0 0 0 1.491-1.489c.321-.595.45-1.11.45-1.792 0-.68-.129-1.197-.448-1.788a3.674 3.674 0 0 0-2.066-1.749c-.422-.147-1.066-.233-1.475-.197m.838 1.555c.371.097.696.291 1.003.598.46.46.659.937.659 1.581 0 .644-.199 1.121-.659 1.581-.46.46-.937.659-1.581.659-.644 0-1.121-.199-1.581-.659-.46-.46-.659-.937-.659-1.581 0-.644.199-1.121.659-1.581.3-.301.631-.5.985-.596.288-.077.881-.078 1.174-.002" fill-rule="evenodd" fill="#000"/></svg>