<svg width="24" height="24" fill="none" xmlns="http://www.w3.org/2000/svg"><path d="M11.394 1.284c-2.268.175-4.43 1.495-5.642 3.444a7.667 7.667 0 0 0-.913 2.116c-.175.683-.204 1.037-.237 2.796-.031 1.688-.032 1.703-.14 2.08-.157.545-.287.8-1.07 2.103-.384.64-.745 1.28-.802 1.423-.591 1.477.023 3.043 1.458 3.714.541.254 2.299.74 3.432.951l.611.114.148.341c.521 1.21 1.486 2.051 2.749 2.397.469.129 1.31.15 1.813.046a4.1 4.1 0 0 0 2.985-2.497l.105-.269.225-.043c1.671-.32 3.369-.779 3.928-1.062.671-.34 1.198-.959 1.463-1.718.103-.294.112-.368.112-.9-.001-.88-.016-.919-1.065-2.671-1.081-1.806-1.074-1.78-1.116-4.069-.016-.924-.05-1.806-.075-1.96-.264-1.633-.966-3.022-2.102-4.163a7.326 7.326 0 0 0-4.701-2.176c-.554-.043-.563-.043-1.166.003m1.418 1.519c2.273.341 4.084 1.855 4.825 4.031.259.761.321 1.368.322 3.126.001 1.34.029 1.598.245 2.328.175.589.297.829 1.098 2.172.393.66.75 1.299.791 1.42.218.636-.131 1.446-.746 1.734-.662.31-2.828.837-4.207 1.022-1.228.166-1.536.184-3.12.184-1.579 0-1.902-.019-3.08-.181-1.486-.204-3.591-.717-4.284-1.042a1.608 1.608 0 0 1-.707-.708c-.113-.252-.119-.709-.013-.989.042-.11.409-.757.816-1.439.798-1.335.981-1.718 1.167-2.436.164-.636.201-1.116.201-2.595 0-1.339.036-1.765.199-2.33a6.108 6.108 0 0 1 1.002-2.018c.269-.35.834-.911 1.179-1.171.706-.53 1.707-.951 2.6-1.091.406-.064 1.337-.073 1.712-.017m-1.025 2.915a.659.659 0 0 0-.447.326c-.077.131-.08.208-.08 2.056 0 1.79.005 1.93.074 2.069.118.236.308.331.666.331.358 0 .548-.095.666-.331.068-.137.075-.289.087-1.849.014-1.895.001-2.137-.126-2.326-.158-.235-.49-.344-.84-.276m-.748 14.601c.883.036 2.872-.003 3.031-.059.098-.034.047.057-.156.279-1.015 1.111-2.649 1.153-3.724.097-.32-.314-.378-.413-.22-.377.05.012.531.039 1.069.06" fill-rule="evenodd" fill="#000"/></svg>