<svg width="24" height="24" fill="none" xmlns="http://www.w3.org/2000/svg"><path d="M11.42 1.266c-.66.14-1.27.562-1.68 1.162-.099.144-.176.2-.438.313-1.836.795-3.311 2.524-3.803 4.458-.181.712-.19.835-.219 2.961-.036 2.674.005 2.511-1.078 4.323-.827 1.385-.923 1.613-.952 2.277-.022.508.047.844.261 1.28.207.423.708.924 1.149 1.149.533.272 1.84.656 3.095.908.382.077.7.145.705.151.006.007.064.141.13.299.422 1.013 1.294 1.772 2.43 2.118.328.1.417.109 1 .109.579 0 .674-.01 1-.107.491-.147.943-.38 1.332-.688.492-.389.979-1.046 1.153-1.555.043-.128.089-.19.149-.204.047-.01.32-.065.606-.121 1.059-.208 2.587-.64 2.994-.846a2.692 2.692 0 0 0 1.208-1.233c.376-.77.391-1.606.041-2.36-.071-.154-.388-.703-.703-1.22-.652-1.071-.757-1.283-.907-1.829l-.108-.391-.026-2.06c-.028-2.127-.038-2.26-.218-2.954-.499-1.927-1.922-3.612-3.741-4.431-.321-.145-.399-.198-.5-.347-.653-.956-1.755-1.401-2.88-1.162m1.617 2.515c1.16.222 2.119.775 2.937 1.695.596.67 1.055 1.631 1.231 2.577.028.15.058 1.055.075 2.307.031 2.243.033 2.255.288 3.017.161.481.284.719.913 1.763.848 1.406.884 1.508.716 2.029-.108.337-.312.587-.595.73-.365.183-1.601.53-2.631.737-1.362.274-2.471.381-3.951.381-1.505 0-2.583-.104-3.96-.379-1.14-.229-2.498-.628-2.8-.825-.441-.286-.628-.771-.486-1.26.039-.133.32-.647.709-1.297.741-1.235.827-1.398.975-1.836.269-.798.27-.81.302-3.06.03-2.137.041-2.277.223-2.906a5.216 5.216 0 0 1 3.877-3.65c.58-.133 1.548-.143 2.177-.023M11.58 20.507c.638.011 1.385.003 1.66-.017.275-.02.509-.028.52-.019.011.01-.091.12-.227.245a2.223 2.223 0 0 1-3.011.016c-.239-.216-.309-.327-.172-.273.038.015.592.036 1.23.048" fill-rule="evenodd" fill="#000"/></svg>