<svg width="24" height="24" fill="none" xmlns="http://www.w3.org/2000/svg"><path d="M8.08 1.282c-4.079.217-6.185 2.013-6.697 5.709-.113.812-.141 1.825-.141 5.009s.028 4.197.141 5.009c.384 2.775 1.665 4.461 3.973 5.233.835.279 1.642.415 2.837.478.969.051 6.645.051 7.614 0 1.195-.063 2.002-.199 2.837-.478 2.318-.775 3.575-2.437 3.977-5.256.107-.75.144-2.082.132-4.686-.013-2.476-.016-2.564-.093-2.696-.161-.273-.478-.396-.845-.327a.646.646 0 0 0-.475.327c-.078.132-.081.23-.103 3.456-.026 3.627-.025 3.614-.277 4.628-.456 1.831-1.44 2.816-3.272 3.272-1.066.266-.943.26-5.688.26-3.936 0-4.339-.006-4.76-.072-2.79-.435-3.957-1.597-4.386-4.368-.069-.445-.074-.791-.074-4.78 0-3.989.005-4.335.074-4.78.427-2.759 1.579-3.917 4.346-4.365.362-.059.882-.072 3.74-.092 3.226-.022 3.324-.025 3.456-.103a.646.646 0 0 0 .327-.475c.069-.367-.054-.684-.327-.845-.132-.078-.212-.08-2.936-.085-1.54-.002-3.061.01-3.38.027m10.66-.016c-1.325.119-2.413.819-3.021 1.946A3.483 3.483 0 0 0 15.271 5c0 .682.129 1.197.45 1.792a3.518 3.518 0 0 0 1.491 1.489A3.483 3.483 0 0 0 19 8.729c.68 0 1.197-.129 1.788-.448a3.518 3.518 0 0 0 1.491-1.489c.321-.595.45-1.11.45-1.792 0-.68-.129-1.197-.448-1.788a3.674 3.674 0 0 0-2.066-1.749c-.422-.147-1.066-.233-1.475-.197m.838 1.555c.371.097.696.291 1.003.598.46.46.659.937.659 1.581 0 .644-.199 1.121-.659 1.581-.46.46-.937.659-1.581.659-.644 0-1.121-.199-1.581-.659-.46-.46-.659-.937-.659-1.581 0-.644.199-1.121.659-1.581.3-.301.631-.5.985-.596.288-.077.881-.078 1.174-.002M8.06 11.309a2.645 2.645 0 0 0-1.634 1.139c-.729 1.139-.621 2.624.282 3.909.396.563 1.266 1.29 1.952 1.632.87.434 1.444.433 2.316-.004a5.476 5.476 0 0 0 1.443-1.045c.585-.584.969-1.243 1.164-2 .092-.358.101-.455.085-.92-.027-.74-.189-1.215-.608-1.771-.324-.432-.924-.814-1.452-.924a2.582 2.582 0 0 0-1.572.186l-.225.11-.275-.127a2.73 2.73 0 0 0-.492-.17c-.215-.043-.829-.053-.984-.015m.76 1.495c.112.03.226.113.38.275.241.255.415.361.59.361.177 0 .503-.183.649-.365.414-.514 1.209-.374 1.55.273.29.55.273 1.089-.054 1.757-.185.379-.507.761-.907 1.079-.34.269-1.049.656-1.204.656-.116 0-.684-.276-.978-.476-.853-.579-1.405-1.453-1.405-2.224 0-.912.643-1.536 1.379-1.336" fill-rule="evenodd" fill="#000"/></svg>