<svg width="24" height="24" fill="none" xmlns="http://www.w3.org/2000/svg"><path d="M8.08 1.282c-4.072.213-6.185 2.014-6.697 5.709-.113.812-.141 1.825-.141 5.009 0 4.504.06 5.273.518 6.65.772 2.313 2.446 3.576 5.267 3.972.759.106 1.875.137 4.973.137s4.214-.031 4.973-.137c2.47-.347 4.023-1.334 4.924-3.132.482-.96.741-2.121.823-3.683.051-.969.051-6.645 0-7.614-.063-1.195-.199-2.002-.478-2.837-.61-1.825-1.773-2.989-3.592-3.596-.862-.287-1.627-.416-2.844-.48-.854-.045-6.854-.043-7.726.002m8.72 1.572c2.786.462 3.914 1.6 4.348 4.386.066.421.072.824.072 4.76s-.006 4.339-.072 4.76c-.436 2.798-1.59 3.952-4.388 4.388-.421.066-.824.072-4.76.072s-4.339-.006-4.76-.072c-2.79-.435-3.957-1.597-4.386-4.368-.069-.445-.074-.791-.074-4.78 0-4.753-.004-4.663.264-5.712C3.557 4.282 4.722 3.274 6.96 2.9c.73-.123 1.088-.131 5.24-.123 3.763.007 4.222.014 4.6.077m-5.803 3.744c-2.17.396-3.873 1.966-4.359 4.019-.233.984-.145 2.177.229 3.123.271.687.576 1.166 1.174 1.847l.357.407-.849.013c-.801.012-.857.018-.995.104-.198.123-.286.323-.286.654 0 .298.074.468.265.611.111.083.144.084 1.983.084h1.87l.144-.11c.245-.186.33-.34.33-.595 0-.286.013-.269-1.06-1.453-.473-.523-.95-1.07-1.06-1.216a4.067 4.067 0 0 1-.606-1.231c-.099-.324-.108-.414-.111-1.035-.003-.641.004-.7.111-1.039.337-1.06 1.023-1.86 2.003-2.336.699-.34 1.296-.466 2.043-.433 1.742.079 3.177 1.156 3.686 2.768.107.339.114.399.111 1.04-.003.619-.012.712-.11 1.031-.129.423-.4.967-.635 1.275-.095.124-.559.652-1.032 1.173s-.9 1.021-.95 1.11c-.189.342-.075.835.228.99.16.081.205.083 2.02.072 1.816-.011 1.859-.013 1.969-.095.191-.143.265-.313.265-.611 0-.331-.088-.531-.286-.654-.138-.086-.194-.092-.996-.104l-.85-.013.324-.366c.977-1.106 1.45-2.148 1.551-3.416.212-2.658-1.593-4.996-4.315-5.592-.484-.106-1.637-.117-2.163-.022" fill-rule="evenodd" fill="#000"/></svg>