<svg width="24" height="24" fill="none" xmlns="http://www.w3.org/2000/svg"><path d="M11.32 1.281c-4.279.244-8.068 3.128-9.477 7.216a10.886 10.886 0 0 0-.279 6.053 10.76 10.76 0 0 0 7.886 7.886 10.96 10.96 0 0 0 5.1 0 10.76 10.76 0 0 0 7.886-7.886 10.96 10.96 0 0 0 0-5.1 10.758 10.758 0 0 0-8.694-8.052c-.408-.067-1.668-.169-1.862-.151l-.56.034m1.826 1.541a9.086 9.086 0 0 1 2.914.874c2.817 1.383 4.708 4.026 5.118 7.158.123.932.066 2.172-.144 3.144-.289 1.345-1.031 2.857-1.913 3.902a9.31 9.31 0 0 1-3.061 2.404 8.94 8.94 0 0 1-4.06.936 8.93 8.93 0 0 1-4.06-.936c-2.817-1.383-4.708-4.026-5.118-7.158-.123-.932-.066-2.172.144-3.144.211-.982.737-2.227 1.302-3.082a9.335 9.335 0 0 1 6.552-4.097c.56-.077 1.749-.077 2.326-.001M11.54 6.281c-2.328.19-4.271 1.757-4.861 3.919-.124.455-.166.806-.165 1.36.004 1.422.493 2.626 1.544 3.8l.341.38-.85.02c-.76.018-.863.028-.988.101-.215.127-.294.299-.294.639 0 .362.082.523.332.65.176.089.193.09 1.921.09 1.729 0 1.744-.001 1.919-.09.237-.121.405-.339.43-.558.036-.325.072-.277-1.55-2.072-.713-.79-.971-1.205-1.186-1.908-.097-.32-.107-.414-.11-1.032-.003-.784.034-.97.32-1.575.488-1.035 1.368-1.76 2.557-2.107.431-.126 1.262-.176 1.728-.103 1.587.248 2.839 1.336 3.276 2.845.061.211.075.388.073.94-.003.62-.012.711-.11 1.032a4.482 4.482 0 0 1-.548 1.148c-.083.121-.567.679-1.077 1.24-.557.612-.96 1.091-1.01 1.197a.676.676 0 0 0-.061.407c.024.27.112.436.284.541.117.07.244.076 1.945.086l1.82.011.179-.091c.252-.128.33-.282.33-.651 0-.369-.078-.523-.328-.65-.167-.085-.227-.09-.995-.09h-.816l.185-.21c.607-.686.891-1.082 1.162-1.624a5.422 5.422 0 0 0 .395-3.686c-.629-2.472-3.124-4.176-5.792-3.959" fill-rule="evenodd" fill="#000"/></svg>