<svg width="24" height="24" fill="none" xmlns="http://www.w3.org/2000/svg"><path d="M11.643 1.921c-.683.143-1.265.467-2.018 1.12-.572.497-7.238 7.193-7.539 7.573-.652.824-.927 1.46-.925 2.14.001.7.397 1.48 1.244 2.453.378.435 4.014 4.092 4.731 4.759 1.239 1.153 2.046 1.593 2.924 1.593.884 0 1.676-.434 2.94-1.61.887-.825 6.424-6.4 6.772-6.817.344-.413.579-.777.77-1.192.233-.506.275-.706.275-1.3 0-.514-.007-.56-.14-.941-.24-.688-.597-1.239-1.324-2.046-.723-.802-4.299-4.331-4.759-4.695-.921-.732-1.593-1.029-2.394-1.06a3.114 3.114 0 0 0-.557.023m.977 1.563c.272.101.715.379 1.091.682.36.291 3.854 3.75 4.498 4.453.78.853 1.121 1.464 1.128 2.021.003.323-.109.72-.204.72-.028 0-.317-.062-.642-.137a34.024 34.024 0 0 0-14.065-.3 7.257 7.257 0 0 1-.671.109c-.056-.019 6.785-6.831 7.137-7.106.302-.237.783-.499.988-.539.163-.032.524.016.74.097m-.911 8.356c2.114.073 3.693.258 5.666.664.374.077.703.153.732.17.062.034-6.111 6.213-6.667 6.674-1.146.95-1.616.95-2.76-.001-.396-.328-4.045-3.945-4.811-4.767-.605-.65-.894-1.021-1.066-1.368-.159-.32-.156-.36.028-.41 1.846-.497 4.528-.88 6.709-.958.484-.017.916-.034.96-.037.044-.003.588.012 1.209.033m7.961 3.638a1.875 1.875 0 0 0-.807.527c-.18.2-.916 1.378-1.134 1.815-.278.557-.393 1.264-.291 1.787.208 1.071 1.151 1.757 2.502 1.821 1.189.055 2.096-.324 2.606-1.09.206-.309.302-.624.323-1.058.035-.72-.127-1.184-.799-2.296-.511-.845-.641-1.013-.961-1.249a1.607 1.607 0 0 0-1.439-.257m.691 1.592c.184.233.882 1.442.959 1.659.102.291.102.551.001.749-.167.327-.502.457-1.181.457s-1.014-.13-1.181-.457c-.101-.198-.101-.458.001-.749.101-.287.85-1.544 1.025-1.721.148-.15.218-.138.376.062" fill-rule="evenodd" fill="#000"/></svg>