<svg width="24" height="24" fill="none" xmlns="http://www.w3.org/2000/svg"><path d="M12.6 3.078A7.796 7.796 0 0 0 8.86 4.72c-.176.14-1.401 1.336-2.723 2.657-2.411 2.411-2.713 2.742-3.106 3.403a7.127 7.127 0 0 0-.833 2.12c-.109.509-.151 1.694-.08 2.235a6.859 6.859 0 0 0 1.256 3.124c.299.405.688.827.858.931.347.211.795.038 1.021-.394.18-.344.125-.493-.399-1.084-1.544-1.741-1.723-4.374-.432-6.341.192-.294.639-.762 2.734-2.863C8.533 7.126 9.786 5.899 9.94 5.78c2.103-1.62 5.037-1.727 7.24-.266a6.253 6.253 0 0 1 1.979 8.344c-.347.606-.669.958-2.966 3.245-2.094 2.086-2.318 2.296-2.581 2.431a2.72 2.72 0 0 1-1.268.305c-.784-.003-1.4-.255-1.936-.791-.576-.576-.817-1.157-.813-1.962.002-.512.067-.788.293-1.246.162-.329.217-.39 1.656-1.84 1.603-1.617 1.622-1.641 1.558-1.982-.039-.21-.43-.601-.64-.64-.34-.064-.373-.039-1.875 1.456-.766.762-1.5 1.527-1.632 1.7-.28.37-.599 1.006-.712 1.421a4.346 4.346 0 0 0 .017 2.305c.485 1.686 1.96 2.91 3.68 3.052 1.114.092 2.09-.189 3-.866.319-.237 4.494-4.418 4.819-4.826A7.877 7.877 0 0 0 21.386 12c.097-.552.115-1.693.036-2.26-.492-3.54-3.133-6.191-6.653-6.678a9.043 9.043 0 0 0-2.169.016" fill-rule="evenodd" fill="#000"/></svg>