<svg width="24" height="24" fill="none" xmlns="http://www.w3.org/2000/svg"><path d="M11.36 2.282c-3.291.239-6.091 2.607-6.901 5.838-.215.86-.219.944-.219 4.835 0 3.837.005 3.965.2 4.723a6.776 6.776 0 0 0 3.847 4.5c.809.347 1.66.535 2.481.549.529.009.696-.047.841-.281.13-.209.13-.683 0-.892-.133-.215-.292-.271-.88-.313-.866-.062-1.328-.183-2.071-.541a5.248 5.248 0 0 1-2.775-3.414c-.157-.625-.163-.797-.162-4.294.001-3.624.008-3.806.198-4.549.618-2.42 2.645-4.244 5.141-4.626.464-.071 1.385-.071 1.82 0 1.402.23 2.536.803 3.501 1.767.953.953 1.502 2.02 1.768 3.436.049.26.063.882.079 3.332.013 2.003.005 3.144-.024 3.407-.076.696-.309 1.183-.804 1.68-.536.537-1.033.757-1.786.791-.555.025-.922-.049-1.385-.279-.429-.212-.977-.749-1.196-1.171-.297-.572-.287-.478-.311-2.9-.022-2.177-.022-2.18-.113-2.326-.123-.198-.323-.286-.654-.286-.298 0-.468.074-.611.265-.083.111-.084.15-.096 2.22-.009 1.464.001 2.199.034 2.407a4.235 4.235 0 0 0 3.778 3.554c1.914.175 3.65-.895 4.366-2.691.274-.688.267-.591.284-4.063.017-3.344.001-3.778-.168-4.581a7.757 7.757 0 0 0-3.403-4.909 8.09 8.09 0 0 0-2.598-1.05c-.431-.088-1.4-.189-1.661-.174a46.78 46.78 0 0 0-.52.036" fill-rule="evenodd" fill="#000"/></svg>