<svg width="24" height="24" fill="none" xmlns="http://www.w3.org/2000/svg"><path d="M8.08 1.282c-4.072.213-6.185 2.014-6.697 5.709-.113.812-.141 1.825-.141 5.009 0 4.504.06 5.273.518 6.65.772 2.313 2.446 3.576 5.267 3.972.759.106 1.875.137 4.973.137s4.214-.031 4.973-.137c2.47-.347 4.023-1.334 4.924-3.132.482-.96.741-2.121.823-3.683.051-.969.051-6.645 0-7.614-.063-1.195-.199-2.002-.478-2.837-.61-1.825-1.773-2.989-3.592-3.596-.862-.287-1.627-.416-2.844-.48-.854-.045-6.854-.043-7.726.002m8.72 1.572c2.786.462 3.914 1.6 4.348 4.386.066.421.072.824.072 4.76s-.006 4.339-.072 4.76c-.436 2.798-1.59 3.952-4.388 4.388-.421.066-.824.072-4.76.072s-4.339-.006-4.76-.072c-2.79-.435-3.957-1.597-4.386-4.368-.069-.445-.074-.791-.074-4.78 0-4.753-.004-4.663.264-5.712C3.557 4.282 4.722 3.274 6.96 2.9c.73-.123 1.088-.131 5.24-.123 3.763.007 4.222.014 4.6.077m-3.521 3.238a2.254 2.254 0 0 0-.893.549c-.099.111-.373.507-.608.88-.386.613-.438.679-.538.679a56 56 0 0 1-1.126-.064c-.558-.035-1.149-.052-1.314-.038-1.176.101-1.78.611-2.041 1.722-.082.349-.719 5.637-.718 5.961a2.35 2.35 0 0 0 .546 1.454c.414.473.98.725 1.631.725.344 0 5.094-.534 5.722-.644 1.23-.214 1.841-.794 1.978-1.881.028-.224.019-.631-.036-1.54a54.065 54.065 0 0 1-.068-1.24l.713-.451c.389-.245.79-.53.891-.633.636-.644.717-1.732.192-2.571-.081-.129-.609-.691-1.284-1.364-1.173-1.17-1.375-1.336-1.835-1.5-.246-.089-.961-.114-1.212-.044m.913 1.563c.085.058.614.569 1.177 1.136.89.897 1.029 1.053 1.07 1.206.062.23.024.415-.11.54-.06.056-.352.254-.649.441l-.54.34-1.21-1.209c-.666-.665-1.21-1.224-1.21-1.244 0-.069.658-1.087.789-1.22.123-.125.148-.134.331-.116a.757.757 0 0 1 .352.126m-3.978 1.981 1.194.072 1.453 1.456 1.453 1.456.063 1.06c.106 1.775.092 1.899-.226 2.039a2.195 2.195 0 0 1-.411.117c-.251.045-4.928.604-5.048.604-.041 0 .213-.284.637-.71.388-.39.725-.761.748-.823a.878.878 0 0 0 .043-.263c0-.294-.372-.698-.69-.75-.283-.046-.408.038-1.158.777-.656.647-.707.689-.689.564.011-.074.146-1.203.299-2.509.154-1.306.298-2.457.321-2.558.022-.101.08-.253.127-.337.098-.175.187-.211.65-.264.022-.002.577.029 1.234.069" fill-rule="evenodd" fill="#000"/></svg>