<svg width="24" height="24" fill="none" xmlns="http://www.w3.org/2000/svg"><path d="M11.596 1.284c-.605.078-1.255.396-1.745.852-.2.187-1.188 1.409-3.024 3.74-1.5 1.905-2.824 3.608-2.943 3.784-.263.388-.533.948-.629 1.3a2.73 2.73 0 0 0-.069.7c0 .404.011.469.138.801.164.428.416.821.779 1.213.145.156.937.882 1.76 1.612.823.73 1.497 1.344 1.497 1.364 0 .02-.138.643-.308 1.383-.295 1.292-.307 1.368-.308 1.847 0 .438.013.54.109.829.256.769.959 1.491 1.739 1.787.626.238.595.235 3.108.253 2.445.018 2.968-.004 3.493-.15 1.325-.367 2.173-1.478 2.119-2.775-.014-.316-.086-.711-.333-1.812-.174-.775-.308-1.415-.297-1.424.273-.223 2.919-2.601 3.063-2.753.833-.875 1.178-1.71 1.059-2.566-.077-.552-.268-1.003-.692-1.634-.225-.333-4.995-6.412-5.608-7.145-.554-.664-1.261-1.077-2.044-1.195-.396-.06-.476-.061-.864-.011m-.307 3.853c.011 2.128.013 2.18.093 2.288.169.226.279.275.611.275.359 0 .536-.08.666-.301.078-.134.081-.209.092-2.289.007-1.182.026-2.15.045-2.15.108 0 .47.366.919.932 2.424 3.048 5.12 6.497 5.252 6.718.399.665.45 1.026.212 1.501-.203.405-.497.703-2.155 2.177L15.549 15.6l-3.545-.002-3.544-.002L7 14.299c-1.971-1.752-2.174-1.969-2.313-2.473-.088-.318.096-.845.493-1.413.097-.138 1.366-1.762 2.82-3.609 2.463-3.129 3.062-3.844 3.22-3.844.05 0 .06.315.069 2.177M15.26 17.17c.406 1.734.585 2.632.569 2.851-.042.549-.434.972-1.073 1.157-.198.057-.525.063-2.8.053L9.38 21.22l-.231-.093c-.29-.117-.679-.47-.815-.739-.18-.355-.171-.476.142-1.868l.304-1.35.022-.09h6.436l.022.09" fill-rule="evenodd" fill="#000"/></svg>