<svg width="24" height="24" fill="none" xmlns="http://www.w3.org/2000/svg"><path d="M14.295 2.759a2.737 2.737 0 0 0-1.466.971c-.12.16-.53.785-.91 1.39-.38.605-.703 1.113-.717 1.13-.014.016-.925-.026-2.024-.095-1.741-.108-2.062-.118-2.498-.08-1.798.156-2.655 1.05-2.938 3.065-.204 1.449-1.022 8.669-1.022 9.021 0 .684.156 1.232.507 1.774.556.86 1.551 1.385 2.626 1.385.358 0 8.899-.993 9.456-1.1 1.179-.225 1.955-.736 2.344-1.543.368-.761.39-1.136.229-3.775-.1-1.647-.114-2.046-.073-2.084.028-.025.546-.358 1.151-.74 1.305-.823 1.456-.93 1.667-1.184.472-.568.662-1.11.657-1.878a3.191 3.191 0 0 0-.7-1.969c-.097-.125-.948-.993-1.89-1.93-1.795-1.784-2.015-1.972-2.571-2.198-.6-.245-1.278-.304-1.828-.16m1.338 1.58c.296.14.374.212 2.092 1.933 1.642 1.644 1.796 1.81 1.92 2.067.127.263.135.304.135.7 0 .379-.011.441-.106.621-.059.11-.158.248-.22.307-.115.108-2.311 1.513-2.365 1.513-.016 0-1.044-1.015-2.285-2.256-1.735-1.735-2.25-2.272-2.229-2.325.044-.115 1.31-2.107 1.452-2.286.378-.474.969-.575 1.606-.274M9.427 7.666l1.808.109 2.518 2.522 2.518 2.523.086 1.56c.048.858.106 1.82.13 2.138.064.856-.037 1.433-.299 1.716-.224.243-.701.441-1.305.544-.189.033-2.269.286-4.623.564-3.319.391-4.342.499-4.555.48a1.574 1.574 0 0 1-.313-.047c-.022-.013.626-.692 1.439-1.509 1.634-1.644 1.673-1.694 1.572-2.031-.027-.09-.12-.24-.207-.335-.269-.292-.539-.369-.822-.234-.077.036-.795.726-1.613 1.549-.811.816-1.489 1.471-1.505 1.454-.017-.016-.038-.178-.047-.36-.012-.249.106-1.367.488-4.609.55-4.666.55-4.663.686-5.1.249-.795.639-1.031 1.717-1.039a57.1 57.1 0 0 1 2.327.105" fill-rule="evenodd" fill="#000"/></svg>