<svg width="24" height="24" fill="none" xmlns="http://www.w3.org/2000/svg"><path d="M4.54 2.28c-.722.065-1.221.273-1.621.677-.295.298-.442.569-.572 1.056l-.087.327v7.64c0 7.193.004 7.658.071 7.944.22.934.759 1.475 1.713 1.721.318.081.449.087 2.396.104 2.109.019 2.799-.008 3.26-.128.829-.216 1.39-.789 1.609-1.645.067-.259.071-.74.071-7.976s-.004-7.717-.071-7.976c-.116-.453-.292-.775-.585-1.067-.418-.417-.878-.604-1.664-.677-.461-.043-4.042-.043-4.52 0m10.328.002c-1.306.116-2.065.824-2.227 2.078-.031.24-.04 2.545-.031 7.86.011 7.008.017 7.537.082 7.776.231.848.788 1.411 1.608 1.625.461.12 1.151.147 3.26.128 1.947-.017 2.078-.023 2.396-.104.954-.246 1.493-.787 1.713-1.721.067-.286.071-.751.071-7.964V4.3l-.088-.308c-.136-.478-.283-.744-.571-1.035-.412-.416-.873-.604-1.661-.677-.476-.044-4.048-.042-4.552.002M9.497 3.88c.249.129.334.288.384.725.023.203.038 3.123.038 7.395 0 4.272-.015 7.192-.038 7.395-.05.437-.135.596-.384.725l-.195.1-2.375.012c-2.606.012-2.696.005-2.938-.224-.241-.228-.229.199-.229-8.008 0-8.207-.012-7.78.229-8.008.237-.225.29-.229 2.912-.22l2.401.008.195.1m10.186-.056c.119.035.267.11.328.168.241.228.229-.199.229 8.008 0 8.207.012 7.78-.229 8.008-.242.229-.332.236-2.938.224l-2.375-.012-.195-.1c-.249-.129-.334-.288-.384-.725-.051-.447-.052-14.339 0-14.787.041-.355.149-.607.296-.685.283-.151.389-.158 2.748-.16 1.993-.003 2.332.006 2.52.061" fill-rule="evenodd" fill="#000"/></svg>