<svg width="24" height="24" fill="none" xmlns="http://www.w3.org/2000/svg"><path d="M11.52 1.265c-2.341.116-4.483.921-6.298 2.37-1.539 1.227-2.816 3.073-3.441 4.973A10.203 10.203 0 0 0 1.24 12c0 1.231.16 2.237.541 3.392 1.187 3.608 4.227 6.32 7.983 7.124.959.205 2.426.276 3.396.164 4.275-.491 7.853-3.466 9.093-7.56.318-1.049.444-1.934.444-3.12 0-1.186-.126-2.071-.444-3.12-1.044-3.445-3.746-6.129-7.229-7.179-1.057-.318-2.426-.489-3.504-.436m1.562 1.552a9.27 9.27 0 0 1 7.578 6.001c.364.983.548 2.04.55 3.162a8.875 8.875 0 0 1-.449 2.901 9.267 9.267 0 0 1-7.833 6.321c-.633.068-1.891.03-2.488-.076-2.035-.362-3.743-1.274-5.161-2.754-3.409-3.558-3.412-9.184-.007-12.737 1.18-1.232 2.561-2.073 4.157-2.532.43-.124 1.234-.279 1.631-.315.434-.039 1.607-.023 2.022.029M8.42 8.079c-.478.069-.86.33-1.024.702-.145.327-.161.703-.147 3.439.012 2.323.022 2.663.08 2.834.134.396.382.649.783.799.211.078.306.085 1.248.085s1.037-.007 1.248-.085c.42-.157.692-.451.798-.864.079-.305.079-5.673 0-5.978-.106-.414-.381-.711-.798-.861-.198-.071-.341-.083-1.088-.093-.473-.007-.968.004-1.1.022m5.274.001c-.467.065-.823.319-1.011.72l-.103.22v5.96l.103.22c.297.632.758.788 2.217.75.628-.016.8-.034.988-.101.416-.149.692-.445.798-.86.079-.305.079-5.673 0-5.978-.106-.414-.381-.711-.798-.861-.198-.071-.341-.083-1.088-.093-.473-.007-.971.004-1.106.023M9.96 12v2.44h-1.2V9.56h1.2V12m5.28 0v2.44h-1.2V9.56h1.2V12" fill-rule="evenodd" fill="#000"/></svg>