<svg width="24" height="24" fill="none" xmlns="http://www.w3.org/2000/svg"><path d="M11.484.903c-.404.109-.599.249-1.248.895-.674.672-.822.89-.918 1.353-.099.473.009 1.074.26 1.453a.835.835 0 0 1 .102.185c0 .017-.985 1.016-2.19 2.219L5.3 9.196l-.22-.06c-.173-.047-.426-.057-1.182-.048l-.962.012-.313.154a2 2 0 0 0-.929.93l-.154.312v2.128l.154.312c.205.415.515.725.93.93l.312.154h2.128l.312-.154a2 2 0 0 0 .93-.929l.154-.313.012-.962c.009-.756-.001-1.009-.048-1.182l-.06-.22 2.188-2.19c1.203-1.205 2.201-2.19 2.216-2.19.016 0 .113.053.216.119.319.202.55.261 1.016.261.466 0 .697-.059 1.016-.261.103-.066.2-.119.216-.119.015 0 1.013.985 2.216 2.19l2.188 2.19-.06.22c-.047.173-.057.426-.048 1.182l.012.962.154.313a2 2 0 0 0 .93.929l.312.154h2.128l.312-.154c.415-.205.725-.515.93-.93l.154-.312v-2.128l-.154-.312a2 2 0 0 0-.929-.93l-.313-.154-.962-.012c-.756-.009-1.009.001-1.182.048l-.22.06-2.19-2.188c-1.204-1.203-2.19-2.202-2.19-2.219 0-.017.046-.1.102-.185.251-.379.359-.98.26-1.453-.096-.463-.244-.681-.918-1.353-.657-.654-.844-.787-1.265-.897a2.288 2.288 0 0 0-1.015.002m.708 1.474c.173.09.999.952 1.029 1.074.053.208-.018.321-.514.816-.495.496-.607.566-.817.515-.147-.037-1.075-.965-1.112-1.112-.049-.202.022-.322.455-.764.582-.595.705-.662.959-.529m-.479 7.629c-.459.057-.92.288-1.239.622-.186.194-3.264 4.103-3.469 4.405-.465.686-.602 1.334-.404 1.909.175.51.422.791 1.669 1.897.357.317.65.599.65.627 0 .027-.063.325-.141.662-.078.337-.158.73-.179.875-.128.893.447 1.774 1.392 2.128.217.082.309.087 1.865.1 1.106.009 1.724-.001 1.908-.032a2.051 2.051 0 0 0 1.62-1.459c.091-.335.066-.669-.106-1.44-.089-.396-.17-.75-.182-.787-.015-.049.218-.28.851-.845 1.15-1.027 1.425-1.394 1.537-2.048.08-.473-.076-1.017-.455-1.581-.245-.366-3.328-4.259-3.532-4.46-.449-.443-1.114-.657-1.785-.573m-6.952.615c.209.108.239.226.239.939 0 .983-.017 1-1 1s-1-.017-1-1 .013-.996.992-.998c.507-.002.678.011.769.059m16 0c.209.108.239.226.239.939 0 .983-.017 1-1 1-.497 0-.671-.014-.761-.061-.209-.108-.239-.226-.239-.939 0-.983.013-.996.992-.998.507-.002.678.011.769.059m-9.379 3.484c.169.226.279.275.611.275.359 0 .536-.08.666-.301.074-.126.083-.227.101-1.094l.02-.954 1.479 1.874c.813 1.031 1.537 1.973 1.61 2.093.17.282.17.434.002.669-.071.098-.531.538-1.021.976l-.893.797h-3.885l-.866-.774c-1.236-1.105-1.275-1.154-1.151-1.478.077-.2.143-.288 1.863-2.468l1.342-1.7.02.987c.019.918.026.995.102 1.098m2.431 6.485c.082.369.149.703.148.744-.002.112-.245.332-.423.382-.1.028-.654.044-1.518.044s-1.418-.016-1.518-.044c-.224-.062-.422-.271-.422-.444 0-.112.188-1.023.265-1.282.019-.065.133-.07 1.67-.07h1.65l.148.67" fill-rule="evenodd" fill="#000"/></svg>