<svg width="24" height="24" fill="none" xmlns="http://www.w3.org/2000/svg"><path d="M5.994 1.283c-1.726.143-3.342 1.241-4.156 2.824-1.223 2.38-.445 5.302 1.805 6.78.186.122.395.252.467.288.071.037.13.091.13.121s-.209 1.807-.464 3.949c-.424 3.563-.461 3.936-.441 4.375.025.551.09.828.303 1.285.428.915 1.204 1.528 2.23 1.759.584.131.905.105 5.652-.459a355.62 355.62 0 0 0 4.78-.587c.569-.096.928-.207 1.38-.429.351-.172.473-.258.745-.527.496-.492.715-1.005.818-1.922.025-.22.034-.562.02-.76-.057-.821-.222-3.735-.222-3.92v-.2l1.207-.76c.665-.418 1.317-.847 1.45-.953.672-.535 1.025-1.287 1.035-2.207.005-.487-.039-.725-.221-1.197-.171-.443-.339-.713-.684-1.105-.514-.582-3.515-3.535-3.788-3.726-1.086-.761-2.358-.862-3.347-.265-.557.336-.688.505-1.973 2.543-.583.924-.547.891-.879.824l-.13-.026.02-.224a5.609 5.609 0 0 0-.016-.692A5.21 5.21 0 0 0 9.14 1.968c-.915-.536-2.024-.778-3.146-.685m1.538 1.612a3.767 3.767 0 0 1 2.572 2.573c.155.519.18 1.293.058 1.793-.257 1.051-.739 1.773-1.562 2.337-.698.478-1.392.67-2.29.632-.408-.017-.557-.042-.89-.15a5.708 5.708 0 0 1-.64-.25c-.982-.49-1.727-1.491-1.96-2.631-.093-.453-.065-1.247.058-1.679.118-.412.44-1.049.682-1.349.416-.515 1.099-1.002 1.707-1.215.446-.156.724-.194 1.333-.18.485.012.638.031.932.119m9.333 2.042c.302.147.39.229 2.183 2.018 1.824 1.821 1.871 1.873 2.02 2.185.147.31.152.333.152.76 0 .401-.01.46-.112.669a1.31 1.31 0 0 1-.268.36c-.085.072-.679.462-1.321.867l-1.167.736-2.396-2.396c-1.318-1.318-2.396-2.415-2.396-2.438 0-.077 1.484-2.395 1.633-2.551.285-.298.525-.389.992-.375.331.01.395.026.68.165M4.399 5.85c-.25.127-.332.288-.332.65 0 .362.082.523.332.65.177.09.187.09 2.081.09s1.904 0 2.081-.09c.25-.127.328-.281.328-.65s-.078-.523-.328-.65c-.177-.09-.187-.09-2.081-.09s-1.904 0-2.081.09m10.473 5.326 2.652 2.648.129 2.225c.135 2.321.136 2.723.007 3.111-.153.46-.583.759-1.357.942-.374.088-9.33 1.138-9.709 1.138-.184 0-.404-.02-.49-.044l-.156-.043 1.604-1.606c.882-.884 1.623-1.658 1.646-1.72a.911.911 0 0 0 .042-.263c0-.294-.372-.698-.69-.75-.315-.051-.352-.021-2.055 1.674-1.783 1.776-1.63 1.671-1.68 1.151-.019-.201.079-1.138.426-4.08.248-2.1.461-3.831.475-3.845.013-.014.195-.011.404.007 1.119.097 2.313-.205 3.22-.813a5.313 5.313 0 0 0 1.856-2.099l.166-.331.429.025.429.026 2.652 2.647" fill-rule="evenodd" fill="#000"/></svg>