<svg width="24" height="24" fill="none" xmlns="http://www.w3.org/2000/svg"><path d="M11.36 1.264a1.79 1.79 0 0 0-1.339.85c-.124.202-.22.492-.221.67 0 .124 0 .124-.43.236-2.447.642-4.415 2.239-5.501 4.462a8.322 8.322 0 0 0-.791 2.585l-.048.366-.18.045a1.752 1.752 0 0 0-.81.477 1.655 1.655 0 0 0-.481.907c-.05.306-.05 1.288 0 1.593.118.72.706 1.308 1.426 1.426.361.059 1.352.047 1.672-.021.515-.109.956-.47 1.199-.98l.124-.26.013-.864c.01-.701 0-.906-.051-1.084a1.797 1.797 0 0 0-1.184-1.176l-.226-.063.055-.347A6.976 6.976 0 0 1 7.4 5.548a8.33 8.33 0 0 1 1.8-.919c.628-.21.633-.211.664-.08.071.301.424.735.771.95.336.208.513.239 1.385.239s1.049-.031 1.385-.239c.346-.214.7-.649.77-.946l.025-.108.27.075c2.556.712 4.524 2.928 4.943 5.566l.055.347-.226.063a1.797 1.797 0 0 0-1.184 1.176c-.051.178-.061.383-.051 1.084l.013.864.129.272c.242.511.746.902 1.273.989.306.05 1.288.05 1.593 0a1.752 1.752 0 0 0 1.426-1.426c.059-.361.047-1.352-.021-1.672a1.766 1.766 0 0 0-1.27-1.305l-.18-.045-.048-.366c-.357-2.725-2.095-5.164-4.562-6.405-.586-.295-1.156-.5-1.95-.702-.156-.039-.17-.054-.17-.172-.001-.309-.24-.789-.525-1.053a1.926 1.926 0 0 0-.669-.4c-.184-.059-1.374-.108-1.686-.071m1.327 1.562c.065.059.073.136.073.667 0 .503-.011.613-.066.674-.059.065-.136.073-.667.073-.503 0-.613-.011-.674-.066-.065-.059-.073-.136-.073-.667 0-.503.011-.613.066-.674.059-.065.136-.073.667-.073.503 0 .613.011.674.066m-.974 7.18c-.459.057-.92.288-1.239.622-.186.194-3.264 4.103-3.469 4.405-.465.686-.602 1.334-.404 1.909.175.51.422.791 1.669 1.897.357.317.65.599.65.627 0 .027-.063.325-.141.662-.078.337-.158.73-.179.875-.128.893.447 1.774 1.392 2.128.217.082.309.087 1.865.1 1.106.009 1.724-.001 1.908-.032a2.051 2.051 0 0 0 1.62-1.459c.091-.335.066-.669-.106-1.44-.089-.396-.17-.75-.182-.787-.015-.049.218-.28.851-.845 1.15-1.027 1.425-1.394 1.537-2.048.08-.473-.076-1.017-.455-1.581-.245-.366-3.328-4.259-3.532-4.46-.449-.443-1.114-.657-1.785-.573M4.44 12c.073.073.08.133.08.674 0 .783.038.746-.763.746-.78 0-.737.043-.737-.737 0-.801-.037-.763.746-.763.541 0 .601.007.674.08m16.464.004c.068.075.076.15.076.679 0 .78.043.737-.737.737-.801 0-.763.037-.763-.746 0-.541.007-.601.08-.674.073-.073.133-.08.674-.08.553 0 .599.006.67.084m-9.522 2.101c.169.226.279.275.611.275.359 0 .536-.08.666-.301.074-.126.083-.227.101-1.094l.02-.954 1.479 1.874c.813 1.031 1.537 1.973 1.61 2.093.17.282.17.434.002.669-.071.098-.531.538-1.021.976l-.893.797h-3.885l-.866-.774c-1.236-1.105-1.275-1.154-1.151-1.478.077-.2.143-.288 1.863-2.468l1.342-1.7.02.987c.019.918.026.995.102 1.098m2.431 6.485c.082.369.149.703.148.744-.002.112-.245.332-.423.382-.1.028-.654.044-1.518.044s-1.418-.016-1.518-.044c-.224-.062-.422-.271-.422-.444 0-.112.188-1.023.265-1.282.019-.065.133-.07 1.67-.07h1.65l.148.67" fill-rule="evenodd" fill="#000"/></svg>