<svg width="24" height="24" fill="none" xmlns="http://www.w3.org/2000/svg"><path d="M5.661 1.284c-1.069.113-2.011.761-2.555 1.759-.364.669-.461 1.607-.25 2.422.2.77.787 1.542 1.504 1.975.903.546 2.153.609 3.116.159.787-.369 1.487-1.158 1.743-1.965a3.766 3.766 0 0 0 .001-2.107c-.297-.936-1.171-1.809-2.106-2.106-.234-.074-1.093-.208-1.128-.176-.003.003-.15.021-.325.039m11.844 0a3.238 3.238 0 0 0-2.364 1.456c-.384.582-.54 1.114-.54 1.84 0 .96.314 1.711.994 2.38.68.67 1.574.998 2.545.933.802-.053 1.46-.345 2.055-.911.453-.431.726-.877.91-1.49.093-.308.107-.422.107-.912.001-.446-.016-.623-.083-.866a3.48 3.48 0 0 0-1.82-2.156c-.51-.238-1.179-.34-1.804-.274M6.845 2.929c.38.188.707.52.885.899.109.233.13.327.143.658.023.566-.105.924-.476 1.33-.96 1.05-2.696.628-3.098-.752A1.924 1.924 0 0 1 4.39 3.83c.144-.308.461-.666.729-.823.346-.203.544-.25 1.004-.237.396.01.442.02.722.159m11.805-.02c.291.137.659.454.819.706.428.674.334 1.583-.228 2.196-.36.394-.805.589-1.341.589-1.196 0-2.061-1.133-1.758-2.302.126-.489.531-.968.998-1.181.315-.143.368-.152.84-.143.357.007.429.022.67.135m-7.383 5.872c-1.28.243-2.352 1.3-2.609 2.576-.082.404-.062 1.204.038 1.583.166.627.665 1.36 1.194 1.755.607.453 1.093.625 1.853.655 1.026.04 1.741-.22 2.453-.892.454-.428.763-.947.93-1.562.123-.45.122-1.263 0-1.714-.305-1.12-1.242-2.056-2.348-2.344-.422-.11-1.098-.135-1.511-.057m-6.227.037c-1.489.233-2.658.836-3.263 1.684-.349.489-.503.948-.502 1.497 0 .536.1.886.383 1.34.795 1.276 2.83 2.074 4.843 1.901.692-.06.878-.104 1.042-.248.189-.166.243-.367.184-.683-.049-.263-.123-.393-.303-.527-.122-.091-.268-.096-1.024-.036a5.536 5.536 0 0 1-1.694-.128 3.498 3.498 0 0 1-1.214-.526c-.506-.331-.695-.603-.724-1.042a.715.715 0 0 1 .089-.467c.441-.902 2.205-1.498 3.814-1.29.648.083.847.023 1.007-.31.118-.243.125-.666.014-.815-.134-.18-.283-.261-.581-.318-.413-.079-1.649-.097-2.071-.032m12.004.005c-.433.063-.627.15-.754.336-.189.279-.07.908.205 1.078.171.105.317.112.942.046 1.884-.201 3.763.655 3.768 1.717.002.427-.222.765-.731 1.104-.741.492-1.821.73-2.914.642-.749-.06-.902-.055-1.027.036-.177.129-.297.407-.298.694-.003.607.391.778 1.785.775 1.438-.004 2.689-.4 3.613-1.146 1.291-1.041 1.426-2.704.316-3.89-1.012-1.082-3.053-1.661-4.905-1.392m-4.579 1.479c.437.122.91.544 1.12.999.164.355.19.91.063 1.32-.115.373-.454.792-.814 1.007a1.823 1.823 0 0 1-2.213-.289c-.694-.694-.724-1.808-.067-2.51.518-.554 1.172-.734 1.911-.527m-1.085 5.961-.46.062c-1.08.145-2.225.688-2.85 1.35-1.159 1.229-1.006 2.871.37 3.97.339.27 1.182.701 1.62.828a7.09 7.09 0 0 0 2.455.249c.917-.07 1.469-.215 2.225-.584.848-.415 1.384-.907 1.706-1.567.89-1.829-.577-3.747-3.236-4.232-.331-.06-1.566-.112-1.83-.076m1.208 1.5c1.172.131 2.196.654 2.516 1.285.215.424.093.927-.313 1.292-.648.583-1.631.9-2.791.9-.655 0-1.161-.079-1.674-.262-.966-.345-1.535-.896-1.533-1.487.001-.301.086-.493.335-.756.699-.739 2.078-1.126 3.46-.972" fill-rule="evenodd" fill="#000"/></svg>