<svg width="24" height="24" fill="none" xmlns="http://www.w3.org/2000/svg"><path d="M8.08 1.282c-4.072.213-6.185 2.014-6.697 5.709-.113.812-.141 1.825-.141 5.009 0 4.504.06 5.273.518 6.65.772 2.313 2.446 3.576 5.267 3.972.759.106 1.875.137 4.973.137s4.214-.031 4.973-.137c2.47-.347 4.023-1.334 4.924-3.132.482-.96.741-2.121.823-3.683.051-.969.051-6.645 0-7.614-.063-1.195-.199-2.002-.478-2.837-.61-1.825-1.773-2.989-3.592-3.596-.862-.287-1.627-.416-2.844-.48-.854-.045-6.854-.043-7.726.002m8.72 1.572c2.786.462 3.914 1.6 4.348 4.386.066.421.072.824.072 4.76s-.006 4.339-.072 4.76c-.436 2.798-1.59 3.952-4.388 4.388-.421.066-.824.072-4.76.072s-4.339-.006-4.76-.072c-2.79-.435-3.957-1.597-4.386-4.368-.069-.445-.074-.791-.074-4.78 0-4.753-.004-4.663.264-5.712C3.557 4.282 4.722 3.274 6.96 2.9c.73-.123 1.088-.131 5.24-.123 3.763.007 4.222.014 4.6.077M8.511 7.222c-.34.083-.619.24-.895.505a1.939 1.939 0 0 0 0 2.826c.282.271.554.422.913.507a1.93 1.93 0 0 0 1.864-.556c.271-.282.422-.554.507-.913.157-.667-.023-1.311-.507-1.815a1.947 1.947 0 0 0-1.882-.554m6.309.804c-.176.091-6.851 6.766-6.943 6.942-.091.175-.1.432-.02.584.065.125.323.378.45.443.134.069.4.054.565-.032.184-.097 6.856-6.774 6.944-6.951.079-.159.083-.421.007-.564a1.557 1.557 0 0 0-.45-.443c-.124-.064-.412-.053-.553.021m-5.58.728a.686.686 0 0 1 .173.218c.061.122.066.171.029.282a.557.557 0 0 1-.353.349c-.105.037-.153.031-.276-.029-.406-.202-.411-.658-.01-.865.151-.078.281-.065.437.045m5.86 4.173c-.551.105-1.089.534-1.36 1.083-.137.28-.154.348-.171.705-.032.664.133 1.11.57 1.545.77.765 1.993.765 2.761 0 .406-.404.579-.823.579-1.4s-.173-.996-.579-1.4c-.475-.474-1.116-.663-1.8-.533m.672 1.521c.107.055.228.275.228.416a.52.52 0 0 1-.331.445.46.46 0 0 1-.538-.185c-.283-.421.182-.912.641-.676" fill-rule="evenodd" fill="#000"/></svg>