<svg width="24" height="24" fill="none" xmlns="http://www.w3.org/2000/svg"><path d="M6.009 2.282c-1.407.079-2.307.315-3.038.797-.984.648-1.47 1.657-1.658 3.441-.077.723-.077 10.236 0 10.96.156 1.476.499 2.371 1.168 3.039.668.669 1.563 1.012 3.039 1.168.727.077 12.233.077 12.96 0 1.476-.156 2.371-.499 3.039-1.168.669-.668 1.012-1.563 1.168-3.039.077-.724.077-10.236 0-10.96-.155-1.475-.499-2.37-1.167-3.039-.65-.651-1.507-.989-2.96-1.166-.453-.055-11.639-.085-12.551-.033M18.92 3.867c.713.139 1.19.339 1.515.634.324.294.579.896.711 1.679.069.413.074.77.074 5.82 0 5.029-.005 5.408-.073 5.815-.136.804-.342 1.297-.689 1.643-.346.347-.839.553-1.643.689-.409.069-.817.073-6.815.073-6.023 0-6.405-.004-6.82-.074-.74-.125-1.276-.339-1.615-.647-.324-.294-.579-.896-.711-1.679-.069-.413-.074-.77-.074-5.82 0-5.05.005-5.407.074-5.82.187-1.114.525-1.675 1.205-2 .426-.204.756-.28 1.721-.395.066-.008 2.955-.011 6.42-.007 6.176.007 6.308.009 6.72.089M7.94 6.986c-.468.099-.832.305-1.225.693-.284.281-.373.401-.506.681-.196.411-.249.652-.249 1.12 0 .467.054.71.245 1.111.287.602.86 1.106 1.495 1.317.275.091.387.106.8.106.413 0 .525-.015.8-.106a2.626 2.626 0 0 0 1.495-1.317c.191-.401.245-.644.245-1.111 0-.468-.053-.709-.249-1.12-.216-.456-.703-.95-1.151-1.168a2.62 2.62 0 0 0-1.7-.206m5.847.292c-.342.068-.519.314-.519.722 0 .462.207.692.663.74.137.014 1.392.02 2.789.013 2.456-.013 2.544-.016 2.676-.093.273-.161.396-.478.327-.845a.646.646 0 0 0-.327-.475c-.132-.078-.214-.08-2.796-.086-1.463-.004-2.729.007-2.813.024m-4.91 1.211c.193.059.479.336.589.571.185.397.086.865-.251 1.188a.958.958 0 0 1-.715.282.958.958 0 0 1-.715-.282c-.444-.425-.458-1.06-.033-1.501.305-.317.665-.399 1.125-.258m5.91 2.789c-.342.068-.519.314-.519.722 0 .462.207.692.663.74.137.014 1.167.02 2.289.013 1.956-.012 2.046-.016 2.176-.093a.646.646 0 0 0 .327-.475c.069-.367-.054-.684-.327-.845-.131-.077-.214-.08-2.296-.086-1.188-.004-2.229.007-2.313.024M7.46 12.896c-.858.14-1.505.467-2.103 1.062a3.58 3.58 0 0 0-.999 1.742c-.117.468-.123.872-.017 1.054.165.28.682.408 1.029.254.229-.101.287-.208.391-.718.112-.554.301-.918.657-1.269.49-.483.935-.651 1.826-.689.644-.028 1.212.033 1.553.167.762.299 1.274.933 1.438 1.781.096.501.164.626.395.728.347.154.864.026 1.029-.254.106-.182.1-.586-.017-1.054-.172-.683-.481-1.224-.999-1.745a3.703 3.703 0 0 0-1.861-1.022c-.394-.083-1.896-.107-2.322-.037m9.327 2.381c-.343.07-.519.315-.519.723 0 .461.207.692.663.741.137.014.717.02 1.289.013.954-.013 1.051-.021 1.176-.094a.646.646 0 0 0 .327-.475c.069-.367-.054-.684-.327-.845-.127-.075-.215-.08-1.296-.087-.638-.004-1.229.007-1.313.024" fill-rule="evenodd" fill="#000"/></svg>