<svg width="24" height="24" fill="none" xmlns="http://www.w3.org/2000/svg"><path d="M9.906 1.799A3.236 3.236 0 0 0 7.56 3.58c-.264.538-.337.909-.31 1.577.016.395.043.572.125.823A3.307 3.307 0 0 0 9.58 8.126c.263.075.42.092.88.093.355.001.64-.02.78-.055a3.33 3.33 0 0 0 2.368-2.312c.126-.446.126-1.258 0-1.704A3.322 3.322 0 0 0 11.3 1.852c-.241-.068-1.124-.102-1.394-.053m.943 1.499a1.78 1.78 0 0 1 1.197.963 1.752 1.752 0 0 1-1.293 2.461c-1.041.176-2.03-.659-2.033-1.716-.002-.946.771-1.728 1.74-1.761.066-.002.241.022.389.053m5.831.724c-.329.071-.837.322-1.114.552A2.74 2.74 0 0 0 14.561 6.7c0 1.058.581 1.987 1.539 2.463 1.349.669 2.983.106 3.663-1.263.56-1.128.257-2.51-.729-3.326A3.074 3.074 0 0 0 17.9 4.02a3.403 3.403 0 0 0-1.22.002m.912 1.464c.448.11.833.513.927.97.177.855-.595 1.633-1.454 1.464-.674-.132-1.133-.814-.987-1.466.154-.695.84-1.133 1.514-.968M3.38 6.019A2.773 2.773 0 0 0 1.349 7.86c-.129.406-.129 1.274 0 1.68.255.804.955 1.51 1.751 1.765a3.212 3.212 0 0 0 1.46.08c.488-.102.922-.346 1.324-.744.59-.585.815-1.119.815-1.941 0-.822-.224-1.354-.817-1.944-.554-.551-1.152-.798-1.922-.792a3.412 3.412 0 0 0-.58.055m1.094 1.543c.218.096.502.358.606.56.171.331.171.825 0 1.157-.106.204-.389.463-.62.567-.275.124-.722.125-.991.004a1.453 1.453 0 0 1-.666-.711c-.318-.849.356-1.753 1.251-1.679.128.011.317.057.42.102m15.975 1.456c-.787.191-1.506.941-1.646 1.719-.144.798.066 1.494.616 2.044.484.484 1.064.697 1.758.646 1.904-.138 2.757-2.454 1.404-3.808-.309-.309-.715-.538-1.093-.615a2.994 2.994 0 0 0-1.039.014m-9.229.264c-1.835.117-3.621.919-5 2.244-.75.722-1.233 1.354-1.674 2.194-.599 1.139-.873 2.221-.876 3.46-.002.735.062 1.156.271 1.803.517 1.593 1.82 2.9 3.439 3.449.9.306 1.41.34 4.72.317 2.711-.019 2.835-.026 3.534-.207 2.17-.563 3.712-2.246 4.108-4.482.071-.406.082-1.368.02-1.806-.372-2.62-2.137-4.966-4.658-6.19-1.257-.611-2.534-.868-3.884-.782m10.051 1.22a.734.734 0 0 1 .413.398c.179.386-.004.827-.413.998a.65.65 0 0 1-.542 0 .745.745 0 0 1-.029-1.382.665.665 0 0 1 .571-.014m-8.391.357c.772.17 1.785.592 2.372.988 1.354.913 2.363 2.217 2.809 3.633.18.571.227.853.247 1.46.017.51.007.663-.066 1.02-.169.82-.513 1.471-1.081 2.045-.553.559-1.11.875-1.958 1.109l-.383.106H11.7c-3.424 0-3.29.008-3.974-.247a4.122 4.122 0 0 1-1.793-1.349c-.24-.317-.547-.959-.65-1.364-.429-1.669.216-3.796 1.602-5.286 1.108-1.191 2.404-1.901 3.935-2.156.436-.073 1.654-.048 2.06.041" fill-rule="evenodd" fill="#000"/></svg>