<svg width="24" height="24" fill="none" xmlns="http://www.w3.org/2000/svg"><path d="M2.787 1.278c-.341.067-.519.314-.519.722 0 .462.207.693.663.739.137.014 4.317.02 9.289.013 8.957-.012 9.041-.013 9.176-.092.273-.161.396-.478.327-.845a.646.646 0 0 0-.327-.475c-.135-.079-.213-.08-9.296-.086-5.038-.003-9.229.008-9.313.024m8.851 2.957c-.232.151-3.09 3.026-3.174 3.193a.813.813 0 0 0-.064.303c0 .307.307.659.668.767a.636.636 0 0 0 .26-.02c.147-.039.3-.173 1.042-.91l.87-.864v10.195l-.83-.825c-.456-.455-.888-.855-.958-.89-.158-.079-.421-.083-.564-.007a1.557 1.557 0 0 0-.443.45c-.069.134-.054.4.032.565.042.081.776.844 1.63 1.694 1.359 1.354 1.574 1.553 1.723 1.592.37.098.352.112 2.063-1.592.854-.85 1.588-1.613 1.63-1.694.086-.165.101-.431.032-.565a1.557 1.557 0 0 0-.443-.45c-.143-.076-.406-.072-.564.007-.07.035-.501.435-.958.89l-.83.825V6.704l.87.864c.742.737.895.871 1.042.91a.636.636 0 0 0 .26.02c.361-.108.668-.46.668-.767a.794.794 0 0 0-.065-.303c-.082-.163-2.936-3.033-3.172-3.19-.241-.161-.48-.162-.725-.003M2.787 21.278c-.341.067-.519.314-.519.722 0 .462.207.693.663.739.137.014 4.317.02 9.289.013 8.957-.012 9.041-.013 9.176-.092.273-.161.396-.478.327-.845a.646.646 0 0 0-.327-.475c-.135-.079-.213-.08-9.296-.086-5.038-.003-9.229.008-9.313.024" fill-rule="evenodd" fill="#000"/></svg>