<svg width="24" height="24" fill="none" xmlns="http://www.w3.org/2000/svg"><path d="M8.08 1.282c-4.072.213-6.185 2.014-6.697 5.709-.113.812-.141 1.825-.141 5.009 0 4.504.06 5.273.518 6.65.772 2.313 2.446 3.576 5.267 3.972.759.106 1.875.137 4.973.137s4.214-.031 4.973-.137c2.47-.347 4.023-1.334 4.924-3.132.482-.96.741-2.121.823-3.683.051-.969.051-6.645 0-7.614-.063-1.195-.199-2.002-.478-2.837-.61-1.825-1.773-2.989-3.592-3.596-.862-.287-1.627-.416-2.844-.48-.854-.045-6.854-.043-7.726.002M9.515 7.19c.603 2.437 1.103 4.448 1.111 4.471.009.023-1.666.531-3.875 1.175a960.41 960.41 0 0 0-3.943 1.154c-.043.017-.05-.552-.038-3.175.014-2.779.024-3.25.084-3.615.351-2.149 1.104-3.264 2.626-3.892.718-.297 1.837-.518 2.74-.543l.2-.005 1.095 4.43M16.8 2.855c2.782.458 3.914 1.599 4.348 4.385.066.421.072.824.072 4.76 0 4.745.006 4.622-.26 5.688-.456 1.832-1.441 2.816-3.272 3.272-.741.184-1.233.243-2.233.268l-.925.023-.284-1.155c-.156-.636-.678-2.749-1.16-4.696l-1.984-8.02c-.609-2.464-1.116-4.513-1.128-4.552-.02-.07.107-.072 3.193-.058 2.808.014 3.266.024 3.633.085M11.88 16.75l1 4.043.113.452-2.687-.015c-2.932-.018-2.997-.022-3.994-.27-1.823-.454-2.802-1.427-3.268-3.248a8.656 8.656 0 0 1-.254-1.767l-.01-.394 4.08-1.193a821.747 821.747 0 0 1 4.106-1.196c.014-.001.426 1.613.914 3.588" fill-rule="evenodd" fill="#000"/></svg>