<svg width="24" height="24" fill="none" xmlns="http://www.w3.org/2000/svg"><path d="M11.52 1.265c-2.341.116-4.483.921-6.298 2.37-1.539 1.227-2.816 3.073-3.441 4.973A10.203 10.203 0 0 0 1.24 12c0 1.231.16 2.237.541 3.392 1.187 3.608 4.227 6.32 7.983 7.124.959.205 2.426.276 3.396.164 4.275-.491 7.853-3.466 9.093-7.56.318-1.049.444-1.934.444-3.12 0-1.186-.126-2.071-.444-3.12-1.044-3.445-3.746-6.129-7.229-7.179-1.057-.318-2.426-.489-3.504-.436m1.562 1.552a9.27 9.27 0 0 1 7.578 6.001c.364.983.548 2.04.55 3.162a8.875 8.875 0 0 1-.449 2.901 9.267 9.267 0 0 1-7.833 6.321c-.633.068-1.891.03-2.488-.076-2.035-.362-3.743-1.274-5.161-2.754-3.409-3.558-3.412-9.184-.007-12.737 1.18-1.232 2.561-2.073 4.157-2.532.43-.124 1.234-.279 1.631-.315.434-.039 1.607-.023 2.022.029M10 7.54c-.806.182-1.488.816-1.781 1.656-.202.578-.219.811-.219 3.044s.017 2.466.219 3.044c.386 1.105 1.356 1.771 2.481 1.702.772-.047 1.081-.179 2.92-1.245 2.089-1.211 2.107-1.222 2.54-1.66.73-.738.984-1.545.761-2.419-.126-.492-.327-.824-.761-1.263-.438-.442-.507-.487-2.54-1.662-1.46-.844-1.833-1.031-2.3-1.154-.365-.095-.997-.116-1.32-.043m.822 1.464c.354.065.615.198 2.335 1.188 1.47.846 1.6.93 1.904 1.228.445.435.536.696.393 1.123-.051.152-.14.27-.393.517-.304.298-.434.382-1.904 1.228-.868.5-1.696.962-1.839 1.027-.949.43-1.593.118-1.781-.862-.083-.434-.083-3.991 0-4.426.124-.645.482-1.039.966-1.063.045-.002.189.016.319.04" fill-rule="evenodd" fill="#000"/></svg>