<svg width="24" height="24" fill="none" xmlns="http://www.w3.org/2000/svg"><path d="M11.32 1.281c-2.061.117-4.07.861-5.79 2.143-.618.46-1.646 1.488-2.106 2.106-1.549 2.078-2.288 4.52-2.143 7.08.121 2.149.837 4.107 2.143 5.86.456.613 1.485 1.641 2.106 2.105 2.063 1.541 4.525 2.29 7.056 2.145.92-.053 1.769-.205 2.634-.472l.24-.074.295.273a4.703 4.703 0 0 0 3.673 1.269c.949-.082 1.649-.356 2.444-.955 1.921-1.447 2.433-4.137 1.182-6.213a5.432 5.432 0 0 0-.726-.923l-.161-.154.077-.222c.238-.692.423-1.723.476-2.642.144-2.556-.598-5.005-2.145-7.077-.46-.617-1.488-1.645-2.105-2.105a10.75 10.75 0 0 0-4.728-2.027c-.408-.067-1.668-.169-1.862-.151l-.56.034m1.826 1.541a9.332 9.332 0 0 1 4.473 1.831c.409.309 1.233 1.112 1.568 1.527a9.428 9.428 0 0 1 2.016 4.856c.106.937-.002 2.381-.247 3.29l-.082.306-.228-.09c-1.103-.432-2.5-.384-3.603.123a4.89 4.89 0 0 0-2.283 2.207c-.367.733-.495 1.297-.494 2.168.001.62.054.953.239 1.504.056.166.093.312.081.323-.038.038-.603.176-1.066.259-.582.105-1.88.145-2.484.077a9.428 9.428 0 0 1-4.856-2.016c-.415-.335-1.218-1.159-1.527-1.568-.801-1.059-1.425-2.397-1.688-3.621a9.746 9.746 0 0 1 .001-3.996c.283-1.314.97-2.737 1.847-3.822.335-.415 1.159-1.218 1.568-1.527a9.388 9.388 0 0 1 4.439-1.83c.56-.077 1.749-.077 2.326-.001m-2.666 5.14c-.121.021-.366.11-.545.197-.534.263-.902.694-1.116 1.309-.17.488-.185.729-.169 2.698.014 1.788.018 1.865.105 2.153.45 1.489 1.763 2.092 3.235 1.485.293-.121 2.748-1.518 3.176-1.807.847-.573 1.281-1.442 1.154-2.306-.072-.49-.293-.907-.694-1.311a4.16 4.16 0 0 0-.557-.474c-.46-.291-2.696-1.563-2.969-1.69-.52-.24-1.138-.337-1.62-.254m.92 1.578c.284.115 2.755 1.538 3.028 1.743.525.395.556.923.079 1.342-.179.157-2.657 1.604-3.074 1.794-.677.31-1.137.079-1.269-.638-.056-.303-.059-3.289-.004-3.586.133-.706.558-.931 1.24-.655m8.232 6.283c1.068.22 1.975.97 2.372 1.961.169.421.235.768.235 1.236 0 .525-.101.927-.367 1.46a2.358 2.358 0 0 1-.551.765c-.686.695-1.387.996-2.314.994-1.098-.002-2.036-.498-2.659-1.405a3.13 3.13 0 0 1-.575-2.014c.028-.477.101-.768.305-1.205a3.261 3.261 0 0 1 1.859-1.682c.476-.172 1.172-.217 1.695-.11m-1.997 1.417c-.253.134-.475.462-.475.703 0 .186.126.378.466.709l.332.325-.357.364c-.38.388-.441.49-.441.744 0 .194.045.288.235.488.188.198.322.267.525.267.236 0 .418-.112.778-.476l.317-.321.368.356c.38.367.589.478.789.419.361-.108.668-.46.668-.767 0-.242-.082-.38-.445-.753l-.313-.322.302-.298c.456-.45.541-.674.377-.995-.099-.196-.373-.431-.568-.49-.237-.071-.465.039-.851.409l-.323.31-.309-.296a4.124 4.124 0 0 0-.439-.376c-.167-.102-.444-.101-.636 0" fill-rule="evenodd" fill="#000"/></svg>