<svg width="24" height="24" fill="none" xmlns="http://www.w3.org/2000/svg"><path d="M7.28 2.765c-1.413.161-2.616 1.028-3.315 2.39-.394.767-.612 1.617-.683 2.672-.053.773-.053 7.573 0 8.346.137 2.022.9 3.549 2.198 4.404 1.415.932 3.331.913 5.28-.053.502-.248 6.608-3.758 7.16-4.114.815-.527 1.468-1.128 1.93-1.776 1.688-2.367.97-5.122-1.816-6.965-.575-.381-6.659-3.889-7.274-4.194-1.182-.588-2.393-.835-3.48-.71m1.326 1.532a6.05 6.05 0 0 1 1.374.46c.414.196 6.861 3.894 7.272 4.172.349.236.904.714 1.118.965.599.698.878 1.367.878 2.106 0 .735-.282 1.411-.878 2.107-.254.297-.87.808-1.289 1.071-.714.447-6.72 3.885-7.101 4.064-.827.391-1.477.538-2.237.506-.798-.032-1.283-.224-1.797-.708-.601-.565-.966-1.349-1.124-2.413-.093-.624-.093-8.63 0-9.254.159-1.073.519-1.844 1.13-2.42a2.763 2.763 0 0 1 1.208-.651c.343-.073 1.079-.076 1.446-.005" fill-rule="evenodd" fill="#000"/></svg>