<svg width="24" height="24" fill="none" xmlns="http://www.w3.org/2000/svg"><path d="M11.32 1.281c-2.061.117-4.07.861-5.79 2.143-.618.46-1.646 1.488-2.106 2.106-1.549 2.078-2.288 4.52-2.143 7.08.121 2.149.837 4.107 2.143 5.86.456.613 1.485 1.641 2.106 2.105 2.063 1.541 4.525 2.29 7.056 2.145a10.88 10.88 0 0 0 2.64-.474l.246-.076.194.2c.498.514 1.373 1.018 2.102 1.211 1.182.312 2.524.149 3.521-.428 2.286-1.322 3.101-4.059 1.899-6.372a4.958 4.958 0 0 0-.819-1.116l-.201-.195.076-.221c.238-.692.423-1.723.476-2.642.144-2.556-.598-5.005-2.145-7.077-.46-.617-1.488-1.645-2.105-2.105a10.75 10.75 0 0 0-4.728-2.027c-.408-.067-1.668-.169-1.862-.151l-.56.034m1.826 1.541a9.332 9.332 0 0 1 4.473 1.831c.409.309 1.233 1.112 1.568 1.527a9.428 9.428 0 0 1 2.016 4.856c.106.937-.002 2.381-.247 3.29l-.082.306-.228-.09c-1.101-.431-2.502-.383-3.603.123a4.89 4.89 0 0 0-2.283 2.207c-.367.733-.495 1.297-.494 2.168.001.62.054.953.239 1.504.056.166.093.312.081.323-.038.038-.603.176-1.066.259-.582.105-1.88.145-2.484.077a9.428 9.428 0 0 1-4.856-2.016c-.415-.335-1.218-1.159-1.527-1.568-.801-1.059-1.425-2.397-1.688-3.621a9.746 9.746 0 0 1 .001-3.996c.283-1.314.97-2.737 1.847-3.822.335-.415 1.159-1.218 1.568-1.527a9.388 9.388 0 0 1 4.439-1.83c.56-.077 1.749-.077 2.326-.001m-2.666 5.14c-.121.021-.366.11-.545.197-.534.263-.902.694-1.116 1.309-.17.488-.185.729-.169 2.698.014 1.788.018 1.865.105 2.153.45 1.489 1.763 2.092 3.235 1.485.293-.121 2.748-1.518 3.176-1.807.847-.573 1.281-1.442 1.154-2.306-.072-.49-.293-.907-.694-1.311a4.16 4.16 0 0 0-.557-.474c-.46-.291-2.696-1.563-2.969-1.69-.52-.24-1.138-.337-1.62-.254m.92 1.578c.284.115 2.755 1.538 3.028 1.743.525.395.556.923.079 1.342-.179.157-2.657 1.604-3.074 1.794-.677.31-1.137.079-1.269-.638-.056-.303-.059-3.289-.004-3.586.133-.706.558-.931 1.24-.655m8.42 6.318c.307.083.751.292 1.048.494.33.224.778.712.969 1.055.272.488.37.851.392 1.453.024.654-.055 1.015-.357 1.62-.176.352-.265.476-.551.765-.692.701-1.384.995-2.337.995-1.834 0-3.316-1.579-3.211-3.42.028-.477.101-.768.305-1.205a3.236 3.236 0 0 1 2.282-1.797c.332-.071 1.131-.049 1.46.04m-1.033.94a.65.65 0 0 0-.443.321c-.06.102-.081.234-.096.622l-.019.491-.531.014c-.466.012-.546.025-.645.098-.197.147-.273.324-.273.636s.076.489.273.636c.099.073.179.086.645.098l.532.014.018.53c.019.579.063.712.285.878.095.071.169.084.467.084.298 0 .372-.013.467-.084.222-.166.266-.299.285-.878l.018-.53.532-.014c.466-.012.546-.025.645-.098.197-.147.273-.324.273-.636s-.076-.489-.273-.636c-.099-.074-.179-.086-.65-.098l-.537-.014-.002-.366c-.003-.617-.081-.844-.342-.992-.144-.081-.427-.115-.629-.076" fill-rule="evenodd" fill="#000"/></svg>