<svg width="24" height="24" fill="none" xmlns="http://www.w3.org/2000/svg"><path d="M1.787 1.278c-.341.067-.519.314-.519.722 0 .473.207.695.694.743l.276.027.013 6.005c.012 5.364.021 6.036.079 6.291.329 1.45 1.131 2.257 2.57 2.584.342.078.513.083 3.35.099l2.99.017v1.775l-1.763.879c-1.888.942-2.045 1.03-2.161 1.206-.182.276-.016.843.31 1.058a.592.592 0 0 0 .321.076c.19 0 .362-.077 2.13-.959l1.923-.96 1.923.96c1.768.882 1.94.959 2.13.959a.592.592 0 0 0 .321-.076c.326-.215.492-.782.31-1.058-.116-.176-.273-.264-2.161-1.206l-1.763-.879V17.76l2.65-.001c1.457 0 2.857-.017 3.11-.039 1.643-.136 2.675-.953 3.086-2.44l.093-.34.012-6.084.011-6.085.287-.026c.442-.041.647-.202.714-.56.069-.367-.054-.684-.327-.845-.135-.079-.213-.08-10.296-.086-5.588-.003-10.229.008-10.313.024M20.23 8.75c-.013 6.625.007 6.124-.272 6.648a1.39 1.39 0 0 1-.665.628c-.47.22-.215.213-7.317.213-6.409.001-6.57-.001-6.873-.078-.711-.182-1.095-.566-1.292-1.29-.062-.23-.069-.752-.081-6.181l-.013-5.93h16.525l-.012 5.99m-3.878-1.51c-.162.048-.25.118-1.815 1.425l-1.443 1.206-.544-.906c-.299-.498-.606-.977-.682-1.065-.346-.402-1.027-.514-1.482-.244-.142.084-2.923 2.378-3.357 2.77-.409.368-.414.712-.015 1.125.268.279.553.306.873.083.075-.052.785-.636 1.578-1.299l1.442-1.205.516.863c.621 1.038.753 1.212 1.028 1.356.185.098.252.111.589.111.341 0 .399-.011.56-.107.183-.109 3.077-2.502 3.393-2.806.214-.206.287-.34.287-.527 0-.282-.322-.7-.602-.781-.156-.044-.177-.044-.326.001" fill-rule="evenodd" fill="#000"/></svg>