<svg width="24" height="24" fill="none" xmlns="http://www.w3.org/2000/svg"><path d="M17.1 3.977a3.583 3.583 0 0 0-.902.304c-.386.196-8.442 4.854-8.718 5.04a3.648 3.648 0 0 0-.489.433 3.276 3.276 0 0 0 .549 4.965c.253.17 2.18 1.29 6.812 3.958 2.343 1.35 2.425 1.384 3.328 1.382.744-.001 1.219-.135 1.781-.502a3.226 3.226 0 0 0 1.336-1.686c.187-.512.183-.392.183-5.911V6.74l-.09-.317c-.276-.971-.846-1.685-1.697-2.124a3.935 3.935 0 0 0-.662-.263c-.405-.105-1.063-.132-1.431-.059M3.359 5.17a.67.67 0 0 0-.258.23c-.08.139-.081.188-.081 6.6s.001 6.461.081 6.6c.245.424 1.073.424 1.318 0 .08-.139.081-.188.081-6.6s-.001-6.461-.081-6.6c-.111-.193-.373-.32-.659-.32a.86.86 0 0 0-.401.09m14.873.331c.461.137.949.587 1.134 1.045l.094.234v10.48l-.127.27c-.407.861-1.434 1.285-2.281.941-.127-.052-1.024-.551-1.992-1.109-5.033-2.901-6.617-3.824-6.789-3.953-.465-.353-.692-.868-.664-1.507.015-.332.033-.406.165-.673.243-.493.385-.597 2.411-1.767 6.97-4.025 6.816-3.939 7.197-4.023.202-.044.589-.016.852.062" fill-rule="evenodd" fill="#000"/></svg>