<svg width="24" height="24" fill="none" xmlns="http://www.w3.org/2000/svg"><path d="M21.8 1.245c-.108.032-.616.516-2.23 2.127l-2.09 2.086v-.519c-.001-2.324-1.033-3.487-3.247-3.659-.639-.05-3.827-.05-4.466 0-1.634.127-2.604.784-3.026 2.05-.166.5-.221.99-.221 1.994v.904l-.59.029a9.586 9.586 0 0 0-.919.086c-1.202.209-2.098.935-2.494 2.019-.254.697-.257.74-.257 4.138 0 3.401.002 3.441.259 4.143.293.803.945 1.494 1.681 1.78.099.039.188.077.198.085.01.008-.686.72-1.547 1.583-1.37 1.375-1.57 1.59-1.609 1.739-.067.254.002.458.236.692.234.234.438.303.692.236.196-.052-.488.626 12.417-12.287 7.345-7.349 8.131-8.147 8.172-8.302.134-.512-.448-1.072-.959-.924m-6.902 1.647c.528.187.78.428.938.897.129.381.162.717.163 1.621l.001.83H8l.001-.83c.001-.904.034-1.24.163-1.621.186-.553.599-.867 1.297-.987.109-.019 1.306-.032 2.659-.028l2.46.006.318.112m4.842 3.887c-.281.1-.54.471-.54.775 0 .236.054.325.382.621.339.308.502.594.597 1.058.088.424.089 6.126.002 6.54-.165.779-.628 1.244-1.401 1.407-.197.041-.538.059-1.15.059l-.87.001v-1.47l.277-.027c.488-.048.695-.269.695-.743 0-.462-.207-.693-.663-.739-.137-.014-1.176-.02-2.309-.013-1.976.011-2.066.015-2.196.092-.251.148-.304.262-.304.66s.053.512.304.66c.127.075.22.081 1.406.092l1.27.012-.001 1.868c0 1.476-.013 1.925-.058 2.141-.165.779-.628 1.244-1.401 1.407-.399.084-3.156.085-3.551.001-.416-.088-.72-.242-.943-.479-.245-.258-.333-.429-.465-.9a2.745 2.745 0 0 0-.165-.463c-.105-.16-.315-.231-.619-.209-.62.044-.824.391-.645 1.094.121.477.232.741.451 1.076.472.724 1.177 1.165 2.184 1.367.517.104 3.371.106 3.921.003.779-.146 1.393-.456 1.856-.937.593-.617.864-1.352.937-2.537l.026-.424.926-.024c.556-.014 1.067-.048 1.276-.086 1.229-.219 2.116-.933 2.514-2.023.241-.66.245-.724.265-3.695.024-3.424-.009-3.918-.307-4.712-.129-.346-.434-.783-.744-1.066-.423-.388-.671-.488-.957-.387m-9.3 5.721c-3.785 3.785-4.76 4.74-4.84 4.739-.055 0-.226-.027-.38-.059-.773-.163-1.236-.628-1.401-1.407-.085-.404-.085-6.142 0-6.546.163-.77.626-1.241 1.381-1.404.215-.047 1.101-.057 5.12-.06l4.86-.003-4.74 4.74m-3.653-2.223c-.343.07-.519.315-.519.723 0 .461.207.692.663.741.137.014.717.02 1.289.013.954-.013 1.051-.021 1.176-.094.273-.161.396-.478.327-.845a.646.646 0 0 0-.327-.475c-.127-.075-.215-.08-1.296-.087-.638-.004-1.229.007-1.313.024" fill-rule="evenodd" fill="#000"/></svg>