<svg width="24" height="24" fill="none" xmlns="http://www.w3.org/2000/svg"><path d="M9.697 1.282c-1.824.141-2.863 1.057-3.118 2.748-.038.255-.059.703-.059 1.294v.904l-.59.029c-.718.035-1.145.106-1.569.26-1.096.4-1.792 1.269-2.031 2.535-.063.33-.07.689-.07 3.448 0 3.398.003 3.441.257 4.138.398 1.091 1.284 1.805 2.514 2.024.209.038.72.072 1.276.086l.926.024.026.424c.075 1.227.374 1.999 1.008 2.607.474.454 1.034.726 1.785.866.542.102 3.354.102 3.896 0 .751-.14 1.311-.412 1.785-.866.634-.608.933-1.38 1.008-2.607l.026-.424.926-.024c.556-.014 1.067-.048 1.276-.086 1.23-.219 2.116-.933 2.514-2.024.254-.697.257-.74.257-4.138 0-2.759-.007-3.118-.07-3.448-.239-1.266-.935-2.135-2.031-2.535-.424-.154-.851-.225-1.569-.26l-.59-.029v-.904c0-1.004-.055-1.494-.221-1.994-.422-1.266-1.392-1.923-3.026-2.05-.576-.045-3.947-.043-4.536.002m5.201 1.61c.528.187.78.428.938.897.129.381.162.717.163 1.621l.001.83H8l.001-.83c.001-.904.034-1.24.163-1.621.186-.553.599-.867 1.297-.987.109-.019 1.306-.032 2.659-.028l2.46.006.318.112m3.875 4.927c.779.165 1.244.628 1.407 1.401.087.415.087 6.145 0 6.56-.163.773-.628 1.236-1.407 1.401-.19.04-.538.058-1.143.058l-.87.001v-1.47l.277-.027c.488-.048.695-.269.695-.743 0-.418-.175-.653-.538-.723-.227-.044-10.161-.044-10.388 0-.363.07-.538.305-.538.723 0 .474.207.695.695.743l.277.027v1.47l-.87-.001c-.612 0-.953-.018-1.15-.059-.773-.163-1.236-.628-1.401-1.407-.085-.404-.085-6.142 0-6.546.163-.77.626-1.241 1.381-1.404.395-.086 13.171-.089 13.573-.004M6.787 10.278c-.342.069-.519.314-.519.722 0 .461.207.692.663.74.137.014.942.02 1.789.013 1.455-.012 1.547-.017 1.676-.093.273-.161.396-.478.327-.845a.646.646 0 0 0-.327-.475c-.13-.076-.214-.08-1.796-.087-.913-.003-1.729.008-1.813.025m8.452 7.352c0 1.478-.013 1.927-.058 2.143-.165.779-.628 1.244-1.401 1.407-.401.084-3.156.085-3.553.001-.779-.165-1.244-.628-1.407-1.401-.047-.224-.059-.656-.059-2.15l-.001-1.87h6.48l-.001 1.87" fill-rule="evenodd" fill="#000"/></svg>