<svg width="24" height="24" fill="none" xmlns="http://www.w3.org/2000/svg"><path d="M11.532 1.284C9.583 1.458 7.876 2.735 7.18 4.54c-1.186 3.078.696 6.433 3.925 6.998a6.987 6.987 0 0 0 1.667.019 5.24 5.24 0 0 0 2.554-1.152 5.203 5.203 0 0 0 1.777-3.078c.081-.452.081-1.322 0-1.774a5.158 5.158 0 0 0-1.444-2.772 5.171 5.171 0 0 0-4.127-1.497m1.486 1.613a3.738 3.738 0 0 1 2.527 2.523c.101.33.111.416.112 1.02.002.568-.011.703-.088.971a3.882 3.882 0 0 1-1.742 2.236c-1.125.661-2.713.626-3.795-.082-.773-.506-1.319-1.221-1.578-2.065-.101-.331-.11-.415-.112-1.04-.001-.639.005-.701.112-1.039.403-1.269 1.275-2.145 2.507-2.515.454-.136.493-.141 1.139-.127.469.009.618.029.918.118m-1.798 9.588c-1.802.153-3.484.738-4.747 1.653-.548.397-1.183 1.129-1.469 1.692a4.766 4.766 0 0 0-.328.95c-.069.32-.069 1.094-.001 1.433.261 1.297 1.249 2.446 2.805 3.262 2.093 1.097 4.946 1.375 7.453.726 2.125-.549 3.76-1.708 4.431-3.139.269-.575.33-.868.331-1.582 0-.56-.01-.654-.108-.971-.392-1.279-1.368-2.319-2.894-3.083-1.473-.739-3.582-1.101-5.473-.941m2.08 1.519c1.643.174 3.242.849 4.12 1.738.565.572.802 1.101.797 1.778-.001.286-.024.444-.093.64-.332.954-1.342 1.816-2.742 2.339-2.531.945-5.738.663-7.797-.686a5.46 5.46 0 0 1-.671-.573c-.332-.333-.41-.437-.567-.763-.333-.694-.336-1.257-.008-1.937.496-1.028 1.728-1.854 3.434-2.302 1.094-.287 2.283-.366 3.527-.234" fill-rule="evenodd" fill="#000"/></svg>