<svg width="24" height="24" fill="none" xmlns="http://www.w3.org/2000/svg"><path d="M8.532 1.284C6.583 1.458 4.876 2.735 4.18 4.54c-1.186 3.078.696 6.433 3.925 6.998a6.987 6.987 0 0 0 1.667.019 5.24 5.24 0 0 0 2.554-1.152 5.203 5.203 0 0 0 1.777-3.078c.081-.452.081-1.322 0-1.774a5.158 5.158 0 0 0-1.444-2.772 5.171 5.171 0 0 0-4.127-1.497m1.486 1.613a3.738 3.738 0 0 1 2.527 2.523c.101.33.111.416.112 1.02.002.568-.011.703-.088.971a3.882 3.882 0 0 1-1.742 2.236c-1.125.661-2.713.626-3.795-.082-.773-.506-1.319-1.221-1.578-2.065-.101-.331-.11-.415-.112-1.04-.001-.639.005-.701.112-1.039.403-1.269 1.275-2.145 2.507-2.515.454-.136.493-.141 1.139-.127.469.009.618.029.918.118m6.169.381c-.36.072-.517.313-.499.769.021.518.18.65.854.71.681.06 1.161.242 1.587.601.679.572 1.03 1.301 1.03 2.142 0 .443-.088.82-.284 1.22-.136.277-.234.407-.531.702-.562.558-1.006.759-1.807.816-.539.039-.713.094-.864.274-.203.242-.176.768.055 1.031.16.182.339.224.836.196 1.111-.062 2.001-.443 2.782-1.191a4.227 4.227 0 0 0 .815-5.022 4.294 4.294 0 0 0-2.701-2.14c-.382-.096-1.047-.153-1.273-.108M8.22 12.485c-1.802.153-3.484.738-4.747 1.653-.548.397-1.183 1.129-1.469 1.692a4.766 4.766 0 0 0-.328.95c-.069.32-.069 1.094-.001 1.433.261 1.297 1.249 2.446 2.805 3.262 2.093 1.097 4.946 1.375 7.453.726 2.125-.549 3.76-1.708 4.431-3.139.269-.575.33-.868.331-1.582 0-.56-.01-.654-.108-.971-.392-1.279-1.368-2.319-2.894-3.083-1.473-.739-3.582-1.101-5.473-.941m9.781.825c-.182.091-.305.281-.363.559-.093.449.08.71.566.851.907.262 1.424.525 1.886.957.311.291.445.497.555.848.358 1.151-.578 2.236-2.345 2.716-.585.159-.72.306-.692.755.019.313.115.532.287.655.185.132.567.115 1.105-.049 1.68-.511 2.866-1.641 3.147-2.995.086-.416.055-1.119-.066-1.507-.407-1.301-1.591-2.292-3.294-2.759-.433-.119-.598-.126-.786-.031m-7.701.694c1.643.174 3.242.849 4.12 1.738.565.572.802 1.101.797 1.778-.001.286-.024.444-.093.64-.332.954-1.342 1.816-2.742 2.339-2.531.945-5.738.663-7.797-.686a5.46 5.46 0 0 1-.671-.573c-.332-.333-.41-.437-.567-.763-.333-.694-.336-1.257-.008-1.937.496-1.028 1.728-1.854 3.434-2.302 1.094-.287 2.283-.366 3.527-.234" fill-rule="evenodd" fill="#000"/></svg>