<svg width="23" height="24" fill="none" xmlns="http://www.w3.org/2000/svg"><path d="M3.897.828a4.486 4.486 0 0 0-2.113 1.017C.099 3.324-.222 5.751 1.015 7.647c.193.297.893.997 1.189 1.19 1.53.997 3.418.995 4.954-.006.285-.186.989-.89 1.174-1.174 1.002-1.537 1.004-3.425.007-4.955-.194-.296-.893-.996-1.19-1.189A4.727 4.727 0 0 0 5.426.826a5.401 5.401 0 0 0-1.529.002m1.68 1.561a2.998 2.998 0 0 1 1.888 1.885c.093.279.102.361.104.901.001.569-.004.608-.118.927a2.984 2.984 0 0 1-1.847 1.844c-.432.15-1.084.187-1.56.089-.597-.124-1.177-.482-1.632-1.009-.242-.281-.519-.832-.591-1.18a4.196 4.196 0 0 1 0-1.342c.17-.802.819-1.6 1.611-1.981.442-.212.706-.262 1.321-.247.434.01.568.029.824.113m5.64 1.561c-.265.079-.414.325-.416.689-.003.426.164.663.513.73.092.018.869.033 1.728.034 1.336.002 1.587.011 1.744.064.558.19.903.684.904 1.299.001.318-.048.488-.215.742-.046.071-2.059 1.858-4.473 3.972-3.092 2.706-4.439 3.909-4.556 4.068-.486.658-.669 1.446-.512 2.206.207.997.85 1.793 1.733 2.141.438.173.669.192 2.429.192 1.641 0 1.658-.001 1.827-.087.456-.229.471-1.065.023-1.304-.155-.083-.194-.086-1.883-.104l-1.726-.02-.189-.093c-.385-.189-.623-.49-.735-.928-.11-.431.006-.877.315-1.208.082-.088 2.085-1.851 4.45-3.918 4.661-4.073 4.539-3.957 4.798-4.579.161-.386.211-.721.187-1.249-.016-.338-.044-.511-.118-.722-.276-.789-.755-1.34-1.463-1.679-.568-.273-.696-.286-2.595-.283-.913.002-1.709.018-1.77.037m-6.911.283c-.404.127-.594.427-.594.942 0 .651.341.997.983.997.648 0 1.002-.362.993-1.016-.005-.336-.077-.551-.24-.714-.238-.237-.75-.331-1.142-.209M16.1 14.474c-.137.03-.413.134-.613.233-.311.152-.419.233-.732.546-.314.314-.394.421-.546.732-.288.585-.294.648-.294 2.837s.006 2.251.294 2.836c.152.311.232.418.546.732.313.313.421.394.732.547.582.287.627.292 2.836.292 2.21 0 2.255-.005 2.837-.292.31-.153.419-.234.732-.547.313-.313.394-.421.547-.732.287-.582.291-.627.291-2.836 0-2.21-.004-2.255-.291-2.837-.153-.31-.234-.419-.547-.732-.314-.314-.421-.393-.732-.546-.588-.289-.643-.294-2.868-.29-1.501.003-2 .016-2.192.057m4.282 1.516c.309.114.659.465.774.775.081.221.083.259.072 2.109l-.011 1.883-.099.211a1.427 1.427 0 0 1-.648.648l-.211.1-1.884.01c-1.849.011-1.887.01-2.108-.072-.31-.114-.661-.465-.775-.773-.08-.215-.082-.278-.082-2.059 0-1.788.002-1.843.083-2.059.114-.307.433-.633.741-.759l.23-.094 1.848-.001c1.794-.001 1.855.002 2.07.081m-2.429 1.89c-.409.128-.587.413-.587.942 0 .536.178.816.602.943.371.112.859.033 1.099-.179.19-.166.263-.378.264-.764.002-.381-.081-.613-.275-.777-.238-.2-.747-.276-1.103-.165" fill-rule="evenodd" fill="#000"/></svg>