<svg width="24" height="24" fill="none" xmlns="http://www.w3.org/2000/svg"><path d="M13.755 1.29c-.235.119-3.316 2.685-3.438 2.864-.138.2-.127.476.026.696.155.221 3.13 2.715 3.405 2.853.158.079.239.098.34.077.204-.042.424-.205.554-.409.162-.256.183-.404.086-.622-.065-.146-.212-.29-.813-.79a65.766 65.766 0 0 1-.795-.667c-.051-.047.247-.054 2.06-.044 2.068.012 2.124.014 2.305.097.269.125.495.348.634.625l.121.243v4.555c0 3.609-.01 4.558-.05 4.569-1.206.35-1.954.918-2.471 1.875A3.483 3.483 0 0 0 15.271 19c0 .682.129 1.197.45 1.792a3.518 3.518 0 0 0 1.491 1.489 3.483 3.483 0 0 0 1.788.448c.68 0 1.197-.129 1.788-.448a3.518 3.518 0 0 0 1.491-1.489c.321-.595.45-1.11.45-1.792 0-.68-.129-1.197-.448-1.788-.516-.956-1.273-1.531-2.469-1.874-.038-.011-.052-1.066-.063-4.646-.011-3.544-.026-4.679-.065-4.832a3.855 3.855 0 0 0-.229-.566 2.79 2.79 0 0 0-1.586-1.402l-.329-.111-2.23-.02-2.231-.021.784-.654c1.01-.841 1.083-.978.779-1.457-.134-.21-.356-.372-.562-.408-.104-.019-.188-.001-.325.069M4.74 1.266c-1.325.119-2.413.819-3.021 1.946A3.483 3.483 0 0 0 1.271 5c0 .68.129 1.197.448 1.788.516.956 1.273 1.531 2.469 1.874.038.011.052 1.066.063 4.646.011 3.544.026 4.679.065 4.832.027.11.131.365.229.566a2.79 2.79 0 0 0 1.586 1.402l.329.111 2.23.02 2.231.021-.784.654c-1.01.841-1.083.978-.779 1.457.221.348.556.488.853.357.17-.075 2.873-2.289 3.3-2.703.327-.317.36-.6.106-.932-.162-.213-3.203-2.731-3.406-2.821-.297-.131-.632.009-.853.357-.162.256-.183.404-.086.622.065.146.212.29.813.79.404.336.762.636.795.667.051.047-.247.054-2.06.044-2.068-.012-2.124-.014-2.305-.097a1.361 1.361 0 0 1-.634-.625l-.121-.243v-4.555c0-3.609.01-4.558.05-4.569 1.206-.35 1.954-.918 2.471-1.875A3.483 3.483 0 0 0 8.729 5c0-.68-.129-1.197-.448-1.788a3.674 3.674 0 0 0-2.066-1.749c-.422-.147-1.066-.233-1.475-.197m.838 1.555c.371.097.696.291 1.003.598.46.46.659.937.659 1.581 0 .644-.199 1.121-.659 1.581-.46.46-.937.659-1.581.659-.644 0-1.121-.199-1.581-.659-.46-.46-.659-.937-.659-1.581 0-.644.199-1.121.659-1.581.3-.301.631-.5.985-.596.288-.077.881-.078 1.174-.002m14 14c.371.097.696.291 1.003.598.46.46.659.937.659 1.581 0 .644-.199 1.121-.659 1.581-.46.46-.937.659-1.581.659-.644 0-1.121-.199-1.581-.659-.46-.46-.659-.937-.659-1.581 0-.644.199-1.121.659-1.581.3-.301.631-.5.985-.596.288-.077.881-.078 1.174-.002" fill-rule="evenodd" fill="#000"/></svg>