<svg width="24" height="24" fill="none" xmlns="http://www.w3.org/2000/svg"><path d="M14.755 1.29c-.235.119-3.316 2.685-3.438 2.864-.138.2-.127.476.026.696.155.221 3.13 2.715 3.405 2.853.158.079.239.098.34.077.204-.042.424-.205.554-.409.162-.256.183-.404.086-.622-.065-.146-.212-.29-.813-.79a65.766 65.766 0 0 1-.795-.667c-.051-.048.17-.054 1.56-.044 1.557.012 1.627.015 1.805.097.269.125.495.348.634.625l.121.243v4.555c0 3.609-.01 4.558-.05 4.569-1.206.35-1.954.918-2.471 1.875A3.483 3.483 0 0 0 15.271 19c0 .682.129 1.197.45 1.792a3.518 3.518 0 0 0 1.491 1.489 3.483 3.483 0 0 0 1.788.448c.68 0 1.197-.129 1.788-.448a3.518 3.518 0 0 0 1.491-1.489c.321-.595.45-1.11.45-1.792 0-.68-.129-1.197-.448-1.788-.516-.956-1.273-1.531-2.469-1.874-.038-.011-.052-1.066-.063-4.646-.011-3.544-.026-4.679-.065-4.832a3.855 3.855 0 0 0-.229-.566 2.786 2.786 0 0 0-1.586-1.402l-.329-.11-1.73-.021-1.731-.021.784-.654c1.01-.841 1.083-.978.779-1.457-.134-.21-.356-.372-.562-.408-.104-.019-.188-.001-.325.069m-9.904-.007a3.976 3.976 0 0 0-2.817 1.61 3.992 3.992 0 0 0-.751 2.732c.049.525.16.916.397 1.395.494 1.002 1.387 1.746 2.49 2.077.066.019.07.203.07 3.123 0 2.448-.011 3.106-.05 3.117-1.206.35-1.954.918-2.471 1.875A3.483 3.483 0 0 0 1.271 19c0 .682.129 1.197.45 1.792a3.518 3.518 0 0 0 1.491 1.489A3.483 3.483 0 0 0 5 22.729c.68 0 1.197-.129 1.788-.448a3.518 3.518 0 0 0 1.491-1.489c.321-.595.45-1.11.45-1.792 0-.68-.129-1.197-.448-1.788-.517-.957-1.265-1.525-2.471-1.875-.039-.011-.05-.66-.05-3.071V9.209l.19-.028a4.569 4.569 0 0 0 1.07-.351 3.994 3.994 0 0 0 2.138-4.362 3.974 3.974 0 0 0-4.307-3.185M5.862 2.82a2.56 2.56 0 0 1 1.612 1.3c.218.443.301.835.271 1.283-.044.647-.263 1.128-.731 1.602-.783.793-1.878.97-2.894.469a2.56 2.56 0 0 1-1.3-1.612c-.076-.303-.076-.888 0-1.212.198-.84.976-1.625 1.812-1.828.31-.075.936-.076 1.23-.002m-.284 14.001c.371.097.696.291 1.003.598.46.46.659.937.659 1.581 0 .644-.199 1.121-.659 1.581-.46.46-.937.659-1.581.659-.644 0-1.121-.199-1.581-.659-.46-.46-.659-.937-.659-1.581 0-.644.199-1.121.659-1.581.3-.301.631-.5.985-.596.288-.077.881-.078 1.174-.002m14 0c.371.097.696.291 1.003.598.46.46.659.937.659 1.581 0 .644-.199 1.121-.659 1.581-.46.46-.937.659-1.581.659-.644 0-1.121-.199-1.581-.659-.46-.46-.659-.937-.659-1.581 0-.644.199-1.121.659-1.581.3-.301.631-.5.985-.596.288-.077.881-.078 1.174-.002" fill-rule="evenodd" fill="#000"/></svg>