<svg width="24" height="24" fill="none" xmlns="http://www.w3.org/2000/svg"><path d="M11.32 1.281c-4.279.244-8.068 3.128-9.477 7.216a10.886 10.886 0 0 0-.279 6.053 10.76 10.76 0 0 0 7.886 7.886 10.96 10.96 0 0 0 5.1 0 10.76 10.76 0 0 0 7.886-7.886 10.96 10.96 0 0 0 0-5.1 10.758 10.758 0 0 0-8.694-8.052c-.408-.067-1.668-.169-1.862-.151l-.56.034m1.826 1.541a9.086 9.086 0 0 1 2.914.874c2.817 1.383 4.708 4.026 5.118 7.158.123.932.066 2.172-.144 3.144-.289 1.345-1.031 2.857-1.913 3.902a9.31 9.31 0 0 1-3.061 2.404 8.94 8.94 0 0 1-4.06.936 8.93 8.93 0 0 1-4.06-.936c-2.817-1.383-4.708-4.026-5.118-7.158-.123-.932-.066-2.172.144-3.144.211-.982.737-2.227 1.302-3.082a9.335 9.335 0 0 1 6.552-4.097c.56-.077 1.749-.077 2.326-.001M8.737 7.321c-.434.229-1.01.633-1.315.922-.656.624-.965 1.318-1.103 2.477-.066.557-.101 3.938-.045 4.353.077.569.336.998.818 1.353.412.303.585.334 1.845.334 1.151 0 1.309-.02 1.68-.209.209-.106.551-.433.706-.676.251-.39.277-.559.277-1.774 0-.981-.008-1.119-.08-1.353a1.946 1.946 0 0 0-1.198-1.232c-.242-.084-.348-.092-1.414-.107l-1.153-.017.025-.226c.151-1.388.32-1.676 1.402-2.378.287-.186.55-.381.585-.434.156-.237.124-.537-.088-.829-.253-.349-.545-.412-.942-.204m6.16-.017c-.353.188-1.072.684-1.326.914-.306.279-.679.827-.819 1.204-.29.783-.351 1.448-.352 3.84 0 2.029.008 2.113.247 2.53.184.322.515.626.869.799l.304.149h2.52l.314-.15c.361-.172.698-.488.878-.82.186-.344.227-.647.227-1.67 0-1.014-.039-1.305-.221-1.664-.154-.304-.541-.676-.862-.829-.361-.172-.653-.205-1.792-.206l-.976-.001.027-.344c.06-.789.262-1.361.593-1.685.095-.092.424-.335.731-.54.337-.224.595-.425.65-.507.156-.233.107-.551-.133-.866-.215-.282-.534-.338-.879-.154m-4.975 5.657c.176.094.198.223.198 1.161v.886l-.136.136-.136.136H8.032l-.136-.136-.136-.136V12.92h1.043c.638 0 1.072.016 1.119.041m6.172.041c.168.132.194.303.179 1.18-.014.873-.039.977-.258 1.06-.055.021-.478.038-.94.038-1.253 0-1.195.066-1.195-1.358V12.92h1.055c1.003 0 1.059.004 1.159.082" fill-rule="evenodd" fill="#000"/></svg>