<svg width="24" height="24" fill="none" xmlns="http://www.w3.org/2000/svg"><path d="M6.43 2.527c-.233.049-1.507.838-2.247 1.391-1.435 1.071-2.236 2.353-2.6 4.162-.283 1.41-.321 2.202-.322 6.66-.001 3.554.004 3.82.073 4.115.26 1.109 1.044 2.015 2.078 2.404.558.209.809.227 2.979.212 1.903-.014 2.003-.018 2.309-.103a3.255 3.255 0 0 0 2.376-2.642c.059-.379.059-3.993 0-4.372-.197-1.271-1.116-2.293-2.376-2.643-.314-.087-.37-.089-3.13-.102l-2.81-.013v-.328c.001-.795.116-1.99.266-2.767.288-1.489.825-2.411 1.914-3.283.283-.227 1.148-.804 1.687-1.125.21-.126.434-.28.497-.343.237-.237.238-.556.004-.904-.189-.282-.407-.381-.698-.319m11.608.011c-.191.05-.815.42-1.665.987-2.066 1.38-2.937 2.797-3.293 5.355-.166 1.191-.18 1.656-.18 5.82v4l.112.359c.355 1.132 1.163 1.94 2.289 2.287l.359.11 1.958.015c2.106.016 2.423-.003 2.942-.176.985-.327 1.794-1.197 2.092-2.248.084-.298.087-.37.087-2.507s-.003-2.209-.087-2.507c-.287-1.012-1.048-1.859-1.988-2.213-.556-.209-.734-.22-3.615-.22h-2.662l.025-.75c.043-1.309.211-2.473.471-3.255.458-1.38 1.168-2.14 3.139-3.358.362-.223.711-.467.778-.543.223-.254.146-.698-.175-1.009-.167-.162-.351-.208-.587-.147M8.1 13.122a1.779 1.779 0 0 1 1.499 1.434c.054.285.054 3.683 0 3.968-.103.544-.489 1.052-.969 1.277-.395.185-.697.207-2.653.191-1.737-.014-1.76-.016-1.997-.109a1.991 1.991 0 0 1-1.073-.994l-.127-.269-.011-2.77-.011-2.77 2.531.001c1.483 0 2.647.017 2.811.041m11.639 0a1.754 1.754 0 0 1 1.431 1.212c.088.28.09.327.09 2.206s-.002 1.926-.09 2.206a1.761 1.761 0 0 1-1.442 1.214c-.353.051-3.43.05-3.784-.001a1.86 1.86 0 0 1-1.541-1.52c-.047-.285-.062-5.287-.016-5.332.043-.044 5.043-.03 5.352.015" fill-rule="evenodd" fill="#000"/></svg>