<svg width="24" height="24" fill="none" xmlns="http://www.w3.org/2000/svg"><path d="M8.08 1.282c-4.072.213-6.185 2.014-6.697 5.709-.113.812-.141 1.825-.141 5.009 0 4.504.06 5.273.518 6.65.772 2.313 2.446 3.576 5.267 3.972.759.106 1.875.137 4.973.137s4.214-.031 4.973-.137c2.47-.347 4.023-1.334 4.924-3.132.482-.96.741-2.121.823-3.683.051-.969.051-6.645 0-7.614-.063-1.195-.199-2.002-.478-2.837-.61-1.825-1.773-2.989-3.592-3.596-.862-.287-1.627-.416-2.844-.48-.854-.045-6.854-.043-7.726.002m8.72 1.572c2.786.462 3.914 1.6 4.348 4.386.066.421.072.824.072 4.76s-.006 4.339-.072 4.76c-.436 2.798-1.59 3.952-4.388 4.388-.421.066-.824.072-4.76.072s-4.339-.006-4.76-.072c-2.79-.435-3.957-1.597-4.386-4.368-.069-.445-.074-.791-.074-4.78 0-4.753-.004-4.663.264-5.712C3.557 4.282 4.722 3.274 6.96 2.9c.73-.123 1.088-.131 5.24-.123 3.763.007 4.222.014 4.6.077M8.737 7.321c-.434.229-1.01.633-1.315.922-.656.624-.965 1.318-1.103 2.477-.066.557-.101 3.938-.045 4.353.077.569.336.998.818 1.353.412.303.585.334 1.845.334 1.151 0 1.309-.02 1.68-.209.209-.106.551-.433.706-.676.251-.39.277-.559.277-1.774 0-.981-.008-1.119-.08-1.353a1.946 1.946 0 0 0-1.198-1.232c-.242-.084-.348-.092-1.414-.107l-1.153-.017.025-.226c.151-1.388.32-1.676 1.402-2.378.287-.186.55-.381.585-.434.156-.237.124-.537-.088-.829-.253-.349-.545-.412-.942-.204m6.16-.017c-.353.188-1.072.684-1.326.914-.306.279-.679.827-.819 1.204-.29.783-.351 1.448-.352 3.84 0 2.029.008 2.113.247 2.53.184.322.515.626.869.799l.304.149h2.52l.314-.15c.361-.172.698-.488.878-.82.186-.344.227-.647.227-1.67 0-1.014-.039-1.305-.221-1.664-.154-.304-.541-.676-.862-.829-.361-.172-.653-.205-1.792-.206l-.976-.001.027-.344c.06-.789.262-1.361.593-1.685.095-.092.424-.335.731-.54.337-.224.595-.425.65-.507.156-.233.107-.551-.133-.866-.215-.282-.534-.338-.879-.154m-4.975 5.657c.176.094.198.223.198 1.161v.886l-.136.136-.136.136H8.032l-.136-.136-.136-.136V12.92h1.043c.638 0 1.072.016 1.119.041m6.172.041c.168.132.194.303.179 1.18-.014.873-.039.977-.258 1.06-.055.021-.478.038-.94.038-1.253 0-1.195.066-1.195-1.358V12.92h1.055c1.003 0 1.059.004 1.159.082" fill-rule="evenodd" fill="#000"/></svg>