<svg width="24" height="24" fill="none" xmlns="http://www.w3.org/2000/svg"><path d="M8.08 1.282c-4.072.213-6.185 2.014-6.697 5.709-.113.812-.141 1.825-.141 5.009 0 4.504.06 5.273.518 6.65.772 2.313 2.446 3.576 5.267 3.972.759.106 1.875.137 4.973.137s4.214-.031 4.973-.137c2.47-.347 4.023-1.334 4.924-3.132.482-.96.741-2.121.823-3.683.051-.969.051-6.645 0-7.614-.063-1.195-.199-2.002-.478-2.837-.61-1.825-1.773-2.989-3.592-3.596-.862-.287-1.627-.416-2.844-.48-.854-.045-6.854-.043-7.726.002m8.72 1.572c2.786.462 3.914 1.6 4.348 4.386.066.421.072.824.072 4.76s-.006 4.339-.072 4.76c-.436 2.798-1.59 3.952-4.388 4.388-.421.066-.824.072-4.76.072s-4.339-.006-4.76-.072c-2.79-.435-3.957-1.597-4.386-4.368-.069-.445-.074-.791-.074-4.78 0-4.753-.004-4.663.264-5.712C3.557 4.282 4.722 3.274 6.96 2.9c.73-.123 1.088-.131 5.24-.123 3.763.007 4.222.014 4.6.077M7.542 7.323a1.89 1.89 0 0 0-1.243 1.386c-.082.385-.081 2.054.001 2.402.087.366.239.635.515.911.305.305.664.484 1.072.538.161.02.723.038 1.249.039l.956.001-.027.344c-.058.758-.232 1.277-.546 1.629-.096.109-.419.357-.735.566-.31.205-.605.417-.656.471-.182.196-.166.538.04.849.16.241.32.341.552.341.206 0 .384-.085.96-.459 1.034-.67 1.504-1.31 1.742-2.376.145-.653.177-1.229.178-3.227 0-2.029-.008-2.113-.247-2.53a2.109 2.109 0 0 0-.869-.799l-.304-.149-1.2-.01c-1.127-.009-1.214-.005-1.438.073m6.17-.006c-.126.04-.306.119-.401.174-.211.124-.54.467-.68.709-.209.362-.231.522-.231 1.703 0 .977.008 1.115.08 1.349.174.561.639 1.04 1.198 1.232.242.084.348.092 1.414.107l1.153.017-.025.226c-.151 1.388-.32 1.676-1.402 2.378-.535.346-.627.436-.675.655-.058.262.157.689.428.854.284.173.547.087 1.326-.431 1.142-.759 1.611-1.55 1.784-3.01.066-.557.101-3.938.045-4.353a1.936 1.936 0 0 0-.872-1.389c-.414-.275-.556-.298-1.808-.296-.956.002-1.137.012-1.334.075M9.881 8.781c.224.116.239.195.239 1.297v1.002H9.069c-.907 0-1.064-.009-1.144-.065-.178-.125-.205-.273-.205-1.124 0-.866.032-1.016.24-1.12.157-.079 1.766-.071 1.921.01m6.223.075.136.136v2.088h-1.043c-.638 0-1.072-.016-1.119-.041-.176-.094-.198-.223-.198-1.161v-.886l.136-.136.136-.136h1.816l.136.136" fill-rule="evenodd" fill="#000"/></svg>