<svg width="24" height="24" fill="none" xmlns="http://www.w3.org/2000/svg"><path d="M11.32 1.281c-4.279.244-8.068 3.128-9.477 7.216a10.886 10.886 0 0 0-.279 6.053 10.76 10.76 0 0 0 7.886 7.886 10.96 10.96 0 0 0 5.1 0 10.76 10.76 0 0 0 7.886-7.886 10.96 10.96 0 0 0 0-5.1 10.758 10.758 0 0 0-8.694-8.052c-.408-.067-1.668-.169-1.862-.151l-.56.034m1.826 1.541a9.086 9.086 0 0 1 2.914.874c2.817 1.383 4.708 4.026 5.118 7.158.123.932.066 2.172-.144 3.144-.289 1.345-1.031 2.857-1.913 3.902a9.31 9.31 0 0 1-3.061 2.404 8.94 8.94 0 0 1-4.06.936 8.93 8.93 0 0 1-4.06-.936c-2.817-1.383-4.708-4.026-5.118-7.158-.123-.932-.066-2.172.144-3.144.211-.982.737-2.227 1.302-3.082a9.335 9.335 0 0 1 6.552-4.097c.56-.077 1.749-.077 2.326-.001M7.542 7.323a1.89 1.89 0 0 0-1.243 1.386c-.082.385-.081 2.054.001 2.402.087.366.239.635.515.911.305.305.664.484 1.072.538.161.02.723.038 1.249.039l.956.001-.027.344c-.058.758-.232 1.277-.546 1.629-.096.109-.419.357-.735.566-.31.205-.605.417-.656.471-.182.196-.166.538.04.849.16.241.32.341.552.341.206 0 .384-.085.96-.459 1.034-.67 1.504-1.31 1.742-2.376.145-.653.177-1.229.178-3.227 0-2.029-.008-2.113-.247-2.53a2.109 2.109 0 0 0-.869-.799l-.304-.149-1.2-.01c-1.127-.009-1.214-.005-1.438.073m6.17-.006c-.126.04-.306.119-.401.174-.211.124-.54.467-.68.709-.209.362-.231.522-.231 1.703 0 .977.008 1.115.08 1.349.174.561.639 1.04 1.198 1.232.242.084.348.092 1.414.107l1.153.017-.025.226c-.151 1.388-.32 1.676-1.402 2.378-.535.346-.627.436-.675.655-.058.262.157.689.428.854.284.173.547.087 1.326-.431 1.142-.759 1.611-1.55 1.784-3.01.066-.557.101-3.938.045-4.353a1.936 1.936 0 0 0-.872-1.389c-.414-.275-.556-.298-1.808-.296-.956.002-1.137.012-1.334.075M9.881 8.781c.224.116.239.195.239 1.297v1.002H9.069c-.907 0-1.064-.009-1.144-.065-.178-.125-.205-.273-.205-1.124 0-.866.032-1.016.24-1.12.157-.079 1.766-.071 1.921.01m6.223.075.136.136v2.088h-1.043c-.638 0-1.072-.016-1.119-.041-.176-.094-.198-.223-.198-1.161v-.886l.136-.136.136-.136h1.816l.136.136" fill-rule="evenodd" fill="#000"/></svg>