<svg width="24" height="24" fill="none" xmlns="http://www.w3.org/2000/svg"><path d="M3.908 2.582a3.252 3.252 0 0 0-2.609 2.653c-.054.311-.061.681-.05 2.396.014 1.931.019 2.044.101 2.337a3.335 3.335 0 0 0 2.312 2.32c.313.088.366.089 3.134.103l2.817.013-.027.768c-.054 1.591-.251 2.735-.628 3.658-.24.588-.478.935-.995 1.453-.509.509-.965.849-1.985 1.48-.362.223-.711.467-.778.543-.223.254-.146.698.176 1.01.159.154.339.203.564.154.292-.064 1.942-1.121 2.58-1.653 1.41-1.175 2.098-2.522 2.4-4.697.166-1.191.18-1.656.18-5.82v-4l-.09-.312a3.347 3.347 0 0 0-1.784-2.125c-.674-.323-.622-.317-2.946-.328-1.653-.008-2.122.001-2.372.047m11.666-.003a3.005 3.005 0 0 0-.971.329 3.247 3.247 0 0 0-1.679 2.366c-.059.379-.059 3.993 0 4.372.197 1.271 1.116 2.293 2.376 2.643.314.087.37.089 3.13.102l2.81.013v.328c-.001.795-.116 1.99-.266 2.767-.29 1.501-.83 2.42-1.943 3.305-.264.211-1.153.802-1.658 1.103-.21.126-.434.28-.497.343-.239.239-.239.552.001.912.149.225.316.325.546.325.213 0 .343-.064 1.117-.546 1.606-1.001 2.344-1.663 3.009-2.701.492-.767.862-1.955 1.027-3.3.144-1.166.163-1.828.163-5.68.001-3.566-.004-3.82-.073-4.118-.314-1.337-1.356-2.329-2.692-2.562-.462-.081-3.957-.081-4.4-.001M8.08 4.041A1.878 1.878 0 0 1 9.6 5.522c.025.137.037 1.182.03 2.799L9.62 10.9h-2.7c-2.453 0-2.721-.006-2.925-.07-.519-.16-.98-.612-1.162-1.139-.093-.27-.093-.281-.093-2.231 0-1.95 0-1.961.093-2.231.217-.627.765-1.093 1.396-1.185.336-.05 3.54-.051 3.851-.003m11.94.076c.475.188.859.544 1.073.994l.127.269.011 2.77.011 2.77-2.531-.001c-1.483 0-2.647-.017-2.811-.041a1.779 1.779 0 0 1-1.499-1.434c-.024-.126-.041-.948-.041-1.984s.017-1.858.041-1.984c.139-.733.742-1.324 1.462-1.433.13-.02 1.065-.033 2.077-.028 1.833.007 1.841.008 2.08.102" fill-rule="evenodd" fill="#000"/></svg>