<svg width="24" height="24" fill="none" xmlns="http://www.w3.org/2000/svg"><path d="M3.787 5.257c-.205.074-.271.14-.583.583A10.62 10.62 0 0 0 1.34 10.7c-.086.685-.086 1.915 0 2.6.222 1.788.849 3.42 1.87 4.869.303.429.41.531.623.59.426.117 1.023-.4.944-.82-.016-.087-.182-.379-.404-.712C3.29 15.605 2.76 13.888 2.76 12c0-1.888.53-3.605 1.613-5.227.213-.319.388-.626.403-.707.049-.259-.124-.546-.436-.726-.217-.125-.371-.148-.553-.083m16.038.001c-.37.133-.656.514-.602.803.016.086.179.374.392.694C20.722 8.414 21.24 10.086 21.24 12c0 1.914-.518 3.586-1.625 5.245-.213.32-.376.608-.392.694-.079.419.514.935.941.82.215-.058.322-.159.626-.59a10.616 10.616 0 0 0 1.87-4.869c.086-.685.086-1.915 0-2.6a10.67 10.67 0 0 0-1.834-4.82 7.608 7.608 0 0 0-.322-.434.632.632 0 0 0-.679-.188M6.987 7.657c-.199.072-.273.143-.53.507a7.693 7.693 0 0 0-.831 1.622 6.953 6.953 0 0 0 .001 4.43c.241.7.869 1.793 1.159 2.022a.634.634 0 0 0 .541.12c.371-.1.706-.52.651-.815-.015-.08-.153-.338-.308-.574-.64-.98-.91-1.86-.91-2.969 0-1.099.263-1.972.881-2.918.156-.24.302-.501.324-.581.074-.267-.095-.571-.419-.758-.223-.128-.376-.151-.559-.086m9.638.001c-.368.133-.656.515-.603.799.015.08.153.338.308.574.641.981.91 1.86.91 2.971 0 1.092-.265 1.968-.887 2.927-.167.258-.316.534-.331.614-.055.294.277.712.648.815.175.048.39.001.543-.12.292-.229.919-1.322 1.161-2.024a6.974 6.974 0 0 0 0-4.428c-.219-.633-.729-1.558-1.07-1.94a.632.632 0 0 0-.679-.188m-4.965 1.62c-.884.107-1.633.623-2.092 1.442-.4.714-.4 1.846 0 2.56.526.939 1.385 1.451 2.432 1.451s1.906-.512 2.432-1.451c.4-.714.4-1.846 0-2.56-.575-1.026-1.636-1.578-2.772-1.442m.794 1.563c.29.109.596.415.705.705.176.471.068.975-.285 1.328a1.216 1.216 0 0 1-1.748 0c-.279-.278-.38-.549-.357-.954.021-.353.107-.547.355-.795.273-.272.473-.356.864-.362.16-.002.327.026.466.078" fill-rule="evenodd" fill="#000"/></svg>