<svg width="24" height="24" fill="none" xmlns="http://www.w3.org/2000/svg"><path d="M11.4 1.281a10.747 10.747 0 0 0-5.064 1.596c-1.116.699-1.291.957-.994 1.469.2.344.518.502.811.401.088-.03.304-.156.481-.281 1.62-1.134 3.419-1.706 5.371-1.706 1.459 0 2.749.298 4.055.938.964.472 1.588.913 2.374 1.68.839.817 1.38 1.559 1.869 2.562A8.914 8.914 0 0 1 21.24 12c0 2.056-.645 3.97-1.893 5.619-.309.409-1.112 1.233-1.527 1.568-1.079.872-2.518 1.568-3.822 1.848a9.78 9.78 0 0 1-3.996 0c-1.304-.28-2.743-.976-3.822-1.848-.415-.335-1.218-1.159-1.527-1.568-.836-1.105-1.451-2.451-1.709-3.743-.161-.804-.197-1.255-.172-2.156.023-.837.089-1.343.264-2.027.146-.569.539-1.613.608-1.613.025 0 2.11 1.182 2.146 1.217.005.005-.06.206-.146.446-.489 1.373-.503 3.023-.037 4.397a6.738 6.738 0 0 0 5.92 4.577 6.728 6.728 0 0 0 7.19-7.19c-.259-3.728-3.505-6.529-7.238-6.245a6.527 6.527 0 0 0-2.194.543c-.604.267-.741.585-.475 1.099.233.45.511.514 1.11.259a6.15 6.15 0 0 1 1.367-.385c.395-.062 1.392-.027 1.793.062 1 .221 1.895.713 2.621 1.439a5.271 5.271 0 0 1 1.446 2.662c.103.477.103 1.601 0 2.078a5.271 5.271 0 0 1-1.446 2.662 5.271 5.271 0 0 1-2.662 1.446c-.476.103-1.601.103-2.079 0A5.321 5.321 0 0 1 7.29 14.3c-.347-.697-.489-1.279-.518-2.128-.017-.468-.006-.702.047-1.02.072-.433.238-1.013.3-1.051.02-.013 1.059.566 2.309 1.285 1.249.719 2.352 1.329 2.45 1.355.236.062.42.016.587-.146a.94.94 0 0 0 .299-.767c-.009-.24-.214-.376-2.784-1.851-1.364-.782-2.525-1.463-2.58-1.512a1.186 1.186 0 0 0-.447-.261c-.08-.026-.836-.445-1.68-.931-1.71-.985-1.798-1.031-1.985-1.032-.333-.002-.5.178-.906.979-.658 1.3-1.013 2.644-1.099 4.168-.145 2.573.588 4.997 2.141 7.082.456.613 1.485 1.641 2.106 2.105 2.076 1.551 4.54 2.295 7.097 2.142 2.163-.129 4.097-.838 5.843-2.142.617-.46 1.645-1.488 2.105-2.105 1.552-2.079 2.295-4.54 2.142-7.097-.129-2.163-.838-4.097-2.142-5.843-.46-.617-1.488-1.645-2.105-2.105-1.752-1.308-3.69-2.017-5.87-2.145a18.985 18.985 0 0 0-.68-.033c-.011.003-.245.018-.52.034" fill-rule="evenodd" fill="#000"/></svg>