<svg width="24" height="24" fill="none" xmlns="http://www.w3.org/2000/svg"><path d="M11.4 1.281a10.747 10.747 0 0 0-5.064 1.596c-1.116.699-1.291.957-.994 1.469.2.344.518.502.811.401.088-.03.304-.156.481-.281 1.62-1.134 3.419-1.706 5.371-1.706 1.459 0 2.749.298 4.055.938.964.472 1.588.913 2.374 1.68.839.817 1.38 1.559 1.869 2.562A8.914 8.914 0 0 1 21.24 12c0 2.056-.645 3.97-1.893 5.619-.309.409-1.112 1.233-1.527 1.568-1.079.872-2.518 1.568-3.822 1.848a9.78 9.78 0 0 1-3.996 0c-1.304-.28-2.743-.976-3.822-1.848-.415-.335-1.218-1.159-1.527-1.568-.836-1.105-1.451-2.451-1.709-3.743-.161-.804-.197-1.255-.172-2.156.023-.837.089-1.343.264-2.027.146-.57.539-1.613.608-1.613.018 0 1.838 1.038 4.044 2.307 2.207 1.269 4.092 2.328 4.19 2.354.236.062.42.016.587-.146a.94.94 0 0 0 .299-.767c-.01-.251-.145-.337-4.664-2.933a492.797 492.797 0 0 0-4.52-2.579c-.33-.153-.644-.052-.852.272-.193.301-.553 1.033-.727 1.475a10.265 10.265 0 0 0-.718 3.325c-.145 2.573.588 4.997 2.141 7.082.456.613 1.485 1.641 2.106 2.105 2.076 1.551 4.54 2.295 7.097 2.142 2.163-.129 4.097-.838 5.843-2.142.617-.46 1.645-1.488 2.105-2.105 1.552-2.079 2.295-4.54 2.142-7.097-.129-2.163-.838-4.097-2.142-5.843-.46-.617-1.488-1.645-2.105-2.105-1.752-1.308-3.69-2.017-5.87-2.145a18.985 18.985 0 0 0-.68-.033c-.011.003-.245.018-.52.034" fill-rule="evenodd" fill="#000"/></svg>