<svg width="24" height="24" fill="none" xmlns="http://www.w3.org/2000/svg"><path d="M6.787 1.278a.659.659 0 0 0-.447.326c-.075.127-.081.221-.093 1.426l-.013 1.29-.127.001c-.187.001-.84.144-1.2.264-.4.133-1.052.464-1.409.716a6.125 6.125 0 0 0-.639.558c-.966.966-1.466 2.134-1.578 3.686-.052.722-.052 7.188 0 7.91.068.951.246 1.633.615 2.359.278.547.529.894.963 1.327.966.966 2.134 1.466 3.686 1.578.737.053 10.173.053 10.91 0 .951-.068 1.633-.246 2.359-.615a4.674 4.674 0 0 0 1.327-.963c.966-.966 1.466-2.134 1.578-3.686.052-.722.052-7.188 0-7.91-.068-.951-.246-1.633-.615-2.359a4.674 4.674 0 0 0-.963-1.327c-.966-.966-2.134-1.466-3.686-1.578-.322-.023-2.477-.04-5.125-.041H7.76l-.002-1.13c-.002-1.199-.022-1.416-.148-1.584-.158-.213-.491-.313-.823-.248M18.12 5.85c1.446.361 2.421 1.214 2.871 2.51.236.68.229.529.229 5.14s.007 4.46-.229 5.14c-.46 1.325-1.536 2.24-2.971 2.524-.415.083-11.625.083-12.04 0-1.654-.328-2.816-1.49-3.144-3.144-.082-.413-.082-8.627 0-9.04C3.165 7.319 4.392 6.102 6 5.841c.165-.026.327-.054.36-.06.033-.007 2.634-.009 5.78-.005 5.133.008 5.747.015 5.98.074m-9.98 4.43c-.735.078-1.318.351-1.875.878-.454.43-.807 1.039-.927 1.602-.083.387-.083 1.092-.001 1.473.249 1.154 1.276 2.181 2.43 2.43.379.082 1.087.082 1.466 0 1.154-.249 2.181-1.276 2.43-2.43.082-.379.082-1.087 0-1.466-.16-.741-.689-1.508-1.356-1.963-.599-.409-1.405-.604-2.167-.524m6.155-.004c-.229.039-.369.142-.457.337-.168.37-.051.877.242 1.046.136.079.204.081 2.42.081 2.216 0 2.284-.002 2.42-.081.424-.245.424-1.073 0-1.318-.135-.078-.21-.081-2.3-.087-1.188-.003-2.234.007-2.325.022M9.247 11.93c.371.183.668.485.845.86.12.253.128.298.128.71s-.008.457-.128.71a1.828 1.828 0 0 1-.847.861c-.293.145-.313.149-.745.149s-.452-.004-.745-.149a1.828 1.828 0 0 1-.847-.861c-.12-.253-.128-.298-.128-.71s.008-.457.127-.709a1.843 1.843 0 0 1 1.072-.961c.153-.055.293-.069.585-.06.35.011.412.026.683.16m5.048 2.344c-.23.042-.369.145-.457.339-.168.37-.051.877.242 1.046.121.07.211.081.66.081.448 0 .539-.011.656-.08a.646.646 0 0 0 .327-.475c.068-.363-.055-.685-.318-.839-.142-.083-.808-.126-1.11-.072m3.492.002c-.344.073-.519.316-.519.724 0 .467.205.692.68.742.36.039.837-.006.988-.093.404-.231.398-1.07-.008-1.303-.102-.058-.231-.079-.56-.089a3.63 3.63 0 0 0-.581.019" fill-rule="evenodd" fill="#000"/></svg>