<svg width="24" height="24" fill="none" xmlns="http://www.w3.org/2000/svg"><path d="M8.1 1.267c-2.362.096-4.042 1.118-4.825 2.935-.242.561-.382 1.125-.475 1.917-.054.459-.054 11.303 0 11.762.189 1.603.697 2.704 1.629 3.53.922.817 1.985 1.208 3.561 1.309.819.052 7.202.052 8.02-.001 1.044-.066 1.816-.256 2.533-.622 1.505-.767 2.399-2.148 2.637-4.07.081-.658.082-2.416 0-2.807a3.114 3.114 0 0 0-.229-.62c-.15-.299-.251-.423-.833-1.022-.437-.449-.696-.749-.76-.88-.097-.196-.098-.213-.11-1.482-.013-1.526-.042-1.429.452-1.494a1.74 1.74 0 0 0 1.501-1.429c.021-.128.038-.53.038-.893 0-1.768-.259-2.882-.901-3.87-.309-.475-.605-.804-.993-1.105-.933-.724-1.885-1.05-3.345-1.145-.504-.033-7.137-.044-7.9-.013m.112 2.683c-.024 1.153-.022 1.196.06 1.381.108.243.31.347.68.348.337.001.532-.098.641-.328.074-.155.084-.281.11-1.381l.028-1.21h1.506l-.025 1.19c-.024 1.153-.022 1.196.06 1.381.108.243.31.347.68.348.337.001.532-.098.641-.328.074-.155.084-.281.11-1.381l.028-1.21h1.506l-.022 1.19-.023 1.19.094.18c.125.239.313.332.676.332.343 0 .505-.086.626-.333.081-.167.089-.258.115-1.369l.028-1.19h.146c.256 0 .813.08 1.142.164 1.51.385 2.371 1.368 2.642 3.016.083.506.125 1.919.063 2.108-.055.168-.088.185-.453.231a1.763 1.763 0 0 0-1.454 1.236c-.081.268-.081 2.96.001 3.305.139.591.346.902 1.13 1.702.805.822.786.78.805 1.818.023 1.26-.074 2.01-.354 2.738-.36.931-1.117 1.614-2.151 1.938-.528.165-.471.295-.502-1.151-.03-1.414-.065-1.644-.33-2.148-.293-.556-.921-1.103-1.502-1.304-.46-.16-.85-.18-3.191-.162-1.87.014-2.219.026-2.435.083a2.838 2.838 0 0 0-1.766 1.441c-.25.505-.282.751-.282 2.149 0 1.371.049 1.247-.437 1.112-1.145-.319-1.929-1.075-2.302-2.218-.252-.77-.241-.468-.241-6.818 0-5.363.005-5.807.071-6.147.292-1.517 1.039-2.429 2.329-2.845.31-.1.51-.142 1.06-.222.055-.009.194-.018.309-.021l.208-.005-.025 1.19m6.209 13.877c.277.094.624.443.729.733.07.195.082.361.103 1.45l.024 1.23H8.715l.012-1.27c.013-1.227.016-1.277.105-1.47.145-.316.401-.551.748-.687.087-.034.749-.048 2.383-.05 2.011-.003 2.285.004 2.458.064" fill-rule="evenodd" fill="#000"/></svg>