<svg width="24" height="24" fill="none" xmlns="http://www.w3.org/2000/svg"><path d="M11.754.936c-.465.099-.717.363-1.137 1.194-.228.45-.32.594-.388.608-.049.011-.304.057-.567.103-.263.045-.559.118-.657.162-.672.297-.933.997-.613 1.646.092.187.253.393.565.719l.437.457-.117.518c-.14.624-.148.931-.032 1.241.173.464.556.735 1.038.736.373 0 .587-.077 1.176-.423l.518-.305.162.083c.088.045.332.183.541.305.452.264.683.34 1.039.34.452 0 .819-.246 1.015-.678.123-.272.113-.736-.03-1.354l-.113-.492.459-.469c.493-.504.594-.658.668-1.018.114-.551-.175-1.064-.739-1.314a3.579 3.579 0 0 0-.613-.158l-.556-.098c-.121-.021-.149-.061-.429-.614-.411-.813-.698-1.116-1.121-1.186A5.934 5.934 0 0 1 12.04.9a1.168 1.168 0 0 0-.286.036m.481 2.243c.402.781.589.909 1.578 1.079l.153.027-.316.33c-.528.549-.648.933-.498 1.595.044.192.071.35.061.35-.01 0-.168-.089-.352-.197-.385-.227-.553-.282-.865-.283-.303 0-.533.076-.898.297-.169.103-.313.182-.319.175a2.463 2.463 0 0 1 .065-.372c.137-.647.02-1.016-.502-1.57-.171-.181-.295-.33-.276-.33.214-.001.795-.148.987-.25.301-.16.462-.353.719-.859.114-.226.217-.41.228-.41.011 0 .117.188.235.418m-1.931 6.102a2.777 2.777 0 0 0-2.25 1.85c-.102.309-.109.383-.125 1.216l-.017.887-2.186.016c-2.125.015-2.194.018-2.486.105a2.829 2.829 0 0 0-1.888 1.905l-.092.32v3.34c0 3.268.002 3.343.08 3.476a.652.652 0 0 0 .466.327c.096.018 4.683.034 10.194.034 5.511 0 10.098-.016 10.194-.034a.652.652 0 0 0 .466-.327c.077-.131.08-.208.08-1.976 0-1.803-.002-1.846-.092-2.16a2.829 2.829 0 0 0-1.888-1.905c-.292-.087-.361-.09-2.49-.105l-2.19-.016v-2.239c0-2.524-.009-2.623-.28-3.175-.289-.59-.696-1.003-1.26-1.281-.536-.264-.589-.27-2.36-.282-.88-.006-1.724.005-1.876.024m3.609 1.617c.417.231.629.592.671 1.144.014.186.013 2.331-.004 4.768l-.03 4.43H9.44l-.01-3.65c-.017-6.307-.023-5.862.075-6.075.127-.273.363-.512.635-.642l.24-.115 1.66.011 1.66.011.213.118M7.92 18v3.24H2.76v-2.738c0-3.151-.017-2.994.366-3.376.371-.371.298-.362 2.704-.364l2.09-.002V18m12.534-.159c.29.109.596.415.705.705.075.201.081.309.081 1.456v1.238h-5.16v-3.48h2.078c1.991 0 2.088.003 2.296.081" fill-rule="evenodd" fill="#000"/></svg>