<svg width="24" height="24" fill="none" xmlns="http://www.w3.org/2000/svg"><path d="M5.787 1.278a.659.659 0 0 0-.447.326c-.078.133-.08.208-.08 3.896 0 3.688.002 3.763.08 3.896a.646.646 0 0 0 .475.327c.367.069.684-.054.845-.327.078-.133.08-.22.092-3.676.007-1.947.001-3.652-.013-3.789-.041-.405-.242-.62-.619-.662a1.307 1.307 0 0 0-.333.009m6 0a.659.659 0 0 0-.447.326c-.075.128-.08.208-.08 1.396s.005 1.268.08 1.396c.161.273.478.396.845.327a.646.646 0 0 0 .475-.327c.073-.125.081-.222.094-1.176.015-1.21-.006-1.486-.127-1.666-.158-.235-.49-.344-.84-.276m6 0a.659.659 0 0 0-.447.326c-.078.133-.08.208-.08 3.896 0 3.688.002 3.763.08 3.896.161.273.478.396.845.327a.646.646 0 0 0 .475-.327c.078-.133.08-.22.092-3.676.007-1.947.001-3.652-.013-3.789-.041-.405-.242-.62-.619-.662a1.307 1.307 0 0 0-.333.009m-6.062 5.044c-.28.04-.745.272-.994.496-.328.294-.567.694-1.323 2.205-.743 1.486-.825 1.614-1.11 1.728-.065.026-.714.147-1.443.269-1.731.289-2.094.416-2.578.898-.659.658-.684 1.601-.065 2.522.066.099.62.684 1.23 1.3 1.071 1.08 1.113 1.128 1.178 1.353l.067.233-.313 1.347-.312 1.347-.001.62c-.001.705.053.946.289 1.289.184.268.346.409.63.55.663.33 1.469.208 2.47-.371.204-.117.789-.462 1.301-.766.559-.332.994-.565 1.09-.582.29-.053.449.012 1.408.582 1.843 1.094 2.023 1.182 2.623 1.286.849.146 1.597-.226 1.919-.955.142-.323.179-.582.16-1.134-.015-.473-.044-.638-.325-1.852-.321-1.39-.331-1.473-.197-1.747.033-.066.55-.615 1.149-1.22.6-.605 1.145-1.181 1.211-1.28.62-.927.594-1.871-.071-2.524-.484-.476-.855-.609-2.444-.875-1.667-.279-1.597-.262-1.791-.428-.144-.123-.27-.348-.87-1.548-.919-1.839-1.099-2.114-1.587-2.43-.427-.277-.847-.378-1.301-.313m.556 1.623c.131.119.305.434.958 1.731.677 1.347.83 1.622 1.02 1.832.257.285.608.531.921.648.12.045.848.188 1.618.317 1.177.198 1.436.254 1.631.351.13.066.256.162.288.221.051.093.049.127-.015.3-.062.163-.256.379-1.202 1.335-.62.627-1.186 1.227-1.258 1.334-.27.399-.428.991-.391 1.459.011.147.157.863.325 1.592.315 1.373.364 1.756.252 1.975-.046.088-.077.1-.27.099-.296-.001-.495-.1-1.97-.978-.716-.425-1.33-.763-1.477-.812-.355-.117-1.067-.117-1.422 0-.147.049-.761.387-1.477.812-1.475.878-1.674.977-1.97.978-.193.001-.224-.011-.27-.099-.113-.221-.064-.6.256-1.975.282-1.208.309-1.362.308-1.745 0-.355-.017-.47-.111-.74a3.222 3.222 0 0 0-.235-.52c-.069-.11-.634-.714-1.256-1.341-1.172-1.183-1.335-1.39-1.277-1.621.031-.124.234-.272.483-.352.11-.035.799-.164 1.531-.285.732-.122 1.422-.257 1.533-.299.31-.118.697-.388.94-.657.186-.206.345-.491 1.017-1.829.653-1.297.827-1.612.958-1.731.11-.099.199-.145.281-.145.082 0 .171.046.281.145" fill-rule="evenodd" fill="#000"/></svg>