<svg width="24" height="24" fill="none" xmlns="http://www.w3.org/2000/svg"><path d="M7.54 1.266c-1.224.056-2.056.23-2.735.572-1.247.627-1.845 1.78-2.002 3.862-.058.767-.059 12.914-.001 13.381.096.775.343 1.428.686 1.818.209.238.576.481.849.563.26.078.777.078 1.073 0 .509-.135 1.12-.525 1.723-1.101.207-.198.455-.396.552-.44a.985.985 0 0 1 1.056.191c.082.082.414.499.738.928.324.429.704.888.846 1.02a2.412 2.412 0 0 0 1.675.672 2.38 2.38 0 0 0 1.668-.672c.141-.132.549-.626.905-1.099.737-.978.858-1.084 1.271-1.114.368-.026.534.058 1.029.523.791.744 1.303 1.041 1.985 1.15.342.054.724-.004 1.046-.16.741-.36 1.166-1.147 1.294-2.397.056-.547.056-12.31 0-13.143-.105-1.562-.399-2.488-1.031-3.249-.412-.495-1.227-.936-2.061-1.115-.853-.183-.965-.187-5.746-.195a465.327 465.327 0 0 0-4.82.005m9.98 1.587c1.171.232 1.668.629 1.956 1.565.271.876.291 1.516.274 8.562-.016 6.465-.006 6.183-.23 6.689-.184.415-.361.465-.828.232-.202-.102-.416-.269-.788-.618-.747-.699-1.241-.932-1.984-.934a2.301 2.301 0 0 0-1.172.302c-.437.232-.681.482-1.355 1.389-.603.812-.811 1.036-1.057 1.139-.197.082-.52.075-.719-.015-.233-.106-.396-.286-1.036-1.144-.312-.418-.683-.868-.825-1a2.46 2.46 0 0 0-2.419-.563c-.419.132-.726.335-1.221.803-.58.548-.941.777-1.231.779-.294.002-.523-.439-.607-1.169-.03-.254-.038-2.371-.028-6.75.016-6.82.012-6.683.212-7.5.083-.338.296-.818.441-.993.372-.45 1.024-.719 1.998-.824.176-.018 2.56-.03 5.299-.026 4.482.008 5.014.016 5.32.076M14.8 6.245c-.11.032-.83.73-3.327 3.228-3.502 3.502-3.334 3.31-3.232 3.692.06.221.373.534.594.594.381.102.196.263 3.637-3.172 1.723-1.72 3.171-3.189 3.218-3.264a.629.629 0 0 0-.033-.692c-.229-.325-.557-.472-.857-.386m-6.255.334c-.45.16-.661.737-.485 1.329.072.24.295.465.527.529.197.055.629.055.826 0C9.77 8.338 10 7.971 10 7.5c0-.471-.23-.838-.587-.937-.213-.059-.682-.05-.868.016m6.025 5.494c-.373.133-.531.366-.561.827-.043.662.253 1.033.867 1.089.453.041.849-.131 1.012-.439.075-.141.09-.235.091-.553.001-.357-.007-.397-.119-.578-.163-.263-.402-.386-.791-.406a1.17 1.17 0 0 0-.499.06" fill-rule="evenodd" fill="#000"/></svg>