<svg width="24" height="24" fill="none" xmlns="http://www.w3.org/2000/svg"><path d="M18.72 2.787c-.085.04-2.67 2.594-6.549 6.468l-6.409 6.402-.011-4.338c-.01-4.134-.015-4.346-.085-4.488C5.548 6.595 5.358 6.5 5 6.5c-.458 0-.644.141-.721.543-.022.118-.038 2.32-.04 5.423l-.002 5.224.091.185c.065.13.142.212.262.278l.169.093 5.371-.005c5.347-.004 5.371-.004 5.541-.087.232-.112.329-.305.329-.654 0-.351-.097-.542-.331-.656-.174-.084-.184-.084-4.511-.084H6.821l6.425-6.43c7.048-7.055 6.628-6.605 6.517-6.975-.057-.192-.311-.481-.501-.571a.628.628 0 0 0-.542.003M3.295 21.277c-.229.038-.369.141-.457.336-.168.37-.051.877.242 1.046.139.081.18.081 8.92.081s8.781 0 8.92-.081c.424-.245.424-1.073 0-1.318-.139-.081-.185-.081-8.8-.086-4.763-.003-8.734.007-8.825.022" fill-rule="evenodd" fill="#000"/></svg>