<svg width="24" height="24" fill="none" xmlns="http://www.w3.org/2000/svg"><path d="M7.54 1.266c-.513.023-1.196.1-1.566.176-1.771.362-2.735 1.392-3.055 3.264-.154.9-.165 1.476-.15 8.094.013 5.944.019 6.4.085 6.68.203.854.484 1.357.953 1.702.563.415 1.308.453 2.051.105.385-.18.685-.399 1.187-.867.511-.475.696-.584 1.006-.591.456-.011.617.117 1.296 1.024.763 1.02.854 1.107 1.153 1.107.257 0 .613-.231.74-.481a.52.52 0 0 0 .033-.482c-.072-.206-1.318-1.841-1.56-2.047-.757-.644-1.76-.799-2.635-.406-.326.147-.52.29-.976.724-.541.513-.955.772-1.238.772-.209 0-.392-.269-.529-.78-.072-.269-.075-.546-.075-6.82 0-6.922 0-6.922.187-7.74.094-.41.293-.875.466-1.084.308-.374.841-.627 1.608-.762.393-.069.735-.074 5.479-.074s5.086.005 5.479.074c.767.135 1.3.388 1.608.762.155.188.365.657.451 1.004.177.722.191.996.217 4.06.024 2.785.029 2.947.1 3.065.127.209.282.275.645.275.363 0 .518-.066.645-.275.071-.119.076-.261.087-2.745.015-3.156-.021-3.829-.254-4.764-.293-1.17-.863-1.938-1.778-2.395-.54-.27-.983-.392-1.84-.51-.393-.053-1.122-.064-5-.07a465.327 465.327 0 0 0-4.82.005m.247 5.012c-.342.068-.519.314-.519.722 0 .462.207.693.663.739.137.014 2.067.02 4.289.013 3.957-.012 4.043-.014 4.176-.092a.646.646 0 0 0 .327-.475c.069-.367-.054-.684-.327-.845-.133-.079-.213-.08-4.296-.086-2.288-.003-4.229.008-4.313.024m1 4c-.342.068-.519.314-.519.722 0 .462.207.693.663.739.137.015 1.617.02 3.289.014 2.956-.013 3.044-.015 3.176-.093a.646.646 0 0 0 .327-.475c.069-.367-.054-.684-.327-.845-.133-.078-.214-.08-3.296-.086-1.738-.003-3.229.007-3.313.024M18.931 13.5c-.414.09-.773.31-1.287.788-.255.237-.485.454-.511.482l-1.625 1.65c-1.686 1.708-1.732 1.765-1.845 2.27-.11.485-.233 1.551-.214 1.843.03.47.296.865.729 1.084.326.165.592.173 1.507.044.819-.116 1.136-.199 1.408-.367.092-.057.869-.796 1.727-1.643.858-.846 1.583-1.559 1.611-1.585.027-.025.217-.227.422-.449.657-.712.867-1.132.867-1.734 0-.616-.221-1.073-.796-1.646-.314-.313-.448-.415-.724-.551-.315-.155-.673-.25-.92-.243a3.005 3.005 0 0 0-.349.057m.693 1.573c.267.194.57.555.6.716.035.185-.076.408-.327.654l-.179.176-.189-.098c-.243-.127-.723-.607-.849-.85l-.098-.188.139-.147c.378-.397.621-.468.903-.263m-2.104 1.56c0 .111.778.898 1.033 1.045.056.032-.129.235-1.093 1.201-.638.639-1.187 1.17-1.22 1.181-.08.024-1.145.18-1.235.18-.068 0-.066-.036.022-.65l.094-.65 1.169-1.17c.643-.643 1.183-1.17 1.2-1.17.016 0 .03.015.03.033" fill-rule="evenodd" fill="#000"/></svg>