<svg width="24" height="24" fill="none" xmlns="http://www.w3.org/2000/svg"><path d="M5.458 1.281C3.26 1.432 1.84 2.595 1.397 4.608a7.725 7.725 0 0 0-.116.9c-.054.744-.054 15.374 0 15.745.136.943 1.043 1.624 1.96 1.472a2.34 2.34 0 0 0 .445-.119c.096-.042.599-.391 1.12-.777 1.028-.763 1.065-.787 1.154-.759.033.011.492.447 1.02.969s1.041.995 1.14 1.052c.597.34 1.367.297 1.906-.107.129-.096.621-.564 1.094-1.04.668-.672.882-.864.961-.864.068 0 .42.236 1.091.733 1.204.891 1.443.996 2.067.907a1.758 1.758 0 0 0 1.48-1.467c.024-.167.04-2.064.04-4.879l.001-4.605 1.61-.02c1.688-.021 1.827-.034 2.366-.224.808-.285 1.527-1.019 1.806-1.843.184-.544.198-.721.197-2.502 0-1.46-.01-1.727-.072-2.038-.398-1.969-1.832-3.402-3.817-3.813-.276-.057-1.005-.065-6.63-.071-3.476-.004-6.519.006-6.762.023M15.5 2.83a3.422 3.422 0 0 0-.218.734c-.028.171-.041 3.105-.042 8.893 0 7.98-.005 8.642-.066 8.71-.14.154-.243.101-1.215-.628-.515-.386-1.026-.745-1.137-.799-.451-.217-1.001-.211-1.491.019-.225.105-.392.252-1.249 1.101-.722.714-1.015.98-1.083.98-.067 0-.365-.269-1.096-.991-1.081-1.068-1.161-1.127-1.668-1.233a1.705 1.705 0 0 0-1.057.124c-.111.054-.622.413-1.137.799-.973.73-1.075.782-1.215.627-.063-.069-.067-.643-.057-8.05L2.78 5.14l.09-.32c.147-.525.385-.962.686-1.262.145-.144.354-.313.464-.374.268-.149.82-.331 1.14-.377.147-.021 2.455-.039 5.314-.042 4.799-.005 5.053-.001 5.026.065m3.48.066c.526.17.873.389 1.304.82.426.426.642.766.826 1.304l.11.32v1.82c0 1.814 0 1.821-.093 2.051-.176.436-.48.74-.916.915-.227.092-.262.094-1.842.106l-1.611.012.011-3.292.011-3.292.107-.2c.145-.274.375-.485.657-.604.215-.091.274-.098.676-.082.329.013.521.044.76.122M6.027 9.278c-.36.072-.517.313-.499.769.014.345.08.474.316.613.133.078.208.08 3.156.08s3.023-.002 3.156-.08c.251-.148.304-.262.304-.66s-.053-.512-.304-.66c-.132-.078-.214-.08-3.056-.086-1.606-.004-2.989.007-3.073.024" fill-rule="evenodd" fill="#000"/></svg>