<svg width="24" height="24" fill="none" xmlns="http://www.w3.org/2000/svg"><path d="M8.08 1.282c-4.072.213-6.185 2.014-6.697 5.709-.113.812-.141 1.825-.141 5.009 0 4.504.06 5.273.518 6.65.772 2.313 2.446 3.576 5.267 3.972.759.106 1.875.137 4.973.137s4.214-.031 4.973-.137c2.47-.347 4.023-1.334 4.924-3.132.482-.96.741-2.121.823-3.683.051-.969.051-6.645 0-7.614-.063-1.195-.199-2.002-.478-2.837-.61-1.825-1.773-2.989-3.592-3.596-.862-.287-1.627-.416-2.844-.48-.854-.045-6.854-.043-7.726.002m8.72 1.572c2.786.462 3.914 1.6 4.348 4.386.066.421.072.824.072 4.76s-.006 4.339-.072 4.76c-.436 2.798-1.59 3.952-4.388 4.388-.421.066-.824.072-4.76.072s-4.339-.006-4.76-.072c-2.79-.435-3.957-1.597-4.386-4.368-.069-.445-.074-.791-.074-4.78 0-4.753-.004-4.663.264-5.712C3.557 4.282 4.722 3.274 6.96 2.9c.73-.123 1.088-.131 5.24-.123 3.763.007 4.222.014 4.6.077M8.875 6.991c-.403.209-.582.639-.411.981.036.07 1.075 1.141 2.31 2.378l2.244 2.25h-1.299c-.729 0-1.36.017-1.436.039-.21.06-.353.223-.407.462-.082.369.027.727.27.887.102.067.285.074 2.472.095l2.362.022.211-.096c.164-.075.23-.132.296-.262.085-.166.086-.186.077-2.527-.011-2.701-.001-2.614-.332-2.774-.31-.15-.768-.101-.961.104-.173.183-.191.341-.191 1.709v1.279l-2.29-2.285C9.168 6.636 9.325 6.757 8.875 6.991m-3.314 8.874c-.275.232-.401.74-.25 1.015.1.182.31.296.86.466a19.831 19.831 0 0 0 11.658 0c.55-.17.76-.284.86-.466.151-.275.025-.783-.25-1.015-.178-.15-.432-.141-.984.034a18.77 18.77 0 0 1-3.995.78c-1.056.089-2.758.044-3.86-.101a19.388 19.388 0 0 1-3.055-.679c-.552-.175-.806-.184-.984-.034" fill-rule="evenodd" fill="#000"/></svg>