<svg width="24" height="24" fill="none" xmlns="http://www.w3.org/2000/svg"><path d="M8.08 1.282c-4.072.213-6.185 2.014-6.697 5.709-.113.812-.141 1.825-.141 5.009 0 4.504.06 5.273.518 6.65.772 2.313 2.446 3.576 5.267 3.972.759.106 1.875.137 4.973.137s4.214-.031 4.973-.137c2.47-.347 4.023-1.334 4.924-3.132.482-.96.741-2.121.823-3.683.051-.969.051-6.645 0-7.614-.063-1.195-.199-2.002-.478-2.837-.61-1.825-1.773-2.989-3.592-3.596-.862-.287-1.627-.416-2.844-.48-.854-.045-6.854-.043-7.726.002m8.72 1.572c2.786.462 3.914 1.6 4.348 4.386.066.421.072.824.072 4.76s-.006 4.339-.072 4.76c-.436 2.798-1.59 3.952-4.388 4.388-.421.066-.824.072-4.76.072s-4.339-.006-4.76-.072c-2.79-.435-3.957-1.597-4.386-4.368-.069-.445-.074-.791-.074-4.78 0-4.753-.004-4.663.264-5.712C3.557 4.282 4.722 3.274 6.96 2.9c.73-.123 1.088-.131 5.24-.123 3.763.007 4.222.014 4.6.077M8.88 5.421c-.033.007-.195.034-.36.06-.821.133-1.486.552-1.819 1.149-.153.273-.294.696-.369 1.103-.059.324-.069.827-.082 4.267-.015 4.029-.008 4.261.149 4.767.252.815.985 1.287 1.726 1.113.399-.095.773-.319 1.221-.734.382-.353.394-.347 1.045.515.48.636.785.854 1.327.947.221.038.343.038.564 0 .557-.096.845-.307 1.384-1.018.231-.303.462-.579.514-.614.136-.089.223-.048.559.258.55.501 1.007.706 1.515.679.663-.036 1.101-.43 1.371-1.233.07-.207.075-.455.087-4.24.013-4.188.003-4.497-.157-5.109-.234-.893-.798-1.497-1.635-1.748-.567-.171-.838-.183-3.98-.178-1.65.002-3.027.01-3.06.016m6.44 1.545c.521.144.696.325.826.856.061.25.07.673.084 4.218.016 4.006.006 4.36-.129 4.36-.029 0-.212-.145-.406-.322a2.924 2.924 0 0 0-.652-.47c-.29-.144-.312-.148-.741-.148-.414 0-.459.008-.711.127-.35.166-.58.386-1.037.993-.395.524-.494.606-.644.537-.049-.023-.285-.299-.523-.614-.657-.866-.982-1.069-1.713-1.069-.519 0-.858.148-1.294.564-.259.248-.452.402-.502.402-.018 0-.056-.068-.085-.15-.078-.22-.078-7.674 0-8.167.129-.815.305-1.005 1.061-1.145.444-.082 6.158-.058 6.466.028" fill-rule="evenodd" fill="#000"/></svg>