<svg width="24" height="24" fill="none" xmlns="http://www.w3.org/2000/svg"><path d="M7.54 1.266c-.513.023-1.196.1-1.566.176-1.771.362-2.735 1.392-3.055 3.264-.154.9-.165 1.476-.15 8.094.013 5.944.019 6.4.085 6.68.203.854.484 1.357.953 1.702.563.415 1.308.453 2.051.105.385-.18.685-.399 1.187-.867.511-.475.696-.584 1.006-.591.456-.011.617.117 1.296 1.024.763 1.02.854 1.107 1.153 1.107.257 0 .613-.231.74-.481a.52.52 0 0 0 .033-.482c-.072-.206-1.318-1.841-1.56-2.047-.757-.644-1.76-.799-2.635-.406-.326.147-.52.29-.976.724-.541.513-.955.772-1.238.772-.209 0-.392-.269-.529-.78-.072-.269-.075-.546-.075-6.82 0-6.922 0-6.922.187-7.74.094-.41.293-.875.466-1.084.308-.374.841-.627 1.608-.762.393-.069.735-.074 5.479-.074s5.086.005 5.479.074c.767.135 1.3.388 1.608.762.155.188.365.657.451 1.004.177.722.191.996.217 4.06.024 2.785.029 2.947.1 3.065.127.209.282.275.645.275.363 0 .518-.066.645-.275.071-.119.076-.261.087-2.745.015-3.156-.021-3.829-.254-4.764-.293-1.17-.863-1.938-1.778-2.395-.54-.27-.983-.392-1.84-.51-.393-.053-1.122-.064-5-.07a465.327 465.327 0 0 0-4.82.005m.247 5.012c-.342.068-.519.314-.519.722 0 .462.207.693.663.739.137.014 2.067.02 4.289.013 3.957-.012 4.043-.014 4.176-.092a.646.646 0 0 0 .327-.475c.069-.367-.054-.684-.327-.845-.133-.079-.213-.08-4.296-.086-2.288-.003-4.229.008-4.313.024m1 4c-.342.068-.519.314-.519.722 0 .462.207.693.663.739.137.015 1.617.02 3.289.014 2.956-.013 3.044-.015 3.176-.093a.646.646 0 0 0 .327-.475c.069-.367-.054-.684-.327-.845-.133-.078-.214-.08-3.296-.086-1.738-.003-3.229.007-3.313.024m8.993 4.006a3.91 3.91 0 0 0-2.362 1.134c-1.341 1.341-1.534 3.387-.472 5.012.193.296.728.831 1.024 1.024 1.308.855 2.965.907 4.242.133l.193-.117.629.621c.699.691.807.755 1.131.668.221-.06.534-.373.594-.594.087-.324.023-.432-.668-1.131l-.621-.629.117-.193c.545-.899.692-2.075.391-3.115a3.78 3.78 0 0 0-.996-1.679c-.665-.664-1.461-1.037-2.425-1.136a6.737 6.737 0 0 0-.431-.037c-.014.003-.17.021-.346.039m1.016 1.537c.409.097.785.316 1.126.657.496.497.717 1.026.717 1.722s-.221 1.225-.717 1.722c-.497.496-1.026.717-1.722.717s-1.225-.221-1.722-.717c-.496-.497-.717-1.026-.717-1.722s.221-1.225.717-1.722c.334-.334.717-.56 1.108-.655a3.303 3.303 0 0 1 1.21-.002" fill-rule="evenodd" fill="#000"/></svg>