<svg width="24" height="24" fill="none" xmlns="http://www.w3.org/2000/svg"><path d="M11.163 1.287c-.35.05-.725.205-1.072.443-.334.23-.448.358-1.177 1.33-.731.973-.887 1.101-1.349 1.099-.329-.001-.498-.098-.998-.571-.887-.838-1.519-1.139-2.312-1.101-.455.021-.791.169-1.135.496-.273.261-.411.549-.574 1.197-.28 1.113-.305 1.742-.305 7.82s.025 6.707.305 7.82c.163.648.301.936.574 1.197.344.327.68.475 1.135.496.802.039 1.431-.264 2.336-1.124.231-.218.493-.431.584-.472.201-.092.561-.1.759-.017.241.101.416.289 1.039 1.117.661.88.818 1.053 1.169 1.29.84.568 1.876.568 2.716 0 .348-.235.509-.411 1.121-1.229.303-.406.617-.808.696-.893.309-.33.776-.434 1.154-.256.107.05.37.261.61.49.813.776 1.465 1.101 2.206 1.101.725 0 1.328-.385 1.59-1.015.271-.65.427-1.531.485-2.737.05-1.025.05-10.511 0-11.536-.058-1.206-.214-2.087-.485-2.738-.15-.361-.468-.679-.863-.864-.228-.106-.331-.13-.634-.143-.795-.035-1.446.278-2.318 1.112-.227.218-.482.421-.59.472-.379.178-.845.075-1.155-.256a19.306 19.306 0 0 1-.696-.893c-.304-.405-.627-.812-.718-.903a2.646 2.646 0 0 0-1.474-.736 3.65 3.65 0 0 0-.34-.038l-.284.042m.701 1.549c.235.107.378.264 1.052 1.158.646.855.909 1.127 1.297 1.342.525.291 1.203.393 1.752.264.519-.122.91-.361 1.478-.905.435-.416.745-.631 1.016-.703.349-.094.46.057.618.838.161.794.169 1.177.152 7.53-.014 5.465-.023 6.139-.082 6.477-.095.537-.223.988-.314 1.103-.2.254-.7.025-1.39-.635a6.77 6.77 0 0 0-.577-.501 2.494 2.494 0 0 0-2.653-.14c-.388.215-.651.487-1.297 1.342-.33.437-.665.86-.744.939-.39.39-.953.391-1.342.002-.079-.078-.416-.504-.751-.945-.334-.442-.716-.901-.848-1.021a2.98 2.98 0 0 0-1.111-.585c-.299-.069-.845-.059-1.157.023-.513.134-.846.348-1.469.944-.465.445-.749.625-1.048.665-.227.031-.329-.084-.439-.492-.236-.874-.227-.572-.227-7.536 0-6.964-.009-6.662.227-7.536.11-.408.212-.523.439-.492.292.039.592.23 1.052.67.62.591.954.806 1.465.939.312.082.858.092 1.157.023a2.98 2.98 0 0 0 1.111-.585c.132-.12.514-.579.848-1.021.335-.441.672-.867.751-.945a.948.948 0 0 1 .67-.291c.11 0 .274.033.364.074M7.641 9.564c-.254.102-.373.318-.373.677 0 .325.089.526.286.648l.146.091h8.6l.146-.091c.198-.123.286-.323.286-.654 0-.298-.074-.468-.265-.611l-.113-.084-4.307-.008c-2.786-.005-4.342.007-4.406.032m.076 3.474c-.312.096-.449.317-.449.727 0 .298.074.468.265.611.113.084.12.084 3.467.084s3.354 0 3.467-.084c.191-.143.265-.313.265-.611 0-.331-.088-.531-.286-.654l-.146-.091-3.24-.007c-1.782-.004-3.287.007-3.343.025" fill-rule="evenodd" fill="#000"/></svg>