<svg width="22" height="22" fill="none" xmlns="http://www.w3.org/2000/svg"><path d="M7.058.312a7.667 7.667 0 0 0-4.53 2.216 7.63 7.63 0 0 0-2.235 4.74c-.112 1.138.04 1.457.695 1.458.365.001.554-.088.662-.311.062-.127.085-.274.111-.686.018-.288.051-.631.073-.762a6.261 6.261 0 0 1 1.837-3.466A6.074 6.074 0 0 1 5.83 2.14c.233-.089.733-.238.733-.219 0 .005-.074.141-.165.3-.194.339-.25.518-.218.692.054.284.487.607.815.607.337 0 .417-.09 1.121-1.263l.592-.987.011-.278C8.728.758 8.716.693 8.646.57c-.14-.241-.274-.294-.763-.302a7.01 7.01 0 0 0-.825.044m4.005 3.466c-2.183.158-3.27 1.262-3.387 3.437l-.023.438-.426.023c-2.046.112-3.113 1.042-3.416 2.976-.059.375-.088 3.286-.04 4.019.083 1.269.372 2.047.976 2.631.602.581 1.34.846 2.582.927.9.059 3.612.019 4.108-.06 1.85-.294 2.777-1.385 2.887-3.396l.023-.426.426-.023c2.027-.111 3.104-1.037 3.402-2.926.057-.361.066-.671.066-2.341.001-2.013-.014-2.265-.169-2.879-.292-1.155-1.012-1.905-2.128-2.218-.607-.171-.87-.191-2.707-.202-.958-.007-1.937.002-2.174.02m3.887 1.505c.945.105 1.417.433 1.641 1.14.149.47.173.914.156 2.89-.017 2-.029 2.118-.255 2.613-.19.416-.494.651-1.035.799-.251.069-1.065.151-1.104.112-.009-.009-.016-.422-.016-.918 0-.966-.032-1.353-.151-1.817-.326-1.278-1.075-1.999-2.411-2.318-.357-.085-.485-.095-1.508-.116l-1.118-.023.011-.275c.057-1.382.515-1.928 1.748-2.085.376-.047 3.619-.049 4.042-.002m-4.17 3.9c1.172.038 1.705.393 1.951 1.298.071.258.079.42.103 2.022.015.958.012 1.957-.005 2.219-.066.993-.328 1.507-.903 1.77-.511.234-.652.246-2.851.246-2.117 0-2.294-.012-2.761-.186-.444-.166-.701-.423-.865-.866-.179-.481-.187-.607-.187-2.761.001-2.237.01-2.342.242-2.846.128-.276.36-.523.611-.652.242-.123.682-.227 1.082-.256.366-.026 2.67-.019 3.583.012m10.04 4.095c-.229.034-.373.124-.468.292-.063.114-.084.239-.112.682-.019.299-.052.65-.074.781a6.298 6.298 0 0 1-4.482 4.987 1.734 1.734 0 0 1-.247.059c0-.005.074-.141.165-.3.28-.49.295-.7.069-.963-.24-.281-.675-.414-.924-.284-.178.093-.287.247-.884 1.245l-.59.986.001.261c.001.309.093.509.289.623.357.208 1.827.055 2.897-.303a7.796 7.796 0 0 0 4.842-4.752c.38-1.077.561-2.659.347-3.026-.136-.233-.453-.343-.829-.288" fill-rule="evenodd" fill="#000"/></svg>