<svg width="24" height="24" fill="none" xmlns="http://www.w3.org/2000/svg"><path d="M11.52 1.265c-2.341.116-4.483.921-6.298 2.37-1.539 1.227-2.816 3.073-3.441 4.973A10.203 10.203 0 0 0 1.24 12c0 1.231.16 2.237.541 3.392 1.187 3.608 4.227 6.32 7.983 7.124.959.205 2.426.276 3.396.164 4.275-.491 7.853-3.466 9.093-7.56.318-1.049.444-1.934.444-3.12 0-1.186-.126-2.071-.444-3.12-1.044-3.445-3.746-6.129-7.229-7.179-1.057-.318-2.426-.489-3.504-.436m1.562 1.552a9.27 9.27 0 0 1 7.578 6.001c.364.983.548 2.04.55 3.162a8.875 8.875 0 0 1-.449 2.901 9.267 9.267 0 0 1-7.833 6.321c-.633.068-1.891.03-2.488-.076-2.035-.362-3.743-1.274-5.161-2.754-3.409-3.558-3.412-9.184-.007-12.737 1.18-1.232 2.561-2.073 4.157-2.532.43-.124 1.234-.279 1.631-.315.434-.039 1.607-.023 2.022.029m-1.945 4.285c-.633.107-1.341.396-1.965.802-.299.195-1.073.969-1.268 1.268-.591.908-.864 1.8-.864 2.828 0 1.366.517 2.597 1.486 3.545a4.83 4.83 0 0 0 3.482 1.415c1.377-.001 2.59-.515 3.557-1.506.916-.94 1.395-2.126 1.395-3.454 0-1.37-.513-2.594-1.486-3.545a4.938 4.938 0 0 0-2.742-1.372c-.384-.057-1.195-.048-1.595.019m1.703 1.512c.533.137.977.369 1.391.725a3.536 3.536 0 0 1 1.176 1.901c.07.288.07 1.232 0 1.52a3.536 3.536 0 0 1-1.176 1.901c-.653.563-1.314.799-2.231.799-.566 0-.792-.037-1.246-.205-.863-.32-1.689-1.146-2.009-2.009-.168-.454-.205-.68-.205-1.246s.037-.792.205-1.246c.386-1.041 1.437-1.947 2.495-2.151.121-.023.256-.051.3-.061.154-.035 1.082.016 1.3.072" fill-rule="evenodd" fill="#000"/></svg>