<svg width="24" height="24" fill="none" xmlns="http://www.w3.org/2000/svg"><path d="m17.54 4.903-.152.035c-.131.029-.449.309-.531.468-.076.146-.072.407.007.566.035.07.39.457.79.858l.725.73h-4.825c-3.069 0-4.976.015-5.24.042-2.455.248-4.475 2.008-5.027 4.378a5.748 5.748 0 0 0 3.992 6.844c.748.217.71.216 5.461.216 4.11 0 4.409-.005 4.537-.07.246-.125.303-.249.303-.65 0-.384-.041-.483-.275-.658-.11-.081-.144-.082-4.598-.103l-4.487-.02-.388-.107a4.347 4.347 0 0 1-1.944-1.109c-.73-.731-1.149-1.611-1.241-2.608A4.228 4.228 0 0 1 6.98 9.511a4.684 4.684 0 0 1 1.06-.375c.277-.066.674-.072 5.259-.085l4.959-.015-.644.652c-.354.359-.682.715-.729.792-.217.358.007.875.464 1.066a.539.539 0 0 0 .485-.014c.16-.074 2.625-2.495 2.891-2.838.087-.114.169-.269.181-.346.051-.31.008-.364-1.481-1.861-.773-.777-1.458-1.441-1.523-1.475-.139-.073-.306-.124-.362-.109" fill-rule="evenodd" fill="#000"/></svg>