<svg width="24" height="24" fill="none" xmlns="http://www.w3.org/2000/svg"><path d="M11.52 1.267c-2.805.11-5.631 1.43-7.471 3.49-1.748 1.956-2.731 4.409-2.778 6.929-.012.63.021.751.254.924.226.168.724.168.95 0 .215-.16.25-.28.287-.98.018-.358.053-.782.076-.943.495-3.412 2.838-6.276 6.054-7.402 1.091-.381 1.952-.525 3.147-.525 1.712 0 3.229.358 4.741 1.119 1.135.571 2.134 1.308 3.119 2.298l.599.603-1.599.02c-1.507.019-1.607.025-1.735.1-.273.161-.396.478-.327.845a.646.646 0 0 0 .327.475c.131.077.227.081 2.47.1 2.77.024 2.777.023 3.027-.355l.101-.152-.003-2.637c-.002-1.45-.018-2.714-.036-2.81-.07-.363-.305-.538-.723-.538s-.653.175-.723.538c-.018.096-.034.81-.035 1.588l-.002 1.415-.444-.425c-1.634-1.567-3.452-2.642-5.436-3.218-1.139-.331-2.615-.507-3.84-.459m10.267 10.011a.655.655 0 0 0-.441.316c-.059.101-.08.26-.107.783-.072 1.42-.382 2.6-1.006 3.832-.435.857-.89 1.486-1.611 2.225-.817.839-1.559 1.38-2.562 1.869a8.908 8.908 0 0 1-4.032.936c-1.294-.001-2.319-.245-3.528-.838-1.218-.598-2.475-1.581-3.505-2.741l-.391-.44 1.648-.02c1.556-.019 1.656-.024 1.784-.1.251-.148.304-.262.304-.66s-.053-.512-.304-.66c-.131-.077-.227-.081-2.516-.1-2.896-.024-2.894-.025-3.09.414l-.092.206.021 2.72.021 2.72.091.146c.123.198.323.286.654.286.298 0 .468-.074.611-.265.082-.109.084-.159.095-1.67a43.88 43.88 0 0 1 .026-1.557c.008 0 .246.231.529.513 1.144 1.142 2.242 1.947 3.474 2.548 1.264.616 2.298.896 3.62.979 2.437.152 4.944-.617 6.99-2.145.617-.46 1.645-1.488 2.105-2.105a10.836 10.836 0 0 0 2.042-4.813c.083-.539.146-1.635.105-1.851-.076-.407-.457-.622-.935-.528" fill-rule="evenodd" fill="#000"/></svg>