<svg width="24" height="24" fill="none" xmlns="http://www.w3.org/2000/svg"><path d="M8.08 1.282c-4.072.213-6.185 2.014-6.697 5.709-.113.812-.141 1.825-.141 5.009 0 4.504.06 5.273.518 6.65.772 2.313 2.446 3.576 5.267 3.972.759.106 1.875.137 4.973.137s4.214-.031 4.973-.137c2.47-.347 4.023-1.334 4.924-3.132.482-.96.741-2.121.823-3.683.051-.969.051-6.645 0-7.614-.063-1.195-.199-2.002-.478-2.837-.61-1.825-1.773-2.989-3.592-3.596-.862-.287-1.627-.416-2.844-.48-.854-.045-6.854-.043-7.726.002m8.72 1.572c2.786.462 3.914 1.6 4.348 4.386.066.421.072.824.072 4.76s-.006 4.339-.072 4.76c-.436 2.798-1.59 3.952-4.388 4.388-.421.066-.824.072-4.76.072s-4.339-.006-4.76-.072c-2.79-.435-3.957-1.597-4.386-4.368-.069-.445-.074-.791-.074-4.78 0-4.753-.004-4.663.264-5.712C3.557 4.282 4.722 3.274 6.96 2.9c.73-.123 1.088-.131 5.24-.123 3.763.007 4.222.014 4.6.077m-5.42 2.933c-1.523.187-2.779.782-3.795 1.798a6.13 6.13 0 0 0-1.81 4.135c-.021.469-.016.511.072.679.13.25.286.33.65.332.22.001.327-.017.428-.075.186-.107.315-.374.316-.654.003-.95.362-2.048.909-2.785 1.283-1.728 3.302-2.358 5.51-1.717.572.166 1.515.695 2.018 1.133l.179.155-.546.021c-.64.024-.759.071-.901.35-.186.367-.073.885.23 1.06.131.076.228.082 1.48.101 1.678.025 1.816.002 2.028-.332l.106-.168-.009-1.62c-.009-1.54-.014-1.628-.092-1.791-.11-.232-.303-.329-.653-.329a.892.892 0 0 0-.421.08c-.248.127-.295.257-.319.873l-.02.533-.34-.266c-1.059-.83-2.187-1.309-3.483-1.48-.407-.054-1.225-.072-1.537-.033m5.915 5.49c-.379.063-.511.278-.551.903a9.29 9.29 0 0 1-.066.651c-.087.547-.387 1.293-.737 1.829-.202.309-.972 1.079-1.281 1.281a4.931 4.931 0 0 1-2.1.769c-.421.054-.568.056-.931.016-.946-.105-1.868-.551-2.706-1.31l-.217-.196.581-.023c.634-.025.761-.065.929-.29.071-.095.084-.169.084-.467 0-.398-.053-.512-.304-.66-.127-.075-.228-.081-1.496-.1-1.751-.026-1.884.001-2.071.414l-.094.206.023 1.607c.021 1.543.025 1.612.104 1.718.164.219.281.274.611.287.347.014.522-.051.664-.245.071-.096.086-.189.103-.646l.02-.534.34.278c1.3 1.062 2.586 1.527 4.052 1.464 2.312-.099 4.306-1.4 5.363-3.498.338-.673.578-1.635.612-2.451.019-.468.014-.512-.074-.679a.685.685 0 0 0-.213-.246c-.147-.081-.424-.115-.645-.078" fill-rule="evenodd" fill="#000"/></svg>