<svg width="24" height="24" fill="none" xmlns="http://www.w3.org/2000/svg"><path d="M8.08 1.282c-4.072.213-6.185 2.014-6.697 5.709-.113.812-.141 1.825-.141 5.009 0 4.504.06 5.273.518 6.65.772 2.313 2.446 3.576 5.267 3.972.759.106 1.875.137 4.973.137s4.214-.031 4.973-.137c2.47-.347 4.023-1.334 4.924-3.132.482-.96.741-2.121.823-3.683.051-.969.051-6.645 0-7.614-.063-1.195-.199-2.002-.478-2.837-.61-1.825-1.773-2.989-3.592-3.596-.862-.287-1.627-.416-2.844-.48-.854-.045-6.854-.043-7.726.002m8.72 1.572c2.786.462 3.914 1.6 4.348 4.386.066.421.072.824.072 4.76s-.006 4.339-.072 4.76c-.436 2.798-1.59 3.952-4.388 4.388-.421.066-.824.072-4.76.072s-4.339-.006-4.76-.072c-2.79-.435-3.957-1.597-4.386-4.368-.069-.445-.074-.791-.074-4.78 0-4.753-.004-4.663.264-5.712C3.557 4.282 4.722 3.274 6.96 2.9c.73-.123 1.088-.131 5.24-.123 3.763.007 4.222.014 4.6.077M12.435 5.04c-.08.043-.218.16-.307.261-.284.323-.26.589.091 1l.177.208-.588.023c-.669.027-1.186.124-1.74.324-3.696 1.338-4.99 5.858-2.567 8.966.807 1.036 2.004 1.774 3.349 2.065.591.129 1.709.129 2.3 0 2.542-.55 4.376-2.635 4.567-5.188.058-.783-.041-1.604-.275-2.279-.224-.643-.584-1.316-.829-1.546-.226-.213-.548-.22-.852-.019-.416.275-.48.598-.211 1.055.545.92.72 1.577.679 2.541-.034.791-.216 1.383-.636 2.072-.251.41-.848 1.021-1.263 1.29-.812.528-1.835.779-2.744.673-1.056-.123-1.845-.501-2.589-1.244a4.149 4.149 0 0 1-1.122-1.955c-.105-.398-.143-1.2-.078-1.651.229-1.592 1.403-2.956 2.959-3.438.512-.159 1.353-.24 1.697-.163.113.025.111.027-.14.203-.7.494-.803.741-.503 1.214.225.357.563.482.884.327.105-.05 1.731-1.218 2.179-1.564.284-.22.365-.547.21-.847-.042-.081-.422-.544-.844-1.028-.909-1.041-1.103-1.247-1.247-1.323-.149-.078-.384-.068-.557.023" fill-rule="evenodd" fill="#000"/></svg>