<svg width="24" height="24" fill="none" xmlns="http://www.w3.org/2000/svg"><path d="M11.32 1.281c-4.279.244-8.068 3.128-9.477 7.216a10.886 10.886 0 0 0-.279 6.053 10.76 10.76 0 0 0 7.886 7.886 10.96 10.96 0 0 0 5.1 0 10.76 10.76 0 0 0 7.886-7.886 10.96 10.96 0 0 0 0-5.1 10.758 10.758 0 0 0-8.694-8.052c-.408-.067-1.668-.169-1.862-.151l-.56.034m1.826 1.541a9.086 9.086 0 0 1 2.914.874c2.817 1.383 4.708 4.026 5.118 7.158.123.932.066 2.172-.144 3.144-.289 1.345-1.031 2.857-1.913 3.902a9.31 9.31 0 0 1-3.061 2.404 8.94 8.94 0 0 1-4.06.936 8.93 8.93 0 0 1-4.06-.936c-2.817-1.383-4.708-4.026-5.118-7.158-.123-.932-.066-2.172.144-3.144.211-.982.737-2.227 1.302-3.082a9.335 9.335 0 0 1 6.552-4.097c.56-.077 1.749-.077 2.326-.001m2.71 3.299a.607.607 0 0 0-.375.394c-.022.08-.041.384-.041.675 0 .291-.011.53-.024.53a.827.827 0 0 1-.17-.115c-.37-.291-1.025-.626-1.566-.8a5.587 5.587 0 0 0-3.526.055c-1.436.517-2.626 1.642-3.182 3.005-.186.457-.334 1.048-.359 1.435-.019.29-.012.333.073.457.127.183.346.289.646.31.281.02.467-.052.599-.232.043-.058.128-.33.19-.605.199-.883.513-1.477 1.075-2.032.603-.596 1.23-.927 2.084-1.1.491-.1 1.29-.064 1.78.08.401.118.75.27 1.02.445l.18.117-.547.02c-.471.017-.563.031-.658.102-.226.169-.275.279-.275.611 0 .359.08.536.301.666.131.076.224.082 1.539.103 1.778.027 1.976 0 2.196-.295.082-.111.084-.148.084-1.78 0-1.563-.005-1.675-.075-1.792a.687.687 0 0 0-.196-.195c-.141-.083-.586-.117-.773-.059m.427 5.866c-.215.114-.283.246-.404.783-.062.275-.17.638-.24.806-.446 1.071-1.405 1.906-2.579 2.247-.491.143-1.291.178-1.78.079-.543-.11-1.093-.325-1.42-.557l-.12-.085.547-.02c.471-.017.563-.031.658-.102.226-.169.275-.279.275-.611 0-.359-.08-.536-.301-.666-.13-.076-.224-.082-1.519-.102-1.798-.027-1.996-.001-2.216.294-.082.111-.084.148-.084 1.78 0 1.563.005 1.675.075 1.792.127.209.282.275.645.275.363 0 .518-.066.645-.275.063-.105.077-.224.089-.735.007-.335.022-.61.034-.61.011 0 .086.052.166.115.715.563 1.78.959 2.8 1.041a5.483 5.483 0 0 0 5-2.405c.62-.911 1.022-2.443.74-2.82-.185-.248-.735-.37-1.011-.224" fill-rule="evenodd" fill="#000"/></svg>