<svg width="24" height="24" fill="none" xmlns="http://www.w3.org/2000/svg"><path d="M11.28 1.281c-1.645.094-3.106.479-4.62 1.219-1.272.621-2.349 1.382-3.456 2.444l-.444.425-.002-1.195c-.001-.657-.017-1.272-.035-1.368-.07-.363-.305-.538-.723-.538s-.653.175-.723.538c-.018.096-.034 1.261-.036 2.59l-.003 2.417.101.152c.25.378.257.379 3.027.355 2.243-.019 2.339-.023 2.47-.1a.646.646 0 0 0 .327-.475c.069-.367-.054-.684-.327-.845-.128-.075-.228-.081-1.735-.1l-1.599-.02.599-.603c1.938-1.949 4.149-3.065 6.654-3.358.579-.068 1.749-.078 2.246-.019 3.696.436 6.684 2.876 7.81 6.38.296.919.429 1.796.429 2.821 0 2.55-.978 4.848-2.827 6.641a9.06 9.06 0 0 1-3.753 2.215c-.686.208-.86.351-.86.708.001.387.173.714.434.823.194.082.421.046 1.063-.165a10.462 10.462 0 0 0 3.683-2.068c2.049-1.756 3.312-4.096 3.682-6.82.087-.641.087-2.026-.001-2.675-.401-2.981-1.893-5.541-4.241-7.279a9.14 9.14 0 0 0-1.62-.996c-1.713-.852-3.535-1.216-5.52-1.104m-9.493 9.997a.658.658 0 0 0-.446.326c-.07.119-.079.199-.071.656.015.865.139 1.727.375 2.6.138.51.26.721.467.807.298.125.819-.033.998-.303.121-.182.115-.369-.027-.904-.196-.735-.322-1.573-.325-2.159-.003-.57-.087-.802-.342-.947-.144-.081-.427-.115-.629-.076m1.653 5.686c-.357.214-.509.465-.46.758.066.387 1.182 1.715 2.07 2.462.425.357.546.423.776.423.491 0 .906-.7.655-1.105-.043-.07-.219-.246-.39-.391a11.988 11.988 0 0 1-1.545-1.637c-.187-.25-.394-.486-.46-.524-.165-.098-.47-.091-.646.014m4.576 3.672c-.174.106-.287.263-.356.497-.078.263-.076.329.02.527.095.196.239.285.776.48.72.26 1.646.463 2.483.545.581.056.756.024.917-.168.201-.239.243-.765.078-.986-.162-.218-.249-.25-.876-.331-.958-.122-1.483-.243-2.258-.518-.393-.139-.61-.152-.784-.046" fill-rule="evenodd" fill="#000"/></svg>