<svg width="24" height="24" fill="none" xmlns="http://www.w3.org/2000/svg"><path d="M8.08 1.282c-4.072.213-6.185 2.014-6.697 5.709-.113.812-.141 1.825-.141 5.009 0 4.504.06 5.273.518 6.65.772 2.313 2.446 3.576 5.267 3.972.759.106 1.875.137 4.973.137s4.214-.031 4.973-.137c2.47-.347 4.023-1.334 4.924-3.132.482-.96.741-2.121.823-3.683.051-.969.051-6.645 0-7.614-.063-1.195-.199-2.002-.478-2.837-.61-1.825-1.773-2.989-3.592-3.596-.862-.287-1.627-.416-2.844-.48-.854-.045-6.854-.043-7.726.002m8.72 1.572c2.786.462 3.914 1.6 4.348 4.386.066.421.072.824.072 4.76s-.006 4.339-.072 4.76c-.436 2.798-1.59 3.952-4.388 4.388-.421.066-.824.072-4.76.072s-4.339-.006-4.76-.072c-2.79-.435-3.957-1.597-4.386-4.368-.069-.445-.074-.791-.074-4.78 0-4.753-.004-4.663.264-5.712C3.557 4.282 4.722 3.274 6.96 2.9c.73-.123 1.088-.131 5.24-.123 3.763.007 4.222.014 4.6.077m-5.822 2.181c-.132.08-.381.349-1.356 1.465-.346.396-.663.787-.706.868-.154.3-.073.626.211.847.426.331 2.073 1.513 2.179 1.564.321.155.659.03.884-.327.3-.473.197-.72-.503-1.214-.251-.176-.253-.178-.14-.203.514-.115 1.542.054 2.233.368.918.416 1.746 1.278 2.142 2.227.245.59.291.842.295 1.61.003.769-.049 1.059-.3 1.662-.299.717-.942 1.492-1.587 1.911-.812.528-1.835.779-2.744.673-1.056-.123-1.845-.501-2.589-1.244-.784-.78-1.179-1.681-1.226-2.791-.036-.843.101-1.462.479-2.171l.282-.534c.171-.328.063-.656-.293-.891-.304-.201-.626-.194-.852.019-.353.331-.846 1.4-1.005 2.178-.58 2.837.978 5.632 3.686 6.612.674.244 1.096.312 1.932.312.836 0 1.258-.068 1.932-.312 2.14-.775 3.62-2.712 3.784-4.954.19-2.608-1.334-4.967-3.784-5.854-.554-.2-1.071-.297-1.74-.324l-.588-.023.177-.208c.351-.411.375-.677.091-1.001-.284-.323-.631-.426-.894-.265" fill-rule="evenodd" fill="#000"/></svg>