<svg width="24" height="24" fill="none" xmlns="http://www.w3.org/2000/svg"><path d="M13.806 2.246c-.192.055-.51.387-.565.589-.089.333-.028.434.692 1.139l.647.634-3.041-.024c-1.887-.014-3.242-.008-3.568.017-2.299.175-4.317 1.385-5.589 3.352a8.964 8.964 0 0 0-.78 1.64 7.398 7.398 0 0 0 0 4.494c.325.998 1.036 2.159 1.726 2.819.443.424.754.426 1.13.008.314-.35.3-.606-.058-1.019-.781-.901-1.12-1.474-1.399-2.362a5.384 5.384 0 0 1-.248-1.693c0-.668.079-1.173.282-1.791a5.498 5.498 0 0 1 1.39-2.264 5.725 5.725 0 0 1 2.491-1.489c.75-.217.719-.216 5.375-.216 3.524 0 4.335-.01 4.44-.054.176-.073.414-.347.473-.542.094-.317.026-.409-1.117-1.515-1.605-1.553-1.745-1.679-1.915-1.726-.175-.049-.186-.049-.366.003m6.052 4.589c-.206.094-.488.413-.521.59-.046.24.013.391.263.68.816.942 1.166 1.553 1.44 2.515.155.544.207.936.207 1.556a5.649 5.649 0 0 1-1.691 4.059 5.741 5.741 0 0 1-2.472 1.469c-.75.217-.719.216-5.375.216-3.524 0-4.335.01-4.44.054-.176.073-.414.347-.473.542-.094.317-.026.409 1.117 1.515 1.632 1.579 1.744 1.68 1.925 1.729.245.065.452-.007.684-.238.233-.234.303-.437.237-.692-.038-.144-.144-.267-.692-.804l-.647-.634 3.041.024c1.926.015 3.24.008 3.58-.017 2.283-.174 4.323-1.402 5.58-3.359 1.318-2.053 1.495-4.722.457-6.912-.587-1.239-1.529-2.366-1.978-2.366a.825.825 0 0 0-.242.073M8.787 11.278c-.342.068-.519.314-.519.722 0 .462.207.693.663.739.137.015 1.617.02 3.289.014 2.956-.013 3.044-.015 3.176-.093a.646.646 0 0 0 .327-.475c.069-.367-.054-.684-.327-.845-.133-.078-.214-.08-3.296-.086-1.738-.003-3.229.007-3.313.024" fill-rule="evenodd" fill="#000"/></svg>