<svg width="24" height="24" fill="none" xmlns="http://www.w3.org/2000/svg"><path d="M6.483 1.282c-.129.059-.623.523-1.84 1.729C2.925 4.715 2.801 4.859 2.801 5.16c0 .301.123.444 1.859 2.164C6.515 9.16 6.546 9.185 6.885 9.083c.09-.027.24-.12.335-.207.294-.271.368-.538.232-.83-.038-.082-.496-.579-1.048-1.136l-.979-.991 6.258.011 6.257.01.238.09c.735.277 1.342.996 1.46 1.73.024.153.042 1.018.042 2.102 0 1.83.001 1.842.09 2.019.127.25.281.328.65.328s.523-.078.651-.33l.092-.179-.013-2.08c-.012-2.007-.016-2.091-.102-2.4a3.85 3.85 0 0 0-2.056-2.46 5.032 5.032 0 0 0-.655-.23l-.397-.109-6.256-.012-6.255-.012.977-.988c.55-.557 1.008-1.053 1.046-1.135a.63.63 0 0 0 .03-.489c-.097-.254-.515-.583-.742-.583a.896.896 0 0 0-.257.08m-3.13 10.516a.553.553 0 0 0-.439.346c-.075.169-.077.263-.065 2.246.016 2.339.016 2.342.353 3.047.493 1.032 1.33 1.723 2.461 2.033l.397.109 6.256.012 6.256.012-.978.988c-.557.563-1.008 1.052-1.046 1.135-.136.293-.062.559.232.83.095.087.245.18.335.207.339.102.37.077 2.225-1.759 1.736-1.72 1.859-1.863 1.859-2.164 0-.301-.123-.444-1.859-2.164-1.855-1.836-1.886-1.861-2.225-1.759-.09.027-.24.12-.335.207-.294.271-.368.538-.232.83.038.082.496.579 1.048 1.136l.979.991-6.258-.011-6.257-.01-.238-.09c-.724-.273-1.328-.98-1.459-1.707-.027-.147-.043-.954-.043-2.102 0-1.854 0-1.865-.09-2.042a.657.657 0 0 0-.21-.243c-.144-.08-.465-.118-.667-.078" fill-rule="evenodd" fill="#000"/></svg>