<svg width="24" height="24" fill="none" xmlns="http://www.w3.org/2000/svg"><path d="M11.32 1.281c-4.279.244-8.068 3.128-9.477 7.216a10.886 10.886 0 0 0-.279 6.053 10.76 10.76 0 0 0 7.886 7.886 10.96 10.96 0 0 0 5.1 0 10.76 10.76 0 0 0 7.886-7.886 10.96 10.96 0 0 0 0-5.1 10.758 10.758 0 0 0-8.694-8.052c-.408-.067-1.668-.169-1.862-.151l-.56.034m1.826 1.541a9.086 9.086 0 0 1 2.914.874c2.817 1.383 4.708 4.026 5.118 7.158.123.932.066 2.172-.144 3.144-.289 1.345-1.031 2.857-1.913 3.902a9.31 9.31 0 0 1-3.061 2.404 8.94 8.94 0 0 1-4.06.936 8.93 8.93 0 0 1-4.06-.936c-2.817-1.383-4.708-4.026-5.118-7.158-.123-.932-.066-2.172.144-3.144.211-.982.737-2.227 1.302-3.082a9.335 9.335 0 0 1 6.552-4.097c.56-.077 1.749-.077 2.326-.001M8.88 5.963c-.077.047-.529.471-1.005.942-.475.47-.883.855-.906.855-.074 0-.249.407-.249.58 0 .174.175.58.25.58.023 0 .44.394.926.875.486.482.942.905 1.012.94.158.08.42.084.564.008.125-.065.378-.323.443-.45s.055-.397-.019-.545a2.396 2.396 0 0 0-.329-.398l-.265-.27 2.879.001c2.707.001 2.889.005 3.039.074.088.041.211.125.274.188.243.246.244.256.266 1.517.017 1.01.029 1.177.091 1.29.103.188.33.29.649.29.354 0 .542-.096.659-.338.085-.175.087-.211.071-1.431-.014-1.179-.02-1.265-.106-1.5a2.5 2.5 0 0 0-1.467-1.461c-.236-.09-.25-.09-3.289-.11l-3.051-.02.206-.2c.114-.11.258-.27.322-.356.231-.312.127-.708-.265-1.007-.201-.153-.504-.177-.7-.054m-1.813 5.681a.485.485 0 0 0-.233.261c-.075.17-.079.251-.064 1.428.014 1.175.02 1.261.106 1.496a2.51 2.51 0 0 0 1.455 1.457l.249.092 3.052.021 3.051.021-.206.2c-.351.34-.437.482-.437.72 0 .506.623.935 1.043.719.076-.039.535-.464 1.022-.945.487-.481.904-.874.927-.874.073 0 .248-.408.248-.58 0-.174-.175-.58-.25-.58-.023 0-.44-.394-.926-.875-.486-.482-.946-.907-1.021-.945-.276-.139-.546-.07-.808.207-.191.201-.235.294-.235.492 0 .228.085.377.394.692l.266.271-2.92-.011c-3.21-.012-3.015.003-3.275-.256-.241-.242-.243-.254-.265-1.515-.023-1.308-.032-1.353-.319-1.5-.217-.11-.641-.108-.854.004" fill-rule="evenodd" fill="#000"/></svg>