<svg width="24" height="24" fill="none" xmlns="http://www.w3.org/2000/svg"><path d="M13.806 2.246c-.192.055-.51.387-.565.589-.089.333-.028.434.692 1.139l.647.634-3.041-.024c-1.887-.014-3.242-.008-3.568.017-2.299.175-4.317 1.385-5.589 3.352a8.964 8.964 0 0 0-.78 1.64c-.567 1.741-.444 3.69.333 5.307.52 1.084 1.378 2.171 1.816 2.302.226.068.466-.024.687-.264.363-.394.332-.659-.135-1.168-1.037-1.132-1.55-2.432-1.55-3.93 0-.668.079-1.173.282-1.791a5.498 5.498 0 0 1 1.39-2.264 5.725 5.725 0 0 1 2.491-1.489c.75-.217.719-.216 5.375-.216 3.524 0 4.335-.01 4.44-.054.176-.073.414-.347.473-.542.094-.317.026-.409-1.117-1.515-1.605-1.553-1.745-1.679-1.915-1.726-.175-.049-.186-.049-.366.003m6.052 4.589c-.206.094-.488.413-.521.59-.046.24.013.391.263.68.816.942 1.166 1.553 1.44 2.515.155.544.207.936.207 1.556a5.649 5.649 0 0 1-1.691 4.059 5.741 5.741 0 0 1-2.472 1.469c-.75.217-.719.216-5.375.216-3.524 0-4.335.01-4.44.054-.176.073-.414.347-.473.542-.094.317-.026.409 1.117 1.515 1.632 1.579 1.744 1.68 1.925 1.729.245.065.452-.007.684-.238.233-.234.303-.437.237-.692-.038-.144-.144-.267-.692-.804l-.647-.634 3.041.024c1.926.015 3.24.008 3.58-.017 2.283-.174 4.323-1.402 5.58-3.359 1.318-2.053 1.495-4.722.457-6.912-.587-1.239-1.529-2.366-1.978-2.366a.825.825 0 0 0-.242.073m-7.92 1.819c-.191.087-1.766 1.819-1.898 2.089-.147.299-.077.547.231.818.353.311.68.297 1.012-.044.105-.108.202-.197.214-.197.013 0 .023.815.023 1.81 0 1.644.007 1.823.07 1.947.125.246.249.303.65.303.384 0 .483-.041.658-.275.081-.11.082-.143.082-3.105s-.001-2.995-.082-3.105c-.157-.21-.281-.272-.569-.284a.981.981 0 0 0-.391.043" fill-rule="evenodd" fill="#000"/></svg>