<svg width="24" height="24" fill="none" xmlns="http://www.w3.org/2000/svg"><path d="M11.611 1.281c-1.074.113-2.06.821-2.536 1.819a2.831 2.831 0 0 0-.303 1.162l-.023.361-.384.134c-1.254.435-2.615 1.327-3.492 2.291C3.627 8.416 2.906 9.92 2.612 11.76c-.046.29-.065.875-.08 2.463l-.02 2.083-.258.112c-.307.134-.685.486-.826.77-.187.377-.197.477-.178 1.857.015 1.169.025 1.326.103 1.615.318 1.176 1.097 1.785 2.589 2.026.39.063 14.538.096 15.458.036 1.607-.105 2.5-.545 2.959-1.458.267-.532.321-.866.348-2.144.025-1.207-.001-1.508-.163-1.862-.138-.301-.486-.657-.8-.816l-.254-.129-.022-2.046c-.023-2.097-.043-2.395-.212-3.161a8.752 8.752 0 0 0-4.7-5.953 10.194 10.194 0 0 0-.921-.394l-.384-.133-.023-.363a3.096 3.096 0 0 0-.698-1.788c-.7-.879-1.767-1.315-2.919-1.194m.892 1.542c.276.08.647.327.834.556.164.2.337.551.369.75l.021.131h-3.454l.021-.131c.086-.53.597-1.101 1.153-1.291.27-.092.768-.099 1.056-.015m1.009 2.979a7.299 7.299 0 0 1 5.36 3.36c.372.591.748 1.496.91 2.191.156.668.177 1.019.177 2.977l.001 1.91H4v-1.57c.001-1.788.04-2.492.178-3.149a7.243 7.243 0 0 1 6.138-5.7c.478-.066 2.65-.078 3.196-.019m-4.725 4.476c-.342.068-.519.314-.519.722 0 .462.207.693.663.739.137.015 1.617.02 3.289.014 2.956-.013 3.044-.015 3.176-.093a.646.646 0 0 0 .327-.475c.069-.367-.054-.684-.327-.845-.133-.078-.214-.08-3.296-.086-1.738-.003-3.229.007-3.313.024m12.35 7.545c.107.106.116.24.089 1.234-.042 1.579-.147 1.804-.958 2.06l-.328.103-7.798.011c-8.52.011-8.231.018-8.742-.215-.317-.145-.467-.307-.568-.615-.077-.234-.088-.372-.103-1.352-.015-.957-.009-1.104.048-1.19l.065-.099h9.116c8.231 0 9.122.006 9.179.063" fill-rule="evenodd" fill="#000"/></svg>