<svg width="24" height="24" fill="none" xmlns="http://www.w3.org/2000/svg"><path d="M10.599 1.236a1.215 1.215 0 0 0-.195.088c-.051.031-.688.74-1.416 1.576-.728.836-1.419 1.625-1.536 1.753-.483.528-.496.862-.047 1.241.332.28 3.484 2.554 3.618 2.61a.81.81 0 0 0 .26.056c.289 0 .627-.325.719-.692.042-.165.037-.204-.041-.365-.092-.191-.05-.157-1.613-1.3-.37-.27-.667-.497-.66-.505.031-.03.889-.189 1.31-.241 2.127-.264 4.356.37 5.982 1.703.327.269.977.923 1.234 1.243.895 1.115 1.502 2.605 1.664 4.085.219 2.018-.408 4.186-1.666 5.751-.255.318-.906.973-1.232 1.24-2.343 1.92-5.691 2.303-8.437.965a7.46 7.46 0 0 1-2.19-1.589c-.673-.686-1.043-1.203-1.454-2.035-1.218-2.463-1.075-5.328.385-7.704.242-.394.256-.429.256-.664 0-.235-.008-.257-.159-.411-.309-.316-.681-.407-.945-.23-.231.154-.788 1.076-1.11 1.838a9.782 9.782 0 0 0-.684 2.639 13.169 13.169 0 0 0 0 2.064 9.443 9.443 0 0 0 4.118 6.787 9.496 9.496 0 0 0 4.208 1.539c.499.054 1.565.054 2.064 0a9.443 9.443 0 0 0 6.787-4.118 9.496 9.496 0 0 0 1.539-4.208c.054-.499.054-1.565 0-2.064a9.563 9.563 0 0 0-2.05-4.908A12.344 12.344 0 0 0 17.9 5.978a9.565 9.565 0 0 0-4.868-2.016c-.8-.087-2.125-.035-2.892.113-.11.021-.203.035-.207.031a28.49 28.49 0 0 1 .709-.826c.77-.881.944-1.147.902-1.375-.074-.392-.614-.774-.945-.669" fill-rule="evenodd" fill="#000"/></svg>