<svg width="24" height="24" fill="none" xmlns="http://www.w3.org/2000/svg"><path d="M8.393 1.28a7.764 7.764 0 0 0-6.75 5.302 7.534 7.534 0 0 0-.361 1.891c-.051.741.004.984.26 1.152.235.154.716.147.933-.015.203-.152.247-.285.286-.877.053-.797.131-1.199.358-1.837.32-.9.806-1.655 1.507-2.344.544-.535.954-.828 1.614-1.153.437-.215 1.32-.527 1.32-.467 0 .008-.081.156-.18.33-.099.173-.191.373-.204.444-.091.485.645.991 1.099.756a.74.74 0 0 0 .211-.19c.108-.142 1.058-1.721 1.175-1.952.083-.163.093-.54.018-.685-.179-.346-.445-.419-1.286-.355m3.163 5.002c-1.727.093-2.997.56-3.855 1.419-.881.88-1.318 2.096-1.421 3.95-.05.892-.05 4.806 0 5.698.103 1.854.54 3.07 1.421 3.95.88.881 2.096 1.318 3.95 1.421.892.05 4.806.05 5.698 0 1.854-.103 3.07-.54 3.95-1.421.881-.88 1.318-2.096 1.421-3.95.05-.892.05-4.806 0-5.698-.103-1.854-.54-3.07-1.421-3.95-.88-.881-2.096-1.318-3.95-1.421-.787-.044-4.975-.043-5.793.002m6.698 1.571c1.865.382 2.576 1.121 2.913 3.027.077.435.077 6.805 0 7.24-.343 1.942-1.105 2.704-3.047 3.047-.435.077-6.805.077-7.24 0-1.942-.343-2.704-1.105-3.047-3.047-.041-.233-.053-1.042-.053-3.62 0-3.536-.001-3.507.202-4.291.394-1.517 1.361-2.219 3.338-2.424.077-.008 1.598-.01 3.38-.005 2.793.007 3.283.018 3.554.073" fill-rule="evenodd" fill="#000"/></svg>