<svg width="24" height="24" fill="none" xmlns="http://www.w3.org/2000/svg"><path d="M14.793 1.278c-.388.075-.604.443-.511.868.021.094.275.565.584 1.08.625 1.043.704 1.157.859 1.236.454.235 1.19-.271 1.099-.756-.013-.071-.105-.271-.204-.444a5.405 5.405 0 0 1-.18-.33c0-.024.207.033.58.159a6.232 6.232 0 0 1 3.562 3.112c.412.822.589 1.502.657 2.53.039.592.083.725.286.877.217.162.698.169.933.015.257-.169.311-.41.259-1.165a7.726 7.726 0 0 0-3.44-5.918 8.056 8.056 0 0 0-2.33-1.039c-.663-.173-1.81-.292-2.154-.225M6.556 6.282c-1.727.093-2.997.56-3.855 1.419-.881.88-1.318 2.096-1.421 3.95-.05.892-.05 4.806 0 5.698.103 1.854.54 3.07 1.421 3.95.88.881 2.096 1.318 3.95 1.421.892.05 4.806.05 5.698 0 1.854-.103 3.07-.54 3.95-1.421.881-.88 1.318-2.096 1.421-3.95.05-.892.05-4.806 0-5.698-.103-1.854-.54-3.07-1.421-3.95-.88-.881-2.096-1.318-3.95-1.421-.787-.044-4.975-.043-5.793.002m6.698 1.571c1.865.382 2.576 1.121 2.913 3.027.077.435.077 6.805 0 7.24-.343 1.942-1.105 2.704-3.047 3.047-.435.077-6.805.077-7.24 0-1.942-.343-2.704-1.105-3.047-3.047-.041-.233-.053-1.042-.053-3.62 0-3.536-.001-3.507.202-4.291.394-1.517 1.361-2.219 3.338-2.424.077-.008 1.598-.01 3.38-.005 2.793.007 3.283.018 3.554.073" fill-rule="evenodd" fill="#000"/></svg>