<svg width="24" height="24" fill="none" xmlns="http://www.w3.org/2000/svg"><path d="M12.96 1.309c-.249.13-.464.383-.503.592-.043.232.127.494.901 1.379.394.45.713.822.709.827a2.466 2.466 0 0 1-.287-.045c-.934-.176-2.449-.185-3.38-.022-3.944.692-6.975 3.729-7.685 7.7-.082.458-.093.646-.093 1.58s.011 1.122.093 1.58c.779 4.357 4.318 7.541 8.687 7.818a9.403 9.403 0 0 0 9.878-7.798c.112-.639.153-1.914.082-2.568-.158-1.459-.674-2.934-1.433-4.096-.193-.295-.271-.38-.416-.45-.211-.102-.306-.107-.502-.025-.363.152-.571.407-.571.703 0 .151.038.247.214.54.852 1.421 1.2 2.535 1.254 4.016a7.914 7.914 0 0 1-5.93 7.96 8.221 8.221 0 0 1-3.956 0A7.927 7.927 0 0 1 4.899 9.82 7.844 7.844 0 0 1 8.5 6.219c1.646-.814 3.423-1.019 5.379-.619.231.047.425.091.432.098.007.007-.481.375-1.085.817-.983.719-1.108.824-1.189.991-.081.168-.085.205-.042.365.097.366.436.689.722.689a.798.798 0 0 0 .261-.057c.134-.055 3.28-2.326 3.617-2.61.404-.341.432-.669.089-1.077-.728-.869-3.022-3.452-3.109-3.502-.223-.129-.376-.13-.615-.005" fill-rule="evenodd" fill="#000"/></svg>