<svg width="24" height="24" fill="none" xmlns="http://www.w3.org/2000/svg"><path d="M4.585 1.34c-1.486.308-2.65 1.296-3.106 2.638-.317.93-.321 1.97-.012 2.959.132.424.471 1.101.779 1.557.509.752 1.32 1.6 1.795 1.877.828.482 1.923.493 2.798.026.626-.334 1.581-1.389 2.139-2.365.708-1.237.904-2.502.58-3.732-.38-1.443-1.442-2.491-2.938-2.902-.416-.114-1.602-.148-2.035-.058m1.547 1.483c.158.035.459.147.667.248.678.332 1.127.886 1.326 1.637.104.396.113 1.07.019 1.467-.195.821-.684 1.629-1.477 2.441-.463.474-.678.591-1.127.615-.486.026-.705-.071-1.155-.507-.647-.627-1.123-1.289-1.387-1.928a3.057 3.057 0 0 1-.265-1.157c-.082-1.413.745-2.52 2.107-2.822.319-.071.955-.068 1.292.006m5.661 1.455c-.29.056-.459.234-.517.543-.068.361.057.679.328.839.128.076.228.081 1.796.1 1.627.02 1.663.022 1.829.11.445.238.657.573.684 1.08.016.31.009.349-.11.59-.124.253-.224.343-4.241 3.858-2.263 1.98-4.207 3.704-4.32 3.831-.233.26-.491.753-.582 1.109-.086.342-.078.979.017 1.352a2.726 2.726 0 0 0 1.232 1.662c.608.364 1.007.419 2.953.401 1.313-.012 1.406-.018 1.534-.093.273-.161.396-.478.327-.845a.646.646 0 0 0-.327-.475c-.128-.076-.228-.081-1.796-.1l-1.66-.02-.215-.119a1.275 1.275 0 0 1-.566-1.55c.057-.151.152-.282.33-.456.138-.134 2.051-1.818 4.251-3.742 3.639-3.181 4.019-3.525 4.207-3.804.645-.958.643-2.085-.006-3.109-.167-.264-.539-.611-.849-.794a2.694 2.694 0 0 0-1.131-.369c-.398-.042-2.952-.041-3.168.001m-6.768.301c-.342.122-.523.44-.523.921 0 .349.096.615.28.776.172.152.36.203.74.204.406 0 .671-.126.829-.394.099-.169.109-.222.109-.586s-.01-.417-.109-.586c-.162-.274-.422-.395-.849-.392a1.862 1.862 0 0 0-.477.057m12.595 8.76c-1.467.269-2.683 1.29-3.141 2.637a4.784 4.784 0 0 0-.012 2.961c.386 1.226 1.653 2.895 2.621 3.453.456.262 1.164.398 1.733.331.728-.085 1.148-.296 1.754-.881.732-.707 1.242-1.381 1.618-2.14.405-.817.54-1.38.54-2.24-.001-.649-.049-.948-.248-1.524-.447-1.298-1.614-2.284-3.048-2.577-.458-.093-1.365-.103-1.817-.02m1.787 1.551c1.164.378 1.836 1.309 1.842 2.55.004 1.048-.471 2.038-1.481 3.086-.605.627-.727.694-1.268.694-.538 0-.677-.069-1.201-.596-.516-.519-.881-1.013-1.157-1.564-.273-.546-.381-.925-.41-1.442-.078-1.377.757-2.499 2.084-2.801.392-.089 1.208-.052 1.591.073m-1.382 1.689c-.342.122-.523.44-.523.921 0 .349.096.615.28.776.172.152.36.203.74.204.406 0 .671-.126.829-.394.099-.169.109-.222.109-.586s-.01-.417-.109-.586c-.162-.274-.422-.395-.849-.392a1.862 1.862 0 0 0-.477.057" fill-rule="evenodd" fill="#000"/></svg>