<svg width="24" height="24" fill="none" xmlns="http://www.w3.org/2000/svg"><path d="M5.029 1.285c-1.418.135-2.698 1.02-3.35 2.315a4.11 4.11 0 0 0-.439 1.9c0 1.116.388 2.102 1.14 2.895.926.977 2.14 1.437 3.484 1.321 1.825-.158 3.369-1.529 3.759-3.336.094-.435.094-1.325 0-1.76-.457-2.119-2.418-3.543-4.594-3.335M6.32 2.873c.396.129.746.354 1.103.707.256.254.358.392.49.66.231.472.292.737.292 1.26 0 .527-.062.793-.294 1.26-.131.264-.241.411-.49.66-.559.557-1.047.776-1.807.81-.551.024-.906-.046-1.378-.274-.271-.132-.399-.228-.698-.528-.297-.298-.398-.433-.533-.708a2.734 2.734 0 0 1 0-2.44c.135-.275.236-.409.531-.705.404-.405.734-.602 1.239-.738.389-.105 1.165-.087 1.545.036m5.473 1.405c-.29.056-.459.234-.517.543-.068.361.057.679.328.839.128.076.228.081 1.796.1 1.627.02 1.663.022 1.829.11.445.238.657.573.684 1.08.016.31.009.349-.11.59-.124.253-.224.343-4.241 3.858-2.263 1.98-4.207 3.704-4.32 3.831-.233.26-.491.753-.582 1.109-.086.342-.078.979.017 1.352a2.726 2.726 0 0 0 1.232 1.662c.608.364 1.007.419 2.953.401 1.313-.012 1.406-.018 1.534-.093.273-.161.396-.478.327-.845a.646.646 0 0 0-.327-.475c-.128-.076-.228-.081-1.796-.1l-1.66-.02-.215-.119a1.275 1.275 0 0 1-.566-1.55c.057-.151.152-.282.33-.456.138-.134 2.051-1.818 4.251-3.742 3.639-3.181 4.019-3.525 4.207-3.804.243-.36.359-.649.44-1.089.157-.853-.152-1.8-.791-2.427a2.712 2.712 0 0 0-1.635-.756c-.398-.042-2.952-.041-3.168.001m-6.768.301c-.342.122-.523.44-.523.921 0 .349.096.615.28.776.172.152.36.203.74.204.406 0 .671-.126.829-.394.099-.169.109-.222.109-.586s-.01-.417-.109-.586c-.162-.274-.422-.395-.849-.392a1.862 1.862 0 0 0-.477.057m11.595 9.699a2.76 2.76 0 0 0-2.301 2.026c-.073.286-.079.449-.079 2.196s.006 1.91.079 2.196c.238.932 1.001 1.698 1.962 1.97.235.067.436.074 2.179.074 1.708 0 1.949-.008 2.18-.07a2.864 2.864 0 0 0 1.984-1.932c.061-.208.072-.47.086-2.093.013-1.593.006-1.902-.05-2.18a2.782 2.782 0 0 0-1.48-1.927c-.547-.268-.57-.27-2.54-.281-.979-.005-1.888.004-2.02.021m3.892 1.594c.245.131.48.381.602.642l.106.226v3.52l-.106.226a1.479 1.479 0 0 1-.602.642c-.171.091-.183.092-1.967.104-2.046.013-2.036.014-2.386-.301a1.669 1.669 0 0 1-.311-.387l-.108-.204v-3.68l.108-.204c.132-.25.455-.549.683-.631.143-.051.45-.059 1.989-.053 1.814.008 1.821.008 1.992.1m-2.487 1.707c-.342.122-.523.44-.523.921 0 .349.096.615.28.776.172.152.36.203.74.204.406 0 .671-.126.829-.394.099-.169.109-.222.109-.586s-.01-.417-.109-.586c-.162-.274-.422-.395-.849-.392a1.862 1.862 0 0 0-.477.057" fill-rule="evenodd" fill="#000"/></svg>