<svg width="24" height="24" fill="none" xmlns="http://www.w3.org/2000/svg"><path d="M5.12 1.28a3.72 3.72 0 0 0-3.283 3.075c-.023.135-.038 2.983-.037 7.075.001 5.949.009 6.887.061 7.14.081.387.204.758.348 1.047.198.395 1.077 1.812 1.281 2.064.722.891 1.836 1.24 2.806.877.497-.186 1.06-.659 1.417-1.191.304-.451 1.041-1.712 1.141-1.952.154-.367.257-.772.306-1.207.031-.273.04-2.364.03-7.068-.013-6.186-.019-6.701-.084-6.97C8.66 2.315 6.984 1.1 5.12 1.28m8.828.004c-1.856.153-2.961 1.219-3.187 3.075-.057.467-.057 14.815 0 15.282.165 1.355.785 2.277 1.853 2.756.368.166.854.277 1.406.322.615.051 4.25.051 4.88.001 1.626-.131 2.66-.865 3.093-2.2.214-.657.207-.371.207-8.52s.007-7.863-.207-8.52c-.432-1.33-1.467-2.068-3.087-2.202-.537-.044-4.405-.04-4.958.006M6.061 2.822c.708.184 1.373.849 1.557 1.557.046.177.062.445.062 1.049v.812h-4.4v-.755c0-.415.018-.851.041-.97.096-.513.529-1.133 1.001-1.436.459-.295 1.184-.402 1.739-.257M19.26 2.82c.827.175 1.28.679 1.419 1.58.055.356.055 14.844 0 15.2-.139.901-.592 1.405-1.419 1.58-.411.086-5.148.087-5.556 0-.984-.208-1.402-.774-1.485-2.008l-.027-.407 1.774-.013c1.69-.011 1.78-.016 1.91-.092.251-.148.304-.262.304-.66s-.053-.512-.304-.66c-.13-.076-.22-.081-1.906-.092l-1.77-.013v-2.522l2.271.012c2.199.012 2.276.01 2.406-.066.25-.147.303-.262.303-.659 0-.398-.053-.512-.304-.66-.13-.076-.233-.081-2.276-.106a413.235 413.235 0 0 1-2.27-.03l-.13-.004v-2.434l1.27-.013c1.185-.012 1.279-.018 1.406-.093.251-.148.304-.262.304-.66s-.053-.512-.304-.66c-.127-.075-.221-.081-1.406-.093l-1.27-.013v-2.47l2.27-.012c2.187-.012 2.275-.015 2.406-.092.251-.148.304-.262.304-.66s-.053-.512-.304-.66c-.131-.077-.219-.08-2.411-.092l-2.274-.012.027-.388c.075-1.04.347-1.566.958-1.852.482-.225.537-.229 3.284-.232 2.076-.002 2.569.008 2.8.056M7.671 13.05l-.011 5.29-.102.286c-.143.402-1.042 1.889-1.329 2.198-.485.521-1.025.518-1.507-.009-.277-.304-1.169-1.8-1.31-2.197L3.3 18.3l-.011-5.27-.01-5.27h4.402l-.01 5.29" fill-rule="evenodd" fill="#000"/></svg>