<svg width="24" height="24" fill="none" xmlns="http://www.w3.org/2000/svg"><path d="M4.498 6.281c-1.5.126-2.53.845-2.981 2.081-.249.683-.257.793-.257 3.638 0 2.284.008 2.622.07 2.948.247 1.305.978 2.186 2.13 2.567.704.233.392.225 8.54.225s7.836.008 8.54-.225c1.152-.381 1.883-1.262 2.13-2.567.062-.326.07-.664.07-2.948s-.008-2.622-.07-2.948c-.239-1.266-.935-2.135-2.031-2.535-.732-.267-.207-.251-8.379-.259-4.07-.005-7.563.006-7.762.023m.75 3.229c.011 1.666.016 1.757.092 1.886a.646.646 0 0 0 .475.327c.367.069.684-.054.845-.327.076-.129.081-.22.092-1.886l.013-1.75h2.522l-.012 2.251c-.012 2.179-.01 2.256.066 2.386.159.272.477.395.844.326a.646.646 0 0 0 .475-.327c.076-.13.081-.233.106-2.316.014-1.199.027-2.211.03-2.25.004-.065.09-.07 1.221-.07h1.217l.013 1.25c.012 1.165.018 1.259.093 1.386a.646.646 0 0 0 .475.327c.367.069.684-.054.845-.327.075-.127.081-.221.093-1.386l.013-1.25h2.47l.012 2.25c.012 2.167.015 2.255.092 2.386a.646.646 0 0 0 .475.327c.367.069.684-.054.845-.327.077-.131.08-.219.092-2.386l.012-2.25.368.001c1.158.002 1.843.491 2.048 1.459.087.413.087 5.147 0 5.56-.163.773-.628 1.236-1.407 1.401-.414.088-15.136.086-15.553-.001-.773-.163-1.236-.628-1.401-1.407-.085-.401-.085-5.145 0-5.546.207-.976.87-1.454 2.029-1.464l.387-.003.013 1.75" fill-rule="evenodd" fill="#000"/></svg>