<svg width="24" height="24" fill="none" xmlns="http://www.w3.org/2000/svg"><path d="M10.74 1.699c-.38.07-.75.199-1.052.367-.285.159-6.892 5.412-7.281 5.789-.769.747-1.248 2.055-1.129 3.086.093.8 1.326 8.018 1.415 8.28.227.666.62 1.221 1.177 1.664.633.504 1.234.758 1.964.833.264.027 2.005.042 4.78.042l4.366.001.35.337a6.64 6.64 0 0 0 1.915 1.288c.909.386 1.346.433 2.015.217 1.639-.53 3.022-1.733 3.819-3.321.379-.754.57-1.442.639-2.3.053-.652.053-2.474 0-2.842-.073-.507-.401-1.045-.802-1.315-.111-.075-.503-.259-.869-.408a40.004 40.004 0 0 1-.681-.281c-.008-.006.061-.457.154-1.003.21-1.246.236-1.697.129-2.213-.16-.766-.546-1.529-1.01-1.997-.291-.294-6.72-5.435-7.169-5.733-.558-.371-1.226-.553-2.004-.546a5.191 5.191 0 0 0-.726.055m1.24 1.481c.154.033.388.113.52.179.152.076 1.495 1.123 3.679 2.87 3.746 2.997 3.612 2.876 3.859 3.498.235.595.24.741.061 1.836-.13.799-.167.959-.218.944l-.421-.129c-.315-.097-.428-.111-.9-.113-.447-.003-.594.012-.856.087-.318.092-2.993 1.172-3.364 1.358-.456.231-.893.859-.979 1.41-.053.34-.053 2.206.001 2.862.06.744.218 1.379.516 2.074l.079.184H9.915c-3.614 0-4.067-.007-4.269-.065-.725-.209-1.37-.834-1.562-1.515-.101-.359-1.324-7.831-1.324-8.091 0-.502.251-1.168.574-1.521.284-.311 6.901-5.581 7.163-5.705.452-.214.97-.271 1.483-.163m7.023 10.644c.119.035.847.316 1.617.624 1.083.433 1.426.587 1.513.68l.113.12-.015 1.526c-.015 1.5-.017 1.533-.121 1.917-.403 1.49-1.587 2.824-3.008 3.388-.437.174-.567.186-.886.083-1.687-.545-3.048-2.17-3.318-3.962-.04-.267-.058-.748-.058-1.614 0-1.371.012-1.446.253-1.56a89.158 89.158 0 0 1 2.887-1.171 1.79 1.79 0 0 1 1.023-.031" fill-rule="evenodd" fill="#000"/></svg>