<svg width="24" height="24" fill="none" xmlns="http://www.w3.org/2000/svg"><path d="M16.34 2.238c-4.508.022-4.603.024-4.736.102-.273.161-.396.478-.327.845a.646.646 0 0 0 .327.475c.133.078.227.08 3.846.1l3.71.02-3.58 3.58-3.579 3.579L9.47 8.413C6.69 5.637 6.812 5.74 6.435 5.841c-.221.06-.534.373-.594.594-.101.377-.204.255 2.572 3.035L10.939 12l-4.327 4.33c-4.754 4.758-4.475 4.449-4.371 4.835.06.221.373.534.594.594.386.104.077.383 4.835-4.371L12 13.061l2.53 2.526c2.78 2.776 2.658 2.673 3.035 2.572.221-.06.534-.373.594-.594.101-.377.204-.255-2.572-3.035l-2.526-2.531L16.64 8.42l3.58-3.58.02 3.71c.02 3.619.022 3.713.1 3.846a.646.646 0 0 0 .475.327c.367.069.684-.054.845-.327.078-.133.08-.227.1-4.796.011-2.563.006-4.716-.01-4.785a.814.814 0 0 0-.67-.584c-.077-.008-2.21-.005-4.74.007" fill-rule="evenodd" fill="#000"/></svg>