<svg width="24" height="24" fill="none" xmlns="http://www.w3.org/2000/svg"><path d="M10.7 1.284a3.845 3.845 0 0 0-3 2.046c-.199.374-.364.901-.399 1.276-.014.14-.033.311-.044.38l-.019.127-1.349.017c-1.203.016-1.384.027-1.669.102-1.469.383-2.545 1.482-2.886 2.948-.07.305-.074.616-.074 6.5 0 5.869.004 6.193.073 6.44.237.84.778 1.406 1.511 1.578.503.119 1.032.042 1.616-.235.198-.093 1.224-.655 2.28-1.247l1.92-1.076h.68l2.04 1.142c2.505 1.402 2.533 1.415 3.16 1.462.373.028.744-.044 1.07-.209.291-.147.7-.574.859-.897.257-.525.263-.583.28-2.668.009-1.04.027-1.89.04-1.89.012 0 .638.343 1.389.761.751.419 1.491.805 1.644.858.779.27 1.494.195 2.036-.214.393-.297.633-.671.794-1.239l.087-.306.013-5.84c.008-3.932-.002-5.986-.03-6.287-.184-1.927-1.574-3.335-3.485-3.531-.488-.05-8.058-.048-8.537.002m8.708 1.52c.824.17 1.618.964 1.788 1.788.062.299.062 12.123 0 12.346a.794.794 0 0 1-.176.29c-.116.116-.157.132-.346.132-.281 0-.385-.051-2.322-1.133l-1.589-.887-.012-3.46-.013-3.46-.105-.382c-.327-1.195-1.179-2.17-2.292-2.623-.661-.27-.635-.267-3.231-.284l-2.35-.016V4.96c0-.916.825-1.913 1.771-2.143.28-.067 8.553-.08 8.877-.013m-6.065 3.879c.13.023.388.115.573.204.67.321 1.175.995 1.283 1.713.033.216.042 1.959.033 6.24l-.012 5.94-.087.163a.947.947 0 0 1-.15.215c-.09.074-.376.098-.566.046-.09-.024-1.144-.589-2.343-1.256-1.573-.875-2.246-1.228-2.417-1.27-.336-.082-1.093-.073-1.384.016-.125.038-1.151.585-2.28 1.215-1.129.63-2.16 1.189-2.29 1.242-.454.187-.766.072-.884-.326-.089-.299-.088-11.998.001-12.375.195-.828.909-1.549 1.732-1.748.186-.045.99-.056 4.391-.059 2.793-.002 4.24.011 4.4.04" fill-rule="evenodd" fill="#000"/></svg>