<svg width="24" height="24" fill="none" xmlns="http://www.w3.org/2000/svg"><path d="M10.7 1.284a3.845 3.845 0 0 0-3 2.046c-.199.374-.364.901-.399 1.276-.014.14-.034.312-.045.384l-.02.13H6.202c-1.606 0-2.178.091-2.872.46-1.198.636-1.92 1.731-2.052 3.113-.028.301-.038 2.355-.03 6.287l.013 5.84.087.306c.383 1.351 1.489 1.919 2.83 1.453.153-.053 1.238-.631 2.411-1.284l2.133-1.187h.556l2.133 1.187c1.173.653 2.258 1.231 2.411 1.284.779.27 1.494.195 2.036-.214.395-.298.637-.677.792-1.239.078-.286.085-.427.1-2.176.009-1.029.027-1.87.039-1.87.013 0 .638.343 1.389.761.751.419 1.491.805 1.644.858.779.27 1.494.195 2.036-.214.393-.297.633-.671.794-1.239l.087-.306.013-5.84c.008-3.932-.002-5.986-.03-6.287-.184-1.927-1.574-3.335-3.485-3.531-.488-.05-8.058-.048-8.537.002m8.708 1.52c.824.17 1.618.964 1.788 1.788.062.299.062 12.123 0 12.346a.794.794 0 0 1-.176.29c-.116.116-.157.132-.346.132-.281 0-.385-.051-2.322-1.133l-1.589-.887-.013-3.46c-.013-3.39-.015-3.467-.099-3.78-.39-1.454-1.421-2.485-2.871-2.87-.305-.081-.427-.086-2.67-.1l-2.35-.015V4.96c0-.916.825-1.913 1.771-2.143.28-.067 8.553-.08 8.877-.013M13.43 6.7a2.425 2.425 0 0 1 1.75 1.75c.05.214.059 1.101.059 6.23 0 4.219-.012 6.027-.043 6.138a.794.794 0 0 1-.176.29c-.117.117-.157.132-.347.132-.285 0-.367-.041-2.714-1.35-1.068-.596-2.058-1.124-2.2-1.175-.375-.132-1.143-.132-1.518 0-.142.051-1.132.579-2.2 1.175-2.347 1.309-2.429 1.35-2.714 1.35-.19 0-.23-.015-.347-.132a.794.794 0 0 1-.176-.29c-.062-.223-.062-12.047 0-12.346.166-.801.923-1.58 1.727-1.775.161-.039 1.168-.051 4.429-.053 3.586-.002 4.258.006 4.47.056M8.787 9.278a.659.659 0 0 0-.447.326c-.07.12-.081.224-.094.882l-.014.746-.746.014c-.658.013-.762.024-.882.094-.273.161-.396.478-.327.845a.646.646 0 0 0 .327.475c.12.07.224.081.882.094l.746.014.014.746c.016.813.043.92.279 1.096.226.168.724.168.95 0 .236-.176.263-.283.279-1.096l.014-.746.746-.014c.658-.013.762-.024.882-.094a.646.646 0 0 0 .327-.475c.069-.367-.054-.684-.327-.845-.12-.07-.224-.081-.886-.094l-.75-.015-.002-.625c-.002-.701-.033-.926-.148-1.08-.158-.213-.491-.313-.823-.248" fill-rule="evenodd" fill="#000"/></svg>