<svg width="24" height="24" fill="none" xmlns="http://www.w3.org/2000/svg"><path d="M6.458 1.283a5.814 5.814 0 0 0-2.272.613 4.674 4.674 0 0 0-1.327.963c-.434.433-.685.78-.963 1.327-.525 1.033-.678 1.995-.65 4.077.013.911.021 1.009.094 1.133a.646.646 0 0 0 .475.327c.367.069.684-.054.845-.327.075-.127.082-.234.106-1.696.028-1.664.039-1.773.255-2.38.461-1.295 1.542-2.203 2.959-2.484.415-.083 11.625-.083 12.04 0 1.417.281 2.498 1.189 2.959 2.484.216.607.227.716.255 2.38.024 1.462.031 1.569.106 1.696.161.273.478.396.845.327a.646.646 0 0 0 .475-.327c.073-.124.081-.222.094-1.133.028-2.082-.125-3.044-.65-4.077a4.674 4.674 0 0 0-.963-1.327c-.966-.966-2.134-1.466-3.686-1.578-.658-.048-10.336-.045-10.997.002m-4.671 9.995c-.341.067-.519.314-.519.722 0 .462.207.693.663.739.137.014 4.767.02 10.289.013 9.957-.012 10.041-.013 10.176-.092.273-.161.396-.478.327-.845a.646.646 0 0 0-.327-.475c-.135-.079-.213-.08-10.296-.086-5.588-.003-10.229.008-10.313.024m0 3a.659.659 0 0 0-.447.326c-.073.124-.081.222-.094 1.133-.028 2.082.125 3.044.65 4.077.278.547.529.894.963 1.327.966.966 2.134 1.466 3.686 1.578.737.053 10.173.053 10.91 0 .951-.068 1.633-.246 2.359-.615a4.674 4.674 0 0 0 1.327-.963c.434-.433.685-.78.963-1.327.525-1.033.678-1.995.65-4.077-.013-.911-.021-1.009-.094-1.133a.646.646 0 0 0-.475-.327c-.367-.069-.684.054-.845.327-.075.127-.082.234-.106 1.696-.02 1.189-.04 1.622-.087 1.82-.335 1.418-1.211 2.422-2.507 2.871-.69.239-.392.229-6.64.229-6.248 0-5.95.01-6.64-.229a3.747 3.747 0 0 1-2.339-2.311c-.216-.607-.227-.716-.256-2.38-.027-1.614-.03-1.639-.2-1.834-.143-.164-.482-.246-.778-.188" fill-rule="evenodd" fill="#000"/></svg>