<svg width="24" height="24" fill="none" xmlns="http://www.w3.org/2000/svg"><path d="M6.02 1.283c-1.933.166-3.668 1.454-4.382 3.254-.332.835-.412 1.543-.391 3.463.012 1.175.018 1.269.093 1.396.161.273.478.396.845.327a.646.646 0 0 0 .475-.327c.076-.129.081-.23.103-1.856l.022-1.72.108-.352c.392-1.279 1.296-2.183 2.575-2.575l.352-.108 1.72-.022c1.626-.022 1.727-.027 1.856-.103.273-.161.396-.478.327-.845a.646.646 0 0 0-.327-.475c-.129-.076-.214-.08-1.556-.086-.781-.003-1.6.01-1.82.029m8.773-.005c-.29.056-.459.234-.517.543-.068.361.057.679.328.839.129.076.23.081 1.856.103l1.72.022.352.108c1.269.389 2.186 1.306 2.575 2.575l.108.352.022 1.72c.022 1.626.027 1.727.103 1.856.161.273.478.396.845.327a.646.646 0 0 0 .475-.327c.075-.127.081-.221.093-1.396.016-1.451-.032-2.227-.169-2.768a5.182 5.182 0 0 0-1.844-2.851c-.841-.656-1.762-1.012-2.847-1.1-.561-.046-2.87-.048-3.1-.003M8.14 5.28c-.735.078-1.318.351-1.875.878-.454.43-.807 1.039-.927 1.602-.083.387-.083 1.092-.001 1.473.249 1.154 1.276 2.181 2.43 2.43.379.082 1.087.082 1.466 0 1.154-.249 2.181-1.276 2.43-2.43.082-.379.082-1.087 0-1.466-.16-.741-.689-1.508-1.356-1.963-.599-.409-1.405-.604-2.167-.524m8.04.001a2.21 2.21 0 0 0-1.91 2.199c-.003.649.2 1.15.65 1.6.443.443.948.651 1.58.651.632 0 1.137-.208 1.58-.651.443-.443.651-.948.651-1.58 0-.632-.208-1.137-.651-1.58a2.227 2.227 0 0 0-1.9-.639M9.247 6.93c.371.183.668.485.845.86.12.253.128.298.128.71s-.008.457-.128.71a1.828 1.828 0 0 1-.847.861c-.293.145-.313.149-.745.149s-.452-.004-.745-.149a1.828 1.828 0 0 1-.847-.861c-.12-.253-.128-.298-.128-.71s.008-.457.127-.709a1.843 1.843 0 0 1 1.072-.961c.153-.055.293-.069.585-.06.35.011.412.026.683.16m7.697-.027c.229.185.303.352.287.646-.012.203-.036.274-.134.395-.185.229-.352.303-.646.287-.203-.012-.274-.036-.395-.134-.229-.185-.303-.352-.287-.646.012-.203.036-.274.134-.395.185-.229.352-.303.646-.287.203.012.274.036.395.134M15.14 12.28c-1.133.121-2.094.817-2.598 1.884-.189.399-.27.801-.27 1.336 0 .256.027.566.065.74.248 1.146 1.28 2.175 2.43 2.423.379.082 1.087.082 1.466 0 1.154-.249 2.181-1.276 2.43-2.43.082-.379.082-1.087 0-1.466-.16-.741-.689-1.508-1.356-1.963-.599-.409-1.405-.604-2.167-.524m1.107 1.65c.371.183.668.485.845.86.12.253.128.298.128.71s-.008.457-.128.71a1.828 1.828 0 0 1-.847.861c-.293.145-.313.149-.745.149s-.452-.004-.745-.149a1.828 1.828 0 0 1-.847-.861c-.12-.253-.128-.298-.128-.71s.008-.457.127-.709a1.843 1.843 0 0 1 1.072-.961c.153-.055.293-.069.585-.06.35.011.412.026.683.16m-14.46.348a.659.659 0 0 0-.447.326c-.075.127-.081.221-.093 1.396-.016 1.451.032 2.227.169 2.768a5.21 5.21 0 0 0 3.816 3.816c.541.137 1.317.185 2.768.169 1.175-.012 1.269-.018 1.396-.093.273-.161.396-.478.327-.845a.646.646 0 0 0-.327-.475c-.129-.076-.23-.081-1.856-.103l-1.72-.022-.352-.108c-1.272-.39-2.185-1.303-2.575-2.575l-.108-.352-.022-1.72c-.024-1.788-.025-1.796-.198-1.994-.143-.164-.482-.246-.778-.188m5.393.003a2.21 2.21 0 0 0-1.91 2.199c-.003.649.2 1.15.65 1.6.443.443.948.651 1.58.651.632 0 1.137-.208 1.58-.651.443-.443.651-.948.651-1.58 0-.632-.208-1.137-.651-1.58a2.227 2.227 0 0 0-1.9-.639m14.607.997a.659.659 0 0 0-.447.326c-.074.125-.082.232-.104 1.356-.023 1.178-.027 1.233-.132 1.58a3.791 3.791 0 0 1-2.572 2.566c-.338.102-.4.107-1.572.13-1.124.022-1.231.03-1.356.104a.646.646 0 0 0-.327.475c-.069.367.054.684.327.845.12.07.224.081.886.094 1.697.033 2.659-.154 3.61-.702 1.528-.879 2.475-2.383 2.619-4.159.049-.602.051-1.842.004-2.087-.079-.408-.458-.621-.936-.528m-13.843.625c.229.185.303.352.287.646-.012.203-.036.274-.134.395-.185.229-.352.303-.646.287-.203-.012-.274-.036-.395-.134-.229-.185-.303-.352-.287-.646.012-.203.036-.274.134-.395.185-.229.352-.303.646-.287.203.012.274.036.395.134" fill-rule="evenodd" fill="#000"/></svg>