<svg width="24" height="24" fill="none" xmlns="http://www.w3.org/2000/svg"><path d="M6.02 1.283c-1.933.166-3.668 1.454-4.382 3.254-.332.835-.412 1.543-.391 3.463.012 1.175.018 1.269.093 1.396.161.273.478.396.845.327a.646.646 0 0 0 .475-.327c.076-.129.081-.23.103-1.856l.022-1.72.108-.352c.392-1.279 1.296-2.183 2.575-2.575l.352-.108 1.72-.022c1.626-.022 1.727-.027 1.856-.103.273-.161.396-.478.327-.845a.646.646 0 0 0-.327-.475c-.129-.076-.214-.08-1.556-.086-.781-.003-1.6.01-1.82.029m8.773-.005c-.29.056-.459.234-.517.543-.068.361.057.679.328.839.129.076.23.081 1.856.103l1.72.022.352.108c1.269.389 2.186 1.306 2.575 2.575l.108.352.022 1.72c.022 1.626.027 1.727.103 1.856.161.273.478.396.845.327a.646.646 0 0 0 .475-.327c.075-.127.081-.221.093-1.396.016-1.451-.032-2.227-.169-2.768a5.182 5.182 0 0 0-1.844-2.851c-.841-.656-1.762-1.012-2.847-1.1-.561-.046-2.87-.048-3.1-.003M9.248 5.803c-1.218.158-2.117.761-2.588 1.737-.322.668-.418 1.319-.419 2.846l-.001.845-.75.015c-.818.016-.924.042-1.1.279-.168.226-.168.724 0 .95.176.237.282.263 1.1.279l.75.015.001.845c.001 1.527.097 2.178.419 2.846.478.989 1.362 1.576 2.62 1.739.391.05 5.049.05 5.44 0 1.258-.163 2.142-.75 2.62-1.739.322-.668.418-1.319.419-2.846l.001-.845.75-.015c.818-.016.924-.042 1.1-.279.168-.226.168-.724 0-.95-.176-.237-.282-.263-1.1-.279l-.75-.015-.001-.845c-.001-1.527-.097-2.178-.419-2.846-.478-.989-1.362-1.576-2.62-1.739-.361-.046-5.111-.045-5.472.002m5.572 1.514c.359.091.76.308.936.508.404.459.484.84.484 2.313v1.102H7.76v-1.102c0-1.235.038-1.538.249-1.968.255-.521.669-.763 1.551-.905.055-.009 1.216-.012 2.58-.007 1.834.007 2.532.022 2.68.059m1.42 6.545c0 1.204-.037 1.521-.227 1.921-.219.463-.639.771-1.233.903-.348.078-5.212.078-5.56 0-.591-.132-1.022-.446-1.235-.901-.192-.411-.225-.689-.225-1.903V12.76h8.48v1.102m-14.453.416a.659.659 0 0 0-.447.326c-.075.127-.081.221-.093 1.396-.016 1.451.032 2.227.169 2.768a5.21 5.21 0 0 0 3.816 3.816c.541.137 1.317.185 2.768.169 1.175-.012 1.269-.018 1.396-.093.273-.161.396-.478.327-.845a.646.646 0 0 0-.327-.475c-.129-.076-.23-.081-1.856-.103l-1.72-.022-.352-.108c-1.272-.39-2.185-1.303-2.575-2.575l-.108-.352-.022-1.72c-.024-1.788-.025-1.796-.198-1.994-.143-.164-.482-.246-.778-.188m20 1a.659.659 0 0 0-.447.326c-.074.125-.082.232-.104 1.356-.023 1.178-.027 1.233-.132 1.58a3.791 3.791 0 0 1-2.572 2.566c-.338.102-.4.107-1.572.13-1.124.022-1.231.03-1.356.104a.646.646 0 0 0-.327.475c-.069.367.054.684.327.845.12.07.224.081.886.094 1.697.033 2.659-.154 3.61-.702 1.528-.879 2.475-2.383 2.619-4.159.049-.602.051-1.842.004-2.087-.079-.408-.458-.621-.936-.528" fill-rule="evenodd" fill="#000"/></svg>