<svg width="24" height="24" fill="none" xmlns="http://www.w3.org/2000/svg"><path d="M5.06 2.284c-1.709.167-3.166 1.395-3.64 3.067a4.42 4.42 0 0 0 .22 2.916c.397.874 1.219 1.696 2.093 2.093a4.402 4.402 0 0 0 3.532.001 4.68 4.68 0 0 0 1.486-1.132l.128-.15 1.92 1.441c1.057.792 1.921 1.449 1.921 1.46 0 .011-.865.669-1.923 1.462l-1.923 1.443-.336-.339c-.732-.74-1.621-1.167-2.623-1.259-1.292-.119-2.511.315-3.412 1.216a4.166 4.166 0 0 0-1.216 2.582c-.119 1.292.315 2.511 1.216 3.412.901.901 2.12 1.335 3.412 1.216a4.222 4.222 0 0 0 3.662-3.047c.186-.641.202-1.571.039-2.2a1.145 1.145 0 0 1-.048-.244l2.221-1.659 2.209-1.649 3.851 2.884c2.291 1.715 3.91 2.901 3.997 2.928.212.064.414.012.599-.156.302-.272.404-.588.28-.868-.075-.17-.323-.363-3.78-2.95l-3.699-2.769 3.687-2.761c3.305-2.476 3.696-2.781 3.779-2.942.108-.212.094-.371-.054-.626-.192-.331-.5-.491-.789-.411-.164.045-.404.22-4.829 3.531L14 11.047l-2.21-1.649-2.218-1.655a1.357 1.357 0 0 1 .048-.225c.218-.834.113-1.962-.26-2.785-.587-1.294-1.962-2.307-3.3-2.43-.559-.052-.646-.054-1-.019m1.3 1.593c.384.131.767.373 1.076.682.517.517.759 1.055.794 1.764.029.583-.031.88-.278 1.385a2.728 2.728 0 0 1-1.56 1.402c-.268.098-.341.107-.892.107-.522 0-.634-.012-.86-.091-.804-.283-1.496-.975-1.762-1.766-.12-.355-.15-1.065-.063-1.475.205-.963 1.077-1.849 2.032-2.066.38-.087 1.177-.056 1.513.058m0 11c.396.134.775.379 1.105.712.243.245.335.377.495.706.239.492.299.799.27 1.382-.035.708-.277 1.247-.791 1.762a2.742 2.742 0 0 1-1.047.671c-.268.098-.341.107-.892.107-.522 0-.634-.012-.86-.091-.804-.283-1.496-.975-1.762-1.766-.12-.355-.15-1.065-.063-1.475.205-.963 1.077-1.849 2.032-2.066.38-.087 1.177-.056 1.513.058" fill-rule="evenodd" fill="#000"/></svg>