<svg width="24" height="24" fill="none" xmlns="http://www.w3.org/2000/svg"><path d="M8.08 1.282c-4.072.213-6.185 2.014-6.697 5.709-.113.812-.141 1.825-.141 5.009 0 4.504.06 5.273.518 6.65.772 2.313 2.446 3.576 5.267 3.972.759.106 1.875.137 4.973.137s4.214-.031 4.973-.137c2.47-.347 4.023-1.334 4.924-3.132.482-.96.741-2.121.823-3.683.051-.969.051-6.645 0-7.614-.063-1.195-.199-2.002-.478-2.837-.61-1.825-1.773-2.989-3.592-3.596-.862-.287-1.627-.416-2.844-.48-.854-.045-6.854-.043-7.726.002m8.72 1.572c2.786.462 3.914 1.6 4.348 4.386.066.421.072.824.072 4.76s-.006 4.339-.072 4.76c-.436 2.798-1.59 3.952-4.388 4.388-.421.066-.824.072-4.76.072s-4.339-.006-4.76-.072c-2.79-.435-3.957-1.597-4.386-4.368-.069-.445-.074-.791-.074-4.78 0-4.753-.004-4.663.264-5.712C3.557 4.282 4.722 3.274 6.96 2.9c.73-.123 1.088-.131 5.24-.123 3.763.007 4.222.014 4.6.077m-9 3.526c-.953.215-1.781 1.058-1.984 2.02-.083.392-.056 1.037.059 1.4.246.773.952 1.479 1.725 1.725.36.114 1.008.142 1.392.061.373-.08.802-.287 1.108-.536l.24-.195.72.538c.396.296.735.552.754.569.026.023-1.204.988-1.443 1.132-.03.018-.157-.053-.32-.179-.546-.419-1.061-.577-1.771-.543-.721.035-1.231.261-1.739.769-.324.323-.546.68-.672 1.079-.128.403-.128 1.197 0 1.6.254.801.95 1.497 1.751 1.751.233.074.37.089.82.088.481-.002.572-.014.833-.108.419-.15.7-.33 1.024-.654.324-.324.503-.605.655-1.024.094-.261.106-.354.11-.86l.005-.568.976-.727 1.018-.761c.024-.019.881.596 2.1 1.506 1.328.993 2.112 1.553 2.209 1.579.211.058.423-.009.608-.192.18-.178.3-.418.301-.605.002-.305-.07-.369-2.056-1.853-1.742-1.3-1.875-1.408-1.802-1.459.531-.369 3.696-2.78 3.752-2.858.121-.169.133-.44.028-.643-.235-.457-.605-.626-.963-.44-.076.04-1.033.742-2.126 1.56a127.36 127.36 0 0 1-2.01 1.488c-.012 0-.474-.339-1.027-.753l-1.005-.752-.007-.558c-.006-.491-.019-.591-.112-.85a2.507 2.507 0 0 0-.654-1.026 2.654 2.654 0 0 0-1.057-.666c-.344-.11-1.074-.138-1.44-.055m1.103 1.537c.221.098.484.364.589.597.122.272.116.682-.014.945-.218.442-.586.676-1.058.676-.344 0-.582-.097-.82-.335a1.128 1.128 0 0 1-.306-1.123 1.176 1.176 0 0 1 1.609-.76m0 6.04c.221.098.484.364.589.597.059.132.083.268.083.466 0 .663-.492 1.155-1.155 1.155-.344 0-.582-.097-.82-.335a1.128 1.128 0 0 1-.306-1.123 1.176 1.176 0 0 1 1.609-.76" fill-rule="evenodd" fill="#000"/></svg>