<svg width="24" height="24" fill="none" xmlns="http://www.w3.org/2000/svg"><path d="M8.08 1.282c-4.072.213-6.185 2.014-6.697 5.709-.113.812-.141 1.825-.141 5.009 0 4.504.06 5.273.518 6.65.772 2.313 2.446 3.576 5.267 3.972.759.106 1.875.137 4.973.137s4.214-.031 4.973-.137c2.47-.347 4.023-1.334 4.924-3.132.482-.96.741-2.121.823-3.683.051-.969.051-6.645 0-7.614-.063-1.195-.199-2.002-.478-2.837-.61-1.825-1.773-2.989-3.592-3.596-.862-.287-1.627-.416-2.844-.48-.854-.045-6.854-.043-7.726.002m8.72 1.572c2.786.462 3.914 1.6 4.348 4.386.066.421.072.824.072 4.76s-.006 4.339-.072 4.76c-.436 2.798-1.59 3.952-4.388 4.388-.421.066-.824.072-4.76.072s-4.339-.006-4.76-.072c-2.79-.435-3.957-1.597-4.386-4.368-.069-.445-.074-.791-.074-4.78 0-4.753-.004-4.663.264-5.712C3.557 4.282 4.722 3.274 6.96 2.9c.73-.123 1.088-.131 5.24-.123 3.763.007 4.222.014 4.6.077m-4.908 8.95c-1.068.158-1.763.778-2.038 1.816-.066.25-.074.45-.074 1.86 0 1.791.019 1.949.301 2.511.292.583.835.989 1.548 1.156.284.067.533.073 2.891.073 2.384 0 2.601-.006 2.86-.074.948-.251 1.515-.818 1.766-1.766.066-.25.074-.45.074-1.88s-.008-1.63-.074-1.88c-.249-.94-.806-1.503-1.746-1.764-.236-.065-.49-.072-2.76-.08-1.375-.005-2.611.008-2.748.028m5.256 1.528a.76.76 0 0 1 .522.541c.061.198.07.404.07 1.627 0 1.564-.023 1.737-.263 1.977-.259.259-.309.263-2.977.263-2.667 0-2.718-.005-2.976-.262-.232-.232-.257-.398-.274-1.814-.024-1.97.052-2.208.758-2.364.202-.044.717-.054 2.592-.047 2.105.008 2.361.016 2.548.079" fill-rule="evenodd" fill="#000"/></svg>