<svg width="24" height="24" fill="none" xmlns="http://www.w3.org/2000/svg"><path d="M8.08 1.282c-4.072.213-6.185 2.014-6.697 5.709-.113.812-.141 1.825-.141 5.009 0 4.504.06 5.273.518 6.65.772 2.313 2.446 3.576 5.267 3.972.759.106 1.875.137 4.973.137s4.214-.031 4.973-.137c2.47-.347 4.023-1.334 4.924-3.132.482-.96.741-2.121.823-3.683.051-.969.051-6.645 0-7.614-.063-1.195-.199-2.002-.478-2.837-.61-1.825-1.773-2.989-3.592-3.596-.862-.287-1.627-.416-2.844-.48-.854-.045-6.854-.043-7.726.002m8.72 1.572c2.786.462 3.914 1.6 4.348 4.386.066.421.072.824.072 4.76s-.006 4.339-.072 4.76c-.436 2.798-1.59 3.952-4.388 4.388-.421.066-.824.072-4.76.072s-4.339-.006-4.76-.072c-2.79-.435-3.957-1.597-4.386-4.368-.069-.445-.074-.791-.074-4.78 0-4.753-.004-4.663.264-5.712C3.557 4.282 4.722 3.274 6.96 2.9c.73-.123 1.088-.131 5.24-.123 3.763.007 4.222.014 4.6.077M9.238 8.315c-.098.063-.774.715-1.501 1.45-1.504 1.517-1.537 1.561-1.569 2.12-.02.351.031.589.187.874.109.198 2.443 2.576 2.795 2.849.365.282.677.248 1.006-.108.087-.095.18-.245.207-.335.1-.332.047-.401-1.408-1.866l-1.313-1.322 1.281-1.278c.704-.704 1.319-1.34 1.365-1.414.189-.301.045-.737-.319-.968-.251-.159-.487-.16-.731-.002m4.793.002c-.364.231-.508.667-.319.968.046.074.661.71 1.365 1.414l1.281 1.278-1.313 1.322c-1.455 1.465-1.508 1.534-1.408 1.866.027.09.12.24.207.335.329.356.641.39 1.006.108.352-.273 2.686-2.651 2.795-2.849.156-.285.207-.523.187-.874-.032-.559-.065-.603-1.569-2.12-.727-.735-1.403-1.387-1.501-1.45-.244-.158-.48-.157-.731.002" fill-rule="evenodd" fill="#000"/></svg>