<svg width="24" height="24" fill="none" xmlns="http://www.w3.org/2000/svg"><path d="M10.34 1.28a9.752 9.752 0 0 0-8.62 6.747 9.948 9.948 0 0 0-.221 5.133c.816 3.629 3.708 6.526 7.325 7.338 1.378.309 2.916.316 4.276.018a10.65 10.65 0 0 0 2.268-.8 10.094 10.094 0 0 0 3.981-3.696 9.527 9.527 0 0 0 1.381-4.74c.011-.592-.025-.719-.255-.89-.226-.168-.724-.168-.95 0-.213.159-.249.281-.286.961-.069 1.289-.33 2.282-.891 3.389a8.28 8.28 0 0 1-6.387 4.458c-.436.054-1.486.054-1.922 0a8.323 8.323 0 0 1-5.894-3.608c-.543-.802-1.034-1.968-1.222-2.899A7.462 7.462 0 0 1 2.76 11c0-1.325.258-2.443.836-3.626a8.27 8.27 0 0 1 6.042-4.515c.209-.035.663-.08 1.011-.098.68-.037.802-.073.961-.286.106-.142.155-.433.113-.66-.092-.491-.378-.602-1.383-.535m3.447 2.998c-.342.068-.519.314-.519.722 0 .462.207.693.663.739.137.015 1.617.02 3.289.014 2.956-.013 3.044-.015 3.176-.093a.646.646 0 0 0 .327-.475c.069-.367-.054-.684-.327-.845-.133-.078-.214-.08-3.296-.086-1.738-.003-3.229.007-3.313.024m0 3c-.342.069-.519.314-.519.722 0 .461.207.692.663.74.137.014.942.02 1.789.013 1.455-.012 1.547-.017 1.676-.093a.646.646 0 0 0 .327-.475c.069-.367-.054-.684-.327-.845-.13-.076-.214-.08-1.796-.087-.913-.003-1.729.008-1.813.025M20 17.999c-.753.103-1.347.49-1.657 1.08-.371.707-.339 1.452.104 2.361.171.352.253.469.508.722.623.618 1.349.748 2.108.379.677-.33 1.392-1.244 1.598-2.041.191-.736-.016-1.486-.536-1.945-.475-.419-1.384-.657-2.125-.556m.871 1.542c.241.072.369.212.369.404 0 .477-.635 1.294-1.005 1.295-.31 0-.747-.905-.636-1.318a.669.669 0 0 1 .361-.397c.154-.061.682-.052.911.016" fill-rule="evenodd" fill="#000"/></svg>