<svg width="24" height="24" fill="none" xmlns="http://www.w3.org/2000/svg"><path d="M11.04 1.264a11.59 11.59 0 0 0-2.483.419c-1.204.358-2.536 1.064-3.547 1.882A13.144 13.144 0 0 0 3.565 5.01a11.36 11.36 0 0 0-1.601 2.739c-.775 1.946-.914 4.205-.387 6.296.181.718.363 1.204.745 1.985a9.846 9.846 0 0 0 1.936 2.712c.767.767 1.622 1.39 2.562 1.867 1.55.787 2.933 1.117 4.68 1.117 1.112 0 1.899-.109 2.918-.404 1.196-.345 2.55-1.061 3.572-1.887a13.144 13.144 0 0 0 1.445-1.445c1.435-1.775 2.259-4.003 2.295-6.21.008-.498 0-.576-.071-.7-.24-.418-1.074-.424-1.312-.01-.06.104-.081.262-.108.78-.055 1.071-.238 1.959-.586 2.83-.477 1.196-1.069 2.098-1.972 3.001-1.677 1.677-3.807 2.559-6.181 2.559s-4.504-.882-6.181-2.559a8.635 8.635 0 0 1-2.501-5.079c-.09-.714-.064-1.934.055-2.602a8.714 8.714 0 0 1 2.446-4.681 8.501 8.501 0 0 1 2.75-1.868c.973-.418 1.912-.629 3.061-.689.774-.04.875-.076 1.02-.361.18-.355.073-.886-.21-1.048-.13-.075-.488-.11-.9-.089m2.747 3.014c-.342.068-.519.314-.519.722 0 .462.207.693.663.739.137.015 1.617.02 3.289.014 2.956-.013 3.044-.015 3.176-.093a.646.646 0 0 0 .327-.475c.069-.367-.054-.684-.327-.845-.133-.078-.214-.08-3.296-.086-1.738-.003-3.229.007-3.313.024m0 3c-.342.069-.519.314-.519.722 0 .461.207.692.663.74.137.014.942.02 1.789.013 1.455-.012 1.547-.017 1.676-.093a.646.646 0 0 0 .327-.475c.069-.367-.054-.684-.327-.845-.13-.076-.214-.08-1.796-.087-.913-.003-1.729.008-1.813.025m6.019 11.967c-.193.057-.51.389-.565.59-.096.356-.075.384 1.232 1.692 1.308 1.307 1.336 1.328 1.692 1.232.221-.06.534-.373.594-.594.095-.353.068-.39-1.173-1.637-.619-.623-1.18-1.166-1.246-1.207a.69.69 0 0 0-.534-.076" fill-rule="evenodd" fill="#000"/></svg>