<svg width="24" height="24" fill="none" xmlns="http://www.w3.org/2000/svg"><path d="M11.04 1.265a10.267 10.267 0 0 0-6.782 2.993c-1.614 1.614-2.603 3.63-2.922 5.956-.082.597-.082 1.975 0 2.572.319 2.326 1.308 4.342 2.922 5.956a10.312 10.312 0 0 0 5.201 2.798c1.269.257 2.813.257 4.082 0a10.516 10.516 0 0 0 4.419-2.086c1.789-1.434 3.118-3.629 3.58-5.913a10.902 10.902 0 0 0 0-4.082 10.368 10.368 0 0 0-1.497-3.605 9.559 9.559 0 0 0-1.301-1.596 10.247 10.247 0 0 0-6.082-2.934 13.824 13.824 0 0 0-1.62-.059m1.588 1.556a8.774 8.774 0 0 1 7.37 6.594 8.985 8.985 0 0 1 0 4.17 8.774 8.774 0 0 1-7.37 6.594c-.605.078-1.651.078-2.256 0-2.89-.377-5.445-2.204-6.71-4.799-.629-1.292-.902-2.465-.902-3.878 0-1.651.423-3.171 1.268-4.559a9.09 9.09 0 0 1 2.935-2.927 9.02 9.02 0 0 1 3.357-1.191c.576-.078 1.723-.08 2.308-.004M8.599 11.05c-.25.127-.332.288-.332.65 0 .362.082.523.332.65l.178.09h5.446l.178-.09c.25-.127.328-.281.328-.65s-.078-.523-.328-.65l-.178-.09H8.777l-.178.09m11.207 8.195c-.193.057-.51.389-.565.59-.096.356-.075.384 1.232 1.692 1.308 1.307 1.336 1.328 1.692 1.232.221-.06.534-.373.594-.594.095-.353.068-.39-1.173-1.637-.619-.623-1.18-1.166-1.246-1.207a.69.69 0 0 0-.534-.076" fill-rule="evenodd" fill="#000"/></svg>