<svg width="24" height="24" fill="none" xmlns="http://www.w3.org/2000/svg"><path d="M10.34 1.281C6.073 1.553 2.439 4.66 1.499 8.84a10.086 10.086 0 0 0 0 4.32 9.76 9.76 0 0 0 7.341 7.341c1.393.313 2.93.312 4.336-.003 3.289-.739 5.985-3.188 7.068-6.422a9.928 9.928 0 0 0 .257-5.236 9.76 9.76 0 0 0-7.341-7.341 10.445 10.445 0 0 0-2.82-.218m1.621 1.521a8.318 8.318 0 0 1 5.894 3.608c.543.802 1.034 1.968 1.222 2.899.124.611.163 1.019.163 1.691 0 1.332-.263 2.465-.845 3.642a8.146 8.146 0 0 1-3.753 3.753c-1.177.582-2.31.845-3.642.845a7.867 7.867 0 0 1-3.626-.836 8.266 8.266 0 0 1-4.572-6.443c-.054-.436-.054-1.486 0-1.922.195-1.582.857-3.123 1.846-4.299.337-.4.751-.811 1.168-1.159C6.9 3.677 8.498 2.996 9.984 2.806c.395-.051 1.579-.053 1.977-.004M10.599 7.85c-.322.164-.337.22-.352 1.376l-.014 1.006-1.006.014c-.923.013-1.019.021-1.147.095-.424.245-.424 1.073 0 1.318.128.074.224.082 1.147.095l1.006.014.014 1.006c.012.923.02 1.018.094 1.146.245.424 1.073.424 1.318 0 .074-.128.082-.224.095-1.147l.014-1.006 1.006-.014c1.156-.015 1.212-.03 1.376-.352.186-.367.073-.885-.23-1.06-.128-.074-.223-.082-1.146-.094l-1.006-.014-.014-1.006c-.013-.923-.021-1.019-.095-1.147-.111-.193-.373-.32-.659-.32a.86.86 0 0 0-.401.09M20 17.999c-.753.103-1.347.49-1.657 1.08-.371.707-.339 1.452.104 2.361.171.352.253.469.508.722.623.618 1.349.748 2.108.379.677-.33 1.392-1.244 1.598-2.041.191-.736-.016-1.486-.536-1.945-.475-.419-1.384-.657-2.125-.556m.871 1.542c.241.072.369.212.369.404 0 .477-.635 1.294-1.005 1.295-.31 0-.747-.905-.636-1.318a.669.669 0 0 1 .361-.397c.154-.061.682-.052.911.016" fill-rule="evenodd" fill="#000"/></svg>