<svg width="24" height="24" fill="none" xmlns="http://www.w3.org/2000/svg"><path d="M10.34 1.28a9.752 9.752 0 0 0-8.62 6.747 9.948 9.948 0 0 0-.221 5.133c.816 3.629 3.708 6.526 7.325 7.338 1.378.309 2.916.316 4.276.018a10.65 10.65 0 0 0 2.268-.8 10.094 10.094 0 0 0 3.981-3.696 9.527 9.527 0 0 0 1.381-4.74c.011-.592-.025-.719-.255-.89-.226-.168-.724-.168-.95 0-.213.159-.249.281-.286.961-.069 1.289-.33 2.282-.891 3.389a8.28 8.28 0 0 1-6.387 4.458c-.436.054-1.486.054-1.922 0a8.323 8.323 0 0 1-5.894-3.608c-.543-.802-1.034-1.968-1.222-2.899A7.462 7.462 0 0 1 2.76 11c0-1.325.258-2.443.836-3.626a8.27 8.27 0 0 1 6.042-4.515c.209-.035.663-.08 1.011-.098.68-.037.802-.073.961-.286.106-.142.155-.433.113-.66-.092-.491-.378-.602-1.383-.535m4.292 1.259c-.898.247-1.567.92-1.871 1.881-.111.35-.154 1.1-.084 1.469.259 1.369 1.283 2.624 2.703 3.313.865.419 1.355.423 2.208.019 1.059-.501 2.019-1.438 2.45-2.391.682-1.508.28-3.215-.935-3.968-.418-.26-.724-.353-1.226-.373-.478-.02-.79.04-1.163.223l-.226.111-.213-.109a2.532 2.532 0 0 0-.462-.171c-.299-.075-.915-.077-1.181-.004m.95 1.496c.088.04.236.159.327.262.182.207.409.343.572.343.17 0 .503-.192.656-.379.187-.228.421-.321.729-.289.732.076 1.182.947.951 1.842-.147.568-.6 1.198-1.173 1.632-.297.225-1.005.594-1.14.594-.119 0-.685-.277-.994-.487-.358-.242-.828-.728-1.02-1.053-.418-.711-.472-1.364-.16-1.952.26-.49.807-.715 1.252-.513M20 17.999c-.753.103-1.347.49-1.657 1.08-.371.707-.339 1.452.104 2.361.171.352.253.469.508.722.623.618 1.349.748 2.108.379.677-.33 1.392-1.244 1.598-2.041.191-.736-.016-1.486-.536-1.945-.475-.419-1.384-.657-2.125-.556m.871 1.542c.241.072.369.212.369.404 0 .477-.635 1.294-1.005 1.295-.31 0-.747-.905-.636-1.318a.669.669 0 0 1 .361-.397c.154-.061.682-.052.911.016" fill-rule="evenodd" fill="#000"/></svg>