<svg width="24" height="24" fill="none" xmlns="http://www.w3.org/2000/svg"><path d="M11.04 1.264a11.59 11.59 0 0 0-2.483.419c-1.204.358-2.536 1.064-3.547 1.882A13.144 13.144 0 0 0 3.565 5.01a11.36 11.36 0 0 0-1.601 2.739c-.775 1.946-.914 4.205-.387 6.296.181.718.363 1.204.745 1.985a9.846 9.846 0 0 0 1.936 2.712c.767.767 1.622 1.39 2.562 1.867 1.55.787 2.933 1.117 4.68 1.117 1.112 0 1.899-.109 2.918-.404 1.196-.345 2.55-1.061 3.572-1.887a13.144 13.144 0 0 0 1.445-1.445c1.435-1.775 2.259-4.003 2.295-6.21.008-.498 0-.576-.071-.7-.24-.418-1.074-.424-1.312-.01-.06.104-.081.262-.108.78-.055 1.071-.238 1.959-.586 2.83-.477 1.196-1.069 2.098-1.972 3.001-1.677 1.677-3.807 2.559-6.181 2.559s-4.504-.882-6.181-2.559a8.635 8.635 0 0 1-2.501-5.079c-.09-.714-.064-1.934.055-2.602a8.714 8.714 0 0 1 2.446-4.681 8.501 8.501 0 0 1 2.75-1.868c.973-.418 1.912-.629 3.061-.689.774-.04.875-.076 1.02-.361.18-.355.073-.886-.21-1.048-.13-.075-.488-.11-.9-.089m4.592 1.275c-.898.247-1.567.92-1.871 1.881-.111.35-.154 1.1-.084 1.469.259 1.369 1.283 2.624 2.703 3.313.865.419 1.355.423 2.208.019 1.059-.501 2.019-1.438 2.45-2.391.682-1.508.28-3.215-.935-3.968-.418-.26-.724-.353-1.226-.373-.478-.02-.79.04-1.163.223l-.226.111-.213-.109a2.532 2.532 0 0 0-.462-.171c-.299-.075-.915-.077-1.181-.004m.95 1.496c.088.04.236.159.327.262.182.207.409.343.572.343.17 0 .503-.192.656-.379.187-.228.421-.321.729-.289.732.076 1.182.947.951 1.842-.147.568-.6 1.198-1.173 1.632-.297.225-1.005.594-1.14.594-.119 0-.685-.277-.994-.487-.358-.242-.828-.728-1.02-1.053-.418-.711-.472-1.364-.16-1.952.26-.49.807-.715 1.252-.513m3.224 15.21c-.193.057-.51.389-.565.59-.096.356-.075.384 1.232 1.692 1.308 1.307 1.336 1.328 1.692 1.232.221-.06.534-.373.594-.594.095-.353.068-.39-1.173-1.637-.619-.623-1.18-1.166-1.246-1.207a.69.69 0 0 0-.534-.076" fill-rule="evenodd" fill="#000"/></svg>