<svg width="24" height="24" fill="none" xmlns="http://www.w3.org/2000/svg"><path d="M9.663 1.362c-.13.02-.346.065-.48.099-.294.075-5.4 1.987-5.683 2.129-.991.494-1.815 1.531-2.133 2.682l-.107.388v4.16c0 3.262.011 4.22.052 4.437.183.965.742 2.095 1.396 2.821.165.184.889.749 2.512 1.962 1.254.938 2.388 1.778 2.52 1.867.517.35 1.09.578 1.805.718.537.106 1.582.095 2.134-.022a4.935 4.935 0 0 0 1.406-.518c.162-.093 1.328-.943 2.592-1.887l2.296-1.718h.835c.459 0 1.01-.019 1.224-.042 1.593-.17 2.355-.842 2.63-2.318.063-.337.073-.73.088-3.457.023-4.068-.016-4.673-.349-5.403-.395-.868-1.206-1.35-2.441-1.449l-.38-.031-.134-.26c-.444-.859-1.112-1.548-1.88-1.937-.337-.171-5.366-2.047-5.746-2.144-.303-.077-.483-.093-1.14-.103-.429-.006-.886.006-1.017.026m1.626 1.497c.25.044 1.025.317 2.955 1.043 1.439.542 2.712 1.041 2.829 1.111.117.07.342.262.5.427l.287.3-3.58.023c-3.765.025-3.771.025-4.392.211-.643.192-1.2.645-1.46 1.188a4.136 4.136 0 0 0-.347 1.325c-.054.509-.053 6.762.001 7.265.098.92.32 1.458.794 1.929.336.333.622.494 1.124.632.573.158.881.177 3.171.203l2.232.024-1.43 1.07c-.786.588-1.566 1.141-1.733 1.228-.956.497-2.356.502-3.345.013-.433-.214-4.889-3.56-5.151-3.867a4.79 4.79 0 0 1-.906-1.773c-.075-.291-.078-.475-.078-4.327.001-3.285.011-4.062.056-4.23.183-.687.738-1.408 1.303-1.693.42-.213 5.362-2.049 5.657-2.102a5.4 5.4 0 0 1 1.513 0m8.85 4.483c.438.078.736.233.849.439.188.344.222.576.242 1.669l.019 1.03H9.56v-.83c.001-1.346.127-1.894.486-2.104.423-.248.282-.241 4.954-.264 4.647-.024 4.674-.024 5.139.06m1.101 6.408c0 1.026-.018 1.901-.042 2.05-.092.584-.247.845-.589.992-.432.186-.485.188-5.169.188-4.674 0-4.73-.002-5.223-.185-.243-.09-.344-.189-.46-.453-.165-.373-.196-.797-.197-2.652v-1.73h11.68v1.79m-10.319.858c-.252.129-.334.29-.334.652 0 .362.082.523.334.652.174.089.206.091 1.126.08.891-.011.954-.017 1.06-.096.197-.147.273-.324.273-.636s-.076-.489-.273-.636c-.106-.079-.169-.085-1.06-.096-.92-.011-.952-.009-1.126.08m3.492-.045c-.473.14-.552 1.011-.12 1.333.111.083.143.084 2.08.084 1.856 0 1.974-.004 2.092-.075.209-.127.275-.282.275-.645 0-.363-.066-.518-.275-.645-.117-.07-.241-.075-2.025-.082-1.086-.004-1.954.009-2.027.03" fill-rule="evenodd" fill="#000"/></svg>