<svg width="24" height="24" fill="none" xmlns="http://www.w3.org/2000/svg"><path d="M11.16 1.325a7.07 7.07 0 0 0-1.26.33c-.783.294-5.697 2.321-5.953 2.455-.527.276-1.04.839-1.324 1.455-.277.602-.269.474-.253 3.769.016 3.205.016 3.197.251 4.226.511 2.236 1.651 4.278 3.317 5.941 1.456 1.453 3.255 2.533 5.126 3.08.856.25 1.425.196 2.612-.247a12.243 12.243 0 0 0 4.386-2.834c1.687-1.681 2.895-3.884 3.357-6.122.172-.831.183-1 .225-3.438.061-3.478.041-3.774-.291-4.444-.321-.648-.794-1.136-1.393-1.437-.23-.116-5.351-2.221-5.889-2.421-.691-.258-1.295-.358-2.111-.353-.319.003-.679.02-.8.04m1.92 1.567c.392.104 6.039 2.391 6.351 2.573.191.111.441.407.602.713l.107.202v2.76c0 2.949-.009 3.117-.207 4.02-.561 2.55-2.108 4.87-4.291 6.438a10.25 10.25 0 0 1-2.974 1.502c-.572.181-.764.181-1.336 0-2.743-.868-5.093-2.894-6.403-5.52a10.613 10.613 0 0 1-.998-3.119c-.097-.606-.126-5.761-.034-6.076.081-.279.346-.673.564-.84.117-.089 1.115-.517 3.066-1.315 3.131-1.28 3.24-1.322 3.703-1.409.478-.091 1.365-.057 1.85.071m-1.693 4.933A2.721 2.721 0 0 0 9.54 9.3c-.206.427-.27.713-.27 1.2 0 .491.064.773.278 1.217.151.315.235.432.506.7.338.335.706.579 1.006.667l.174.052.013 1.322c.012 1.241.018 1.331.094 1.462.245.424 1.073.424 1.318 0 .076-.131.082-.221.094-1.462l.013-1.322.174-.052c.3-.088.668-.333 1.006-.667.271-.268.355-.385.506-.7.214-.444.278-.726.278-1.217 0-.487-.064-.773-.27-1.2a2.824 2.824 0 0 0-1.35-1.317c-.481-.213-1.172-.276-1.723-.158m1.112 1.53c.632.28.921 1.045.627 1.665a1.193 1.193 0 0 1-1.126.716 1.2 1.2 0 0 1-1.139-.74c-.095-.212-.107-.284-.095-.55.021-.443.221-.787.592-1.017.32-.198.791-.229 1.141-.074" fill-rule="evenodd" fill="#000"/></svg>