<svg width="24" height="24" fill="none" xmlns="http://www.w3.org/2000/svg"><path d="M11.16 1.325a7.07 7.07 0 0 0-1.26.33c-.783.294-5.697 2.321-5.953 2.455-.527.276-1.04.839-1.324 1.455-.277.602-.269.474-.253 3.769.016 3.205.016 3.197.251 4.226.511 2.236 1.651 4.278 3.317 5.941 1.456 1.453 3.255 2.533 5.126 3.08.856.25 1.425.196 2.612-.247a12.243 12.243 0 0 0 4.386-2.834c1.687-1.681 2.895-3.884 3.357-6.122.172-.831.183-1 .225-3.438.061-3.478.041-3.774-.291-4.444-.321-.648-.794-1.136-1.393-1.437-.23-.116-5.351-2.221-5.889-2.421-.691-.258-1.295-.358-2.111-.353-.319.003-.679.02-.8.04m1.92 1.567c.392.104 6.039 2.391 6.351 2.573.191.111.441.407.602.713l.107.202v2.76c0 2.949-.009 3.117-.207 4.02-.561 2.55-2.108 4.87-4.291 6.438a10.25 10.25 0 0 1-2.974 1.502c-.572.181-.764.181-1.336 0-2.743-.868-5.093-2.894-6.403-5.52a10.613 10.613 0 0 1-.998-3.119c-.097-.606-.126-5.761-.034-6.076.081-.279.346-.673.564-.84.117-.089 1.115-.517 3.066-1.315 3.131-1.28 3.24-1.322 3.703-1.409.478-.091 1.365-.057 1.85.071" fill-rule="evenodd" fill="#000"/></svg>