<svg width="24" height="24" fill="none" xmlns="http://www.w3.org/2000/svg"><path d="M11.434 1.282a5.98 5.98 0 0 0-.723.113c-.334.079-5.259 1.902-5.738 2.124-.971.449-1.822 1.481-2.18 2.644l-.092.297-.011 4.257c-.013 4.643-.018 4.531.216 5.231.26.779.769 1.647 1.27 2.167.191.199.933.781 2.264 1.777 3.139 2.348 3.132 2.344 3.862 2.582.615.201 1.082.259 1.891.234.919-.028 1.384-.129 2.071-.452.391-.184.535-.287 3.116-2.216 1.625-1.214 2.347-1.778 2.512-1.962.487-.541.966-1.369 1.205-2.085.25-.748.236-.471.252-4.967.015-4.435.014-4.467-.195-5.076-.34-.994-1.143-1.942-2.021-2.387-.223-.113-4.605-1.772-5.401-2.044-.609-.209-1.531-.304-2.298-.237m1.384 1.536c.375.072 5.468 1.971 5.776 2.155.458.271.969.944 1.176 1.547l.089.26.013 3.8c.008 2.464-.002 3.937-.03 4.189-.091.853-.562 1.81-1.18 2.401-.434.415-4.618 3.519-5.002 3.711-.55.274-.851.335-1.66.334-.795-.001-1.085-.058-1.61-.314-.347-.169-4.722-3.417-5.081-3.772-.368-.363-.763-1.012-.957-1.569-.194-.559-.192-.513-.191-4.713 0-4.405-.012-4.204.281-4.766.284-.546.669-.951 1.124-1.183.33-.169 5.325-2.024 5.594-2.078.361-.073 1.282-.074 1.658-.002M11.6 6.681c-.833.099-1.57.65-1.938 1.447-.64 1.389.146 3.065 1.621 3.454.313.083.932.093 1.237.02 1.515-.362 2.348-2.065 1.698-3.474-.469-1.016-1.492-1.582-2.618-1.447m.744 1.555a.991.991 0 0 1 .594.924.997.997 0 0 1-1.454.895c-.398-.199-.629-.674-.531-1.096.078-.339.325-.627.647-.754.169-.067.564-.05.744.031m-1.118 4.246c-1.284.2-2.307.925-2.587 1.832-.263.849.099 1.761.921 2.324.699.479 1.436.686 2.44.686.897 0 1.557-.162 2.21-.544 1.317-.771 1.616-2.188.686-3.251-.203-.233-.716-.589-1.076-.748-.515-.227-.942-.31-1.68-.323-.374-.007-.785.003-.914.024m1.594 1.535c.307.082.695.277.897.449.422.362.243.794-.462 1.12-.434.201-.815.267-1.393.243-.542-.022-.845-.092-1.217-.28-.314-.159-.605-.464-.605-.635 0-.395.553-.781 1.34-.937.351-.069 1.109-.048 1.44.04" fill-rule="evenodd" fill="#000"/></svg>