<svg width="24" height="24" fill="none" xmlns="http://www.w3.org/2000/svg"><path d="M11.434 1.282a5.98 5.98 0 0 0-.723.113c-.334.079-5.259 1.902-5.738 2.124-.971.449-1.822 1.481-2.18 2.644l-.092.297-.011 4.257c-.013 4.641-.018 4.527.215 5.231.253.766.77 1.648 1.271 2.167.191.199.933.781 2.264 1.777 3.139 2.348 3.132 2.344 3.862 2.582.615.201 1.082.259 1.891.234.919-.028 1.384-.129 2.071-.452.391-.184.535-.287 3.116-2.216 1.625-1.214 2.347-1.778 2.512-1.962.487-.541.966-1.369 1.205-2.085.25-.748.236-.471.252-4.967.015-4.435.014-4.467-.195-5.076-.34-.994-1.143-1.942-2.021-2.387-.223-.113-4.605-1.772-5.401-2.044-.609-.209-1.531-.304-2.298-.237m1.384 1.536c.375.072 5.468 1.971 5.776 2.155.458.271.969.944 1.176 1.547l.089.26.013 3.8c.008 2.464-.002 3.937-.03 4.189-.091.853-.562 1.81-1.18 2.401-.434.415-4.618 3.519-5.002 3.711-.55.274-.851.335-1.66.334-.795-.001-1.085-.058-1.61-.314-.347-.169-4.722-3.417-5.081-3.772-.368-.363-.763-1.012-.957-1.569-.194-.559-.192-.513-.191-4.713 0-4.405-.012-4.204.281-4.766.284-.546.669-.951 1.124-1.183.33-.169 5.325-2.024 5.594-2.078.361-.073 1.282-.074 1.658-.002m-1.613 4.006a4.737 4.737 0 0 0-3.92 4.261 4.733 4.733 0 1 0 9.43.83c.266-3.094-2.45-5.604-5.51-5.091M12.8 8.34c1.072.258 2.039 1.208 2.346 2.302.102.365.102 1.351 0 1.716a3.354 3.354 0 0 1-1.726 2.064c-.502.244-.813.313-1.42.313s-.918-.069-1.42-.313c-.819-.4-1.487-1.193-1.72-2.042a4.347 4.347 0 0 1-.088-.723c-.046-.999.234-1.736.928-2.442a3.197 3.197 0 0 1 1.687-.914c.375-.071 1.03-.053 1.413.039m-.957 1.248c-.277.145-.301.218-.323.989-.014.487-.036.71-.073.754-.029.035-.242.176-.474.313a4.67 4.67 0 0 0-.553.373c-.239.226-.254.521-.044.879.154.264.316.364.588.364.208 0 .26-.022.759-.32.619-.37.933-.655 1.091-.991.159-.336.194-.603.179-1.353-.014-.731-.028-.779-.288-.973-.156-.117-.667-.137-.862-.035" fill-rule="evenodd" fill="#000"/></svg>