<svg width="24" height="24" fill="none" xmlns="http://www.w3.org/2000/svg"><path d="M17.428 2.402c-.435.039-.88.126-1.429.28-.701.196-9.221 3.052-9.779 3.278-2.685 1.086-4.035 2.546-3.819 4.127.131.96.711 1.738 1.876 2.52.843.565 1.748.96 3.703 1.615.704.236 1.3.449 1.324.474.025.024.238.62.474 1.324.492 1.469.729 2.075 1.086 2.783 1.018 2.013 2.298 2.986 3.675 2.795 1.377-.192 2.553-1.474 3.501-3.818.215-.531 3.012-8.861 3.259-9.705.524-1.79.402-3.271-.355-4.331-.536-.75-1.407-1.222-2.477-1.341-.42-.047-.516-.047-1.039-.001m1.269 1.557c.685.175 1.078.555 1.327 1.281.105.306.108 1.31.004 1.8-.104.495-3.27 9.964-3.53 10.559-.553 1.265-1.23 2.153-1.861 2.439a1.124 1.124 0 0 1-.834 0c-.636-.288-1.314-1.181-1.868-2.459-.124-.285-.448-1.184-.72-1.997l-.495-1.479 1.835-1.841c1.948-1.956 1.963-1.973 1.911-2.292-.052-.318-.456-.69-.75-.69a.911.911 0 0 0-.263.042c-.062.023-.968.897-2.014 1.941l-1.901 1.898-1.299-.436c-1.946-.652-2.812-1.059-3.55-1.668-.566-.467-.807-.847-.808-1.277 0-.344.131-.599.51-.989.514-.53 1.364-1.042 2.429-1.462.649-.256 9.772-3.278 10.1-3.345.444-.091.459-.093.984-.099.365-.004.559.014.793.074" fill-rule="evenodd" fill="#000"/></svg>