<svg width="24" height="24" fill="none" xmlns="http://www.w3.org/2000/svg"><path d="M4.98 2.28c-1.397.126-2.351.973-2.604 2.312-.094.499-.057 1.461.081 2.084.24 1.088.509 1.779 1.396 3.581l.687 1.397.013.323.013.323-.674 1.36c-1.159 2.337-1.514 3.422-1.561 4.76-.041 1.19.177 1.847.832 2.505.484.485 1.033.72 1.857.794.957.086 2.105-.14 3.49-.685.692-.273 9.945-4.871 10.58-5.258 1.703-1.037 2.59-2.331 2.59-3.776 0-1.444-.888-2.739-2.587-3.774-.532-.324-9.646-4.871-10.358-5.167-1.075-.448-1.995-.698-2.855-.777a7.578 7.578 0 0 0-.52-.036l-.38.034m1.64 1.635c.559.141.874.246 1.482.495.75.308 10.076 4.992 10.498 5.273.468.311 1.084.921 1.291 1.277.212.364.287.637.287 1.04s-.075.676-.287 1.04c-.207.356-.823.966-1.291 1.277-.498.332-9.971 5.07-10.713 5.358-1.795.698-3.151.756-3.713.159-.287-.306-.397-.723-.364-1.386.055-1.105.451-2.219 1.61-4.528.271-.539.504-1.02.518-1.068l.026-.089 2.568-.011c2.485-.012 2.572-.015 2.704-.092a.646.646 0 0 0 .327-.475c.069-.367-.054-.684-.327-.845-.132-.077-.22-.08-2.696-.093l-2.56-.013-.61-1.247c-.959-1.961-1.217-2.595-1.433-3.528-.093-.402-.112-.572-.113-1.059-.003-.519.007-.605.091-.815.16-.4.434-.638.885-.771.126-.037.352-.048.76-.036.475.014.667.039 1.06.137" fill-rule="evenodd" fill="#000"/></svg>