<svg width="24" height="24" fill="none" xmlns="http://www.w3.org/2000/svg"><path d="M4.62 2.84a.544.544 0 0 0-.292.285l-.091.185.002 5.224c.002 3.103.018 5.305.04 5.423.077.402.263.543.721.543.358 0 .548-.095.666-.331.07-.142.075-.354.085-4.488l.011-4.338 6.409 6.402c4.195 4.191 6.459 6.426 6.555 6.469.295.133.56.059.83-.234.087-.095.18-.245.207-.335.111-.37.531.08-6.517-6.975L6.821 4.24h4.337c4.327 0 4.337 0 4.511-.084.234-.114.331-.305.331-.656 0-.349-.097-.542-.329-.654-.17-.083-.203-.083-5.511-.095L4.82 2.74l-.2.1M3.295 21.277c-.229.038-.369.141-.457.336-.168.37-.051.877.242 1.046.139.081.18.081 8.92.081s8.781 0 8.92-.081c.424-.245.424-1.073 0-1.318-.139-.081-.185-.081-8.8-.086-4.763-.003-8.734.007-8.825.022" fill-rule="evenodd" fill="#000"/></svg>