<svg width="24" height="24" fill="none" xmlns="http://www.w3.org/2000/svg"><path d="M8.08 1.282c-4.072.213-6.185 2.014-6.697 5.709-.113.812-.141 1.825-.141 5.009 0 4.504.06 5.273.518 6.65.772 2.313 2.446 3.576 5.267 3.972.759.106 1.875.137 4.973.137s4.214-.031 4.973-.137c2.47-.347 4.023-1.334 4.924-3.132.482-.96.741-2.121.823-3.683.051-.969.051-6.645 0-7.614-.063-1.195-.199-2.002-.478-2.837-.61-1.825-1.773-2.989-3.592-3.596-.862-.287-1.627-.416-2.844-.48-.854-.045-6.854-.043-7.726.002m8.72 1.572c2.786.462 3.914 1.6 4.348 4.386.066.421.072.824.072 4.76s-.006 4.339-.072 4.76c-.436 2.798-1.59 3.952-4.388 4.388-.421.066-.824.072-4.76.072s-4.339-.006-4.76-.072c-2.79-.435-3.957-1.597-4.386-4.368-.069-.445-.074-.791-.074-4.78 0-4.753-.004-4.663.264-5.712C3.557 4.282 4.722 3.274 6.96 2.9c.73-.123 1.088-.131 5.24-.123 3.763.007 4.222.014 4.6.077m-4.26 4.063c-2.036.021-2.211.029-2.349.097-.236.118-.331.308-.331.666 0 .358.095.548.331.666.134.067.28.075 1.486.087l1.337.013-2.242 2.247c-1.233 1.236-2.271 2.292-2.307 2.346a.624.624 0 0 0-.065.304c0 .502.621.93 1.043.717.076-.038 1.149-1.078 2.385-2.312l2.248-2.242.012 1.357c.011 1.281.017 1.365.093 1.496.13.221.307.301.666.301.332 0 .442-.049.611-.275.08-.108.083-.167.104-2.498.022-2.511.02-2.548-.154-2.74-.101-.112-.34-.223-.514-.239-.085-.008-1.144-.003-2.354.009m-6.979 8.948c-.275.232-.401.74-.25 1.015.1.182.31.296.86.466a19.831 19.831 0 0 0 11.658 0c.55-.17.76-.284.86-.466.151-.275.025-.783-.25-1.015-.178-.15-.432-.141-.984.034a18.77 18.77 0 0 1-3.995.78c-1.056.089-2.758.044-3.86-.101a19.388 19.388 0 0 1-3.055-.679c-.552-.175-.806-.184-.984-.034" fill-rule="evenodd" fill="#000"/></svg>