<svg width="24" height="24" fill="none" xmlns="http://www.w3.org/2000/svg"><path d="M11.476 1.401a3.793 3.793 0 0 0-1.03.273c-.322.137-5.63 3.206-6.166 3.565-1.606 1.073-1.918 1.52-2.001 2.859-.048.775-.048 6.969 0 7.782.08 1.368.391 1.81 2.041 2.907.664.44 5.909 3.456 6.229 3.581.575.224 1.26.307 1.93.233.809-.09.851-.111 4.001-1.932 1.573-.909 3.031-1.768 3.24-1.907 1.614-1.08 1.921-1.523 2.001-2.882.047-.806.047-6.954 0-7.76-.08-1.359-.387-1.802-2.001-2.882-.209-.139-1.667-.998-3.24-1.907-3.132-1.811-3.195-1.841-3.969-1.928a3.857 3.857 0 0 0-1.035-.002m1.174 1.542c.309.074.21.02 3.27 1.788 2.673 1.544 3.48 2.05 3.925 2.461.407.375.375-.032.375 4.808s.032 4.433-.375 4.808a8.573 8.573 0 0 1-.727.557c-.558.386-5.885 3.479-6.238 3.621-.472.191-1.288.191-1.76 0-.353-.142-5.68-3.235-6.238-3.621a8.573 8.573 0 0 1-.727-.557c-.407-.375-.375.032-.375-4.808s-.032-4.433.375-4.808c.126-.117.453-.367.727-.557.563-.389 5.886-3.479 6.243-3.623.407-.165 1.016-.192 1.525-.069m-.91 5.323c-1.325.119-2.413.819-3.021 1.946A3.483 3.483 0 0 0 8.271 12c0 .682.129 1.197.45 1.792a3.518 3.518 0 0 0 1.491 1.489 3.483 3.483 0 0 0 1.788.448c.68 0 1.197-.129 1.788-.448a3.518 3.518 0 0 0 1.491-1.489c.321-.595.45-1.11.45-1.792 0-.68-.129-1.197-.448-1.788a3.674 3.674 0 0 0-2.066-1.749c-.422-.147-1.066-.233-1.475-.197m.838 1.555c.371.097.696.291 1.003.598.46.46.659.937.659 1.581 0 .644-.199 1.121-.659 1.581-.46.46-.937.659-1.581.659-.644 0-1.121-.199-1.581-.659-.46-.46-.659-.937-.659-1.581 0-.644.199-1.121.659-1.581.3-.301.631-.5.985-.596.288-.077.881-.078 1.174-.002" fill-rule="evenodd" fill="#000"/></svg>