<svg width="24" height="24" fill="none" xmlns="http://www.w3.org/2000/svg"><path d="M8.08 1.282c-4.072.213-6.185 2.014-6.697 5.709-.113.812-.141 1.825-.141 5.009 0 4.504.06 5.273.518 6.65.772 2.313 2.446 3.576 5.267 3.972.759.106 1.875.137 4.973.137s4.214-.031 4.973-.137c2.47-.347 4.023-1.334 4.924-3.132.482-.96.741-2.121.823-3.683.051-.969.051-6.645 0-7.614-.063-1.195-.199-2.002-.478-2.837-.61-1.825-1.773-2.989-3.592-3.596-.862-.287-1.627-.416-2.844-.48-.854-.045-6.854-.043-7.726.002m8.72 1.572c2.786.462 3.914 1.6 4.348 4.386.066.421.072.824.072 4.76s-.006 4.339-.072 4.76c-.436 2.798-1.59 3.952-4.388 4.388-.421.066-.824.072-4.76.072s-4.339-.006-4.76-.072c-2.79-.435-3.957-1.597-4.386-4.368-.069-.445-.074-.791-.074-4.78 0-4.753-.004-4.663.264-5.712C3.557 4.282 4.722 3.274 6.96 2.9c.73-.123 1.088-.131 5.24-.123 3.763.007 4.222.014 4.6.077m-8.707 1.95c-.159.046-.318.232-.373.437-.028.104-.039.884-.031 2.308L7.7 9.7l.091.146c.123.198.323.286.654.286.298 0 .468-.074.611-.265.083-.111.084-.146.095-2.37.011-2.185.008-2.261-.069-2.412-.14-.276-.577-.4-.989-.281m7.08.031c-.284.133-.31.224-.333 1.145l-.02.8-.26.084a3.383 3.383 0 0 0-2.202 2.263c-.107.372-.147 1.113-.081 1.495.137.787.602 1.575 1.199 2.035 1.356 1.043 3.176.965 4.391-.189 1.258-1.195 1.391-3.107.313-4.508-.351-.457-.991-.902-1.549-1.079l-.305-.097-.013-.782c-.014-.855-.039-.953-.28-1.134-.161-.119-.637-.138-.86-.033m1.08 3.49c.488.199.951.702 1.093 1.188.136.47.048 1.148-.195 1.505-.387.567-.934.871-1.571.873-.409.001-.706-.086-1.026-.301a1.848 1.848 0 0 1-.632-2.382c.134-.268.53-.671.789-.803.449-.229 1.094-.263 1.542-.08m-8.42 2.335a3.298 3.298 0 0 0-1.7.872c-1.259 1.196-1.392 3.106-.313 4.508.351.457.991.902 1.549 1.079l.305.097.013.782c.012.696.022.797.093.918.13.221.259.292.573.314.235.017.31.006.465-.069.298-.144.319-.214.342-1.141l.02-.8.26-.084a3.383 3.383 0 0 0 2.202-2.263c.107-.372.147-1.113.081-1.495a3.337 3.337 0 0 0-3.163-2.76c-.269-.01-.53.005-.727.042m1.154 1.523c.284.079.676.353.892.624.449.563.525 1.331.199 1.985-.147.293-.555.693-.845.828-.458.212-1.042.233-1.486.054-.486-.196-.949-.698-1.094-1.187-.141-.474-.054-1.13.199-1.507.494-.736 1.285-1.031 2.135-.797m6.36 1.695a.607.607 0 0 0-.437.325c-.064.126-.07.322-.07 2.349 0 2.155.002 2.215.083 2.373.118.232.355.332.727.305.311-.022.44-.094.57-.314.077-.132.08-.208.08-2.376V14.3l-.091-.146c-.143-.23-.505-.346-.862-.276" fill-rule="evenodd" fill="#000"/></svg>