<svg width="24" height="24" fill="none" xmlns="http://www.w3.org/2000/svg"><path d="M8.431 1.839a3.393 3.393 0 0 0-.387.1c-.223.074-2.18 1.178-2.485 1.402-.617.453-1 1.238-1.008 2.07-.005.492.051.708.35 1.349.139.297.264.622.279.723.06.407-.168.756-.581.89-.124.04-.447.087-.744.107-.347.023-.61.064-.78.121A2.694 2.694 0 0 0 1.521 9.98c-.249.521-.261.614-.261 2.02 0 1.406.012 1.499.261 2.02a2.77 2.77 0 0 0 1.25 1.256c.335.16.518.2 1.099.242.27.019.593.067.718.106.422.133.653.481.592.893-.015.101-.14.426-.279.723-.299.641-.355.857-.35 1.349.008.832.391 1.617 1.008 2.07.362.266 2.293 1.341 2.56 1.426.336.107.914.116 1.278.02.659-.172 1.092-.511 1.547-1.21.434-.668.702-.895 1.056-.895.366 0 .651.229 1.008.81.134.218.332.493.44.611.64.7 1.733.952 2.606.6.13-.053.705-.363 1.275-.689 1.163-.663 1.436-.876 1.726-1.344a2.65 2.65 0 0 0 .068-2.718c-.476-.849-.366-1.419.316-1.654.089-.031.401-.073.692-.094.316-.023.633-.071.789-.119.784-.244 1.475-.95 1.727-1.763.089-.289.093-.351.093-1.64s-.004-1.351-.093-1.64c-.252-.813-.943-1.519-1.727-1.763a4.286 4.286 0 0 0-.789-.119c-.291-.021-.603-.063-.692-.094-.682-.235-.792-.805-.316-1.654.064-.115.165-.349.224-.52.089-.26.107-.381.108-.75.003-.592-.107-.975-.427-1.489-.265-.427-.558-.653-1.699-1.303-.57-.326-1.146-.636-1.278-.69-.869-.351-1.966-.097-2.607.605-.11.12-.29.368-.4.55-.37.613-.673.867-1.034.867-.373 0-.595-.18-1.025-.834-.5-.76-.91-1.094-1.551-1.261-.293-.076-.77-.107-1.003-.066m.749 1.556c.197.089.374.289.66.744.409.651 1.052 1.154 1.66 1.3.257.061.744.061 1-.001.455-.11.966-.429 1.308-.817.092-.105.294-.381.449-.614.348-.521.517-.654.863-.679a.953.953 0 0 1 .37.034c.072.029.553.292 1.07.586 1.036.588 1.223.741 1.342 1.098.116.349.067.65-.194 1.194-.269.561-.349.874-.354 1.387-.007.681.214 1.198.705 1.645.448.409 1.038.626 1.863.684.541.039.748.114.998.364.329.329.34.383.34 1.68s-.011 1.351-.34 1.68c-.252.252-.456.325-1.011.364-.809.056-1.403.276-1.85.684-.483.44-.712.965-.706 1.617.005.509.098.88.355 1.415.261.544.31.845.194 1.194-.118.355-.307.511-1.322 1.089-1.074.612-1.129.637-1.38.637-.378 0-.618-.167-.903-.63-.49-.797-.976-1.224-1.652-1.449-.296-.099-.827-.117-1.145-.039-.64.157-1.288.68-1.724 1.392-.237.385-.393.556-.596.65-.198.092-.54.098-.712.012-.355-.176-1.93-1.089-2.051-1.189a1.25 1.25 0 0 1-.248-.321c-.091-.174-.107-.255-.107-.526.001-.304.011-.341.207-.74.287-.583.388-.961.389-1.46.002-.428-.05-.677-.209-1-.398-.809-1.172-1.248-2.36-1.338-.553-.042-.746-.109-.984-.343a1.472 1.472 0 0 1-.25-.356c-.092-.199-.094-.228-.094-1.343s.002-1.144.094-1.343c.052-.112.165-.272.25-.356.238-.234.431-.301.984-.343 1.19-.091 1.955-.525 2.36-1.34.158-.319.211-.569.209-.998-.001-.499-.102-.877-.389-1.46-.196-.399-.206-.436-.207-.74 0-.271.016-.352.107-.526a1.25 1.25 0 0 1 .248-.321c.114-.094 1.606-.962 2.043-1.188.164-.085.523-.08.72.01m2.56 4.871c-1.325.119-2.413.819-3.021 1.946A3.483 3.483 0 0 0 8.271 12c0 .682.129 1.197.45 1.792a3.518 3.518 0 0 0 1.491 1.489 3.483 3.483 0 0 0 1.788.448c.68 0 1.197-.129 1.788-.448a3.518 3.518 0 0 0 1.491-1.489c.321-.595.45-1.11.45-1.792 0-.68-.129-1.197-.448-1.788a3.674 3.674 0 0 0-2.066-1.749c-.422-.147-1.066-.233-1.475-.197m.838 1.555c.371.097.696.291 1.003.598.46.46.659.937.659 1.581 0 .644-.199 1.121-.659 1.581-.46.46-.937.659-1.581.659-.644 0-1.121-.199-1.581-.659-.46-.46-.659-.937-.659-1.581 0-.644.199-1.121.659-1.581.3-.301.631-.5.985-.596.288-.077.881-.078 1.174-.002" fill-rule="evenodd" fill="#000"/></svg>