<svg width="24" height="24" fill="none" xmlns="http://www.w3.org/2000/svg"><path d="M9.579 2.282c-1.586.156-2.992 1.228-3.546 2.706a5.919 5.919 0 0 0-.152.492l-.066.26-2.058.02c-1.978.019-2.062.023-2.196.101-.215.127-.294.299-.294.639s.079.512.294.639c.134.078.218.082 2.196.101l2.058.02.066.26c.406 1.606 1.656 2.796 3.299 3.14.425.089 1.215.089 1.64 0a4.311 4.311 0 0 0 2.979-2.259c.489-.958.572-2.235.214-3.279a4.259 4.259 0 0 0-4.434-2.84m1.117 1.557c.483.123.833.329 1.227.72.38.377.536.622.702 1.101.098.286.11.376.11.84 0 .464-.012.554-.11.84-.166.479-.322.724-.702 1.101-.562.558-1.143.799-1.923.799s-1.361-.241-1.923-.799c-.38-.377-.536-.622-.702-1.101-.098-.286-.11-.376-.11-.84 0-.464.012-.554.11-.84.166-.479.322-.724.702-1.101.389-.386.742-.595 1.212-.718.4-.105 1-.106 1.407-.002m4.903 2.011c-.25.127-.332.288-.332.65 0 .362.082.523.332.65l.178.09h6.446l.178-.09c.25-.127.328-.281.328-.65s-.078-.523-.328-.65l-.178-.09h-6.446l-.178.09m-2.02 7.432a4.252 4.252 0 0 0-3.592 2.84c-.59 1.721.008 3.687 1.447 4.754a4.136 4.136 0 0 0 2.566.851c1.194 0 2.28-.464 3.086-1.318.512-.543.83-1.126 1.031-1.889l.068-.26 2.058-.02c1.978-.019 2.062-.023 2.196-.101.215-.127.29-.291.29-.639 0-.348-.075-.512-.29-.639-.134-.078-.218-.082-2.196-.101l-2.058-.02-.066-.26a4.252 4.252 0 0 0-4.54-3.198m1.117 1.557c.483.123.833.329 1.227.72.38.377.536.622.702 1.101.098.286.11.376.11.84 0 .464-.012.554-.11.84-.166.479-.322.724-.702 1.101-.562.558-1.143.799-1.923.799s-1.361-.241-1.923-.799c-.38-.377-.536-.622-.702-1.101-.098-.286-.11-.376-.11-.84 0-.464.012-.554.11-.84.166-.479.322-.724.702-1.101.389-.386.742-.595 1.212-.718.4-.105 1-.106 1.407-.002M1.599 16.85c-.25.127-.332.288-.332.65 0 .362.082.523.332.65l.178.09h6.446l.178-.09c.25-.127.328-.281.328-.65s-.078-.523-.328-.65l-.178-.09H1.777l-.178.09" fill-rule="evenodd" fill="#000"/></svg>