<svg width="24" height="24" fill="none" xmlns="http://www.w3.org/2000/svg"><path d="M11.18 6.822a5.459 5.459 0 0 0-2.835 1.415c-.7.666-1.281 1.731-1.476 2.703l-.056.28-2.536.02c-2.446.019-2.542.023-2.673.1a.646.646 0 0 0-.327.475c-.069.367.054.684.327.845.131.077.227.081 2.673.1l2.536.02.056.28c.146.731.485 1.476.955 2.1a5.228 5.228 0 0 0 6.478 1.542 5.093 5.093 0 0 0 1.874-1.542c.47-.624.809-1.369.955-2.1l.056-.28 2.536-.02c2.446-.019 2.542-.023 2.673-.1.273-.161.396-.478.327-.845a.646.646 0 0 0-.327-.475c-.131-.077-.227-.081-2.673-.1l-2.536-.02-.056-.28a5.292 5.292 0 0 0-.955-2.1c-.822-1.089-2.009-1.796-3.395-2.021a5.96 5.96 0 0 0-1.601.003m1.626 1.514c1.401.306 2.549 1.459 2.863 2.874.086.389.087 1.198.001 1.576a3.77 3.77 0 0 1-1.028 1.856c-.521.521-1.15.87-1.856 1.028-.381.086-1.191.086-1.572 0a3.823 3.823 0 0 1-2.883-2.88c-.087-.385-.087-1.193-.001-1.576a3.798 3.798 0 0 1 3.063-2.917c.362-.064 1.024-.046 1.413.039" fill-rule="evenodd" fill="#000"/></svg>