<svg width="24" height="24" fill="none" xmlns="http://www.w3.org/2000/svg"><path d="M4.787 1.278a.659.659 0 0 0-.447.326c-.078.132-.08.208-.08 2.896 0 2.688.002 2.764.08 2.896.161.273.478.396.845.327a.646.646 0 0 0 .475-.327c.077-.132.08-.22.093-2.676.007-1.397.001-2.652-.013-2.789-.042-.405-.244-.62-.62-.662a1.307 1.307 0 0 0-.333.009m7 0a.659.659 0 0 0-.447.326c-.079.134-.08.218-.091 5.382l-.011 5.245-.749.015c-.661.013-.765.024-.885.094-.273.161-.396.478-.327.845a.646.646 0 0 0 .327.475c.132.077.208.08 2.396.08 2.188 0 2.264-.003 2.396-.08a.646.646 0 0 0 .327-.475c.069-.367-.054-.684-.327-.845-.12-.07-.224-.081-.886-.094l-.75-.015-.002-5.125c-.001-2.819-.017-5.204-.035-5.3-.079-.408-.458-.621-.936-.528m7 0a.659.659 0 0 0-.447.326c-.078.132-.08.208-.08 2.896 0 2.688.002 2.764.08 2.896.161.273.478.396.845.327a.646.646 0 0 0 .475-.327c.077-.132.08-.22.093-2.676.007-1.397.001-2.652-.013-2.789-.042-.405-.244-.62-.62-.662a1.307 1.307 0 0 0-.333.009m-16 9c-.342.068-.519.314-.519.722 0 .301.073.473.258.61.154.116.379.146 1.083.148l.629.002.011 5.25c.011 5.168.012 5.252.091 5.386a.646.646 0 0 0 .475.327c.367.069.684-.054.845-.327.079-.134.08-.218.091-5.382l.011-5.245.749-.015c.661-.013.765-.024.885-.094.273-.161.396-.478.327-.845a.646.646 0 0 0-.327-.475c-.131-.077-.214-.08-2.296-.086-1.188-.004-2.229.007-2.313.024m14 0c-.342.068-.519.314-.519.722 0 .301.073.473.258.61.154.116.379.146 1.083.148l.629.002.011 5.25c.011 5.168.012 5.252.091 5.386a.646.646 0 0 0 .475.327c.367.069.684-.054.845-.327.079-.134.08-.218.091-5.382l.011-5.245.749-.015c.661-.013.765-.024.885-.094.273-.161.396-.478.327-.845a.646.646 0 0 0-.327-.475c-.131-.077-.214-.08-2.296-.086-1.188-.004-2.229.007-2.313.024m-5 6a.659.659 0 0 0-.447.326c-.078.132-.08.208-.08 2.896 0 2.688.002 2.764.08 2.896.161.273.478.396.845.327a.646.646 0 0 0 .475-.327c.077-.132.08-.22.093-2.676.007-1.397.001-2.652-.013-2.789-.042-.405-.244-.62-.62-.662a1.307 1.307 0 0 0-.333.009" fill-rule="evenodd" fill="#000"/></svg>