<svg width="24" height="24" fill="none" xmlns="http://www.w3.org/2000/svg"><path d="M15.98 1.283c-2.701.207-4.936 2.123-5.582 4.787l-.041.17-1.529.001c-2.627.001-3.563.096-4.568.468-1.464.54-2.339 1.544-2.761 3.165-.236.91-.239.965-.239 4.626 0 3.042.007 3.404.072 3.82a8.09 8.09 0 0 0 .372 1.467c.522 1.387 1.577 2.286 3.156 2.69.981.25 1.908.299 5.22.271 1.449-.013 2.686-.041 2.88-.065 1.879-.24 3.069-.87 3.829-2.029.277-.422.438-.787.607-1.377.265-.924.324-1.64.324-3.964v-1.707l.23-.048c.588-.122 1.355-.46 1.977-.873A6.234 6.234 0 0 0 22.187 10c.611-1.37.68-3.005.189-4.48a6.204 6.204 0 0 0-6.396-4.237m1.22 1.516c1.781.258 3.363 1.662 3.831 3.401.179.667.23 1.443.132 2.046a4.79 4.79 0 0 1-3.115 3.729 4.984 4.984 0 0 1-.31.105c-.01 0-.018-.097-.018-.216 0-.582-.145-1.557-.325-2.184-.376-1.313-1.164-2.278-2.286-2.799-.798-.37-1.525-.529-2.855-.623l-.367-.026.093-.273a4.559 4.559 0 0 1 1.139-1.804 4.672 4.672 0 0 1 2.53-1.335c.345-.063 1.185-.074 1.551-.021m-4.059 5.052c1.865.343 2.622 1.083 2.96 2.895.149.795.18 6.298.042 7.279a4.986 4.986 0 0 1-.449 1.535c-.338.694-.941 1.172-1.787 1.417-.854.247-.775.243-4.427.243-3.656 0-3.673-.001-4.446-.244-1.327-.417-1.931-1.181-2.225-2.816-.062-.339-.069-.738-.069-3.66s.007-3.321.069-3.66c.259-1.439.797-2.242 1.781-2.656.373-.157.871-.29 1.27-.34.198-.024.405-.051.46-.06.055-.008 1.531-.012 3.28-.007 2.767.007 3.227.016 3.541.074" fill-rule="evenodd" fill="#000"/></svg>