<svg width="24" height="24" fill="none" xmlns="http://www.w3.org/2000/svg"><path d="M8.594 1.284c-.992.083-1.849.633-2.392 1.536-.239.398-4.381 7.939-4.595 8.367a2.832 2.832 0 0 0-.324 1.141 3.075 3.075 0 0 0 .451 1.925c.435.698 1.075 1.17 1.89 1.394.303.083.408.088 2.48.103l2.164.016.024.387c.031.498.15 1.064.344 1.644a7.239 7.239 0 0 0 13.746-.057c.575-1.749.439-3.78-.361-5.38-.403-.807-.819-1.393-1.405-1.979A7.343 7.343 0 0 0 16.942 8.4c-.435-.089-1.309-.156-1.916-.146l-.394.006-1.477-2.678c-.812-1.473-1.55-2.792-1.641-2.931-.625-.959-1.711-1.467-2.92-1.367m1.008 1.622c.5.234.498.232 2.265 3.441 2.832 5.146 3.086 5.619 3.151 5.871.034.132.062.303.062.382 0 .208-.107.584-.229.81-.148.272-.517.603-.8.717l-.231.093H3.976l-.305-.151c-.362-.178-.586-.409-.765-.788-.161-.342-.194-.825-.079-1.161.058-.169 3.57-6.62 4.562-8.38.402-.714.86-.992 1.591-.969.304.01.401.031.622.135m7.018 6.953c2.019.417 3.661 1.856 4.313 3.781.242.713.287 1.005.287 1.86 0 .855-.045 1.147-.287 1.86a5.72 5.72 0 0 1-3.573 3.573c-.713.242-1.005.287-1.86.287-.855 0-1.147-.045-1.86-.287a5.711 5.711 0 0 1-3.573-3.573 5.665 5.665 0 0 1-.292-1.312l-.026-.283 2.095-.016c2.323-.017 2.313-.016 2.909-.291a3.136 3.136 0 0 0 1.804-3.13c-.057-.618-.159-.878-.793-2.023a9.698 9.698 0 0 1-.284-.535c0-.041.822.023 1.14.089" fill-rule="evenodd" fill="#000"/></svg>