<svg width="24" height="24" fill="none" xmlns="http://www.w3.org/2000/svg"><path d="M11.32 1.479c-.82.176-1.55.639-2.048 1.296a3.402 3.402 0 0 0-.721 2.145 3.52 3.52 0 0 0 1.678 3.014c.485.302 1.222.506 1.831.506s1.346-.204 1.831-.506a3.657 3.657 0 0 0 1.468-1.783 3.652 3.652 0 0 0 0-2.462 3.657 3.657 0 0 0-1.468-1.783c-.707-.441-1.724-.609-2.571-.427m1.191 1.461c.508.12.956.431 1.246.865a2.057 2.057 0 0 1 0 2.23 2.034 2.034 0 0 1-2.148.865 2.078 2.078 0 0 1-1.246-.865 2.057 2.057 0 0 1 0-2.23 2.034 2.034 0 0 1 2.148-.865m4.103 2.537c-.157.096-.353.376-.409.586-.089.329.013.476.695 1a7.99 7.99 0 0 1 1.894 2.142c.57.953.895 1.902 1.088 3.179.076.504.259.675.718.672.309-.002.522-.091.651-.271.243-.341-.04-1.899-.579-3.185a9.485 9.485 0 0 0-2.726-3.618c-.717-.577-1.023-.693-1.332-.505m-9.754.02c-.174.077-.594.393-1.038.781-1.325 1.158-2.385 2.897-2.823 4.634-.159.628-.25 1.248-.232 1.571.013.222.034.293.114.379.168.179.314.233.639.236.524.004.63-.134.76-.99.314-2.058 1.359-3.827 3.014-5.105.462-.357.549-.463.575-.7.024-.22-.152-.555-.384-.732a.586.586 0 0 0-.625-.074M4.459 13.64a3.52 3.52 0 0 0-2.957 2.348 3.675 3.675 0 0 0 0 2.304 3.485 3.485 0 0 0 3.318 2.356c.702-.001 1.25-.149 1.838-.494.393-.231.99-.842 1.217-1.245a3.538 3.538 0 0 0 0-3.538c-.227-.403-.824-1.014-1.217-1.245a3.617 3.617 0 0 0-2.199-.486m14.326.002c-.864.102-1.484.406-2.105 1.034-.78.788-1.132 1.787-1.007 2.855.097.823.412 1.471 1.007 2.073.716.724 1.478 1.042 2.5 1.044a3.485 3.485 0 0 0 3.318-2.356c.247-.704.247-1.6 0-2.304a3.5 3.5 0 0 0-1.36-1.768c-.678-.45-1.573-.67-2.353-.578m-13.23 1.593a2.048 2.048 0 0 1 0 3.809c-.328.132-.941.152-1.303.042-.681-.206-1.24-.789-1.39-1.448-.243-1.071.305-2.068 1.337-2.429.226-.08.32-.09.701-.076.332.012.493.037.655.102m14.214-.036A2.049 2.049 0 0 1 21.2 17.14c0 .892-.592 1.685-1.452 1.946-.229.07-.345.081-.682.064-.596-.029-.939-.186-1.365-.625-.39-.402-.548-.802-.548-1.385s.158-.983.548-1.385c.311-.321.685-.543 1.021-.606.273-.051.8-.026 1.047.05M7.897 20.215c-.176.079-.37.331-.441.573-.123.422.045.657.684.954a9.596 9.596 0 0 0 2.42.744c.415.073.66.088 1.44.091.996.003 1.338-.029 2.112-.201.895-.199 2.007-.631 2.261-.877.234-.227.244-.571.026-.914-.225-.355-.505-.426-.939-.24-1.195.513-1.993.709-3.091.759-1.2.056-2.44-.19-3.58-.71-.479-.218-.706-.264-.892-.179" fill-rule="evenodd" fill="#000"/></svg>