<svg width="24" height="24" fill="none" xmlns="http://www.w3.org/2000/svg"><path d="M11.434 1.283a5.984 5.984 0 0 0-.723.112c-.353.084-5.406 1.969-5.795 2.161-.958.475-1.776 1.481-2.124 2.611l-.091.293-.011 4.257c-.013 4.641-.018 4.527.215 5.231.276.835.83 1.746 1.381 2.272.188.18 1.324 1.056 2.595 2.002 2.646 1.97 2.43 1.816 2.783 1.993.592.297 1.143.444 1.879.502.664.053.917-.007 1.082-.259.154-.235.147-.716-.015-.933-.147-.197-.285-.245-.836-.285-.578-.042-.982-.141-1.394-.341-.333-.161-4.719-3.422-5.071-3.77-.368-.363-.763-1.012-.957-1.569-.194-.559-.192-.515-.192-4.701 0-2.684.014-4.002.044-4.147.058-.285.31-.804.523-1.077.269-.345.655-.66.973-.792.952-.395 5.246-1.979 5.494-2.027.376-.072 1.235-.072 1.612 0 .292.056 5.258 1.893 5.628 2.082.454.232.842.639 1.121 1.178.268.517.258.428.283 2.711.021 2.028.024 2.09.104 2.198.175.234.274.275.658.275.401 0 .525-.057.65-.303.064-.125.07-.314.07-2.189 0-1.718-.01-2.101-.064-2.36-.242-1.176-1.125-2.343-2.156-2.849-.452-.221-5.405-2.067-5.8-2.161a6.673 6.673 0 0 0-.803-.117c-.523-.044-.51-.044-1.063.002m4.145 9.997c-1.829.16-3.379 1.352-4.039 3.104-.358.951-.358 2.281 0 3.232a4.799 4.799 0 0 0 2.836 2.841c.964.363 2.284.363 3.248 0a4.799 4.799 0 0 0 2.836-2.841c.359-.955.358-2.28-.003-3.24-.762-2.028-2.741-3.284-4.878-3.096m1.401 1.614c.528.174.874.392 1.304.822.428.427.644.769.824 1.304.101.296.109.369.109.98s-.008.684-.109.98c-.18.535-.396.877-.824 1.304-.427.428-.769.644-1.304.824-.296.101-.369.109-.98.109s-.684-.008-.98-.109c-.535-.18-.877-.396-1.304-.824-.428-.427-.644-.769-.824-1.304-.101-.296-.109-.369-.109-.98s.008-.684.109-.98c.18-.535.396-.877.824-1.304.717-.717 1.35-.966 2.384-.941.472.012.61.031.88.119m3.59 7.181c-.414.143-.548.369-.548.925 0 .421.076.634.282.796.331.261 1.012.263 1.374.005.221-.157.3-.368.3-.801 0-.314-.015-.409-.088-.547-.208-.393-.791-.561-1.32-.378" fill-rule="evenodd" fill="#000"/></svg>