<svg width="24" height="24" fill="none" xmlns="http://www.w3.org/2000/svg"><path d="M21.8 1.246c-.105.031-.435.335-1.325 1.221l-1.185 1.18-.201-.102c-.178-.091-4.592-1.763-5.309-2.012-.887-.307-2.168-.361-3.098-.128-.364.091-5.396 1.969-5.766 2.152-.957.473-1.776 1.48-2.124 2.61l-.091.293-.011 4.257c-.013 4.641-.018 4.527.215 5.231.257.779.774 1.654 1.288 2.183l.303.311-1.605 1.609c-1.407 1.411-1.61 1.63-1.649 1.779-.067.254.002.458.236.692.234.234.437.303.692.237.154-.04 1.143-1.017 10.302-10.172 5.572-5.57 10.17-10.189 10.217-10.264a.625.625 0 0 0-.032-.692c-.229-.325-.558-.473-.857-.385m-8.994 1.57c.236.046 5.089 1.819 5.299 1.936.037.021-1.893 1.976-6.245 6.328l-6.299 6.299-.242-.24c-.509-.504-.94-1.314-1.101-2.072-.048-.227-.058-.922-.058-4.208 0-2.684.014-4.002.044-4.147.058-.285.31-.804.523-1.077.234-.3.61-.626.853-.738.43-.2 5.323-2.019 5.574-2.073.352-.076 1.276-.08 1.652-.008m7.581 3.582a.659.659 0 0 0-.447.326c-.078.133-.08.227-.1 4.256l-.02 4.12-.129.369c-.251.72-.591 1.283-1.024 1.698-.391.374-4.611 3.513-4.989 3.711-.543.284-.828.342-1.678.342-1.19 0-1.42-.093-2.864-1.164-.526-.389-1.014-.732-1.085-.762-.287-.12-.592-.013-.804.282-.24.334-.251.614-.036.869.129.151 1.971 1.519 2.28 1.691 1.508.844 3.741.806 5.166-.088.289-.181 4.629-3.413 4.934-3.674.578-.494 1.2-1.486 1.503-2.396.252-.758.239-.514.256-4.778.009-2.145.004-4.012-.01-4.149-.042-.405-.244-.62-.62-.662a1.307 1.307 0 0 0-.333.009" fill-rule="evenodd" fill="#000"/></svg>