<svg width="24" height="24" fill="none" xmlns="http://www.w3.org/2000/svg"><path d="M11.434 1.282a6.03 6.03 0 0 0-.724.113c-.352.084-5.402 1.968-5.794 2.162-.957.473-1.776 1.48-2.124 2.61l-.091.293-.011 4.257c-.013 4.641-.018 4.527.215 5.231.253.766.77 1.648 1.271 2.167.191.199.933.781 2.264 1.777 3.139 2.348 3.132 2.344 3.862 2.582.615.201 1.082.259 1.891.234.919-.028 1.384-.129 2.071-.452.391-.184.535-.287 3.116-2.216 1.625-1.214 2.347-1.778 2.512-1.962.487-.541.966-1.369 1.205-2.085.25-.748.236-.471.252-4.967.015-4.435.014-4.467-.195-5.076-.34-.994-1.143-1.942-2.021-2.387-.223-.113-4.605-1.772-5.401-2.044-.609-.209-1.531-.304-2.298-.237m1.384 1.536c.375.072 5.468 1.971 5.776 2.155.458.271.969.944 1.176 1.547l.089.26.013 3.8c.008 2.464-.002 3.937-.03 4.189-.091.853-.562 1.81-1.18 2.401-.434.415-4.618 3.519-5.002 3.711-.55.274-.851.335-1.66.334-.795-.001-1.085-.058-1.61-.314-.347-.169-4.722-3.417-5.081-3.772-.368-.363-.763-1.012-.957-1.569-.194-.559-.192-.515-.192-4.701 0-2.684.014-4.002.044-4.147.058-.285.31-.804.523-1.077.269-.345.655-.66.973-.792.842-.349 5.239-1.979 5.46-2.023.361-.073 1.282-.074 1.658-.002M9.72 8.425a1.232 1.232 0 0 0-.48.407c-.136.206-.157.418-.06.622.033.07.446.513.919.985l.859.858-.873.882c-.48.484-.903.939-.939 1.009-.186.361.043.854.483 1.038a.539.539 0 0 0 .485-.014c.08-.038.547-.464 1.037-.948l.89-.879.89.884c.76.755.914.89 1.061.929a.636.636 0 0 0 .26.02c.361-.108.668-.46.668-.767a.794.794 0 0 0-.065-.303c-.035-.07-.444-.51-.907-.977l-.843-.849.819-.831c.45-.457.85-.897.888-.977.136-.292.062-.559-.232-.83a1.072 1.072 0 0 0-.335-.207c-.31-.093-.441-.005-1.387.929l-.842.831-.798-.8c-.439-.439-.865-.846-.947-.903-.146-.102-.427-.157-.551-.109" fill-rule="evenodd" fill="#000"/></svg>