<svg width="24" height="24" fill="none" xmlns="http://www.w3.org/2000/svg"><path d="M10.22 1.285c-.481.069-.994.427-1.238.862-.184.329-.222.561-.222 1.355v.725l-.63.027c-.655.027-1.028.087-1.396.225-1.231.46-2.097 1.452-2.401 2.746-.052.226-.067.617-.082 2.177l-.018 1.901-.487.195c-.644.259-.801.339-1.095.56-.301.226-.571.575-.776 1.002-.367.766-.367 1.215 0 2.84.295 1.304.498 1.959.805 2.607.381.803.831 1.44 1.456 2.066 1.188 1.187 2.662 1.886 4.464 2.114.602.076 6.198.076 6.8 0 2.378-.301 4.288-1.484 5.493-3.401.56-.891.844-1.671 1.232-3.386.367-1.625.367-2.074 0-2.84-.205-.427-.475-.776-.776-1.002-.294-.221-.451-.301-1.095-.56l-.487-.195-.018-1.901c-.015-1.56-.03-1.951-.082-2.177-.344-1.468-1.457-2.578-2.892-2.886a7.234 7.234 0 0 0-.905-.085l-.63-.027v-.725c0-.499-.018-.793-.057-.944a1.758 1.758 0 0 0-1.443-1.277c-.34-.048-3.184-.045-3.52.004m3.46 1.555c.074.074.08.133.08.74v.66h-3.52v-.66c0-.607.006-.666.08-.74.077-.077.133-.08 1.68-.08s1.603.003 1.68.08m2.894 2.983c.135.035.354.121.486.19.309.163.764.618.927.927.243.461.255.573.243 2.235l-.01 1.499-2.14-.861C12.967 8.562 13.026 8.58 12 8.58c-1.026 0-.967-.018-4.08 1.233l-2.14.861-.01-1.499c-.012-1.662 0-1.774.243-2.235.164-.311.618-.764.931-.93.486-.256.251-.244 5.03-.247 3.849-.003 4.383.004 4.6.06m-5.334 9.881v5.544l-1.31-.02c-1.111-.016-1.368-.031-1.694-.1-1.87-.395-3.317-1.495-4.153-3.157-.297-.591-.454-1.095-.746-2.399-.298-1.328-.308-1.485-.122-1.864.114-.232.339-.482.517-.574.111-.058 7.027-2.833 7.288-2.925a.886.886 0 0 1 .17-.046c.04-.002.05 1.131.05 5.541m5.3-4.077a336.03 336.03 0 0 1 3.703 1.495c.34.172.628.616.665 1.028.018.193-.025.441-.245 1.422-.146.654-.33 1.373-.407 1.598-.63 1.821-1.959 3.157-3.733 3.751-.758.254-1.013.286-2.453.307l-1.31.02V10.151l.11.027c.061.014 1.712.667 3.67 1.449" fill-rule="evenodd" fill="#000"/></svg>