<svg width="24" height="24" fill="none" xmlns="http://www.w3.org/2000/svg"><path d="M6.02 1.28c-2.198.154-3.37 1.101-3.902 3.149-.064.246-.143.624-.176.84-.093.599-.342 3.139-.342 3.484 0 .634.177 1.31.501 1.92l.183.344-.002 2.041L2.28 15.1l-.15.119c-1.085.863-1.741 2.067-1.848 3.393-.113 1.417.367 2.719 1.377 3.729.913.913 2.038 1.383 3.316 1.387 1.059.003 1.88-.248 2.705-.825l.309-.217.616.036c.842.049 6.052.046 6.911-.003.758-.044 1.314-.117 1.844-.241 2.334-.547 3.701-1.974 4.176-4.358.189-.947.197-1.108.212-4.235l.014-2.974.105-.179c.358-.612.576-1.579.514-2.292-.109-1.269-.321-3.144-.401-3.54-.284-1.411-.829-2.367-1.664-2.923A3.4 3.4 0 0 0 19.26 1.5c-.832-.241-.544-.231-6.94-.241-3.223-.005-6.058.005-6.3.021m2.82 1.503c0 .012-.144 1.463-.321 3.223-.341 3.406-.348 3.452-.607 3.906-.274.482-.843.967-1.384 1.179-.248.097-.387.125-.713.14-.549.026-.876-.037-1.325-.254a2.459 2.459 0 0 1-1.392-2.029c-.034-.398.263-3.264.405-3.901.327-1.474.895-2.051 2.21-2.244.254-.037 3.127-.056 3.127-.02m4.815.087c.012.061.161 1.529.331 3.263.347 3.535.343 3.346.069 3.904-.279.567-.876 1.033-1.487 1.159-.303.063-.872.054-1.146-.017a2.203 2.203 0 0 1-1.051-.634c-.415-.439-.611-.912-.611-1.476 0-.151.135-1.622.3-3.269.165-1.647.3-3.004.3-3.017 0-.013.737-.023 1.637-.023h1.637l.021.11m4.685-.051c.653.106 1.097.302 1.413.626.355.361.633 1.011.785 1.83.049.263.226 1.887.356 3.277.024.255-.04.746-.135 1.032-.263.79-1.068 1.478-1.894 1.619-.453.077-1.028.031-1.393-.112-.744-.292-1.417-1.001-1.606-1.691a3.795 3.795 0 0 1-.085-.58c-.014-.198-.15-1.605-.303-3.126a255.622 255.622 0 0 1-.278-2.85c0-.084.005-.084 1.39-.084 1.028 0 1.484.016 1.75.059m-9.021 8.795a3.727 3.727 0 0 0 1.909 1.047c.414.087 1.174.086 1.592-.001.844-.177 1.644-.651 2.12-1.256l.191-.243.236.257c.395.431.977.832 1.518 1.044.975.384 2.172.359 3.102-.062.145-.066.271-.12.279-.12.032 0 .011 3.35-.026 4.043-.063 1.194-.241 2.041-.575 2.737-.56 1.163-1.46 1.748-3.185 2.069-.443.083-.589.087-3.87.101-1.876.008-3.41.007-3.41-.002 0-.009.063-.154.141-.321.31-.672.446-1.518.375-2.339-.171-1.971-1.637-3.693-3.549-4.169-.63-.156-1.669-.175-2.167-.038a1.373 1.373 0 0 1-.17.039c-.016 0-.03-.466-.03-1.037v-1.036l.299.115c.999.385 2.07.392 3.014.021a4.32 4.32 0 0 0 1.57-1.099l.217-.246.078.111c.044.061.197.234.341.385m-3.645 4.205c1.223.257 2.249 1.281 2.506 2.499a3.735 3.735 0 0 1-.02 1.422c-.103.418-.438 1.087-.656 1.308-.518.526-.746.71-1.069.867-.532.257-.763.305-1.455.303-.568-.001-.62-.008-.968-.128a4.185 4.185 0 0 1-.58-.248c-1.016-.577-1.672-1.68-1.672-2.81 0-1.271.654-2.347 1.763-2.9.378-.189.684-.299.957-.344.244-.041.938-.023 1.194.031m-.887.979a.65.65 0 0 0-.443.321c-.06.102-.081.234-.096.622l-.019.491-.531.014c-.466.012-.546.025-.645.098-.197.147-.273.324-.273.636s.076.489.273.636c.099.073.179.086.645.098l.532.014.018.53c.019.579.063.712.285.878.095.071.169.084.467.084.298 0 .372-.013.467-.084.222-.166.266-.299.285-.878l.018-.53.532-.014c.466-.012.546-.025.645-.098.197-.147.273-.324.273-.636s-.076-.489-.273-.636c-.099-.074-.179-.086-.65-.098l-.537-.014-.002-.366c-.003-.617-.081-.844-.342-.992-.144-.081-.427-.115-.629-.076" fill-rule="evenodd" fill="#000"/></svg>