<svg width="24" height="24" fill="none" xmlns="http://www.w3.org/2000/svg"><path d="M1.787 1.279c-.341.066-.519.312-.519.721 0 .418.175.653.538.723.096.018.617.034 1.158.035.626.001 1.034.019 1.12.048.319.106.63.439.723.774.037.132-.031 1.066-.387 5.357-.322 3.888-.425 5.283-.407 5.54.071 1.03.66 2.047 1.535 2.648.25.173.781.411 1.112.5.268.072.535.075 6.22.075h5.94l.312-.09c.995-.289 1.909-1.086 2.326-2.03.234-.529.245-.622.544-4.74.3-4.122.315-4.558.178-5.08a3.655 3.655 0 0 0-1.018-1.69c-.455-.421-.899-.661-1.562-.845-.297-.082-.375-.083-6.832-.104L6.236 3.1l-.093-.229a2.38 2.38 0 0 0-.591-.857c-.462-.451-.904-.664-1.528-.736-.376-.043-2.012-.043-2.237.001M19.4 4.713c.348.125.583.28.856.566.437.459.63 1.133.518 1.81l-.024.149-6.005.011c-5.923.011-6.007.012-6.141.091a.646.646 0 0 0-.327.475c-.069.367.054.684.327.845.134.079.218.08 6.086.091l5.95.011v.129c0 .071-.09 1.363-.199 2.871-.22 3.034-.225 3.065-.524 3.513-.195.293-.542.605-.824.743-.474.232-.181.222-6.216.222-3.522 0-5.625-.015-5.762-.04-.77-.143-1.466-.866-1.599-1.664-.042-.248-.007-.753.339-4.916.212-2.552.396-4.726.409-4.831l.024-.191 6.426.011 6.426.011.26.093M7.724 18.821c-.593.166-1.152.676-1.347 1.227-.569 1.613.962 3.144 2.575 2.575.587-.207 1.12-.827 1.25-1.454a2.491 2.491 0 0 0-.073-1.096 2.066 2.066 0 0 0-1.202-1.202c-.302-.108-.906-.133-1.203-.05m8 0c-.287.08-.575.241-.807.45a1.987 1.987 0 0 0-.074 2.886 1.987 1.987 0 0 0 2.886-.074 1.997 1.997 0 0 0 .466-1.77 2.042 2.042 0 0 0-1.266-1.442c-.304-.108-.907-.134-1.205-.05m-7.246 1.492c.147.079.282.289.282.438 0 .246-.242.489-.487.489-.314 0-.513-.198-.513-.509 0-.179.079-.307.255-.414.157-.096.288-.097.463-.004m8 0c.147.079.282.289.282.438 0 .246-.242.489-.487.489-.314 0-.513-.198-.513-.509 0-.179.079-.307.255-.414.157-.096.288-.097.463-.004" fill-rule="evenodd" fill="#000"/></svg>