<svg width="24" height="24" fill="none" xmlns="http://www.w3.org/2000/svg"><path d="M5.972 1.281c-1.336.093-2.326.514-2.966 1.261-.509.595-.859 1.427-1.063 2.529-.095.513-.347 3.138-.349 3.629-.002.765.13 1.298.486 1.967l.195.366.015 3.034c.014 2.853.02 3.064.099 3.554.23 1.417.63 2.377 1.339 3.208.697.818 1.802 1.42 3.102 1.687.971.201 1.194.212 4.562.232 4.494.028 5.306-.03 6.613-.467.851-.284 1.457-.652 2.038-1.236.858-.864 1.302-1.856 1.566-3.499.08-.495.086-.706.101-3.56l.015-3.033.139-.252c.32-.583.496-1.276.496-1.957 0-.534-.29-3.326-.401-3.864-.453-2.188-1.43-3.195-3.439-3.546-.341-.059-.988-.067-6.24-.075-3.223-.005-6.062.005-6.308.022M8.8 2.843c0 .184-.601 6.114-.642 6.337a3.017 3.017 0 0 1-.202.576c-.131.282-.215.394-.526.704-.559.556-1.079.78-1.812.78-.739 0-1.281-.222-1.802-.739-.508-.502-.736-1.044-.736-1.746 0-.404.257-3.022.341-3.476.209-1.123.624-1.861 1.215-2.156.622-.311.946-.354 2.714-.359 1.442-.004 1.45-.004 1.45.079m4.84-.026c0 .032.136 1.422.302 3.09.165 1.668.303 3.15.304 3.293.006.505-.268 1.073-.717 1.484-.41.374-.908.555-1.529.555-.683 0-1.17-.197-1.624-.657a2.055 2.055 0 0 1-.605-1.139l-.066-.333.311-3.125c.171-1.719.318-3.148.326-3.175.012-.039.379-.05 1.657-.05 1.398 0 1.641.008 1.641.057m4.58-.015c1.005.143 1.563.497 1.899 1.205.186.39.336.894.421 1.407.081.491.34 3.057.339 3.363a2.613 2.613 0 0 1-.263 1.094c-.183.381-.668.882-1.043 1.081-.513.27-1.268.363-1.843.228-.916-.216-1.81-1.136-1.933-1.989-.02-.138-.163-1.574-.317-3.191a351.341 351.341 0 0 0-.304-3.09l-.023-.15 1.393.001c.767 0 1.52.019 1.674.041m-9.102 8.629c1.428 1.733 4.35 1.729 5.773-.009l.208-.254.3.307c.887.905 2.059 1.349 3.286 1.243.519-.045 1.073-.191 1.438-.38l.117-.06v1.895c0 2.641-.061 3.323-.388 4.327-.268.824-.679 1.419-1.272 1.84-.68.483-1.702.787-2.966.881l-.366.027-.018-1.254c-.015-1.124-.026-1.287-.103-1.574-.306-1.136-1.052-1.832-2.229-2.081-.432-.091-1.364-.091-1.796 0-1.177.249-1.923.945-2.229 2.081-.077.287-.088.45-.103 1.574l-.018 1.254-.366-.026c-1.514-.109-2.685-.528-3.363-1.206-.591-.59-.956-1.426-1.152-2.636-.077-.474-.086-.72-.101-2.79-.009-1.248-.008-2.27.002-2.27s.115.043.233.095c.343.152.783.26 1.228.301 1.27.118 2.463-.341 3.35-1.288.152-.163.288-.285.303-.272a9.2 9.2 0 0 1 .232.275m3.553 6.389c.475.112.725.306.906.701.146.32.181.659.182 1.749l.001.97h-3.527l.016-1.15c.015-1.08.021-1.167.109-1.421.161-.465.454-.726.952-.847.31-.075 1.047-.076 1.361-.002" fill-rule="evenodd" fill="#000"/></svg>