<svg width="24" height="24" fill="none" xmlns="http://www.w3.org/2000/svg"><path d="M10.091 1.279c-1.009.113-1.807.583-2.312 1.361-.41.633-.496 1.001-.527 2.246l-.024.947-.184.027a5.216 5.216 0 0 0-1.344.418c-1.04.508-1.596 1.319-1.859 2.713-.11.584-1.038 8.335-1.079 9.009-.161 2.695 1.051 4.263 3.607 4.669.416.065.852.071 5.631.071s5.215-.006 5.631-.071c1.907-.303 3.065-1.254 3.471-2.851.12-.474.194-1.294.16-1.758-.057-.762-.942-8.151-1.061-8.86-.332-1.984-1.235-2.953-3.079-3.306l-.351-.067-.023-.924c-.016-.63-.045-1.018-.09-1.223-.259-1.18-1.145-2.067-2.338-2.341-.256-.059-.568-.071-2.12-.081-1.001-.006-1.95.004-2.109.021m4.155 1.592c.41.166.719.475.881.883.083.206.092.303.105 1.116l.013.89H8.76v-.813c0-1.059.074-1.335.463-1.723.208-.209.337-.285.657-.389.201-.066.39-.071 2.18-.064 1.939.009 1.962.01 2.186.1m1.002 4.884c.02.558.065.697.277.855.142.106.433.155.66.113.413-.077.536-.276.57-.921l.025-.473.299.076c1.027.261 1.449.786 1.657 2.055.054.334.824 6.667.824 6.782 0 .023-2.284.041-5.93.047L7.7 16.3l-.146.091c-.198.123-.286.323-.286.654 0 .298.074.468.265.611l.113.084 6.047.02 6.047.02.02.34c.092 1.566-.405 2.476-1.58 2.89-.613.216-.423.21-6.24.21h-5.4l-.395-.109c-1.025-.283-1.56-.777-1.811-1.674-.058-.207-.072-.406-.072-1.017.001-.724.024-.953.491-4.8.27-2.222.527-4.22.572-4.439.213-1.057.641-1.533 1.596-1.776l.299-.076.025.473c.027.511.078.657.28.808.226.168.724.168.95 0 .212-.158.257-.297.277-.855l.019-.515h6.458l.019.515" fill-rule="evenodd" fill="#000"/></svg>