<svg width="24" height="24" fill="none" xmlns="http://www.w3.org/2000/svg"><path d="M8.34 1.267c-2.4.095-4.038.656-5.203 1.781C2.044 4.103 1.475 5.517 1.28 7.66c-.053.583-.053 8.097 0 8.68.195 2.143.764 3.557 1.857 4.612.842.813 1.901 1.317 3.34 1.59.903.171 1.256.186 4.882.206 4.537.025 5.433-.021 6.716-.344 2.41-.606 3.863-2.155 4.387-4.676.234-1.128.238-1.219.238-5.728 0-4.509-.004-4.6-.238-5.728-.327-1.572-1.056-2.832-2.088-3.606-1.137-.854-2.512-1.272-4.554-1.385-.62-.034-6.686-.046-7.48-.014m5.9 10.735v9.242l-3.31-.015c-3.484-.016-3.579-.02-4.424-.21-2.183-.491-3.253-1.673-3.64-4.019-.131-.79-.146-1.312-.146-5 0-4.243.021-4.638.302-5.749.27-1.07.825-1.952 1.555-2.469.752-.534 1.843-.868 3.243-.994a201.41 201.41 0 0 1 3.29-.021l3.13-.007v9.242m2.5-9.138c2.697.364 3.956 1.603 4.359 4.291.112.747.14 1.7.14 4.845 0 3.145-.028 4.098-.14 4.845-.435 2.899-1.829 4.098-5.089 4.375l-.29.025V2.755l.29.025c.159.013.488.051.73.084M7.675 8.751c-.403.21-.583.64-.41.981.036.07.544.61 1.129 1.198l1.063 1.071-1.064 1.069c-.585.589-1.093 1.128-1.129 1.198a.813.813 0 0 0-.064.303c0 .307.307.659.668.767a.619.619 0 0 0 .26-.02c.151-.04.348-.22 1.605-1.472.788-.784 1.468-1.493 1.51-1.574A.732.732 0 0 0 11.32 12a.732.732 0 0 0-.077-.272c-.042-.081-.722-.79-1.51-1.574-1.204-1.199-1.459-1.433-1.593-1.47-.218-.059-.222-.059-.465.067" fill-rule="evenodd" fill="#000"/></svg>