<svg width="24" height="24" fill="none" xmlns="http://www.w3.org/2000/svg"><path d="M7.52 1.306c-.839.115-1.238.184-1.606.276-2.337.588-3.772 2.014-4.35 4.323C1.261 7.115 1.24 7.509 1.24 12s.021 4.885.324 6.095c.639 2.554 2.359 4.054 5.136 4.48 1.175.181 1.172.181 4.82.184 3.65.004 4.639-.024 5.56-.159 3.051-.448 4.79-2.022 5.382-4.872.234-1.128.238-1.219.238-5.728 0-4.509-.004-4.6-.238-5.728-.327-1.572-1.056-2.832-2.088-3.606-1.145-.86-2.509-1.272-4.594-1.387-1.127-.062-7.769-.04-8.26.027m9.24 1.548c2.334.386 3.481 1.247 4.056 3.046.373 1.168.423 1.887.423 6.1 0 4.213-.05 4.932-.423 6.1-.575 1.799-1.722 2.66-4.056 3.046-.373.062-.845.071-4.23.084l-3.81.014V2.756l3.81.014c3.385.013 3.857.022 4.23.084M7.24 12v9.12l-.13-.001c-.195-.001-.799-.136-1.25-.281-.781-.25-1.331-.584-1.823-1.109-.719-.765-1.125-1.904-1.275-3.569-.056-.615-.056-7.705 0-8.32.15-1.665.556-2.804 1.275-3.569.588-.628 1.251-.985 2.318-1.25.456-.113.537-.128.735-.136l.15-.005V12m7.48-3.277c-.133.06-.532.431-1.515 1.409-.734.73-1.386 1.408-1.45 1.506-.159.245-.158.484.003.725.065.097.726.782 1.47 1.522 1.485 1.476 1.551 1.527 1.878 1.439.316-.085.654-.481.654-.764a.68.68 0 0 0-.064-.252c-.035-.07-.552-.618-1.15-1.218L13.461 12l1.085-1.09c.598-.6 1.115-1.148 1.15-1.218a.55.55 0 0 0-.014-.527c-.13-.256-.498-.527-.711-.524a.928.928 0 0 0-.251.082" fill-rule="evenodd" fill="#000"/></svg>