<svg width="24" height="24" fill="none" xmlns="http://www.w3.org/2000/svg"><path d="M8.34 1.267c-2.4.095-4.038.656-5.203 1.781C2.044 4.103 1.475 5.517 1.28 7.66c-.053.583-.053 8.097 0 8.68.195 2.143.764 3.557 1.857 4.612.842.813 1.901 1.317 3.34 1.59.903.171 1.256.186 4.882.206 4.537.025 5.433-.021 6.716-.344 2.41-.606 3.866-2.158 4.387-4.677.225-1.088.23-1.202.255-5.367.013-2.123.01-3.995-.006-4.16-.149-1.53-.247-2.1-.49-2.824-.388-1.162-1.021-2.091-1.847-2.71-1.137-.854-2.512-1.272-4.554-1.385-.62-.034-6.686-.046-7.48-.014m8.42 1.587c2.335.387 3.481 1.247 4.056 3.046.163.512.344 1.435.344 1.76v.1H2.762l.022-.19c.183-1.541.578-2.58 1.253-3.299A3.57 3.57 0 0 1 5.14 3.45c.687-.341 1.553-.555 2.68-.663.088-.009 2.041-.013 4.34-.009 3.766.006 4.222.013 4.6.076m4.472 9.226c.017 3.986-.043 4.854-.416 6.02-.579 1.809-1.753 2.683-4.096 3.048-.421.066-.824.072-4.74.072-3.932 0-4.319-.006-4.759-.073-2.716-.411-3.93-1.567-4.355-4.147-.128-.777-.146-1.318-.146-4.53V9.24l9.25.01 9.25.01.012 2.82m-9.512.145c-.077.038-.772.7-1.544 1.472-1.19 1.188-1.416 1.432-1.476 1.594-.093.248-.04.446.184.689.271.294.537.368.83.232.083-.039.605-.522 1.216-1.127L12 14.026l1.07 1.059c.611.605 1.133 1.088 1.216 1.127.293.136.559.062.83-.232.087-.095.18-.245.207-.335.1-.331.046-.402-1.399-1.858-.717-.723-1.391-1.378-1.498-1.457-.234-.172-.489-.21-.706-.105" fill-rule="evenodd" fill="#000"/></svg>