<svg width="24" height="24" fill="none" xmlns="http://www.w3.org/2000/svg"><path d="M8.34 1.267c-2.4.095-4.038.656-5.203 1.781C2.044 4.103 1.475 5.517 1.28 7.66c-.053.583-.053 8.097 0 8.68.195 2.143.764 3.557 1.857 4.612.842.813 1.901 1.317 3.34 1.59.903.171 1.256.186 4.882.206 3.706.021 4.76-.006 5.713-.147 2.737-.402 4.377-1.669 5.149-3.977.243-.724.341-1.294.49-2.824.016-.165.019-2.037.006-4.16-.025-4.165-.03-4.279-.255-5.367-.325-1.569-1.056-2.833-2.088-3.607-1.137-.854-2.512-1.272-4.554-1.385-.62-.034-6.686-.046-7.48-.014m8.42 1.587c2.335.387 3.481 1.247 4.056 3.046.373 1.166.433 2.034.416 6.02l-.012 2.82-9.25.01-9.25.01v-3.23c0-3.732.026-4.19.302-5.279.27-1.07.825-1.952 1.555-2.469.754-.535 1.805-.858 3.243-.995.088-.009 2.041-.013 4.34-.009 3.766.006 4.222.013 4.6.076M9.171 7.785c-.187.093-.438.382-.494.57-.1.331-.046.402 1.399 1.858.717.723 1.394 1.38 1.503 1.46.173.128.228.147.423.147.203 0 .246-.017.441-.167.12-.092.795-.749 1.501-1.46 1.424-1.434 1.478-1.507 1.379-1.838-.027-.09-.12-.24-.207-.335-.271-.294-.537-.368-.83-.233-.084.039-.598.516-1.216 1.128L12 9.975l-1.07-1.06c-.618-.612-1.132-1.089-1.216-1.128a.623.623 0 0 0-.543-.002M21.16 16.34c0 .325-.181 1.248-.344 1.76-.579 1.809-1.753 2.683-4.096 3.048-.421.066-.824.072-4.74.072-3.932 0-4.319-.006-4.759-.073-2.178-.33-3.339-1.118-3.972-2.695-.204-.508-.372-1.237-.465-2.022l-.022-.19H21.16v.1" fill-rule="evenodd" fill="#000"/></svg>