<svg width="24" height="24" fill="none" xmlns="http://www.w3.org/2000/svg"><path d="M8.76 1.266a2.579 2.579 0 0 0-1.196.424c-.336.231-2.542 2.014-2.667 2.157a2.88 2.88 0 0 0-.503.893c-.125.374-.134 1.122-.018 1.46.11.322.251.591.438.838.215.282 2.696 2.273 3.044 2.442.46.224.593.24 2.05.24h1.332V11.235l-2.45.014c-2.727.017-2.592.004-3.17.304-.377.196-.831.651-1.03 1.032-.272.52-.275.555-.261 3.028.013 2.205.013 2.207.107 2.461.116.312.426.785.647.984.242.219.605.443.888.548l.249.093 2.51.012 2.51.012V21.234l-1.25.013c-1.165.012-1.259.018-1.386.093-.273.161-.396.478-.327.845a.646.646 0 0 0 .327.475c.133.078.208.08 3.396.08 3.188 0 3.263-.002 3.396-.08a.646.646 0 0 0 .327-.475c.069-.367-.054-.684-.327-.845-.127-.075-.221-.081-1.386-.093l-1.25-.013V19.72l1.33-.001c1.488 0 1.651-.02 2.106-.26.313-.164 2.663-2.034 2.928-2.329a2.44 2.44 0 0 0 .606-1.63 2.43 2.43 0 0 0-.546-1.571c-.221-.277-2.607-2.188-2.973-2.38-.499-.262-.603-.276-2.101-.298l-1.35-.02V9.72h2.398c1.603 0 2.468-.015 2.61-.044.842-.177 1.596-.881 1.858-1.736.068-.221.074-.418.074-2.44 0-2.161-.002-2.205-.089-2.48a2.59 2.59 0 0 0-.635-1.037 2.343 2.343 0 0 0-1.472-.705c-.292-.034-8.399-.045-8.744-.012m8.821 1.552c.229.095.399.25.523.472l.116.21v1.96c0 1.8-.006 1.975-.073 2.149-.092.239-.398.522-.635.587-.129.035-1.264.044-4.512.036-4.087-.011-4.348-.016-4.472-.084-.262-.143-2.516-1.978-2.603-2.12a.991.991 0 0 1-.111-.795c.037-.125.112-.282.167-.347.163-.194 2.392-1.958 2.584-2.045.171-.078.27-.079 4.526-.08 3.711-.001 4.372.008 4.49.057M15.483 12.85c.191.098 2.294 1.773 2.505 1.995a.89.89 0 0 1 .251.664.904.904 0 0 1-.304.698c-.269.256-2.309 1.87-2.455 1.943-.13.065-.44.071-4.474.081-2.826.006-4.386-.004-4.484-.03a1.078 1.078 0 0 1-.589-.469l-.113-.192-.011-1.989c-.012-1.967-.011-1.992.075-2.192.098-.227.379-.5.572-.556.07-.02 2.037-.037 4.487-.039l4.363-.004.177.09" fill-rule="evenodd" fill="#000"/></svg>