<svg width="24" height="24" fill="none" xmlns="http://www.w3.org/2000/svg"><path d="M6.98 1.341C4.822 1.668 3.2 3.012 2.568 5a5.87 5.87 0 0 0-.287 1.547c-.05.694-.052 10.194-.002 10.913.206 2.985 2.153 4.992 5.101 5.26.585.053 8.655.053 9.24 0 2.594-.236 4.468-1.859 4.975-4.308.141-.678.164-1.376.164-4.892 0-3.365-.021-4.038-.141-4.629-.147-.718-.508-1.536-.966-2.186-.32-.454-3.903-4.037-4.357-4.357a6.004 6.004 0 0 0-1.495-.763c-.887-.295-.666-.28-4.24-.289-2.549-.007-3.295.002-3.58.045m6.985 1.546c.503.138.896.312 1.315.582.282.181.657.536 2.203 2.085 1.384 1.385 1.914 1.942 2.058 2.162.232.356.462.877.587 1.331l.092.333v4.2c0 4.496.007 4.325-.205 4.997a3.5 3.5 0 0 1-.871 1.457c-.609.631-1.278.978-2.224 1.155-.35.065-.743.071-4.92.071s-4.57-.006-4.92-.071c-.946-.177-1.615-.524-2.224-1.155-.514-.532-.788-1.052-1.006-1.914-.059-.234-.067-.827-.079-5.9-.01-3.901-.001-5.742.029-5.971.134-1.027.624-1.945 1.368-2.568.327-.274 1.014-.63 1.432-.742.616-.166.779-.173 3.94-.165l3.04.007.385.106M9.244 13.282c-.124.056-.479.38-1.193 1.089-.56.555-1.084 1.099-1.164 1.208-.128.173-.147.228-.147.421 0 .193.019.248.146.421.081.109.612.659 1.18 1.222 1.153 1.142 1.258 1.216 1.579 1.12.314-.094.635-.48.635-.763 0-.24-.136-.42-.915-1.21l-.778-.789.778-.791c.428-.434.809-.856.846-.936a.626.626 0 0 0 .031-.489c-.097-.254-.515-.583-.742-.583a.892.892 0 0 0-.256.08m5.016-.007c-.175.079-.441.35-.502.51a.63.63 0 0 0 .03.489c.037.08.419.501.847.936l.779.79-.779.79c-.779.79-.915.97-.915 1.21 0 .283.321.669.635.763.32.096.427.02 1.557-1.099.557-.551 1.088-1.1 1.18-1.22.151-.196.168-.239.168-.442 0-.195-.019-.25-.147-.423-.08-.109-.604-.653-1.164-1.208-1.208-1.199-1.313-1.267-1.689-1.096" fill-rule="evenodd" fill="#000"/></svg>