<svg width="24" height="24" fill="none" xmlns="http://www.w3.org/2000/svg"><path d="M11.18 1.268C9.001 1.55 7.464 3.142 7.289 5.3l-.029.36-1.06.024c-1.124.025-1.442.066-1.999.256a4.274 4.274 0 0 0-2.694 2.72c-.244.745-.238.624-.256 5.1-.018 4.414-.001 4.995.165 5.649.368 1.451 1.425 2.6 2.804 3.049.753.245.689.242 4.74.242 4.026 0 4.044-.001 4.76-.227a4.315 4.315 0 0 0 2.987-3.818l.024-.366 1.025-.019c1.131-.022 1.485-.069 2.069-.273a4.291 4.291 0 0 0 2.677-2.731c.225-.711.227-.733.246-3.883.02-3.05-.003-3.705-.144-4.249a4.727 4.727 0 0 0-.871-1.762c-.136-.172-.883-.943-1.66-1.715-1.489-1.478-1.735-1.683-2.394-1.993a5.467 5.467 0 0 0-1.252-.383c-.232-.038-4.967-.05-5.247-.013m5.172 1.515c.361.074.68.196.999.382.162.095.678.583 1.77 1.674 1.59 1.59 1.69 1.708 1.906 2.242.211.522.212.541.212 3.899 0 2.918-.005 3.144-.077 3.491a2.815 2.815 0 0 1-2.062 2.188c-.349.092-.908.139-1.667.14l-.668.001-.016-2.37c-.014-2.083-.024-2.406-.086-2.67a4.908 4.908 0 0 0-.779-1.762c-.368-.516-3.107-3.227-3.564-3.527-.908-.594-1.615-.791-2.844-.791H8.76v-.136c0-.218.104-.701.213-.989a2.811 2.811 0 0 1 1.297-1.466c.687-.353.762-.361 3.482-.365 1.94-.003 2.339.006 2.6.059M10.5 7.272c.588.16.925.364 1.533.93.865.803 2.535 2.515 2.701 2.768.183.28.318.579.414.917.067.234.072.498.072 3.573 0 3.699.014 3.491-.281 4.13-.338.732-1.029 1.299-1.839 1.51-.458.119-1.016.138-4.1.138-3.084 0-3.642-.019-4.1-.138-.995-.259-1.735-.991-2.03-2.008l-.09-.312V14.2c0-5.173-.024-4.766.325-5.476a2.09 2.09 0 0 1 .49-.68c.168-.167.408-.365.535-.439a3.84 3.84 0 0 1 1.15-.4c.148-.021 1.26-.034 2.58-.029 2.243.008 2.331.012 2.64.096" fill-rule="evenodd" fill="#000"/></svg>