<svg width="24" height="24" fill="none" xmlns="http://www.w3.org/2000/svg"><path d="M7.458 1.283a5.814 5.814 0 0 0-2.272.613 4.674 4.674 0 0 0-1.327.963c-.966.966-1.466 2.134-1.578 3.686-.053.737-.053 10.173 0 10.91.068.951.246 1.633.615 2.359.278.547.529.894.963 1.327.966.966 2.134 1.466 3.686 1.578.728.053 8.182.053 8.91 0 .951-.068 1.633-.246 2.359-.615a4.674 4.674 0 0 0 1.327-.963c.966-.966 1.466-2.134 1.578-3.686.052-.713.052-7.165.001-7.784-.072-.867-.252-1.51-.621-2.223-.397-.765-.554-.945-2.578-2.969s-2.204-2.181-2.969-2.578c-.714-.37-1.381-.556-2.232-.623-.557-.044-5.242-.039-5.862.005m6.503 1.588c.65.187 1.163.447 1.639.833.143.116 1.044.999 2.003 1.963 1.268 1.276 1.796 1.834 1.937 2.049.233.355.463.876.588 1.331l.092.333v4.18c0 4.546.007 4.401-.229 5.08-.46 1.325-1.536 2.24-2.971 2.524-.414.083-9.626.083-10.04 0-1.654-.328-2.816-1.49-3.144-3.144-.083-.415-.083-11.625 0-12.04C4.165 4.319 5.392 3.102 7 2.841c.165-.026.327-.054.36-.061a201.16 201.16 0 0 1 3.18-.004c3.067.008 3.125.01 3.421.095M9.239 8.837a3.803 3.803 0 0 0-2.363 1.619 3.68 3.68 0 0 0-.543 1.305c-.065.301-.073.549-.073 2.239s.008 1.938.073 2.239a3.795 3.795 0 0 0 2.76 2.894c.32.085.382.087 2.907.087s2.587-.002 2.907-.087a3.803 3.803 0 0 0 2.76-2.894c.065-.301.073-.549.073-2.239s-.008-1.938-.073-2.239a3.733 3.733 0 0 0-.996-1.867 3.92 3.92 0 0 0-1.743-1.025c-.299-.085-.378-.087-2.828-.096-2.308-.008-2.549-.003-2.861.064m2.001 2.903v1.5H7.76v-.532c0-.871.143-1.258.657-1.772.565-.565.935-.688 2.093-.693l.73-.003v1.5m3.22-1.44c.449.095.756.269 1.123.636.514.514.657.901.657 1.772v.532h-3.48v-3l.71.001c.47 0 .804.02.99.059m-3.22 5.96v1.5l-.71-.001c-1.156-.001-1.548-.13-2.113-.695-.514-.514-.657-.901-.657-1.772v-.532h3.48v1.5m5-.968c0 .867-.143 1.252-.659 1.772-.56.564-.954.694-2.111.695l-.71.001v-3h3.48v.532" fill-rule="evenodd" fill="#000"/></svg>