<svg width="24" height="24" fill="none" xmlns="http://www.w3.org/2000/svg"><path d="M14.17 1.282c-1.413.102-2.465.573-3.076 1.376a3.329 3.329 0 0 0-.568 1.088c-.181.544-.25.993-.275 1.784l-.022.71-1.464.001c-2.56.001-3.507.099-4.505.468-1.464.54-2.339 1.544-2.761 3.165-.236.91-.239.965-.239 4.626 0 3.042.007 3.404.072 3.82a8.09 8.09 0 0 0 .372 1.467c.522 1.387 1.577 2.286 3.156 2.69.981.25 1.908.299 5.22.271 1.449-.013 2.686-.041 2.88-.065 1.879-.24 3.069-.87 3.829-2.029.277-.422.438-.787.607-1.377.263-.916.324-1.644.324-3.882V13.77l.53-.026c1.134-.057 1.777-.182 2.373-.461 1.152-.54 1.736-1.386 2.006-2.903.063-.355.071-.681.071-2.88 0-2.706-.009-2.842-.245-3.62-.449-1.478-1.421-2.262-3.156-2.544-.324-.053-.8-.067-2.519-.077-1.166-.007-2.341.004-2.61.023m5.32 1.607c.717.195 1.117.49 1.373 1.011.316.645.377 1.226.377 3.6s-.061 2.955-.377 3.6c-.257.523-.663.821-1.373 1.006-.317.083-.519.106-1.08.123l-.69.022v-.301c0-.667-.134-1.606-.325-2.27-.376-1.313-1.164-2.278-2.286-2.799-.815-.378-1.606-.547-2.919-.624l-.47-.028v-.425c0-.787.126-1.461.36-1.924.227-.45.512-.69 1.052-.887.597-.218.769-.228 3.488-.219l2.48.009.39.106m-6.349 4.962c1.865.343 2.622 1.083 2.96 2.895.148.792.18 6.299.042 7.279a4.96 4.96 0 0 1-.449 1.535c-.338.694-.941 1.172-1.787 1.417-.854.247-.775.243-4.427.243-3.656 0-3.673-.001-4.446-.244-1.327-.417-1.931-1.181-2.225-2.816-.062-.339-.069-.738-.069-3.66s.007-3.321.069-3.66c.259-1.439.797-2.242 1.781-2.656.373-.157.871-.29 1.27-.34.198-.024.405-.051.46-.06.055-.008 1.531-.012 3.28-.007 2.767.007 3.227.016 3.541.074" fill-rule="evenodd" fill="#000"/></svg>