<svg width="24" height="24" fill="none" xmlns="http://www.w3.org/2000/svg"><path d="M11.32 1.281c-2.061.117-4.07.861-5.79 2.143-.618.46-1.646 1.488-2.106 2.106-1.549 2.078-2.288 4.52-2.143 7.08.121 2.149.837 4.107 2.143 5.86.456.613 1.485 1.641 2.106 2.105 2.076 1.551 4.54 2.295 7.097 2.142 2.163-.129 4.097-.838 5.843-2.142.617-.46 1.645-1.488 2.105-2.105 1.552-2.079 2.295-4.54 2.142-7.097-.129-2.163-.838-4.097-2.142-5.843-.46-.617-1.488-1.645-2.105-2.105a10.75 10.75 0 0 0-4.728-2.027c-.408-.067-1.668-.169-1.862-.151l-.56.034m1.826 1.541a9.32 9.32 0 0 1 4.463 1.825c.171.13.311.24.311.245 0 .004-2.932 2.94-6.515 6.523l-6.514 6.514-.241-.315c-.793-1.042-1.422-2.393-1.685-3.616a9.746 9.746 0 0 1 .001-3.996c.283-1.314.97-2.737 1.847-3.822.335-.415 1.159-1.218 1.568-1.527a9.388 9.388 0 0 1 4.439-1.83c.56-.077 1.749-.077 2.326-.001m6.261 3.638c.342.452.602.88.895 1.48A8.895 8.895 0 0 1 21.24 12a8.914 8.914 0 0 1-.937 4.06c-.489 1.003-1.03 1.745-1.869 2.562-.786.767-1.41 1.208-2.374 1.68a8.895 8.895 0 0 1-4.06.938c-2.112 0-4.07-.68-5.756-2l-.281-.22 6.524-6.525 6.524-6.526.107.126c.059.069.189.233.289.365" fill-rule="evenodd" fill="#000"/></svg>