<svg width="24" height="24" fill="none" xmlns="http://www.w3.org/2000/svg"><path d="M7.92 1.28c-1.126.07-1.835.309-2.372.8-.607.555-.89 1.374-.943 2.734l-.025.634-.375.097a3.619 3.619 0 0 0-1.093.448c-1.068.624-1.592 1.64-1.798 3.487-.071.637-.071 4.403 0 5.04.206 1.847.73 2.863 1.798 3.487.398.233.632.329 1.093.448l.375.097.025.634c.029.749.11 1.248.274 1.698.298.817.854 1.344 1.701 1.611.752.237 1.276.263 5.42.263s4.668-.026 5.42-.263c.847-.267 1.403-.794 1.701-1.611.164-.45.245-.949.274-1.698l.025-.634.36-.094c1.578-.412 2.439-1.367 2.776-3.078.157-.802.181-1.24.181-3.38 0-1.409-.016-2.205-.051-2.52-.206-1.847-.73-2.863-1.798-3.487a3.619 3.619 0 0 0-1.093-.448l-.375-.097-.025-.634c-.029-.749-.11-1.248-.274-1.698-.382-1.046-1.164-1.6-2.541-1.8-.377-.055-7.854-.086-8.66-.036m8.523 1.538c.704.106 1.064.309 1.229.692.12.28.205.748.234 1.28l.025.47H6.069l.025-.47c.029-.532.114-1 .234-1.28.161-.374.526-.585 1.192-.689.522-.082 8.385-.084 8.923-.003m1.924 4.001c1.949.189 2.522.709 2.801 2.541.074.482.074 4.798 0 5.28-.279 1.832-.852 2.352-2.801 2.541-.864.084-11.87.084-12.734 0-1.952-.189-2.518-.702-2.801-2.541-.074-.483-.074-4.797 0-5.28.28-1.821.854-2.351 2.747-2.539.8-.08 11.972-.082 12.788-.002m-.461 12.391c-.062 1.146-.279 1.614-.848 1.827-.52.195-.709.203-5.058.203s-4.538-.008-5.058-.203c-.569-.213-.786-.681-.848-1.827l-.025-.47h11.862l-.025.47" fill-rule="evenodd" fill="#000"/></svg>