<svg width="24" height="24" fill="none" xmlns="http://www.w3.org/2000/svg"><path d="M8.538 1.28c-1.205.104-2.315.617-3.033 1.403-.717.784-1.132 1.767-1.224 2.904-.054.666-.054 12.176 0 12.828.186 2.255 1.605 3.838 3.814 4.256.329.062.716.069 3.905.069s3.576-.007 3.905-.069c2.209-.418 3.628-2.001 3.814-4.256.053-.635.053-12.195 0-12.83-.185-2.238-1.584-3.814-3.773-4.251-.283-.057-.769-.067-3.686-.075-1.848-.006-3.523.004-3.722.021m7.302 1.559c.979.2 1.807.899 2.169 1.831.237.611.231.456.231 5.754v4.856H5.76v-4.856c0-5.298-.006-5.143.231-5.754a3.017 3.017 0 0 1 2.315-1.868c.107-.018 1.76-.034 3.674-.037 3.297-.004 3.5 0 3.86.074m-14.053.439a.659.659 0 0 0-.447.326c-.079.135-.08.208-.08 8.396s.001 8.261.08 8.396a.646.646 0 0 0 .475.327c.367.069.684-.054.845-.327.079-.135.08-.219.092-8.176.007-4.422.001-8.152-.013-8.289-.041-.405-.242-.62-.619-.662a1.307 1.307 0 0 0-.333.009m20 0a.659.659 0 0 0-.447.326c-.079.135-.08.208-.08 8.396s.001 8.261.08 8.396a.646.646 0 0 0 .475.327c.367.069.684-.054.845-.327.079-.135.08-.219.092-8.176.007-4.422.001-8.152-.013-8.289-.041-.405-.242-.62-.619-.662a1.307 1.307 0 0 0-.333.009M18.24 17.596c0 .93-.042 1.248-.231 1.734a2.985 2.985 0 0 1-2.169 1.831c-.359.074-.572.078-3.84.078s-3.481-.004-3.84-.078a2.985 2.985 0 0 1-2.169-1.831c-.189-.486-.231-.804-.231-1.734v-.836h12.48v.836" fill-rule="evenodd" fill="#000"/></svg>