<svg width="24" height="24" fill="none" xmlns="http://www.w3.org/2000/svg"><path d="M8.88 1.786c-1.793.142-2.74.488-3.467 1.269-.717.77-1.027 1.749-1.133 3.582-.05.856-.05 9.811-.001 10.703.103 1.844.413 2.831 1.134 3.605.648.695 1.475 1.043 2.907 1.222.602.076 6.758.076 7.36 0 .865-.108 1.474-.271 1.976-.528a2.96 2.96 0 0 0 .952-.716c.7-.757 1.011-1.759 1.113-3.583.049-.885.049-9.795 0-10.68-.103-1.844-.413-2.831-1.134-3.605-.621-.666-1.386-1.004-2.727-1.202-.374-.056-.917-.067-3.62-.074a210.71 210.71 0 0 0-3.36.007m6.741 1.548c.916.135 1.429.323 1.783.653.419.39.609.859.762 1.873.08.53.08 11.75 0 12.28-.153 1.014-.343 1.483-.762 1.873-.36.335-.874.521-1.824.658-.422.061-.854.069-3.58.069s-3.158-.008-3.58-.069c-1.81-.261-2.323-.762-2.586-2.531-.079-.528-.079-11.752 0-12.28.142-.953.348-1.476.722-1.833.362-.345.774-.517 1.546-.646.714-.119 1.199-.133 4.158-.123 2.455.009 2.99.021 3.361.076m6.166-.056a.659.659 0 0 0-.447.326c-.079.135-.08.208-.08 7.896s.001 7.761.08 7.896a.646.646 0 0 0 .475.327c.367.069.684-.054.845-.327.079-.135.08-.219.092-7.676.007-4.147.001-7.652-.013-7.789-.041-.405-.242-.62-.619-.662a1.307 1.307 0 0 0-.333.009M1.599 3.85a.67.67 0 0 0-.258.23c-.081.139-.081.183-.081 7.92s0 7.781.081 7.92a.67.67 0 0 0 .258.23c.367.186.885.073 1.06-.23.081-.139.081-.183.081-7.92s0-7.781-.081-7.92c-.111-.193-.373-.32-.659-.32a.86.86 0 0 0-.401.09" fill-rule="evenodd" fill="#000"/></svg>