<svg width="24" height="24" fill="none" xmlns="http://www.w3.org/2000/svg"><path d="M10.06 1.28c-2.179.112-3.378.652-4.067 1.832a3.619 3.619 0 0 0-.448 1.093l-.097.375-.634.025c-.749.029-1.248.11-1.698.274-1.031.376-1.574 1.122-1.785 2.453-.065.409-.071.818-.071 4.668s.006 4.259.071 4.668c.211 1.331.754 2.077 1.785 2.453.45.164.949.245 1.698.274l.634.025.097.375c.405 1.563 1.364 2.424 3.075 2.761.802.157 1.24.181 3.38.181 2.14 0 2.578-.024 3.38-.181 1.713-.337 2.666-1.197 3.078-2.776l.094-.36.634-.025c.749-.029 1.248-.11 1.698-.274.817-.298 1.344-.854 1.611-1.701.237-.752.263-1.276.263-5.42s-.026-4.668-.263-5.42c-.267-.847-.794-1.403-1.611-1.701-.45-.164-.949-.245-1.698-.274l-.634-.025-.097-.375a3.619 3.619 0 0 0-.448-1.093c-.608-1.041-1.589-1.566-3.316-1.774-.604-.073-3.614-.111-4.631-.058m4.848 1.594c.803.151 1.222.331 1.561.67.397.397.608 1.016.712 2.089.084.864.084 11.87 0 12.734-.189 1.949-.709 2.522-2.541 2.801-.482.074-4.798.074-5.28 0-1.832-.279-2.352-.852-2.541-2.801-.084-.864-.084-11.87 0-12.734.174-1.797.648-2.425 2.046-2.71.697-.142 1.017-.156 3.335-.145 2.105.01 2.291.017 2.708.096M5.26 12.006v5.925l-.47-.025c-.532-.029-1-.114-1.28-.234-.383-.165-.586-.525-.692-1.229-.085-.566-.085-8.32 0-8.886.1-.665.288-1.027.621-1.196.304-.156.91-.265 1.521-.276l.3-.005v5.926m14.73-5.823c.619.127.883.319 1.047.759.195.52.203.709.203 5.058s-.008 4.538-.203 5.058c-.213.569-.681.786-1.827.848l-.47.025V6.069l.47.025c.259.014.61.054.78.089" fill-rule="evenodd" fill="#000"/></svg>