<svg width="24" height="24" fill="none" xmlns="http://www.w3.org/2000/svg"><path d="M3.192 1.902c-.532.129-1.121.533-1.45.993-.434.609-.512.974-.495 2.33.012.916.019 1.006.094 1.134.13.221.307.301.666.301.332 0 .442-.049.611-.275.077-.103.083-.18.102-1.161l.02-1.05.121-.236c.134-.261.404-.497.657-.573.107-.032 1.023-.045 3.097-.045H9.56v14.036l-1.49.012c-1.377.011-1.499.018-1.615.087-.209.127-.275.282-.275.645 0 .363.066.518.275.645.119.071.268.076 3.185.086l3.06.011.179-.091c.252-.128.33-.282.33-.651 0-.369-.078-.523-.328-.65-.168-.085-.226-.09-1.009-.09h-.832V3.32h2.945c2.074 0 2.99.013 3.097.045.253.076.523.312.657.573l.121.236.02 1.05c.019.981.025 1.058.102 1.161.169.226.279.275.611.275.359 0 .536-.08.666-.301.075-.128.082-.218.094-1.134.013-1.09-.025-1.424-.215-1.853-.313-.708-1.015-1.299-1.748-1.472-.363-.085-13.845-.084-14.198.002M13.279 9.69c-.25.127-.332.288-.332.65 0 .362.082.523.332.65.169.086.223.09 1.109.09h.932v9.594l-.83.013c-.744.012-.844.021-.966.093-.22.13-.292.259-.314.57-.027.374.072.609.308.729.162.082.205.084 2.562.084 2.32 0 2.403-.003 2.555-.08.236-.121.341-.365.315-.73-.022-.314-.093-.443-.314-.573-.122-.072-.222-.081-.966-.093l-.83-.013v-9.596l2.017.011c1.966.011 2.02.013 2.128.093.256.192.273.247.295.951.024.766.059.867.35.995.236.105.679.085.844-.037.226-.169.265-.298.28-.943a5.859 5.859 0 0 0-.033-.86c-.13-.746-.751-1.425-1.478-1.615-.239-.062-.602-.069-4.025-.071L13.457 9.6l-.178.09" fill-rule="evenodd" fill="#000"/></svg>