<svg width="24" height="24" fill="none" xmlns="http://www.w3.org/2000/svg"><path d="M11.34 1.482a3.899 3.899 0 0 0-1.554.624c-.443.319-7.182 5.737-7.389 5.941-.39.386-.743.993-.948 1.633-.239.744-.242 1.252-.012 2.598.189 1.11.235 1.232.514 1.367.143.07.216.08.4.059.278-.033.521-.163.62-.333.108-.185.095-.427-.072-1.411-.211-1.243-.183-1.591.188-2.345a1.89 1.89 0 0 1 .393-.522c.143-.139 1.822-1.503 3.732-3.031 2.483-1.987 3.542-2.811 3.72-2.894.35-.164.63-.222 1.068-.222.445.001.79.081 1.13.263.252.134 7.163 5.638 7.448 5.932.343.352.618 1.029.649 1.599.018.33-.037.702-.664 4.45-.398 2.377-.717 4.178-.763 4.302-.21.561-.67 1.049-1.264 1.343-.466.23-.291.219-4.023.243-3.445.022-3.468.023-3.58.106-.191.143-.265.313-.265.611 0 .331.088.531.286.654l.146.091h7.04l.34-.09c1.175-.313 2.269-1.27 2.684-2.348.158-.409.153-.378.917-4.942.766-4.573.761-4.512.459-5.48-.223-.714-.585-1.311-1.063-1.749a369.21 369.21 0 0 0-3.76-3.03C14.492 2.32 14.101 2.019 13.74 1.84c-.532-.264-.94-.36-1.62-.38a5.72 5.72 0 0 0-.78.022M1.764 15.283c-.38.075-.573.448-.482.929.075.392.259.498.951.547 1.462.105 2.589.588 3.504 1.504.917.916 1.399 2.041 1.504 3.509.039.553.086.69.284.838.217.162.698.169.933.015.253-.166.31-.411.257-1.105-.188-2.489-1.534-4.537-3.655-5.559-.702-.339-1.655-.603-2.38-.66-.642-.05-.746-.052-.916-.018m0 3.002c-.38.071-.587.477-.482.944.079.355.258.469.822.528.72.074 1.096.234 1.5.639.405.404.565.78.639 1.5.059.572.179.752.545.822.491.093.854-.102.928-.498.042-.222-.003-.796-.089-1.16a3.583 3.583 0 0 0-2.767-2.699c-.445-.09-.864-.119-1.096-.076m-.194 2.79c-.414.143-.548.369-.548.925 0 .421.076.634.282.796.331.261 1.012.263 1.374.005.221-.157.3-.368.3-.801 0-.314-.015-.409-.088-.547-.208-.393-.791-.561-1.32-.378" fill-rule="evenodd" fill="#000"/></svg>