<svg width="24" height="24" fill="none" xmlns="http://www.w3.org/2000/svg"><path d="M16.334 1.284c-.412.119-.59.873-.287 1.218.133.151.229.188.723.279 2.029.372 3.799 2.169 4.352 4.419.059.241.09.527.105.98.018.553.01.696-.064 1.054a4.467 4.467 0 0 0-.09.588c-.007.368.285.616.762.646.446.029.608-.14.764-.794.2-.836.191-1.833-.023-2.789a7.646 7.646 0 0 0-2.956-4.466c-.739-.53-1.778-.973-2.617-1.115-.419-.071-.487-.073-.669-.02m-.373 3.31c-.248.133-.301.246-.301.646 0 .295.014.372.082.465.155.206.263.256.637.295.483.05.768.192 1.106.551.287.304.483.643.574.991.082.317.077.518-.024.844-.186.601-.039.911.512 1.079.49.149.784-.106.973-.847.415-1.621-.796-3.593-2.471-4.021-.4-.102-.9-.104-1.088-.003M6.14 6.923c-.65.097-1.227.365-1.623.757-.476.469-.702.996-.969 2.26l-.169.8-.488.021c-.411.017-.505.034-.599.104-.196.146-.272.323-.272.635 0 .208.021.315.08.416.137.233.259.295.618.316.2.011.322.035.322.063.001.025-.048.284-.108.576l-.108.532-.208.156c-.404.306-.664.729-.81 1.321-.095.385-.122.632-.39 3.568-.221 2.422-.22 2.484.046 3.026.195.399.641.85 1.018 1.032.443.213.598.234 1.74.234 1.144 0 1.315-.023 1.713-.232.398-.209.568-.469.864-1.321.085-.246.167-.476.181-.512.068-.168.148-.174 2.302-.188 2.185-.014 2.511-.001 2.64.106.046.039.164.299.275.612.245.687.372.92.619 1.136.397.347.923.442 2.266.408.966-.024 1.182-.075 1.653-.389.642-.43.993-1.073.992-1.82 0-.445-.423-4.955-.508-5.414-.125-.682-.338-1.096-.76-1.477l-.253-.229-.122-.576c-.067-.317-.122-.58-.122-.585 0-.005.145-.017.322-.027.359-.021.481-.083.618-.316.059-.101.08-.208.08-.416 0-.312-.076-.489-.273-.636-.097-.072-.181-.086-.59-.098a4.772 4.772 0 0 1-.477-.026c0-.074-.337-1.551-.402-1.76a4.217 4.217 0 0 0-.477-.998c-.298-.434-.88-.808-1.541-.991-.317-.088-.348-.089-3.58-.096-1.793-.004-3.368.009-3.5.028m6.508 1.481c.672.104.973.375 1.176 1.058.039.131.226.976.416 1.878l.346 1.64-5.06.01c-2.782.006-5.066.003-5.075-.005-.034-.035.716-3.479.817-3.753.184-.496.49-.731 1.083-.831.303-.051 5.966-.048 6.297.003m2.465 6.178c.38.113.553.339.644.841.051.288.483 4.843.483 5.099a.74.74 0 0 1-.41.633c-.169.082-.225.086-1.114.076l-.936-.011-.204-.588c-.223-.639-.367-.899-.634-1.146-.206-.19-.399-.294-.724-.39-.212-.063-.486-.072-2.547-.086-2.572-.016-2.787-.001-3.254.228-.299.147-.629.487-.782.804-.058.12-.182.439-.276.71l-.171.492-.99-.012-.991-.012-.153-.122a1.067 1.067 0 0 1-.246-.306l-.092-.184.223-2.434c.123-1.339.241-2.542.264-2.674.105-.614.27-.834.706-.936.084-.02 2.559-.038 5.574-.04 4.778-.004 5.447.003 5.63.058M4.717 16.037c-.313.098-.449.318-.449.728 0 .298.074.468.265.611.11.082.151.084 1.587.084 1.426 0 1.478-.003 1.585-.082.226-.169.275-.279.275-.611 0-.359-.08-.536-.301-.666-.132-.077-.211-.081-1.499-.089-.748-.004-1.407.007-1.463.025m6.703.022c-.301.109-.449.406-.407.819.024.229.1.363.282.5.107.079.159.082 1.585.082 1.436 0 1.477-.002 1.587-.084.191-.143.265-.313.265-.611 0-.331-.088-.531-.286-.654-.143-.089-.17-.091-1.506-.1-1.101-.008-1.39.001-1.52.048" fill-rule="evenodd" fill="#000"/></svg>