<svg width="24" height="24" fill="none" xmlns="http://www.w3.org/2000/svg"><path d="M5.543 1.285c-.819.052-1.67.255-2.203.525a3.49 3.49 0 0 0-1.252 1.083c-.248.361-.328.519-.483.959-.297.842-.365 1.623-.364 4.168.001 2.404.061 3.176.305 3.954.41 1.3 1.18 2.07 2.48 2.48.758.238 1.56.304 3.724.305l1.49.001.001 1.49c.001 2.164.067 2.966.305 3.724.41 1.3 1.18 2.07 2.48 2.48.78.245 1.552.304 3.974.304s3.194-.059 3.974-.304c1.3-.41 2.07-1.18 2.48-2.48.245-.78.304-1.552.304-3.974s-.059-3.194-.304-3.974c-.41-1.3-1.18-2.07-2.48-2.48-.758-.238-1.56-.304-3.724-.305l-1.49-.001-.001-1.49c-.001-2.164-.067-2.966-.305-3.724-.41-1.3-1.18-2.07-2.48-2.48-.448-.14-.942-.221-1.642-.266-.703-.046-4.052-.042-4.789.005m5.297 1.533c1.266.192 1.886.666 2.198 1.682.178.577.202.922.202 2.909v1.869l-.09.016c-1.204.213-1.659.37-2.269.786-.771.525-1.296 1.435-1.503 2.605a69.08 69.08 0 0 1-.083.465l-.017.09H7.409c-1.987 0-2.332-.024-2.909-.202-1.016-.312-1.49-.932-1.682-2.198-.084-.552-.084-5.128 0-5.68.224-1.477.855-2.115 2.318-2.342.499-.077 5.193-.077 5.704 0M5.8 4.885c-.753.08-1.456.607-1.378 1.033.06.331.369.694.633.744.165.031.383-.033.599-.176a.754.754 0 0 1 .382-.118c.201-.015.264.001.516.128.466.235.747.183 1-.185.261-.378.246-.672-.046-.941-.398-.367-1.059-.555-1.706-.485m4 0c-.753.08-1.456.607-1.378 1.033.06.331.369.694.633.744.165.031.383-.033.599-.176a.754.754 0 0 1 .382-.118c.201-.015.264.001.516.128.466.235.747.183 1-.185.261-.378.246-.672-.046-.941-.398-.367-1.059-.555-1.706-.485M7.5 7.469c-.901.124-1.795.687-2.335 1.468a3.215 3.215 0 0 0-.591 1.743c-.02.373-.013.447.068.659.121.32.417.618.731.735.219.082.295.086 1.62.086 1.362 0 1.394-.002 1.568-.09.25-.127.328-.281.328-.65s-.078-.523-.328-.65c-.172-.087-.214-.09-1.335-.09H6.07l.02-.183c.056-.493.56-1.135 1.084-1.38.676-.316 1.361-.236 2.065.242.414.282.669.259.979-.085.343-.382.345-.682.006-1.01-.376-.365-.981-.658-1.584-.767a4.906 4.906 0 0 0-1.14-.028m11.34 3.349c1.489.226 2.116.853 2.342 2.342.084.552.084 5.128 0 5.68-.226 1.489-.853 2.116-2.342 2.342-.552.084-5.128.084-5.68 0-1.489-.226-2.116-.853-2.342-2.342-.073-.48-.084-4.967-.014-5.54.196-1.6.882-2.296 2.456-2.495.154-.019 1.387-.037 2.74-.04 1.958-.004 2.538.007 2.84.053m-5.854 2.04c-.307.11-.561.466-.561.785 0 .237.133.425.437.62.671.429 1.472.48 2.201.14.677-.316.84-.701.507-1.194-.159-.236-.31-.339-.524-.359-.157-.015-.229.005-.462.129-.376.2-.606.202-.955.008-.31-.172-.447-.199-.643-.129m4 0c-.307.11-.561.466-.561.785 0 .237.133.425.437.62.671.429 1.472.48 2.201.14.677-.316.84-.701.507-1.194-.159-.236-.31-.339-.524-.359-.157-.015-.229.005-.462.129-.376.2-.606.202-.955.008-.31-.172-.447-.199-.643-.129m-3.625 2.67a1.362 1.362 0 0 0-.719.733c-.155.408-.076 1.173.186 1.799.396.951 1.285 1.715 2.332 2.005.366.101 1.314.101 1.68 0a3.533 3.533 0 0 0 2.502-2.505c.033-.121.071-.409.084-.64.02-.373.013-.446-.068-.659a1.332 1.332 0 0 0-.731-.735c-.226-.085-.268-.086-2.639-.084-2.347.002-2.414.004-2.627.086m4.549 1.569c-.055.491-.531 1.111-1.051 1.368-.753.372-1.588.238-2.203-.352-.294-.282-.532-.707-.566-1.01l-.02-.183h3.86l-.02.177" fill-rule="evenodd" fill="#000"/></svg>