<svg width="24" height="24" fill="none" xmlns="http://www.w3.org/2000/svg"><path d="M5.928 2.822c-1.288.165-2.289.606-3.081 1.355-.755.713-1.25 1.681-1.466 2.863-.114.627-.139 1.52-.139 4.96s.025 4.333.139 4.96c.216 1.184.711 2.15 1.467 2.865.804.76 1.797 1.191 3.127 1.355.388.048 1.05.06 3.365.06h2.883l.178-.09c.25-.127.328-.281.328-.65s-.078-.523-.328-.65l-.178-.09H9.476c-1.615 0-2.918-.017-3.162-.042-2.049-.206-3.203-1.267-3.491-3.207-.094-.63-.094-8.392 0-9.022.286-1.931 1.426-2.986 3.465-3.207.533-.058 10.891-.058 11.424 0 1.949.211 3.042 1.153 3.433 2.959.054.245.07.683.09 2.419.024 2.031.028 2.126.106 2.26a.67.67 0 0 0 .258.23c.367.186.885.073 1.06-.23.077-.132.082-.22.094-1.64.025-2.745-.094-3.659-.613-4.741-.747-1.558-2.134-2.474-4.115-2.719-.671-.083-11.449-.081-12.097.002m.857 5.436c-.205.074-.365.234-.491.49-.115.236-.109.381.025.601.117.193 3.498 2.882 3.875 3.083.522.278.926.376 1.647.398.487.015.693.004.96-.05.448-.09.882-.26 1.201-.469.344-.226 3.537-2.772 3.639-2.901a.572.572 0 0 0 .1-.593c-.155-.405-.546-.664-.869-.575-.186.051-.31.144-2.092 1.574-.883.708-1.578 1.235-1.723 1.307a2.262 2.262 0 0 1-1.057.235c-.419.001-.778-.08-1.093-.248-.131-.07-.975-.717-1.873-1.438-.899-.72-1.683-1.335-1.744-1.366a.603.603 0 0 0-.505-.048M19.931 13.5c-.374.082-.757.305-1.197.698-.47.42-3.458 3.416-3.69 3.7-.311.381-.365.56-.546 1.822-.085.589-.064 1.037.058 1.274.134.259.385.511.631.631.329.161.635.165 1.613.019 1.243-.186 1.075-.075 3-1.973.869-.857 1.603-1.579 1.631-1.604.206-.19.818-.892.945-1.083.232-.35.342-.699.343-1.087.002-.629-.215-1.082-.795-1.66-.314-.313-.448-.415-.724-.551-.315-.155-.673-.25-.92-.243a3.005 3.005 0 0 0-.349.057m.63 1.526c.337.224.679.659.679.865 0 .118-.184.406-.376.588l-.147.139-.188-.098c-.243-.126-.723-.606-.85-.849l-.098-.189.18-.186c.098-.102.233-.219.299-.261.148-.092.37-.097.501-.009m-1.833 1.873c.201.26.517.56.797.756l.094.066-1.16 1.16c-.637.638-1.186 1.168-1.219 1.179-.08.024-1.145.18-1.235.18-.068 0-.066-.036.022-.65l.094-.65 1.169-1.17c.643-.643 1.179-1.169 1.19-1.167.011.001.122.135.248.296" fill-rule="evenodd" fill="#000"/></svg>