<svg width="24" height="24" fill="none" xmlns="http://www.w3.org/2000/svg"><path d="M5.928 2.822c-1.288.165-2.289.606-3.081 1.355-.755.713-1.25 1.681-1.466 2.863-.114.627-.139 1.52-.139 4.96s.025 4.333.139 4.96c.216 1.184.711 2.15 1.467 2.865.804.76 1.797 1.191 3.127 1.355.388.048 1.05.06 3.365.06h2.883l.178-.09c.25-.127.328-.281.328-.65s-.078-.523-.328-.65l-.178-.09H9.476c-1.615 0-2.918-.017-3.162-.042-2.049-.206-3.203-1.267-3.491-3.207-.094-.63-.094-8.392 0-9.022.286-1.931 1.426-2.986 3.465-3.207.533-.058 10.891-.058 11.424 0 1.949.211 3.042 1.153 3.433 2.959.054.245.07.683.09 2.419.024 2.031.028 2.126.106 2.26a.67.67 0 0 0 .258.23c.367.186.885.073 1.06-.23.077-.132.082-.22.094-1.64.025-2.745-.094-3.659-.613-4.741-.747-1.558-2.134-2.474-4.115-2.719-.671-.083-11.449-.081-12.097.002m.857 5.436c-.205.074-.365.234-.491.49-.115.236-.109.381.025.601.117.193 3.498 2.882 3.875 3.083.522.278.926.376 1.647.398.487.015.693.004.96-.05.448-.09.882-.26 1.201-.469.344-.226 3.537-2.772 3.639-2.901a.572.572 0 0 0 .1-.593c-.155-.405-.546-.664-.869-.575-.186.051-.31.144-2.092 1.574-.883.708-1.578 1.235-1.723 1.307a2.262 2.262 0 0 1-1.057.235c-.419.001-.778-.08-1.093-.248-.131-.07-.975-.717-1.873-1.438-.899-.72-1.683-1.335-1.744-1.366a.603.603 0 0 0-.505-.048m10.995 6.026a3.91 3.91 0 0 0-2.362 1.134c-1.341 1.341-1.534 3.387-.472 5.012.193.296.728.831 1.024 1.024 1.308.855 2.965.907 4.242.133l.193-.117.629.621c.699.691.807.755 1.131.668.221-.06.534-.373.594-.594.087-.324.023-.432-.668-1.131l-.621-.629.117-.193c.545-.899.692-2.075.391-3.115a3.78 3.78 0 0 0-.996-1.679c-.665-.664-1.461-1.037-2.425-1.136a6.737 6.737 0 0 0-.431-.037c-.014.003-.17.021-.346.039m1.016 1.537c.409.097.785.316 1.126.657.496.497.717 1.026.717 1.722s-.221 1.225-.717 1.722c-.497.496-1.026.717-1.722.717s-1.225-.221-1.722-.717c-.496-.497-.717-1.026-.717-1.722s.221-1.225.717-1.722c.334-.334.717-.56 1.108-.655a3.303 3.303 0 0 1 1.21-.002" fill-rule="evenodd" fill="#000"/></svg>