<svg width="24" height="24" fill="none" xmlns="http://www.w3.org/2000/svg"><path d="M5.928 2.822c-1.288.165-2.289.606-3.081 1.355-.755.713-1.25 1.681-1.466 2.863-.08.442-.143 1.453-.103 1.668a.923.923 0 0 0 .099.274c.165.25.691.337 1.024.168.276-.14.315-.245.359-.956.041-.687.115-1.127.257-1.546.478-1.405 1.549-2.179 3.271-2.366.533-.058 10.891-.058 11.424 0 2.039.221 3.179 1.276 3.465 3.207.094.63.094 8.392 0 9.022-.288 1.94-1.442 3.001-3.491 3.207-.265.027-2.312.042-5.662.042H6.777l-.178.09c-.25.127-.332.288-.332.65 0 .362.082.523.332.65l.178.09h5.383c5.834 0 5.883-.002 6.743-.22 2.04-.517 3.326-1.922 3.716-4.06.114-.627.139-1.52.139-4.96s-.025-4.333-.139-4.96c-.216-1.184-.711-2.15-1.467-2.865-.804-.76-1.797-1.191-3.127-1.355-.671-.083-11.449-.081-12.097.002m.857 5.436c-.205.074-.365.234-.491.49-.115.236-.109.381.025.601.117.193 3.498 2.882 3.875 3.083.522.278.926.376 1.647.398.487.015.693.004.96-.05.448-.09.882-.26 1.201-.469.344-.226 3.537-2.772 3.639-2.901a.572.572 0 0 0 .1-.593c-.155-.405-.546-.664-.869-.575-.186.051-.31.144-2.092 1.574-.883.708-1.578 1.235-1.723 1.307a2.262 2.262 0 0 1-1.057.235c-.419.001-.778-.08-1.093-.248-.131-.07-.975-.717-1.873-1.438-.899-.72-1.683-1.335-1.744-1.366a.603.603 0 0 0-.505-.048M1.599 11.85c-.25.127-.332.288-.332.65 0 .362.082.523.332.65.176.089.193.09 1.901.09s1.725-.001 1.901-.09c.25-.127.328-.281.328-.65s-.078-.523-.328-.65c-.176-.089-.193-.09-1.901-.09s-1.725.001-1.901.09m0 4c-.25.127-.332.288-.332.65 0 .362.082.523.332.65l.178.09h6.446l.178-.09c.25-.127.328-.281.328-.65s-.078-.523-.328-.65l-.178-.09H1.777l-.178.09" fill-rule="evenodd" fill="#000"/></svg>