<svg width="24" height="24" fill="none" xmlns="http://www.w3.org/2000/svg"><path d="M18.268 1.288c-.292.037-.635.217-.886.464-.249.245-.368.422-.613.908-.262.521-.314.567-.731.64-.821.145-1.327.448-1.604.963-.375.698-.172 1.474.593 2.261.346.357.386.457.309.781-.088.372-.112.85-.059 1.156.162.93.895 1.432 1.824 1.247.226-.045.459-.135.799-.307.27-.137.532-.243.6-.243.067 0 .33.106.6.243.594.3.967.385 1.397.319.993-.154 1.442-1.076 1.167-2.398-.034-.163-.041-.302-.02-.376.019-.065.167-.255.329-.422.638-.657.883-1.289.729-1.887-.19-.742-.734-1.16-1.74-1.337-.417-.073-.469-.119-.731-.64-.245-.486-.364-.663-.613-.908a1.577 1.577 0 0 0-1.35-.464M5.928 2.822c-1.288.165-2.289.606-3.081 1.355-.755.713-1.25 1.681-1.466 2.863-.114.627-.139 1.52-.139 4.96s.025 4.333.139 4.96c.216 1.184.711 2.15 1.467 2.865.804.76 1.797 1.191 3.127 1.355.719.089 11.331.089 12.05 0 1.981-.245 3.368-1.161 4.115-2.719.54-1.126.634-1.93.613-5.241-.012-1.922-.016-2.005-.094-2.14-.245-.424-1.073-.424-1.318 0-.078.135-.082.226-.105 2.76-.021 2.214-.035 2.666-.09 2.919-.398 1.818-1.502 2.762-3.46 2.959-.566.057-10.806.057-11.372 0-2.049-.206-3.203-1.267-3.491-3.207-.094-.63-.094-8.392 0-9.022.25-1.69 1.166-2.718 2.749-3.088.613-.143 1.039-.161 3.878-.161h2.773l.178-.09c.25-.127.328-.281.328-.65s-.078-.523-.328-.65l-.178-.09-2.941.004c-2.184.004-3.048.019-3.354.058m12.747.111c.065.095.206.351.311.57.348.716.855 1.115 1.577 1.239.436.074.677.164.677.252 0 .099-.095.225-.449.597-.368.387-.559.743-.633 1.181-.049.291-.045.349.084 1.068.021.121.029.263.017.315-.02.081-.04.091-.146.07-.068-.014-.282-.116-.475-.226-.464-.265-.694-.333-1.138-.333-.446 0-.674.067-1.145.337-.389.223-.601.27-.628.141-.008-.042.025-.292.075-.556.081-.428.086-.512.044-.784-.071-.458-.258-.815-.636-1.212-.355-.373-.45-.499-.45-.598 0-.088.241-.178.677-.252.733-.126 1.228-.52 1.591-1.267.191-.394.413-.715.494-.715.019 0 .088.078.153.173M6.78 8.259c-.196.069-.432.324-.524.565-.077.203-.042.401.104.587.103.13 3.292 2.672 3.638 2.9.319.209.753.379 1.201.469.52.106 1.455.068 1.941-.077.537-.161 1.132-.504 1.389-.803.193-.223.172-.539-.057-.84-.288-.38-.588-.434-.995-.178-.584.367-.935.479-1.489.477a2.26 2.26 0 0 1-1.045-.236c-.146-.072-.91-.654-1.913-1.457-.919-.735-1.72-1.356-1.78-1.38-.199-.079-.308-.085-.47-.027" fill-rule="evenodd" fill="#000"/></svg>