<svg width="24" height="24" fill="none" xmlns="http://www.w3.org/2000/svg"><path d="M19.14 2.282c-.412.045-.637.105-.963.255-.925.428-1.64 1.292-1.839 2.223-.083.387-.083 1.092-.001 1.473.249 1.154 1.276 2.181 2.43 2.43.379.082 1.087.082 1.466 0 1.154-.249 2.181-1.276 2.43-2.43.082-.379.082-1.087 0-1.466-.16-.741-.689-1.508-1.356-1.963-.6-.41-1.411-.606-2.167-.522m-13.212.54c-1.288.165-2.289.606-3.081 1.355-.755.713-1.25 1.681-1.466 2.863-.114.627-.139 1.52-.139 4.96s.025 4.333.139 4.96c.216 1.184.711 2.15 1.467 2.865.804.76 1.797 1.191 3.127 1.355.719.089 11.331.089 12.05 0 1.981-.245 3.368-1.161 4.115-2.719.558-1.162.632-1.864.613-5.741-.013-2.424-.015-2.504-.094-2.64-.245-.424-1.073-.424-1.318 0-.079.136-.082.224-.105 3.26-.02 2.69-.033 3.161-.089 3.419-.402 1.821-1.503 2.762-3.461 2.959-.566.057-10.806.057-11.372 0-2.049-.206-3.203-1.267-3.491-3.207-.094-.63-.094-8.392 0-9.022.25-1.69 1.166-2.718 2.749-3.088.635-.149 1.012-.161 4.878-.161h3.773l.178-.09c.25-.127.328-.281.328-.65s-.078-.523-.328-.65l-.178-.09-3.941.004c-3.014.004-4.039.017-4.354.058M20.247 3.93c.371.183.668.485.845.86.12.253.128.298.128.71s-.008.457-.128.71a1.828 1.828 0 0 1-.847.861c-.293.145-.313.149-.745.149s-.452-.004-.745-.149a1.828 1.828 0 0 1-.847-.861c-.12-.253-.128-.298-.128-.71s.008-.457.127-.709a1.843 1.843 0 0 1 1.072-.961c.153-.055.293-.069.585-.06.35.011.412.026.683.16M6.78 8.259c-.196.069-.432.324-.524.565-.077.203-.042.401.104.587.103.13 3.292 2.672 3.638 2.9.319.209.753.379 1.201.469.52.106 1.455.068 1.941-.077a3.805 3.805 0 0 0 1.277-.68c1.313-1.027 1.422-1.137 1.423-1.435 0-.422-.504-.89-.869-.804-.171.04-.3.129-1.012.696-.914.728-1.258.882-1.971.879a2.26 2.26 0 0 1-1.045-.236c-.146-.072-.91-.654-1.913-1.457-.919-.735-1.72-1.356-1.78-1.38-.199-.079-.308-.085-.47-.027" fill-rule="evenodd" fill="#000"/></svg>