<svg width="24" height="24" fill="none" xmlns="http://www.w3.org/2000/svg"><path d="M5.928 2.822c-1.288.165-2.289.606-3.081 1.355-.755.713-1.25 1.681-1.466 2.863-.114.627-.139 1.52-.139 4.96s.025 4.333.139 4.96c.216 1.184.711 2.15 1.467 2.865.804.76 1.797 1.191 3.127 1.355.719.089 11.331.089 12.05 0 1.981-.245 3.368-1.161 4.115-2.719.35-.73.514-1.417.58-2.441.05-.78.05-7.26 0-8.04-.066-1.024-.23-1.711-.58-2.441-.747-1.558-2.134-2.474-4.115-2.719-.671-.083-11.449-.081-12.097.002m11.784 1.46c2.039.221 3.179 1.276 3.465 3.207.094.63.094 8.392 0 9.022-.288 1.94-1.442 3.001-3.491 3.207-.566.057-10.806.057-11.372 0-2.049-.206-3.203-1.267-3.491-3.207-.094-.63-.094-8.392 0-9.022.282-1.903 1.425-2.98 3.397-3.202.468-.053 11.009-.057 11.492-.005M6.785 8.258c-.205.074-.365.234-.491.49-.115.236-.109.381.025.601.117.193 3.498 2.882 3.875 3.083.522.278.926.376 1.647.398.487.015.693.004.96-.05.448-.09.882-.26 1.201-.469.344-.226 3.537-2.772 3.639-2.901a.572.572 0 0 0 .1-.593c-.155-.405-.546-.664-.869-.575-.186.051-.31.144-2.092 1.574-.883.708-1.578 1.235-1.723 1.307a2.262 2.262 0 0 1-1.057.235c-.419.001-.778-.08-1.093-.248-.131-.07-.975-.717-1.873-1.438-.899-.72-1.683-1.335-1.744-1.366a.603.603 0 0 0-.505-.048" fill-rule="evenodd" fill="#000"/></svg>