<svg width="24" height="24" fill="none" xmlns="http://www.w3.org/2000/svg"><path d="M2.787 6.278c-.341.067-.519.314-.519.722 0 .462.207.693.663.739.137.014 4.317.02 9.289.013 8.957-.012 9.041-.013 9.176-.092.273-.161.396-.478.327-.845a.646.646 0 0 0-.327-.475c-.135-.079-.213-.08-9.296-.086-5.038-.003-9.229.008-9.313.024m3 5c-.342.067-.519.314-.519.722 0 .462.207.693.663.739.137.014 2.967.02 6.289.013 5.957-.012 6.042-.013 6.176-.092a.646.646 0 0 0 .327-.475c.069-.367-.054-.684-.327-.845-.134-.079-.213-.08-6.296-.086-3.388-.003-6.229.008-6.313.024m4 5c-.342.068-.519.314-.519.722 0 .462.207.692.663.74.137.014 1.167.02 2.289.013 1.956-.012 2.046-.016 2.176-.093a.646.646 0 0 0 .327-.475c.069-.367-.054-.684-.327-.845-.131-.077-.214-.08-2.296-.086-1.188-.004-2.229.007-2.313.024" fill-rule="evenodd" fill="#000"/></svg>