<svg width="24" height="24" fill="none" xmlns="http://www.w3.org/2000/svg"><path d="M11.601 2.588c-.202.104-.311.291-.34.583-.014.137-.02 4.209-.013 9.049.012 8.717.013 8.801.092 8.936.148.251.262.304.66.304s.512-.053.66-.304c.079-.135.08-.208.08-9.156s-.001-9.021-.08-9.156c-.139-.236-.268-.302-.613-.316-.235-.009-.339.005-.446.06M7.18 5.058a.595.595 0 0 0-.399.469c-.013.095-.019 3.074-.013 6.62l.012 6.447.084.113c.147.197.324.273.636.273s.489-.076.636-.273l.084-.113V5.406l-.084-.113a.857.857 0 0 0-.21-.187c-.17-.099-.543-.123-.746-.048m9 0a.595.595 0 0 0-.399.469c-.013.095-.019 3.074-.013 6.62l.012 6.447.084.113c.147.197.324.273.636.273s.489-.076.636-.273l.084-.113V5.406l-.084-.113a.857.857 0 0 0-.21-.187c-.17-.099-.543-.123-.746-.048M2.601 7.588c-.201.104-.31.291-.34.583-.014.137-.02 1.959-.013 4.049.012 3.716.014 3.803.092 3.936.148.251.262.304.66.304s.512-.053.66-.304c.079-.134.08-.208.08-4.156 0-3.948-.001-4.022-.08-4.156-.139-.236-.268-.302-.613-.316-.235-.009-.339.005-.446.06m18 0c-.201.104-.31.291-.34.583-.014.137-.02 1.959-.013 4.049.012 3.716.014 3.803.092 3.936.148.251.262.304.66.304s.512-.053.66-.304c.079-.134.08-.208.08-4.156 0-3.948-.001-4.022-.08-4.156-.139-.236-.268-.302-.613-.316-.235-.009-.339.005-.446.06" fill-rule="evenodd" fill="#000"/></svg>