<svg width="24" height="24" fill="none" xmlns="http://www.w3.org/2000/svg"><path d="M8.3 1.282C5.953 1.416 4.761 2.364 4.381 4.4c-.121.65-.14 1.677-.14 7.62 0 5.952.018 6.923.141 7.583.329 1.763 1.25 2.684 3.018 3.015.589.111 1.573.141 4.6.141 3.775 0 4.402-.036 5.244-.299 1.339-.418 2.111-1.354 2.377-2.88.119-.688.136-1.633.137-7.56.001-5.947-.018-6.97-.139-7.62-.33-1.764-1.253-2.687-3.019-3.018a10.703 10.703 0 0 0-1-.103c-.758-.044-6.52-.042-7.3.003m7.688 1.519c.945.118 1.545.412 1.829.897.152.26.291.716.36 1.187.055.373.063 1.245.063 7.115 0 7.292.004 7.152-.226 7.84-.22.658-.517.954-1.178 1.176-.646.216-.828.224-4.836.224-3.145 0-3.753-.009-4.115-.063-.471-.069-.927-.208-1.187-.36-.485-.284-.779-.884-.897-1.829-.056-.447-.056-13.529 0-13.976.13-1.039.453-1.624 1.053-1.907.263-.125.737-.253 1.113-.302.38-.049 7.63-.051 8.021-.002m-4.309 2.477A2.254 2.254 0 0 0 9.82 6.969a2.217 2.217 0 0 0 .529 2.034c.475.515.952.725 1.651.725.699 0 1.176-.21 1.651-.725a2.216 2.216 0 0 0 .529-2.033c-.172-.727-.805-1.407-1.498-1.609a2.631 2.631 0 0 0-1.003-.083m.709 1.587c.059.044.162.148.23.231.107.133.122.182.122.404 0 .222-.015.271-.122.404-.217.267-.312.316-.618.316s-.401-.049-.618-.316c-.107-.132-.122-.183-.122-.398 0-.322.141-.543.44-.689.168-.082.55-.055.688.048m-.648 4.401c-1.325.119-2.413.819-3.021 1.946A3.483 3.483 0 0 0 8.271 15c0 .682.129 1.197.45 1.792a3.518 3.518 0 0 0 1.491 1.489 3.483 3.483 0 0 0 1.788.448c.68 0 1.197-.129 1.788-.448a3.518 3.518 0 0 0 1.491-1.489c.321-.595.45-1.11.45-1.792 0-.68-.129-1.197-.448-1.788a3.674 3.674 0 0 0-2.066-1.749c-.422-.147-1.066-.233-1.475-.197m.838 1.555c.371.097.696.291 1.003.598.46.46.659.937.659 1.581 0 .644-.199 1.121-.659 1.581-.46.46-.937.659-1.581.659-.644 0-1.121-.199-1.581-.659-.46-.46-.659-.937-.659-1.581 0-.644.199-1.121.659-1.581.3-.301.631-.5.985-.596.288-.077.881-.078 1.174-.002" fill-rule="evenodd" fill="#000"/></svg>