<svg width="24" height="24" fill="none" xmlns="http://www.w3.org/2000/svg"><path d="M10.94 1.805C7.365 2.147 4.143 4.33 2.475 7.54c-.829 1.594-1.203 3.137-1.203 4.96 0 1.157.119 2.003.431 3.07.443 1.515 1.331 3.077 2.398 4.222.45.482.687.578 1.016.409.202-.102.433-.376.487-.575.062-.232-.035-.444-.373-.815-1.084-1.192-1.819-2.533-2.188-3.995-.229-.906-.26-1.183-.26-2.316 0-1.112.032-1.413.24-2.239.92-3.649 3.925-6.36 7.677-6.925.653-.098 1.939-.1 2.58-.003 3.78.57 6.776 3.271 7.701 6.945.203.807.236 1.115.236 2.222 0 1.112-.032 1.412-.24 2.24a9.292 9.292 0 0 1-2.147 3.995c-.381.416-.47.562-.47.767 0 .348.428.778.774.778.238 0 .463-.156.846-.586a10.781 10.781 0 0 0 2.701-6.014c.061-.535.063-1.82.002-2.34-.293-2.496-1.355-4.702-3.1-6.442a10.669 10.669 0 0 0-6.603-3.097 14.321 14.321 0 0 0-2.04.004m4.739 6.473c-.516.069-.944.3-1.33.719-.477.516-.602.932-.582 1.943.012.652.018.69.129.931.148.322.489.646.813.773.209.083.298.092.951.093.831.002 1.101-.056 1.522-.329 1.198-.776 1.417-2.387.464-3.416a2.234 2.234 0 0 0-1.967-.714m.613 1.536c.071.03.186.118.254.197.266.302.275.657.025.949-.207.241-.328.28-.87.28h-.461v-.395c0-.217.011-.45.025-.518.031-.156.272-.441.432-.51a.88.88 0 0 1 .595-.003m-4.832 4.212c-.944.147-1.698.528-2.363 1.192a3.985 3.985 0 0 0-1.109 1.942c-.122.487-.122 1.433 0 1.92.112.442.319.921.557 1.287.246.378.833.964 1.215 1.213.357.232.905.463 1.343.566.441.103 1.353.103 1.794 0a4.737 4.737 0 0 0 1.343-.566c.385-.251.969-.835 1.22-1.22.232-.357.463-.905.566-1.343.103-.441.103-1.353 0-1.794a4.737 4.737 0 0 0-.566-1.343c-.251-.385-.835-.969-1.22-1.22a4.718 4.718 0 0 0-1.32-.56c-.293-.068-1.2-.115-1.46-.074m1.26 1.557c.443.133.762.329 1.125.692.56.561.772 1.067.772 1.845s-.212 1.284-.772 1.845c-.561.56-1.067.772-1.845.772s-1.284-.212-1.845-.772c-.56-.561-.772-1.067-.772-1.845 0-.51.055-.754.27-1.195.148-.303.608-.812.918-1.016.256-.168.669-.336.955-.387.291-.052.926-.02 1.194.061" fill-rule="evenodd" fill="#000"/></svg>