<svg width="24" height="24" fill="none" xmlns="http://www.w3.org/2000/svg"><path d="M13.58 3.376c-.492.12-1.013.523-1.35 1.044-.099.154-.526.97-.947 1.814-.767 1.534-.861 1.686-1.129 1.828-.058.031-.76.165-1.56.299-.962.16-1.566.281-1.784.356-1.153.397-1.724 1.316-1.465 2.36.158.636.392.944 1.796 2.363 1.194 1.207 1.235 1.26 1.229 1.619-.002.089-.138.746-.304 1.461-.166.715-.323 1.462-.349 1.66-.263 2.006 1.174 3.058 3.015 2.208.163-.076.897-.495 1.632-.932 1.328-.789 1.338-.794 1.6-.809.319-.019.203-.074 1.716.826 1.795 1.067 2.009 1.16 2.74 1.195.381.018.474.009.697-.066.796-.27 1.203-.936 1.203-1.967 0-.513-.011-.574-.386-2.195-.324-1.399-.336-1.525-.179-1.827.044-.084.55-.621 1.125-1.193.575-.572 1.132-1.148 1.238-1.28.245-.305.457-.694.544-.997.078-.273.087-.765.018-1.026-.172-.653-.801-1.221-1.611-1.456-.127-.037-.867-.172-1.645-.3-.777-.128-1.467-.261-1.534-.296-.305-.157-.358-.242-1.138-1.801-.419-.838-.838-1.641-.931-1.784-.593-.91-1.402-1.309-2.241-1.104m-11.793.902c-.342.068-.519.314-.519.722 0 .462.207.693.663.739.137.015 1.617.02 3.289.014 2.956-.013 3.044-.015 3.176-.093a.646.646 0 0 0 .327-.475c.069-.367-.054-.684-.327-.845-.133-.078-.214-.08-3.296-.086-1.738-.003-3.229.007-3.313.024m12.344.576c.26.109.406.346 1.264 2.053.933 1.856 1.007 1.968 1.546 2.329.164.109.42.237.569.284.148.046.912.19 1.697.319.938.154 1.493.264 1.62.32.274.121.413.265.413.429 0 .303-.131.467-1.419 1.772-1.347 1.365-1.416 1.454-1.578 2.039-.151.546-.126.79.245 2.378.3 1.283.329 1.439.33 1.829.002.371-.008.437-.078.514-.07.078-.108.086-.31.068-.319-.028-.544-.142-2.068-1.048-.73-.435-1.421-.827-1.535-.873-.177-.072-.293-.084-.807-.085-.531 0-.626.01-.825.09-.124.049-.79.425-1.48.835-1.448.859-1.717 1.001-2.016 1.064-.322.067-.426.018-.491-.232-.079-.303-.036-.588.321-2.099.302-1.28.326-1.41.324-1.8-.003-.509-.122-.926-.378-1.323-.105-.162-.612-.707-1.375-1.477-1.102-1.112-1.215-1.239-1.278-1.432-.088-.268-.046-.389.19-.542.247-.16.425-.202 2.003-.464 1.577-.262 1.743-.312 2.221-.674.4-.303.525-.504 1.391-2.228.452-.902.882-1.714.956-1.804.073-.09.192-.193.265-.229.16-.079.129-.078.283-.013M1.787 11.277a.66.66 0 0 0-.443.321c-.106.182-.105.624.002.808.18.308.459.378 1.392.346.575-.019.712-.063.872-.277.168-.226.168-.724 0-.95-.172-.231-.289-.263-1.01-.272-.363-.004-.729.006-.813.024m0 7.001c-.342.069-.519.314-.519.722 0 .461.207.692.663.74.137.014.942.02 1.789.013 1.455-.012 1.547-.017 1.676-.093a.646.646 0 0 0 .327-.475c.069-.367-.054-.684-.327-.845-.13-.076-.214-.08-1.796-.087-.913-.003-1.729.008-1.813.025" fill-rule="evenodd" fill="#000"/></svg>