<svg width="24" height="24" fill="none" xmlns="http://www.w3.org/2000/svg"><path d="M11.8 1.347c-.551.056-1.151.396-1.608.913-.271.306-.484.691-1.451 2.621-.848 1.691-.996 1.963-1.153 2.107-.327.302-.382.317-2.265.633-1.958.328-2.017.34-2.388.479-.741.279-1.272.754-1.528 1.366-.108.259-.166.764-.123 1.075.064.463.297.98.641 1.425.091.118.801.853 1.576 1.634.776.781 1.441 1.48 1.478 1.553.112.224.181.636.141.843-.019.101-.19.85-.379 1.664-.404 1.744-.461 2.064-.461 2.612 0 .82.193 1.37.636 1.809.447.441.855.583 1.58.549.828-.04 1.112-.167 3.386-1.515 1.557-.922 1.787-1.035 2.118-1.035.331 0 .561.113 2.114 1.033.861.51 1.705.998 1.876 1.083.628.314 1.139.451 1.688.45.381-.001.635-.058.954-.215.705-.347 1.088-1.11 1.088-2.165 0-.542-.057-.865-.461-2.606-.189-.814-.36-1.563-.379-1.664-.042-.217.031-.625.154-.862.045-.085.671-.741 1.407-1.474.73-.726 1.433-1.451 1.562-1.611.287-.356.486-.706.622-1.094.139-.398.146-.969.017-1.355-.228-.676-.777-1.198-1.577-1.5-.371-.139-.43-.151-2.388-.479-1.883-.316-1.938-.331-2.264-.632-.156-.143-.305-.416-1.134-2.069-.525-1.047-1.061-2.065-1.191-2.262-.228-.346-.59-.739-.831-.903-.447-.303-.989-.455-1.457-.408m.5 1.568c.182.112.414.354.559.581.072.112.576 1.095 1.122 2.184l.992 1.98.344.34c.381.377.657.557 1.074.702.17.06.977.213 2.074.394 1.095.181 1.889.332 2.035.386.71.265.898.643.612 1.233-.114.235-.305.443-1.673 1.825-1.439 1.454-1.555 1.582-1.709 1.882-.244.474-.343.87-.345 1.378-.001.396.023.522.414 2.18.408 1.727.416 1.769.418 2.26.003.546-.033.673-.242.836-.222.175-.824.06-1.436-.275-.154-.084-.91-.527-1.68-.983-.769-.457-1.526-.891-1.68-.964a2.86 2.86 0 0 0-2.358 0c-.154.073-.911.507-1.68.964-1.735 1.029-1.887 1.112-2.268 1.239-.624.209-.929.114-1.058-.329-.121-.417-.068-.793.389-2.748.387-1.653.412-1.785.411-2.18a2.813 2.813 0 0 0-.345-1.378c-.154-.3-.27-.428-1.709-1.882-1.686-1.705-1.759-1.797-1.79-2.26-.019-.267.061-.416.316-.59.324-.221.604-.289 2.443-.593.985-.163 1.903-.334 2.04-.38.532-.177 1.133-.64 1.445-1.11.097-.147.608-1.131 1.136-2.187.58-1.159 1.026-2.002 1.125-2.127.333-.416.728-.562 1.024-.378" fill-rule="evenodd" fill="#000"/></svg>