<svg width="24" height="24" fill="none" xmlns="http://www.w3.org/2000/svg"><path d="M21.8 1.245c-.109.032-.743.643-2.869 2.766-1.5 1.499-2.736 2.717-2.745 2.707-.009-.01-.431-.846-.938-1.858-.957-1.91-1.191-2.319-1.54-2.69-.539-.572-1.084-.827-1.757-.82-.472.005-.837.139-1.292.476-.573.424-.727.668-1.93 3.075-.838 1.677-.983 1.942-1.14 2.087-.328.302-.382.317-2.266.633-1.958.328-2.017.34-2.388.479-.741.279-1.272.754-1.528 1.366-.108.259-.166.764-.123 1.075.064.463.297.98.641 1.425.091.118.801.853 1.576 1.634.776.781 1.441 1.48 1.478 1.553.082.164.184.636.161.746-.009.045-.137.612-.284 1.261l-.267 1.18L2.938 20c-1.448 1.456-1.657 1.681-1.696 1.83-.067.254.002.458.236.692.234.234.437.303.692.237.154-.04 1.143-1.017 10.302-10.172 5.572-5.57 10.17-10.189 10.217-10.264a.625.625 0 0 0-.032-.692c-.229-.325-.557-.473-.857-.386m-9.549 1.649c.071.03.241.173.377.319.23.247.322.413 1.255 2.276.553 1.106 1.046 2.065 1.094 2.131.049.066.1.139.114.162.013.024-1.899 1.966-4.249 4.316l-4.274 4.274.039-.196c.09-.46-.052-1.2-.337-1.755-.154-.299-.272-.429-1.709-1.881-1.686-1.705-1.759-1.797-1.79-2.26-.019-.267.061-.416.316-.59.324-.221.604-.289 2.443-.593.985-.163 1.903-.334 2.04-.38.532-.177 1.133-.64 1.445-1.11.097-.147.608-1.131 1.136-2.187.606-1.212 1.024-2 1.133-2.136.315-.395.642-.526.967-.39m7.629 4.984a.825.825 0 0 0-.246.096c-.149.098-.274.412-.274.685 0 .416.157.574.691.699 1.083.253 1.4.658 1.061 1.357-.114.235-.305.443-1.673 1.825-1.439 1.454-1.555 1.582-1.709 1.882-.244.474-.343.87-.345 1.378-.001.396.023.522.414 2.18.408 1.727.416 1.769.418 2.26.003.546-.033.673-.242.836-.222.175-.824.06-1.436-.275-.154-.084-.91-.527-1.68-.983-.769-.457-1.526-.891-1.68-.964a2.86 2.86 0 0 0-2.358 0c-.359.171-3.25 1.884-3.375 1.999-.237.22-.263.461-.085.816.168.337.361.467.653.443.196-.016.359-.103 1.826-.972 1.599-.947 1.828-1.06 2.16-1.06.331 0 .561.113 2.114 1.033.861.51 1.705.998 1.876 1.083.628.314 1.139.451 1.688.45.381-.001.635-.058.954-.215.705-.347 1.088-1.11 1.088-2.165 0-.542-.057-.865-.461-2.606-.189-.814-.36-1.563-.379-1.664-.042-.217.031-.625.154-.862.045-.085.671-.741 1.407-1.474.73-.726 1.433-1.451 1.562-1.611.287-.356.486-.706.622-1.094.139-.398.146-.969.017-1.355-.276-.821-1.055-1.432-2.111-1.656-.397-.085-.496-.095-.651-.066" fill-rule="evenodd" fill="#000"/></svg>