<svg width="24" height="24" fill="none" xmlns="http://www.w3.org/2000/svg"><path d="M11.3 1.281c-4.963.298-9.085 4.036-9.901 8.979-.187 1.135-.041 1.44.688 1.44.505 0 .632-.153.734-.883a9.14 9.14 0 0 1 .875-2.877 8.749 8.749 0 0 1 1.761-2.473 9.226 9.226 0 0 1 5.395-2.646 11.151 11.151 0 0 1 2.296 0 9.278 9.278 0 0 1 6.555 4.062c.783 1.169 1.29 2.552 1.498 4.087.078.575.273.765.759.741.503-.025.72-.237.72-.706 0-.306-.092-.915-.221-1.468a10.767 10.767 0 0 0-7.909-7.973c-.66-.16-1.203-.24-1.926-.285-.655-.04-.624-.04-1.324.002M2.293 14.238c-.247.059-.479.229-.548.402-.085.211-.082.296.019.626.692 2.257 2.289 4.361 4.336 5.709a10.436 10.436 0 0 0 3.466 1.481c.654.147.874.09 1.055-.273.127-.256.137-.621.021-.811-.108-.176-.246-.238-.924-.415-1.652-.431-2.937-1.153-4.146-2.329-.835-.813-1.364-1.531-1.852-2.516a11.643 11.643 0 0 1-.443-1.035c-.094-.267-.209-.543-.255-.612-.15-.224-.405-.304-.729-.227m18.987.043c-.202.047-.366.26-.498.647a9.225 9.225 0 0 1-2.206 3.569c-1.307 1.3-2.697 2.08-4.493 2.521-.673.165-.82.294-.815.712.005.445.203.755.519.814.093.017.294-.005.569-.063 2.658-.565 5.11-2.267 6.652-4.62.481-.732.909-1.616 1.171-2.412.225-.687.095-.998-.482-1.148a2.123 2.123 0 0 0-.255-.057 7.433 7.433 0 0 0-.162.037" fill-rule="evenodd" fill="#000"/></svg>