<svg width="24" height="24" fill="none" xmlns="http://www.w3.org/2000/svg"><path d="M8.08 1.282c-4.072.213-6.185 2.014-6.697 5.709-.113.812-.141 1.825-.141 5.009 0 4.504.06 5.273.518 6.65.772 2.313 2.446 3.576 5.267 3.972.759.106 1.875.137 4.973.137s4.214-.031 4.973-.137c2.47-.347 4.023-1.334 4.924-3.132.482-.96.741-2.121.823-3.683.051-.969.051-6.645 0-7.614-.063-1.195-.199-2.002-.478-2.837-.61-1.825-1.773-2.989-3.592-3.596-.862-.287-1.627-.416-2.844-.48-.854-.045-6.854-.043-7.726.002m8.72 1.572c2.786.462 3.914 1.6 4.348 4.386.066.421.072.824.072 4.76s-.006 4.339-.072 4.76c-.436 2.798-1.59 3.952-4.388 4.388-.421.066-.824.072-4.76.072s-4.339-.006-4.76-.072c-2.79-.435-3.957-1.597-4.386-4.368-.069-.445-.074-.791-.074-4.78 0-4.753-.004-4.663.264-5.712C3.557 4.282 4.722 3.274 6.96 2.9c.73-.123 1.088-.131 5.24-.123 3.763.007 4.222.014 4.6.077m-1.427 2.265c-1.463.02-1.532.024-1.638.103-.226.169-.275.279-.275.611 0 .359.08.536.301.666.123.072.228.083.913.101l.775.02-.515.501c-2.17 2.112-4.741 3.589-7.741 4.448-.774.221-.918.297-1.018.538-.072.17-.069.31.009.575.083.279.271.464.506.498.214.031.829-.125 1.89-.478a19.64 19.64 0 0 0 7.303-4.412l.467-.45.018.59c.02.676.068.831.306.979.209.13.683.13.892 0 .29-.18.292-.193.314-2.009.011-.891.006-1.676-.01-1.745a.754.754 0 0 0-.768-.566c-.111.005-.889.018-1.729.03m1.348 6.149c-.201.104-.31.291-.34.583-.014.137-.02 1.671-.013 3.409.012 3.076.014 3.164.092 3.296.148.251.262.304.66.304s.512-.053.66-.304c.078-.133.08-.208.08-3.516s-.002-3.383-.08-3.516c-.139-.236-.268-.302-.613-.316-.235-.009-.339.005-.446.06m-5.12 2.08c-.201.104-.31.291-.341.583-.014.137-.02 1.203-.013 2.369.012 2.036.016 2.125.093 2.256.148.251.262.304.66.304s.512-.053.66-.304c.078-.132.08-.208.08-2.476s-.002-2.344-.08-2.476c-.139-.236-.268-.302-.613-.316-.235-.009-.339.005-.446.06m-4.934 2.01a.659.659 0 0 0-.447.326c-.076.128-.08.208-.08 1.436s.004 1.308.08 1.436c.148.251.262.304.66.304s.512-.053.66-.304c.074-.125.081-.222.094-1.216.015-1.251-.005-1.525-.127-1.706-.158-.235-.49-.344-.84-.276" fill-rule="evenodd" fill="#000"/></svg>