<svg width="24" height="24" fill="none" xmlns="http://www.w3.org/2000/svg"><path d="M7.787 1.278a.65.65 0 0 0-.443.321c-.061.103-.081.241-.1.675l-.024.545-.32.047c-.793.117-1.358.287-1.949.587-1.708.868-2.513 2.471-2.671 5.317-.051.909-.05 6.998 0 7.97.08 1.524.279 2.461.701 3.3.744 1.475 1.995 2.264 4.091 2.579.722.108 1.789.139 4.983.142 2.618.003 3.159-.006 3.248-.052.059-.031 1.518-1.467 3.243-3.192 2.487-2.487 3.143-3.165 3.174-3.276.052-.187.051-6.513-.001-7.45-.114-2.065-.524-3.358-1.388-4.378-.211-.249-.713-.651-1.082-.866-.52-.303-1.349-.569-2.113-.678l-.356-.05-.024-.545c-.025-.59-.069-.726-.281-.884-.226-.168-.724-.168-.95 0-.212.158-.257.297-.277.855l-.019.515H8.76l-.002-.39c-.003-.642-.078-.866-.342-1.016-.144-.081-.427-.115-.629-.076m7.461 3.477c.015.412.034.541.095.646.106.18.254.281.472.322.227.042.518-.007.66-.113.206-.154.255-.298.276-.815l.02-.478.185.026c.332.048.904.206 1.219.337.964.402 1.568 1.228 1.848 2.526.19.883.189.872.206 4.539l.015 3.485-1.432.02c-1.571.023-1.871.056-2.456.269a3.034 3.034 0 0 0-1.839 1.842c-.211.579-.244.883-.267 2.449l-.02 1.43h-3.031c-3.09 0-3.507-.016-4.282-.161a4.524 4.524 0 0 1-1.313-.425c-.315-.152-.432-.238-.723-.528a3.092 3.092 0 0 1-.493-.611c-.184-.334-.373-.895-.469-1.391-.152-.79-.166-1.336-.149-5.684.017-4.422.014-4.335.207-5.234.364-1.69 1.203-2.507 2.897-2.824.184-.034.339-.062.345-.062.005 0 .019.214.03.476.021.516.07.66.276.814.226.168.724.168.95 0 .212-.158.257-.297.277-.855l.019-.515h6.458l.019.515m-8.461 5.523c-.342.068-.519.314-.519.722 0 .462.207.693.663.739.137.014 2.067.02 4.289.013 3.957-.012 4.043-.014 4.176-.092.273-.161.396-.478.327-.845a.646.646 0 0 0-.327-.475c-.133-.079-.213-.08-4.296-.086-2.288-.003-4.229.008-4.313.024m0 4c-.342.068-.519.314-.519.722 0 .462.207.692.663.74.137.014 1.392.02 2.789.013 2.456-.013 2.544-.016 2.676-.093a.646.646 0 0 0 .327-.475c.069-.367-.054-.684-.327-.845-.132-.078-.214-.08-2.796-.086-1.463-.004-2.729.007-2.813.024M17.48 18.46l-1.7 1.7-.011-.818c-.012-.898.029-1.216.207-1.604.136-.297.425-.594.72-.739.391-.192.665-.232 1.624-.236l.86-.003-1.7 1.7" fill-rule="evenodd" fill="#000"/></svg>