<svg width="24" height="24" fill="none" xmlns="http://www.w3.org/2000/svg"><path d="M11.28 1.278c-1.907.13-3.673.724-5.225 1.758C4.433 4.116 3.207 5.499 2.364 7.2a10.468 10.468 0 0 0-1.068 3.562c-.051.421-.061.742-.044 1.478.027 1.132.126 1.822.395 2.76.91 3.164 3.296 5.785 6.373 7.001.713.282 1.611.52 2.402.636.849.125 2.265.126 2.912.002.491-.094 1.072-.368 1.526-.72.11-.086 1.733-1.691 3.606-3.567 3.662-3.668 3.646-3.651 3.945-4.364.219-.523.282-.974.283-2.008 0-2.547-.767-4.731-2.368-6.74-.939-1.179-2.234-2.209-3.661-2.91-1.611-.792-3.571-1.175-5.385-1.052m1.823 1.541a9.079 9.079 0 0 1 5.358 2.601c.767.76 1.246 1.403 1.715 2.303.652 1.249.982 2.52 1.035 3.987.012.336-.007.433-.068.334-.043-.069-.849-.396-1.283-.521a9.192 9.192 0 0 0-.82-.19c-.473-.08-1.528-.089-2.02-.018a6.799 6.799 0 0 0-5.162 3.825 6.791 6.791 0 0 0-.002 5.718l.179.382h-.376c-1.348 0-3.05-.48-4.319-1.219-1.208-.703-2.369-1.803-3.121-2.958-2.106-3.23-1.977-7.514.317-10.572.619-.826 1.565-1.715 2.404-2.26a9.543 9.543 0 0 1 3.84-1.41c.559-.073 1.741-.074 2.323-.002m5.937 10.042c.6.13 1.315.423 1.741.712l.138.093-.115.177c-.156.24-6.959 7.021-7.08 7.057-.126.038-.184-.037-.461-.6-.378-.768-.517-1.372-.518-2.26-.002-.921.136-1.53.533-2.342.757-1.551 2.163-2.589 3.902-2.881.415-.069 1.451-.045 1.86.044" fill-rule="evenodd" fill="#000"/></svg>