<svg width="24" height="24" fill="none" xmlns="http://www.w3.org/2000/svg"><path d="M8.417 2.28c-2.762.167-4.467 1.1-5.396 2.954-.336.671-.55 1.457-.691 2.536-.061.468-.069.959-.069 4.23 0 3.271.008 3.762.069 4.23.232 1.782.718 2.938 1.61 3.83.892.892 2.048 1.378 3.83 1.61.468.061.959.069 4.23.069 3.985 0 4.122-.006 5.17-.223 1.113-.23 2.085-.7 2.802-1.356.707-.646 1.295-1.784 1.544-2.99.217-1.048.223-1.185.223-5.17s-.006-4.122-.223-5.17c-.497-2.404-1.942-3.849-4.346-4.346-.992-.205-1.16-.213-4.81-.225-1.881-.006-3.655.004-3.943.021m8.043 1.59c.704.127 1.145.264 1.64.508.745.368 1.154.777 1.522 1.522.247.501.383.942.51 1.66.087.493.088.554.088 4.44s-.001 3.947-.088 4.44c-.127.718-.263 1.159-.51 1.66-.368.745-.777 1.154-1.522 1.522-.501.247-.942.383-1.66.51-.493.087-.554.088-4.44.088s-3.947-.001-4.44-.088c-.718-.127-1.159-.263-1.66-.51-.745-.368-1.154-.777-1.522-1.522-.247-.501-.383-.942-.51-1.66-.087-.493-.088-.554-.088-4.44s.001-3.947.088-4.44c.127-.718.263-1.159.51-1.66.368-.745.777-1.154 1.522-1.522.622-.307 1.305-.486 2.2-.577.176-.018 2.021-.029 4.1-.025 3.679.008 3.793.01 4.26.094" fill-rule="evenodd" fill="#000"/></svg>