<svg width="24" height="24" fill="none" xmlns="http://www.w3.org/2000/svg"><path d="M11.52 1.265c-2.341.116-4.483.921-6.298 2.37-1.539 1.227-2.816 3.073-3.441 4.973A10.203 10.203 0 0 0 1.24 12c0 1.231.16 2.237.541 3.392 1.187 3.608 4.227 6.32 7.983 7.124.959.205 2.426.276 3.396.164 4.275-.491 7.853-3.466 9.093-7.56.318-1.049.444-1.934.444-3.12 0-1.186-.126-2.071-.444-3.12-1.044-3.445-3.746-6.129-7.229-7.179-1.057-.318-2.426-.489-3.504-.436m1.562 1.552a9.27 9.27 0 0 1 7.578 6.001c.364.983.548 2.04.55 3.162a8.875 8.875 0 0 1-.449 2.901 9.267 9.267 0 0 1-7.833 6.321c-.633.068-1.891.03-2.488-.076-2.035-.362-3.743-1.274-5.161-2.754-3.409-3.558-3.412-9.184-.007-12.737 1.18-1.232 2.561-2.073 4.157-2.532.43-.124 1.234-.279 1.631-.315.434-.039 1.607-.023 2.022.029M10 7.06c-.033.007-.195.035-.36.062-1.193.194-2.018.865-2.373 1.931-.2.6-.207.702-.207 2.987 0 2.106.001 2.146.093 2.52.113.459.42 1.108.65 1.373.358.411.953.743 1.637.913.376.093.404.094 2.56.094 2.146 0 2.186-.001 2.546-.092.709-.179 1.118-.393 1.521-.793.236-.234.322-.358.486-.7.111-.23.242-.584.294-.795.092-.374.093-.412.093-2.56 0-2.146-.001-2.186-.092-2.546a5.73 5.73 0 0 0-.161-.54 2.725 2.725 0 0 0-1.691-1.632c-.61-.211-.637-.213-2.856-.225A88.969 88.969 0 0 0 10 7.06m4.298 1.557c.641.188.905.456 1.089 1.106.066.233.073.443.073 2.277s-.007 2.044-.073 2.277c-.184.65-.448.918-1.089 1.106-.352.104-3.782.135-4.344.039-.868-.147-1.225-.504-1.375-1.376-.055-.318-.062-.653-.048-2.24.014-1.629.025-1.896.086-2.104.212-.723.567-1.012 1.403-1.143.11-.018 1.064-.027 2.12-.022 1.694.008 1.948.018 2.158.08" fill-rule="evenodd" fill="#000"/></svg>