<svg width="24" height="24" fill="none" xmlns="http://www.w3.org/2000/svg"><path d="M11.28 1.64c-1.77.113-3.613.724-5.081 1.684-.963.63-1.119.789-1.119 1.141 0 .34.319.72.668.793.172.037.389-.063.835-.385A9.067 9.067 0 0 1 12 3.12c1.94 0 3.719.574 5.381 1.738.441.309.599.37.822.321.299-.065.674-.593.62-.874a.907.907 0 0 0-.1-.251c-.084-.138-.651-.555-1.238-.911-1.832-1.111-4.024-1.642-6.205-1.503m.4 3.747c-2.345.121-4.408 1.342-5.649 3.343-.47.759-.806 1.69-.954 2.65-.066.421-.066 1.507-.001 1.96.537 3.742 3.935 6.389 7.676 5.977 4.678-.514 7.518-5.386 5.664-9.717-.963-2.247-3.091-3.856-5.496-4.154a8.347 8.347 0 0 0-1.24-.059m1.44 1.593a5.64 5.64 0 0 1 2.749 1.495 5.448 5.448 0 0 1 1.606 4.341 5.486 5.486 0 0 1-2.735 4.318c-2.107 1.221-4.78.89-6.555-.811a5.447 5.447 0 0 1-1.66-3.509 5.39 5.39 0 0 1 .596-2.963c.816-1.564 2.234-2.597 3.999-2.914.407-.073 1.592-.048 2 .043M1.647 10.481c-.197.12-.274.339-.33.934-.065.693-.027 2.012.077 2.645.255 1.562.766 2.891 1.607 4.176a9.312 9.312 0 0 0 1.378 1.706c.847.849 1.684 1.462 2.697 1.973.999.504 1.292.578 1.568.395.2-.132.356-.465.356-.757 0-.216-.011-.244-.15-.383-.096-.096-.293-.213-.55-.325A8.852 8.852 0 0 1 5.459 18.9a8.947 8.947 0 0 1-1.996-2.98c-.595-1.445-.753-2.552-.663-4.646.018-.426.013-.477-.062-.58-.202-.279-.793-.394-1.091-.213m19.874.009c-.31.158-.344.243-.321.784.09 2.094-.067 3.196-.663 4.646a8.992 8.992 0 0 1-1.996 2.98 8.852 8.852 0 0 1-2.841 1.945c-.257.112-.454.229-.55.325-.139.139-.15.167-.15.383 0 .466.301.847.669.847.481 0 2.091-.867 3.091-1.664.45-.359 1.315-1.23 1.648-1.66 1.179-1.521 1.895-3.154 2.198-5.013.163-1.003.137-2.917-.046-3.332-.105-.238-.273-.331-.602-.331a.87.87 0 0 0-.437.09" fill-rule="evenodd" fill="#000"/></svg>