<svg width="24" height="24" fill="none" xmlns="http://www.w3.org/2000/svg"><path d="M8.08 1.282c-4.072.213-6.185 2.014-6.697 5.709-.113.812-.141 1.825-.141 5.009 0 4.504.06 5.273.518 6.65.772 2.313 2.446 3.576 5.267 3.972.759.106 1.875.137 4.973.137s4.214-.031 4.973-.137c2.47-.347 4.023-1.334 4.924-3.132.482-.96.741-2.121.823-3.683.051-.969.051-6.645 0-7.614-.063-1.195-.199-2.002-.478-2.837-.61-1.825-1.773-2.989-3.592-3.596-.862-.287-1.627-.416-2.844-.48-.854-.045-6.854-.043-7.726.002m8.72 1.572c2.485.412 3.641 1.374 4.16 3.458.208.838.247 1.206.269 2.578l.021 1.27h-6.17v-.098c0-.126-.186-.715-.29-.922-.382-.751-1.156-1.361-2.01-1.584-.426-.111-1.125-.12-1.52-.019a3.201 3.201 0 0 0-2.064 1.661c-.125.254-.276.741-.276.889 0 .07-.13.073-3.085.073H2.75l.021-1.27c.022-1.347.061-1.736.254-2.53.496-2.045 1.677-3.083 3.935-3.46.73-.123 1.088-.131 5.24-.123 3.763.007 4.222.014 4.6.077m-4.34 6.154c.58.146 1.088.734 1.159 1.341.077.664-.217 1.245-.827 1.636l-.272.174v1.231c0 1.092-.008 1.245-.07 1.367-.19.372-.652.401-.879.054-.063-.096-.072-.244-.083-1.381l-.012-1.273-.268-.172c-.327-.21-.545-.446-.675-.728-.298-.652-.185-1.328.305-1.82.437-.438.996-.586 1.622-.429M9.141 11.81c.12.278.481.804.677.984l.182.168v.871c0 .978.033 1.234.208 1.602.166.35.569.753.917.919a1.97 1.97 0 0 0 2.276-.391c.514-.52.597-.813.598-2.114l.001-.891.145-.128c.215-.189.508-.593.661-.91l.134-.28h6.306l-.016 2.37c-.019 2.582-.027 2.702-.27 3.678-.456 1.831-1.44 2.816-3.272 3.272-1.066.266-.943.26-5.688.26-3.936 0-4.339-.006-4.76-.072-2.785-.434-3.938-1.577-4.385-4.348-.057-.351-.071-.811-.085-2.79l-.016-2.37h6.314l.073.17" fill-rule="evenodd" fill="#000"/></svg>