<svg width="24" height="24" fill="none" xmlns="http://www.w3.org/2000/svg"><path d="M8.08 1.282c-4.072.213-6.185 2.014-6.697 5.709-.113.812-.141 1.825-.141 5.009 0 4.504.06 5.273.518 6.65.772 2.313 2.446 3.576 5.267 3.972.759.106 1.875.137 4.973.137s4.214-.031 4.973-.137c2.47-.347 4.023-1.334 4.924-3.132.482-.96.741-2.121.823-3.683.051-.969.051-6.645 0-7.614-.063-1.195-.199-2.002-.478-2.837-.61-1.825-1.773-2.989-3.592-3.596-.862-.287-1.627-.416-2.844-.48-.854-.045-6.854-.043-7.726.002m8.72 1.572c2.786.462 3.914 1.6 4.348 4.386.066.421.072.824.072 4.76s-.006 4.339-.072 4.76c-.436 2.798-1.59 3.952-4.388 4.388-.421.066-.824.072-4.76.072s-4.339-.006-4.76-.072c-2.79-.435-3.957-1.597-4.386-4.368-.069-.445-.074-.791-.074-4.78 0-4.753-.004-4.663.264-5.712C3.557 4.282 4.722 3.274 6.96 2.9c.73-.123 1.088-.131 5.24-.123 3.763.007 4.222.014 4.6.077M7.498 4.28c-1.502.128-2.53.846-2.981 2.082-.264.722-.257.576-.257 5.638 0 4.185.006 4.612.07 4.948.287 1.517 1.205 2.435 2.722 2.722.336.064.763.07 4.948.07 4.185 0 4.612-.006 4.948-.07 1.267-.239 2.135-.935 2.535-2.032.264-.722.257-.576.257-5.638 0-4.185-.006-4.612-.07-4.948-.239-1.266-.935-2.135-2.031-2.535-.704-.257-.539-.249-5.379-.259-2.42-.005-4.563.005-4.762.022m9.275 1.539c.779.165 1.244.628 1.407 1.401.041.197.059.538.059 1.148l.001.868-1.27.012c-1.24.012-1.273.014-1.416.103-.198.123-.286.323-.286.654 0 .298.074.468.265.611.108.081.163.084 1.41.096l1.297.011v2.511l-1.25.013c-1.165.012-1.259.018-1.386.093-.273.161-.396.478-.327.845a.646.646 0 0 0 .327.475c.127.075.221.081 1.386.093l1.25.013-.001.867c0 .602-.018.951-.058 1.14-.165.779-.628 1.244-1.401 1.407-.419.088-9.141.088-9.56 0-.773-.163-1.236-.628-1.401-1.407-.036-.171-.058-.508-.058-.903l-.001-.63h1.01c.555 0 1.127-.02 1.27-.043.654-.105 1.21-.4 1.724-.913.651-.652.955-1.379.955-2.284 0-.905-.304-1.632-.955-2.284-.514-.513-1.07-.808-1.724-.913-.143-.023-.715-.043-1.27-.043H5.76l.001-.63c0-.691.055-1.043.215-1.392.209-.456.659-.793 1.224-.915.393-.085 9.173-.088 9.573-.004M7.78 10.28c.354.058.689.239.955.518.503.528.631 1.279.329 1.943-.134.295-.503.674-.798.819-.342.168-.594.2-1.616.2h-.89v-3.52h.89c.49 0 .998.018 1.13.04m-.99.781c-.479.154-.707.729-.528 1.332.127.43.509.638 1.096.596.367-.027.551-.101.714-.286.151-.172.208-.363.208-.703 0-.143-.019-.328-.042-.411a.867.867 0 0 0-.434-.495c-.208-.09-.779-.108-1.014-.033" fill-rule="evenodd" fill="#000"/></svg>