<svg width="24" height="24" fill="none" xmlns="http://www.w3.org/2000/svg"><path d="M8.08 1.282c-4.072.213-6.185 2.014-6.697 5.709-.113.812-.141 1.825-.141 5.009 0 4.504.06 5.273.518 6.65.772 2.313 2.446 3.576 5.267 3.972.759.106 1.875.137 4.973.137s4.214-.031 4.973-.137c2.47-.347 4.023-1.334 4.924-3.132.482-.96.741-2.121.823-3.683.051-.969.051-6.645 0-7.614-.063-1.195-.199-2.002-.478-2.837-.61-1.825-1.773-2.989-3.592-3.596-.862-.287-1.627-.416-2.844-.48-.854-.045-6.854-.043-7.726.002m8.72 1.572c2.786.462 3.914 1.6 4.348 4.386.066.421.072.824.072 4.76s-.006 4.339-.072 4.76c-.436 2.798-1.59 3.952-4.388 4.388-.421.066-.824.072-4.76.072s-4.339-.006-4.76-.072c-2.79-.435-3.957-1.597-4.386-4.368-.069-.445-.074-.791-.074-4.78 0-4.753-.004-4.663.264-5.712C3.557 4.282 4.722 3.274 6.96 2.9c.73-.123 1.088-.131 5.24-.123 3.763.007 4.222.014 4.6.077M6.295 12.596c-.229.039-.369.142-.457.337-.168.37-.051.877.242 1.046.134.078.207.081 1.8.081 1.588 0 1.666-.003 1.796-.08.251-.148.304-.262.304-.66s-.053-.512-.304-.66c-.129-.076-.214-.08-1.676-.086-.847-.004-1.614.006-1.705.022m5.452.002c-.36.072-.517.313-.499.769.014.345.08.474.316.613.133.078.208.08 3.176.08 2.979 0 3.043-.002 3.18-.081.424-.245.424-1.073 0-1.318-.137-.079-.208-.081-3.08-.087-1.617-.004-3.009.007-3.093.024m-5.452 3.758c-.229.039-.369.142-.457.337-.168.37-.051.877.242 1.046.138.08.2.081 3.64.081 3.329 0 3.507-.004 3.649-.074.236-.118.331-.308.331-.666 0-.358-.095-.548-.331-.666-.141-.07-.323-.074-3.529-.08-1.859-.003-3.454.007-3.545.022m9.132.001c-.361.074-.517.314-.499.77.014.345.08.474.316.613.128.075.208.08 1.336.08 1.375 0 1.401-.005 1.57-.339.186-.367.073-.885-.23-1.06-.13-.075-.216-.081-1.24-.088-.605-.004-1.169.007-1.253.024" fill-rule="evenodd" fill="#000"/></svg>