<svg width="24" height="24" fill="none" xmlns="http://www.w3.org/2000/svg"><path d="M11.59 1.064c-.375.115-.59.471-.59.976 0 .516.215.862.607.978.421.125.89.043 1.132-.199.348-.349.348-1.209 0-1.558-.241-.241-.732-.325-1.149-.197M4.62 3.847c-.194.071-.472.293-.61.485-.283.394-.263.726.066 1.136.402.499.866.685 1.239.495.239-.123.474-.346.608-.581.221-.384.128-.738-.302-1.163-.361-.358-.701-.484-1.001-.372m14.271.002c-.195.063-.572.386-.748.641-.288.419-.227.823.184 1.216.407.389.776.435 1.185.147.292-.205.584-.566.65-.801a.57.57 0 0 0 .003-.365c-.118-.441-.657-.898-1.041-.883a1.105 1.105 0 0 0-.233.045m-7.851.972c-3.306.454-5.836 3.041-6.239 6.378-.14 1.157.029 1.528.696 1.532.558.004.713-.191.759-.953.037-.622.118-1.07.283-1.564C7.21 8.207 8.934 6.707 11 6.335c.505-.091 1.488-.093 1.985-.003a5.823 5.823 0 0 1 4.477 3.892c.163.496.247.965.283 1.57.045.742.198.934.752.937.539.004.743-.23.743-.851 0-1.212-.404-2.597-1.07-3.669-1.191-1.915-3.115-3.138-5.369-3.41a8.653 8.653 0 0 0-1.761.02m-9.45 6.243a.922.922 0 0 0-.328.197c-.344.344-.345 1.134-.001 1.478.349.348 1.209.348 1.558 0 .343-.344.343-1.134 0-1.478-.243-.243-.793-.331-1.229-.197m19.92 0c-.363.112-.59.472-.59.936 0 .637.377 1 1.04 1 .516 0 .862-.215.978-.607.125-.421.043-.89-.199-1.132-.243-.243-.793-.331-1.229-.197M3.787 14.278c-.341.067-.519.314-.519.722 0 .462.207.693.663.739.137.014 3.867.02 8.289.013 7.957-.012 8.041-.013 8.176-.092a.646.646 0 0 0 .327-.475c.069-.367-.054-.684-.327-.845-.135-.079-.213-.08-8.296-.086-4.488-.003-8.229.008-8.313.024m2 3c-.342.067-.519.314-.519.722 0 .462.207.693.663.739.137.014 2.967.02 6.289.013 5.957-.012 6.042-.013 6.176-.092a.646.646 0 0 0 .327-.475c.069-.367-.054-.684-.327-.845-.134-.079-.213-.08-6.296-.086-3.388-.003-6.229.008-6.313.024m3 3c-.342.068-.519.314-.519.722 0 .462.207.693.663.739.137.015 1.617.02 3.289.014 2.956-.013 3.044-.015 3.176-.093.273-.161.396-.478.327-.845a.646.646 0 0 0-.327-.475c-.133-.078-.214-.08-3.296-.086-1.738-.003-3.229.007-3.313.024" fill-rule="evenodd" fill="#000"/></svg>