<svg width="24" height="24" fill="none" xmlns="http://www.w3.org/2000/svg"><path d="M11.59 1.064c-.375.115-.59.471-.59.976 0 .516.215.862.607.978.421.125.89.043 1.132-.199.348-.349.348-1.209 0-1.558-.241-.241-.732-.325-1.149-.197M4.62 3.847c-.194.071-.472.293-.61.485-.283.394-.263.726.066 1.136.402.499.866.685 1.239.495.239-.123.474-.346.608-.581.221-.384.128-.738-.302-1.163-.361-.358-.701-.484-1.001-.372m14.271.002c-.195.063-.572.386-.748.641-.288.419-.227.823.184 1.216.407.389.776.435 1.185.147.292-.205.584-.566.65-.801a.57.57 0 0 0 .003-.365c-.118-.441-.657-.898-1.041-.883a1.105 1.105 0 0 0-.233.045m-7.851.972a7.212 7.212 0 0 0-4.157 2.062 7.226 7.226 0 0 0 0 10.234 7.226 7.226 0 0 0 10.234 0 7.226 7.226 0 0 0 0-10.234c-1.171-1.17-2.641-1.88-4.316-2.082a8.653 8.653 0 0 0-1.761.02m1.974 1.519a5.814 5.814 0 0 1 4.651 4.667c.092.504.092 1.482 0 1.986a5.846 5.846 0 0 1-1.609 3.063 5.846 5.846 0 0 1-3.063 1.609c-.504.092-1.482.092-1.986 0C8.64 17.232 6.76 15.354 6.335 13c-.093-.513-.093-1.487 0-2a5.819 5.819 0 0 1 5.045-4.719c.407-.046 1.196-.017 1.634.059M1.59 11.064a.922.922 0 0 0-.328.197c-.344.344-.345 1.134-.001 1.478.349.348 1.209.348 1.558 0 .343-.344.343-1.134 0-1.478-.243-.243-.793-.331-1.229-.197m19.92 0c-.363.112-.59.472-.59.936 0 .637.377 1 1.04 1 .516 0 .862-.215.978-.607.125-.421.043-.89-.199-1.132-.243-.243-.793-.331-1.229-.197M4.655 18.041c-.351.175-.721.586-.818.912-.097.325.102.748.485 1.029.256.188.494.246.73.18.235-.066.596-.358.801-.65.288-.409.245-.757-.144-1.18-.322-.349-.716-.457-1.054-.291m14.005.003c-.23.122-.491.385-.608.613-.206.403-.036.852.48 1.267.413.332.749.349 1.146.058.385-.283.579-.697.484-1.034-.067-.239-.366-.607-.654-.805-.289-.2-.592-.235-.848-.099m-7.07 2.94c-.375.115-.59.471-.59.976 0 .516.215.862.607.978.421.125.89.043 1.132-.199.348-.349.348-1.209 0-1.558-.241-.241-.732-.325-1.149-.197" fill-rule="evenodd" fill="#000"/></svg>