<svg width="24" height="24" fill="none" xmlns="http://www.w3.org/2000/svg"><path d="M9.787 2.278a.655.655 0 0 0-.443.32c-.105.18-.105.624 0 .804.177.303.359.354 1.266.356l.63.002V5.8c0 1.995-.002 2.04-.078 2.04-.136 0-.731.204-1.022.35a4.435 4.435 0 0 0-1.108.785 2.353 2.353 0 0 1-.293.265c-.028 0-3.422-1.953-3.47-1.997-.017-.016.123-.296.311-.623.362-.632.441-.834.399-1.026C5.918 5.318 5.48 5 5.159 5a.584.584 0 0 0-.492.25c-.106.142-1.96 3.34-2.125 3.665-.131.259-.135.504-.011.688.203.301.71.482.972.345.182-.094.268-.207.619-.808.179-.308.338-.572.352-.586.044-.045 3.507 1.982 3.5 2.048a5.307 5.307 0 0 1-.097.378c-.078.276-.09.415-.09 1.02s.012.744.09 1.02c.05.176.093.346.097.379.007.065-3.456 2.091-3.5 2.047a13.525 13.525 0 0 1-.352-.586c-.351-.601-.437-.714-.619-.808-.262-.137-.769.044-.972.345-.124.184-.12.429.011.688.165.325 2.019 3.523 2.125 3.665.125.167.288.25.492.25.321 0 .759-.318.82-.594.042-.192-.037-.394-.399-1.026-.188-.327-.328-.607-.311-.623.048-.044 3.442-1.997 3.47-1.997.014 0 .146.119.293.265.301.299.693.576 1.108.785.291.146.886.35 1.022.35.076 0 .078.045.078 2.036v2.035l-.75.015c-.662.013-.766.024-.886.094-.273.161-.396.478-.327.845a.646.646 0 0 0 .327.475c.132.077.208.08 2.396.08 2.188 0 2.264-.003 2.396-.08a.646.646 0 0 0 .327-.475c.069-.367-.054-.684-.327-.845-.12-.07-.224-.081-.886-.094l-.75-.015v-2.035c0-1.991.002-2.036.078-2.036.136 0 .731-.204 1.022-.35a4.435 4.435 0 0 0 1.108-.785c.147-.146.278-.265.292-.265.028 0 3.424 1.954 3.471 1.997.017.016-.122.294-.308.619s-.36.653-.385.73c-.098.297.077.609.447.797.335.169.649.113.848-.153.1-.133 1.989-3.395 2.142-3.698.114-.225.111-.481-.006-.655-.203-.301-.71-.482-.972-.345-.182.094-.268.207-.619.808-.179.308-.338.572-.352.586-.044.045-3.507-1.982-3.5-2.048.004-.032.047-.202.097-.378.078-.276.09-.415.09-1.02s-.012-.744-.09-1.02a5.307 5.307 0 0 1-.097-.378c-.007-.066 3.456-2.093 3.5-2.048.014.014.173.278.352.586.351.601.437.714.619.808.262.137.769-.044.972-.345.117-.174.12-.43.006-.655-.153-.303-2.042-3.565-2.142-3.698a.584.584 0 0 0-.491-.25c-.339 0-.769.321-.824.615-.037.197.02.339.405 1.009.186.325.325.603.308.618-.049.044-3.443 1.998-3.471 1.998-.014 0-.145-.119-.292-.265a4.435 4.435 0 0 0-1.108-.785c-.291-.146-.886-.35-1.022-.35-.076 0-.078-.045-.078-2.036V3.769l.75-.015c.662-.013.766-.024.886-.094.273-.161.396-.478.327-.845a.646.646 0 0 0-.327-.475c-.131-.077-.214-.08-2.296-.086-1.188-.004-2.229.007-2.313.024M12.7 9.34c.734.187 1.416.748 1.757 1.447.398.815.393 1.617-.014 2.438a2.723 2.723 0 0 1-3.848 1.135 2.822 2.822 0 0 1-1.298-1.874 2.341 2.341 0 0 1 0-.972c.06-.334.205-.697.41-1.023.27-.431.851-.898 1.333-1.073a3.003 3.003 0 0 1 1.66-.078" fill-rule="evenodd" fill="#000"/></svg>