<svg width="24" height="24" fill="none" xmlns="http://www.w3.org/2000/svg"><path d="M3.615 2.42a2.943 2.943 0 0 0-1.475.8c-.873.873-1.128 2.181-.641 3.282.053.119.737 1.242 1.52 2.496.784 1.254 1.459 2.359 1.502 2.454.106.24.137.567.081.839-.04.193-.272.588-1.491 2.539-.794 1.27-1.503 2.436-1.576 2.59-.206.435-.27.735-.268 1.26.003.762.212 1.338.694 1.914.29.346.537.534.988.752.646.312.291.297 6.591.285 6.314-.013 5.733.017 6.44-.334.704-.351.615-.247 3.531-4.118 1.458-1.935 2.732-3.654 2.831-3.819a2.844 2.844 0 0 0 .379-1.817c-.049-.413-.127-.684-.273-.943-.336-.601-4.365-6.99-4.52-7.168-.267-.31-.568-.53-1.028-.755-.695-.339-.214-.317-7.013-.314-4.866.003-6.074.014-6.272.057m12.634 1.591c.168.083.383.228.478.322.174.173 4.327 6.774 4.452 7.076.081.197.08.721-.003.964-.044.131-.85 1.234-2.684 3.677-1.442 1.919-2.678 3.55-2.747 3.623-.069.073-.277.208-.462.3l-.337.167H3.86l-.264-.129a1.525 1.525 0 0 1-.723-.753 1.47 1.47 0 0 1-.043-1.083c.043-.113.72-1.232 1.505-2.487.784-1.254 1.48-2.396 1.546-2.538.303-.646.313-1.557.027-2.267-.051-.124-.732-1.251-1.515-2.504a139.423 139.423 0 0 1-1.507-2.445c-.4-.795.112-1.841 1.005-2.055.071-.017 2.812-.029 6.091-.025l5.962.006.305.151" fill-rule="evenodd" fill="#000"/></svg>