<svg width="24" height="24" fill="none" xmlns="http://www.w3.org/2000/svg"><path d="M9.84 3.026c-1.259.12-2.256.528-3.257 1.331-.236.19-3.443 3.662-4.2 4.548-1.426 1.669-1.505 4.194-.185 5.951.367.489 4.059 4.52 4.373 4.775.612.497 1.22.835 1.923 1.069.845.281.721.274 4.826.291 3.873.016 4.353.001 5.003-.154 2.16-.516 3.854-2.258 4.297-4.417.119-.578.138-1.202.138-4.42s-.019-3.842-.138-4.42c-.5-2.442-2.555-4.287-5.054-4.538-.374-.038-7.347-.052-7.726-.016m7.504 1.494a4.276 4.276 0 0 1 3.787 3.216l.089.324v7.88l-.089.324c-.196.708-.467 1.229-.911 1.749a4.42 4.42 0 0 1-2.079 1.328c-.599.169-1.085.186-4.881.169-3.179-.015-3.549-.023-3.819-.087a4.24 4.24 0 0 1-1.021-.36c-.684-.323-.864-.493-2.971-2.81-1.066-1.172-2.009-2.226-2.096-2.342-.803-1.072-.804-2.75-.002-3.82.087-.115 1.019-1.158 2.073-2.318 2.22-2.443 2.359-2.57 3.211-2.934a4.042 4.042 0 0 1 1.262-.319c.507-.045 6.945-.044 7.447 0M10.69 8.877c-.363.263-.501.628-.349.926.038.076.53.6 1.092 1.167L12.457 12l-1.024 1.03c-.562.567-1.054 1.091-1.092 1.167-.152.298-.014.663.349.926a.518.518 0 0 0 .367.117.624.624 0 0 0 .304-.065c.054-.036.562-.527 1.129-1.09l1.029-1.024 1.031 1.025c.566.564 1.088 1.054 1.158 1.09.07.035.207.064.303.064.307 0 .659-.307.767-.668a.636.636 0 0 0-.02-.26c-.039-.149-.189-.316-1.11-1.242L14.583 12l1.065-1.07c1.269-1.276 1.276-1.289 1.009-1.756-.132-.229-.42-.414-.646-.414a.813.813 0 0 0-.303.064c-.07.036-.592.526-1.158 1.09l-1.031 1.025-1.029-1.024c-.567-.563-1.075-1.054-1.129-1.09a.624.624 0 0 0-.304-.065.518.518 0 0 0-.367.117" fill-rule="evenodd" fill="#000"/></svg>