<svg width="24" height="24" fill="none" xmlns="http://www.w3.org/2000/svg"><path d="M5.611 1.281a3.397 3.397 0 0 0-1.051.267 3.71 3.71 0 0 0-2.279 3.079c-.054.574-.054 11.092 0 11.608.053.506.133.797.335 1.225a3.703 3.703 0 0 0 2.643 2.064c.265.055.537.075 1.021.076.727.002 1.069.054 1.431.22.314.144.463.273 1.569 1.362.954.939 1.16 1.116 1.507 1.292.694.352 1.825.334 2.49-.04.356-.199.484-.313 1.583-1.393.879-.865 1.083-1.046 1.32-1.168.154-.08.352-.167.44-.193.088-.027.574-.062 1.08-.079 1.047-.036 1.324-.089 1.897-.363 1.228-.587 1.994-1.685 2.125-3.047.029-.306.039-2.261.03-6.091l-.014-5.64-.104-.38a3.583 3.583 0 0 0-.531-1.177c-.515-.772-1.348-1.34-2.303-1.568-.281-.067-.702-.072-6.6-.078-3.465-.004-6.43.007-6.589.024M18.572 2.82c.351.091.679.275.963.541.323.303.487.555.609.941l.096.301v5.803c0 6.435.016 6.039-.264 6.543-.175.315-.584.722-.885.881-.45.237-.557.257-1.571.291-.774.026-.992.047-1.235.117-.889.257-1.199.475-2.519 1.777-.975.961-1.088 1.06-1.306 1.142-.313.118-.749.103-1.02-.036-.113-.058-.558-.465-1.2-1.098-1.086-1.07-1.348-1.285-1.883-1.541-.567-.271-.85-.325-1.897-.363-.506-.018-.992-.054-1.08-.08-.725-.213-1.374-.871-1.559-1.581-.089-.342-.092-11.718-.003-12.053.195-.732.85-1.383 1.593-1.583.323-.087 12.827-.089 13.161-.002M11.38 4.366c-.11.021-.362.116-.56.212a2.66 2.66 0 0 0-1.5 2.104c-.148 1.299.61 2.471 1.88 2.903.175.06.338.075.8.075.645 0 .796-.034 1.3-.294.347-.18.819-.64 1.032-1.006.258-.445.328-.737.326-1.36-.001-.484-.013-.573-.112-.86-.295-.85-1.013-1.527-1.846-1.74-.339-.087-.952-.102-1.32-.034m1.033 1.515c.258.097.543.363.673.63.125.259.129.71.008.974a1.294 1.294 0 0 1-.561.596c-.16.082-.25.099-.533.099-.413 0-.638-.097-.901-.39a1.19 1.19 0 0 1-.031-1.549c.35-.408.855-.544 1.345-.36m-1.433 4.661c-1.482.219-2.759 1.011-3.224 1.998a2.174 2.174 0 0 0-.225 1.16c.036.692.304 1.229.878 1.76.861.796 2.107 1.22 3.591 1.22 1.551 0 2.797-.443 3.658-1.3.42-.417.599-.7.729-1.148.449-1.551-.693-3.021-2.771-3.565a6.882 6.882 0 0 0-.735-.145c-.456-.056-1.458-.046-1.901.02m2.06 1.514c.53.122 1.049.346 1.404.607.499.366.671.858.458 1.307-.222.468-1.027.949-1.903 1.137-.474.101-1.524.101-1.998 0-.875-.188-1.671-.663-1.907-1.138-.1-.2-.098-.618.003-.808.252-.472 1.134-.975 1.963-1.118l.34-.06c.21-.037 1.389.016 1.64.073" fill-rule="evenodd" fill="#000"/></svg>