<svg width="24" height="24" fill="none" xmlns="http://www.w3.org/2000/svg"><path d="M9.3 2.382c-1.734.085-2.804.154-3.031.196a4.64 4.64 0 0 0-3.544 3.097c-.172.522-.206.875-.326 3.305-.136 2.763-.147 3.562-.056 4.103.132.786.514 1.682 1.002 2.349.266.364 4.99 5.121 5.475 5.514a5.514 5.514 0 0 0 6.06.606c.759-.402.925-.55 3.504-3.129 2.763-2.762 2.973-3.006 3.366-3.923.333-.775.43-1.277.43-2.22 0-1.013-.118-1.541-.54-2.42-.38-.791-.491-.916-3.237-3.663-1.492-1.492-2.675-2.642-2.863-2.783-.918-.69-1.808-1.032-2.948-1.133a8.593 8.593 0 0 0-.532-.036l-2.76.137m3.88 1.493c.386.104.886.337 1.273.595.375.249 5.345 5.198 5.564 5.54.968 1.511.931 3.277-.1 4.698-.092.128-1.259 1.323-2.592 2.656-2.012 2.01-2.483 2.461-2.765 2.645-1.41.92-3.093.919-4.52-.001-.24-.155-5.074-4.944-5.398-5.348a3.982 3.982 0 0 1-.881-2.52c-.001-.242.053-1.565.12-2.94.129-2.669.151-2.868.377-3.379.267-.604.851-1.197 1.479-1.502.598-.29.75-.31 3.363-.44 2.68-.133 3.598-.134 4.08-.004M9.193 6.518c-.991.182-1.845.8-2.326 1.682a3.807 3.807 0 0 0-.25.62c-.093.314-.107.429-.107.9 0 .418.019.609.083.846.311 1.16 1.294 2.093 2.455 2.331.39.08.989.081 1.368.003 1.217-.252 2.229-1.252 2.487-2.46.074-.344.072-1.111-.004-1.44-.262-1.146-1.19-2.112-2.32-2.417-.279-.076-1.116-.115-1.386-.065m1.067 1.543c.252.07.519.239.736.464.961.999.412 2.673-.957 2.918a1.755 1.755 0 0 1-1.888-.99c-.105-.224-.13-.334-.144-.623-.027-.566.117-.953.499-1.334.468-.469 1.085-.621 1.754-.435m6.72 4.441c-.181.093-4.371 4.29-4.467 4.475-.106.204-.081.4.084.639.234.34.628.475.935.319.135-.068 3.898-3.791 4.23-4.185.324-.383.338-.652.054-.984-.255-.298-.574-.398-.836-.264" fill-rule="evenodd" fill="#000"/></svg>