<svg width="24" height="24" fill="none" xmlns="http://www.w3.org/2000/svg"><path d="M8.92 2.161c-1.243.062-2.424.131-2.624.155-1.975.234-3.578 1.744-3.954 3.727-.087.459-.315 5.183-.291 6.037.021.722.095 1.141.307 1.722.152.415.472 1.017.733 1.378.303.418 5.195 5.315 5.669 5.674 1.032.782 2.21 1.147 3.525 1.094.856-.035 1.564-.216 2.291-.586.755-.384.888-.503 3.608-3.22 2.297-2.295 2.592-2.604 2.829-2.964a5.638 5.638 0 0 0 .893-2.238c.079-.454.054-1.569-.046-2.02-.216-.979-.667-1.84-1.374-2.625-.63-.7-4.967-4.947-5.315-5.205-.411-.304-1.199-.696-1.67-.83-.899-.257-1.234-.264-4.581-.099m3.973 1.476c.171.045.456.144.632.22.66.287.813.421 3.482 3.073 1.379 1.369 2.591 2.607 2.694 2.75.304.422.528.904.686 1.48.055.203.07.405.069.92-.003.738-.056 1.011-.311 1.601-.285.657-.365.747-3.021 3.404-1.543 1.543-2.596 2.566-2.744 2.664a4.36 4.36 0 0 1-1.778.693c-.665.097-1.543-.032-2.181-.321-.641-.29-.783-.417-3.505-3.148-2.76-2.77-2.782-2.794-3.075-3.485a3.813 3.813 0 0 1-.306-1.348c-.03-.579.21-5.545.286-5.903a3.12 3.12 0 0 1 2.023-2.299c.42-.143.736-.171 3.296-.299 2.554-.127 3.275-.128 3.753-.002M9.14 6.282c-.412.045-.637.105-.963.255-.925.428-1.64 1.292-1.839 2.223-.083.387-.083 1.092-.001 1.473.249 1.154 1.276 2.181 2.43 2.43.379.082 1.087.082 1.466 0 1.154-.249 2.181-1.276 2.43-2.43.082-.379.082-1.087 0-1.466-.16-.741-.689-1.508-1.356-1.963-.6-.41-1.411-.606-2.167-.522m1.107 1.648c.371.183.668.485.845.86.12.253.128.298.128.71s-.008.457-.128.71a1.828 1.828 0 0 1-.847.861c-.293.145-.313.149-.745.149s-.452-.004-.745-.149a1.828 1.828 0 0 1-.847-.861c-.12-.253-.128-.298-.128-.71s.008-.457.127-.709a1.843 1.843 0 0 1 1.072-.961c.153-.055.293-.069.585-.06.35.011.412.026.683.16" fill-rule="evenodd" fill="#000"/></svg>