<svg width="24" height="24" fill="none" xmlns="http://www.w3.org/2000/svg"><path d="M6.72 2.788c-.077.037-.72.642-1.428 1.345L4.004 5.412l-.3-.281c-.439-.41-.664-.491-.966-.347-.19.09-.444.379-.501.571-.09.298.009.458.72 1.168.363.364.688.653.779.695.236.108.458.067.714-.131.115-.089.887-.843 1.714-1.674 1.663-1.673 1.7-1.721 1.599-2.058-.057-.192-.311-.481-.501-.571a.621.621 0 0 0-.542.004m3.879 2.062c-.25.127-.332.288-.332.65 0 .362.082.523.332.65l.178.09h10.446l.178-.09c.25-.127.328-.281.328-.65s-.078-.523-.328-.65l-.178-.09H10.777l-.178.09M6.72 9.788c-.077.037-.72.642-1.428 1.345l-1.288 1.279-.3-.281c-.439-.41-.664-.491-.966-.347-.19.09-.444.379-.501.571-.09.298.009.458.72 1.168.363.364.688.653.779.695.236.108.458.067.714-.131.115-.089.887-.843 1.714-1.674 1.663-1.673 1.7-1.721 1.599-2.058-.057-.192-.311-.481-.501-.571a.621.621 0 0 0-.542.004m3.879 2.062c-.25.127-.332.288-.332.65 0 .362.082.523.332.65l.178.09h10.446l.178-.09c.25-.127.328-.281.328-.65s-.078-.523-.328-.65l-.178-.09H10.777l-.178.09M6.72 16.788c-.077.037-.72.642-1.428 1.345l-1.288 1.279-.3-.281c-.439-.41-.664-.491-.966-.347-.19.09-.444.379-.501.571-.09.298.009.458.72 1.168.363.364.688.653.779.695.236.108.458.067.714-.131.115-.089.887-.843 1.714-1.674 1.663-1.673 1.7-1.721 1.599-2.058-.057-.192-.311-.481-.501-.571a.621.621 0 0 0-.542.004m3.879 2.062c-.25.127-.332.288-.332.65 0 .362.082.523.332.65l.178.09h10.446l.178-.09c.25-.127.328-.281.328-.65s-.078-.523-.328-.65l-.178-.09H10.777l-.178.09" fill-rule="evenodd" fill="#000"/></svg>