<svg width="24" height="24" fill="none" xmlns="http://www.w3.org/2000/svg"><path d="M11.66 1.264c-.672.063-1.237.216-1.68.453-.315.168-6.17 3.981-6.591 4.292-1.706 1.259-2.049 3.76-.752 5.488.318.424.644.697 1.513 1.271l.73.482.001 2.425c.001 1.86.014 2.495.056 2.725.214 1.188 1.087 2.368 2.147 2.902.3.151 3.649 1.271 4.064 1.359.361.076 1.344.076 1.705 0 .413-.088 3.768-1.21 4.066-1.361 1.054-.531 1.93-1.717 2.144-2.9.042-.23.055-.864.056-2.721l.001-2.422.757-.5.758-.5.012 1.502c.012 1.417.017 1.509.093 1.637.161.273.478.396.845.327a.646.646 0 0 0 .475-.327c.078-.133.08-.208.08-3.496 0-3.33-.001-3.363-.088-3.688-.246-.923-.752-1.696-1.441-2.202-.294-.216-6.193-4.088-6.496-4.265-.271-.157-.777-.332-1.16-.401-.353-.064-1.025-.105-1.295-.08m.988 1.539c.378.077.731.234 1.176.523 2.859 1.859 5.905 3.885 6.076 4.041.284.26.49.579.627.971.097.28.112.382.112.785.001.505-.05.742-.24 1.119-.158.313-.396.6-.667.806-.421.321-6.187 4.083-6.432 4.197-.413.193-.708.251-1.28.251-.572 0-.867-.058-1.28-.251-.132-.061-1.642-1.027-3.355-2.146-3.465-2.262-3.496-2.286-3.784-2.87a2.363 2.363 0 0 1-.125-1.897c.138-.4.346-.714.659-.995.291-.261 6.201-4.128 6.605-4.322.154-.074.397-.159.54-.19.315-.069 1.077-.081 1.368-.022M8.111 15.355c.94.613 1.802 1.162 1.917 1.219 1.122.566 2.863.566 3.984 0 .115-.057.928-.576 1.808-1.152l1.712-1.121.113-.073-.014 1.956c-.016 2.172-.011 2.126-.299 2.656-.252.465-.684.917-1.058 1.109-.096.049-.966.355-1.934.68l-1.76.591h-1.16l-1.76-.591c-.968-.325-1.838-.631-1.934-.68-.401-.205-.861-.705-1.105-1.2-.247-.501-.26-.635-.26-2.679-.001-1.007.008-1.83.02-1.83.011 0 .79.502 1.73 1.115" fill-rule="evenodd" fill="#000"/></svg>