<svg width="24" height="24" fill="none" xmlns="http://www.w3.org/2000/svg"><path d="M6.363 1.804A2.75 2.75 0 0 0 4.419 3.3a3.207 3.207 0 0 0-.226.62c-.078.383-.078 15.777 0 16.16.179.889.932 1.728 1.818 2.029l.329.111 4.16.012c4.339.013 4.585.006 5.217-.158 1.387-.36 2.475-1.142 3.272-2.35a5.483 5.483 0 0 0 .796-2.006c.102-.562.092-1.495-.021-2.033-.418-1.982-1.78-3.52-3.674-4.147l-.45-.149.27-.285c.834-.878 1.325-1.853 1.511-3.003.069-.425.077-1.227.016-1.633a5.506 5.506 0 0 0-4.646-4.649c-.318-.048-.932-.058-3.321-.055-1.611.003-3.01.02-3.107.04m6.602 1.564c1.355.37 2.385 1.323 2.827 2.614a4.003 4.003 0 0 1-.436 3.432c-.57.868-1.299 1.396-2.376 1.718-.274.082-.361.085-3.81.098l-3.53.013V4.22l.114-.24c.166-.351.477-.611.835-.697C6.675 3.262 8 3.25 9.66 3.254l2.92.008.385.106m2.435 9.506c1.68.516 2.792 1.828 2.955 3.486a3.998 3.998 0 0 1-3.399 4.343c-.334.05-1.026.057-4.386.048-3.98-.011-3.99-.011-4.175-.096a1.361 1.361 0 0 1-.634-.625l-.121-.243v-7.029l4.73.012 4.73.011.3.093" fill-rule="evenodd" fill="#000"/></svg>