<svg width="24" height="24" fill="none" xmlns="http://www.w3.org/2000/svg"><path d="M2.599 3.85c-.25.127-.332.288-.332.65 0 .362.082.523.332.65l.178.09h18.446l.178-.09c.25-.127.328-.281.328-.65s-.078-.523-.328-.65l-.178-.09H2.777l-.178.09m0 5c-.25.127-.332.288-.332.65 0 .362.082.523.332.65l.178.09h18.446l.178-.09c.25-.127.328-.281.328-.65s-.078-.523-.328-.65l-.178-.09H2.777l-.178.09m0 5c-.25.127-.332.288-.332.65 0 .362.082.523.332.65l.178.09h18.446l.178-.09c.25-.127.328-.281.328-.65s-.078-.523-.328-.65l-.178-.09H2.777l-.178.09m0 5c-.25.127-.332.288-.332.65 0 .362.082.523.332.65l.178.09h18.446l.178-.09c.25-.127.328-.281.328-.65s-.078-.523-.328-.65l-.178-.09H2.777l-.178.09" fill-rule="evenodd" fill="#000"/></svg>