<svg width="24" height="24" fill="none" xmlns="http://www.w3.org/2000/svg"><path d="M4.38 2.561a2.686 2.686 0 0 0-1.64.817c-.329.334-.54.678-.69 1.122l-.108.32-.001 1.32c-.001 1.257.003 1.327.08 1.459.13.221.307.301.666.301.332 0 .442-.049.611-.275.077-.105.083-.178.103-1.338l.02-1.227.112-.24c.142-.306.438-.589.731-.698.214-.08.29-.082 3.598-.082h3.378v15.915l-1.73.013c-1.652.011-1.736.016-1.87.093a.67.67 0 0 0-.23.258c-.186.367-.073.885.23 1.06.138.08.197.081 4.36.081s4.222-.001 4.36-.081c.424-.245.424-1.073 0-1.318-.134-.077-.218-.082-1.87-.093l-1.73-.013V4.04h3.38c3.219 0 3.389.004 3.578.076.246.093.473.269.619.48.223.321.236.407.26 1.711.022 1.138.028 1.214.105 1.318.169.226.279.275.611.275.359 0 .536-.08.666-.301.077-.132.081-.202.08-1.459l-.001-1.32-.108-.32a2.918 2.918 0 0 0-1.885-1.857l-.325-.103-7.54-.005c-4.147-.003-7.666.009-7.82.026" fill-rule="evenodd" fill="#000"/></svg>