<svg width="24" height="24" fill="none" xmlns="http://www.w3.org/2000/svg"><path d="M9.415 2.277c-.229.038-.369.141-.457.336-.168.37-.051.877.242 1.046.134.078.217.081 2.11.093 1.083.007 1.969.025 1.969.04-.001.016-.924 3.718-2.053 8.228l-2.051 8.2-2.157.02c-2.067.019-2.164.023-2.294.1a.646.646 0 0 0-.327.475c-.069.367.054.684.327.845.134.079.208.08 5.016.08 4.674 0 4.886-.003 5.029-.074.236-.118.331-.308.331-.666 0-.358-.095-.548-.331-.666-.138-.068-.294-.075-2.099-.086-1.072-.007-1.949-.025-1.949-.04.001-.015.924-3.718 2.053-8.228l2.051-8.2 2.157-.02c2.067-.019 2.164-.023 2.294-.1.251-.148.304-.262.304-.66s-.053-.512-.304-.66c-.134-.079-.213-.08-4.916-.085-2.629-.003-4.854.006-4.945.022" fill-rule="evenodd" fill="#000"/></svg>