<svg width="24" height="24" fill="none" xmlns="http://www.w3.org/2000/svg"><path d="M2.599 3.85c-.25.127-.332.288-.332.65 0 .362.082.523.332.65l.178.09h18.446l.178-.09c.25-.127.328-.281.328-.65s-.078-.523-.328-.65l-.178-.09H2.777l-.178.09m8.533 4.988c-.229.104-.332.31-.332.662 0 .352.103.558.332.662.162.074.339.076 5.13.077l4.961.001.178-.09c.25-.127.328-.281.328-.65s-.078-.523-.328-.65l-.178-.09-4.961.001c-4.791.001-4.968.003-5.13.077M2.599 13.85c-.25.127-.332.288-.332.65 0 .362.082.523.332.65l.178.09h18.446l.178-.09c.25-.127.328-.281.328-.65s-.078-.523-.328-.65l-.178-.09H2.777l-.178.09m8.533 4.988c-.229.104-.332.31-.332.662 0 .352.103.558.332.662.162.074.339.076 5.13.077l4.961.001.178-.09c.25-.127.328-.281.328-.65s-.078-.523-.328-.65l-.178-.09-4.961.001c-4.791.001-4.968.003-5.13.077" fill-rule="evenodd" fill="#000"/></svg>