<svg width="24" height="24" fill="none" xmlns="http://www.w3.org/2000/svg"><path d="M2.599 3.85c-.25.127-.332.288-.332.65 0 .362.082.523.332.65l.178.09h18.446l.178-.09c.25-.127.328-.281.328-.65s-.078-.523-.328-.65l-.178-.09H2.777l-.178.09m4.337 4.953c-.288.084-.442.39-.405.804.024.267.112.433.284.538.121.072.298.075 5.185.075s5.064-.003 5.185-.075c.209-.127.275-.282.275-.645 0-.363-.066-.518-.275-.645-.121-.072-.303-.075-5.125-.082-2.902-.004-5.052.009-5.124.03M2.599 13.85c-.25.127-.332.288-.332.65 0 .362.082.523.332.65l.178.09h18.446l.178-.09c.25-.127.328-.281.328-.65s-.078-.523-.328-.65l-.178-.09H2.777l-.178.09m4.337 4.953c-.288.084-.442.39-.405.804.024.267.112.433.284.538.121.072.298.075 5.185.075s5.064-.003 5.185-.075c.209-.127.275-.282.275-.645 0-.363-.066-.518-.275-.645-.121-.072-.303-.075-5.125-.082-2.902-.004-5.052.009-5.124.03" fill-rule="evenodd" fill="#000"/></svg>