<svg width="24" height="24" fill="none" xmlns="http://www.w3.org/2000/svg"><path d="M4.787 2.278a.659.659 0 0 0-.447.326c-.078.133-.08.219-.092 3.696-.012 3.736.009 4.447.154 5.201.176.912.63 2.018 1.139 2.776a7.714 7.714 0 0 0 3.039 2.665c3.487 1.722 7.695.587 9.879-2.665.503-.748.929-1.776 1.123-2.709.161-.774.184-1.473.17-5.288-.012-3.456-.014-3.543-.092-3.676a.646.646 0 0 0-.475-.327c-.367-.069-.684.054-.845.327-.078.133-.081.23-.104 4.196-.015 2.605-.039 4.132-.066 4.26-.293 1.386-.818 2.396-1.721 3.314a5.843 5.843 0 0 1-1.645 1.204 5.984 5.984 0 0 1-2.804.661 6.107 6.107 0 0 1-4.449-1.865A6.14 6.14 0 0 1 5.817 10.9c-.044-.286-.056-1.136-.058-4.14-.001-2.079-.018-3.858-.036-3.954-.079-.408-.458-.621-.936-.528m0 18c-.342.067-.519.314-.519.722 0 .462.207.693.663.739.137.014 3.417.02 7.289.013 6.957-.012 7.042-.013 7.176-.092a.646.646 0 0 0 .327-.475c.069-.367-.054-.684-.327-.845-.135-.079-.213-.08-7.296-.086-3.938-.003-7.229.008-7.313.024" fill-rule="evenodd" fill="#000"/></svg>