<svg width="24" height="24" fill="none" xmlns="http://www.w3.org/2000/svg"><path d="M12.74 1.28c-.758.09-1.435.427-2.311 1.149-.203.167-1.107 1.037-2.009 1.932L6.78 5.99l-.56.024c-2.28.097-3.575.869-4.092 2.437-.248.75-.322 1.295-.355 2.598-.035 1.405-.002 1.473.779 1.575.519.068.771.181 1.067.477.367.367.529.843.46 1.347a1.549 1.549 0 0 1-.451.885c-.29.298-.56.421-1.067.487-.467.061-.612.136-.727.373-.081.167-.084.215-.063 1.181.037 1.757.25 2.713.779 3.491.61.898 1.564 1.363 3.17 1.543.667.075 11.653.075 12.32 0 1.871-.21 2.898-.823 3.459-2.063.334-.739.533-2.024.495-3.202-.012-.388-.027-.475-.098-.57-.14-.187-.304-.256-.697-.293-.456-.043-.777-.186-1.062-.472a1.569 1.569 0 0 1-.034-2.207c.27-.289.593-.437 1.084-.496.434-.053.6-.126.718-.32.069-.115.075-.217.072-1.325-.003-1.716-.133-2.593-.498-3.372-.641-1.367-1.832-1.99-3.959-2.071-.821-.031-.776-.014-.744-.286.034-.29.129-.498.352-.771.098-.121.201-.261.228-.312.074-.14.063-.375-.028-.551-.149-.289-1.635-1.689-2.225-2.095-.814-.56-1.629-.809-2.363-.722m1.021 1.67c.423.207.892.561 1.452 1.096l.433.414-.101.205a2.932 2.932 0 0 0-.255 1.005l-.022.29H8.941l.959-.962c1.841-1.845 2.434-2.258 3.201-2.227.281.012.364.035.66.179M9.12 9.618c0 1.347.016 2.211.042 2.335.059.272.22.429.5.488.294.061.608-.003.747-.153.218-.233.21-.142.223-2.56l.012-2.252 3.668.016c3.876.017 3.901.018 4.553.208 1.184.344 1.589 1.174 1.624 3.334l.011.654-.22.069c-.941.297-1.726 1.121-2.008 2.111-.107.374-.125 1.173-.035 1.529.256 1.018 1.042 1.885 1.999 2.208l.244.082v.247c0 .342-.074.91-.165 1.266-.214.839-.606 1.278-1.355 1.516-.687.218-.656.216-4.628.233l-3.688.015-.012-2.252c-.012-2.168-.015-2.257-.092-2.388-.16-.271-.451-.383-.842-.324a.63.63 0 0 0-.478.324c-.077.131-.08.219-.092 2.389l-.012 2.254-1.668-.017c-1.381-.014-1.733-.029-2.048-.088-.452-.085-.854-.216-1.092-.355-.68-.399-1.009-1.299-1.04-2.841l-.008-.434.226-.07c.489-.153 1.057-.553 1.422-1.003.247-.303.498-.791.598-1.159.097-.361.097-1.201-.001-1.56-.264-.967-1.042-1.813-1.965-2.136-.18-.062-.285-.122-.294-.166-.028-.139.081-1.292.158-1.677.153-.754.448-1.257.892-1.516.345-.203 1.038-.379 1.724-.438.088-.007.821-.017 1.63-.02l1.47-.007v2.138" fill-rule="evenodd" fill="#000"/></svg>