<svg width="24" height="24" fill="none" xmlns="http://www.w3.org/2000/svg"><path d="M6.009 3.282c-1.407.079-2.307.315-3.038.797-.975.643-1.492 1.709-1.648 3.401-.061.653-.096 1.803-.065 2.094.051.48.239.625.904.696.44.047.731.18 1.04.475.708.675.73 1.747.053 2.457-.31.325-.625.477-1.086.527-.884.095-.967.246-.912 1.666.086 2.237.402 3.303 1.224 4.124.668.669 1.563 1.012 3.039 1.168.727.077 12.233.077 12.96 0 1.476-.156 2.371-.499 3.039-1.168.823-.823 1.185-2.054 1.212-4.119.008-.603.002-.672-.073-.8-.126-.214-.3-.31-.609-.337-.611-.054-.93-.188-1.282-.539a1.731 1.731 0 0 1 0-2.448c.352-.351.671-.485 1.282-.539.309-.027.483-.123.609-.337.078-.133.082-.198.078-1.26-.007-2.064-.202-3.157-.721-4.03-.619-1.043-1.641-1.574-3.455-1.795-.453-.055-11.639-.085-12.551-.033M9.248 7.01c.012 2.167.015 2.255.092 2.386a.646.646 0 0 0 .475.327c.367.069.684-.054.845-.327.077-.131.08-.219.092-2.388l.012-2.252 3.868.015c3.69.015 3.887.019 4.288.097.725.14 1.275.377 1.558.671.305.316.543.899.664 1.621.037.221.073.758.086 1.281l.023.901-.215.055c-.757.194-1.583.912-1.961 1.703-.241.503-.294.756-.294 1.4 0 .644.053.897.294 1.4.377.791 1.204 1.509 1.96 1.702l.214.055-.027.402c-.122 1.836-.595 2.62-1.782 2.955-.705.2-.73.201-4.84.216l-3.86.014v-2.752c0-2.68-.002-2.756-.08-2.888-.161-.273-.478-.396-.845-.327a.646.646 0 0 0-.475.327c-.078.132-.08.208-.08 2.89v2.754l-1.88-.02c-1.651-.017-1.931-.029-2.3-.098-.719-.135-1.274-.374-1.558-.669-.452-.469-.7-1.344-.749-2.644l-.025-.643.285-.092c.876-.281 1.724-1.114 2.028-1.99a3.416 3.416 0 0 0 0-2.184c-.304-.876-1.152-1.709-2.028-1.99l-.285-.092.025-.643c.049-1.3.297-2.175.749-2.644.298-.309.922-.566 1.638-.674.606-.092.584-.091 2.408-.098l1.668-.007.012 2.25" fill-rule="evenodd" fill="#000"/></svg>