<svg width="24" height="24" fill="none" xmlns="http://www.w3.org/2000/svg"><path d="M7.8 3.268c-.553.204-3.325 1.367-3.74 1.57C1.378 6.151.742 7.641 1.657 10.464c.185.571.6 1.606.694 1.732.216.289.451.337.923.188.521-.164.907-.13 1.37.122.54.294.887 1.011.791 1.634-.083.536-.412.966-.945 1.235-.424.214-.582.457-.51.787.047.21.404 1.058.7 1.658.786 1.597 1.599 2.398 2.74 2.701.319.084.337.085 5.62.08 3.163-.002 5.461-.02 5.7-.044 1.892-.187 2.897-.766 3.48-2.007.321-.682.457-1.436.486-2.69.018-.798.013-.893-.053-1.017-.121-.227-.237-.283-.714-.346-.506-.066-.739-.168-1.031-.451a1.914 1.914 0 0 1-.32-.445c-.118-.24-.128-.29-.128-.66 0-.367.011-.423.125-.661.273-.57.835-.917 1.49-.921.243-.001.469-.13.567-.323.085-.166.086-.195.067-1.493-.02-1.367-.055-1.742-.226-2.413-.387-1.512-1.363-2.359-3.053-2.648-.795-.136-1.914-.168-5.41-.155-3.101.012-3.288.017-3.429.087a.693.693 0 0 0-.24.22c-.089.142-.092.18-.111 1.5l-.02 1.354-.774-1.879a67.738 67.738 0 0 0-.861-2.033c-.123-.219-.314-.337-.541-.333a1.142 1.142 0 0 0-.244.025M8.911 8.23l1.33 3.23v1.252c-.001 1.406.017 1.545.223 1.726.157.138.328.178.658.154.28-.02.424-.108.533-.328.071-.144.074-.322.069-4.289l-.005-4.139 3.511.014c3.108.012 3.553.022 3.883.083 1.608.296 2.041.954 2.113 3.212l.026.804-.262.088c-.899.299-1.711 1.175-1.952 2.106-.103.399-.113 1.112-.022 1.506.228.981 1.024 1.855 1.995 2.188l.209.072-.012.336c-.025.686-.205 1.478-.417 1.835a2 2 0 0 1-.575.58c-.234.138-.717.292-1.147.367-.315.055-.884.067-3.859.081l-3.49.017v-1.267c0-1.212-.004-1.274-.084-1.416-.128-.229-.282-.302-.636-.302-.351 0-.529.082-.659.301-.076.131-.082.216-.093 1.409l-.012 1.27H9.108c-.827-.001-1.183-.016-1.334-.056-.688-.183-1.176-.725-1.798-1.997l-.308-.632.156-.127c.484-.396.826-.937 1.041-1.648.053-.176.072-.373.072-.74.001-.6-.058-.848-.336-1.421-.514-1.062-1.563-1.703-2.789-1.705l-.449-.001-.086-.226c-.574-1.513-.663-2.445-.293-3.077.257-.44.804-.851 1.739-1.308.561-.275 2.693-1.173 2.797-1.178.043-.002.444.929 1.391 3.226" fill-rule="evenodd" fill="#000"/></svg>