<svg width="24" height="24" fill="none" xmlns="http://www.w3.org/2000/svg"><path d="M6.02 3.28c-1.4.076-2.34.323-3.06.804-.759.508-1.246 1.285-1.484 2.366A10.028 10.028 0 0 0 1.28 8.3c0 .752.114.888.795.945.519.044.728.096 1.105.277a2.733 2.733 0 0 1 1.54 2.841c-.088.638-.322 1.105-.786 1.571-.509.51-1.052.753-1.827.818-.718.06-.836.196-.83.96.004.552.089 1.338.199 1.838.401 1.822 1.48 2.768 3.499 3.068.87.129 1.949.148 7.625.13 3.871-.012 5.696-.031 5.96-.063 1.244-.152 2.015-.411 2.655-.892.74-.556 1.203-1.485 1.413-2.833.066-.422.072-.83.072-4.96s-.006-4.538-.072-4.96c-.109-.7-.248-1.176-.486-1.66-.615-1.254-1.603-1.824-3.582-2.065-.442-.053-11.613-.085-12.54-.035m2.22 2.91c0 .86.017 1.489.042 1.579.088.318.33.471.744.471.261 0 .525-.135.621-.319.067-.128.073-.266.073-1.652V4.756l4.37.014c3.949.013 4.407.021 4.75.084 1.583.291 2.088.838 2.329 2.526.074.52.074 8.72 0 9.24-.241 1.685-.749 2.236-2.329 2.526-.343.063-.801.071-4.75.084l-4.37.014v-1.513c0-1.386-.006-1.524-.073-1.652-.096-.184-.36-.319-.621-.319-.414 0-.656.153-.744.471-.025.09-.042.72-.042 1.583v1.435l-1.35-.02c-1.674-.024-2.146-.092-2.83-.408-.49-.227-.792-.577-1.007-1.168-.102-.281-.253-1.076-.253-1.331v-.149l.322-.086c1.325-.355 2.437-1.405 2.892-2.73a4.276 4.276 0 0 0-.986-4.324c-.507-.515-1.226-.941-1.88-1.113L2.8 7.828v-.15c0-.083.035-.356.078-.607.246-1.44.812-1.983 2.302-2.209.568-.086.595-.088 1.89-.095l1.17-.007v1.43m6.013 2.236c-.34.12-.512.328-.852 1.033l-.312.645-.555.074c-.305.04-.65.098-.767.128-.529.136-.863.575-.863 1.135 0 .414.119.613.711 1.189l.494.481-.117.654c-.128.72-.126.972.009 1.237.216.424.583.65 1.049.647.28-.001.304-.01.949-.34l.661-.339.661.339c.645.33.669.339.949.34.478.003.867-.245 1.058-.677.126-.285.126-.5.001-1.202l-.116-.65.495-.49c.609-.601.713-.781.711-1.23-.002-.255-.02-.332-.119-.514a1.15 1.15 0 0 0-.612-.544 7.027 7.027 0 0 0-.808-.149l-.627-.088-.327-.65c-.361-.717-.528-.914-.875-1.032a1.39 1.39 0 0 0-.798.003m.611 2.259c.353.681.524.799 1.334.915.164.024.307.052.318.063.011.01-.128.16-.307.331-.5.477-.581.734-.455 1.446.041.231.072.424.069.428a5.812 5.812 0 0 1-.441-.21c-.406-.203-.455-.218-.722-.218-.267 0-.316.015-.722.218-.239.12-.438.215-.443.21a3.132 3.132 0 0 1 .05-.308c.032-.165.059-.427.061-.582.005-.378-.117-.616-.515-1.006-.166-.162-.295-.301-.286-.309.008-.008.202-.045.43-.081.734-.116.87-.21 1.183-.821.124-.243.233-.441.242-.441.009 0 .101.164.204.365" fill-rule="evenodd" fill="#000"/></svg>