<svg width="24" height="24" fill="none" xmlns="http://www.w3.org/2000/svg"><path d="M6.009 3.282c-1.407.079-2.307.315-3.038.797-.975.643-1.492 1.709-1.648 3.401-.061.653-.096 1.803-.065 2.094.051.48.239.625.904.696.44.047.731.18 1.04.475.708.675.73 1.747.053 2.457-.31.325-.625.477-1.086.527-.884.095-.967.246-.912 1.666.086 2.237.402 3.303 1.224 4.124.668.669 1.563 1.012 3.039 1.168.727.077 12.233.077 12.96 0 1.476-.156 2.371-.499 3.039-1.168.823-.823 1.185-2.054 1.212-4.119.008-.603.002-.672-.073-.8-.126-.214-.3-.31-.609-.337-.611-.054-.93-.188-1.282-.539a1.731 1.731 0 0 1 0-2.448c.352-.351.671-.485 1.282-.539.309-.027.483-.123.609-.337.078-.133.082-.198.078-1.26-.007-2.064-.202-3.157-.721-4.03-.619-1.043-1.641-1.574-3.455-1.795-.453-.055-11.639-.085-12.551-.033M18.92 4.867c.728.142 1.276.379 1.558.672.305.316.543.899.664 1.621.037.221.073.758.086 1.281l.023.901-.215.055c-.757.194-1.583.912-1.961 1.703-.241.503-.294.756-.294 1.4 0 .644.053.897.294 1.4.377.791 1.204 1.509 1.96 1.702l.214.055-.027.402c-.079 1.193-.322 1.96-.756 2.392-.355.355-.842.559-1.651.696-.409.069-.817.073-6.815.073-6.023 0-6.405-.004-6.82-.074-.756-.127-1.362-.378-1.658-.685-.452-.469-.7-1.344-.749-2.644l-.025-.643.285-.092c.876-.281 1.724-1.114 2.028-1.99a3.416 3.416 0 0 0 0-2.184c-.304-.876-1.152-1.709-2.028-1.99l-.285-.092.025-.643c.049-1.3.297-2.175.749-2.644.367-.382 1.183-.658 2.218-.752.088-.008 2.995-.012 6.46-.008 6.177.006 6.308.008 6.72.088m-4.2 3.172c-.077.041-1.555 1.494-3.285 3.228-3.306 3.313-3.284 3.289-3.216 3.565.051.21.228.454.412.571.254.161.49.16.732-.001.097-.065 1.556-1.501 3.242-3.19 3.346-3.353 3.253-3.248 3.159-3.598-.054-.199-.285-.473-.487-.575a.564.564 0 0 0-.557 0m-5.96.241c-.345.062-.524.182-.665.445-.114.212-.105.839.015 1.063.163.305.452.452.89.452.61 0 .949-.301.991-.878.026-.363-.067-.675-.253-.856-.199-.193-.619-.29-.978-.226m5.84 5.527a.836.836 0 0 0-.49.405c-.075.14-.09.23-.09.548.001.326.014.404.096.546.167.293.429.422.862.426.711.007 1.064-.374 1.013-1.094-.032-.443-.249-.732-.626-.837a1.914 1.914 0 0 0-.765.006" fill-rule="evenodd" fill="#000"/></svg>