<svg width="24" height="24" fill="none" xmlns="http://www.w3.org/2000/svg"><path d="M8.787 1.278c-.342.068-.519.314-.519.722 0 .462.207.693.663.739.137.015 1.617.02 3.289.014 2.956-.013 3.044-.015 3.176-.093.273-.161.396-.478.327-.845a.646.646 0 0 0-.327-.475c-.133-.078-.214-.08-3.296-.086-1.738-.003-3.229.007-3.313.024m2.233 2.526a9.607 9.607 0 0 0-5.899 2.903 9.565 9.565 0 0 0-2.565 5.568c-.105 1.017.005 2.435.264 3.405 1.086 4.072 4.769 6.976 8.94 7.051.548.01.682-.03.85-.256.168-.226.168-.724 0-.95-.159-.213-.281-.249-.96-.287a11.104 11.104 0 0 1-.99-.097 8.04 8.04 0 0 1-5.823-4.336 8.019 8.019 0 0 1 .276-7.634c.443-.757 1.324-1.747 2.034-2.283 2.125-1.605 4.855-2.062 7.353-1.231 1.253.417 2.21 1.008 3.142 1.941.707.706 1.172 1.36 1.581 2.222.486 1.023.706 1.921.773 3.151.035.651.082.784.325.928.2.117.706.116.864-.001.24-.18.274-.267.289-.751a7.702 7.702 0 0 0-.033-.887 9.505 9.505 0 0 0-8.515-8.458 12.502 12.502 0 0 0-1.906.002m.767 3.474a.659.659 0 0 0-.447.326c-.078.132-.08.208-.08 2.896 0 2.688.002 2.764.08 2.896a.646.646 0 0 0 .475.327c.367.069.684-.054.845-.327.077-.132.08-.22.093-2.676.007-1.397.001-2.652-.013-2.789-.042-.405-.244-.62-.62-.662a1.307 1.307 0 0 0-.333.009m4 9a.659.659 0 0 0-.447.326c-.077.132-.08.208-.08 2.396 0 2.188.003 2.264.08 2.396.161.273.478.396.845.327a.646.646 0 0 0 .475-.327c.077-.13.081-.22.093-2.176.007-1.122.001-2.152-.013-2.289-.042-.405-.244-.62-.62-.662a1.307 1.307 0 0 0-.333.009m3 0a.659.659 0 0 0-.447.326c-.077.132-.08.208-.08 2.396 0 2.188.003 2.264.08 2.396.161.273.478.396.845.327a.646.646 0 0 0 .475-.327c.077-.13.081-.22.093-2.176.007-1.122.001-2.152-.013-2.289-.042-.405-.244-.62-.62-.662a1.307 1.307 0 0 0-.333.009" fill-rule="evenodd" fill="#000"/></svg>