<svg width="24" height="24" fill="none" xmlns="http://www.w3.org/2000/svg"><path d="M8.194 1.283c-1.647.136-2.833.96-3.278 2.277-.111.329-.131.45-.147.903-.014.396-.002.605.049.86a4.55 4.55 0 0 0 .947 1.949c.134.163 1.316 1.27 2.668 2.498a230.348 230.348 0 0 1 2.434 2.227c.004.013-1.089 1.017-2.429 2.232-1.356 1.231-2.541 2.338-2.675 2.5a4.566 4.566 0 0 0-.945 1.948c-.051.255-.063.464-.049.86.016.453.036.574.147.903.454 1.344 1.618 2.136 3.347 2.279.621.052 6.853.052 7.474 0 1.729-.143 2.893-.935 3.347-2.279.111-.329.131-.45.147-.903.014-.396.002-.605-.049-.86a4.56 4.56 0 0 0-.947-1.95c-.135-.163-1.316-1.269-2.668-2.498-1.335-1.213-2.427-2.216-2.427-2.229 0-.013 1.092-1.016 2.427-2.229 1.352-1.229 2.533-2.335 2.668-2.498a4.56 4.56 0 0 0 .947-1.95c.051-.255.063-.464.049-.86-.016-.453-.036-.574-.147-.903-.454-1.344-1.618-2.136-3.347-2.279-.563-.047-6.975-.045-7.543.002m8.066 1.568c.577.168 1.05.497 1.282.89.397.672.222 1.72-.423 2.536-.162.205-5.057 4.683-5.119 4.683-.062 0-4.957-4.478-5.119-4.683-.37-.468-.59-1.006-.628-1.537-.06-.833.367-1.471 1.197-1.788.486-.185.501-.186 4.65-.178 3.6.007 3.94.013 4.16.077m-1.765 12.428c1.354 1.232 2.534 2.331 2.624 2.444.645.816.82 1.864.423 2.536-.237.401-.722.734-1.302.891-.24.065-.566.07-4.24.07-3.674 0-4-.005-4.24-.07-.58-.157-1.065-.49-1.302-.891-.393-.666-.226-1.709.403-2.51.173-.219 5.072-4.709 5.139-4.709.018 0 1.141 1.008 2.495 2.239" fill-rule="evenodd" fill="#000"/></svg>