<svg width="24" height="24" fill="none" xmlns="http://www.w3.org/2000/svg"><path d="M8.787 1.278c-.342.068-.519.314-.519.722 0 .462.207.693.663.739.137.015 1.617.02 3.289.014 2.956-.013 3.044-.015 3.176-.093.273-.161.396-.478.327-.845a.646.646 0 0 0-.327-.475c-.133-.078-.214-.08-3.296-.086-1.738-.003-3.229.007-3.313.024m2.233 2.526a9.607 9.607 0 0 0-5.899 2.903 9.565 9.565 0 0 0-2.565 5.568c-.105 1.017.005 2.435.264 3.405 1.086 4.072 4.769 6.976 8.94 7.051.548.01.682-.03.85-.256.168-.226.168-.724 0-.95-.159-.213-.281-.249-.96-.287a11.104 11.104 0 0 1-.99-.097 8.04 8.04 0 0 1-5.823-4.336 8.019 8.019 0 0 1 .276-7.634c.443-.757 1.324-1.747 2.034-2.283 2.125-1.605 4.855-2.062 7.353-1.231 1.253.417 2.21 1.008 3.142 1.941.707.706 1.172 1.36 1.581 2.222.486 1.023.706 1.921.773 3.151.035.651.082.784.325.928.2.117.706.116.864-.001.24-.18.274-.267.289-.751a7.702 7.702 0 0 0-.033-.887 9.505 9.505 0 0 0-8.515-8.458 12.502 12.502 0 0 0-1.906.002m.767 3.474a.659.659 0 0 0-.447.326c-.078.132-.08.208-.08 2.896 0 2.688.002 2.764.08 2.896a.646.646 0 0 0 .475.327c.367.069.684-.054.845-.327.077-.132.08-.22.093-2.676.007-1.397.001-2.652-.013-2.789-.042-.405-.244-.62-.62-.662a1.307 1.307 0 0 0-.333.009m3.878 7.764c-.49.123-1.007.56-1.24 1.047-.241.505-.265.72-.265 2.411 0 1.678.023 1.897.257 2.4.483 1.04 1.65 1.399 2.803.863.388-.18 2.264-1.265 2.604-1.506.722-.51 1.099-1.289.982-2.025-.115-.723-.541-1.238-1.486-1.799-1.3-.771-2.117-1.221-2.381-1.31-.313-.105-1.002-.149-1.274-.081m.895 1.541c.121.056.696.375 1.279.71 1.345.772 1.567.971 1.475 1.327-.058.222-.352.442-1.454 1.083-1.307.76-1.422.816-1.674.817-.166 0-.213-.019-.325-.131-.209-.209-.228-.387-.214-2.018.012-1.304.02-1.444.088-1.582.162-.325.426-.391.825-.206" fill-rule="evenodd" fill="#000"/></svg>