<svg width="24" height="24" fill="none" xmlns="http://www.w3.org/2000/svg"><path d="M6.009 3.282c-1.407.079-2.307.315-3.038.797-.984.648-1.47 1.657-1.658 3.441-.076.718-.076 8.241 0 8.96.156 1.476.499 2.371 1.168 3.039.668.669 1.563 1.012 3.039 1.168.727.077 12.233.077 12.96 0 1.476-.156 2.371-.499 3.039-1.168.669-.668 1.012-1.563 1.168-3.039.076-.718.076-8.242 0-8.96-.155-1.475-.499-2.37-1.167-3.039-.65-.651-1.507-.989-2.96-1.166-.453-.055-11.639-.085-12.551-.033M18.92 4.867c.713.139 1.19.339 1.515.634.324.294.579.896.711 1.679.069.41.074.743.074 4.82 0 4.06-.005 4.412-.073 4.815-.136.804-.342 1.297-.689 1.643-.346.347-.839.553-1.643.689-.409.069-.817.073-6.815.073-6.023 0-6.405-.004-6.82-.074-.783-.132-1.385-.387-1.679-.711-.308-.339-.522-.875-.647-1.615-.069-.41-.074-.743-.074-4.82s.005-4.41.074-4.82c.187-1.114.525-1.675 1.205-2 .426-.204.756-.28 1.721-.395.066-.008 2.955-.011 6.42-.007 6.176.007 6.308.009 6.72.089M7.96 7.264c-.76.062-1.262.183-1.711.413-.727.374-1.183 1.028-1.395 2.003-.066.305-.074.542-.074 2.32 0 1.778.008 2.015.074 2.32.304 1.398 1.111 2.141 2.566 2.365.51.078 3.65.078 4.16 0 1.431-.22 2.228-.937 2.552-2.298.084-.352.088-.448.088-2.387s-.004-2.035-.088-2.387c-.27-1.134-.841-1.791-1.856-2.135-.526-.178-.807-.202-2.516-.216a60.608 60.608 0 0 0-1.8.002m3.808 1.609c.505.168.752.45.9 1.027.064.249.072.477.072 2.08 0 1.587-.008 1.835-.071 2.1-.142.597-.394.884-.922 1.05-.282.088-.324.09-2.247.09-1.923 0-1.965-.002-2.247-.09-.52-.164-.77-.443-.921-1.03-.064-.25-.072-.479-.072-2.12 0-2.002.008-2.081.242-2.543.166-.328.521-.546 1.032-.634.113-.02 1.052-.033 2.086-.028 1.83.008 1.887.01 2.148.098" fill-rule="evenodd" fill="#000"/></svg>