<svg width="24" height="24" fill="none" xmlns="http://www.w3.org/2000/svg"><path d="M9.36 3.28a8.758 8.758 0 0 0-6.824 4.163 8.893 8.893 0 0 0-1.197 3.337c-.09.596-.09 1.844 0 2.44.325 2.169 1.411 4.13 3.029 5.469a8.874 8.874 0 0 0 3.555 1.805c.981.239 1.092.246 4.077.246s3.096-.007 4.077-.246a8.986 8.986 0 0 0 3.603-1.843c1.588-1.336 2.662-3.292 2.981-5.431.078-.525.09-1.747.021-2.28a8.85 8.85 0 0 0-1.993-4.572c-1.146-1.385-2.825-2.427-4.612-2.862-.934-.227-1.057-.235-3.757-.247-1.375-.006-2.707.003-2.96.021m6.02 1.594c1.46.306 2.706.976 3.738 2.008a7.251 7.251 0 0 1 2.009 3.758c.081.401.093.576.093 1.36 0 .784-.012.959-.093 1.36a7.251 7.251 0 0 1-2.009 3.758 7.251 7.251 0 0 1-3.758 2.009c-.456.092-.482.093-3.36.093s-2.904-.001-3.36-.093a7.251 7.251 0 0 1-3.758-2.009 7.251 7.251 0 0 1-2.009-3.758c-.081-.401-.093-.576-.093-1.36 0-.784.012-.959.093-1.36a7.251 7.251 0 0 1 2.009-3.758C6.05 5.714 7.483 5.015 9.18 4.786a153.75 153.75 0 0 1 2.94-.01c2.781.006 2.826.007 3.26.098M9.579 7.28C7.75 7.44 6.2 8.632 5.54 10.384c-.358.951-.358 2.281 0 3.232a4.799 4.799 0 0 0 2.836 2.841c.964.363 2.284.363 3.248 0a4.799 4.799 0 0 0 2.836-2.841c.359-.955.358-2.28-.003-3.24-.762-2.028-2.741-3.284-4.878-3.096m1.401 1.614c.528.174.874.392 1.304.822.428.427.644.769.824 1.304.101.296.109.369.109.98s-.008.684-.109.98c-.18.535-.396.877-.824 1.304-.427.428-.769.644-1.304.824-.296.101-.369.109-.98.109s-.684-.008-.98-.109c-.535-.18-.877-.396-1.304-.824-.428-.427-.644-.769-.824-1.304-.101-.296-.109-.369-.109-.98s.008-.684.109-.98c.18-.535.396-.877.824-1.304.717-.717 1.35-.966 2.384-.941.472.012.61.031.88.119" fill-rule="evenodd" fill="#000"/></svg>