<svg width="24" height="24" fill="none" xmlns="http://www.w3.org/2000/svg"><path d="M2.84 1.267a1.798 1.798 0 0 0-1.509 1.207c-.084.248-.123 2.847-.051 3.343.102.698.511 1.19 1.183 1.426.352.123.9.096 1.257-.062.238-.105.386-.241 1.772-1.618 1.395-1.387 1.524-1.526 1.657-1.795.124-.25.148-.343.163-.633.05-.952-.548-1.709-1.46-1.85-.261-.041-2.647-.055-3.012-.018m12.051.016c-1.657.127-3.303.894-4.508 2.1-1.201 1.2-1.98 2.867-2.095 4.483l-.028.394-.394.028c-1.616.115-3.283.894-4.483 2.095a7.222 7.222 0 0 0-1.747 7.414 7.237 7.237 0 0 0 13.745-.057 6.66 6.66 0 0 0 .333-1.64l.026-.36.36-.026c1.647-.118 3.311-.89 4.517-2.097A7.303 7.303 0 0 0 22.641 9.7a7.788 7.788 0 0 0 0-2.4 7.314 7.314 0 0 0-2.025-3.919 7.217 7.217 0 0 0-4.589-2.101 9.888 9.888 0 0 0-.627-.034l-.509.037M5.778 2.849a.361.361 0 0 1 .062.17c0 .053-.473.554-1.37 1.451-1.431 1.432-1.465 1.459-1.637 1.304-.068-.062-.073-.161-.073-1.467 0-1.247.007-1.409.066-1.474.062-.068.161-.073 1.478-.073h1.411l.063.089m10.862.01c.998.22 1.909.674 2.634 1.313A5.827 5.827 0 0 1 21.148 7.4c.102.481.102 1.719 0 2.2a5.827 5.827 0 0 1-1.874 3.228c-.905.798-2.128 1.317-3.299 1.4l-.324.023-.07-.315a7.304 7.304 0 0 0-5.517-5.517l-.315-.07.023-.324c.069-.97.466-2.05 1.058-2.877a7.033 7.033 0 0 1 1.315-1.316c.719-.515 1.526-.848 2.455-1.015.408-.073 1.632-.048 2.04.042M9.6 9.86c.788.171 1.639.542 2.25.98.42.301 1.089.984 1.382 1.411a7.09 7.09 0 0 1 .744 1.529c.19.611.242.987.243 1.76.001.811-.046 1.113-.286 1.82a5.72 5.72 0 0 1-3.573 3.573c-.713.242-1.005.287-1.86.287-.855 0-1.147-.045-1.86-.287a5.711 5.711 0 0 1-3.573-3.573c-.242-.713-.287-1.005-.287-1.86 0-.853.045-1.143.286-1.86a5.544 5.544 0 0 1 1.377-2.197c.88-.88 1.884-1.397 3.157-1.626.401-.072 1.588-.047 2 .043m10.859 6.892c-.11.038-.281.117-.38.176-.098.058-.846.778-1.662 1.599-1.361 1.37-1.492 1.514-1.597 1.753a1.833 1.833 0 0 0 .139 1.674c.275.425.697.689 1.228.767.493.072 3.09.031 3.339-.052.516-.173.97-.627 1.142-1.141.085-.252.125-2.845.052-3.343-.102-.699-.513-1.196-1.179-1.425-.298-.102-.798-.106-1.082-.008m.708 1.474c.068.062.073.161.073 1.467 0 1.247-.007 1.409-.066 1.474-.062.068-.161.073-1.478.073h-1.411l-.063-.089a.361.361 0 0 1-.062-.17c0-.053.473-.554 1.37-1.451 1.431-1.432 1.465-1.459 1.637-1.304" fill-rule="evenodd" fill="#000"/></svg>