<svg width="24" height="24" fill="none" xmlns="http://www.w3.org/2000/svg"><path d="M4.5 1.283C2.709 1.426 1.598 2.43 1.315 4.16c-.078.481-.08 5.198-.002 5.64.087.493.169.761.35 1.14.3.631.734 1.073 1.354 1.377.761.374 1.235.416 4.368.391 1.882-.016 2.415-.032 2.655-.08 1.416-.285 2.221-1.055 2.554-2.446l.106-.442V7.02c0-2.475-.007-2.752-.073-3.079-.332-1.635-1.404-2.519-3.228-2.66-.587-.046-4.319-.044-4.899.002m10.293-.005c-.388.075-.604.443-.511.868.021.094.275.565.584 1.08.625 1.043.704 1.157.859 1.236.454.235 1.19-.271 1.099-.756-.013-.071-.105-.271-.204-.444a5.405 5.405 0 0 1-.18-.33c0-.024.207.033.58.159a6.232 6.232 0 0 1 3.562 3.112c.412.822.589 1.502.657 2.53.039.592.083.725.286.877.217.162.698.169.933.015.257-.169.311-.41.259-1.165a7.726 7.726 0 0 0-3.44-5.918 8.056 8.056 0 0 0-2.33-1.039c-.663-.173-1.81-.292-2.154-.225M9.746 2.823c.805.166 1.237.579 1.397 1.337.082.383.081 5.301-.001 5.685-.113.534-.379.909-.797 1.122-.445.226-.522.232-3.349.232-2.426.001-2.602-.004-2.886-.077-.584-.149-.897-.387-1.105-.837-.239-.52-.244-.576-.244-3.305 0-2.675.008-2.79.215-3.242.209-.456.659-.793 1.224-.915.405-.088 5.122-.088 5.546 0M6.58 4.496c-.172.076-.265.197-.321.414l-.048.19-.803.02c-.73.018-.812.027-.913.102-.226.169-.275.279-.275.611 0 .359.08.536.301.666.13.076.216.082 1.371.093l1.232.012-.027.088c-.074.239-.281.571-.507.813-.46.493-.889.7-1.57.756-.47.038-.639.121-.748.368-.105.237-.086.68.037.845.157.21.314.266.731.263a3.482 3.482 0 0 0 1.908-.583l.169-.116.182.139c.246.188.705.408 1.021.489.143.037.422.069.62.071.416.004.581-.065.719-.298.117-.2.116-.706-.001-.864-.152-.202-.27-.26-.621-.302-.338-.041-.672-.145-.814-.254-.076-.057-.073-.068.09-.398.092-.187.21-.488.263-.67l.095-.331.315-.024c.495-.037.699-.195.757-.585.061-.401-.105-.756-.395-.846-.07-.022-.465-.045-.876-.052L7.724 5.1l-.026-.151a.652.652 0 0 0-.365-.454c-.165-.069-.595-.068-.753.001m9.86 6.626c-2.847.228-5.103 2.504-5.318 5.368-.219 2.902 1.774 5.551 4.61 6.128a5.815 5.815 0 0 0 6.986-5.268c.269-3.561-2.708-6.514-6.278-6.228m1.6 1.616a4.389 4.389 0 0 1 3.068 3.082c.102.367.111.459.111 1.1s-.009.733-.111 1.1a4.378 4.378 0 0 1-3.088 3.088c-.367.102-.459.111-1.1.111s-.733-.009-1.1-.111a4.385 4.385 0 0 1-3.088-3.088c-.102-.367-.111-.459-.111-1.1s.009-.733.111-1.1c.46-1.664 1.785-2.867 3.505-3.182.101-.019.462-.027.803-.019.516.011.684.031 1 .119m-1.432.989a.874.874 0 0 0-.266.208c-.051.069-.594 1.124-1.206 2.345-1.05 2.095-1.112 2.233-1.114 2.443-.003.285.118.455.431.608.495.243.784.106 1.102-.521l.087-.17h2.556l.087.17c.239.471.419.63.716.63.218 0 .58-.18.714-.356.174-.228.149-.457-.108-1.008a19.825 19.825 0 0 0-.287-.596c-.042-.077-.453-.887-.915-1.8a62.724 62.724 0 0 0-.918-1.774c-.186-.273-.537-.344-.879-.179m-14.815.55c-.287.057-.459.235-.517.535-.017.092-.015.414.006.715.167 2.422 1.413 4.57 3.441 5.932.757.508 1.864.963 2.772 1.138.527.102 1.462.171 1.699.125.345-.065.533-.302.536-.673a.835.835 0 0 0-.069-.369c-.117-.231-1.067-1.81-1.175-1.952-.255-.34-.696-.336-1.079.011-.183.165-.266.365-.231.555.013.071.105.271.204.444.099.174.18.322.18.33 0 .06-.884-.253-1.32-.468a6.36 6.36 0 0 1-2.551-2.302c-.538-.854-.922-2.107-.93-3.038-.005-.529-.094-.764-.343-.906-.142-.08-.426-.115-.623-.077m15.398 2.343c.137.276.249.51.249.52 0 .011-.234.02-.52.02-.286 0-.52-.009-.52-.02 0-.04.499-1.02.52-1.02.012 0 .134.225.271.5" fill-rule="evenodd" fill="#000"/></svg>