<svg width="24" height="24" fill="none" xmlns="http://www.w3.org/2000/svg"><path d="M7.263 1.284c-2.822.161-4.022 1.179-4.411 3.744-.067.44-.072.941-.072 7.352v6.88l.109.4c.135.491.371.98.599 1.239.209.238.576.481.849.563.26.078.777.078 1.073 0 .509-.135 1.12-.525 1.723-1.101.207-.198.455-.396.552-.44a.97.97 0 0 1 1.051.191c.085.081.414.494.73.918.316.423.674.864.796.98.58.553 1.316.808 2.042.707.364-.051.554-.115.887-.301.39-.219.676-.52 1.381-1.455.738-.978.859-1.084 1.272-1.114.373-.026.534.057 1.046.541.95.897 1.731 1.251 2.5 1.132.853-.132 1.453-.8 1.708-1.898.137-.591.147-1.121.132-7.542-.012-5.775-.02-6.388-.084-6.875-.175-1.325-.541-2.203-1.172-2.809-.73-.702-1.681-1.019-3.345-1.115-.806-.047-8.541-.044-9.366.003m9.8 1.52c1.688.17 2.3.723 2.561 2.316.121.736.141 2.022.125 7.94-.014 5.345-.021 5.905-.083 6.155-.082.335-.201.613-.315.735-.229.243-.715.019-1.447-.667-.753-.705-1.242-.932-2.004-.93-.409.001-.706.07-1.076.251-.464.226-.691.452-1.396 1.387-.681.902-.851 1.087-1.094 1.189a1.035 1.035 0 0 1-.717-.016c-.231-.105-.388-.278-1.057-1.166-.324-.43-.701-.883-.838-1.006a2.367 2.367 0 0 0-1.682-.64c-.726.005-1.232.243-1.927.909-.567.544-.937.776-1.239.778-.116.001-.17-.026-.265-.135-.14-.16-.271-.529-.328-.924-.054-.38-.055-12.644-.001-13.24.085-.936.247-1.555.514-1.963.197-.301.322-.415.646-.59.378-.204.763-.299 1.62-.401.329-.039 9.601-.022 10.003.018M9.027 9.278c-.36.072-.517.313-.499.769.014.345.08.474.316.613.133.078.208.08 3.156.08s3.023-.002 3.156-.08c.251-.148.304-.262.304-.66s-.053-.512-.304-.66c-.132-.078-.214-.08-3.056-.086-1.606-.004-2.989.007-3.073.024" fill-rule="evenodd" fill="#000"/></svg>