<svg width="24" height="24" fill="none" xmlns="http://www.w3.org/2000/svg"><path d="M10.22 1.278c-1.171.113-1.829.617-2.096 1.603a14.62 14.62 0 0 0-.203 1.039c-.067.407-.13.778-.141.825-.017.078-.054.086-.529.112-1.07.058-4.294.362-4.547.428-.339.089-.509.424-.43.849.055.3.195.488.413.553.176.052.053.061 2.693-.186 2.034-.19 2.832-.228 5.24-.249a90.586 90.586 0 0 1 9.12.367c.616.055 1.21.1 1.32.1.43.001.677-.276.676-.758-.002-.396-.135-.595-.456-.68-.178-.048-2.615-.257-3.98-.342a28.477 28.477 0 0 1-1.05-.076 21.413 21.413 0 0 1-.169-.927 17.422 17.422 0 0 0-.224-1.136c-.147-.493-.399-.851-.769-1.091-.33-.214-.418-.252-.825-.356-.297-.076-.459-.083-2.023-.094-.935-.007-1.844.002-2.02.019m3.906 1.588c.162.075.195.112.266.301.066.178.339 1.594.312 1.622-.004.005-.871-.006-1.926-.025a90.865 90.865 0 0 0-2.703-.013l-.786.019.037-.215c.272-1.589.298-1.655.702-1.752.083-.02.998-.033 2.032-.03 1.831.007 1.885.009 2.066.093m-9.349 5.61c-.201.091-.323.24-.355.435-.027.158.629 10.511.702 11.089.171 1.352.707 2.089 1.799 2.472.757.266.793.268 5.097.268 3.545 0 3.914-.006 4.278-.072 1.656-.296 2.388-1.064 2.581-2.708.075-.635.724-10.859.701-11.027a.673.673 0 0 0-.109-.275c-.194-.247-.683-.332-1.023-.178-.331.15-.288-.215-.668 5.688a469.108 469.108 0 0 1-.381 5.612c-.107.912-.291 1.154-1.041 1.367-.242.069-.508.073-4.358.073-3.85 0-4.116-.004-4.358-.073-.75-.213-.934-.455-1.041-1.367-.023-.198-.195-2.725-.381-5.616-.317-4.921-.344-5.268-.425-5.435a.461.461 0 0 0-.251-.253 1.052 1.052 0 0 0-.767 0m4.399 3.327c-.288.084-.442.39-.405.804.024.267.112.433.284.538.119.072.253.075 2.945.075 2.692 0 2.826-.003 2.945-.075.209-.127.275-.282.275-.645 0-.363-.066-.518-.275-.645-.119-.071-.258-.075-2.885-.082-1.573-.004-2.813.009-2.884.03m.756 4.034c-.229.105-.332.311-.332.663 0 .359.103.559.342.665.168.074.265.077 2.107.066 1.81-.01 1.939-.016 2.056-.086.209-.127.275-.282.275-.645 0-.363-.066-.518-.275-.645-.117-.07-.245-.076-2.065-.085-1.841-.009-1.949-.006-2.108.067" fill-rule="evenodd" fill="#000"/></svg>