<svg width="24" height="24" fill="none" xmlns="http://www.w3.org/2000/svg"><path d="M11.563 1.264a1.913 1.913 0 0 0-.804.467c-.277.275-4.553 6.289-4.704 6.614-.262.563-.263 1.1-.004 1.588.233.439.734.748 1.362.838l.349.051-1.466 2.059a267.103 267.103 0 0 0-1.705 2.414c-.428.634-.572 1.083-.54 1.677.017.303.04.394.164.646.252.51.696.843 1.369 1.03.307.084.39.087 2.984.102l2.667.016.013 1.747c.011 1.663.016 1.754.092 1.883a.646.646 0 0 0 .475.327c.367.069.684-.054.845-.327.076-.129.081-.22.092-1.883l.013-1.747 2.667-.017c2.969-.018 2.938-.015 3.517-.297.365-.177.678-.487.853-.843.113-.229.133-.318.15-.652.021-.45-.025-.693-.211-1.1-.161-.351-.197-.405-2.013-2.957l-1.481-2.08.345-.049c.394-.057.819-.241 1.057-.456.222-.2.416-.555.468-.855.078-.447-.062-1.008-.36-1.447-.723-1.063-4.428-6.192-4.564-6.317-.47-.432-1.054-.587-1.63-.432m.573 1.5c.108.085 4.318 5.951 4.438 6.184.107.207.087.282-.084.33-.23.064-8.825.053-9.01-.011-.161-.056-.165-.111-.027-.372.163-.309 4.347-6.123 4.437-6.166.124-.06.126-.06.246.035m4.23 10.796c1.243 1.745 1.981 2.817 2.033 2.952.138.359.109.49-.134.62l-.165.088-5.96.012c-4.326.009-6.018 0-6.17-.033a.89.89 0 0 1-.33-.146c-.16-.133-.157-.291.01-.618.071-.14.991-1.466 2.044-2.945l1.915-2.691 2.402.011 2.403.01 1.952 2.74" fill-rule="evenodd" fill="#000"/></svg>