<svg width="24" height="24" fill="none" xmlns="http://www.w3.org/2000/svg"><path d="M8.08 1.282c-4.072.213-6.185 2.014-6.697 5.709-.113.812-.141 1.825-.141 5.009 0 4.504.06 5.273.518 6.65.772 2.313 2.446 3.576 5.267 3.972.759.106 1.875.137 4.973.137s4.214-.031 4.973-.137c2.47-.347 4.023-1.334 4.924-3.132.482-.96.741-2.121.823-3.683.051-.969.051-6.645 0-7.614-.063-1.195-.199-2.002-.478-2.837-.61-1.825-1.773-2.989-3.592-3.596-.862-.287-1.627-.416-2.844-.48-.854-.045-6.854-.043-7.726.002m8.72 1.572c2.786.462 3.914 1.6 4.348 4.386.066.421.072.824.072 4.76s-.006 4.339-.072 4.76c-.436 2.798-1.59 3.952-4.388 4.388-.421.066-.824.072-4.76.072s-4.339-.006-4.76-.072c-2.79-.435-3.957-1.597-4.386-4.368-.069-.445-.074-.791-.074-4.78 0-4.753-.004-4.663.264-5.712C3.557 4.282 4.722 3.274 6.96 2.9c.73-.123 1.088-.131 5.24-.123 3.763.007 4.222.014 4.6.077M7.147 8.839c-.361.23-.516.627-.363.933.036.07.823.89 1.75 1.822 1.76 1.769 1.896 1.885 2.218 1.886.305.001.4-.1 1.125-1.194l.538-.811 1.133 1.133 1.133 1.132-.258.026c-.487.05-.643.228-.643.734 0 .363.066.518.275.645.113.068.248.078 1.365.1l1.24.026.208-.098c.177-.082.223-.128.305-.305l.098-.208-.026-1.24c-.022-1.117-.032-1.252-.1-1.365-.127-.209-.282-.275-.645-.275-.508 0-.692.163-.731.648l-.021.259-1.524-1.519c-.838-.836-1.582-1.548-1.652-1.584-.199-.1-.409-.081-.623.054-.156.099-.283.264-.775 1.002l-.589.883-1.343-1.337c-.738-.736-1.4-1.366-1.47-1.402-.199-.1-.409-.081-.625.055" fill-rule="evenodd" fill="#000"/></svg>