<svg width="24" height="24" fill="none" xmlns="http://www.w3.org/2000/svg"><path d="M11.5 1.882c-1.107.173-2.187.934-2.977 2.097-.266.392-1.133 1.935-4.812 8.561-1.836 3.309-2.02 3.663-2.205 4.248-.264.835-.313 1.755-.133 2.455.387 1.501 1.609 2.508 3.427 2.824.395.069.82.073 7.26.073 6.424 0 6.862-.004 7.2-.072 1.134-.226 1.928-.633 2.547-1.304.622-.674.919-1.469.921-2.464.001-.804-.164-1.48-.566-2.32-.353-.738-6.374-11.544-6.697-12.02-.519-.766-1.321-1.475-2.034-1.798-.559-.253-1.36-.37-1.931-.28m-.261 6.388-.002 4.75-4.173 2.918a523.298 523.298 0 0 1-4.216 2.933c-.063.021-.102-.395-.076-.808.049-.754.196-1.102 1.313-3.118 2.256-4.072 5.223-9.397 5.406-9.705.434-.73.963-1.305 1.46-1.589.126-.071.242-.13.259-.13.017-.001.029 2.136.029 4.749m1.834-4.6c.467.283.935.772 1.332 1.39.238.371 6.189 11.122 6.399 11.56.274.573.394.981.424 1.455.026.402-.014.816-.076.796a523.298 523.298 0 0 1-4.216-2.933l-4.173-2.918-.002-4.75c0-2.613.014-4.75.032-4.75.018 0 .144.067.28.15m3.081 13.537c2.237 1.565 4.081 2.859 4.1 2.875.043.038-.248.209-.534.313a4.431 4.431 0 0 1-1.088.243c-.499.054-12.404.056-13.101.002-.489-.038-.952-.135-1.291-.27-.232-.093-.532-.251-.513-.271.009-.008 1.868-1.312 4.131-2.898 2.47-1.731 4.139-2.875 4.174-2.862.031.012 1.886 1.303 4.122 2.868" fill-rule="evenodd" fill="#000"/></svg>