<svg width="24" height="24" fill="none" xmlns="http://www.w3.org/2000/svg"><path d="M4.551.282a4.362 4.362 0 0 0-1.78.537C.301 2.133-.489 5.294 1.065 7.645l.175.266.001 4.534c0 2.699.016 4.687.04 4.91.052.493.132.794.319 1.193.399.855.94 1.406 1.78 1.813.509.247.75.309 1.43.368l.549.047.045.142c.122.387.515.935.869 1.213.545.427 1.042.6 1.727.6s1.182-.173 1.727-.6c.357-.28.747-.826.872-1.221l.047-.15h2.708l.047.15c.181.571.708 1.179 1.319 1.522.714.4 1.846.4 2.56 0 .608-.341 1.139-.952 1.316-1.514l.045-.142.549-.047c.68-.059.921-.121 1.43-.368.84-.407 1.381-.958 1.78-1.813.187-.399.267-.7.319-1.193.052-.496.052-5.28-.001-5.507-.021-.094-.361-.735-.755-1.423-.394-.689-.796-1.394-.894-1.568-.553-.986-1.875-3.272-1.982-3.427a2.704 2.704 0 0 0-1.098-.911c-.426-.198-.67-.242-1.476-.267l-.747-.024-.013-1.244c-.012-1.159-.018-1.253-.093-1.38a.652.652 0 0 0-.466-.327c-.096-.018-1.774-.034-3.729-.035L7.911 1.24l-.266-.175A4.788 4.788 0 0 0 4.551.282M5.98 1.894c.527.173.876.392 1.28.802.521.528.796 1.034.924 1.698a3.222 3.222 0 0 1-.919 2.907c-.364.359-.785.62-1.265.785-.362.124-.409.13-.98.132-.521.002-.639-.01-.899-.092-1.077-.338-1.893-1.125-2.226-2.146-.208-.638-.169-1.571.091-2.198a3.44 3.44 0 0 1 1.726-1.769c.444-.196.777-.253 1.388-.238.472.012.61.031.88.119m8.251 5.656-.011 4.79-.094.18a1.461 1.461 0 0 1-.586.593l-.2.107-5.29.011-5.29.01V9.205l.25.113c1.406.635 3.089.56 4.344-.194.851-.512 1.475-1.178 1.901-2.03.343-.688.478-1.264.481-2.054.003-.764-.12-1.36-.416-2.021l-.117-.259h5.038l-.01 4.79M4.945 3.039a.677.677 0 0 0-.215.129c-.182.167-.21.301-.21.985 0 .555-.009.642-.07.695-.038.033-.271.18-.516.326-.245.146-.502.33-.57.408-.227.258-.152.7.172 1.014a.573.573 0 0 0 .561.155c.188-.041 1.559-.857 1.709-1.018.179-.19.201-.351.187-1.353-.012-.84-.02-.932-.094-1.059a.721.721 0 0 0-.212-.214c-.149-.087-.564-.125-.742-.068m12.352 2.803c.362.136.508.318 1.131 1.406l.565.988-.187.025c-.447.06-.765.223-1.079.555a1.667 1.667 0 0 0-.448.891c-.05.303-.05 3.283 0 3.586.116.708.717 1.312 1.421 1.427.132.022.757.04 1.39.04h1.15v1.292c0 1.426-.017 1.56-.25 2.005a2.67 2.67 0 0 1-.409.524c-.462.462-.937.659-1.589.659-.273 0-.352-.012-.352-.055 0-.104-.317-.684-.499-.915-.488-.617-1.347-1.03-2.141-1.03s-1.653.413-2.141 1.03c-.182.231-.499.811-.499.915 0 .046-.228.055-1.36.055-1.132 0-1.36-.009-1.36-.055 0-.104-.317-.684-.499-.915-.488-.617-1.347-1.03-2.141-1.03s-1.653.413-2.141 1.03c-.182.231-.499.811-.499.915 0 .078-.63.074-.938-.006-.749-.195-1.407-.855-1.602-1.607-.047-.18-.06-.506-.06-1.52V14.76h5.242c5.853 0 5.583.012 6.178-.28.577-.283.98-.674 1.277-1.24.292-.557.278-.36.293-4.11l.013-3.37h.657c.566 0 .688.011.877.082m3.255 5.125.688 1.207v1.066h-1.16c-1.107 0-1.164-.004-1.24-.08-.077-.077-.08-.133-.08-1.66 0-1.914-.063-1.74.632-1.74h.472l.688 1.207m-12.026 7.91c.234.121.482.368.595.593.135.271.153.682.042.975a1.34 1.34 0 0 1-.709.714c-.644.241-1.379-.083-1.617-.714-.11-.292-.093-.712.04-.971.159-.308.47-.579.769-.67.22-.068.681-.029.88.073m8 0c.234.121.482.368.595.593.135.271.153.682.042.975a1.34 1.34 0 0 1-.709.714c-.644.241-1.379-.083-1.617-.714-.11-.292-.093-.712.04-.971.159-.308.47-.579.769-.67.22-.068.681-.029.88.073" fill-rule="evenodd" fill="#000"/></svg>