<svg width="24" height="24" fill="none" xmlns="http://www.w3.org/2000/svg"><path d="M4.484.285c-1.303.14-2.491.821-3.306 1.895C.915 2.527.539 3.312.42 3.765c-.344 1.303-.114 2.728.614 3.807l.206.304.001 4.552c0 2.71.016 4.704.04 4.927.052.493.132.794.319 1.193.399.855.94 1.406 1.78 1.813.509.247.75.309 1.43.368l.549.047.045.142c.122.387.515.935.869 1.213.545.427 1.042.6 1.727.6s1.182-.173 1.727-.6c.357-.28.747-.826.872-1.221l.047-.15h2.708l.047.15c.181.571.708 1.179 1.319 1.522.714.4 1.846.4 2.56 0 .608-.341 1.139-.952 1.316-1.514l.045-.142.549-.047c.68-.059.921-.121 1.43-.368.84-.407 1.381-.958 1.78-1.813.187-.399.267-.7.319-1.193.052-.496.052-5.28-.001-5.507-.021-.094-.361-.735-.755-1.423-.394-.689-.796-1.394-.894-1.568-.553-.986-1.875-3.272-1.982-3.427a2.704 2.704 0 0 0-1.098-.911c-.426-.198-.67-.242-1.476-.267l-.747-.024-.013-1.244c-.012-1.159-.018-1.253-.093-1.38a.652.652 0 0 0-.466-.327c-.096-.018-1.776-.034-3.734-.035L7.9 1.24l-.24-.162A4.881 4.881 0 0 0 4.484.285m1.203 1.533c.599.127 1.071.386 1.537.842.367.36.593.686.77 1.111a3.218 3.218 0 0 1-.706 3.502c-.639.631-1.249.907-2.109.954a3.07 3.07 0 0 1-1.408-.233c-.863-.359-1.582-1.146-1.876-2.054-.207-.638-.169-1.514.093-2.169.378-.945 1.306-1.73 2.302-1.948.332-.073 1.065-.075 1.397-.005m8.544 5.732-.011 4.79-.094.18a1.461 1.461 0 0 1-.586.593l-.2.107-5.29.011-5.29.01V9.209l.327.141a4.944 4.944 0 0 0 3.228.227c1.22-.345 2.35-1.302 2.946-2.493.633-1.264.653-2.738.054-4.074l-.112-.25h5.038l-.01 4.79M6.254 3.264c-.07.034-.496.421-.948.859-.452.438-.835.797-.85.797-.016 0-.165-.123-.332-.274-.344-.31-.505-.406-.684-.406-.281 0-.679.338-.762.648-.084.31-.011.431.627 1.047.317.307.65.612.739.678.212.155.482.187.686.081.192-.099 2.403-2.231 2.507-2.418.188-.334.037-.72-.396-1.01-.125-.083-.42-.084-.587-.002m11.043 2.578c.362.136.508.318 1.131 1.406l.565.988-.187.025c-.447.06-.765.223-1.079.555a1.667 1.667 0 0 0-.448.891c-.05.303-.05 3.283 0 3.586.116.708.717 1.312 1.421 1.427.132.022.757.04 1.39.04h1.15v1.292c0 1.426-.017 1.56-.25 2.005a2.67 2.67 0 0 1-.409.524c-.462.462-.937.659-1.589.659-.273 0-.352-.012-.352-.055 0-.104-.317-.684-.499-.915-.488-.617-1.347-1.03-2.141-1.03s-1.653.413-2.141 1.03c-.182.231-.499.811-.499.915 0 .046-.228.055-1.36.055-1.132 0-1.36-.009-1.36-.055 0-.104-.317-.684-.499-.915-.488-.617-1.347-1.03-2.141-1.03s-1.653.413-2.141 1.03c-.182.231-.499.811-.499.915 0 .078-.63.074-.938-.006-.749-.195-1.407-.855-1.602-1.607-.047-.18-.06-.506-.06-1.52V14.76h5.242c5.853 0 5.583.012 6.178-.28.577-.283.98-.674 1.277-1.24.292-.557.278-.36.293-4.11l.013-3.37h.657c.566 0 .688.011.877.082m3.255 5.125.688 1.207v1.066h-1.16c-1.107 0-1.164-.004-1.24-.08-.077-.077-.08-.133-.08-1.66 0-1.914-.063-1.74.632-1.74h.472l.688 1.207m-12.026 7.91c.234.121.482.368.595.593.135.271.153.682.042.975a1.34 1.34 0 0 1-.709.714c-.644.241-1.379-.083-1.617-.714-.11-.292-.093-.712.04-.971.159-.308.47-.579.769-.67.22-.068.681-.029.88.073m8 0c.234.121.482.368.595.593.135.271.153.682.042.975a1.34 1.34 0 0 1-.709.714c-.644.241-1.379-.083-1.617-.714-.11-.292-.093-.712.04-.971.159-.308.47-.579.769-.67.22-.068.681-.029.88.073" fill-rule="evenodd" fill="#000"/></svg>