<svg width="24" height="24" fill="none" xmlns="http://www.w3.org/2000/svg"><path d="M4.551.282C2.598.456.913 1.885.419 3.789a4.726 4.726 0 0 0 .615 3.798l.206.321.001 4.536c0 2.7.016 4.688.04 4.911.052.493.132.794.319 1.193.399.855.94 1.406 1.78 1.813.509.247.75.309 1.43.368l.549.047.045.142c.122.387.515.935.869 1.213.545.427 1.042.6 1.727.6s1.182-.173 1.727-.6c.357-.28.747-.826.872-1.221l.047-.15h2.708l.047.15c.181.571.708 1.179 1.319 1.522.714.4 1.846.4 2.56 0 .608-.341 1.139-.952 1.316-1.514l.045-.142.549-.047c.68-.059.921-.121 1.43-.368.84-.407 1.381-.958 1.78-1.813.187-.399.267-.7.319-1.193.052-.496.052-5.28-.001-5.507-.021-.094-.361-.735-.755-1.423-.394-.689-.796-1.394-.894-1.568-.553-.986-1.875-3.272-1.982-3.427a2.704 2.704 0 0 0-1.098-.911c-.426-.198-.67-.242-1.476-.267l-.747-.024-.013-1.244c-.012-1.159-.018-1.253-.093-1.38a.652.652 0 0 0-.466-.327c-.096-.018-1.774-.034-3.729-.035L7.911 1.24l-.266-.175A4.788 4.788 0 0 0 4.551.282M5.98 1.894c.527.173.876.392 1.28.802.521.528.796 1.034.924 1.698a3.218 3.218 0 0 1-.907 2.891c-.39.383-.789.633-1.277.8-.359.123-.412.131-.96.132-.677.002-.906-.048-1.46-.317-1.101-.535-1.817-1.667-1.819-2.872-.002-.922.326-1.712.966-2.332.466-.452.915-.707 1.51-.858.457-.116 1.301-.089 1.743.056m8.251 5.656-.011 4.79-.094.18a1.461 1.461 0 0 1-.586.593l-.2.107-5.29.011-5.29.01V9.209l.35.15c.682.291 1.448.43 2.135.386 1.273-.082 2.197-.503 3.118-1.423a4.732 4.732 0 0 0 1.321-2.484c.067-.344.067-1.264 0-1.638a5.583 5.583 0 0 0-.364-1.181l-.117-.259h5.038l-.01 4.79M3.591 3.277a1.09 1.09 0 0 0-.409.551c-.059.2.052.409.419.789l.356.368-.321.317c-.365.36-.476.542-.476.779 0 .198.044.291.235.492.188.198.322.267.525.267.236 0 .418-.112.778-.476l.317-.321.368.356c.38.367.589.478.789.419.367-.109.668-.46.668-.778 0-.23-.125-.431-.496-.797l-.261-.258.336-.348c.246-.256.347-.392.38-.513.067-.247-.005-.453-.237-.686-.233-.232-.439-.304-.686-.237-.121.033-.257.134-.513.38l-.348.336-.258-.261c-.517-.524-.795-.614-1.166-.379m13.706 2.565c.362.136.508.318 1.131 1.406l.565.988-.187.025c-.447.06-.765.223-1.079.555a1.667 1.667 0 0 0-.448.891c-.05.303-.05 3.283 0 3.586.116.708.717 1.312 1.421 1.427.132.022.757.04 1.39.04h1.15v1.292c0 1.426-.017 1.56-.25 2.005a2.67 2.67 0 0 1-.409.524c-.462.462-.937.659-1.589.659-.273 0-.352-.012-.352-.055 0-.104-.317-.684-.499-.915-.488-.617-1.347-1.03-2.141-1.03s-1.653.413-2.141 1.03c-.182.231-.499.811-.499.915 0 .046-.228.055-1.36.055-1.132 0-1.36-.009-1.36-.055 0-.104-.317-.684-.499-.915-.488-.617-1.347-1.03-2.141-1.03s-1.653.413-2.141 1.03c-.182.231-.499.811-.499.915 0 .078-.63.074-.938-.006-.749-.195-1.407-.855-1.602-1.607-.047-.18-.06-.506-.06-1.52V14.76h5.242c5.853 0 5.583.012 6.178-.28.577-.283.98-.674 1.277-1.24.292-.557.278-.36.293-4.11l.013-3.37h.657c.566 0 .688.011.877.082m3.255 5.125.688 1.207v1.066h-1.16c-1.107 0-1.164-.004-1.24-.08-.077-.077-.08-.133-.08-1.66 0-1.914-.063-1.74.632-1.74h.472l.688 1.207m-12.026 7.91c.234.121.482.368.595.593.135.271.153.682.042.975a1.34 1.34 0 0 1-.709.714c-.644.241-1.379-.083-1.617-.714-.11-.292-.093-.712.04-.971.159-.308.47-.579.769-.67.22-.068.681-.029.88.073m8 0c.234.121.482.368.595.593.135.271.153.682.042.975a1.34 1.34 0 0 1-.709.714c-.644.241-1.379-.083-1.617-.714-.11-.292-.093-.712.04-.971.159-.308.47-.579.769-.67.22-.068.681-.029.88.073" fill-rule="evenodd" fill="#000"/></svg>