<svg width="24" height="24" fill="none" xmlns="http://www.w3.org/2000/svg"><path d="M8.08 1.282c-4.072.213-6.185 2.014-6.697 5.709-.113.812-.141 1.825-.141 5.009 0 4.504.06 5.273.518 6.65.772 2.313 2.446 3.576 5.267 3.972.759.106 1.875.137 4.973.137s4.214-.031 4.973-.137c2.47-.347 4.023-1.334 4.924-3.132.482-.96.741-2.121.823-3.683.051-.969.051-6.645 0-7.614-.063-1.195-.199-2.002-.478-2.837-.61-1.825-1.773-2.989-3.592-3.596-.862-.287-1.627-.416-2.844-.48-.854-.045-6.854-.043-7.726.002m8.72 1.572c2.786.462 3.914 1.6 4.348 4.386.066.421.072.824.072 4.76s-.006 4.339-.072 4.76c-.436 2.798-1.59 3.952-4.388 4.388-.421.066-.824.072-4.76.072s-4.339-.006-4.76-.072c-2.79-.435-3.957-1.597-4.386-4.368-.069-.445-.074-.791-.074-4.78 0-4.753-.004-4.663.264-5.712C3.557 4.282 4.722 3.274 6.96 2.9c.73-.123 1.088-.131 5.24-.123 3.763.007 4.222.014 4.6.077M10.72 5.72c-.998.132-1.426.59-1.607 1.723-.047.295-.1.552-.116.571-.016.019-.252.051-.523.071-.272.02-.971.081-1.554.137-1.189.113-1.346.157-1.485.417-.099.185-.099.565.001.784.149.328.37.407.978.347.243-.024.359-.021.37.008.008.023.105 1.437.215 3.142.109 1.705.219 3.242.243 3.415.119.855.437 1.35 1.069 1.664.318.157.662.24 1.185.283.553.046 4.461.047 5.004.001 1.257-.105 1.926-.591 2.18-1.583.081-.318.116-.76.359-4.56.066-1.034.131-1.998.144-2.141l.023-.262.367.035c.497.046.69.013.85-.147.219-.219.29-.711.142-.986-.137-.256-.307-.306-1.345-.397a90.863 90.863 0 0 0-1.559-.122c-.667-.045-.699-.056-.701-.24-.002-.247-.204-1.07-.319-1.304-.198-.401-.563-.675-1.078-.807-.263-.067-2.42-.105-2.843-.049m2.568 1.53c.035.028.084.172.111.33.026.154.057.312.068.352.019.069-.048.072-1.454.056-1.225-.014-1.472-.026-1.466-.073.052-.409.109-.64.167-.674.105-.061 2.496-.053 2.574.009m1.592 2.311c.429.026.792.06.806.074.041.04-.387 6.414-.45 6.694-.053.239-.203.37-.487.429-.146.03-1.05.041-2.871.033-2.497-.01-2.668-.016-2.83-.086-.21-.092-.275-.209-.329-.593-.051-.362-.448-6.477-.422-6.502.017-.017.577-.063 1.263-.104.548-.033 4.577.009 5.32.055" fill-rule="evenodd" fill="#000"/></svg>