<svg width="24" height="24" fill="none" xmlns="http://www.w3.org/2000/svg"><path d="M6.32 4.92c-.232.064-.406.22-1.745 1.567-1.489 1.497-1.532 1.551-1.481 1.861.012.077.094.232.181.346.266.343 2.731 2.764 2.891 2.838a.539.539 0 0 0 .485.014c.457-.191.681-.708.464-1.066-.047-.077-.375-.433-.729-.792l-.644-.652 4.959.015c4.585.013 4.982.019 5.259.085.858.204 1.501.539 2.075 1.084a4.179 4.179 0 0 1 1.322 2.711 4.222 4.222 0 0 1-1.238 3.385c-.53.53-1.188.907-1.951 1.116l-.388.107-4.487.02c-4.454.021-4.488.022-4.598.103-.234.175-.275.274-.275.658 0 .401.057.525.303.65.128.065.427.07 4.537.07 3.672 0 4.46-.01 4.761-.059a5.75 5.75 0 0 0 4.454-7.763c-.662-1.719-2.222-3.076-4.015-3.491-.68-.157-1.026-.167-6.014-.167H5.621l.725-.73c.4-.401.755-.788.79-.858.079-.159.083-.42.007-.566-.082-.159-.4-.439-.531-.468l-.152-.035a.383.383 0 0 0-.14.017" fill-rule="evenodd" fill="#000"/></svg>