<svg width="24" height="24" fill="none" xmlns="http://www.w3.org/2000/svg"><path d="M5.88 6.744c-1.035.189-1.571.394-2.32.89-.862.569-1.633 1.55-1.978 2.516-.553 1.544-.406 3.18.41 4.55a5.366 5.366 0 0 0 3.489 2.487c.479.103 1.678.103 2.159 0a5.597 5.597 0 0 0 2.821-1.525c.22-.221.494-.539.608-.706.114-.167.822-1.328 1.573-2.58s1.443-2.384 1.537-2.516a5.12 5.12 0 0 1 .944-.928 5.277 5.277 0 0 1 1.057-.519 3.822 3.822 0 0 1 4.872 2.387c.134.391.187.732.187 1.2 0 1.053-.367 1.935-1.116 2.682a3.74 3.74 0 0 1-4.703.509 5.129 5.129 0 0 1-.823-.731c-.426-.515-.608-.623-.911-.542-.199.054-.467.249-.567.413-.095.156-.103.426-.018.605.096.202.499.675.838.983a5.23 5.23 0 0 0 2.619 1.296 6.417 6.417 0 0 0 1.762.003 5.283 5.283 0 0 0 3.829-2.803A4.97 4.97 0 0 0 22.727 12c0-2.032-1.107-3.824-2.931-4.742a5.897 5.897 0 0 0-1.496-.48c-.529-.087-1.565-.059-2.06.056-1.259.293-2.448 1.054-3.196 2.047-.128.17-.841 1.324-1.585 2.564-.743 1.24-1.442 2.39-1.553 2.555-1.273 1.895-3.916 2.372-5.663 1.021A3.806 3.806 0 0 1 3.151 13.7a3.453 3.453 0 0 1-.4-1.7c0-1.001.348-1.881 1.027-2.595.705-.741 1.545-1.134 2.55-1.192a3.536 3.536 0 0 1 1.848.373c.512.251.722.429 1.512 1.283.267.289.575.303.936.044.413-.297.437-.687.069-1.15A5.459 5.459 0 0 0 7.72 6.837c-.265-.066-.494-.088-1.04-.098a10.126 10.126 0 0 0-.8.005" fill-rule="evenodd" fill="#000"/></svg>