<svg width="24" height="24" fill="none" xmlns="http://www.w3.org/2000/svg"><path d="M11.169 1.281c-3.049.198-4.877 1.492-5.585 3.952-.22.764-.295 1.442-.33 2.968l-.026 1.14-.444.073c-.971.158-1.76.523-2.303 1.067-.672.671-1.013 1.559-1.168 3.039-.072.69-.072 4.269 0 4.96.154 1.473.499 2.371 1.168 3.039.668.669 1.563 1.012 3.039 1.168.391.041 1.808.053 6.48.053 4.672 0 6.089-.012 6.48-.053 1.476-.156 2.371-.499 3.039-1.168.669-.668 1.014-1.566 1.168-3.039.072-.69.072-4.27 0-4.96-.154-1.472-.499-2.37-1.167-3.039-.65-.651-1.507-.989-2.96-1.166-.265-.032-2.114-.051-6.09-.063l-5.71-.017v-.973c0-1.06.04-1.586.166-2.202.385-1.872 1.414-2.827 3.433-3.187.582-.103 1.993-.143 2.72-.077 2.076.191 3.329.928 3.845 2.262.179.464.275.958.315 1.631.038.639.078.766.286.921.217.162.698.169.933.015.257-.168.306-.394.257-1.177-.169-2.709-1.574-4.346-4.243-4.944-.89-.2-2.245-.291-3.303-.223m7.751 9.586c1.231.241 1.73.618 2.041 1.544.241.715.259.968.259 3.589 0 2.121-.008 2.427-.073 2.815-.136.804-.342 1.297-.689 1.643-.346.347-.839.553-1.643.689-.409.069-.817.073-6.815.073-6.023 0-6.405-.004-6.82-.074-.783-.132-1.385-.387-1.679-.711-.308-.339-.522-.875-.647-1.615-.066-.394-.074-.689-.074-2.82 0-2.621.018-2.874.259-3.589.214-.639.498-.981 1.02-1.231.426-.204.756-.28 1.721-.395.066-.008 2.955-.011 6.42-.007 6.176.007 6.308.009 6.72.089m-7.515 1.938c-.615.102-1.189.412-1.689.911-.651.652-.955 1.379-.955 2.284 0 .905.304 1.632.955 2.284.652.651 1.379.955 2.284.955.905 0 1.632-.304 2.284-.955.651-.652.955-1.379.955-2.284 0-.905-.304-1.632-.955-2.284-.665-.664-1.395-.963-2.324-.951-.187.002-.437.02-.555.04m.888 1.474c.341.056.638.208.909.466a1.717 1.717 0 0 1 0 2.51 1.709 1.709 0 0 1-2.404 0 1.713 1.713 0 0 1-.053-2.457 1.677 1.677 0 0 1 1.548-.519" fill-rule="evenodd" fill="#000"/></svg>