<svg width="24" height="24" fill="none" xmlns="http://www.w3.org/2000/svg"><path d="M8.08 1.282c-4.072.213-6.185 2.014-6.697 5.709-.112.808-.141 1.821-.142 4.909 0 3.147.031 4.273.14 5.06.439 3.189 2.01 4.944 4.962 5.541 1.14.231 1.319.239 5.657.239s4.517-.008 5.657-.239c2.951-.597 4.523-2.353 4.962-5.541.108-.784.14-1.91.14-5.02 0-3.04-.031-4.156-.137-4.913-.263-1.87-.936-3.286-1.981-4.17-1.164-.983-2.63-1.461-4.835-1.577-.854-.045-6.854-.043-7.726.002m8.72 1.572c2.786.462 3.914 1.6 4.348 4.386.066.421.072.824.072 4.76 0 3.956-.006 4.337-.072 4.76-.103.651-.205 1.089-.351 1.502-.257.729-.524 1.148-1.047 1.64-.343.324-.972.736-1.027.673a2.057 2.057 0 0 1-.122-.295c-.245-.697-.683-1.364-1.3-1.98-1.35-1.348-3.196-2.068-5.301-2.068s-3.951.72-5.301 2.068c-.617.616-1.055 1.283-1.3 1.98a2.057 2.057 0 0 1-.122.295c-.055.063-.684-.349-1.027-.673-.788-.742-1.146-1.549-1.398-3.142-.066-.423-.072-.804-.072-4.76 0-4.753-.004-4.663.264-5.712C3.557 4.282 4.722 3.274 6.96 2.9c.73-.123 1.088-.131 5.24-.123 3.763.007 4.222.014 4.6.077m-5.22 3.41c-.672.098-1.037.205-1.52.447-.937.469-1.709 1.304-2.082 2.254-.233.591-.276.842-.276 1.615 0 .616.013.766.088 1.04.239.874.61 1.504 1.239 2.104 1.29 1.229 3.153 1.539 4.793.798.776-.351 1.562-1.094 1.991-1.882.573-1.052.67-2.454.246-3.578-.517-1.374-1.743-2.428-3.167-2.722-.307-.064-1.087-.109-1.312-.076m1.012 1.558c.938.189 1.778.933 2.084 1.844.185.554.18 1.307-.014 1.864-.274.787-.928 1.437-1.737 1.727-.325.116-.378.123-.925.123s-.6-.007-.925-.123a2.988 2.988 0 0 1-1.508-1.229c-.492-.819-.508-1.998-.038-2.823a2.842 2.842 0 0 1 3.063-1.383m.508 9.998c1.933.334 3.429 1.404 4.05 2.897.123.296.117.349-.04.377-.678.12-.919.126-5.11.126-4.191 0-4.432-.006-5.11-.126-.157-.028-.163-.081-.04-.377.668-1.605 2.337-2.713 4.454-2.956.423-.048 1.351-.018 1.796.059" fill-rule="evenodd" fill="#000"/></svg>