<svg width="24" height="24" fill="none" xmlns="http://www.w3.org/2000/svg"><path d="M11.533 1.282A5.733 5.733 0 0 0 6.851 4.46c-.779 1.563-.779 3.517 0 5.08a5.75 5.75 0 0 0 7.044 2.878 5.853 5.853 0 0 0 1.892-1.105 5.753 5.753 0 0 0 1.631-6.208c-.647-1.872-2.301-3.329-4.229-3.722-.257-.053-1.2-.154-1.269-.137-.011.003-.185.019-.387.036m1.487 1.591c.555.156.898.309 1.33.595.632.416 1.242 1.136 1.519 1.792.314.741.349.914.349 1.74s-.035.999-.349 1.74c-.371.878-1.251 1.758-2.129 2.129-.741.314-.914.349-1.74.349s-.999-.035-1.74-.349c-.92-.389-1.788-1.281-2.177-2.238-.258-.636-.303-.881-.301-1.651.001-.573.015-.731.089-1.006.459-1.694 1.756-2.866 3.529-3.19.055-.01.379-.012.72-.004.461.01.692.034.9.093m4.559 10.407c-.994.087-2.068.548-2.726 1.17-.144.136-.066.138-.984-.025-4.095-.724-8.338.984-10.225 4.115a7.33 7.33 0 0 0-.851 2.167c-.066.302-.087.539-.089 1.02-.004.698.018.767.294.929.172.101.606.104.813.006.25-.119.315-.276.352-.848.018-.275.063-.647.1-.827.5-2.453 2.875-4.486 5.917-5.064.735-.139 1.21-.174 2.064-.152.759.019 1.476.09 1.476.145 0 .013-.054.157-.121.32a4.862 4.862 0 0 0-.318 2.196c.197 2.258 2.034 4.088 4.299 4.285a4.722 4.722 0 0 0 4.999-3.521c.432-1.625-.03-3.329-1.231-4.535a4.69 4.69 0 0 0-3.769-1.381m1.079 1.54a3.33 3.33 0 0 1 2.365 1.981c.617 1.516-.085 3.355-1.558 4.08-.531.262-.922.359-1.449.359-.95 0-1.626-.289-2.338-.999-.29-.289-.373-.405-.55-.761-.302-.606-.381-.967-.357-1.62.032-.852.278-1.451.84-2.045.509-.537 1.046-.848 1.713-.993.34-.074.99-.075 1.334-.002M16.7 16.235c-.175.079-.441.35-.502.51-.111.292-.005.533.41.932l.309.298-.332.344c-.392.407-.496.617-.429.867.054.199.285.473.487.575.321.164.545.079.996-.378.164-.167.318-.303.341-.303.023 0 .159.119.301.264.404.414.534.496.779.496.167 0 .24-.023.37-.117.247-.179.379-.376.4-.598.025-.257-.043-.378-.452-.803l-.335-.347.263-.258c.412-.402.494-.532.494-.777a.517.517 0 0 0-.117-.37c-.187-.258-.377-.381-.616-.4-.179-.014-.231 0-.387.105a3.645 3.645 0 0 0-.437.381l-.256.26-.324-.305c-.315-.296-.561-.449-.723-.449a.808.808 0 0 0-.24.073" fill-rule="evenodd" fill="#000"/></svg>