<svg width="24" height="24" fill="none" xmlns="http://www.w3.org/2000/svg"><path d="M5.353 1.321A3.758 3.758 0 0 0 2.547 3.56c-.301.73-.281.288-.297 6.58-.014 5.707-.004 6.179.133 6.712.162.633.673 1.439 1.172 1.85.796.654 1.529.896 2.725.898.727.002 1.069.054 1.431.22.314.144.463.273 1.569 1.362.954.939 1.16 1.116 1.507 1.292.694.352 1.825.334 2.49-.04.356-.199.484-.313 1.583-1.393.879-.865 1.083-1.046 1.32-1.168.154-.08.352-.167.44-.193.088-.027.574-.062 1.08-.079 1.079-.037 1.337-.089 1.96-.398a3.718 3.718 0 0 0 2.009-2.575c.066-.305.071-.733.071-6.188 0-5.529-.004-5.879-.073-6.2-.297-1.376-1.271-2.416-2.67-2.847l-.297-.092-6.58-.006c-3.619-.004-6.664.008-6.767.026m13.422 1.566c.698.271 1.225.849 1.405 1.541.092.35.09 11.68-.001 12.03-.183.702-.768 1.304-1.519 1.563-.154.053-.418.076-1.14.1-.774.026-.992.047-1.235.117-.889.257-1.199.475-2.519 1.777-.975.961-1.088 1.06-1.306 1.142-.313.118-.749.103-1.02-.036-.113-.058-.558-.465-1.2-1.098-1.086-1.07-1.348-1.285-1.883-1.541-.567-.271-.85-.325-1.897-.363-.506-.018-.992-.054-1.08-.08-.725-.213-1.374-.871-1.559-1.581-.091-.35-.093-11.68-.001-12.03a2.277 2.277 0 0 1 1.72-1.627c.088-.018 3.04-.03 6.56-.027l6.4.006.275.107M11.36 4.66c-1.128.227-2.072 1.147-2.363 2.303-.09.356-.072 1.155.035 1.529a3.095 3.095 0 0 0 2.348 2.191 3.52 3.52 0 0 0 1.7-.128c.877-.317 1.624-1.128 1.88-2.041a3.11 3.11 0 0 0-.385-2.52c-.336-.508-.931-1.002-1.43-1.189a3.535 3.535 0 0 0-1.785-.145m.922 1.46c.321.061.596.206.821.432.477.482.602 1.176.323 1.787-.132.288-.479.634-.775.773-.205.096-.278.108-.651.108s-.446-.012-.651-.108c-.296-.139-.643-.485-.775-.773a1.595 1.595 0 0 1 1.391-2.255c.057-.002.2.014.317.036m-.744 5.561c-2.399.196-4.236 1.872-4.269 3.895-.007.448.06.597.33.734.355.18.888.073 1.046-.21.039-.068.086-.296.111-.529.049-.458.137-.728.337-1.027.295-.442.857-.891 1.382-1.105.538-.219.769-.258 1.525-.258.756 0 .987.039 1.525.258.525.214 1.087.663 1.382 1.105.201.3.289.572.336 1.028.025.242.07.457.11.528.162.283.693.39 1.048.21.267-.136.333-.281.328-.73-.016-1.591-1.209-3.05-2.969-3.633a5.806 5.806 0 0 0-2.222-.266" fill-rule="evenodd" fill="#000"/></svg>