<svg width="24" height="24" fill="none" xmlns="http://www.w3.org/2000/svg"><path d="M18.579.28a4.683 4.683 0 0 0-2.835 1.279c-.322.306-.728.815-.866 1.085l-.076.148-.311-.096c-.953-.294-1.86-.422-2.991-.422-1.112.001-1.972.12-2.95.411-1.197.355-2.531 1.064-3.54 1.88A13.144 13.144 0 0 0 3.565 6.01a11.36 11.36 0 0 0-1.601 2.739c-.775 1.946-.914 4.205-.387 6.296.181.718.363 1.204.745 1.985a9.846 9.846 0 0 0 1.936 2.712c.767.767 1.622 1.39 2.562 1.867 1.55.787 2.933 1.117 4.68 1.117 1.743 0 3.134-.332 4.68-1.117.94-.477 1.795-1.1 2.562-1.867 1.616-1.617 2.605-3.631 2.922-5.956.074-.544.085-1.849.02-2.406a12.515 12.515 0 0 0-.36-1.788l-.114-.388.365-.229c.482-.303 1.125-.95 1.419-1.425 1.192-1.932.932-4.304-.646-5.889A4.69 4.69 0 0 0 18.579.28m1.079 1.54a3.33 3.33 0 0 1 2.365 1.981c.344.844.279 1.866-.171 2.731-.154.295-.267.444-.572.752-.437.44-.653.575-1.262.782-.422.144-.459.15-.998.152-.66.002-.902-.051-1.44-.315a3.249 3.249 0 0 1-1.682-3.835c.176-.601.401-.966.869-1.414a3.138 3.138 0 0 1 1.557-.832c.34-.074.99-.075 1.334-.002m-.871.978a.65.65 0 0 0-.443.321c-.06.102-.081.234-.096.622l-.019.491-.531.014c-.466.012-.546.025-.645.098-.197.147-.273.324-.273.636s.076.489.273.636c.099.073.179.086.645.098l.532.014.018.53c.019.579.063.712.285.878.095.071.169.084.467.084.298 0 .372-.013.467-.084.222-.166.266-.299.285-.878l.018-.53.532-.014c.466-.012.546-.025.645-.098.197-.147.273-.324.273-.636s-.076-.489-.273-.636c-.099-.074-.179-.086-.65-.098l-.537-.014-.002-.366c-.003-.617-.081-.844-.342-.992-.144-.081-.427-.115-.629-.076m-6.159 1.023a9.96 9.96 0 0 1 1.502.323c.178.058.188.069.16.169-.058.205-.03 1.25.041 1.589.205.971.619 1.737 1.305 2.419.45.446.778.688 1.268.933a4.712 4.712 0 0 0 2.344.489c.236-.013.455-.034.488-.047.044-.017.079.047.143.262.245.82.359 1.625.36 2.53.003 1.956-.592 3.744-1.76 5.292-.295.391-.935 1.089-1.118 1.219l-.114.082-.069-.211c-.566-1.739-2.246-3.083-4.398-3.521-.376-.076-.567-.089-1.32-.089-.753 0-.944.013-1.32.089-1.57.319-2.908 1.122-3.729 2.237-.246.334-.565.941-.654 1.244-.027.094-.072.17-.1.17-.074 0-.825-.806-1.137-1.22a8.783 8.783 0 0 1-1.702-4.178c-.09-.714-.064-1.934.055-2.602a8.714 8.714 0 0 1 2.446-4.681 8.69 8.69 0 0 1 5.001-2.495c.578-.077 1.725-.078 2.308-.003M10.94 7.402A3.605 3.605 0 0 0 8.032 9.98c-.078.272-.092.414-.092.94s.014.668.092.94a3.579 3.579 0 0 0 1.859 2.239c.562.277.898.352 1.569.352.671 0 1.007-.075 1.569-.352a3.579 3.579 0 0 0 1.859-2.239c.078-.272.092-.414.092-.94s-.014-.668-.092-.94c-.351-1.225-1.341-2.197-2.548-2.502-.37-.093-1.052-.131-1.4-.076m.807 1.481c.451.062.835.256 1.169.591.922.928.77 2.435-.32 3.163a2.084 2.084 0 0 1-2.272 0 2.045 2.045 0 0 1-.32-3.163c.316-.317.722-.531 1.116-.587l.287-.042a3.65 3.65 0 0 1 .34.038m.512 7.898c1.24.186 2.295.75 2.953 1.577.389.488.692 1.218.66 1.59-.011.141-.028.157-.332.319-.809.43-1.94.785-2.9.91-.625.081-1.655.081-2.28 0-.982-.128-2.106-.484-2.94-.934l-.36-.193.004-.217c.002-.119.036-.315.076-.435.393-1.199 1.483-2.126 2.943-2.503a5.552 5.552 0 0 1 2.176-.114" fill-rule="evenodd" fill="#000"/></svg>