<svg width="24" height="24" fill="none" xmlns="http://www.w3.org/2000/svg"><path d="M11.74 1.268a3.883 3.883 0 0 0-1.48.403c-.404.202-5.896 3.374-6.3 3.639-.913.599-1.485 1.443-1.727 2.55-.077.35-.077 7.93 0 8.28.241 1.104.813 1.954 1.703 2.535.429.279 5.916 3.45 6.324 3.654a3.557 3.557 0 0 0 1.713.398c.674.001 1.197-.114 1.727-.378.349-.174 6.157-3.532 6.437-3.722.661-.446 1.241-1.233 1.495-2.027.191-.6.188-.517.188-4.6 0-4.084.003-4.002-.189-4.6-.257-.803-.828-1.578-1.494-2.027-.28-.19-6.088-3.548-6.437-3.722-.551-.275-1.3-.422-1.96-.383m.737 1.531c.114.022.32.09.458.15.137.061 1.626.903 3.308 1.871 2.922 1.682 3.07 1.773 3.361 2.06.331.327.543.695.655 1.138.091.358.091 7.606 0 7.964a2.365 2.365 0 0 1-.657 1.137c-.292.288-.441.379-3.361 2.061-1.681.968-3.165 1.809-3.299 1.868-.353.159-.625.204-1.082.182a2.082 2.082 0 0 1-.663-.117c-.318-.118-6.397-3.622-6.657-3.837A2.457 2.457 0 0 1 3.731 16c-.066-.24-.071-.549-.071-4 0-4.203-.017-3.946.304-4.563.318-.612.341-.628 3.838-2.645 1.705-.984 3.168-1.817 3.251-1.851a2.663 2.663 0 0 1 1.424-.142M11.36 5.66c-1.128.227-2.072 1.147-2.363 2.303-.09.356-.072 1.155.035 1.529a3.095 3.095 0 0 0 2.348 2.191 3.52 3.52 0 0 0 1.7-.128c.877-.317 1.624-1.128 1.88-2.041a3.11 3.11 0 0 0-.385-2.52c-.336-.508-.931-1.002-1.43-1.189a3.535 3.535 0 0 0-1.785-.145m.922 1.46c.321.061.596.206.821.432.477.482.602 1.176.323 1.787-.132.288-.479.634-.775.773-.205.096-.278.108-.651.108s-.446-.012-.651-.108c-.296-.139-.643-.485-.775-.773a1.595 1.595 0 0 1 1.391-2.255c.057-.002.2.014.317.036m-.744 5.561c-2.399.196-4.236 1.872-4.269 3.895-.007.448.06.597.33.734.355.18.888.073 1.046-.21.039-.068.086-.296.111-.529.049-.458.137-.728.337-1.027.295-.442.857-.891 1.382-1.105.538-.219.769-.258 1.525-.258.756 0 .987.039 1.525.258.525.214 1.087.663 1.382 1.105.201.3.289.572.336 1.028.025.242.07.457.11.528.162.283.693.39 1.048.21.267-.136.333-.281.328-.73-.016-1.591-1.209-3.05-2.969-3.633a5.806 5.806 0 0 0-2.222-.266" fill-rule="evenodd" fill="#000"/></svg>