<svg width="24" height="24" fill="none" xmlns="http://www.w3.org/2000/svg"><path d="M11.533 1.282A5.733 5.733 0 0 0 6.851 4.46c-.779 1.563-.779 3.517 0 5.08a5.75 5.75 0 0 0 7.044 2.878 5.853 5.853 0 0 0 1.892-1.105 5.753 5.753 0 0 0 1.631-6.208c-.647-1.872-2.301-3.329-4.229-3.722-.257-.053-1.2-.154-1.269-.137-.011.003-.185.019-.387.036m1.487 1.591c.555.156.898.309 1.33.595.632.416 1.242 1.136 1.519 1.792.314.741.349.914.349 1.74s-.035.999-.349 1.74c-.371.878-1.251 1.758-2.129 2.129-.741.314-.914.349-1.74.349s-.999-.035-1.74-.349c-.92-.389-1.788-1.281-2.177-2.238-.258-.636-.303-.881-.301-1.651.001-.573.015-.731.089-1.006.459-1.694 1.756-2.866 3.529-3.19.055-.01.379-.012.72-.004.461.01.692.034.9.093m-1.78 11.409c-3.523.229-6.617 2.133-7.927 4.878a7.83 7.83 0 0 0-.52 1.547c-.066.302-.087.539-.089 1.02-.004.698.018.767.294.929.172.101.606.104.813.006.25-.119.315-.276.352-.848.018-.275.063-.647.1-.827.445-2.186 2.422-4.092 5.025-4.847.81-.235 1.395-.33 2.321-.377.722-.037.839-.071 1.001-.288.106-.142.155-.433.113-.66-.094-.502-.38-.604-1.483-.533m6.54.002a3.91 3.91 0 0 0-2.362 1.134c-1.341 1.341-1.534 3.387-.472 5.012.193.296.728.831 1.024 1.024 1.308.855 2.965.907 4.242.133l.193-.117.629.621c.699.691.807.755 1.131.668.221-.06.534-.373.594-.594.087-.324.023-.432-.668-1.131l-.621-.629.117-.193c.545-.899.692-2.075.391-3.115a3.78 3.78 0 0 0-.996-1.679c-.665-.664-1.461-1.037-2.425-1.136a6.737 6.737 0 0 0-.431-.037c-.014.003-.17.021-.346.039m1.016 1.537c.409.097.785.316 1.126.657.496.497.717 1.026.717 1.722s-.221 1.225-.717 1.722c-.497.496-1.026.717-1.722.717s-1.225-.221-1.722-.717c-.496-.497-.717-1.026-.717-1.722s.221-1.225.717-1.722c.334-.334.717-.56 1.108-.655a3.303 3.303 0 0 1 1.21-.002" fill-rule="evenodd" fill="#000"/></svg>