<svg width="24" height="24" fill="none" xmlns="http://www.w3.org/2000/svg"><path d="M11.533 1.282A5.733 5.733 0 0 0 6.851 4.46c-.779 1.563-.779 3.517 0 5.08a5.75 5.75 0 0 0 7.044 2.878 5.853 5.853 0 0 0 1.892-1.105 5.753 5.753 0 0 0 1.631-6.208c-.647-1.872-2.301-3.329-4.229-3.722-.257-.053-1.2-.154-1.269-.137-.011.003-.185.019-.387.036m1.487 1.591c.555.156.898.309 1.33.595.632.416 1.242 1.136 1.519 1.792.314.741.349.914.349 1.74s-.035.999-.349 1.74c-.371.878-1.251 1.758-2.129 2.129-.741.314-.914.349-1.74.349s-.999-.035-1.74-.349c-.92-.389-1.788-1.281-2.177-2.238-.258-.636-.303-.881-.301-1.651.001-.573.015-.731.089-1.006.459-1.694 1.756-2.866 3.529-3.19.055-.01.379-.012.72-.004.461.01.692.034.9.093m-1.78 11.411c-3.509.219-6.617 2.131-7.927 4.876a7.83 7.83 0 0 0-.52 1.547c-.066.302-.087.539-.089 1.02-.004.698.018.767.294.929.172.101.606.104.813.006.25-.119.315-.276.352-.848.018-.275.063-.647.1-.827.5-2.453 2.875-4.486 5.917-5.064.737-.139 1.209-.174 2.064-.152.909.024 1.34.081 2.204.294.634.156.782.158.969.01.156-.123.271-.381.294-.661.035-.444-.129-.592-.871-.789a11.753 11.753 0 0 0-3.6-.341m8.47.25a2.766 2.766 0 0 0-.545.28c-.356.243-4.138 4.026-4.295 4.297-.162.277-.218.497-.334 1.325-.164 1.163-.107 1.51.311 1.91.41.393.725.439 1.886.276.797-.111 1.017-.167 1.307-.331.103-.058.851-.763 1.74-1.639l1.631-1.605c.282-.268.853-.921.987-1.129a1.953 1.953 0 0 0-.002-2.159c-.361-.559-.994-1.081-1.502-1.238a2.04 2.04 0 0 0-1.184.013m.842 1.462c.171.087.528.45.623.634a.592.592 0 0 1 .065.22c0 .12-.185.407-.387.6l-.157.15-.198-.124a2.885 2.885 0 0 1-.784-.774l-.156-.237.191-.196c.209-.214.421-.344.563-.347a.66.66 0 0 1 .24.074m-1.976 1.688c.11.186.567.657.799.824l.223.161c.025.019-2.237 2.285-2.334 2.338-.075.041-1.292.232-1.317.206-.008-.007.029-.305.08-.663l.094-.65 1.169-1.17a47.103 47.103 0 0 1 1.191-1.17c.012 0 .055.056.095.124" fill-rule="evenodd" fill="#000"/></svg>