<svg width="24" height="24" fill="none" xmlns="http://www.w3.org/2000/svg"><path d="M11.533 1.282A5.733 5.733 0 0 0 6.851 4.46c-.779 1.563-.779 3.517 0 5.08a5.75 5.75 0 0 0 7.044 2.878 5.853 5.853 0 0 0 1.892-1.105 5.753 5.753 0 0 0 1.631-6.208c-.647-1.872-2.301-3.329-4.229-3.722-.257-.053-1.2-.154-1.269-.137-.011.003-.185.019-.387.036m1.487 1.591c.555.156.898.309 1.33.595.632.416 1.242 1.136 1.519 1.792.314.741.349.914.349 1.74s-.035.999-.349 1.74c-.371.878-1.251 1.758-2.129 2.129-.741.314-.914.349-1.74.349s-.999-.035-1.74-.349c-.92-.389-1.788-1.281-2.177-2.238-.258-.636-.303-.881-.301-1.651.001-.573.015-.731.089-1.006.459-1.694 1.756-2.866 3.529-3.19.055-.01.379-.012.72-.004.461.01.692.034.9.093m-1.78 11.412c-3.499.212-6.617 2.13-7.927 4.875a7.83 7.83 0 0 0-.52 1.547c-.066.302-.087.539-.089 1.02-.004.698.018.767.294.929.172.101.606.104.813.006.25-.119.315-.276.352-.848.056-.85.231-1.507.581-2.169.979-1.856 2.91-3.2 5.316-3.701 1.215-.253 2.751-.246 3.96.02 2.392.525 4.266 1.842 5.236 3.681.35.662.525 1.319.581 2.169.037.572.102.729.352.848.207.098.641.095.813-.006.277-.162.299-.231.294-.929-.005-.704-.076-1.118-.311-1.82-.497-1.484-1.54-2.832-2.965-3.83-1.186-.83-2.696-1.43-4.22-1.676-.445-.071-1.656-.169-1.92-.155l-.64.039" fill-rule="evenodd" fill="#000"/></svg>