<svg width="24" height="24" fill="none" xmlns="http://www.w3.org/2000/svg"><path d="M11.533 1.282A5.733 5.733 0 0 0 6.851 4.46c-.779 1.563-.779 3.517 0 5.08a5.75 5.75 0 0 0 7.044 2.878 5.853 5.853 0 0 0 1.892-1.105 5.753 5.753 0 0 0 1.631-6.208c-.647-1.872-2.301-3.329-4.229-3.722-.257-.053-1.2-.154-1.269-.137-.011.003-.185.019-.387.036m1.487 1.591c.555.156.898.309 1.33.595.632.416 1.242 1.136 1.519 1.792.314.741.349.914.349 1.74s-.035.999-.349 1.74c-.371.878-1.251 1.758-2.129 2.129-.741.314-.914.349-1.74.349s-.999-.035-1.74-.349c-.92-.389-1.788-1.281-2.177-2.238-.258-.636-.303-.881-.301-1.651.001-.573.015-.731.089-1.006.459-1.694 1.756-2.866 3.529-3.19.055-.01.379-.012.72-.004.461.01.692.034.9.093m4.531 10.409a4.643 4.643 0 0 0-2.622 1.108c-.178.15-.232.175-.34.159a51.56 51.56 0 0 1-.72-.124c-4.095-.724-8.338.984-10.225 4.115a7.33 7.33 0 0 0-.851 2.167c-.066.302-.087.539-.089 1.02-.004.698.018.767.294.929.172.101.606.104.813.006.25-.119.315-.276.352-.848.018-.275.063-.647.1-.827.183-.899.637-1.783 1.309-2.548 1.282-1.461 3.174-2.38 5.432-2.64.736-.085 2.716.007 2.716.126 0 .018-.046.137-.102.264-.264.594-.4 1.513-.336 2.256.113 1.301.828 2.57 1.896 3.365a5.42 5.42 0 0 0 1.59.771c1.182.312 2.524.149 3.521-.428 2.286-1.322 3.101-4.059 1.899-6.372-.872-1.677-2.715-2.67-4.637-2.499m1.429 1.612c.528.174.874.392 1.304.822.653.652.912 1.24.945 2.144.024.654-.055 1.015-.357 1.62-.176.352-.265.476-.551.765-.692.701-1.384.995-2.337.995-1.755 0-3.221-1.461-3.223-3.212-.002-.922.326-1.712.966-2.332.466-.452.915-.707 1.51-.858.457-.116 1.301-.089 1.743.056m.306 1.414c-.073.036-.515.42-.982.853l-.848.788-.343-.331c-.393-.38-.555-.453-.838-.377-.221.06-.534.373-.594.594-.087.324-.023.432.673 1.138.344.349.693.669.774.711a.654.654 0 0 0 .577.011c.128-.061 1.519-1.317 2.225-2.009.375-.368.468-.561.393-.811-.053-.179-.316-.488-.489-.578a.668.668 0 0 0-.548.011" fill-rule="evenodd" fill="#000"/></svg>