<svg width="24" height="24" fill="none" xmlns="http://www.w3.org/2000/svg"><path d="M11.46 1.305a3.274 3.274 0 0 0-.822.317c-.123.074-.627.479-1.12.901-.562.479-.98.805-1.118.87-.218.103-.23.104-1.48.13-1.386.028-1.459.039-1.96.301-.669.349-1.183.983-1.36 1.676-.07.274-.08.444-.08 1.358 0 1.099-.027 1.328-.197 1.653-.043.082-.386.509-.762.949-.815.954-1.034 1.265-1.163 1.662-.087.265-.098.367-.097.918.002.569.01.642.105.89.165.428.315.64 1.133 1.603.587.691.791.96.862 1.136.088.218.095.299.119 1.471.023 1.119.034 1.265.112 1.5.129.39.355.747.671 1.06a2.57 2.57 0 0 0 1.024.651c.287.104.32.106 1.553.129 1.106.02 1.282.032 1.44.097.238.099.318.161 1.209.929.417.361.838.71.936.777.495.341 1.1.504 1.715.462.832-.056 1.1-.2 2.319-1.246.733-.629 1.004-.838 1.177-.907.209-.082.307-.09 1.444-.112l1.22-.023.342-.121a2.688 2.688 0 0 0 1.654-1.654l.121-.342.025-1.22c.015-.728.043-1.274.07-1.354.081-.241.199-.4.923-1.239.393-.456.789-.944.88-1.085.421-.651.517-1.633.234-2.402-.13-.354-.371-.689-1.127-1.56-.503-.581-.747-.896-.836-1.08l-.126-.26-.023-1.24c-.02-1.104-.032-1.267-.105-1.487a2.854 2.854 0 0 0-1.083-1.427c-.592-.392-.796-.433-2.269-.462-1.194-.024-1.201-.025-1.42-.13-.138-.067-.549-.391-1.099-.867-.954-.826-1.143-.959-1.588-1.117-.252-.09-.369-.106-.833-.115a5.792 5.792 0 0 0-.62.01m1.086 1.567c.092.047.561.425 1.044.84.938.807 1.188.981 1.634 1.141.419.149.794.187 1.852.187 1.082 0 1.202.023 1.5.284.1.089.229.26.292.387l.112.229.021 1.22c.021 1.206.023 1.224.133 1.54.188.538.325.741 1.153 1.706.44.512.823.977.853 1.033.155.301.148.836-.015 1.147-.045.085-.408.532-.808.994-.778.898-.933 1.109-1.089 1.482-.191.457-.198.513-.224 1.798-.023 1.189-.028 1.248-.117 1.428a1.43 1.43 0 0 1-.599.599c-.18.089-.239.094-1.408.117-1.349.026-1.461.043-1.972.299-.372.187-.355.174-1.328 1.017-.954.825-1.127.931-1.536.933-.477.003-.566-.049-1.621-.952-.994-.85-1.236-1.013-1.763-1.184-.259-.085-.374-.093-1.52-.115-1.154-.021-1.253-.029-1.426-.108a1.458 1.458 0 0 1-.602-.582c-.088-.165-.092-.22-.114-1.412-.023-1.208-.026-1.248-.131-1.56-.173-.519-.38-.83-1.166-1.753-.408-.481-.783-.949-.831-1.04-.129-.243-.129-.81 0-1.067.05-.099.433-.583.851-1.076.418-.494.813-.989.877-1.101.065-.113.176-.375.248-.584l.131-.379.022-1.22c.019-1.133.027-1.233.105-1.4.116-.246.347-.471.613-.595.221-.103.235-.104 1.463-.128 1.36-.026 1.421-.036 1.943-.298.325-.164.47-.274 1.332-1.013.863-.74.945-.801 1.154-.87.247-.08.727-.052.937.056m2.774 6.011c-.077.046-1.13 1.073-2.341 2.281l-2.201 2.198-1.013-1.019c-1.125-1.132-1.218-1.2-1.53-1.106-.09.027-.24.12-.335.207-.293.271-.368.536-.233.83.08.173 2.506 2.633 2.77 2.808a.622.622 0 0 0 .59.076c.14-.052 5.098-4.99 5.257-5.236.157-.24.155-.444-.003-.695-.24-.377-.655-.526-.961-.344" fill-rule="evenodd" fill="#000"/></svg>