<svg width="24" height="24" fill="none" xmlns="http://www.w3.org/2000/svg"><path d="M21.76 1.461c-.085.039-.977.899-2.287 2.207l-2.146 2.143-.043-.155a1.27 1.27 0 0 1-.044-.203c0-.027-.053-.186-.118-.355-.522-1.355-1.604-2.024-3.579-2.216-.585-.056-7.766-.057-8.363 0-2.077.197-3.236 1.059-3.684 2.74-.227.856-.227.85-.245 5.818-.018 4.782-.002 5.446.147 6.11.219.975.6 1.697 1.223 2.316l.328.326-.737.734c-.895.893-.985 1.014-.962 1.301.029.374.401.733.759.733.108 0 .236-.02.284-.044.048-.025 3.399-3.347 7.447-7.384l7.427-7.406c1.914-1.9 5.56-5.617 5.591-5.699a.628.628 0 0 0-.078-.595c-.237-.357-.613-.508-.92-.371m-8.406 2.9c.955.084 1.548.276 1.919.619.436.404.608.898.612 1.756l.002.517-5.913 5.913c-3.253 3.253-5.939 5.914-5.971 5.914-.031 0-.194-.141-.362-.314a3.224 3.224 0 0 1-.77-1.386l-.088-.32-.014-4.94c-.014-5.14-.007-5.402.155-6.035.288-1.128.926-1.578 2.436-1.722.505-.048 7.455-.05 7.994-.002m8.245 1.729a.67.67 0 0 0-.258.23c-.08.138-.081.213-.101 5.08-.022 5.347-.008 5.04-.235 5.29-.138.152-.381.15-.705-.005-.132-.063-.816-.52-1.52-1.014l-1.28-.9-.02-2.082c-.02-2.039-.022-2.086-.104-2.196-.33-.443-1.204-.351-1.333.14-.023.086-.046 1.468-.056 3.347-.015 2.751-.027 3.248-.083 3.54-.263 1.361-.711 1.805-2.084 2.067-.315.06-.772.071-3.62.091-3.101.021-3.266.026-3.385.097-.209.127-.275.282-.275.645 0 .363.066.518.275.645.12.072.262.075 3.425.075 3.473 0 3.613-.006 4.34-.187 1.468-.366 2.324-1.221 2.694-2.693.075-.3.131-.684.197-1.374l.029-.293.82.576c.998.701 1.222.839 1.573.97 1.311.491 2.445-.147 2.773-1.559.07-.302.074-.588.074-5.22 0-4.846-.001-4.902-.081-5.04C22.548 6.127 22.286 6 22 6a.86.86 0 0 0-.401.09" fill-rule="evenodd" fill="#000"/></svg>