<svg width="24" height="24" fill="none" xmlns="http://www.w3.org/2000/svg"><path d="M8.08 1.282c-4.072.213-6.185 2.014-6.697 5.709-.113.812-.141 1.825-.141 5.009 0 4.504.06 5.273.518 6.65.772 2.313 2.446 3.576 5.267 3.972.77.108 1.89.138 5.167.137l3.255-.001.285.184c.723.464 1.432.7 2.336.777 2.873.244 5.396-1.893 5.65-4.784a5.106 5.106 0 0 0-.753-3.165l-.207-.329V12.19c-.001-3.279-.031-4.397-.138-5.163-.263-1.87-.936-3.286-1.981-4.17-1.164-.983-2.63-1.461-4.835-1.577-.854-.045-6.854-.043-7.726.002m6.64 3.278v1.8H9.28v-3.6h5.44v1.8m-6.96.02v1.78H5.4c-2.004 0-2.36-.009-2.36-.056 0-.119.248-.808.409-1.137.538-1.102 1.478-1.794 2.911-2.143.41-.1 1.069-.212 1.29-.22l.11-.004v1.78m9.035-1.718c1.922.279 3.108 1 3.739 2.272.171.345.426 1.045.426 1.17 0 .047-.356.056-2.36.056h-2.36V4.58c0-1.615.006-1.78.065-1.78.036 0 .256.028.49.062m4.42 5.103c.014.069.025 1.455.025 3.08v2.956l-.35-.176c-.816-.408-1.453-.557-2.39-.557-.906 0-1.59.156-2.347.534a5.69 5.69 0 0 0-1.882 1.578c-.447.602-.831 1.513-.96 2.277-.082.48-.057 1.457.047 1.923.113.501.272.941.481 1.327.088.165.161.308.161.318 0 .011-1.435.013-3.19.005-2.786-.014-3.243-.024-3.61-.085-2.77-.455-3.891-1.576-4.346-4.345-.062-.374-.071-.869-.084-4.52-.008-2.255-.004-4.176.01-4.27l.025-.17H21.19l.025.125m-1.974 6.875a3.513 3.513 0 0 1 1.869 1.008c.642.652.964 1.256 1.092 2.046.062.384.029 1.162-.064 1.506-.36 1.339-1.382 2.379-2.678 2.724-.403.108-1.151.145-1.566.078-.8-.129-1.478-.501-2.096-1.147a3.198 3.198 0 0 1-.683-.997c-.258-.549-.326-.868-.331-1.538-.003-.451.013-.647.073-.879.268-1.051.832-1.813 1.746-2.363.332-.2.903-.41 1.29-.474a4.178 4.178 0 0 1 1.348.036m-2.19 1.745c-.187.093-.438.382-.494.57-.079.261.02.452.484.938l.394.413-.342.337c-.602.592-.692.834-.454 1.21.155.243.439.427.661.427.22 0 .434-.143.857-.573l.337-.342.413.394c.486.464.677.563.938.484.192-.057.481-.311.571-.501.152-.321.067-.525-.446-1.065l-.38-.399.402-.413c.454-.467.526-.614.447-.91-.06-.221-.373-.534-.594-.594-.296-.079-.443-.007-.91.448l-.414.402-.393-.377c-.533-.512-.758-.606-1.077-.449" fill-rule="evenodd" fill="#000"/></svg>