<svg width="24" height="24" fill="none" xmlns="http://www.w3.org/2000/svg"><path d="M8.08 1.282c-4.072.213-6.185 2.014-6.697 5.709-.113.812-.141 1.825-.141 5.009 0 4.504.06 5.273.518 6.65.772 2.313 2.446 3.576 5.267 3.972.759.106 1.875.137 4.973.137s4.214-.031 4.973-.137c2.47-.347 4.023-1.334 4.924-3.132.482-.96.741-2.121.823-3.683.051-.969.051-6.645 0-7.614-.063-1.195-.199-2.002-.478-2.837-.61-1.825-1.773-2.989-3.592-3.596-.862-.287-1.627-.416-2.844-.48-.854-.045-6.854-.043-7.726.002m6.64 3.278v1.8H9.28v-3.6h5.44v1.8m-6.96.02v1.78H5.4c-2.004 0-2.36-.009-2.36-.056 0-.119.248-.808.409-1.137.538-1.102 1.478-1.794 2.911-2.143.41-.1 1.069-.212 1.29-.22l.11-.004v1.78m9.035-1.718c1.922.279 3.108 1 3.739 2.272.171.345.426 1.045.426 1.17 0 .047-.356.056-2.36.056h-2.36V4.58c0-1.615.006-1.78.065-1.78.036 0 .256.028.49.062M21.22 8.01c.014.094.018 2.015.01 4.27-.016 4.503-.009 4.356-.27 5.408-.456 1.831-1.44 2.816-3.272 3.272-1.066.266-.943.26-5.688.26-3.936 0-4.339-.006-4.76-.072-2.786-.434-3.929-1.567-4.386-4.348-.062-.374-.071-.869-.084-4.52-.008-2.255-.004-4.176.01-4.27l.025-.17h18.39l.025.17m-10.422 2.792c-.926.137-1.557.819-1.741 1.881-.052.303-.06.636-.047 1.951.015 1.496.02 1.603.104 1.879.135.449.31.758.581 1.028.571.569 1.353.722 2.219.436.365-.121 2.612-1.387 3.098-1.747.905-.668 1.214-1.743.763-2.657-.263-.532-.638-.871-1.555-1.403-2.031-1.177-2.182-1.252-2.74-1.353-.334-.06-.366-.061-.682-.015m.782 1.592c.336.159 2.326 1.311 2.52 1.458.34.257.451.496.358.767-.101.293-.229.385-1.753 1.262-1.074.617-1.366.757-1.589.758-.203.001-.397-.142-.516-.379l-.1-.2-.013-1.408c-.014-1.444.01-1.806.137-2.074.15-.316.526-.388.956-.184" fill-rule="evenodd" fill="#000"/></svg>