<svg width="24" height="24" fill="none" xmlns="http://www.w3.org/2000/svg"><path d="M8.08 1.282c-4.072.213-6.185 2.014-6.697 5.709-.113.812-.141 1.825-.141 5.009 0 4.504.06 5.273.518 6.65.772 2.313 2.446 3.576 5.267 3.972.759.106 1.875.137 4.973.137s4.214-.031 4.973-.137c2.47-.347 4.023-1.334 4.924-3.132.482-.96.741-2.121.823-3.683.051-.969.051-6.645 0-7.614-.063-1.195-.199-2.002-.478-2.837-.61-1.825-1.773-2.989-3.592-3.596-.862-.287-1.627-.416-2.844-.48-.854-.045-6.854-.043-7.726.002m8.72 1.572c2.786.462 3.914 1.6 4.348 4.386.066.421.072.824.072 4.76s-.006 4.339-.072 4.76c-.436 2.798-1.59 3.952-4.388 4.388-.421.066-.824.072-4.76.072s-4.339-.006-4.76-.072c-2.79-.435-3.957-1.597-4.386-4.368-.069-.445-.074-.791-.074-4.78 0-4.753-.004-4.663.264-5.712C3.557 4.282 4.722 3.274 6.96 2.9c.73-.123 1.088-.131 5.24-.123 3.763.007 4.222.014 4.6.077m-6.44 4.811c-.959.187-1.638.876-1.904 1.935-.07.275-.076.473-.075 2.42 0 2.07.002 2.128.089 2.44.145.518.348.878.69 1.221.345.346.587.488 1.023.6.532.136 1.098.082 1.739-.164.277-.107 2.92-1.605 3.38-1.916.535-.362.887-.759 1.126-1.272.519-1.115.038-2.392-1.201-3.182-.42-.269-2.895-1.684-3.127-1.79-.445-.201-.775-.281-1.22-.297a4.08 4.08 0 0 0-.52.005m.78 1.516c.271.083.48.194 1.96 1.05 1.457.842 1.55.902 1.75 1.123.217.24.286.396.286.646a.836.836 0 0 1-.07.352 1.9 1.9 0 0 1-.524.566c-.232.159-2.668 1.565-3.002 1.732-.808.406-1.369.24-1.611-.476-.055-.165-.067-.461-.08-1.987-.009-1.17.001-1.893.03-2.08.119-.787.587-1.13 1.261-.926" fill-rule="evenodd" fill="#000"/></svg>