<svg width="24" height="24" fill="none" xmlns="http://www.w3.org/2000/svg"><path d="M11.32 1.281c-4.279.244-8.068 3.128-9.477 7.216a10.886 10.886 0 0 0-.279 6.053 10.76 10.76 0 0 0 7.886 7.886 10.96 10.96 0 0 0 5.1 0 10.76 10.76 0 0 0 7.886-7.886 10.96 10.96 0 0 0 0-5.1 10.758 10.758 0 0 0-8.694-8.052c-.408-.067-1.668-.169-1.862-.151l-.56.034m1.826 1.541a9.086 9.086 0 0 1 2.914.874c2.817 1.383 4.708 4.026 5.118 7.158.123.932.066 2.172-.144 3.144-.289 1.345-1.031 2.857-1.913 3.902a9.31 9.31 0 0 1-3.061 2.404 8.94 8.94 0 0 1-4.06.936 8.93 8.93 0 0 1-4.06-.936c-2.817-1.383-4.708-4.026-5.118-7.158-.123-.932-.066-2.172.144-3.144.211-.982.737-2.227 1.302-3.082a9.335 9.335 0 0 1 6.552-4.097c.56-.077 1.749-.077 2.326-.001M10.36 7.665c-.959.187-1.638.876-1.904 1.935-.07.275-.076.473-.075 2.42 0 2.07.002 2.128.089 2.44.145.518.348.878.69 1.221.345.346.587.488 1.023.6.532.136 1.098.082 1.739-.164.277-.107 2.92-1.605 3.38-1.916.535-.362.887-.759 1.126-1.272.519-1.115.038-2.392-1.201-3.182-.42-.269-2.895-1.684-3.127-1.79-.445-.201-.775-.281-1.22-.297a4.08 4.08 0 0 0-.52.005m.78 1.516c.271.083.48.194 1.96 1.05 1.457.842 1.55.902 1.75 1.123.217.24.286.396.286.646a.836.836 0 0 1-.07.352 1.9 1.9 0 0 1-.524.566c-.232.159-2.668 1.565-3.002 1.732-.808.406-1.369.24-1.611-.476-.056-.165-.067-.462-.08-2.013-.009-1.211.001-1.905.03-2.08.13-.768.597-1.101 1.261-.9" fill-rule="evenodd" fill="#000"/></svg>