<svg width="24" height="24" fill="none" xmlns="http://www.w3.org/2000/svg"><path d="M8.08 1.282c-4.072.213-6.185 2.014-6.697 5.709-.113.812-.141 1.825-.141 5.009 0 4.504.06 5.273.518 6.65.772 2.313 2.446 3.576 5.267 3.972.766.107 1.884.137 5.163.138h3.251l.329.207c.943.591 2.017.845 3.174.751.91-.074 1.696-.34 2.396-.81 1.384-.93 2.249-2.373 2.378-3.968.097-1.193-.185-2.341-.804-3.274l-.156-.234.001-3.246c.001-3.269-.029-4.389-.137-5.159-.263-1.87-.936-3.286-1.981-4.17-1.164-.983-2.63-1.461-4.835-1.577-.854-.045-6.854-.043-7.726.002m6.64 3.278v1.8H9.28v-3.6h5.44v1.8m-6.96.02v1.78H5.4c-2.004 0-2.36-.009-2.36-.056 0-.119.248-.808.409-1.137.538-1.102 1.478-1.794 2.911-2.143.41-.1 1.069-.212 1.29-.22l.11-.004v1.78m9.035-1.718c1.922.279 3.108 1 3.739 2.272.171.345.426 1.045.426 1.17 0 .047-.356.056-2.36.056h-2.36V4.58c0-1.615.006-1.78.065-1.78.036 0 .256.028.49.062m4.42 5.103c.036.179.031 6.045-.005 6.026-.729-.375-1.244-.563-1.85-.676-.394-.073-1.433-.064-1.84.017-1 .198-1.882.66-2.654 1.39a5.358 5.358 0 0 0-1.551 2.918c-.085.494-.064 1.466.043 1.94.113.501.273.941.481 1.327.088.165.161.308.161.318 0 .011-1.435.013-3.19.005-2.786-.014-3.243-.024-3.61-.085-2.77-.455-3.891-1.576-4.346-4.345-.062-.374-.071-.869-.084-4.52-.008-2.255-.004-4.176.01-4.27l.025-.17H21.19l.025.125m-1.995 6.871c.749.155 1.365.478 1.875.983.799.792 1.146 1.609 1.144 2.695a3.774 3.774 0 0 1-3.096 3.684 5.125 5.125 0 0 1-1.286 0 3.844 3.844 0 0 1-2.425-1.57 3.741 3.741 0 0 1 1.328-5.441 3.731 3.731 0 0 1 2.46-.351m.782 1.832c-.116.059-1.243 1.066-1.931 1.726l-.19.182-.393-.386c-.412-.405-.517-.47-.764-.47-.294 0-.698.372-.75.69-.045.277.042.411.702 1.083.762.776.91.887 1.184.887a.533.533 0 0 0 .344-.1c.08-.055.72-.633 1.423-1.285.858-.794 1.303-1.234 1.351-1.336.258-.543-.448-1.26-.976-.991" fill-rule="evenodd" fill="#000"/></svg>