<svg width="24" height="24" fill="none" xmlns="http://www.w3.org/2000/svg"><path d="M8.44 1.264c-1.639.093-1.97.146-3.02.48-2.347.746-3.648 2.437-4.037 5.247-.113.812-.141 1.825-.141 5.009 0 4.504.06 5.273.518 6.65.772 2.313 2.446 3.576 5.267 3.972.759.106 1.875.137 4.973.137s4.214-.031 4.973-.137c2.47-.347 4.023-1.334 4.924-3.132.482-.96.741-2.121.823-3.683.051-.969.051-6.645 0-7.614-.063-1.195-.199-2.002-.478-2.837-.707-2.113-2.136-3.328-4.542-3.859-.946-.209-1.249-.223-5.3-.235a323.691 323.691 0 0 0-3.96.002m2.8 3.296v1.8H7.72V2.805l.15-.016c.083-.008.875-.019 1.76-.022l1.61-.007v1.8m4.814-1.775.186.026V6.36h-3.48v-3.6h1.554c.855 0 1.638.011 1.74.025m2.072.377c1.141.373 1.938 1.026 2.408 1.972.171.345.426 1.045.426 1.17 0 .047-.253.056-1.62.056h-1.62V4.7c0-.913.007-1.66.016-1.66.009 0 .185.055.39.122M6.24 4.72v1.64h-1.6c-1.35 0-1.6-.009-1.6-.056 0-.125.254-.824.424-1.165.461-.929 1.245-1.586 2.336-1.955.491-.167.44-.346.44 1.536m5 7.38v4.26H2.812l-.026-.27c-.033-.349-.034-7.96-.001-8.125l.025-.125h8.43v4.26m9.975-4.135c.033.165.032 7.776-.001 8.125l-.026.27H12.76V7.84h8.43l.025.125M6.23 19.395l.011 1.534-.151-.027c-.21-.039-.821-.285-1.126-.454a3.751 3.751 0 0 1-1.381-1.357c-.144-.246-.431-.928-.479-1.141l-.026-.111 1.571.011 1.571.01.01 1.535m5.01.145v1.7H9.69c-.852-.001-1.644-.012-1.76-.026l-.21-.025V17.84h3.52v1.7m4.99-.015.011 1.664-.186.026c-.102.014-.886.025-1.741.025H12.76v-3.401l1.73.011 1.73.01.01 1.665m4.666-1.575c-.048.213-.335.895-.479 1.141-.483.826-1.242 1.404-2.291 1.747a8.775 8.775 0 0 1-.39.122c-.009 0-.016-.702-.016-1.56v-1.56h3.202l-.026.11" fill-rule="evenodd" fill="#000"/></svg>