<svg width="24" height="24" fill="none" xmlns="http://www.w3.org/2000/svg"><path d="M5.122 2.882c-1.795.178-2.924.905-3.462 2.231-.136.333-.284.966-.348 1.487-.076.611-.075 10.027 0 10.52.175 1.14.596 2.032 1.285 2.723.697.698 1.559 1.1 2.702 1.258.401.055.962.061 4.43.048 3.842-.015 3.985-.018 4.411-.1 1.262-.243 2.038-.691 2.583-1.493.423-.624.617-1.314.748-2.67l.029-.293.82.576c.998.701 1.222.839 1.573.97 1.311.491 2.445-.147 2.773-1.559.07-.301.074-.572.074-4.58s-.004-4.279-.074-4.58c-.144-.621-.46-1.128-.881-1.416-.609-.415-1.455-.407-2.265.021-.143.075-.656.414-1.14.752l-.88.616-.029-.287c-.07-.704-.122-1.068-.197-1.366-.355-1.412-1.148-2.249-2.502-2.641-.814-.236-.747-.233-5.212-.242-2.255-.004-4.252.007-4.438.025m8.718 1.532c1.378.273 1.822.727 2.067 2.114.068.384.073.757.073 5.472 0 4.736-.005 5.087-.074 5.477-.243 1.377-.702 1.845-2.066 2.106-.347.067-.703.075-4.1.088-3.972.015-4.225.006-4.856-.177a2.61 2.61 0 0 1-1.224-.714c-.267-.264-.357-.387-.511-.7a4.773 4.773 0 0 1-.277-.72l-.09-.34-.013-4.92c-.014-5.118-.007-5.383.155-6.015.288-1.128.919-1.574 2.436-1.723.187-.018 2.095-.029 4.24-.024 3.469.008 3.938.017 4.24.076m7.172 2.9c.235.25.228.101.228 4.686 0 4.594.008 4.436-.231 4.69-.143.152-.385.15-.709-.005-.132-.063-.816-.52-1.52-1.014l-1.28-.9v-5.55l1.24-.873c1.438-1.013 1.492-1.047 1.776-1.12.266-.068.369-.05.496.086m-9.832-.033A2.21 2.21 0 0 0 9.27 9.48c-.003.649.2 1.15.65 1.6.443.443.948.651 1.58.651.632 0 1.137-.208 1.58-.651.443-.443.651-.948.651-1.58 0-.632-.208-1.137-.651-1.58a2.227 2.227 0 0 0-1.9-.639m.764 1.622c.229.185.303.352.287.646-.012.203-.036.274-.134.395-.185.229-.352.303-.646.287-.203-.012-.274-.036-.395-.134-.229-.185-.303-.352-.287-.646.012-.203.036-.274.134-.395.185-.229.352-.303.646-.287.203.012.274.036.395.134" fill-rule="evenodd" fill="#000"/></svg>