<svg width="24" height="24" fill="none" xmlns="http://www.w3.org/2000/svg"><path d="M8.08 1.282c-4.072.213-6.185 2.014-6.697 5.709-.113.812-.141 1.825-.141 5.009 0 4.504.06 5.273.518 6.65.772 2.313 2.446 3.576 5.267 3.972.766.107 1.884.137 5.165.138h3.252l.228.155c.9.61 2.088.902 3.269.803a4.333 4.333 0 0 0 1.159-.226c1.836-.585 3.225-2.185 3.563-4.102.084-.481.083-1.37-.002-1.85a5.138 5.138 0 0 0-.747-1.874l-.156-.234.001-3.246c.001-3.269-.029-4.389-.137-5.159-.263-1.87-.936-3.286-1.981-4.17-1.164-.983-2.63-1.461-4.835-1.577-.854-.045-6.854-.043-7.726.002m6.64 3.278v1.8H9.28v-3.6h5.44v1.8m-6.96.02v1.78H5.4c-2.004 0-2.36-.009-2.36-.056 0-.119.248-.808.409-1.137.538-1.102 1.478-1.794 2.911-2.143.41-.1 1.069-.212 1.29-.22l.11-.004v1.78m9.035-1.718c1.922.279 3.108 1 3.739 2.272.171.345.426 1.045.426 1.17 0 .047-.356.056-2.36.056h-2.36V4.58c0-1.615.006-1.78.065-1.78.036 0 .256.028.49.062m4.42 5.103c.036.179.031 6.045-.005 6.026-.729-.375-1.244-.563-1.85-.676-.394-.073-1.433-.064-1.84.017-1 .198-1.882.66-2.654 1.39a5.342 5.342 0 0 0-1.55 2.918c-.065.374-.065 1.373 0 1.72.113.612.269 1.04.676 1.852.009.018-1.421.026-3.178.018-2.79-.014-3.247-.024-3.614-.085-2.77-.455-3.891-1.576-4.346-4.345-.062-.374-.071-.869-.084-4.52-.008-2.255-.004-4.176.01-4.27l.025-.17H21.19l.025.125m-1.995 6.871a3.828 3.828 0 0 1 2.332 1.491c.717.957.894 2.35.445 3.513-.476 1.235-1.602 2.154-2.894 2.362-.422.068-1.196.029-1.603-.081-1.109-.302-2.105-1.223-2.501-2.316-.578-1.592-.071-3.298 1.281-4.313a3.688 3.688 0 0 1 2.94-.656m-.873 1.608c-.266.141-.305.289-.306 1.164l-.001.747-.55.328c-.585.349-.743.472-.834.645-.2.384.225 1.072.663 1.072.179 0 .329-.072 1.053-.506.889-.532.977-.596 1.068-.775.074-.144.08-.236.08-1.205 0-.984-.005-1.059-.084-1.223-.115-.237-.305-.332-.664-.329-.193.001-.317.025-.425.082" fill-rule="evenodd" fill="#000"/></svg>