<svg width="24" height="24" fill="none" xmlns="http://www.w3.org/2000/svg"><path d="M11.74 1.268a3.883 3.883 0 0 0-1.48.403c-.404.202-5.896 3.374-6.3 3.639-.913.599-1.485 1.443-1.727 2.55-.077.35-.077 7.93 0 8.28.241 1.104.813 1.954 1.703 2.535.429.279 5.916 3.45 6.324 3.654a3.557 3.557 0 0 0 1.713.398c.674.001 1.197-.114 1.727-.378.349-.174 6.157-3.532 6.437-3.722.661-.446 1.241-1.233 1.495-2.027.191-.6.188-.517.188-4.6 0-4.084.003-4.002-.189-4.6-.257-.803-.828-1.578-1.494-2.027-.28-.19-6.088-3.548-6.437-3.722-.551-.275-1.3-.422-1.96-.383m.737 1.531c.114.022.32.09.458.15.137.061 1.626.903 3.308 1.871 2.922 1.682 3.07 1.773 3.361 2.06.331.327.543.695.655 1.138.091.358.091 7.606 0 7.964a2.365 2.365 0 0 1-.657 1.137c-.292.288-.441.379-3.361 2.061-1.681.968-3.165 1.809-3.299 1.868-.353.159-.625.204-1.082.182a2.082 2.082 0 0 1-.663-.117c-.231-.086-6.079-3.429-6.498-3.715a2.508 2.508 0 0 1-.929-1.255l-.11-.323v-3.78c0-4.248-.017-3.985.304-4.603.318-.612.341-.628 3.838-2.645 1.705-.984 3.168-1.817 3.251-1.851a2.663 2.663 0 0 1 1.424-.142m-1.783 5.56c-.444.095-.912.388-1.169.732-.208.278-.305.48-.414.856-.088.304-.091.363-.091 2.053 0 1.698.002 1.748.092 2.059.248.856.797 1.401 1.577 1.567.483.102 1.092.006 1.611-.256.385-.193 2.362-1.342 2.602-1.512.576-.407.969-.989 1.059-1.568.122-.788-.276-1.595-1.059-2.148-.24-.17-2.217-1.319-2.602-1.512-.471-.237-1.194-.359-1.606-.271m.844 1.561c.241.104 2.459 1.392 2.63 1.527.207.163.312.349.312.553 0 .204-.105.39-.312.553-.175.138-2.387 1.421-2.648 1.536-.249.11-.565.112-.709.006-.303-.227-.342-.503-.321-2.286.018-1.473.032-1.59.215-1.807.175-.209.473-.238.833-.082" fill-rule="evenodd" fill="#000"/></svg>