<svg width="24" height="24" fill="none" xmlns="http://www.w3.org/2000/svg"><path d="M8.08 1.282c-4.072.213-6.185 2.014-6.697 5.709-.113.812-.141 1.825-.141 5.009 0 4.504.06 5.273.518 6.65.772 2.313 2.446 3.576 5.267 3.972.77.108 1.89.138 5.167.137l3.255-.001.285.184c.723.464 1.432.7 2.336.777 2.873.244 5.396-1.893 5.65-4.784a5.106 5.106 0 0 0-.753-3.165l-.207-.329V12.19c-.001-3.279-.031-4.397-.138-5.163-.263-1.87-.936-3.286-1.981-4.17-1.164-.983-2.63-1.461-4.835-1.577-.854-.045-6.854-.043-7.726.002m6.64 3.278v1.8H9.28v-3.6h5.44v1.8m-6.96.02v1.78H5.4c-2.004 0-2.36-.009-2.36-.056 0-.119.248-.808.409-1.137.538-1.102 1.478-1.794 2.911-2.143.41-.1 1.069-.212 1.29-.22l.11-.004v1.78m9.035-1.718c1.922.279 3.108 1 3.739 2.272.171.345.426 1.045.426 1.17 0 .047-.356.056-2.36.056h-2.36V4.58c0-1.615.006-1.78.065-1.78.036 0 .256.028.49.062m4.42 5.103c.036.179.031 6.044-.005 6.028a43.552 43.552 0 0 1-.35-.179c-.74-.381-1.469-.549-2.38-.547-.887.002-1.579.162-2.327.535a5.69 5.69 0 0 0-1.882 1.578c-.447.602-.831 1.513-.96 2.277-.082.48-.057 1.457.047 1.923.113.501.272.941.481 1.327.088.165.161.308.161.318 0 .011-1.435.013-3.19.005-2.786-.014-3.243-.024-3.61-.085-2.77-.455-3.891-1.576-4.346-4.345-.062-.374-.071-.869-.084-4.52-.008-2.255-.004-4.176.01-4.27l.025-.17H21.19l.025.125m-1.979 6.874c.883.18 1.573.597 2.148 1.297.453.551.713 1.111.818 1.758.062.384.029 1.162-.064 1.506-.36 1.339-1.382 2.379-2.678 2.724-.403.108-1.151.145-1.566.078a3.663 3.663 0 0 1-1.569-.666c-.291-.22-.755-.692-.91-.927a4.835 4.835 0 0 1-.542-1.198c-.118-.435-.127-1.339-.016-1.77.268-1.051.832-1.813 1.746-2.363.332-.2.903-.41 1.29-.474a4.173 4.173 0 0 1 1.343.035m-.941 1.278c-.229.038-.369.141-.457.336-.063.137-.076.264-.077.712l-.001.544-.615.019c-.717.022-.828.062-.975.351-.184.364-.073.885.225 1.057.113.064.237.08.75.096l.615.019v.586c0 .528.009.603.09.764.126.248.282.328.647.33.365.002.525-.078.653-.33.081-.161.09-.236.09-.765v-.586l.612-.017c.715-.019.83-.06.978-.352.185-.366.073-.885-.228-1.059-.117-.067-.233-.081-.75-.095l-.612-.017v-.546c0-.488-.01-.566-.09-.725a.67.67 0 0 0-.21-.244c-.147-.081-.424-.115-.645-.078" fill-rule="evenodd" fill="#000"/></svg>