<svg width="24" height="24" fill="none" xmlns="http://www.w3.org/2000/svg"><path d="M8.08 1.282c-4.072.213-6.185 2.014-6.697 5.709-.113.812-.141 1.825-.141 5.009s.028 4.197.141 5.009c.384 2.775 1.665 4.461 3.973 5.233.835.279 1.642.415 2.837.478.969.051 6.645.051 7.614 0 1.195-.063 2.002-.199 2.837-.478 2.113-.707 3.336-2.146 3.859-4.544.22-1.009.233-1.325.235-5.578.003-5.003-.013-5.226-.476-6.683-.594-1.872-1.761-3.059-3.612-3.677-.862-.287-1.627-.416-2.844-.48-.854-.045-6.854-.043-7.726.002m7.955 1.503.125.025v8.43H7.64V2.804l.19-.015c.333-.026 8.075-.03 8.205-.004m2.091.377c1.049.343 1.808.921 2.291 1.747.168.287.445.961.485 1.181l.027.15H17.64v-1.6c0-1.35.009-1.6.056-1.6.031 0 .225.055.43.122M6.15 4.65l-.01 1.57-1.535.01-1.534.011.027-.151c.04-.22.317-.894.485-1.181a3.676 3.676 0 0 1 1.55-1.442c.315-.156.901-.383.997-.386.017-.001.026.705.02 1.569m.01 4.83v1.76h-3.4V9.69c.001-.852.012-1.644.026-1.76l.025-.21H6.16v1.76m15.054-1.55c.014.116.025.908.026 1.76v1.55h-3.6V7.72h3.549l.025.21M6.15 14.49l-.01 1.73-1.665.01-1.664.011-.026-.186c-.014-.102-.025-.886-.025-1.741V12.76h3.401l-.011 1.73m10.01 2.485v4.215l-.125.025c-.165.033-7.776.032-8.125-.001l-.27-.026V12.76h8.52v4.215m5.08-2.661c0 .855-.011 1.638-.025 1.74l-.026.186H17.64v-3.48h3.6v1.554M6.16 19.321v1.601l-.11-.026c-.213-.048-.895-.335-1.141-.479-.826-.483-1.404-1.242-1.747-2.291a8.775 8.775 0 0 1-.122-.39c0-.009.702-.016 1.56-.016h1.56v1.601m14.8-1.585c0 .009-.055.185-.122.39-.373 1.142-1.026 1.938-1.974 2.409-.343.17-1.043.425-1.168.425-.047 0-.056-.253-.056-1.62v-1.62h1.66c.913 0 1.66.007 1.66.016" fill-rule="evenodd" fill="#000"/></svg>