<svg width="24" height="24" fill="none" xmlns="http://www.w3.org/2000/svg"><path d="M11.32 1.281c-4.279.244-8.068 3.128-9.477 7.216a10.886 10.886 0 0 0-.279 6.053 10.76 10.76 0 0 0 7.886 7.886 10.96 10.96 0 0 0 5.1 0 10.76 10.76 0 0 0 7.886-7.886 10.96 10.96 0 0 0 0-5.1 10.758 10.758 0 0 0-8.694-8.052c-.408-.067-1.668-.169-1.862-.151l-.56.034m1.826 1.541a9.086 9.086 0 0 1 2.914.874c2.817 1.383 4.708 4.026 5.118 7.158.123.932.066 2.172-.144 3.144-.289 1.345-1.031 2.857-1.913 3.902a9.31 9.31 0 0 1-3.061 2.404 8.94 8.94 0 0 1-4.06.936 8.93 8.93 0 0 1-4.06-.936c-2.817-1.383-4.708-4.026-5.118-7.158-.123-.932-.066-2.172.144-3.144.211-.982.737-2.227 1.302-3.082a9.335 9.335 0 0 1 6.552-4.097c.56-.077 1.749-.077 2.326-.001m-1.359 3.456a.659.659 0 0 0-.447.326c-.079.134-.08.208-.08 5.396s.001 5.262.08 5.396a.646.646 0 0 0 .475.327c.367.069.684-.054.845-.327.079-.134.08-.219.092-5.176.007-2.772.001-5.152-.013-5.289-.041-.405-.242-.62-.619-.662a1.307 1.307 0 0 0-.333.009m-3.07 1.438a.62.62 0 0 0-.384.316c-.069.141-.073.342-.073 3.968 0 3.641.003 3.827.074 3.969.118.236.308.331.666.331.358 0 .548-.095.666-.331.071-.142.074-.328.074-3.969s-.003-3.827-.074-3.969c-.104-.21-.297-.318-.598-.335a1.274 1.274 0 0 0-.351.02m6 0a.62.62 0 0 0-.384.316c-.069.141-.073.342-.073 3.968 0 3.641.003 3.827.074 3.969.118.236.308.331.666.331.358 0 .548-.095.666-.331.071-.142.074-.328.074-3.969s-.003-3.827-.074-3.969c-.104-.21-.297-.318-.598-.335a1.274 1.274 0 0 0-.351.02M5.599 9.21a.67.67 0 0 0-.258.23c-.079.136-.081.204-.081 2.56 0 2.348.002 2.424.08 2.556.148.251.262.304.66.304s.512-.053.66-.304c.078-.132.08-.208.08-2.556 0-2.356-.002-2.424-.081-2.56-.111-.193-.373-.32-.659-.32a.86.86 0 0 0-.401.09m12 0a.67.67 0 0 0-.258.23c-.079.136-.081.204-.081 2.56 0 2.348.002 2.424.08 2.556.148.251.262.304.66.304s.512-.053.66-.304c.078-.132.08-.208.08-2.556 0-2.356-.002-2.424-.081-2.56-.111-.193-.373-.32-.659-.32a.86.86 0 0 0-.401.09" fill-rule="evenodd" fill="#000"/></svg>