<svg width="24" height="24" fill="none" xmlns="http://www.w3.org/2000/svg"><path d="M12.48 3.261c-.033.007-.195.033-.36.058-.809.125-1.265.35-3.322 1.639C7.908 5.516 7.099 6.01 7 6.056c-.166.077-.278.085-1.46.108-1.305.025-1.543.05-2.042.218-1.087.365-1.812 1.161-2.094 2.298-.132.536-.163 1.157-.163 3.32 0 1.111.018 2.236.04 2.5.149 1.814 1.027 2.872 2.698 3.248.208.047.614.07 1.561.088 1.181.023 1.294.031 1.46.108.099.046.864.511 1.7 1.035 1.672 1.048 2.24 1.36 2.792 1.535.557.177.872.22 1.433.196.544-.024.835-.097 1.263-.321.952-.497 1.557-1.48 1.753-2.849.085-.593.085-10.486 0-11.084-.228-1.602-1.019-2.682-2.244-3.06-.356-.11-.987-.18-1.217-.135m.925 1.625c.421.197.72.559.907 1.1.19.55.188.478.188 6.034 0 5.886.015 5.58-.297 6.24-.199.422-.419.664-.754.829-.251.123-.293.131-.688.131-.784 0-1.048-.121-3.163-1.442a60.874 60.874 0 0 0-1.839-1.121c-.484-.247-.611-.266-2.019-.297-1.395-.031-1.563-.053-2.005-.263-.505-.24-.773-.618-.918-1.297-.081-.38-.081-5.22 0-5.6.145-.679.413-1.057.918-1.297.444-.211.611-.233 2.005-.264.746-.017 1.353-.048 1.456-.076.359-.095.801-.341 2.353-1.314 1.664-1.044 1.983-1.224 2.411-1.361.357-.115.407-.121.84-.114.318.005.417.024.605.112m6.382 4.392a.659.659 0 0 0-.447.326c-.07.12-.081.224-.094.882l-.014.746-.746.014c-.658.013-.762.024-.882.094a.646.646 0 0 0-.327.475c-.069.367.054.684.327.845.12.07.224.081.882.094l.746.014.014.746c.016.813.043.92.279 1.096.226.168.724.168.95 0 .236-.176.263-.283.279-1.096l.014-.746.746-.014c.658-.013.762-.024.882-.094.273-.161.396-.478.327-.845a.646.646 0 0 0-.327-.475c-.12-.07-.224-.081-.886-.094l-.75-.015-.002-.625c-.002-.701-.033-.926-.148-1.08-.158-.213-.491-.313-.823-.248" fill-rule="evenodd" fill="#000"/></svg>