<svg width="24" height="24" fill="none" xmlns="http://www.w3.org/2000/svg"><path d="M12.28 3.421c-.033.007-.195.033-.36.058-.367.057-.598.127-1.04.313-.441.186-.696.335-2.4 1.408-.781.491-1.501.924-1.6.961-.149.057-.377.073-1.34.091-1.275.023-1.636.067-2.179.265-1.096.4-1.792 1.269-2.031 2.535-.062.326-.07.664-.07 2.948 0 2.845.008 2.955.257 3.638a3.033 3.033 0 0 0 1.839 1.843c.548.2.907.244 2.184.267.963.018 1.191.034 1.34.091.099.037.819.47 1.6.961 1.698 1.068 1.955 1.22 2.405 1.413.868.372 1.815.463 2.555.244 1.015-.3 1.821-1.21 2.123-2.397.176-.691.177-.712.177-6.06s-.001-5.369-.177-6.06c-.301-1.184-1.075-2.065-2.103-2.394-.29-.093-.973-.165-1.18-.125m7.2 1.429c-.217.13-.382.323-.426.498-.046.186.036.384.361.864C20.653 8.039 21.24 9.903 21.24 12c0 2.097-.587 3.961-1.825 5.788-.325.48-.407.678-.361.864.073.289.502.628.796.628.307 0 .481-.16.959-.882 1.28-1.932 1.916-4.066 1.915-6.422 0-1.67-.323-3.188-1.012-4.754-.307-.698-1.003-1.853-1.346-2.232-.28-.31-.535-.35-.886-.14m-6.271.203c.427.209.729.633.92 1.292l.091.315v10.68l-.091.315c-.189.65-.498 1.086-.918 1.291-.469.229-1.204.159-1.907-.182-.178-.087-1.026-.597-1.884-1.135-1.735-1.087-1.848-1.151-2.266-1.272-.26-.075-.443-.088-1.594-.115-1.148-.026-1.329-.04-1.549-.111-.666-.218-1.041-.645-1.192-1.358-.085-.401-.085-5.145 0-5.546.151-.713.526-1.14 1.192-1.358.22-.071.401-.085 1.549-.111 1.151-.027 1.334-.04 1.594-.115.418-.121.531-.185 2.266-1.272C11.082 5.329 11.453 5.127 11.923 5c.442-.119.98-.097 1.286.053m4.616 2.205c-.37.133-.656.514-.602.803.015.082.149.331.297.554.744 1.119 1.051 2.108 1.051 3.385 0 1.281-.308 2.266-1.064 3.406-.141.212-.269.452-.284.533-.079.421.514.935.944.819.22-.059.356-.193.666-.659.68-1.019 1.04-1.995 1.189-3.219a7.297 7.297 0 0 0-1.17-4.952 6.725 6.725 0 0 0-.345-.482.64.64 0 0 0-.682-.188" fill-rule="evenodd" fill="#000"/></svg>