<svg width="24" height="24" fill="none" xmlns="http://www.w3.org/2000/svg"><path d="M15.74 3.426a5.073 5.073 0 0 0-1.596.471c-.2.096-1.071.618-1.935 1.159a85.397 85.397 0 0 1-1.74 1.072c-.159.084-.237.09-1.369.118-1.247.03-1.641.073-2.14.236-1.221.4-1.975 1.377-2.159 2.798-.05.391-.05 5.049 0 5.44.184 1.421.938 2.398 2.159 2.798.499.163.893.206 2.14.236 1.132.028 1.21.034 1.369.118.093.049.876.531 1.74 1.072s1.733 1.061 1.931 1.155c.815.387 1.547.536 2.25.458 1.548-.173 2.564-1.334 2.809-3.21.056-.427.056-10.267 0-10.694-.246-1.887-1.25-3.035-2.81-3.215-.327-.037-.42-.039-.649-.012m.98 1.631c.445.227.755.683.929 1.366l.091.357v5.2c0 5.522.006 5.348-.188 5.911-.179.521-.437.848-.823 1.037-.253.125-.29.132-.708.132-.755 0-.96-.094-3.081-1.418-1.92-1.198-1.766-1.108-2.094-1.223-.39-.136-.84-.178-1.898-.179-1.264 0-1.682-.095-2.123-.484-.212-.187-.427-.596-.511-.976-.079-.352-.078-5.214.001-5.56.133-.587.425-1.001.855-1.211.412-.202.748-.249 1.778-.249 1.058-.001 1.508-.043 1.898-.179.327-.115.165-.02 2.094-1.223 1.594-.995 1.914-1.174 2.34-1.31.387-.124.388-.124.82-.113.348.008.429.024.62.122" fill-rule="evenodd" fill="#000"/></svg>