<svg width="24" height="24" fill="none" xmlns="http://www.w3.org/2000/svg"><path d="M21.8 1.245c-.109.032-.792.692-3.11 3.007l-2.97 2.967v-.22c0-.243-.09-.83-.174-1.139-.25-.918-.85-1.717-1.567-2.086-.42-.216-.641-.284-1.099-.335-.841-.095-1.796.162-2.78.749-.11.065-.839.521-1.62 1.012-.781.491-1.501.924-1.6.961-.149.057-.377.073-1.34.091-1.275.023-1.636.067-2.179.265-1.096.4-1.792 1.269-2.031 2.535-.062.326-.07.664-.07 2.948s.008 2.622.07 2.948c.148.781.457 1.394.937 1.855.621.597 1.311.852 2.548.94l.355.025-1.942 1.946c-1.713 1.717-1.947 1.966-1.986 2.116-.067.254.002.458.236.692.234.234.438.303.692.236.193-.051-.306.444 12.917-12.787 6.89-6.894 7.631-7.647 7.672-7.802.134-.512-.447-1.072-.959-.924m-8.591 3.808c.271.133.584.46.726.76.231.487.271.731.304 1.827l.03 1.02-3.784 3.79L6.7 16.24l-1.1-.001c-.815 0-1.173-.016-1.38-.059-.773-.163-1.236-.628-1.401-1.407-.085-.401-.085-5.145 0-5.546.151-.713.526-1.14 1.192-1.358.22-.071.401-.085 1.549-.111 1.151-.027 1.334-.04 1.594-.115.418-.121.531-.185 2.266-1.272C11.082 5.329 11.453 5.127 11.923 5c.442-.119.98-.097 1.286.053m7.598 2.091c-.483.241-.514.47-.186 1.371.244.671.422 1.353.529 2.023.088.555.099 2.257.017 2.782-.277 1.794-.803 3.113-1.827 4.588-.253.365-.33.565-.286.744.073.289.502.628.796.628.307 0 .474-.154.956-.88 1.171-1.764 1.796-3.662 1.911-5.808a11.119 11.119 0 0 0-.664-4.51c-.23-.635-.294-.76-.472-.916-.191-.167-.466-.175-.774-.022m-2.111 1.533c-.187.046-.459.21-.547.328-.142.193-.132.408.042.895.32.89.438 1.7.369 2.54-.089 1.092-.399 1.974-1.028 2.926-.155.234-.294.492-.309.574-.079.421.518.936.947.818.221-.061.365-.205.676-.673a7.394 7.394 0 0 0 1.048-5.685c-.195-.875-.495-1.571-.72-1.675a.82.82 0 0 0-.478-.048m-3.979 3.559a.62.62 0 0 0-.384.316c-.067.137-.075.325-.096 2.488-.022 2.272-.025 2.349-.112 2.636-.192.641-.5 1.067-.917 1.272-.21.103-.264.112-.688.11-.556-.002-.877-.097-1.5-.446-.593-.332-.884-.335-1.141-.01-.253.319-.308.644-.148.882.23.343 1.261.85 2.069 1.018.465.096 1.122.088 1.531-.018 1.085-.283 1.917-1.186 2.232-2.424.163-.64.177-.883.177-3.16 0-2.063-.005-2.209-.074-2.349-.104-.21-.297-.318-.598-.335a1.274 1.274 0 0 0-.351.02" fill-rule="evenodd" fill="#000"/></svg>