<svg width="24" height="24" fill="none" xmlns="http://www.w3.org/2000/svg"><path d="M12.28 3.581c-.033.007-.195.033-.36.058-.367.057-.598.127-1.04.313-.443.187-.702.339-2.4 1.407-.781.492-1.501.925-1.6.962-.149.057-.377.073-1.34.091-1.275.023-1.636.067-2.179.265-1.096.4-1.792 1.269-2.031 2.535-.062.326-.07.664-.07 2.948 0 2.848.008 2.955.259 3.643a3.06 3.06 0 0 0 1.868 1.85c.514.184.902.23 2.153.255.961.018 1.191.034 1.34.091.099.038.819.47 1.6.961 1.707 1.073 1.958 1.221 2.405 1.413.868.372 1.815.463 2.555.244 1.015-.3 1.821-1.21 2.123-2.397.176-.691.177-.712.177-6.06s-.001-5.369-.177-6.06c-.301-1.184-1.077-2.067-2.103-2.394-.309-.098-.963-.167-1.18-.125m.929 1.632c.427.209.729.633.92 1.292l.091.315V17.5l-.091.315c-.189.65-.498 1.086-.918 1.291-.469.23-1.186.161-1.897-.18-.184-.089-1.063-.617-1.954-1.174-.891-.558-1.713-1.054-1.826-1.102-.46-.198-.607-.216-1.974-.248-1.148-.026-1.329-.04-1.549-.111-.666-.218-1.041-.645-1.192-1.358-.085-.401-.085-5.145 0-5.546.155-.728.53-1.149 1.221-1.368.18-.057.458-.075 1.52-.101 1.145-.027 1.335-.041 1.594-.116.417-.12.53-.183 2.266-1.271 1.66-1.041 2.031-1.244 2.503-1.371.442-.119.98-.097 1.286.053m4.637 4.192c-.193.057-.51.389-.565.59-.091.339-.039.418.861 1.325l.814.82-.834.84c-.922.929-.972 1.005-.881 1.345.06.221.373.534.594.594.34.091.416.041 1.345-.881l.84-.834.82.814c.907.9.986.952 1.325.861.221-.06.534-.373.594-.594.091-.338.039-.418-.861-1.325l-.814-.82.794-.8c.878-.885.932-.968.841-1.305-.06-.221-.373-.534-.594-.594-.337-.09-.42-.037-1.306.842l-.801.795-.759-.761c-.418-.418-.813-.794-.879-.836a.685.685 0 0 0-.534-.076" fill-rule="evenodd" fill="#000"/></svg>