<svg width="24" height="24" fill="none" xmlns="http://www.w3.org/2000/svg"><path d="M13.421 3.445a5.106 5.106 0 0 0-1.721.593c-.154.084-.964.582-1.8 1.105-.836.523-1.606.984-1.71 1.024-.162.062-.315.073-1.02.074-1.467.001-2.196.11-2.81.419-.961.484-1.496 1.251-1.699 2.435-.09.524-.09 5.286 0 5.81.207 1.21.769 1.996 1.759 2.459.638.299 1.298.394 2.75.395.705.001.858.012 1.02.074.104.04.874.502 1.71 1.027.836.524 1.723 1.057 1.97 1.184.715.367 1.335.529 2.01.527 1.526-.006 2.646-.972 3.041-2.623.154-.645.165-1.128.149-6.308-.018-5.531-.003-5.227-.291-6.058-.424-1.225-1.33-1.994-2.519-2.138-.404-.049-.498-.049-.839.001m1.099 1.6c.429.203.751.636.918 1.235.155.555.168 1.08.152 6.1-.017 5.313-.003 5.03-.278 5.693-.154.37-.466.719-.782.873-.477.234-1.205.159-1.919-.197-.193-.096-1.047-.61-1.897-1.142-.85-.532-1.66-1.021-1.8-1.086-.49-.228-.627-.246-2.034-.279-1.148-.026-1.329-.04-1.549-.111-.699-.229-1.04-.642-1.195-1.445-.082-.427-.082-4.945 0-5.372.155-.803.496-1.216 1.195-1.445.22-.071.401-.085 1.549-.111 1.407-.033 1.544-.051 2.034-.279.14-.065.95-.554 1.8-1.086 2.163-1.353 2.445-1.482 3.206-1.462.313.008.419.028.6.114m4.63 2.212a1.053 1.053 0 0 0-.511.405c-.07.114-.085.185-.071.35.016.177.062.274.311.648.724 1.089 1.021 2.06 1.021 3.34 0 1.284-.291 2.233-1.023 3.341-.246.372-.293.471-.309.647-.021.25.077.437.324.616.538.39.884.188 1.517-.887.66-1.119.99-2.359.99-3.717 0-1.576-.455-3.021-1.341-4.26-.226-.316-.374-.453-.541-.501-.169-.048-.183-.048-.367.018" fill-rule="evenodd" fill="#000"/></svg>