<svg width="24" height="24" fill="none" xmlns="http://www.w3.org/2000/svg"><path d="M5.24 2.123c-.899.083-1.784.474-2.514 1.11-.557.485-1.084 1.333-1.303 2.098-.179.624-.189 1.015-.172 6.889.013 4.886.022 5.515.081 5.8.379 1.849 1.672 3.224 3.508 3.734l.38.106h11.56l.38-.106c1.637-.454 2.887-1.636 3.355-3.174.158-.517.198-.785.231-1.53l.026-.61h.206c.599 0 1.156-.311 1.491-.832.243-.378.258-.474.28-1.714.029-1.676-.045-2.028-.53-2.513-.303-.303-.618-.45-1.088-.508l-.359-.044-.027-.623c-.041-.963-.186-1.551-.557-2.265-.569-1.094-1.629-1.965-2.848-2.34a6.168 6.168 0 0 0-1.384-.2l-.264-.001-.073-.27a3.718 3.718 0 0 0-.804-1.547c-.609-.717-1.482-1.202-2.535-1.408-.296-.058-.745-.067-3.5-.076-1.738-.006-3.331.005-3.54.024m7.02 1.568c.871.252 1.542.816 1.831 1.539l.068.17h-4.17c-4.188 0-4.552.01-5.129.147-.699.166-1.482.574-1.97 1.028l-.13.121.001-.278c.002-1.078.7-2.11 1.745-2.583.51-.232.452-.229 4.134-.221 3.075.007 3.402.014 3.62.077m4.471 3.28c.61.147 1.134.458 1.617.962.364.379.599.765.758 1.247.093.28.108.404.125.984l.018.664-.435.023c-.564.03-.986.161-1.39.431-1.082.724-1.551 2.019-1.167 3.223.354 1.111 1.508 1.935 2.71 1.935h.273v.536c0 1.075-.228 1.699-.873 2.389a3.241 3.241 0 0 1-1.114.79c-.577.237-.231.225-6.253.225s-5.676.012-6.253-.225c-.762-.315-1.461-1.022-1.773-1.795-.214-.528-.214-.538-.214-4.725 0-4.363-.009-4.209.296-4.855.483-1.02 1.467-1.741 2.538-1.858.168-.018 2.682-.03 5.586-.025 4.719.008 5.309.016 5.551.074M6.717 10.438c-.312.096-.449.317-.449.727 0 .298.074.468.265.611.113.084.12.084 3.467.084s3.354 0 3.467-.084c.191-.143.265-.313.265-.611 0-.331-.088-.531-.286-.654l-.146-.091-3.24-.007c-1.782-.004-3.287.007-3.343.025m14.434 1.984c.088.062.089.069.089 1.217v1.155l-.105.083c-.1.079-.154.083-1.07.082-.531 0-1.08-.017-1.22-.037-.466-.068-.891-.351-1.093-.73-.077-.145-.092-.233-.092-.552 0-.453.07-.619.389-.925.351-.337.423-.351 1.812-.353 1.025-.002 1.214.007 1.29.06" fill-rule="evenodd" fill="#000"/></svg>