<svg width="24" height="24" fill="none" xmlns="http://www.w3.org/2000/svg"><path d="M11.833 1.262a4.34 4.34 0 0 0-1.945.854c-.311.241-3.838 3.842-4.057 4.143-.104.143-.143.165-.383.213a6.152 6.152 0 0 0-1.268.438c-1.436.711-2.443 2.045-2.784 3.69-.101.491-.17 1.48-.148 2.144.019.569.063.707.277.866.226.168.724.168.95 0 .246-.183.26-.25.29-1.408.023-.879.043-1.121.112-1.402.371-1.498 1.387-2.521 2.821-2.841.938-.209.594-.199 6.612-.199h5.6l.375.095a3.567 3.567 0 0 1 1.745.992c.48.486.782.978.992 1.622.102.314.218.927.218 1.158v.127l-1.39.015-1.39.014-.329.11a2.799 2.799 0 0 0-1.592 1.407c-.205.427-.269.713-.269 1.2 0 .493.064.776.275 1.206.32.654.909 1.175 1.586 1.401l.329.11 1.395.014 1.396.015-.028.306c-.149 1.642-1.09 2.91-2.543 3.427-.671.239-.563.231-3.88.257-2.965.023-3.064.026-3.196.104a.646.646 0 0 0-.327.475c-.069.367.054.684.327.845.131.077.22.08 2.636.093 3.269.016 3.924-.029 4.853-.338a6.654 6.654 0 0 0 1.409-.716c.357-.252.945-.84 1.197-1.197a6.63 6.63 0 0 0 .716-1.409c.3-.904.344-1.49.344-4.593 0-3.173-.035-3.644-.346-4.577-.572-1.715-1.937-3.025-3.633-3.485a4.522 4.522 0 0 1-.331-.097 3.15 3.15 0 0 1-.089-.29 4.572 4.572 0 0 0-.546-1.185c-.226-.344-2.188-2.343-2.68-2.73a4.223 4.223 0 0 0-3.301-.874m1.4 1.542c.635.168.869.347 2.209 1.702.951.962 1.122 1.153 1.25 1.4a3.1 3.1 0 0 1 .148.31c0 .013-2.009.024-4.465.024H7.911l.681-.71c1.487-1.548 2.266-2.312 2.498-2.447a2.765 2.765 0 0 1 2.143-.279m8.007 11.699v1.262l-1.27-.012c-1.198-.012-1.28-.018-1.455-.098-.65-.301-.937-1.051-.641-1.675.166-.352.479-.613.835-.696.083-.02.686-.038 1.341-.04l1.19-.004v1.263m-15.86-.219a3.91 3.91 0 0 0-2.362 1.134 3.6 3.6 0 0 0-.76 1.06c-.568 1.149-.506 2.643.155 3.734l.117.193-.621.629c-.691.699-.755.807-.668 1.131.06.221.373.534.594.594.324.087.432.023 1.131-.668l.629-.621.193.117c1.255.76 2.939.723 4.176-.092s1.893-2.202 1.751-3.705c-.043-.459-.236-1.102-.442-1.47a3.942 3.942 0 0 0-3.107-2.038 7.059 7.059 0 0 0-.44-.037c-.014.003-.17.021-.346.039m1.01 1.536c.436.103.794.313 1.15.675.495.502.7 1.003.7 1.705 0 .702-.205 1.203-.7 1.705-.504.512-1.03.734-1.74.734-.696 0-1.225-.221-1.722-.717-.496-.497-.717-1.026-.717-1.722 0-.187.027-.455.06-.596.195-.823.949-1.583 1.771-1.782.304-.074.889-.075 1.198-.002" fill-rule="evenodd" fill="#000"/></svg>