<svg width="24" height="24" fill="none" xmlns="http://www.w3.org/2000/svg"><path d="M9.91 1.285c-.877.084-1.741.557-2.404 1.314-.316.361-.705.976-1.046 1.655l-.32.636-.4.136c-2.293.778-3.928 2.685-4.39 5.119-.089.468-.09.515-.083 3.411.008 2.915.025 3.375.158 4.224.401 2.55 1.889 4.166 4.343 4.716 1.064.239 1.188.244 6.092.244 3.455 0 4.58-.012 4.919-.053 1.71-.205 2.838-.694 3.786-1.642 1.06-1.06 1.548-2.317 1.678-4.325.057-.879.025-6.013-.04-6.4-.319-1.911-1.349-3.534-2.873-4.529-.308-.2-.391-.278-.495-.46-.44-.769-1.247-1.437-2.455-2.03-.66-.325-3.435-1.488-3.949-1.655a8.27 8.27 0 0 0-1.623-.362 6.041 6.041 0 0 0-.48-.039l-.418.04m1.382 1.588c.171.042.318.084.327.093.015.014-2.351 5.54-2.386 5.574a44.46 44.46 0 0 1-1.497.026l-1.483.014.108-.26.519-1.24c.225-.539.486-1.169.579-1.4.414-1.024.859-1.768 1.361-2.269.344-.345.66-.533 1.024-.61.269-.057 1.091-.016 1.448.072m2.799 1.051c1.835.765 2.552 1.156 3.07 1.675.312.312.439.521.564.921.154.495.118 1.209-.096 1.92-.044.144-.07.177-.132.164a185.19 185.19 0 0 0-3.342-.04L10.89 8.54l1.08-2.51c.594-1.381 1.096-2.51 1.116-2.51.019 0 .472.182 1.005.404M5.319 6.87a39.75 39.75 0 0 1-.47 1.146L4.38 9.131l-.343.206c-.339.205-.644.43-1.004.744l-.187.162.055-.236c.127-.541.473-1.273.828-1.747.299-.4.838-.931 1.211-1.193.316-.222.381-.256.379-.197m14.46 1.39a4.84 4.84 0 0 1 .803 1.648l.091.328-.322-.279a5.657 5.657 0 0 0-1.096-.754l-.246-.126.073-.234c.067-.213.146-.572.218-.983l.028-.16.12.14c.066.077.215.266.331.42m-2.407 1.88c1.553.27 2.832 1.448 3.257 3l.11.4v1.82c0 1.577-.009 1.869-.07 2.189-.308 1.605-.98 2.581-2.169 3.155-.385.186-.845.331-1.41.443-.318.064-.764.071-4.89.084-4.737.015-5.119.005-5.94-.156-1.649-.323-2.647-1.155-3.142-2.621-.27-.799-.358-1.608-.358-3.288 0-1.332.041-1.767.213-2.266a4.187 4.187 0 0 1 1.109-1.713c.628-.59 1.355-.935 2.278-1.08.055-.009 2.478-.019 5.385-.022 4.523-.004 5.334.004 5.627.055m-8.339 5.137a.556.556 0 0 0-.435.336c-.176.386-.049.891.262 1.047.155.078.24.08 2.9.08s2.745-.002 2.9-.08c.443-.222.456-1.067.02-1.319-.136-.079-.209-.081-2.82-.087-1.474-.004-2.746.007-2.827.023" fill-rule="evenodd" fill="#000"/></svg>