<svg width="24" height="24" fill="none" xmlns="http://www.w3.org/2000/svg"><path d="M12.06 1.285c-.76.072-1.55.39-2.173.876-.39.304-3.8 3.712-4.015 4.014-.139.194-.141.195-.576.304-1.56.394-2.794 1.405-3.472 2.845-.325.689-.481 1.317-.544 2.185-.021.303-.039 1.458-.04 2.566v2.014l-.175.266a4.62 4.62 0 0 0-.785 2.264 4.721 4.721 0 0 0 1.287 3.644 4.75 4.75 0 0 0 6.071.678l.273-.181h4.494c2.598-.001 4.729-.018 5.05-.041.951-.068 1.633-.246 2.359-.615a4.674 4.674 0 0 0 1.327-.963c.966-.966 1.466-2.134 1.578-3.686.052-.718.052-5.229.001-5.946-.067-.929-.225-1.529-.601-2.289-.706-1.427-1.895-2.361-3.539-2.778-.158-.04-.161-.043-.229-.329-.087-.36-.403-1.014-.656-1.354-.307-.414-2.468-2.553-2.795-2.766a4.299 4.299 0 0 0-2.84-.708m1.3 1.589c.5.161.723.33 1.695 1.286.503.495 1.05 1.053 1.215 1.24.289.328.529.686.53.79 0 .04-.92.05-4.47.05H7.86l1.4-1.403c.77-.772 1.51-1.483 1.645-1.58.292-.211.626-.365.955-.441.353-.081 1.164-.049 1.5.058m4.79 4.996c1.768.417 2.913 1.75 3.074 3.577l.027.307-1.396.015-1.395.014-.329.11a2.799 2.799 0 0 0-1.592 1.407c-.205.427-.269.713-.269 1.2 0 .493.064.776.275 1.206.32.654.909 1.175 1.586 1.401l.329.11 1.395.014 1.396.015-.028.306c-.149 1.642-1.09 2.91-2.543 3.427-.698.248-.421.235-5.148.25l-4.327.014.135-.312c.794-1.834.412-3.893-.983-5.288-1.393-1.392-3.458-1.776-5.29-.982l-.313.135.016-1.828c.018-2.021.022-2.054.311-2.806.403-1.044 1.358-1.9 2.461-2.206.68-.189.698-.189 6.638-.181l5.6.008.37.087m3.09 6.633v1.262l-1.27-.012c-1.198-.012-1.28-.018-1.455-.098-.65-.301-.937-1.051-.641-1.675.166-.352.479-.613.835-.696.083-.02.686-.038 1.341-.04l1.19-.004v1.263M5.82 15.852a3.326 3.326 0 0 1 2.327 2.328c.03.11.066.389.079.62.055.97-.277 1.821-.985 2.525-.294.293-.409.375-.764.55-.549.271-.929.365-1.477.365-.544 0-.928-.094-1.465-.359-.845-.416-1.457-1.196-1.698-2.161-.12-.48-.095-1.235.058-1.7a3.33 3.33 0 0 1 2.465-2.202c.319-.068 1.168-.048 1.46.034m-1.033.946a.65.65 0 0 0-.443.321c-.06.102-.081.234-.096.622l-.019.491-.531.014c-.466.012-.546.025-.645.098-.328.244-.386.844-.114 1.167.133.159.337.209.85.209h.441l.018.534c.019.584.062.716.285.882.095.071.169.084.467.084.298 0 .372-.013.467-.084.223-.166.266-.298.285-.882l.018-.534h.445c.245 0 .509-.018.587-.04.584-.162.584-1.238 0-1.4-.078-.022-.344-.04-.592-.04h-.45l-.002-.37c-.003-.621-.08-.847-.342-.996-.144-.081-.427-.115-.629-.076" fill-rule="evenodd" fill="#000"/></svg>