<svg width="24" height="24" fill="none" xmlns="http://www.w3.org/2000/svg"><path d="M6 2.838c-.747.115-1.276.278-1.855.573-1.409.718-2.389 2.026-2.747 3.669-.143.654-.165 1.476-.147 5.4.017 3.592.021 3.758.102 4.184.485 2.567 2.241 4.211 4.843 4.534.461.057 10.147.057 10.608 0 2.605-.323 4.405-2.014 4.837-4.546.048-.277.089-.767.105-1.251l.026-.796.193-.124c.398-.258.694-.739.758-1.231.045-.35.045-2.15 0-2.5-.064-.492-.36-.973-.758-1.231l-.193-.124-.025-.768c-.03-.877-.072-1.265-.191-1.747-.382-1.55-1.393-2.827-2.779-3.513-.524-.258-1.139-.439-1.862-.545-.369-.054-1.095-.062-5.44-.058-4.585.003-5.054.009-5.475.074m10.7 1.461c1.183.171 2.009.609 2.647 1.401.621.772.893 1.649.893 2.881v.611l-.95.018c-1.051.02-1.163.04-1.67.302-.408.211-.988.802-1.191 1.213-.345.7-.402 1.459-.162 2.157.322.934 1.149 1.644 2.166 1.86.177.038.528.057 1.042.057l.775.001-.021.79c-.019.668-.037.85-.122 1.178-.361 1.389-1.349 2.418-2.686 2.796-.67.19-.815.194-5.921.194s-5.251-.004-5.921-.194a3.783 3.783 0 0 1-1.654-.965c-.493-.488-.836-1.093-1.036-1.831l-.106-.388-.014-4.16c-.009-2.907 0-4.256.031-4.48.09-.649.329-1.298.661-1.799.209-.315.672-.77 1.013-.997.49-.326 1.185-.566 1.906-.658.154-.02 2.449-.038 5.1-.04 4.011-.004 4.887.005 5.22.053M6.787 8.278c-.342.068-.519.314-.519.722 0 .462.207.693.663.739.137.015 1.617.02 3.289.014 2.956-.013 3.044-.015 3.176-.093.273-.161.396-.478.327-.845a.646.646 0 0 0-.327-.475c-.133-.078-.214-.08-3.296-.086-1.738-.003-3.229.007-3.313.024m14.38 2.508c.067.061.073.153.073 1.214 0 1.074-.005 1.152-.076 1.216-.068.062-.191.067-1.31.056l-1.234-.012-.253-.137c-.512-.278-.753-.686-.718-1.218.034-.528.356-.947.866-1.13.106-.038.472-.052 1.362-.053 1.078-.002 1.225.006 1.29.064" fill-rule="evenodd" fill="#000"/></svg>