<svg width="24" height="24" fill="none" xmlns="http://www.w3.org/2000/svg"><path d="M12.06 1.285c-.76.072-1.55.39-2.173.876-.39.304-3.8 3.712-4.015 4.014-.139.194-.141.195-.576.304-1.56.394-2.794 1.405-3.472 2.845-.325.689-.481 1.317-.544 2.185-.021.303-.04 1.46-.04 2.571v2.02l-.122.18c-.524.775-.757 1.417-.835 2.303a4.714 4.714 0 0 0 1.284 3.68c1.6 1.693 4.256 1.967 6.123.633l.19-.136h4.51c2.608-.001 4.744-.018 5.065-.041.951-.068 1.633-.246 2.359-.615a4.674 4.674 0 0 0 1.327-.963c.966-.966 1.466-2.134 1.578-3.686.052-.718.052-5.229.001-5.946-.067-.929-.225-1.529-.601-2.289-.706-1.427-1.895-2.361-3.539-2.778-.158-.04-.161-.043-.229-.329-.087-.36-.403-1.014-.656-1.354-.307-.414-2.468-2.553-2.795-2.766a4.299 4.299 0 0 0-2.84-.708m1.3 1.589c.5.161.723.33 1.695 1.286.503.495 1.05 1.053 1.215 1.24.289.328.529.686.53.79 0 .04-.92.05-4.47.05H7.86l1.4-1.403c.77-.772 1.51-1.483 1.645-1.58.292-.211.626-.365.955-.441.353-.081 1.164-.049 1.5.058m4.79 4.996c1.768.417 2.913 1.75 3.074 3.577l.027.307-1.396.015-1.395.014-.329.11a2.799 2.799 0 0 0-1.592 1.407c-.205.427-.269.713-.269 1.2 0 .493.064.776.275 1.206.32.654.909 1.175 1.586 1.401l.329.11 1.395.014 1.396.015-.028.306c-.149 1.642-1.09 2.91-2.543 3.427-.698.248-.421.235-5.148.25l-4.327.014.135-.312c.794-1.834.412-3.893-.983-5.288a4.73 4.73 0 0 0-4.997-1.096c-.209.077-.42.166-.469.197a.404.404 0 0 1-.112.056c-.014 0-.018-.823-.009-1.83.018-2.023.022-2.056.311-2.808.403-1.044 1.358-1.9 2.461-2.206.68-.189.698-.189 6.638-.181l5.6.008.37.087m3.09 6.633v1.262l-1.27-.012c-1.198-.012-1.28-.018-1.455-.098-.65-.301-.937-1.051-.641-1.675.166-.352.479-.613.835-.696.083-.02.686-.038 1.341-.04l1.19-.004v1.263M5.82 15.852a3.326 3.326 0 0 1 2.327 2.328c.151.541.097 1.407-.121 1.965-.327.833-1.028 1.559-1.809 1.872-.591.236-1.365.293-1.961.144-2.198-.553-3.202-3.087-1.961-4.953.447-.674 1.228-1.202 2.045-1.384.337-.076 1.171-.059 1.48.028m-2.234 1.432a1.096 1.096 0 0 0-.404.544c-.059.2.052.409.419.789l.356.368-.321.317c-.365.36-.476.542-.476.779 0 .198.044.291.235.492.188.198.322.267.525.267.236 0 .418-.112.778-.476l.317-.321.368.356c.498.481.649.523 1.05.293.236-.135.407-.409.407-.652 0-.232-.13-.442-.494-.797l-.263-.258.336-.348c.246-.256.347-.392.38-.513.067-.247-.005-.453-.237-.686-.233-.232-.439-.304-.686-.237-.121.033-.257.134-.513.38l-.348.336-.258-.263c-.511-.523-.801-.615-1.171-.37" fill-rule="evenodd" fill="#000"/></svg>