<svg width="24" height="24" fill="none" xmlns="http://www.w3.org/2000/svg"><path d="M12.06 1.285c-.76.072-1.55.39-2.173.876-.39.304-3.8 3.712-4.015 4.014-.139.194-.141.195-.576.304-1.56.394-2.794 1.405-3.472 2.845-.325.689-.481 1.317-.544 2.185-.051.717-.051 5.228.001 5.946.068.951.246 1.633.615 2.359.278.547.529.894.963 1.327.966.966 2.134 1.466 3.686 1.578.737.053 10.173.053 10.91 0 .951-.068 1.633-.246 2.359-.615a4.674 4.674 0 0 0 1.327-.963c.966-.966 1.466-2.134 1.578-3.686.052-.718.052-5.229.001-5.946-.067-.929-.225-1.529-.601-2.289-.706-1.427-1.895-2.361-3.539-2.778-.158-.04-.161-.043-.229-.329-.09-.372-.406-1.016-.674-1.373-.327-.435-2.445-2.53-2.777-2.747a4.303 4.303 0 0 0-2.84-.708m1.3 1.589c.5.161.723.33 1.695 1.286.503.495 1.05 1.053 1.215 1.24.289.328.529.686.53.79 0 .04-.92.05-4.47.05H7.86l1.4-1.403c.77-.772 1.51-1.483 1.645-1.58.292-.211.626-.365.955-.441.353-.081 1.164-.049 1.5.058m4.79 4.996c1.768.417 2.913 1.75 3.074 3.577l.027.307-1.396.015-1.395.014-.329.11a2.799 2.799 0 0 0-1.592 1.407c-.205.427-.269.713-.269 1.2 0 .493.064.776.275 1.206.32.654.909 1.175 1.586 1.401l.329.11 1.395.014 1.396.015-.028.306c-.171 1.889-1.378 3.25-3.203 3.612-.415.083-11.625.083-12.04 0-1.435-.284-2.511-1.199-2.971-2.524-.232-.669-.229-.615-.229-4.18 0-3.258.001-3.282.089-3.628.132-.519.311-.952.537-1.297.636-.975 1.568-1.544 2.814-1.717.277-.039 1.65-.049 5.96-.043l5.6.008.37.087m3.09 6.633v1.262l-1.27-.012c-1.198-.012-1.28-.018-1.455-.098-.65-.301-.937-1.051-.641-1.675.166-.352.479-.613.835-.696.083-.02.686-.038 1.341-.04l1.19-.004v1.263" fill-rule="evenodd" fill="#000"/></svg>