<svg width="24" height="24" fill="none" xmlns="http://www.w3.org/2000/svg"><path d="M6 2.838c-.747.115-1.276.278-1.855.573-1.409.718-2.389 2.026-2.747 3.669-.11.503-.167 1.517-.152 2.682.013.935.021 1.029.095 1.158.245.424 1.073.424 1.318 0 .076-.132.082-.232.106-1.7.026-1.635.038-1.756.234-2.34.308-.918 1.03-1.755 1.86-2.156.378-.182.608-.26 1.11-.375.366-.084.438-.086 5.291-.1 3.5-.01 5.03-.001 5.3.031 1.236.148 2.129.603 2.787 1.42.621.772.893 1.649.893 2.881v.611l-.95.018c-1.051.02-1.163.04-1.67.302-.408.211-.988.802-1.191 1.213-.345.7-.402 1.459-.162 2.157.322.934 1.149 1.644 2.166 1.86.177.038.528.057 1.042.057l.775.001-.021.79c-.019.668-.037.85-.122 1.178-.362 1.394-1.361 2.431-2.697 2.797-.544.15-.711.162-2.47.189-1.627.024-1.769.032-1.885.101-.209.127-.275.282-.275.645 0 .363.066.518.275.645.116.069.241.076 1.705.088 1.649.014 2.131-.014 2.741-.157 2.242-.525 3.749-2.136 4.14-4.424.048-.277.089-.767.105-1.251l.026-.796.193-.124c.398-.258.694-.739.758-1.231.045-.35.045-2.15 0-2.5-.064-.492-.36-.973-.758-1.231l-.193-.124-.025-.768c-.03-.877-.072-1.265-.191-1.747-.382-1.55-1.393-2.827-2.779-3.513-.524-.258-1.139-.439-1.862-.545-.369-.054-1.095-.062-5.44-.058-4.585.003-5.054.009-5.475.074m.72 7.43c-.555.059-1.257.258-1.7.482-.49.247-1.139.797-1.473 1.248-.222.3-.484.839-.593 1.222-.091.316-.092.353-.105 2.9-.014 2.681.008 3.24.146 3.72.178.621.484 1.126.982 1.622.833.83 1.939 1.268 3.203 1.268 1.852 0 3.443-.999 4.062-2.55.236-.591.239-.641.243-3.712.004-2.723.001-2.819-.08-3.16-.161-.673-.483-1.231-1.022-1.773a4.107 4.107 0 0 0-1.249-.86c-.699-.323-1.671-.487-2.414-.407m14.447.518c.067.061.073.153.073 1.214 0 1.074-.005 1.152-.076 1.216-.068.062-.191.067-1.31.056l-1.234-.012-.253-.137c-.512-.278-.753-.686-.718-1.218.034-.528.356-.947.866-1.13.106-.038.472-.052 1.362-.053 1.078-.002 1.225.006 1.29.064M8 11.862c.752.192 1.485.75 1.796 1.367.221.44.257 1.085.085 1.54-.187.497-.632.938-1.221 1.213-.908.424-2.146.413-3.036-.027-.809-.4-1.264-1.048-1.264-1.8 0-.619.187-1.065.638-1.518a2.83 2.83 0 0 1 1.542-.821c.353-.068 1.103-.045 1.46.046M5.024 17.32c1.455.69 3.441.597 4.719-.22.124-.08.235-.135.247-.123.034.034-.094.51-.194.722-.184.392-.695.841-1.218 1.072-.765.336-1.9.352-2.714.036-.728-.283-1.28-.845-1.442-1.468-.1-.383-.093-.403.108-.278.093.058.316.175.494.259m-.084 2.725c.669.346 1.335.492 2.24.492.909 0 1.619-.159 2.277-.508.145-.077.263-.125.263-.108 0 .053-.296.41-.472.568-.565.508-1.234.751-2.068.751-.872 0-1.54-.255-2.134-.817-.201-.189-.501-.573-.421-.538l.315.16" fill-rule="evenodd" fill="#000"/></svg>