<svg width="24" height="24" fill="none" xmlns="http://www.w3.org/2000/svg"><path d="M11.74 1.268a3.883 3.883 0 0 0-1.48.403c-.404.202-5.896 3.374-6.3 3.639-.913.599-1.485 1.443-1.727 2.55-.077.35-.077 7.93 0 8.28.241 1.104.813 1.954 1.703 2.535.429.279 5.916 3.45 6.324 3.654a3.557 3.557 0 0 0 1.713.398c.674.001 1.197-.114 1.727-.378.349-.174 6.157-3.532 6.437-3.722.661-.446 1.241-1.233 1.495-2.027.191-.6.188-.517.188-4.6 0-4.084.003-4.002-.189-4.6-.257-.803-.828-1.578-1.494-2.027-.28-.19-6.088-3.548-6.437-3.722-.551-.275-1.3-.422-1.96-.383m.737 1.531c.114.022.32.09.458.15.137.061 1.626.903 3.308 1.871 2.922 1.682 3.07 1.773 3.361 2.06.331.327.543.695.655 1.138.091.358.091 7.606 0 7.964a2.365 2.365 0 0 1-.657 1.137c-.292.288-.441.379-3.361 2.061-1.681.968-3.165 1.809-3.299 1.868-.353.159-.625.204-1.082.182a2.082 2.082 0 0 1-.663-.117c-.231-.086-6.079-3.429-6.498-3.715a2.508 2.508 0 0 1-.929-1.255l-.11-.323v-3.78c0-4.248-.017-3.985.304-4.603.318-.612.341-.628 3.838-2.645 1.705-.984 3.168-1.817 3.251-1.851a2.663 2.663 0 0 1 1.424-.142m-.76 4.237a.62.62 0 0 0-.384.316c-.069.139-.073.314-.073 3.028 0 2.808.002 2.883.08 3.016a.646.646 0 0 0 .475.327c.367.069.684-.054.845-.327.078-.133.08-.208.08-3.016 0-2.725-.004-2.888-.074-3.029-.104-.21-.297-.318-.598-.335a1.274 1.274 0 0 0-.351.02m-.127 8.228c-.413.127-.619.517-.579 1.097.044.643.34.919.989.919s.945-.276.989-.919c.028-.399-.058-.707-.25-.899-.241-.242-.732-.326-1.149-.198" fill-rule="evenodd" fill="#000"/></svg>