<svg width="24" height="24" fill="none" xmlns="http://www.w3.org/2000/svg"><path d="M7.787 1.278c-.342.068-.519.314-.519.722 0 .462.207.693.663.739.137.014 2.067.02 4.289.013 3.957-.012 4.043-.014 4.176-.092.273-.161.396-.478.327-.845a.646.646 0 0 0-.327-.475c-.133-.079-.213-.08-4.296-.086-2.288-.003-4.229.008-4.313.024m.173 3.004c-2.056.16-3.259 1.216-3.626 3.18-.069.371-.074.676-.074 4.538s.005 4.167.074 4.538c.346 1.852 1.415 2.873 3.3 3.151.499.073 8.233.073 8.732 0 1.942-.286 3.037-1.381 3.323-3.323.073-.499.073-8.233 0-8.732a4.643 4.643 0 0 0-.368-1.302c-.528-1.127-1.442-1.767-2.881-2.016-.314-.055-7.832-.085-8.48-.034m8.466 1.555c1.021.21 1.571.787 1.755 1.838.089.505.087 8.206-.001 8.674-.165.87-.566 1.399-1.268 1.674-.554.217-.549.217-4.926.216-3.809 0-4.067-.004-4.412-.076-.979-.202-1.535-.758-1.737-1.737-.072-.345-.076-.602-.076-4.426 0-3.824.004-4.081.076-4.426.2-.971.756-1.533 1.718-1.736.32-.067.638-.073 4.425-.075 3.849-.002 4.101.002 4.446.074m-4.639 3.441a.659.659 0 0 0-.447.326c-.077.132-.08.208-.08 2.396 0 2.188.003 2.264.08 2.396.161.273.478.396.845.327a.646.646 0 0 0 .475-.327c.077-.13.081-.22.093-2.176.007-1.122.001-2.152-.013-2.289-.042-.405-.244-.62-.62-.662a1.307 1.307 0 0 0-.333.009m3 2a.659.659 0 0 0-.447.326c-.075.128-.08.208-.08 1.396s.005 1.268.08 1.396a.646.646 0 0 0 .475.327c.367.069.684-.054.845-.327.073-.125.081-.222.094-1.176.015-1.21-.006-1.486-.127-1.666-.158-.235-.49-.344-.84-.276m-6 1a.659.659 0 0 0-.447.326c-.072.123-.08.208-.08.896 0 .688.008.773.08.896a.85.85 0 0 0 .185.214c.226.168.724.168.95 0 .214-.16.258-.297.277-.872.031-.921-.04-1.216-.332-1.381-.148-.084-.429-.119-.633-.079m-1 9c-.342.068-.519.314-.519.722 0 .462.207.693.663.739.137.014 2.067.02 4.289.013 3.957-.012 4.043-.014 4.176-.092.273-.161.396-.478.327-.845a.646.646 0 0 0-.327-.475c-.133-.079-.213-.08-4.296-.086-2.288-.003-4.229.008-4.313.024" fill-rule="evenodd" fill="#000"/></svg>