<svg width="24" height="24" fill="none" xmlns="http://www.w3.org/2000/svg"><path d="M9.08 1.282c-4.072.213-6.185 2.014-6.697 5.709-.113.812-.141 1.825-.141 5.009 0 4.504.06 5.273.518 6.65.772 2.313 2.446 3.576 5.267 3.972.704.099 1.819.137 3.973.137 3.375 0 4.369-.091 5.644-.517 2.322-.776 3.581-2.445 3.978-5.269.106-.759.137-1.875.137-4.973s-.031-4.214-.137-4.973c-.263-1.87-.936-3.286-1.981-4.17-1.164-.983-2.63-1.461-4.835-1.577-.851-.045-4.854-.043-5.726.002m6.72 1.573c2.782.457 3.914 1.599 4.348 4.385.066.421.072.824.072 4.76s-.006 4.339-.072 4.76c-.436 2.798-1.59 3.952-4.388 4.388-.415.065-.785.072-3.76.072-2.975 0-3.345-.007-3.76-.072-2.79-.435-3.957-1.597-4.386-4.368-.069-.445-.074-.791-.074-4.78 0-3.989.005-4.335.074-4.78.375-2.423 1.334-3.614 3.346-4.155 1.041-.28 1.356-.298 5-.288 2.798.007 3.23.017 3.6.078m-4.893 2.769a8.705 8.705 0 0 0-4.38 1.878c-.449.362-.542.507-.519.807.016.222.06.3 1.151 2.051a95.41 95.41 0 0 0 1.234 1.952c.128.17.281.248.486.248.221 0 .374-.071.681-.319a3.872 3.872 0 0 1 1.609-.79c.431-.103 1.303-.094 1.739.02.587.153 1.1.411 1.532.769.291.242.445.32.632.32.205 0 .344-.067.513-.247.069-.073.635-.952 1.258-1.953 1.087-1.749 1.132-1.829 1.149-2.051.023-.3-.07-.445-.519-.807a8.612 8.612 0 0 0-5.532-1.938c-.33.003-.796.03-1.034.06m1.779 1.458c.885.09 1.647.307 2.454.698.483.234 1.1.616 1.1.682 0 .04-1.286 2.12-1.352 2.186-.018.018-.21-.057-.427-.168a5.383 5.383 0 0 0-4.922 0c-.217.111-.409.186-.427.168-.066-.066-1.352-2.146-1.352-2.186 0-.066.617-.448 1.1-.682 1.226-.595 2.52-.831 3.826-.698" fill-rule="evenodd" fill="#000"/></svg>