<svg width="24" height="24" fill="none" xmlns="http://www.w3.org/2000/svg"><path d="M6.313 5.281c-1.298.099-2.222.622-2.765 1.565-.159.277-.342.858-.408 1.302-.088.579-.088 7.125 0 7.704.267 1.776 1.332 2.724 3.22 2.866 1.012.077 1.963-.089 2.62-.456.655-.367 1.088-.902 1.342-1.662.201-.599.238-.984.238-2.49v-1.35h2.88v1.35c0 1.506.037 1.891.238 2.49.437 1.304 1.432 1.997 3.042 2.118 1.012.076 1.963-.089 2.62-.456.845-.473 1.349-1.271 1.52-2.41.088-.579.088-7.125 0-7.704-.267-1.776-1.332-2.724-3.22-2.866-1.012-.077-1.963.089-2.62.456-.655.367-1.088.902-1.342 1.662-.201.599-.238.984-.238 2.49v1.35h-2.88V9.89c0-1.506-.037-1.891-.238-2.49C9.956 6.308 9.21 5.658 8 5.377c-.22-.051-1.134-.146-1.26-.13l-.427.034m1.3 1.538c.776.165 1.174.536 1.372 1.281.071.263.075.495.075 3.9s-.004 3.637-.075 3.9c-.256.962-.865 1.339-2.165 1.339s-1.909-.377-2.165-1.339c-.071-.263-.075-.495-.075-3.9s.004-3.637.075-3.9c.096-.362.281-.71.459-.867.187-.164.574-.342.891-.411.344-.075 1.261-.076 1.608-.003m10.36 0c.776.165 1.174.536 1.372 1.281.071.263.075.495.075 3.9s-.004 3.637-.075 3.9c-.256.962-.865 1.339-2.165 1.339s-1.909-.377-2.165-1.339c-.071-.263-.075-.495-.075-3.9s.004-3.637.075-3.9c.096-.362.281-.71.459-.867.187-.164.574-.342.891-.411.344-.075 1.261-.076 1.608-.003M1.176 8.801a.604.604 0 0 0-.377.403c-.027.099-.037 1.102-.03 2.884.01 2.595.015 2.738.086 2.857.127.209.282.275.645.275.363 0 .518-.066.645-.275.072-.119.075-.253.075-2.945 0-2.692-.003-2.826-.075-2.945a.687.687 0 0 0-.196-.195c-.141-.083-.586-.117-.773-.059m21 0a.604.604 0 0 0-.377.403c-.027.099-.037 1.102-.03 2.884.01 2.595.015 2.738.086 2.857.127.209.282.275.645.275.363 0 .518-.066.645-.275.072-.119.075-.253.075-2.945 0-2.692-.003-2.826-.075-2.945a.687.687 0 0 0-.196-.195c-.141-.083-.586-.117-.773-.059" fill-rule="evenodd" fill="#000"/></svg>