<svg width="24" height="24" fill="none" xmlns="http://www.w3.org/2000/svg"><path d="M10.78 4.146C7.816 4.385 4.974 5.4 2.44 7.124c-1.244.846-1.397 1.067-1.098 1.582.199.342.519.502.807.402.086-.029.434-.252.773-.495 2.318-1.659 4.767-2.614 7.538-2.94.258-.03.894-.052 1.54-.052s1.282.022 1.54.052c2.771.326 5.22 1.281 7.538 2.94.339.243.687.466.773.495.289.1.609-.06.806-.402.145-.252.161-.394.07-.6-.088-.199-.265-.352-1.017-.877a17.272 17.272 0 0 0-7.63-2.991c-.492-.067-.876-.087-1.86-.096a35.815 35.815 0 0 0-1.44.004m.26 4.496c-2.068.181-4.011.869-5.795 2.052-1.013.672-1.197.891-1.088 1.294.059.219.323.51.538.592.25.096.418.036.91-.324C7.54 10.841 9.709 10.114 12 10.114c1.129 0 2.018.134 3.107.47 1.187.366 2.16.857 3.261 1.645.259.186.534.355.611.376.2.055.418-.016.598-.195.303-.302.377-.607.217-.893-.247-.439-2.3-1.67-3.554-2.131-.921-.339-2.013-.606-2.88-.705-.532-.061-1.819-.083-2.32-.039m.04 4.323a9.617 9.617 0 0 0-3.092.9c-.686.343-1.674 1.003-1.853 1.239a.572.572 0 0 0-.059.628c.119.245.334.456.525.513.225.068.397.006.824-.296 1.343-.951 2.511-1.391 4.017-1.513 1.821-.149 3.533.37 5.21 1.577.327.235.496.294.711.246.182-.04.453-.305.556-.546.161-.374.047-.588-.532-1.004-.934-.671-1.734-1.072-2.787-1.395a9.243 9.243 0 0 0-3.52-.349m.52 4.543c-.967.076-2.099.546-2.74 1.136-.301.278-.322.588-.064.944.179.247.366.345.616.324.174-.016.275-.063.617-.288.696-.458 1.221-.624 1.967-.624a3.278 3.278 0 0 1 1.969.61c.377.26.488.31.683.31.214 0 .391-.105.551-.325.349-.481.236-.799-.443-1.255a5.057 5.057 0 0 0-2.279-.818 3.698 3.698 0 0 0-.877-.014" fill-rule="evenodd" fill="#000"/></svg>