<svg width="24" height="24" fill="none" xmlns="http://www.w3.org/2000/svg"><path d="M8.08 1.282c-4.072.213-6.185 2.014-6.697 5.709-.113.812-.141 1.825-.141 5.009 0 4.504.06 5.273.518 6.65.772 2.313 2.446 3.576 5.267 3.972.759.106 1.875.137 4.973.137s4.214-.031 4.973-.137c2.47-.347 4.023-1.334 4.924-3.132.482-.96.741-2.121.823-3.683.051-.969.051-6.645 0-7.614-.063-1.195-.199-2.002-.478-2.837-.61-1.825-1.773-2.989-3.592-3.596-.862-.287-1.627-.416-2.844-.48-.854-.045-6.854-.043-7.726.002m8.72 1.572c2.786.462 3.914 1.6 4.348 4.386.066.421.072.824.072 4.76s-.006 4.339-.072 4.76c-.436 2.798-1.59 3.952-4.388 4.388-.421.066-.824.072-4.76.072s-4.339-.006-4.76-.072c-2.79-.435-3.957-1.597-4.386-4.368-.069-.445-.074-.791-.074-4.78 0-4.753-.004-4.663.264-5.712C3.557 4.282 4.722 3.274 6.96 2.9c.73-.123 1.088-.131 5.24-.123 3.763.007 4.222.014 4.6.077m-6.1 4.345c-1.84.253-3.51.937-4.96 2.03-.548.413-.639.661-.398 1.077.2.344.518.502.811.401.087-.03.363-.199.613-.374.588-.414.836-.561 1.439-.851C9.355 8.929 10.769 8.6 12 8.6c1.231 0 2.645.329 3.795.882.603.29.851.437 1.439.851.25.175.526.344.613.374.293.101.611-.057.811-.401.248-.428.154-.662-.448-1.113a10.557 10.557 0 0 0-5.049-2.012 11.635 11.635 0 0 0-2.461.018m.5 3.606c-1.218.122-2.465.58-3.553 1.304-.775.516-.931.738-.787 1.117.096.25.35.522.541.579.233.07.401.015.785-.257.473-.335.783-.52 1.182-.707a6.209 6.209 0 0 1 3.141-.56c1.167.1 2.097.443 3.185 1.174.28.188.57.353.645.367.283.054.609-.166.785-.531a.572.572 0 0 0-.058-.627c-.171-.224-1.064-.825-1.686-1.134-1.186-.591-2.774-.866-4.18-.725m-.08 3.913a4.243 4.243 0 0 0-1.666.755c-.33.25-.435.409-.431.654.006.37.408.793.754.793.164 0 .303-.063.58-.262a2.804 2.804 0 0 1 3.286 0c.277.199.416.262.58.262.212 0 .436-.144.604-.388.185-.269.205-.521.059-.735-.289-.421-1.279-.942-2.084-1.094-.451-.086-1.243-.078-1.682.015" fill-rule="evenodd" fill="#000"/></svg>