<svg width="24" height="24" fill="none" xmlns="http://www.w3.org/2000/svg"><path d="M8.722 2.926c-1.191.197-2.25 1.096-2.645 2.245-.155.449-.208.835-.191 1.392.012.403.026.487.098.584.147.197.324.273.636.273.31 0 .489-.076.632-.268.069-.092.086-.198.111-.68.04-.785.165-1.113.58-1.529a1.882 1.882 0 0 1 1.231-.568 1.88 1.88 0 0 1 1.437.503c.428.392.629.844.629 1.417 0 .842-.478 1.533-1.281 1.854-.166.066-.464.072-4.199.091-3.929.02-4.023.022-4.156.1-.273.161-.396.478-.327.845a.646.646 0 0 0 .327.475c.133.078.219.08 3.836.092 3.882.013 4.367-.003 4.867-.157a3.436 3.436 0 0 0 2.409-2.935c.162-1.606-.771-3.063-2.304-3.598a3.614 3.614 0 0 0-1.69-.136m9.36 1.357c-.451.044-.665.097-1.142.281-1.226.475-2.18 1.546-2.542 2.854-.098.353-.178 1.28-.141 1.627.031.286.122.473.282.578.238.156.718.149.936-.013.221-.164.253-.279.286-1.022.021-.472.052-.751.099-.888a2.897 2.897 0 0 1 1.84-1.839c.268-.093.973-.126 1.325-.063.158.029.437.127.655.231.327.156.431.233.744.546.613.615.846 1.218.806 2.081-.039.812-.345 1.41-1.017 1.983-.229.196-.533.364-.913.506-.192.072-.529.076-8.88.095-8.59.02-8.681.021-8.816.1a.646.646 0 0 0-.327.475c-.069.367.054.684.327.845.135.079.219.08 8.416.092 8.577.013 9 .006 9.565-.151 1.303-.361 2.377-1.318 2.851-2.541.188-.485.236-.686.281-1.18a4.985 4.985 0 0 0-.101-1.42 4.338 4.338 0 0 0-1.221-2.04 4.19 4.19 0 0 0-3.313-1.137M1.793 14.278c-.29.056-.459.234-.517.543-.068.361.057.679.328.839.135.079.226.08 8.816.1 8.332.019 8.688.023 8.88.094.933.347 1.543.964 1.846 1.866.058.172.074.342.074.78s-.016.608-.074.78a2.873 2.873 0 0 1-1.866 1.866c-.314.106-1.246.106-1.56 0a2.876 2.876 0 0 1-1.86-1.846c-.047-.138-.078-.412-.099-.888-.033-.743-.065-.858-.286-1.022-.218-.162-.698-.169-.936-.013-.267.175-.336.535-.264 1.388.094 1.124.479 1.978 1.231 2.729.908.908 2.112 1.339 3.409 1.219a4.127 4.127 0 0 0 2.579-1.219c.908-.908 1.339-2.112 1.219-3.409a4.127 4.127 0 0 0-1.219-2.579 4.119 4.119 0 0 0-2.619-1.223c-.517-.049-16.834-.053-17.082-.005" fill-rule="evenodd" fill="#000"/></svg>