<svg width="24" height="24" fill="none" xmlns="http://www.w3.org/2000/svg"><path d="M1.7 3.181c-.177.095-.236.159-.358.382-.188.346-.135.672.146.884.18.136 2.753 1.673 3.052 1.823a6.21 6.21 0 0 0 1.352.457c.331.07.54.087 1.108.087 1.106 0 1.722-.163 2.86-.756.976-.508 1.669-.665 2.541-.576.6.062 1.015.199 1.739.576 1.138.593 1.754.756 2.86.756.568 0 .777-.017 1.108-.087a6.21 6.21 0 0 0 1.352-.457c.299-.15 2.872-1.687 3.052-1.823.283-.213.334-.537.143-.89-.165-.302-.334-.417-.615-.417-.222 0-.245.012-1.603.825-.757.454-1.507.89-1.665.97-.628.315-1.442.458-2.173.383-.6-.062-1.015-.199-1.739-.576-1.138-.593-1.754-.756-2.86-.756-1.106 0-1.722.163-2.86.756-.724.377-1.139.514-1.739.576-.731.075-1.545-.068-2.173-.383a51.86 51.86 0 0 1-1.658-.966c-1.172-.702-1.398-.823-1.56-.837a.548.548 0 0 0-.31.049M6.344 10.2c-.613.077-1.313.283-1.804.53-.299.15-2.872 1.687-3.052 1.823-.283.213-.334.537-.143.89.165.302.334.417.615.417.223 0 .244-.011 1.615-.833a49.871 49.871 0 0 1 1.665-.97c.623-.308 1.438-.449 2.161-.375.6.062 1.015.199 1.739.576 1.138.593 1.754.756 2.86.756 1.106 0 1.722-.163 2.86-.756.724-.377 1.139-.514 1.739-.576.731-.075 1.545.068 2.173.383.158.08.908.516 1.665.97 1.358.813 1.381.825 1.603.825.281 0 .45-.115.615-.417.191-.353.14-.677-.143-.89-.18-.136-2.753-1.673-3.052-1.823a6.21 6.21 0 0 0-1.352-.457c-.331-.07-.54-.087-1.108-.087-1.106 0-1.722.163-2.86.756-.976.508-1.669.665-2.541.576-.6-.062-1.015-.199-1.739-.576-.726-.378-1.165-.545-1.751-.664-.461-.094-1.334-.133-1.765-.078m0 7c-.613.077-1.313.283-1.804.53-.299.15-2.872 1.687-3.052 1.823-.283.213-.334.537-.143.89.165.302.334.417.615.417.223 0 .244-.011 1.615-.833a49.871 49.871 0 0 1 1.665-.97c.623-.308 1.438-.449 2.161-.375.6.062 1.015.199 1.739.576 1.138.593 1.754.756 2.86.756 1.106 0 1.722-.163 2.86-.756.724-.377 1.139-.514 1.739-.576.731-.075 1.545.068 2.173.383.158.08.908.516 1.665.97 1.358.813 1.381.825 1.603.825.281 0 .45-.115.615-.417.191-.353.14-.677-.143-.89-.18-.136-2.753-1.673-3.052-1.823a6.21 6.21 0 0 0-1.352-.457c-.331-.07-.54-.087-1.108-.087-1.106 0-1.722.163-2.86.756-.976.508-1.669.665-2.541.576-.6-.062-1.015-.199-1.739-.576-.726-.378-1.165-.545-1.751-.664-.461-.094-1.334-.133-1.765-.078" fill-rule="evenodd" fill="#000"/></svg>