<svg width="24" height="24" fill="none" xmlns="http://www.w3.org/2000/svg"><path d="M11.387 1.281c-1.476.111-3.081.741-4.207 1.651A11.39 11.39 0 0 0 6.002 4.1c-1.893 2.297-2.278 5.598-.965 8.28a7.19 7.19 0 0 0 1.42 2.014 7.655 7.655 0 0 0 3.975 2.188c.257.054.516.098.575.098.238 0 .233-.018.233.801v.753l-1.25.013c-1.165.012-1.259.018-1.386.093-.273.161-.396.478-.327.845a.646.646 0 0 0 .327.475c.127.075.221.081 1.383.093l1.247.013.013 1.247c.012 1.162.018 1.256.093 1.383.161.273.478.396.845.327a.646.646 0 0 0 .475-.327c.075-.127.081-.221.093-1.383l.013-1.247 1.247-.013c1.162-.012 1.256-.018 1.383-.093a.646.646 0 0 0 .327-.475c.069-.367-.054-.684-.327-.845-.127-.075-.221-.081-1.386-.093l-1.25-.013v-.753c0-.819-.005-.801.233-.801.059 0 .318-.044.575-.098 2.038-.424 3.789-1.627 4.95-3.402 1.442-2.204 1.617-5.168.445-7.56a7.19 7.19 0 0 0-1.42-2.014 7.7 7.7 0 0 0-6.156-2.325M12.9 2.817a6.147 6.147 0 0 1 3.564 1.829c.529.543.81.94 1.153 1.626.833 1.667.833 3.789 0 5.456-.343.686-.624 1.083-1.153 1.626-1.205 1.236-2.741 1.885-4.464 1.885-1.723 0-3.259-.649-4.464-1.885-.529-.543-.81-.94-1.153-1.626-.73-1.46-.827-3.25-.263-4.836.464-1.303 1.463-2.532 2.62-3.22a6.387 6.387 0 0 1 2.32-.852c.434-.069 1.4-.071 1.84-.003" fill-rule="evenodd" fill="#000"/></svg>